%TF.GenerationSoftware,KiCad,Pcbnew,(6.0.6)*%
%TF.CreationDate,2022-12-16T03:55:14-05:00*%
%TF.ProjectId,SMS-to-GG,534d532d-746f-42d4-9747-2e6b69636164,rev?*%
%TF.SameCoordinates,Original*%
%TF.FileFunction,Soldermask,Top*%
%TF.FilePolarity,Negative*%
%FSLAX46Y46*%
G04 Gerber Fmt 4.6, Leading zero omitted, Abs format (unit mm)*
G04 Created by KiCad (PCBNEW (6.0.6)) date 2022-12-16 03:55:14*
%MOMM*%
%LPD*%
G01*
G04 APERTURE LIST*
G04 Aperture macros list*
%AMFreePoly0*
4,1,17,-0.910000,3.545000,-0.901941,3.630258,-0.857113,3.757908,-0.776734,3.866734,-0.667908,3.947113,-0.540258,3.991941,-0.455000,4.000000,0.455000,4.000000,0.540258,3.991941,0.667908,3.947113,0.776734,3.866734,0.857113,3.757908,0.901941,3.630258,0.910000,3.545000,0.910000,-4.000000,-0.910000,-4.000000,-0.910000,3.545000,-0.910000,3.545000,$1*%
%AMFreePoly1*
4,1,17,-0.910000,3.945000,-0.901941,4.030258,-0.857113,4.157908,-0.776734,4.266734,-0.667908,4.347113,-0.540258,4.391941,-0.455000,4.400000,0.455000,4.400000,0.540258,4.391941,0.667908,4.347113,0.776734,4.266734,0.857113,4.157908,0.901941,4.030258,0.910000,3.945000,0.910000,-4.400000,-0.910000,-4.400000,-0.910000,3.945000,-0.910000,3.945000,$1*%
G04 Aperture macros list end*
%ADD10C,3.500000*%
%ADD11C,1.700000*%
%ADD12O,1.700000X1.700000*%
%ADD13R,1.700000X1.700000*%
%ADD14FreePoly0,0.000000*%
%ADD15FreePoly1,0.000000*%
G04 APERTURE END LIST*
D10*
%TO.C,J2*%
X16483000Y-86293000D03*
X22833000Y-86293000D03*
X103859000Y-86293000D03*
D11*
X35533000Y-90611000D03*
X36803000Y-85491000D03*
D12*
X38073000Y-90611000D03*
X39343000Y-85491000D03*
X40613000Y-90611000D03*
X41883000Y-85491000D03*
X43153000Y-90611000D03*
X44423000Y-85491000D03*
X45693000Y-90611000D03*
X46963000Y-85491000D03*
X48233000Y-90611000D03*
X49503000Y-85491000D03*
X50773000Y-90611000D03*
X52043000Y-85491000D03*
X53313000Y-90611000D03*
D13*
X54583000Y-85491000D03*
X55853000Y-90611000D03*
X57123000Y-85491000D03*
D12*
X58393000Y-90611000D03*
X59663000Y-85491000D03*
X60933000Y-90611000D03*
X62203000Y-85491000D03*
X63473000Y-90611000D03*
X64743000Y-85491000D03*
X66013000Y-90611000D03*
X67283000Y-85491000D03*
X68553000Y-90611000D03*
X69823000Y-85491000D03*
X71093000Y-90611000D03*
X72363000Y-85491000D03*
X73633000Y-90611000D03*
X74903000Y-85491000D03*
X76173000Y-90611000D03*
X77443000Y-85491000D03*
X78713000Y-90611000D03*
X79983000Y-85491000D03*
X81253000Y-90611000D03*
X82523000Y-85491000D03*
X83793000Y-90611000D03*
X85063000Y-85491000D03*
D13*
X86333000Y-90611000D03*
D12*
X87603000Y-85491000D03*
X88873000Y-90611000D03*
X90143000Y-85491000D03*
X91413000Y-90611000D03*
%TD*%
D14*
%TO.C,J1*%
X94037000Y-112268000D03*
X91497000Y-112268000D03*
X88957000Y-112268000D03*
X86417000Y-112268000D03*
X83877000Y-112268000D03*
X81337000Y-112268000D03*
X78797000Y-112268000D03*
X76257000Y-112268000D03*
X73717000Y-112268000D03*
D15*
X71177000Y-112668000D03*
D14*
X68637000Y-112268000D03*
X66097000Y-112268000D03*
X63557000Y-112268000D03*
X61017000Y-112268000D03*
X58477000Y-112268000D03*
X55937000Y-112268000D03*
X53397000Y-112268000D03*
X50857000Y-112268000D03*
X48317000Y-112268000D03*
X45777000Y-112268000D03*
X43237000Y-112268000D03*
X40697000Y-112268000D03*
X38157000Y-112268000D03*
X35617000Y-112268000D03*
X33077000Y-112268000D03*
%TD*%
M02*
