%TF.GenerationSoftware,KiCad,Pcbnew,(6.0.6)*%
%TF.CreationDate,2023-04-01T18:19:22-04:00*%
%TF.ProjectId,SMS-to-GG,534d532d-746f-42d4-9747-2e6b69636164,rev?*%
%TF.SameCoordinates,Original*%
%TF.FileFunction,Soldermask,Bot*%
%TF.FilePolarity,Negative*%
%FSLAX46Y46*%
G04 Gerber Fmt 4.6, Leading zero omitted, Abs format (unit mm)*
G04 Created by KiCad (PCBNEW (6.0.6)) date 2023-04-01 18:19:22*
%MOMM*%
%LPD*%
G01*
G04 APERTURE LIST*
G04 Aperture macros list*
%AMFreePoly0*
4,1,17,-0.910000,3.545000,-0.901941,3.630258,-0.857113,3.757908,-0.776734,3.866734,-0.667908,3.947113,-0.540258,3.991941,-0.455000,4.000000,0.455000,4.000000,0.540258,3.991941,0.667908,3.947113,0.776734,3.866734,0.857113,3.757908,0.901941,3.630258,0.910000,3.545000,0.910000,-4.000000,-0.910000,-4.000000,-0.910000,3.545000,-0.910000,3.545000,$1*%
%AMFreePoly1*
4,1,17,-0.910000,3.945000,-0.901941,4.030258,-0.857113,4.157908,-0.776734,4.266734,-0.667908,4.347113,-0.540258,4.391941,-0.455000,4.400000,0.455000,4.400000,0.540258,4.391941,0.667908,4.347113,0.776734,4.266734,0.857113,4.157908,0.901941,4.030258,0.910000,3.945000,0.910000,-4.400000,-0.910000,-4.400000,-0.910000,3.945000,-0.910000,3.945000,$1*%
G04 Aperture macros list end*
%ADD10C,3.700000*%
%ADD11C,1.700000*%
%ADD12O,1.700000X1.700000*%
%ADD13R,1.700000X1.700000*%
%ADD14FreePoly0,0.000000*%
%ADD15FreePoly1,0.000000*%
G04 APERTURE END LIST*
%TO.C,G\u002A\u002A\u002A*%
G36*
X72292305Y-76087461D02*
G01*
X71850453Y-76087461D01*
X71850453Y-78277228D01*
X71382610Y-78277228D01*
X71382610Y-76087632D01*
X71160059Y-76085922D01*
X70937509Y-76084212D01*
X70935780Y-75907146D01*
X70934051Y-75730081D01*
X72292305Y-75730081D01*
X72292305Y-76087461D01*
G37*
G36*
X60446769Y-76834711D02*
G01*
X60973093Y-76834711D01*
X60973093Y-75730081D01*
X61434439Y-75730081D01*
X61434439Y-78277228D01*
X60973093Y-78277228D01*
X60973093Y-77192091D01*
X60446769Y-77192091D01*
X60446769Y-78277228D01*
X59978926Y-78277228D01*
X59978926Y-75730081D01*
X60446769Y-75730081D01*
X60446769Y-76834711D01*
G37*
G36*
X66078092Y-71249830D02*
G01*
X66071379Y-71254941D01*
X66051444Y-71270119D01*
X66048157Y-71272622D01*
X66036485Y-71281509D01*
X66011633Y-71300426D01*
X65986023Y-71319920D01*
X65978713Y-71325484D01*
X65960410Y-71339413D01*
X65934794Y-71358907D01*
X65914425Y-71374408D01*
X65909178Y-71378400D01*
X65880691Y-71400075D01*
X65875019Y-71404391D01*
X65860943Y-71415101D01*
X65849399Y-71423885D01*
X65844154Y-71427876D01*
X65835322Y-71434595D01*
X65823777Y-71443378D01*
X65809699Y-71454088D01*
X65798153Y-71462872D01*
X65784075Y-71473582D01*
X65772530Y-71482365D01*
X65768430Y-71485484D01*
X65749288Y-71500045D01*
X65715740Y-71525564D01*
X65710913Y-71529236D01*
X65690113Y-71545058D01*
X65687787Y-71546827D01*
X65687109Y-71547343D01*
X65664484Y-71564551D01*
X65661478Y-71566837D01*
X65638853Y-71584045D01*
X65635849Y-71586330D01*
X65615893Y-71601508D01*
X65612602Y-71604011D01*
X65602754Y-71611501D01*
X65576043Y-71631815D01*
X65550410Y-71651309D01*
X65524778Y-71670802D01*
X65513864Y-71679102D01*
X65499143Y-71690296D01*
X65473508Y-71709789D01*
X65447484Y-71729578D01*
X65439328Y-71735780D01*
X65425244Y-71746490D01*
X65421647Y-71749225D01*
X65413691Y-71755274D01*
X65399605Y-71765984D01*
X65388054Y-71774767D01*
X65373968Y-71785477D01*
X65362415Y-71794261D01*
X65348329Y-71804971D01*
X65336778Y-71813754D01*
X65326636Y-71821465D01*
X65313523Y-71831435D01*
X65308784Y-71835038D01*
X65279971Y-71856953D01*
X65275143Y-71860625D01*
X65254341Y-71876447D01*
X65251335Y-71878733D01*
X65228712Y-71895940D01*
X65225706Y-71898226D01*
X65214035Y-71907103D01*
X65203088Y-71915434D01*
X65200084Y-71917720D01*
X65182621Y-71931010D01*
X65176852Y-71935400D01*
X65140316Y-71963204D01*
X65122075Y-71977086D01*
X65114705Y-71982698D01*
X65089105Y-72002191D01*
X65063503Y-72021685D01*
X65037903Y-72041178D01*
X65033444Y-72044573D01*
X65011927Y-72060967D01*
X65003786Y-72067170D01*
X64989729Y-72077880D01*
X64978202Y-72086663D01*
X64964145Y-72097373D01*
X64952618Y-72106156D01*
X64948683Y-72109154D01*
X64938567Y-72116866D01*
X64927045Y-72125650D01*
X64901476Y-72145143D01*
X64878284Y-72162824D01*
X64868330Y-72170413D01*
X64844828Y-72188343D01*
X64840015Y-72192015D01*
X64819278Y-72207836D01*
X64816282Y-72210122D01*
X64793727Y-72227330D01*
X64792927Y-72227940D01*
X64790733Y-72229615D01*
X64773326Y-72242906D01*
X64765202Y-72249109D01*
X64747796Y-72262399D01*
X64739672Y-72268602D01*
X64723014Y-72281321D01*
X64722266Y-72281893D01*
X64705648Y-72294593D01*
X64680140Y-72314087D01*
X64659130Y-72330144D01*
X64654639Y-72333580D01*
X64629160Y-72353074D01*
X64603683Y-72372567D01*
X64601815Y-72373996D01*
X64581222Y-72389775D01*
X64569758Y-72398559D01*
X64555780Y-72409269D01*
X64551610Y-72412464D01*
X64544332Y-72418052D01*
X64530382Y-72428762D01*
X64518940Y-72437546D01*
X64509054Y-72445136D01*
X64505002Y-72448256D01*
X64493596Y-72457039D01*
X64474687Y-72471599D01*
X64468312Y-72476533D01*
X64449051Y-72491441D01*
X64437808Y-72500238D01*
X64432683Y-72504248D01*
X64426125Y-72509608D01*
X64412567Y-72523404D01*
X64657501Y-73286475D01*
X64663758Y-73305969D01*
X64667022Y-73316138D01*
X64674186Y-73338458D01*
X64680443Y-73357951D01*
X64685443Y-73373528D01*
X64690871Y-73390440D01*
X64697128Y-73409934D01*
X64703385Y-73429427D01*
X64707557Y-73442423D01*
X64713814Y-73461916D01*
X64720071Y-73481410D01*
X64723335Y-73491580D01*
X64730499Y-73513899D01*
X64736756Y-73533392D01*
X64740020Y-73543562D01*
X64747184Y-73565882D01*
X64752534Y-73582549D01*
X64753441Y-73585375D01*
X64756706Y-73595545D01*
X64758767Y-73601965D01*
X64763870Y-73617864D01*
X64770126Y-73637358D01*
X64773389Y-73647527D01*
X64780552Y-73669847D01*
X64786808Y-73689340D01*
X64791807Y-73704917D01*
X64795146Y-73715321D01*
X64797234Y-73721829D01*
X64803489Y-73741323D01*
X64809092Y-73758786D01*
X64813913Y-73773812D01*
X64820168Y-73793305D01*
X64826423Y-73812799D01*
X64830467Y-73825402D01*
X64830593Y-73825795D01*
X64836847Y-73845288D01*
X64843101Y-73864782D01*
X64846363Y-73874951D01*
X64853523Y-73897271D01*
X64859776Y-73916764D01*
X64863038Y-73926934D01*
X64864522Y-73931560D01*
X64870196Y-73949253D01*
X64876448Y-73968747D01*
X64879709Y-73978917D01*
X64886867Y-74001236D01*
X64893119Y-74020729D01*
X64896381Y-74030899D01*
X64897101Y-74033144D01*
X64903538Y-74053219D01*
X64909788Y-74072712D01*
X64914782Y-74088288D01*
X64920205Y-74105201D01*
X64926456Y-74124695D01*
X64927998Y-74129504D01*
X64932705Y-74144188D01*
X64936871Y-74157184D01*
X64943119Y-74176677D01*
X64949368Y-74196171D01*
X64953533Y-74209166D01*
X64957003Y-74219991D01*
X64959781Y-74228660D01*
X64966027Y-74248153D01*
X64969286Y-74258323D01*
X64976438Y-74280642D01*
X64982685Y-74300136D01*
X64983908Y-74303954D01*
X64985943Y-74310306D01*
X64993092Y-74332625D01*
X64999336Y-74352118D01*
X65002594Y-74362288D01*
X65008506Y-74380743D01*
X65009744Y-74384608D01*
X65015985Y-74404101D01*
X65022226Y-74423595D01*
X65026387Y-74436590D01*
X65030587Y-74449709D01*
X65032627Y-74456084D01*
X65038215Y-74473547D01*
X65043023Y-74488573D01*
X65049261Y-74508066D01*
X65049945Y-74510202D01*
X65055495Y-74527560D01*
X65066370Y-74561571D01*
X65079654Y-74603166D01*
X65089590Y-74634338D01*
X65095969Y-74654437D01*
X65098582Y-74662813D01*
X65099236Y-74665142D01*
X65102185Y-74678485D01*
X65101920Y-74683931D01*
X65101211Y-74683488D01*
X65092289Y-74677208D01*
X65073576Y-74663802D01*
X65045607Y-74643655D01*
X65008918Y-74617157D01*
X64964042Y-74584695D01*
X64911514Y-74546656D01*
X64868400Y-74515410D01*
X64970849Y-74515410D01*
X64972505Y-74521485D01*
X64973840Y-74523408D01*
X64979770Y-74527983D01*
X64980658Y-74527560D01*
X64979003Y-74521485D01*
X64977668Y-74519562D01*
X64971738Y-74514987D01*
X64970849Y-74515410D01*
X64868400Y-74515410D01*
X64851869Y-74503429D01*
X64841511Y-74495917D01*
X64944858Y-74495917D01*
X64946513Y-74501992D01*
X64947848Y-74503915D01*
X64953778Y-74508489D01*
X64954667Y-74508066D01*
X64953011Y-74501992D01*
X64951676Y-74500068D01*
X64945746Y-74495494D01*
X64944858Y-74495917D01*
X64841511Y-74495917D01*
X64814630Y-74476423D01*
X64918866Y-74476423D01*
X64920522Y-74482498D01*
X64921857Y-74484422D01*
X64927787Y-74488996D01*
X64928676Y-74488573D01*
X64927020Y-74482498D01*
X64925685Y-74480575D01*
X64919755Y-74476000D01*
X64918866Y-74476423D01*
X64814630Y-74476423D01*
X64787753Y-74456932D01*
X64891331Y-74456932D01*
X64896951Y-74464629D01*
X64898977Y-74467145D01*
X64907615Y-74475492D01*
X64910775Y-74473547D01*
X64908403Y-74470191D01*
X64899404Y-74462176D01*
X64894696Y-74458546D01*
X64891331Y-74456932D01*
X64787753Y-74456932D01*
X64785642Y-74455401D01*
X64769838Y-74443934D01*
X64873382Y-74443934D01*
X64875037Y-74450009D01*
X64876372Y-74451932D01*
X64882302Y-74456507D01*
X64883191Y-74456084D01*
X64881535Y-74450009D01*
X64880200Y-74448085D01*
X64874270Y-74443511D01*
X64873382Y-74443934D01*
X64769838Y-74443934D01*
X64742973Y-74424441D01*
X64847390Y-74424441D01*
X64849046Y-74430515D01*
X64850381Y-74432439D01*
X64856311Y-74437013D01*
X64857200Y-74436590D01*
X64855544Y-74430515D01*
X64854209Y-74428592D01*
X64848279Y-74424018D01*
X64847390Y-74424441D01*
X64742973Y-74424441D01*
X64725062Y-74411445D01*
X64827897Y-74411445D01*
X64829553Y-74417520D01*
X64830888Y-74419443D01*
X64836817Y-74424018D01*
X64837706Y-74423595D01*
X64836050Y-74417520D01*
X64834715Y-74415596D01*
X64828786Y-74411022D01*
X64827897Y-74411445D01*
X64725062Y-74411445D01*
X64713367Y-74402959D01*
X64698204Y-74391952D01*
X64801906Y-74391952D01*
X64803561Y-74398026D01*
X64804896Y-74399950D01*
X64810826Y-74404524D01*
X64811715Y-74404101D01*
X64810059Y-74398026D01*
X64808724Y-74396103D01*
X64802794Y-74391528D01*
X64801906Y-74391952D01*
X64698204Y-74391952D01*
X64671349Y-74372458D01*
X64775914Y-74372458D01*
X64777570Y-74378533D01*
X64778905Y-74380456D01*
X64784835Y-74385031D01*
X64785724Y-74384608D01*
X64784068Y-74378533D01*
X64782733Y-74376609D01*
X64776803Y-74372035D01*
X64775914Y-74372458D01*
X64671349Y-74372458D01*
X64657339Y-74362288D01*
X64754828Y-74362288D01*
X64758077Y-74365537D01*
X64761325Y-74362288D01*
X64758077Y-74359039D01*
X64754828Y-74362288D01*
X64657339Y-74362288D01*
X64635579Y-74346492D01*
X64626597Y-74339969D01*
X64730429Y-74339969D01*
X64732085Y-74346044D01*
X64733420Y-74347967D01*
X64739350Y-74352542D01*
X64740239Y-74352118D01*
X64738583Y-74346044D01*
X64737248Y-74344120D01*
X64731318Y-74339546D01*
X64730429Y-74339969D01*
X64626597Y-74339969D01*
X64599754Y-74320475D01*
X64704438Y-74320475D01*
X64706094Y-74326550D01*
X64707429Y-74328474D01*
X64713359Y-74333048D01*
X64714248Y-74332625D01*
X64712592Y-74326550D01*
X64711257Y-74324627D01*
X64705327Y-74320052D01*
X64704438Y-74320475D01*
X64599754Y-74320475D01*
X64585751Y-74310306D01*
X64683352Y-74310306D01*
X64686600Y-74313555D01*
X64689849Y-74310306D01*
X64686600Y-74307057D01*
X64683352Y-74310306D01*
X64585751Y-74310306D01*
X64555016Y-74287986D01*
X64658953Y-74287986D01*
X64660609Y-74294061D01*
X64661944Y-74295985D01*
X64667874Y-74300559D01*
X64668763Y-74300136D01*
X64667107Y-74294061D01*
X64665772Y-74292138D01*
X64659842Y-74287563D01*
X64658953Y-74287986D01*
X64555016Y-74287986D01*
X64552813Y-74286386D01*
X64528183Y-74268493D01*
X64632962Y-74268493D01*
X64634618Y-74274568D01*
X64635953Y-74276491D01*
X64641883Y-74281065D01*
X64642771Y-74280642D01*
X64641116Y-74274568D01*
X64639781Y-74272644D01*
X64633851Y-74268070D01*
X64632962Y-74268493D01*
X64528183Y-74268493D01*
X64514184Y-74258323D01*
X64611875Y-74258323D01*
X64615124Y-74261572D01*
X64618373Y-74258323D01*
X64615124Y-74255074D01*
X64611875Y-74258323D01*
X64514184Y-74258323D01*
X64483461Y-74236004D01*
X64587477Y-74236004D01*
X64589133Y-74242079D01*
X64590468Y-74244002D01*
X64596398Y-74248576D01*
X64597287Y-74248153D01*
X64595631Y-74242079D01*
X64594296Y-74240155D01*
X64588366Y-74235581D01*
X64587477Y-74236004D01*
X64483461Y-74236004D01*
X64465603Y-74223031D01*
X64456630Y-74216510D01*
X64561486Y-74216510D01*
X64563142Y-74222585D01*
X64564477Y-74224509D01*
X64570407Y-74229083D01*
X64571295Y-74228660D01*
X64569640Y-74222585D01*
X64568305Y-74220662D01*
X64562375Y-74216087D01*
X64561486Y-74216510D01*
X64456630Y-74216510D01*
X64429806Y-74197017D01*
X64535495Y-74197017D01*
X64537150Y-74203092D01*
X64538485Y-74205015D01*
X64544415Y-74209589D01*
X64545304Y-74209166D01*
X64543648Y-74203092D01*
X64542313Y-74201168D01*
X64536383Y-74196594D01*
X64535495Y-74197017D01*
X64429806Y-74197017D01*
X64411923Y-74184021D01*
X64516001Y-74184021D01*
X64517657Y-74190096D01*
X64518992Y-74192019D01*
X64524922Y-74196594D01*
X64525811Y-74196171D01*
X64524155Y-74190096D01*
X64522820Y-74188172D01*
X64516890Y-74183598D01*
X64516001Y-74184021D01*
X64411923Y-74184021D01*
X64385099Y-74164528D01*
X64490010Y-74164528D01*
X64491666Y-74170602D01*
X64493001Y-74172526D01*
X64498930Y-74177100D01*
X64499819Y-74176677D01*
X64498163Y-74170602D01*
X64496829Y-74168679D01*
X64490899Y-74164105D01*
X64490010Y-74164528D01*
X64385099Y-74164528D01*
X64374483Y-74156813D01*
X64358280Y-74145034D01*
X64464019Y-74145034D01*
X64465674Y-74151109D01*
X64467009Y-74153032D01*
X64472939Y-74157607D01*
X64473828Y-74157184D01*
X64472172Y-74151109D01*
X64470837Y-74149185D01*
X64464907Y-74144611D01*
X64464019Y-74145034D01*
X64358280Y-74145034D01*
X64340404Y-74132039D01*
X64444525Y-74132039D01*
X64446181Y-74138113D01*
X64447516Y-74140037D01*
X64453446Y-74144611D01*
X64454334Y-74144188D01*
X64452679Y-74138113D01*
X64451344Y-74136190D01*
X64445414Y-74131615D01*
X64444525Y-74132039D01*
X64340404Y-74132039D01*
X64313588Y-74112545D01*
X64418534Y-74112545D01*
X64420190Y-74118620D01*
X64421525Y-74120543D01*
X64427454Y-74125118D01*
X64428343Y-74124695D01*
X64426687Y-74118620D01*
X64425352Y-74116696D01*
X64419423Y-74112122D01*
X64418534Y-74112545D01*
X64313588Y-74112545D01*
X64286773Y-74093052D01*
X64392543Y-74093052D01*
X64394198Y-74099126D01*
X64395533Y-74101050D01*
X64401463Y-74105624D01*
X64402352Y-74105201D01*
X64400696Y-74099126D01*
X64399361Y-74097203D01*
X64393431Y-74092629D01*
X64392543Y-74093052D01*
X64286773Y-74093052D01*
X64279990Y-74088121D01*
X64259967Y-74073561D01*
X64365007Y-74073561D01*
X64370627Y-74081257D01*
X64376574Y-74088188D01*
X64381998Y-74092629D01*
X64383138Y-74092522D01*
X64383182Y-74088288D01*
X64373080Y-74078804D01*
X64368372Y-74075174D01*
X64365007Y-74073561D01*
X64259967Y-74073561D01*
X64242091Y-74060562D01*
X64347058Y-74060562D01*
X64348714Y-74066637D01*
X64350048Y-74068561D01*
X64355978Y-74073135D01*
X64356867Y-74072712D01*
X64355211Y-74066637D01*
X64353876Y-74064714D01*
X64347947Y-74060139D01*
X64347058Y-74060562D01*
X64242091Y-74060562D01*
X64215285Y-74041069D01*
X64321066Y-74041069D01*
X64322722Y-74047144D01*
X64324057Y-74049067D01*
X64329987Y-74053642D01*
X64330876Y-74053219D01*
X64329220Y-74047144D01*
X64327885Y-74045220D01*
X64321955Y-74040646D01*
X64321066Y-74041069D01*
X64215285Y-74041069D01*
X64201300Y-74030899D01*
X64299980Y-74030899D01*
X64303229Y-74034148D01*
X64306478Y-74030899D01*
X64303229Y-74027650D01*
X64299980Y-74030899D01*
X64201300Y-74030899D01*
X64182656Y-74017341D01*
X64170605Y-74008580D01*
X64275582Y-74008580D01*
X64277237Y-74014655D01*
X64278572Y-74016578D01*
X64284502Y-74021152D01*
X64285391Y-74020729D01*
X64283735Y-74014655D01*
X64282400Y-74012731D01*
X64276470Y-74008157D01*
X64275582Y-74008580D01*
X64170605Y-74008580D01*
X64143792Y-73989086D01*
X64249590Y-73989086D01*
X64251246Y-73995161D01*
X64252581Y-73997085D01*
X64258511Y-74001659D01*
X64259400Y-74001236D01*
X64257744Y-73995161D01*
X64256409Y-73993238D01*
X64250479Y-73988663D01*
X64249590Y-73989086D01*
X64143792Y-73989086D01*
X64129805Y-73978917D01*
X64228504Y-73978917D01*
X64231753Y-73982165D01*
X64235002Y-73978917D01*
X64231753Y-73975668D01*
X64228504Y-73978917D01*
X64129805Y-73978917D01*
X64108887Y-73963709D01*
X64099094Y-73956597D01*
X64204106Y-73956597D01*
X64205761Y-73962672D01*
X64207096Y-73964595D01*
X64213026Y-73969170D01*
X64213915Y-73968747D01*
X64212259Y-73962672D01*
X64210924Y-73960749D01*
X64204994Y-73956174D01*
X64204106Y-73956597D01*
X64099094Y-73956597D01*
X64072251Y-73937104D01*
X64178114Y-73937104D01*
X64179770Y-73943179D01*
X64181105Y-73945102D01*
X64187035Y-73949676D01*
X64187924Y-73949253D01*
X64186268Y-73943179D01*
X64184933Y-73941255D01*
X64179003Y-73936681D01*
X64178114Y-73937104D01*
X64072251Y-73937104D01*
X64058247Y-73926934D01*
X64157028Y-73926934D01*
X64160277Y-73930183D01*
X64163525Y-73926934D01*
X64160277Y-73923685D01*
X64157028Y-73926934D01*
X64058247Y-73926934D01*
X64027514Y-73904615D01*
X64132629Y-73904615D01*
X64134285Y-73910689D01*
X64135620Y-73912613D01*
X64141550Y-73917187D01*
X64142439Y-73916764D01*
X64140783Y-73910689D01*
X64139448Y-73908766D01*
X64133518Y-73904192D01*
X64132629Y-73904615D01*
X64027514Y-73904615D01*
X64000670Y-73885121D01*
X64106638Y-73885121D01*
X64108294Y-73891196D01*
X64109629Y-73893119D01*
X64115559Y-73897694D01*
X64116448Y-73897271D01*
X64114792Y-73891196D01*
X64113457Y-73889272D01*
X64107527Y-73884698D01*
X64106638Y-73885121D01*
X64000670Y-73885121D01*
X63987310Y-73875419D01*
X63986664Y-73874951D01*
X64085552Y-73874951D01*
X64088800Y-73878200D01*
X64092049Y-73874951D01*
X64088800Y-73871702D01*
X64085552Y-73874951D01*
X63986664Y-73874951D01*
X63955880Y-73852632D01*
X64061153Y-73852632D01*
X64062809Y-73858707D01*
X64064144Y-73860630D01*
X64070074Y-73865205D01*
X64070963Y-73864782D01*
X64069307Y-73858707D01*
X64067972Y-73856783D01*
X64062042Y-73852209D01*
X64061153Y-73852632D01*
X63955880Y-73852632D01*
X63928993Y-73833139D01*
X64035162Y-73833139D01*
X64036818Y-73839213D01*
X64038153Y-73841137D01*
X64044083Y-73845711D01*
X64044971Y-73845288D01*
X64043316Y-73839213D01*
X64041981Y-73837290D01*
X64036051Y-73832716D01*
X64035162Y-73833139D01*
X63928993Y-73833139D01*
X63902105Y-73813645D01*
X64009171Y-73813645D01*
X64010827Y-73819720D01*
X64012162Y-73821643D01*
X64018091Y-73826218D01*
X64018980Y-73825795D01*
X64017324Y-73819720D01*
X64015989Y-73817796D01*
X64010060Y-73813222D01*
X64009171Y-73813645D01*
X63902105Y-73813645D01*
X63884180Y-73800649D01*
X63989677Y-73800649D01*
X63991333Y-73806724D01*
X63992668Y-73808648D01*
X63998598Y-73813222D01*
X63999487Y-73812799D01*
X63997831Y-73806724D01*
X63996496Y-73804801D01*
X63990566Y-73800226D01*
X63989677Y-73800649D01*
X63884180Y-73800649D01*
X63874568Y-73793680D01*
X63857261Y-73781156D01*
X63963686Y-73781156D01*
X63965342Y-73787231D01*
X63966677Y-73789154D01*
X63972607Y-73793729D01*
X63973495Y-73793305D01*
X63971840Y-73787231D01*
X63970505Y-73785307D01*
X63964575Y-73780733D01*
X63963686Y-73781156D01*
X63857261Y-73781156D01*
X63830323Y-73761662D01*
X63937695Y-73761662D01*
X63939350Y-73767737D01*
X63940685Y-73769661D01*
X63946615Y-73774235D01*
X63947504Y-73773812D01*
X63945848Y-73767737D01*
X63944513Y-73765814D01*
X63938584Y-73761239D01*
X63937695Y-73761662D01*
X63830323Y-73761662D01*
X63803390Y-73742172D01*
X63910160Y-73742172D01*
X63915779Y-73749868D01*
X63917805Y-73752384D01*
X63926443Y-73760731D01*
X63929604Y-73758786D01*
X63927232Y-73755431D01*
X63918233Y-73747415D01*
X63913525Y-73743785D01*
X63910160Y-73742172D01*
X63803390Y-73742172D01*
X63785427Y-73729173D01*
X63892210Y-73729173D01*
X63893866Y-73735248D01*
X63895201Y-73737172D01*
X63901131Y-73741746D01*
X63902019Y-73741323D01*
X63900364Y-73735248D01*
X63899029Y-73733325D01*
X63893099Y-73728750D01*
X63892210Y-73729173D01*
X63785427Y-73729173D01*
X63770798Y-73718587D01*
X63758462Y-73709680D01*
X63866219Y-73709680D01*
X63867874Y-73715755D01*
X63869209Y-73717678D01*
X63875139Y-73722252D01*
X63876028Y-73721829D01*
X63874372Y-73715755D01*
X63873037Y-73713831D01*
X63867107Y-73709257D01*
X63866219Y-73709680D01*
X63758462Y-73709680D01*
X63731468Y-73690189D01*
X63838684Y-73690189D01*
X63844303Y-73697886D01*
X63850250Y-73704816D01*
X63855674Y-73709257D01*
X63856815Y-73709150D01*
X63856859Y-73704917D01*
X63846756Y-73695432D01*
X63842048Y-73691803D01*
X63838684Y-73690189D01*
X63731468Y-73690189D01*
X63713466Y-73677191D01*
X63820734Y-73677191D01*
X63822390Y-73683266D01*
X63823725Y-73685189D01*
X63829654Y-73689763D01*
X63830543Y-73689340D01*
X63828887Y-73683266D01*
X63827552Y-73681342D01*
X63821623Y-73676768D01*
X63820734Y-73677191D01*
X63713466Y-73677191D01*
X63686467Y-73657697D01*
X63794743Y-73657697D01*
X63796398Y-73663772D01*
X63797733Y-73665696D01*
X63803663Y-73670270D01*
X63804552Y-73669847D01*
X63802896Y-73663772D01*
X63801561Y-73661849D01*
X63795631Y-73657274D01*
X63794743Y-73657697D01*
X63686467Y-73657697D01*
X63676135Y-73650237D01*
X63672371Y-73647527D01*
X63773656Y-73647527D01*
X63776905Y-73650776D01*
X63780154Y-73647527D01*
X63776905Y-73644279D01*
X63773656Y-73647527D01*
X63672371Y-73647527D01*
X63641376Y-73625208D01*
X63749258Y-73625208D01*
X63750914Y-73631283D01*
X63752249Y-73633206D01*
X63758178Y-73637781D01*
X63759067Y-73637358D01*
X63757411Y-73631283D01*
X63756076Y-73629359D01*
X63750147Y-73624785D01*
X63749258Y-73625208D01*
X63641376Y-73625208D01*
X63614305Y-73605715D01*
X63723266Y-73605715D01*
X63724922Y-73611789D01*
X63726257Y-73613713D01*
X63732187Y-73618287D01*
X63733076Y-73617864D01*
X63731420Y-73611789D01*
X63730085Y-73609866D01*
X63724155Y-73605292D01*
X63723266Y-73605715D01*
X63614305Y-73605715D01*
X63600181Y-73595545D01*
X63702180Y-73595545D01*
X63705429Y-73598794D01*
X63708678Y-73595545D01*
X63705429Y-73592296D01*
X63702180Y-73595545D01*
X63600181Y-73595545D01*
X63590714Y-73588728D01*
X63569112Y-73573226D01*
X63677782Y-73573226D01*
X63679437Y-73579300D01*
X63680772Y-73581224D01*
X63686702Y-73585798D01*
X63687591Y-73585375D01*
X63685935Y-73579300D01*
X63684600Y-73577377D01*
X63678671Y-73572802D01*
X63677782Y-73573226D01*
X63569112Y-73573226D01*
X63541948Y-73553732D01*
X63651790Y-73553732D01*
X63653446Y-73559807D01*
X63654781Y-73561730D01*
X63660711Y-73566305D01*
X63661600Y-73565882D01*
X63659944Y-73559807D01*
X63658609Y-73557883D01*
X63652679Y-73553309D01*
X63651790Y-73553732D01*
X63541948Y-73553732D01*
X63527776Y-73543562D01*
X63630704Y-73543562D01*
X63633953Y-73546811D01*
X63637202Y-73543562D01*
X63633953Y-73540313D01*
X63630704Y-73543562D01*
X63527776Y-73543562D01*
X63514669Y-73534156D01*
X63496597Y-73521243D01*
X63606306Y-73521243D01*
X63607961Y-73527318D01*
X63609296Y-73529241D01*
X63615226Y-73533816D01*
X63616115Y-73533392D01*
X63614459Y-73527318D01*
X63613124Y-73525394D01*
X63607194Y-73520820D01*
X63606306Y-73521243D01*
X63496597Y-73521243D01*
X63469314Y-73501749D01*
X63580314Y-73501749D01*
X63581970Y-73507824D01*
X63583305Y-73509748D01*
X63589235Y-73514322D01*
X63590124Y-73513899D01*
X63588468Y-73507824D01*
X63587133Y-73505901D01*
X63581203Y-73501326D01*
X63580314Y-73501749D01*
X63469314Y-73501749D01*
X63455082Y-73491580D01*
X63559228Y-73491580D01*
X63562477Y-73494829D01*
X63565726Y-73491580D01*
X63562477Y-73488331D01*
X63559228Y-73491580D01*
X63455082Y-73491580D01*
X63448138Y-73486618D01*
X63423702Y-73469260D01*
X63534830Y-73469260D01*
X63536485Y-73475335D01*
X63537820Y-73477259D01*
X63543750Y-73481833D01*
X63544639Y-73481410D01*
X63542983Y-73475335D01*
X63541648Y-73473412D01*
X63535718Y-73468837D01*
X63534830Y-73469260D01*
X63423702Y-73469260D01*
X63396260Y-73449767D01*
X63508838Y-73449767D01*
X63510494Y-73455842D01*
X63511829Y-73457765D01*
X63517759Y-73462339D01*
X63518648Y-73461916D01*
X63516992Y-73455842D01*
X63515657Y-73453918D01*
X63509727Y-73449344D01*
X63508838Y-73449767D01*
X63396260Y-73449767D01*
X63391254Y-73446211D01*
X63368629Y-73430273D01*
X63482847Y-73430273D01*
X63484503Y-73436348D01*
X63485838Y-73438272D01*
X63491767Y-73442846D01*
X63492656Y-73442423D01*
X63491001Y-73436348D01*
X63489666Y-73434425D01*
X63483736Y-73429850D01*
X63482847Y-73430273D01*
X63368629Y-73430273D01*
X63350182Y-73417278D01*
X63463353Y-73417278D01*
X63465009Y-73423352D01*
X63466344Y-73425276D01*
X63472274Y-73429850D01*
X63473163Y-73429427D01*
X63471507Y-73423352D01*
X63470172Y-73421429D01*
X63464242Y-73416855D01*
X63463353Y-73417278D01*
X63350182Y-73417278D01*
X63344154Y-73413032D01*
X63322226Y-73397784D01*
X63437362Y-73397784D01*
X63439018Y-73403859D01*
X63440353Y-73405783D01*
X63446283Y-73410357D01*
X63447172Y-73409934D01*
X63445516Y-73403859D01*
X63444181Y-73401936D01*
X63438251Y-73397361D01*
X63437362Y-73397784D01*
X63322226Y-73397784D01*
X63306973Y-73387177D01*
X63293896Y-73378291D01*
X63411371Y-73378291D01*
X63413027Y-73384366D01*
X63414362Y-73386289D01*
X63420291Y-73390863D01*
X63421180Y-73390440D01*
X63419524Y-73384366D01*
X63418189Y-73382442D01*
X63412260Y-73377868D01*
X63411371Y-73378291D01*
X63293896Y-73378291D01*
X63279845Y-73368743D01*
X63264415Y-73358800D01*
X63383836Y-73358800D01*
X63389455Y-73366497D01*
X63395403Y-73373427D01*
X63400827Y-73377868D01*
X63401967Y-73377761D01*
X63402011Y-73373528D01*
X63391909Y-73364043D01*
X63387201Y-73360413D01*
X63383836Y-73358800D01*
X63264415Y-73358800D01*
X63262907Y-73357828D01*
X63256294Y-73354527D01*
X63255659Y-73354895D01*
X63246793Y-73361022D01*
X63238781Y-73366735D01*
X63228126Y-73374332D01*
X63211599Y-73386228D01*
X63200201Y-73394432D01*
X63184587Y-73405722D01*
X63169123Y-73416904D01*
X63163559Y-73420927D01*
X63139722Y-73438211D01*
X63118741Y-73453424D01*
X63112849Y-73457704D01*
X63097455Y-73468887D01*
X63068125Y-73490193D01*
X63066289Y-73491527D01*
X63041325Y-73509687D01*
X63014529Y-73529180D01*
X63006743Y-73534844D01*
X62999165Y-73540363D01*
X62969908Y-73561669D01*
X62943140Y-73581163D01*
X62940646Y-73582979D01*
X62916395Y-73600656D01*
X62901053Y-73611839D01*
X62871822Y-73633145D01*
X62868538Y-73635539D01*
X62845097Y-73652639D01*
X62829768Y-73663821D01*
X62803045Y-73683315D01*
X62790961Y-73692130D01*
X62773848Y-73704622D01*
X62747144Y-73724115D01*
X62731826Y-73735297D01*
X62708456Y-73752356D01*
X62702640Y-73756604D01*
X62675952Y-73776098D01*
X62649266Y-73795591D01*
X62633956Y-73806774D01*
X62621565Y-73815825D01*
X62604797Y-73828080D01*
X62578125Y-73847574D01*
X62551454Y-73867067D01*
X62536153Y-73878250D01*
X62530829Y-73882141D01*
X62507015Y-73899556D01*
X62480358Y-73919050D01*
X62465067Y-73930232D01*
X62436789Y-73950911D01*
X62435931Y-73951539D01*
X62409290Y-73971032D01*
X62382648Y-73990526D01*
X62367365Y-74001708D01*
X62339986Y-74021741D01*
X62338245Y-74023015D01*
X62313054Y-74041451D01*
X62311609Y-74042508D01*
X62284959Y-74062002D01*
X62269672Y-74073184D01*
X62240543Y-74094491D01*
X62217113Y-74111630D01*
X62213891Y-74113985D01*
X62198594Y-74125167D01*
X62169445Y-74146474D01*
X62142778Y-74165967D01*
X62124157Y-74179578D01*
X62116103Y-74185461D01*
X62100794Y-74196643D01*
X62071622Y-74217950D01*
X62044934Y-74237443D01*
X62034721Y-74244903D01*
X62018233Y-74256937D01*
X62002912Y-74268119D01*
X61973719Y-74289426D01*
X61949340Y-74307219D01*
X61947009Y-74308919D01*
X61931674Y-74320102D01*
X61902457Y-74341408D01*
X61875725Y-74360902D01*
X61868550Y-74366134D01*
X61848976Y-74380395D01*
X61833626Y-74391578D01*
X61804381Y-74412885D01*
X61792887Y-74421259D01*
X61777609Y-74432378D01*
X61750824Y-74451872D01*
X61735460Y-74463054D01*
X61722885Y-74472206D01*
X61706163Y-74484361D01*
X61679346Y-74503854D01*
X61659081Y-74518584D01*
X61652517Y-74523348D01*
X61602011Y-74560006D01*
X61552208Y-74596080D01*
X61510210Y-74626418D01*
X61476551Y-74650631D01*
X61451767Y-74668330D01*
X61436394Y-74679124D01*
X61430966Y-74682624D01*
X61431031Y-74682110D01*
X61433670Y-74672534D01*
X61439948Y-74651360D01*
X61449667Y-74619221D01*
X61462633Y-74576752D01*
X61476489Y-74531615D01*
X61538404Y-74531615D01*
X61538467Y-74532524D01*
X61542229Y-74533955D01*
X61548771Y-74526979D01*
X61550352Y-74523348D01*
X61545906Y-74524113D01*
X61543019Y-74526119D01*
X61538404Y-74531615D01*
X61476489Y-74531615D01*
X61478647Y-74524585D01*
X61482487Y-74512122D01*
X61564395Y-74512122D01*
X61564459Y-74513030D01*
X61568220Y-74514461D01*
X61574762Y-74507485D01*
X61576343Y-74503854D01*
X61571897Y-74504620D01*
X61569011Y-74506626D01*
X61564395Y-74512122D01*
X61482487Y-74512122D01*
X61488494Y-74492628D01*
X61590387Y-74492628D01*
X61590450Y-74493537D01*
X61594211Y-74494968D01*
X61600754Y-74487992D01*
X61602335Y-74484361D01*
X61597888Y-74485126D01*
X61595002Y-74487132D01*
X61590387Y-74492628D01*
X61488494Y-74492628D01*
X61492372Y-74480045D01*
X61609880Y-74480045D01*
X61609987Y-74481185D01*
X61614220Y-74481229D01*
X61623705Y-74471127D01*
X61627334Y-74466419D01*
X61628948Y-74463054D01*
X61621251Y-74468674D01*
X61614320Y-74474621D01*
X61609880Y-74480045D01*
X61492372Y-74480045D01*
X61497515Y-74463355D01*
X61498509Y-74460139D01*
X61635871Y-74460139D01*
X61635935Y-74461048D01*
X61639696Y-74462478D01*
X61646239Y-74455503D01*
X61647820Y-74451872D01*
X61643373Y-74452637D01*
X61640487Y-74454643D01*
X61635871Y-74460139D01*
X61498509Y-74460139D01*
X61504532Y-74440646D01*
X61661863Y-74440646D01*
X61661926Y-74441554D01*
X61665687Y-74442985D01*
X61672230Y-74436009D01*
X61673811Y-74432378D01*
X61669364Y-74433144D01*
X61666478Y-74435150D01*
X61661863Y-74440646D01*
X61504532Y-74440646D01*
X61510556Y-74421152D01*
X61687854Y-74421152D01*
X61687917Y-74422061D01*
X61691679Y-74423492D01*
X61698221Y-74416516D01*
X61699802Y-74412885D01*
X61695356Y-74413650D01*
X61692469Y-74415656D01*
X61687854Y-74421152D01*
X61510556Y-74421152D01*
X61514444Y-74408569D01*
X61707347Y-74408569D01*
X61707454Y-74409709D01*
X61711688Y-74409753D01*
X61721172Y-74399651D01*
X61724802Y-74394943D01*
X61726415Y-74391578D01*
X61718719Y-74397197D01*
X61711788Y-74403145D01*
X61707347Y-74408569D01*
X61514444Y-74408569D01*
X61519040Y-74393695D01*
X61520598Y-74388663D01*
X61733339Y-74388663D01*
X61733402Y-74389571D01*
X61737163Y-74391002D01*
X61743706Y-74384027D01*
X61745287Y-74380395D01*
X61740841Y-74381161D01*
X61737954Y-74383167D01*
X61733339Y-74388663D01*
X61520598Y-74388663D01*
X61526635Y-74369170D01*
X61759330Y-74369170D01*
X61759393Y-74370078D01*
X61763155Y-74371509D01*
X61769697Y-74364533D01*
X61771278Y-74360902D01*
X61766832Y-74361668D01*
X61763945Y-74363674D01*
X61759330Y-74369170D01*
X61526635Y-74369170D01*
X61532672Y-74349676D01*
X61785321Y-74349676D01*
X61785385Y-74350584D01*
X61789146Y-74352015D01*
X61795689Y-74345040D01*
X61797270Y-74341408D01*
X61792823Y-74342174D01*
X61789937Y-74344180D01*
X61785321Y-74349676D01*
X61532672Y-74349676D01*
X61536569Y-74337093D01*
X61804815Y-74337093D01*
X61804921Y-74338233D01*
X61809155Y-74338277D01*
X61818639Y-74328175D01*
X61822269Y-74323467D01*
X61823883Y-74320102D01*
X61816186Y-74325721D01*
X61809255Y-74331669D01*
X61804815Y-74337093D01*
X61536569Y-74337093D01*
X61542733Y-74317187D01*
X61830806Y-74317187D01*
X61830869Y-74318095D01*
X61834631Y-74319526D01*
X61841173Y-74312551D01*
X61842754Y-74308919D01*
X61838308Y-74309685D01*
X61835421Y-74311691D01*
X61830806Y-74317187D01*
X61542733Y-74317187D01*
X61543027Y-74316238D01*
X61548780Y-74297694D01*
X61856797Y-74297694D01*
X61856861Y-74298602D01*
X61860622Y-74300033D01*
X61867165Y-74293057D01*
X61868746Y-74289426D01*
X61864299Y-74290192D01*
X61861413Y-74292198D01*
X61856797Y-74297694D01*
X61548780Y-74297694D01*
X61552684Y-74285110D01*
X61876291Y-74285110D01*
X61876398Y-74286250D01*
X61880631Y-74286294D01*
X61890115Y-74276192D01*
X61893745Y-74271484D01*
X61895359Y-74268119D01*
X61887662Y-74273739D01*
X61880731Y-74279686D01*
X61876291Y-74285110D01*
X61552684Y-74285110D01*
X61558859Y-74265204D01*
X61902282Y-74265204D01*
X61902345Y-74266113D01*
X61906107Y-74267544D01*
X61912649Y-74260568D01*
X61914230Y-74256937D01*
X61909784Y-74257703D01*
X61906897Y-74259708D01*
X61902282Y-74265204D01*
X61558859Y-74265204D01*
X61564906Y-74245711D01*
X61928273Y-74245711D01*
X61928337Y-74246619D01*
X61932098Y-74248050D01*
X61938641Y-74241075D01*
X61940222Y-74237443D01*
X61935775Y-74238209D01*
X61932889Y-74240215D01*
X61928273Y-74245711D01*
X61564906Y-74245711D01*
X61569278Y-74231618D01*
X61570956Y-74226217D01*
X61954265Y-74226217D01*
X61954328Y-74227126D01*
X61958089Y-74228557D01*
X61964632Y-74221581D01*
X61966213Y-74217950D01*
X61961767Y-74218716D01*
X61958880Y-74220721D01*
X61954265Y-74226217D01*
X61570956Y-74226217D01*
X61574866Y-74213634D01*
X61973758Y-74213634D01*
X61973865Y-74214774D01*
X61978098Y-74214818D01*
X61987583Y-74204716D01*
X61991213Y-74200008D01*
X61992826Y-74196643D01*
X61985129Y-74202263D01*
X61978199Y-74208210D01*
X61973758Y-74213634D01*
X61574866Y-74213634D01*
X61581051Y-74193728D01*
X61999750Y-74193728D01*
X61999813Y-74194637D01*
X62003574Y-74196068D01*
X62010117Y-74189092D01*
X62011698Y-74185461D01*
X62007251Y-74186227D01*
X62004365Y-74188232D01*
X61999750Y-74193728D01*
X61581051Y-74193728D01*
X61587107Y-74174235D01*
X62025741Y-74174235D01*
X62025804Y-74175143D01*
X62029565Y-74176574D01*
X62036108Y-74169598D01*
X62037689Y-74165967D01*
X62033243Y-74166733D01*
X62030356Y-74168739D01*
X62025741Y-74174235D01*
X61587107Y-74174235D01*
X61593164Y-74154741D01*
X62051732Y-74154741D01*
X62051795Y-74155650D01*
X62055557Y-74157081D01*
X62062099Y-74150105D01*
X62063680Y-74146474D01*
X62059234Y-74147240D01*
X62056347Y-74149245D01*
X62051732Y-74154741D01*
X61593164Y-74154741D01*
X61597074Y-74142158D01*
X62071226Y-74142158D01*
X62071332Y-74143298D01*
X62075566Y-74143342D01*
X62085050Y-74133240D01*
X62088680Y-74128532D01*
X62090293Y-74125167D01*
X62082597Y-74130787D01*
X62075666Y-74136734D01*
X62071226Y-74142158D01*
X61597074Y-74142158D01*
X61597598Y-74140470D01*
X61603266Y-74122252D01*
X62097217Y-74122252D01*
X62097280Y-74123161D01*
X62101042Y-74124592D01*
X62107584Y-74117616D01*
X62109165Y-74113985D01*
X62104719Y-74114750D01*
X62101832Y-74116756D01*
X62097217Y-74122252D01*
X61603266Y-74122252D01*
X61609330Y-74102759D01*
X62123208Y-74102759D01*
X62123272Y-74103667D01*
X62127033Y-74105098D01*
X62133575Y-74098122D01*
X62135156Y-74094491D01*
X62130710Y-74095257D01*
X62127824Y-74097263D01*
X62123208Y-74102759D01*
X61609330Y-74102759D01*
X61613245Y-74090175D01*
X62142702Y-74090175D01*
X62142808Y-74091315D01*
X62147042Y-74091359D01*
X62156526Y-74081257D01*
X62160156Y-74076549D01*
X62161770Y-74073184D01*
X62154073Y-74078804D01*
X62147142Y-74084751D01*
X62142702Y-74090175D01*
X61613245Y-74090175D01*
X61619438Y-74070270D01*
X62168693Y-74070270D01*
X62168756Y-74071178D01*
X62172518Y-74072609D01*
X62179060Y-74065633D01*
X62180641Y-74062002D01*
X62176195Y-74062768D01*
X62173308Y-74064774D01*
X62168693Y-74070270D01*
X61619438Y-74070270D01*
X61625503Y-74050776D01*
X62194684Y-74050776D01*
X62194748Y-74051685D01*
X62198509Y-74053115D01*
X62205052Y-74046140D01*
X62206633Y-74042508D01*
X62202186Y-74043274D01*
X62199300Y-74045280D01*
X62194684Y-74050776D01*
X61625503Y-74050776D01*
X61627790Y-74043425D01*
X61631572Y-74031283D01*
X62220676Y-74031283D01*
X62220739Y-74032191D01*
X62224500Y-74033622D01*
X62231043Y-74026646D01*
X62232624Y-74023015D01*
X62228177Y-74023781D01*
X62225291Y-74025787D01*
X62220676Y-74031283D01*
X61631572Y-74031283D01*
X61635492Y-74018699D01*
X62240169Y-74018699D01*
X62240276Y-74019839D01*
X62244509Y-74019883D01*
X62253994Y-74009781D01*
X62257623Y-74005073D01*
X62259237Y-74001708D01*
X62251540Y-74007328D01*
X62244610Y-74013275D01*
X62240169Y-74018699D01*
X61635492Y-74018699D01*
X61641693Y-73998794D01*
X62266160Y-73998794D01*
X62266224Y-73999702D01*
X62269985Y-74001133D01*
X62276528Y-73994157D01*
X62278109Y-73990526D01*
X62273662Y-73991292D01*
X62270776Y-73993298D01*
X62266160Y-73998794D01*
X61641693Y-73998794D01*
X61647765Y-73979300D01*
X62292152Y-73979300D01*
X62292215Y-73980208D01*
X62295976Y-73981639D01*
X62302519Y-73974664D01*
X62304100Y-73971032D01*
X62299654Y-73971798D01*
X62296767Y-73973804D01*
X62292152Y-73979300D01*
X61647765Y-73979300D01*
X61653837Y-73959807D01*
X62318143Y-73959807D01*
X62318206Y-73960715D01*
X62321968Y-73962146D01*
X62328510Y-73955170D01*
X62330091Y-73951539D01*
X62325645Y-73952305D01*
X62322758Y-73954311D01*
X62318143Y-73959807D01*
X61653837Y-73959807D01*
X61657757Y-73947223D01*
X62337637Y-73947223D01*
X62337743Y-73948363D01*
X62341977Y-73948407D01*
X62351461Y-73938305D01*
X62355091Y-73933597D01*
X62356704Y-73930232D01*
X62349008Y-73935852D01*
X62342077Y-73941799D01*
X62337637Y-73947223D01*
X61657757Y-73947223D01*
X61659659Y-73941119D01*
X61663963Y-73927317D01*
X62363628Y-73927317D01*
X62363691Y-73928226D01*
X62367452Y-73929657D01*
X62373995Y-73922681D01*
X62375576Y-73919050D01*
X62371130Y-73919816D01*
X62368243Y-73921821D01*
X62363628Y-73927317D01*
X61663963Y-73927317D01*
X61670042Y-73907824D01*
X62389619Y-73907824D01*
X62389682Y-73908732D01*
X62393444Y-73910163D01*
X62399986Y-73903188D01*
X62401567Y-73899556D01*
X62397121Y-73900322D01*
X62394234Y-73902328D01*
X62389619Y-73907824D01*
X61670042Y-73907824D01*
X61673967Y-73895240D01*
X62409113Y-73895240D01*
X62409219Y-73896381D01*
X62413453Y-73896425D01*
X62422937Y-73886323D01*
X62426567Y-73881615D01*
X62428180Y-73878250D01*
X62420484Y-73883869D01*
X62413553Y-73889816D01*
X62409113Y-73895240D01*
X61673967Y-73895240D01*
X61680175Y-73875335D01*
X62435104Y-73875335D01*
X62435167Y-73876243D01*
X62438928Y-73877674D01*
X62445471Y-73870698D01*
X62447052Y-73867067D01*
X62442606Y-73867833D01*
X62439719Y-73869839D01*
X62435104Y-73875335D01*
X61680175Y-73875335D01*
X61686254Y-73855841D01*
X62461095Y-73855841D01*
X62461158Y-73856750D01*
X62464920Y-73858181D01*
X62471462Y-73851205D01*
X62473043Y-73847574D01*
X62468597Y-73848340D01*
X62465710Y-73850345D01*
X62461095Y-73855841D01*
X61686254Y-73855841D01*
X61692333Y-73836348D01*
X62487086Y-73836348D01*
X62487150Y-73837256D01*
X62490911Y-73838687D01*
X62497454Y-73831712D01*
X62499035Y-73828080D01*
X62494588Y-73828846D01*
X62491702Y-73830852D01*
X62487086Y-73836348D01*
X61692333Y-73836348D01*
X61693008Y-73834184D01*
X61696261Y-73823764D01*
X62506580Y-73823764D01*
X62506687Y-73824905D01*
X62510920Y-73824949D01*
X62520404Y-73814846D01*
X62524034Y-73810138D01*
X62525648Y-73806774D01*
X62517951Y-73812393D01*
X62511020Y-73818340D01*
X62506580Y-73823764D01*
X61696261Y-73823764D01*
X61702476Y-73803859D01*
X62532571Y-73803859D01*
X62532635Y-73804767D01*
X62536396Y-73806198D01*
X62542938Y-73799222D01*
X62544519Y-73795591D01*
X62540073Y-73796357D01*
X62537187Y-73798363D01*
X62532571Y-73803859D01*
X61702476Y-73803859D01*
X61708562Y-73784365D01*
X62558563Y-73784365D01*
X62558626Y-73785274D01*
X62562387Y-73786705D01*
X62568930Y-73779729D01*
X62570511Y-73776098D01*
X62566064Y-73776863D01*
X62563178Y-73778869D01*
X62558563Y-73784365D01*
X61708562Y-73784365D01*
X61714648Y-73764872D01*
X62584554Y-73764872D01*
X62584617Y-73765780D01*
X62588378Y-73767211D01*
X62594921Y-73760235D01*
X62596502Y-73756604D01*
X62592056Y-73757370D01*
X62589169Y-73759376D01*
X62584554Y-73764872D01*
X61714648Y-73764872D01*
X61718577Y-73752288D01*
X62604047Y-73752288D01*
X62604154Y-73753428D01*
X62608388Y-73753472D01*
X62617872Y-73743370D01*
X62621502Y-73738662D01*
X62623115Y-73735297D01*
X62615419Y-73740917D01*
X62608488Y-73746864D01*
X62604047Y-73752288D01*
X61718577Y-73752288D01*
X61724792Y-73732383D01*
X62630039Y-73732383D01*
X62630102Y-73733291D01*
X62633863Y-73734722D01*
X62640406Y-73727746D01*
X62641987Y-73724115D01*
X62637540Y-73724881D01*
X62634654Y-73726887D01*
X62630039Y-73732383D01*
X61724792Y-73732383D01*
X61727642Y-73723254D01*
X61730882Y-73712889D01*
X62656030Y-73712889D01*
X62656093Y-73713798D01*
X62659855Y-73715229D01*
X62666397Y-73708253D01*
X62667978Y-73704622D01*
X62663532Y-73705387D01*
X62660645Y-73707393D01*
X62656030Y-73712889D01*
X61730882Y-73712889D01*
X61734815Y-73700306D01*
X62675523Y-73700306D01*
X62675630Y-73701446D01*
X62679864Y-73701490D01*
X62689348Y-73691388D01*
X62692978Y-73686680D01*
X62694591Y-73683315D01*
X62686895Y-73688935D01*
X62679964Y-73694882D01*
X62675523Y-73700306D01*
X61734815Y-73700306D01*
X61740908Y-73680812D01*
X62701515Y-73680812D01*
X62701621Y-73681952D01*
X62705855Y-73681996D01*
X62715339Y-73671894D01*
X62718969Y-73667186D01*
X62720583Y-73663821D01*
X62712886Y-73669441D01*
X62705955Y-73675388D01*
X62701515Y-73680812D01*
X61740908Y-73680812D01*
X61747129Y-73660907D01*
X62727506Y-73660907D01*
X62727569Y-73661815D01*
X62731331Y-73663246D01*
X62737873Y-73656270D01*
X62739454Y-73652639D01*
X62735008Y-73653405D01*
X62732121Y-73655411D01*
X62727506Y-73660907D01*
X61747129Y-73660907D01*
X61753221Y-73641413D01*
X62753497Y-73641413D01*
X62753561Y-73642322D01*
X62757322Y-73643752D01*
X62763865Y-73636777D01*
X62765446Y-73633145D01*
X62760999Y-73633911D01*
X62758113Y-73635917D01*
X62753497Y-73641413D01*
X61753221Y-73641413D01*
X61757154Y-73628830D01*
X62772991Y-73628830D01*
X62773097Y-73629970D01*
X62777331Y-73630014D01*
X62786815Y-73619912D01*
X62790445Y-73615204D01*
X62792059Y-73611839D01*
X62784362Y-73617458D01*
X62777431Y-73623406D01*
X62772991Y-73628830D01*
X61757154Y-73628830D01*
X61763363Y-73608963D01*
X61763375Y-73608924D01*
X62798982Y-73608924D01*
X62799045Y-73609832D01*
X62802807Y-73611263D01*
X62809349Y-73604288D01*
X62810930Y-73600656D01*
X62806484Y-73601422D01*
X62803597Y-73603428D01*
X62798982Y-73608924D01*
X61763375Y-73608924D01*
X61769470Y-73589431D01*
X62824973Y-73589431D01*
X62825037Y-73590339D01*
X62828798Y-73591770D01*
X62835341Y-73584794D01*
X62836922Y-73581163D01*
X62832475Y-73581929D01*
X62829589Y-73583935D01*
X62824973Y-73589431D01*
X61769470Y-73589431D01*
X61775565Y-73569937D01*
X62850965Y-73569937D01*
X62851028Y-73570845D01*
X62854789Y-73572276D01*
X62861332Y-73565301D01*
X62862913Y-73561669D01*
X62858467Y-73562435D01*
X62855580Y-73564441D01*
X62850965Y-73569937D01*
X61775565Y-73569937D01*
X61779499Y-73557354D01*
X62870458Y-73557354D01*
X62870565Y-73558494D01*
X62874798Y-73558538D01*
X62884283Y-73548436D01*
X62887913Y-73543728D01*
X62889526Y-73540363D01*
X62881829Y-73545982D01*
X62874899Y-73551930D01*
X62870458Y-73557354D01*
X61779499Y-73557354D01*
X61785723Y-73537448D01*
X62896449Y-73537448D01*
X62896513Y-73538356D01*
X62900274Y-73539787D01*
X62906817Y-73532812D01*
X62908398Y-73529180D01*
X62903951Y-73529946D01*
X62901065Y-73531952D01*
X62896449Y-73537448D01*
X61785723Y-73537448D01*
X61791819Y-73517954D01*
X62922441Y-73517954D01*
X62922504Y-73518863D01*
X62926265Y-73520294D01*
X62932808Y-73513318D01*
X62934389Y-73509687D01*
X62929943Y-73510453D01*
X62927056Y-73512458D01*
X62922441Y-73517954D01*
X61791819Y-73517954D01*
X61797914Y-73498461D01*
X62948432Y-73498461D01*
X62948495Y-73499369D01*
X62952257Y-73500800D01*
X62958799Y-73493825D01*
X62960380Y-73490193D01*
X62955934Y-73490959D01*
X62953047Y-73492965D01*
X62948432Y-73498461D01*
X61797914Y-73498461D01*
X61801849Y-73485877D01*
X62967926Y-73485877D01*
X62968032Y-73487018D01*
X62972266Y-73487062D01*
X62981750Y-73476960D01*
X62985380Y-73472251D01*
X62986993Y-73468887D01*
X62979297Y-73474506D01*
X62972366Y-73480453D01*
X62967926Y-73485877D01*
X61801849Y-73485877D01*
X61804496Y-73477412D01*
X61808072Y-73465972D01*
X62993917Y-73465972D01*
X62993980Y-73466880D01*
X62997741Y-73468311D01*
X63004284Y-73461335D01*
X63005865Y-73457704D01*
X63001419Y-73458470D01*
X62998532Y-73460476D01*
X62993917Y-73465972D01*
X61808072Y-73465972D01*
X61814165Y-73446478D01*
X63019908Y-73446478D01*
X63019971Y-73447387D01*
X63023733Y-73448818D01*
X63030275Y-73441842D01*
X63031856Y-73438211D01*
X63027410Y-73438977D01*
X63024523Y-73440982D01*
X63019908Y-73446478D01*
X61814165Y-73446478D01*
X61818098Y-73433895D01*
X63039402Y-73433895D01*
X63039508Y-73435035D01*
X63043742Y-73435079D01*
X63053226Y-73424977D01*
X63056856Y-73420269D01*
X63058469Y-73416904D01*
X63050773Y-73422524D01*
X63043842Y-73428471D01*
X63039402Y-73433895D01*
X61818098Y-73433895D01*
X61824320Y-73413989D01*
X63065393Y-73413989D01*
X63065456Y-73414898D01*
X63069218Y-73416329D01*
X63075760Y-73409353D01*
X63077341Y-73405722D01*
X63072895Y-73406487D01*
X63070008Y-73408493D01*
X63065393Y-73413989D01*
X61824320Y-73413989D01*
X61830413Y-73394496D01*
X63091384Y-73394496D01*
X63091448Y-73395404D01*
X63095209Y-73396835D01*
X63101751Y-73389859D01*
X63103332Y-73386228D01*
X63098886Y-73386994D01*
X63096000Y-73389000D01*
X63091384Y-73394496D01*
X61830413Y-73394496D01*
X61836506Y-73375002D01*
X63117376Y-73375002D01*
X63117439Y-73375911D01*
X63121200Y-73377342D01*
X63127743Y-73370366D01*
X63129324Y-73366735D01*
X63124877Y-73367500D01*
X63121991Y-73369506D01*
X63117376Y-73375002D01*
X61836506Y-73375002D01*
X61840439Y-73362419D01*
X63136869Y-73362419D01*
X63136976Y-73363559D01*
X63141209Y-73363603D01*
X63150694Y-73353501D01*
X63154323Y-73348793D01*
X63155758Y-73345802D01*
X63365886Y-73345802D01*
X63367542Y-73351876D01*
X63368877Y-73353800D01*
X63374807Y-73358374D01*
X63375695Y-73357951D01*
X63374040Y-73351876D01*
X63372705Y-73349953D01*
X63366775Y-73345379D01*
X63366672Y-73345428D01*
X63365886Y-73345802D01*
X63155758Y-73345802D01*
X63155937Y-73345428D01*
X63148240Y-73351048D01*
X63141309Y-73356995D01*
X63136869Y-73362419D01*
X61840439Y-73362419D01*
X61843140Y-73353778D01*
X61846659Y-73342513D01*
X63162860Y-73342513D01*
X63162924Y-73343422D01*
X63166685Y-73344853D01*
X63173228Y-73337877D01*
X63174809Y-73334246D01*
X63170362Y-73335011D01*
X63167476Y-73337017D01*
X63162860Y-73342513D01*
X61846659Y-73342513D01*
X61851721Y-73326308D01*
X63339895Y-73326308D01*
X63341551Y-73332383D01*
X63342844Y-73334246D01*
X63342886Y-73334306D01*
X63348815Y-73338881D01*
X63349704Y-73338458D01*
X63348048Y-73332383D01*
X63346713Y-73330459D01*
X63340784Y-73325885D01*
X63339895Y-73326308D01*
X61851721Y-73326308D01*
X61852748Y-73323020D01*
X63188852Y-73323020D01*
X63188915Y-73323928D01*
X63192676Y-73325359D01*
X63199219Y-73318383D01*
X63200197Y-73316138D01*
X63318808Y-73316138D01*
X63322057Y-73319387D01*
X63325306Y-73316138D01*
X63322057Y-73312889D01*
X63318808Y-73316138D01*
X63200197Y-73316138D01*
X63200800Y-73314752D01*
X63196353Y-73315518D01*
X63193467Y-73317524D01*
X63188852Y-73323020D01*
X61852748Y-73323020D01*
X61858837Y-73303526D01*
X63214843Y-73303526D01*
X63214906Y-73304435D01*
X63218668Y-73305866D01*
X63225210Y-73298890D01*
X63226791Y-73295259D01*
X63222345Y-73296024D01*
X63219458Y-73298030D01*
X63214843Y-73303526D01*
X61858837Y-73303526D01*
X61861869Y-73293819D01*
X63294410Y-73293819D01*
X63294803Y-73295259D01*
X63296066Y-73299894D01*
X63297401Y-73301817D01*
X63303331Y-73306392D01*
X63304219Y-73305969D01*
X63302564Y-73299894D01*
X63301229Y-73297970D01*
X63295299Y-73293396D01*
X63294410Y-73293819D01*
X61861869Y-73293819D01*
X61862767Y-73290943D01*
X63234336Y-73290943D01*
X63234443Y-73292083D01*
X63238677Y-73292127D01*
X63248161Y-73282025D01*
X63251791Y-73277317D01*
X63253225Y-73274326D01*
X63268419Y-73274326D01*
X63270074Y-73280400D01*
X63271409Y-73282324D01*
X63277339Y-73286898D01*
X63278228Y-73286475D01*
X63276572Y-73280400D01*
X63275237Y-73278477D01*
X63269308Y-73273903D01*
X63269205Y-73273952D01*
X63268419Y-73274326D01*
X63253225Y-73274326D01*
X63253404Y-73273952D01*
X63245708Y-73279572D01*
X63238777Y-73285519D01*
X63234336Y-73290943D01*
X61862767Y-73290943D01*
X61878222Y-73241462D01*
X61909907Y-73139913D01*
X61938360Y-73048582D01*
X61963743Y-72966919D01*
X61986222Y-72894373D01*
X62005960Y-72830396D01*
X62023121Y-72774437D01*
X62037869Y-72725947D01*
X62050370Y-72684376D01*
X62060785Y-72649173D01*
X62069281Y-72619790D01*
X62076020Y-72595676D01*
X62081166Y-72576282D01*
X62084885Y-72561058D01*
X62087340Y-72549453D01*
X62088694Y-72540919D01*
X62089113Y-72534905D01*
X62088759Y-72530862D01*
X62087798Y-72528239D01*
X62086393Y-72526488D01*
X62086191Y-72526308D01*
X62078649Y-72520466D01*
X62061254Y-72507361D01*
X62035477Y-72488089D01*
X62144295Y-72488089D01*
X62145951Y-72494163D01*
X62147286Y-72496087D01*
X62153215Y-72500661D01*
X62154104Y-72500238D01*
X62152448Y-72494163D01*
X62151114Y-72492240D01*
X62145184Y-72487666D01*
X62144295Y-72488089D01*
X62035477Y-72488089D01*
X62034554Y-72487399D01*
X62009313Y-72468598D01*
X62116760Y-72468598D01*
X62122379Y-72476294D01*
X62128327Y-72483225D01*
X62133751Y-72487666D01*
X62134891Y-72487559D01*
X62134920Y-72484800D01*
X64351962Y-72484800D01*
X64352026Y-72485709D01*
X64355787Y-72487140D01*
X64362330Y-72480164D01*
X64363911Y-72476533D01*
X64359464Y-72477298D01*
X64356578Y-72479304D01*
X64353201Y-72483325D01*
X64351962Y-72484800D01*
X62134920Y-72484800D01*
X62134935Y-72483325D01*
X62124833Y-72473841D01*
X62120125Y-72470211D01*
X62116760Y-72468598D01*
X62009313Y-72468598D01*
X61999094Y-72460986D01*
X61983109Y-72449104D01*
X62090768Y-72449104D01*
X62096388Y-72456801D01*
X62102335Y-72463732D01*
X62107759Y-72468172D01*
X62108900Y-72468065D01*
X62108928Y-72465307D01*
X64377954Y-72465307D01*
X64378017Y-72466215D01*
X64381778Y-72467646D01*
X64388321Y-72460670D01*
X64389902Y-72457039D01*
X64385456Y-72457805D01*
X64382569Y-72459811D01*
X64379193Y-72463832D01*
X64377954Y-72465307D01*
X62108928Y-72465307D01*
X62108943Y-72463832D01*
X62098841Y-72454348D01*
X62094133Y-72450718D01*
X62090768Y-72449104D01*
X61983109Y-72449104D01*
X61965622Y-72436106D01*
X62072819Y-72436106D01*
X62074475Y-72442181D01*
X62075810Y-72444104D01*
X62081739Y-72448679D01*
X62082628Y-72448256D01*
X62081962Y-72445813D01*
X64403945Y-72445813D01*
X64404008Y-72446722D01*
X64407770Y-72448153D01*
X64414312Y-72441177D01*
X64415893Y-72437546D01*
X64411447Y-72438311D01*
X64408560Y-72440317D01*
X64403945Y-72445813D01*
X62081962Y-72445813D01*
X62080972Y-72442181D01*
X62079637Y-72440257D01*
X62073708Y-72435683D01*
X62072819Y-72436106D01*
X61965622Y-72436106D01*
X61955424Y-72428526D01*
X61939373Y-72416613D01*
X62046827Y-72416613D01*
X62048483Y-72422687D01*
X62049818Y-72424611D01*
X62055748Y-72429185D01*
X62056637Y-72428762D01*
X62055971Y-72426320D01*
X64429936Y-72426320D01*
X64430000Y-72427228D01*
X64433761Y-72428659D01*
X64440304Y-72421683D01*
X64441885Y-72418052D01*
X64437438Y-72418818D01*
X64434552Y-72420824D01*
X64429936Y-72426320D01*
X62055971Y-72426320D01*
X62054981Y-72422687D01*
X62053646Y-72420764D01*
X62047716Y-72416190D01*
X62046827Y-72416613D01*
X61939373Y-72416613D01*
X61913109Y-72397119D01*
X62020836Y-72397119D01*
X62022492Y-72403194D01*
X62023827Y-72405117D01*
X62029757Y-72409692D01*
X62030646Y-72409269D01*
X62029980Y-72406826D01*
X64455928Y-72406826D01*
X64455991Y-72407735D01*
X64459752Y-72409166D01*
X64466295Y-72402190D01*
X64467876Y-72398559D01*
X64463429Y-72399324D01*
X64460543Y-72401330D01*
X64455928Y-72406826D01*
X62029980Y-72406826D01*
X62028990Y-72403194D01*
X62027655Y-72401270D01*
X62021725Y-72396696D01*
X62020836Y-72397119D01*
X61913109Y-72397119D01*
X61904090Y-72390425D01*
X61886827Y-72377626D01*
X61994845Y-72377626D01*
X61996501Y-72383700D01*
X61997836Y-72385624D01*
X62003765Y-72390198D01*
X62004654Y-72389775D01*
X62002998Y-72383700D01*
X62001664Y-72381777D01*
X62000443Y-72380835D01*
X64488417Y-72380835D01*
X64488480Y-72381743D01*
X64492241Y-72383174D01*
X64498784Y-72376199D01*
X64500365Y-72372567D01*
X64498653Y-72372862D01*
X64495919Y-72373333D01*
X64493032Y-72375339D01*
X64488417Y-72380835D01*
X62000443Y-72380835D01*
X61995734Y-72377203D01*
X61994845Y-72377626D01*
X61886827Y-72377626D01*
X61860538Y-72358135D01*
X61967310Y-72358135D01*
X61972929Y-72365831D01*
X61978877Y-72372762D01*
X61984301Y-72377203D01*
X61985441Y-72377096D01*
X61985485Y-72372862D01*
X61975383Y-72363378D01*
X61972742Y-72361342D01*
X64514408Y-72361342D01*
X64514471Y-72362250D01*
X64518233Y-72363681D01*
X64524775Y-72356705D01*
X64526356Y-72353074D01*
X64524644Y-72353369D01*
X64521910Y-72353840D01*
X64519023Y-72355846D01*
X64514408Y-72361342D01*
X61972742Y-72361342D01*
X61970675Y-72359748D01*
X61967310Y-72358135D01*
X61860538Y-72358135D01*
X61845639Y-72347089D01*
X61834235Y-72338641D01*
X61941319Y-72338641D01*
X61946938Y-72346338D01*
X61952885Y-72353269D01*
X61958309Y-72357709D01*
X61959450Y-72357602D01*
X61959493Y-72353369D01*
X61949391Y-72343885D01*
X61946749Y-72341848D01*
X64540399Y-72341848D01*
X64540463Y-72342756D01*
X64544224Y-72344187D01*
X64550767Y-72337212D01*
X64552348Y-72333580D01*
X64547901Y-72334346D01*
X64545015Y-72336352D01*
X64543805Y-72337793D01*
X64540399Y-72341848D01*
X61946749Y-72341848D01*
X61944683Y-72340255D01*
X61941319Y-72338641D01*
X61834235Y-72338641D01*
X61816689Y-72325643D01*
X61923369Y-72325643D01*
X61925025Y-72331718D01*
X61926360Y-72333641D01*
X61932289Y-72338216D01*
X61933178Y-72337793D01*
X61931522Y-72331718D01*
X61930187Y-72329794D01*
X61924258Y-72325220D01*
X61923369Y-72325643D01*
X61816689Y-72325643D01*
X61812250Y-72322355D01*
X64566391Y-72322355D01*
X64566454Y-72323263D01*
X64570215Y-72324694D01*
X64576758Y-72317718D01*
X64578339Y-72314087D01*
X64573892Y-72314853D01*
X64571006Y-72316859D01*
X64569797Y-72318299D01*
X64566391Y-72322355D01*
X61812250Y-72322355D01*
X61790375Y-72306150D01*
X61897377Y-72306150D01*
X61899033Y-72312224D01*
X61900368Y-72314148D01*
X61906298Y-72318722D01*
X61907187Y-72318299D01*
X61905531Y-72312224D01*
X61904196Y-72310301D01*
X61898266Y-72305727D01*
X61897377Y-72306150D01*
X61790375Y-72306150D01*
X61785935Y-72302861D01*
X64592382Y-72302861D01*
X64592445Y-72303769D01*
X64596207Y-72305200D01*
X64602749Y-72298225D01*
X64604330Y-72294593D01*
X64599884Y-72295359D01*
X64596997Y-72297365D01*
X64595787Y-72298806D01*
X64592382Y-72302861D01*
X61785935Y-72302861D01*
X61780619Y-72298923D01*
X61764049Y-72286656D01*
X61871386Y-72286656D01*
X61873042Y-72292731D01*
X61874377Y-72294654D01*
X61880307Y-72299229D01*
X61881196Y-72298806D01*
X61879540Y-72292731D01*
X61878205Y-72290807D01*
X61872275Y-72286233D01*
X61871386Y-72286656D01*
X61764049Y-72286656D01*
X61737720Y-72267165D01*
X61843851Y-72267165D01*
X61849471Y-72274862D01*
X61855418Y-72281793D01*
X61860842Y-72286233D01*
X61861982Y-72286126D01*
X61862026Y-72281893D01*
X61856676Y-72276870D01*
X64624871Y-72276870D01*
X64624934Y-72277778D01*
X64628696Y-72279209D01*
X64635238Y-72272233D01*
X64636819Y-72268602D01*
X64632373Y-72269368D01*
X64629486Y-72271374D01*
X64624871Y-72276870D01*
X61856676Y-72276870D01*
X61851924Y-72272409D01*
X61847216Y-72268779D01*
X61843851Y-72267165D01*
X61737720Y-72267165D01*
X61711388Y-72247672D01*
X61817860Y-72247672D01*
X61823479Y-72255368D01*
X61829427Y-72262299D01*
X61834851Y-72266740D01*
X61835991Y-72266633D01*
X61836035Y-72262399D01*
X61830685Y-72257376D01*
X64650862Y-72257376D01*
X64650926Y-72258285D01*
X64654687Y-72259716D01*
X64661230Y-72252740D01*
X64662811Y-72249109D01*
X64658364Y-72249874D01*
X64655478Y-72251880D01*
X64650862Y-72257376D01*
X61830685Y-72257376D01*
X61825933Y-72252915D01*
X61821225Y-72249285D01*
X61817860Y-72247672D01*
X61711388Y-72247672D01*
X61709578Y-72246332D01*
X61685039Y-72228178D01*
X61791869Y-72228178D01*
X61797488Y-72235875D01*
X61803435Y-72242806D01*
X61808859Y-72247246D01*
X61810000Y-72247139D01*
X61810043Y-72242906D01*
X61804693Y-72237883D01*
X64676854Y-72237883D01*
X64676917Y-72238791D01*
X64680678Y-72240222D01*
X64687221Y-72233246D01*
X64688802Y-72229615D01*
X64684355Y-72230381D01*
X64681469Y-72232387D01*
X64676854Y-72237883D01*
X61804693Y-72237883D01*
X61799941Y-72233422D01*
X61795233Y-72229792D01*
X61791869Y-72228178D01*
X61685039Y-72228178D01*
X61667470Y-72215180D01*
X61773919Y-72215180D01*
X61775575Y-72221255D01*
X61776910Y-72223178D01*
X61782839Y-72227753D01*
X61783728Y-72227330D01*
X61782072Y-72221255D01*
X61780737Y-72219331D01*
X61779516Y-72218389D01*
X64702845Y-72218389D01*
X64702908Y-72219298D01*
X64706670Y-72220729D01*
X64713212Y-72213753D01*
X64714793Y-72210122D01*
X64710347Y-72210888D01*
X64707460Y-72212893D01*
X64702845Y-72218389D01*
X61779516Y-72218389D01*
X61774808Y-72214757D01*
X61773919Y-72215180D01*
X61667470Y-72215180D01*
X61641122Y-72195687D01*
X61747928Y-72195687D01*
X61749583Y-72201761D01*
X61750918Y-72203685D01*
X61756848Y-72208259D01*
X61757737Y-72207836D01*
X61756081Y-72201761D01*
X61754746Y-72199838D01*
X61748816Y-72195263D01*
X61747928Y-72195687D01*
X61641122Y-72195687D01*
X61636159Y-72192015D01*
X64735334Y-72192015D01*
X64738583Y-72195263D01*
X64741832Y-72192015D01*
X64738583Y-72188766D01*
X64735334Y-72192015D01*
X61636159Y-72192015D01*
X61633061Y-72189723D01*
X61614764Y-72176193D01*
X61721936Y-72176193D01*
X61723592Y-72182268D01*
X61724927Y-72184191D01*
X61730857Y-72188766D01*
X61731746Y-72188343D01*
X61730090Y-72182268D01*
X61728755Y-72180344D01*
X61728069Y-72179815D01*
X64754828Y-72179815D01*
X64754934Y-72180955D01*
X64759168Y-72180999D01*
X64768652Y-72170897D01*
X64772282Y-72166189D01*
X64773895Y-72162824D01*
X64766199Y-72168443D01*
X64762718Y-72171430D01*
X64759268Y-72174391D01*
X64754828Y-72179815D01*
X61728069Y-72179815D01*
X61722825Y-72175770D01*
X61721936Y-72176193D01*
X61614764Y-72176193D01*
X61588405Y-72156702D01*
X61694401Y-72156702D01*
X61700021Y-72164399D01*
X61705968Y-72171330D01*
X61711392Y-72175770D01*
X61712532Y-72175663D01*
X61712576Y-72171430D01*
X61702474Y-72161946D01*
X61697766Y-72158316D01*
X61694401Y-72156702D01*
X61588405Y-72156702D01*
X61562043Y-72137209D01*
X61668410Y-72137209D01*
X61674029Y-72144905D01*
X61679977Y-72151836D01*
X61685401Y-72156277D01*
X61686541Y-72156170D01*
X61686570Y-72153411D01*
X64787317Y-72153411D01*
X64787380Y-72154319D01*
X64791141Y-72155750D01*
X64797684Y-72148775D01*
X64799265Y-72145143D01*
X64794819Y-72145909D01*
X64791932Y-72147915D01*
X64788556Y-72151936D01*
X64787317Y-72153411D01*
X61686570Y-72153411D01*
X61686585Y-72151936D01*
X61676483Y-72142452D01*
X61671775Y-72138822D01*
X61668410Y-72137209D01*
X61562043Y-72137209D01*
X61551618Y-72129500D01*
X61535673Y-72117715D01*
X61642419Y-72117715D01*
X61648038Y-72125412D01*
X61653985Y-72132343D01*
X61659409Y-72136783D01*
X61660550Y-72136676D01*
X61660578Y-72133918D01*
X64813308Y-72133918D01*
X64813371Y-72134826D01*
X64817133Y-72136257D01*
X64823675Y-72129281D01*
X64825256Y-72125650D01*
X64820810Y-72126416D01*
X64817923Y-72128422D01*
X64814547Y-72132443D01*
X64813308Y-72133918D01*
X61660578Y-72133918D01*
X61660593Y-72132443D01*
X61650491Y-72122959D01*
X61645783Y-72119329D01*
X61642419Y-72117715D01*
X61535673Y-72117715D01*
X61518086Y-72104717D01*
X61624469Y-72104717D01*
X61626125Y-72110792D01*
X61627460Y-72112715D01*
X61633389Y-72117290D01*
X61634278Y-72116866D01*
X61633612Y-72114424D01*
X64839299Y-72114424D01*
X64839363Y-72115333D01*
X64843124Y-72116763D01*
X64849667Y-72109788D01*
X64851248Y-72106156D01*
X64846801Y-72106922D01*
X64843915Y-72108928D01*
X64839299Y-72114424D01*
X61633612Y-72114424D01*
X61632622Y-72110792D01*
X61631287Y-72108868D01*
X61625358Y-72104294D01*
X61624469Y-72104717D01*
X61518086Y-72104717D01*
X61491711Y-72085224D01*
X61598478Y-72085224D01*
X61600133Y-72091298D01*
X61601468Y-72093222D01*
X61607398Y-72097796D01*
X61608287Y-72097373D01*
X61607621Y-72094931D01*
X64865291Y-72094931D01*
X64865354Y-72095839D01*
X64869115Y-72097270D01*
X64875658Y-72090294D01*
X64877239Y-72086663D01*
X64872792Y-72087429D01*
X64869906Y-72089435D01*
X64865291Y-72094931D01*
X61607621Y-72094931D01*
X61606631Y-72091298D01*
X61605296Y-72089375D01*
X61599366Y-72084800D01*
X61598478Y-72085224D01*
X61491711Y-72085224D01*
X61465795Y-72066070D01*
X61465335Y-72065730D01*
X61572486Y-72065730D01*
X61574142Y-72071805D01*
X61575477Y-72073728D01*
X61581407Y-72078303D01*
X61582296Y-72077880D01*
X61581630Y-72075437D01*
X64891282Y-72075437D01*
X64891345Y-72076346D01*
X64895107Y-72077777D01*
X64901649Y-72070801D01*
X64903230Y-72067170D01*
X64898784Y-72067935D01*
X64895897Y-72069941D01*
X64891282Y-72075437D01*
X61581630Y-72075437D01*
X61580640Y-72071805D01*
X61579305Y-72069881D01*
X61573375Y-72065307D01*
X61572486Y-72065730D01*
X61465335Y-72065730D01*
X61438951Y-72046239D01*
X61544951Y-72046239D01*
X61550571Y-72053936D01*
X61556518Y-72060867D01*
X61561942Y-72065307D01*
X61563082Y-72065200D01*
X61563126Y-72060967D01*
X61553024Y-72051482D01*
X61550383Y-72049446D01*
X64923771Y-72049446D01*
X64923834Y-72050354D01*
X64927596Y-72051785D01*
X64934138Y-72044810D01*
X64935719Y-72041178D01*
X64934007Y-72041473D01*
X64931273Y-72041944D01*
X64928386Y-72043950D01*
X64923771Y-72049446D01*
X61550383Y-72049446D01*
X61548316Y-72047853D01*
X61544951Y-72046239D01*
X61438951Y-72046239D01*
X61412565Y-72026746D01*
X61518960Y-72026746D01*
X61524579Y-72034442D01*
X61530527Y-72041373D01*
X61535951Y-72045813D01*
X61537091Y-72045707D01*
X61537135Y-72041473D01*
X61527033Y-72031989D01*
X61524391Y-72029952D01*
X64949762Y-72029952D01*
X64949826Y-72030861D01*
X64953587Y-72032292D01*
X64960130Y-72025316D01*
X64961711Y-72021685D01*
X64957264Y-72022451D01*
X64954378Y-72024456D01*
X64953168Y-72025897D01*
X64949762Y-72029952D01*
X61524391Y-72029952D01*
X61522325Y-72028359D01*
X61518960Y-72026746D01*
X61412565Y-72026746D01*
X61394969Y-72013747D01*
X61501010Y-72013747D01*
X61502666Y-72019822D01*
X61504001Y-72021746D01*
X61509931Y-72026320D01*
X61510820Y-72025897D01*
X61509164Y-72019822D01*
X61507829Y-72017899D01*
X61501899Y-72013324D01*
X61501010Y-72013747D01*
X61394969Y-72013747D01*
X61390518Y-72010459D01*
X64975754Y-72010459D01*
X64975817Y-72011367D01*
X64979578Y-72012798D01*
X64986121Y-72005823D01*
X64987702Y-72002191D01*
X64983255Y-72002957D01*
X64980369Y-72004963D01*
X64979160Y-72006403D01*
X64975754Y-72010459D01*
X61390518Y-72010459D01*
X61376140Y-71999837D01*
X61368579Y-71994254D01*
X61475019Y-71994254D01*
X61476675Y-72000329D01*
X61478010Y-72002252D01*
X61483939Y-72006827D01*
X61484828Y-72006403D01*
X61483172Y-72000329D01*
X61481837Y-71998405D01*
X61475908Y-71993831D01*
X61475019Y-71994254D01*
X61368579Y-71994254D01*
X61364125Y-71990965D01*
X65001745Y-71990965D01*
X65001808Y-71991874D01*
X65005570Y-71993305D01*
X65012112Y-71986329D01*
X65013693Y-71982698D01*
X65009247Y-71983464D01*
X65006360Y-71985469D01*
X65005150Y-71986910D01*
X65001745Y-71990965D01*
X61364125Y-71990965D01*
X61342180Y-71974760D01*
X61449028Y-71974760D01*
X61450683Y-71980835D01*
X61452018Y-71982759D01*
X61457948Y-71987333D01*
X61458837Y-71986910D01*
X61457181Y-71980835D01*
X61455846Y-71978912D01*
X61449916Y-71974337D01*
X61449028Y-71974760D01*
X61342180Y-71974760D01*
X61337727Y-71971472D01*
X65027736Y-71971472D01*
X65027800Y-71972380D01*
X65031561Y-71973811D01*
X65038103Y-71966836D01*
X65039684Y-71963204D01*
X65035238Y-71963970D01*
X65032352Y-71965976D01*
X65031142Y-71967417D01*
X65027736Y-71971472D01*
X61337727Y-71971472D01*
X61315782Y-71955267D01*
X61423036Y-71955267D01*
X61424692Y-71961342D01*
X61426027Y-71963265D01*
X61431957Y-71967840D01*
X61432846Y-71967417D01*
X61431190Y-71961342D01*
X61429855Y-71959418D01*
X61423925Y-71954844D01*
X61423036Y-71955267D01*
X61315782Y-71955267D01*
X61289387Y-71935776D01*
X61395501Y-71935776D01*
X61401121Y-71943473D01*
X61407068Y-71950403D01*
X61412492Y-71954844D01*
X61413632Y-71954737D01*
X61413656Y-71952391D01*
X65053728Y-71952391D01*
X65053834Y-71953531D01*
X65058068Y-71953575D01*
X65067552Y-71943473D01*
X65071182Y-71938765D01*
X65072795Y-71935400D01*
X65065099Y-71941019D01*
X65058168Y-71946967D01*
X65055273Y-71950504D01*
X65053728Y-71952391D01*
X61413656Y-71952391D01*
X61413676Y-71950504D01*
X61403574Y-71941019D01*
X61398866Y-71937390D01*
X61395501Y-71935776D01*
X61289387Y-71935776D01*
X61283200Y-71931207D01*
X61262981Y-71916283D01*
X61369510Y-71916283D01*
X61375129Y-71923979D01*
X61381077Y-71930910D01*
X61386501Y-71935350D01*
X61387641Y-71935244D01*
X61387685Y-71931010D01*
X61382335Y-71925987D01*
X65086217Y-71925987D01*
X65086280Y-71926896D01*
X65090041Y-71928327D01*
X65096584Y-71921351D01*
X65098165Y-71917720D01*
X65093718Y-71918485D01*
X65090832Y-71920491D01*
X65086217Y-71925987D01*
X61382335Y-71925987D01*
X61377583Y-71921526D01*
X61372875Y-71917896D01*
X61369510Y-71916283D01*
X61262981Y-71916283D01*
X61245370Y-71903284D01*
X61351560Y-71903284D01*
X61353216Y-71909359D01*
X61354551Y-71911283D01*
X61360481Y-71915857D01*
X61361370Y-71915434D01*
X61359714Y-71909359D01*
X61358379Y-71907436D01*
X61357158Y-71906494D01*
X65112208Y-71906494D01*
X65112271Y-71907402D01*
X65116033Y-71908833D01*
X65122575Y-71901857D01*
X65124156Y-71898226D01*
X65119710Y-71898992D01*
X65116823Y-71900998D01*
X65112208Y-71906494D01*
X61357158Y-71906494D01*
X61352449Y-71902861D01*
X61351560Y-71903284D01*
X61245370Y-71903284D01*
X61218961Y-71883791D01*
X61325569Y-71883791D01*
X61327225Y-71889866D01*
X61328560Y-71891789D01*
X61334489Y-71896363D01*
X61335378Y-71895940D01*
X61333722Y-71889866D01*
X61332387Y-71887942D01*
X61331166Y-71887000D01*
X65138199Y-71887000D01*
X65138263Y-71887909D01*
X65142024Y-71889340D01*
X65148567Y-71882364D01*
X65150148Y-71878733D01*
X65145701Y-71879498D01*
X65142815Y-71881504D01*
X65138199Y-71887000D01*
X61331166Y-71887000D01*
X61326458Y-71883368D01*
X61325569Y-71883791D01*
X61218961Y-71883791D01*
X61192550Y-71864297D01*
X61299578Y-71864297D01*
X61301233Y-71870372D01*
X61302568Y-71872296D01*
X61308498Y-71876870D01*
X61309387Y-71876447D01*
X61307731Y-71870372D01*
X61306396Y-71868449D01*
X61300466Y-71863874D01*
X61299578Y-71864297D01*
X61192550Y-71864297D01*
X61187575Y-71860625D01*
X65170688Y-71860625D01*
X65173937Y-71863874D01*
X65177186Y-71860625D01*
X65173937Y-71857377D01*
X65170688Y-71860625D01*
X61187575Y-71860625D01*
X61187521Y-71860585D01*
X61177211Y-71852976D01*
X61166140Y-71844804D01*
X61273586Y-71844804D01*
X61275242Y-71850879D01*
X61276577Y-71852802D01*
X61282507Y-71857377D01*
X61283396Y-71856953D01*
X61281740Y-71850879D01*
X61280405Y-71848955D01*
X61279718Y-71848425D01*
X65190182Y-71848425D01*
X65190289Y-71849566D01*
X65194522Y-71849610D01*
X65204006Y-71839508D01*
X65207636Y-71834799D01*
X65209250Y-71831435D01*
X65201553Y-71837054D01*
X65198072Y-71840041D01*
X65194622Y-71843001D01*
X65190182Y-71848425D01*
X61279718Y-71848425D01*
X61274475Y-71844381D01*
X61273586Y-71844804D01*
X61166140Y-71844804D01*
X61139735Y-71825313D01*
X61246051Y-71825313D01*
X61251671Y-71833010D01*
X61257618Y-71839940D01*
X61263042Y-71844381D01*
X61264182Y-71844274D01*
X61264226Y-71840041D01*
X61254124Y-71830556D01*
X61249416Y-71826927D01*
X61246051Y-71825313D01*
X61139735Y-71825313D01*
X61113327Y-71805820D01*
X61220060Y-71805820D01*
X61225680Y-71813516D01*
X61231627Y-71820447D01*
X61237051Y-71824887D01*
X61238191Y-71824781D01*
X61238220Y-71822022D01*
X65222671Y-71822022D01*
X65222734Y-71822930D01*
X65226496Y-71824361D01*
X65233038Y-71817386D01*
X65234619Y-71813754D01*
X65230173Y-71814520D01*
X65227286Y-71816526D01*
X65223910Y-71820547D01*
X65222671Y-71822022D01*
X61238220Y-71822022D01*
X61238235Y-71820547D01*
X61228133Y-71811063D01*
X61223425Y-71807433D01*
X61220060Y-71805820D01*
X61113327Y-71805820D01*
X61095717Y-71792821D01*
X61202110Y-71792821D01*
X61203766Y-71798896D01*
X61205101Y-71800820D01*
X61211031Y-71805394D01*
X61211920Y-71804971D01*
X61211254Y-71802529D01*
X65248662Y-71802529D01*
X65248726Y-71803437D01*
X65252487Y-71804868D01*
X65259030Y-71797892D01*
X65260611Y-71794261D01*
X65256164Y-71795027D01*
X65253278Y-71797033D01*
X65248662Y-71802529D01*
X61211254Y-71802529D01*
X61210264Y-71798896D01*
X61208929Y-71796973D01*
X61202999Y-71792398D01*
X61202110Y-71792821D01*
X61095717Y-71792821D01*
X61081780Y-71782533D01*
X61069316Y-71773328D01*
X61176119Y-71773328D01*
X61177775Y-71779403D01*
X61179110Y-71781326D01*
X61185039Y-71785900D01*
X61185928Y-71785477D01*
X61185262Y-71783035D01*
X65274654Y-71783035D01*
X65274717Y-71783943D01*
X65278478Y-71785374D01*
X65285021Y-71778399D01*
X65286602Y-71774767D01*
X65282155Y-71775533D01*
X65279269Y-71777539D01*
X65274654Y-71783035D01*
X61185262Y-71783035D01*
X61184272Y-71779403D01*
X61182937Y-71777479D01*
X61177008Y-71772905D01*
X61176119Y-71773328D01*
X61069316Y-71773328D01*
X61042919Y-71753834D01*
X61150128Y-71753834D01*
X61151783Y-71759909D01*
X61153118Y-71761833D01*
X61159048Y-71766407D01*
X61159937Y-71765984D01*
X61159271Y-71763542D01*
X65300645Y-71763542D01*
X65300708Y-71764450D01*
X65304470Y-71765881D01*
X65311012Y-71758905D01*
X65312593Y-71755274D01*
X65308147Y-71756040D01*
X65305260Y-71758046D01*
X65300645Y-71763542D01*
X61159271Y-71763542D01*
X61158281Y-71759909D01*
X61156946Y-71757986D01*
X61151016Y-71753411D01*
X61150128Y-71753834D01*
X61042919Y-71753834D01*
X61016524Y-71734341D01*
X61124136Y-71734341D01*
X61125792Y-71740416D01*
X61127127Y-71742339D01*
X61133057Y-71746914D01*
X61133946Y-71746490D01*
X61133280Y-71744048D01*
X65326636Y-71744048D01*
X65326699Y-71744956D01*
X65330461Y-71746387D01*
X65337003Y-71739412D01*
X65338584Y-71735780D01*
X65334138Y-71736546D01*
X65331252Y-71738552D01*
X65326636Y-71744048D01*
X61133280Y-71744048D01*
X61132290Y-71740416D01*
X61130955Y-71738492D01*
X61125025Y-71733918D01*
X61124136Y-71734341D01*
X61016524Y-71734341D01*
X60990132Y-71714850D01*
X61096601Y-71714850D01*
X61102221Y-71722547D01*
X61108168Y-71729477D01*
X61113592Y-71733918D01*
X61114732Y-71733811D01*
X61114776Y-71729578D01*
X61104674Y-71720093D01*
X61102033Y-71718057D01*
X65359125Y-71718057D01*
X65359189Y-71718965D01*
X65362950Y-71720396D01*
X65369493Y-71713420D01*
X65371074Y-71709789D01*
X65369361Y-71710084D01*
X65366627Y-71710555D01*
X65363741Y-71712561D01*
X65359125Y-71718057D01*
X61102033Y-71718057D01*
X61099966Y-71716464D01*
X61096601Y-71714850D01*
X60990132Y-71714850D01*
X60989137Y-71714115D01*
X60963748Y-71695357D01*
X61070610Y-71695357D01*
X61076230Y-71703053D01*
X61082177Y-71709984D01*
X61087601Y-71714424D01*
X61088741Y-71714318D01*
X61088785Y-71710084D01*
X61078683Y-71700600D01*
X61076041Y-71698563D01*
X65385117Y-71698563D01*
X65385180Y-71699472D01*
X65388941Y-71700903D01*
X65395484Y-71693927D01*
X65397065Y-71690296D01*
X65392618Y-71691062D01*
X65389732Y-71693067D01*
X65388522Y-71694508D01*
X65385117Y-71698563D01*
X61076041Y-71698563D01*
X61073975Y-71696970D01*
X61070610Y-71695357D01*
X60963748Y-71695357D01*
X60946154Y-71682358D01*
X61052660Y-71682358D01*
X61054316Y-71688433D01*
X61055651Y-71690357D01*
X61061581Y-71694931D01*
X61062470Y-71694508D01*
X61060814Y-71688433D01*
X61059479Y-71686510D01*
X61053549Y-71681935D01*
X61052660Y-71682358D01*
X60946154Y-71682358D01*
X60941704Y-71679070D01*
X65411108Y-71679070D01*
X65411171Y-71679978D01*
X65414933Y-71681409D01*
X65421475Y-71674433D01*
X65423056Y-71670802D01*
X65418610Y-71671568D01*
X65415723Y-71673574D01*
X65414514Y-71675014D01*
X65411108Y-71679070D01*
X60941704Y-71679070D01*
X60919771Y-71662865D01*
X61026669Y-71662865D01*
X61028325Y-71668940D01*
X61029660Y-71670863D01*
X61035589Y-71675437D01*
X61036478Y-71675014D01*
X61034822Y-71668940D01*
X61033488Y-71667016D01*
X61027558Y-71662442D01*
X61026669Y-71662865D01*
X60919771Y-71662865D01*
X60915320Y-71659576D01*
X65437099Y-71659576D01*
X65437163Y-71660485D01*
X65440924Y-71661916D01*
X65447467Y-71654940D01*
X65449048Y-71651309D01*
X65444601Y-71652075D01*
X65441715Y-71654080D01*
X65440505Y-71655521D01*
X65437099Y-71659576D01*
X60915320Y-71659576D01*
X60899828Y-71648130D01*
X60893390Y-71643371D01*
X61000678Y-71643371D01*
X61002333Y-71649446D01*
X61003668Y-71651370D01*
X61009598Y-71655944D01*
X61010487Y-71655521D01*
X61008831Y-71649446D01*
X61007496Y-71647523D01*
X61001566Y-71642948D01*
X61000678Y-71643371D01*
X60893390Y-71643371D01*
X60888942Y-71640083D01*
X65463091Y-71640083D01*
X65463154Y-71640991D01*
X65466915Y-71642422D01*
X65473458Y-71635447D01*
X65475039Y-71631815D01*
X65470592Y-71632581D01*
X65467706Y-71634587D01*
X65466497Y-71636027D01*
X65463091Y-71640083D01*
X60888942Y-71640083D01*
X60867020Y-71623878D01*
X60974686Y-71623878D01*
X60976342Y-71629953D01*
X60977677Y-71631876D01*
X60983607Y-71636450D01*
X60984496Y-71636027D01*
X60982840Y-71629953D01*
X60981505Y-71628029D01*
X60975575Y-71623455D01*
X60974686Y-71623878D01*
X60867020Y-71623878D01*
X60840653Y-71604387D01*
X60947151Y-71604387D01*
X60952771Y-71612084D01*
X60958718Y-71619014D01*
X60964142Y-71623455D01*
X60965282Y-71623348D01*
X60965306Y-71621002D01*
X65489082Y-71621002D01*
X65489189Y-71622142D01*
X65493422Y-71622186D01*
X65502906Y-71612084D01*
X65506536Y-71607376D01*
X65508150Y-71604011D01*
X65500453Y-71609630D01*
X65493522Y-71615578D01*
X65490627Y-71619115D01*
X65489082Y-71621002D01*
X60965306Y-71621002D01*
X60965326Y-71619115D01*
X60955224Y-71609630D01*
X60950516Y-71606001D01*
X60947151Y-71604387D01*
X60840653Y-71604387D01*
X60814402Y-71584982D01*
X60814283Y-71584894D01*
X60921160Y-71584894D01*
X60926780Y-71592590D01*
X60928805Y-71595106D01*
X60937443Y-71603453D01*
X60940604Y-71601508D01*
X60938232Y-71598153D01*
X60934241Y-71594598D01*
X65521571Y-71594598D01*
X65521634Y-71595506D01*
X65525396Y-71596937D01*
X65531938Y-71589962D01*
X65533519Y-71586330D01*
X65529073Y-71587096D01*
X65526186Y-71589102D01*
X65521571Y-71594598D01*
X60934241Y-71594598D01*
X60929233Y-71590137D01*
X60924525Y-71586507D01*
X60921160Y-71584894D01*
X60814283Y-71584894D01*
X60796708Y-71571895D01*
X60903210Y-71571895D01*
X60904866Y-71577970D01*
X60906201Y-71579894D01*
X60912131Y-71584468D01*
X60913020Y-71584045D01*
X60911364Y-71577970D01*
X60910029Y-71576047D01*
X60908808Y-71575105D01*
X65547562Y-71575105D01*
X65547626Y-71576013D01*
X65551387Y-71577444D01*
X65557930Y-71570468D01*
X65559511Y-71566837D01*
X65555064Y-71567603D01*
X65552178Y-71569609D01*
X65547562Y-71575105D01*
X60908808Y-71575105D01*
X60904099Y-71571472D01*
X60903210Y-71571895D01*
X60796708Y-71571895D01*
X60770352Y-71552402D01*
X60877219Y-71552402D01*
X60878875Y-71558477D01*
X60880210Y-71560400D01*
X60886139Y-71564974D01*
X60887028Y-71564551D01*
X60885372Y-71558477D01*
X60884038Y-71556553D01*
X60882817Y-71555611D01*
X65573554Y-71555611D01*
X65573617Y-71556520D01*
X65577378Y-71557950D01*
X65583921Y-71550975D01*
X65585502Y-71547343D01*
X65581055Y-71548109D01*
X65578169Y-71550115D01*
X65573554Y-71555611D01*
X60882817Y-71555611D01*
X60878108Y-71551979D01*
X60877219Y-71552402D01*
X60770352Y-71552402D01*
X60743995Y-71532908D01*
X60851228Y-71532908D01*
X60852883Y-71538983D01*
X60854218Y-71540907D01*
X60860148Y-71545481D01*
X60861037Y-71545058D01*
X60859381Y-71538983D01*
X60858046Y-71537060D01*
X60852116Y-71532485D01*
X60851228Y-71532908D01*
X60743995Y-71532908D01*
X60739030Y-71529236D01*
X65606043Y-71529236D01*
X65609292Y-71532485D01*
X65612541Y-71529236D01*
X65609292Y-71525987D01*
X65606043Y-71529236D01*
X60739030Y-71529236D01*
X60733408Y-71525078D01*
X60717648Y-71513415D01*
X60825236Y-71513415D01*
X60826892Y-71519490D01*
X60828227Y-71521413D01*
X60834157Y-71525987D01*
X60835046Y-71525564D01*
X60833390Y-71519490D01*
X60832055Y-71517566D01*
X60831368Y-71517036D01*
X65625536Y-71517036D01*
X65625643Y-71518177D01*
X65629876Y-71518220D01*
X65639361Y-71508118D01*
X65642991Y-71503410D01*
X65644604Y-71500045D01*
X65636907Y-71505665D01*
X65631227Y-71510539D01*
X65629977Y-71511612D01*
X65625536Y-71517036D01*
X60831368Y-71517036D01*
X60826125Y-71512992D01*
X60825236Y-71513415D01*
X60717648Y-71513415D01*
X60691309Y-71493924D01*
X60797701Y-71493924D01*
X60803321Y-71501621D01*
X60805347Y-71504136D01*
X60813985Y-71512483D01*
X60817145Y-71510539D01*
X60814773Y-71507183D01*
X60805774Y-71499167D01*
X60801066Y-71495537D01*
X60797701Y-71493924D01*
X60691309Y-71493924D01*
X60664966Y-71474430D01*
X60771710Y-71474430D01*
X60777330Y-71482127D01*
X60779355Y-71484643D01*
X60787993Y-71492990D01*
X60791154Y-71491045D01*
X60790863Y-71490633D01*
X65658025Y-71490633D01*
X65658054Y-71491045D01*
X65658089Y-71491541D01*
X65661850Y-71492972D01*
X65668393Y-71485997D01*
X65669974Y-71482365D01*
X65665527Y-71483131D01*
X65662641Y-71485137D01*
X65658025Y-71490633D01*
X60790863Y-71490633D01*
X60788782Y-71487690D01*
X60779783Y-71479674D01*
X60775075Y-71476044D01*
X60771710Y-71474430D01*
X60664966Y-71474430D01*
X60657392Y-71468825D01*
X60647408Y-71461432D01*
X60753760Y-71461432D01*
X60755416Y-71467507D01*
X60756751Y-71469430D01*
X60762681Y-71474005D01*
X60763570Y-71473582D01*
X60762904Y-71471139D01*
X65684017Y-71471139D01*
X65684080Y-71472048D01*
X65687841Y-71473479D01*
X65694384Y-71466503D01*
X65695965Y-71462872D01*
X65691518Y-71463638D01*
X65688632Y-71465643D01*
X65684017Y-71471139D01*
X60762904Y-71471139D01*
X60761914Y-71467507D01*
X60760579Y-71465584D01*
X60754649Y-71461009D01*
X60753760Y-71461432D01*
X60647408Y-71461432D01*
X60621084Y-71441939D01*
X60727769Y-71441939D01*
X60729425Y-71448014D01*
X60730760Y-71449937D01*
X60736689Y-71454511D01*
X60737578Y-71454088D01*
X60736913Y-71451646D01*
X65710008Y-71451646D01*
X65710071Y-71452554D01*
X65713833Y-71453985D01*
X65720375Y-71447010D01*
X65721956Y-71443378D01*
X65717510Y-71444144D01*
X65714623Y-71446150D01*
X65710008Y-71451646D01*
X60736913Y-71451646D01*
X60735923Y-71448014D01*
X60734588Y-71446090D01*
X60728658Y-71441516D01*
X60727769Y-71441939D01*
X60621084Y-71441939D01*
X60594758Y-71422445D01*
X60701778Y-71422445D01*
X60703433Y-71428520D01*
X60704768Y-71430444D01*
X60710698Y-71435018D01*
X60711587Y-71434595D01*
X60710921Y-71432152D01*
X65735999Y-71432152D01*
X65736063Y-71433061D01*
X65739824Y-71434492D01*
X65746366Y-71427516D01*
X65747947Y-71423885D01*
X65743501Y-71424651D01*
X65740615Y-71426656D01*
X65735999Y-71432152D01*
X60710921Y-71432152D01*
X60709931Y-71428520D01*
X60708596Y-71426597D01*
X60702666Y-71422022D01*
X60701778Y-71422445D01*
X60594758Y-71422445D01*
X60586904Y-71416629D01*
X60568449Y-71402952D01*
X60675786Y-71402952D01*
X60677442Y-71409027D01*
X60678777Y-71410950D01*
X60684707Y-71415524D01*
X60685596Y-71415101D01*
X60684930Y-71412659D01*
X65761991Y-71412659D01*
X65762054Y-71413567D01*
X65765815Y-71414998D01*
X65772358Y-71408023D01*
X65773939Y-71404391D01*
X65769492Y-71405157D01*
X65766606Y-71407163D01*
X65761991Y-71412659D01*
X60684930Y-71412659D01*
X60683940Y-71409027D01*
X60682605Y-71407103D01*
X60676675Y-71402529D01*
X60675786Y-71402952D01*
X60568449Y-71402952D01*
X60542148Y-71383461D01*
X60648251Y-71383461D01*
X60653871Y-71391158D01*
X60655897Y-71393673D01*
X60664535Y-71402020D01*
X60667695Y-71400075D01*
X60665323Y-71396720D01*
X60656324Y-71388704D01*
X60653683Y-71386668D01*
X65794480Y-71386668D01*
X65794543Y-71387576D01*
X65798304Y-71389007D01*
X65804847Y-71382031D01*
X65806428Y-71378400D01*
X65801981Y-71379166D01*
X65799944Y-71380582D01*
X65799095Y-71381172D01*
X65794480Y-71386668D01*
X60653683Y-71386668D01*
X60651616Y-71385074D01*
X60648251Y-71383461D01*
X60542148Y-71383461D01*
X60522491Y-71368894D01*
X60515849Y-71363967D01*
X60622260Y-71363967D01*
X60627880Y-71371664D01*
X60629905Y-71374180D01*
X60638543Y-71382527D01*
X60641704Y-71380582D01*
X60639332Y-71377226D01*
X60630333Y-71369211D01*
X60627691Y-71367174D01*
X65820471Y-71367174D01*
X65820534Y-71368083D01*
X65824296Y-71369514D01*
X65830838Y-71362538D01*
X65832419Y-71358907D01*
X65827973Y-71359672D01*
X65825086Y-71361678D01*
X65823876Y-71363119D01*
X65820471Y-71367174D01*
X60627691Y-71367174D01*
X60625625Y-71365581D01*
X60622260Y-71363967D01*
X60515849Y-71363967D01*
X60498325Y-71350969D01*
X60604310Y-71350969D01*
X60605966Y-71357044D01*
X60607301Y-71358967D01*
X60613231Y-71363542D01*
X60614120Y-71363119D01*
X60612464Y-71357044D01*
X60611129Y-71355120D01*
X60605199Y-71350546D01*
X60604310Y-71350969D01*
X60498325Y-71350969D01*
X60493892Y-71347681D01*
X65846462Y-71347681D01*
X65846526Y-71348589D01*
X65850287Y-71350020D01*
X65856830Y-71343044D01*
X65858411Y-71339413D01*
X65853964Y-71340179D01*
X65851078Y-71342185D01*
X65849869Y-71343625D01*
X65846462Y-71347681D01*
X60493892Y-71347681D01*
X60472045Y-71331476D01*
X60578319Y-71331476D01*
X60579975Y-71337550D01*
X60581310Y-71339474D01*
X60587239Y-71344048D01*
X60588128Y-71343625D01*
X60586473Y-71337550D01*
X60585138Y-71335627D01*
X60579208Y-71331053D01*
X60578319Y-71331476D01*
X60472045Y-71331476D01*
X60467611Y-71328187D01*
X65872454Y-71328187D01*
X65872517Y-71329096D01*
X65876278Y-71330527D01*
X65882821Y-71323551D01*
X65884402Y-71319920D01*
X65879955Y-71320685D01*
X65877069Y-71322691D01*
X65875859Y-71324132D01*
X65872454Y-71328187D01*
X60467611Y-71328187D01*
X60464702Y-71326029D01*
X60445787Y-71311982D01*
X60552328Y-71311982D01*
X60553983Y-71318057D01*
X60555318Y-71319981D01*
X60561248Y-71324555D01*
X60562137Y-71324132D01*
X60560481Y-71318057D01*
X60559146Y-71316134D01*
X60553216Y-71311559D01*
X60552328Y-71311982D01*
X60445787Y-71311982D01*
X60441360Y-71308694D01*
X65898445Y-71308694D01*
X65898508Y-71309602D01*
X65902269Y-71311033D01*
X65908812Y-71304057D01*
X65910393Y-71300426D01*
X65905947Y-71301192D01*
X65903060Y-71303198D01*
X65901851Y-71304638D01*
X65898445Y-71308694D01*
X60441360Y-71308694D01*
X60419539Y-71292489D01*
X60526336Y-71292489D01*
X60527992Y-71298564D01*
X60529327Y-71300487D01*
X60535257Y-71305061D01*
X60536146Y-71304638D01*
X60534490Y-71298564D01*
X60533155Y-71296640D01*
X60527225Y-71292066D01*
X60526336Y-71292489D01*
X60419539Y-71292489D01*
X60414085Y-71288439D01*
X60393326Y-71272998D01*
X60498801Y-71272998D01*
X60504421Y-71280695D01*
X60506447Y-71283210D01*
X60515085Y-71291557D01*
X60518245Y-71289612D01*
X65924436Y-71289612D01*
X65924543Y-71290753D01*
X65928776Y-71290797D01*
X65938261Y-71280695D01*
X65941891Y-71275986D01*
X65943504Y-71272622D01*
X65935807Y-71278241D01*
X65928877Y-71284188D01*
X65924436Y-71289612D01*
X60518245Y-71289612D01*
X60515873Y-71286257D01*
X60506874Y-71278241D01*
X60502166Y-71274611D01*
X60498801Y-71272998D01*
X60393326Y-71272998D01*
X60371187Y-71256530D01*
X60367129Y-71253504D01*
X60472810Y-71253504D01*
X60478430Y-71261201D01*
X60480455Y-71263717D01*
X60489093Y-71272064D01*
X60492254Y-71270119D01*
X60489882Y-71266763D01*
X60485892Y-71263209D01*
X65956925Y-71263209D01*
X65956989Y-71264117D01*
X65960750Y-71265548D01*
X65967293Y-71258573D01*
X65968874Y-71254941D01*
X65964427Y-71255707D01*
X65961541Y-71257713D01*
X65956925Y-71263209D01*
X60485892Y-71263209D01*
X60480883Y-71258748D01*
X60476175Y-71255118D01*
X60472810Y-71253504D01*
X60367129Y-71253504D01*
X60362201Y-71249830D01*
X60459765Y-71249830D01*
X60463014Y-71253079D01*
X60466263Y-71249830D01*
X60463014Y-71246581D01*
X60459765Y-71249830D01*
X60362201Y-71249830D01*
X60354001Y-71243716D01*
X65982917Y-71243716D01*
X65982980Y-71244624D01*
X65986741Y-71246055D01*
X65993284Y-71239079D01*
X65994865Y-71235448D01*
X65990418Y-71236214D01*
X65987532Y-71238220D01*
X65982917Y-71243716D01*
X60354001Y-71243716D01*
X60336556Y-71230708D01*
X60327894Y-71224222D01*
X66008908Y-71224222D01*
X66008971Y-71225130D01*
X66012733Y-71226561D01*
X66019275Y-71219586D01*
X66020856Y-71215954D01*
X66016410Y-71216720D01*
X66013523Y-71218726D01*
X66008908Y-71224222D01*
X60327894Y-71224222D01*
X60310742Y-71211379D01*
X60294291Y-71198950D01*
X60287753Y-71193826D01*
X60286087Y-71192191D01*
X60283765Y-71189098D01*
X60284366Y-71186675D01*
X60289150Y-71184841D01*
X60299375Y-71183515D01*
X60316301Y-71182615D01*
X60341186Y-71182060D01*
X60375290Y-71181768D01*
X60419872Y-71181659D01*
X60476190Y-71181651D01*
X60489041Y-71181647D01*
X60531798Y-71181566D01*
X60584044Y-71181389D01*
X60644945Y-71181121D01*
X60713670Y-71180769D01*
X60789385Y-71180341D01*
X60871258Y-71179843D01*
X60958455Y-71179281D01*
X61050145Y-71178663D01*
X61145495Y-71177994D01*
X61243671Y-71177283D01*
X61343841Y-71176536D01*
X61445173Y-71175759D01*
X61546833Y-71174960D01*
X61647989Y-71174144D01*
X61747807Y-71173320D01*
X61845456Y-71172492D01*
X61940103Y-71171670D01*
X62030914Y-71170858D01*
X62117058Y-71170064D01*
X62197701Y-71169295D01*
X62272010Y-71168558D01*
X62339153Y-71167858D01*
X62398297Y-71167204D01*
X62448610Y-71166601D01*
X62489258Y-71166057D01*
X62519409Y-71165578D01*
X62538230Y-71165170D01*
X62544889Y-71164842D01*
X62546131Y-71161388D01*
X62551082Y-71146406D01*
X62559601Y-71120171D01*
X62571477Y-71083339D01*
X62586502Y-71036567D01*
X62604464Y-70980511D01*
X62625155Y-70915826D01*
X62648365Y-70843168D01*
X62673885Y-70763195D01*
X62701505Y-70676561D01*
X62731016Y-70583924D01*
X62762207Y-70485938D01*
X62794870Y-70383261D01*
X62828795Y-70276547D01*
X62863772Y-70166454D01*
X62885664Y-70097554D01*
X62920593Y-69987730D01*
X62954590Y-69880972D01*
X62987425Y-69777997D01*
X63018867Y-69679521D01*
X63048686Y-69586262D01*
X63076652Y-69498937D01*
X63102534Y-69418263D01*
X63126104Y-69344958D01*
X63147129Y-69279738D01*
X63165381Y-69223322D01*
X63180629Y-69176425D01*
X63192643Y-69139766D01*
X63201192Y-69114061D01*
X63206047Y-69100028D01*
X63232010Y-69029530D01*
X63271322Y-69139015D01*
X63272696Y-69142876D01*
X63280307Y-69164769D01*
X63291686Y-69198020D01*
X63306575Y-69241859D01*
X63324716Y-69295517D01*
X63345851Y-69358225D01*
X63369723Y-69429214D01*
X63396072Y-69507716D01*
X63424642Y-69592961D01*
X63455174Y-69684181D01*
X63487411Y-69780606D01*
X63521093Y-69881467D01*
X63555965Y-69985996D01*
X63591767Y-70093424D01*
X63628241Y-70202981D01*
X63945848Y-71157463D01*
X64592382Y-71153278D01*
X64650983Y-71152895D01*
X64759648Y-71152169D01*
X64873528Y-71151389D01*
X64990599Y-71150569D01*
X65108839Y-71149726D01*
X65226223Y-71148873D01*
X65340729Y-71148026D01*
X65450334Y-71147199D01*
X65553013Y-71146406D01*
X65646743Y-71145663D01*
X65729501Y-71144985D01*
X65737774Y-71144916D01*
X65815878Y-71144310D01*
X65889917Y-71143813D01*
X65958900Y-71143426D01*
X66021834Y-71143153D01*
X66077726Y-71142994D01*
X66125585Y-71142953D01*
X66164418Y-71143031D01*
X66193232Y-71143229D01*
X66211037Y-71143551D01*
X66216838Y-71143997D01*
X66216542Y-71144237D01*
X66209021Y-71150024D01*
X66191796Y-71163188D01*
X66165398Y-71183322D01*
X66130360Y-71210024D01*
X66122574Y-71215954D01*
X66096978Y-71235448D01*
X66087211Y-71242887D01*
X66078092Y-71249830D01*
G37*
G36*
X74252972Y-75733597D02*
G01*
X74315558Y-75733681D01*
X74367629Y-75733874D01*
X74410386Y-75734219D01*
X74445032Y-75734760D01*
X74472766Y-75735541D01*
X74494791Y-75736605D01*
X74512308Y-75737998D01*
X74526518Y-75739762D01*
X74538623Y-75741941D01*
X74549825Y-75744579D01*
X74561323Y-75747719D01*
X74595098Y-75758163D01*
X74643924Y-75777886D01*
X74685039Y-75801640D01*
X74721726Y-75831131D01*
X74725259Y-75834454D01*
X74763345Y-75879004D01*
X74792568Y-75931734D01*
X74813621Y-75993866D01*
X74815557Y-76001713D01*
X74817923Y-76012750D01*
X74819921Y-76024851D01*
X74821582Y-76039099D01*
X74822936Y-76056580D01*
X74824014Y-76078378D01*
X74824848Y-76105579D01*
X74825469Y-76139266D01*
X74825907Y-76180525D01*
X74826194Y-76230440D01*
X74826361Y-76290097D01*
X74826438Y-76360580D01*
X74826457Y-76442974D01*
X74826453Y-76474511D01*
X74826384Y-76554253D01*
X74826213Y-76622425D01*
X74825915Y-76680078D01*
X74825466Y-76728263D01*
X74824842Y-76768029D01*
X74824017Y-76800428D01*
X74822967Y-76826508D01*
X74821667Y-76847321D01*
X74820094Y-76863917D01*
X74818222Y-76877347D01*
X74816026Y-76888660D01*
X74799865Y-76943740D01*
X74772009Y-77001549D01*
X74734818Y-77050354D01*
X74688167Y-77090282D01*
X74631927Y-77121466D01*
X74565971Y-77144034D01*
X74563454Y-77144662D01*
X74549352Y-77147495D01*
X74531623Y-77149888D01*
X74508929Y-77151910D01*
X74479932Y-77153628D01*
X74443294Y-77155111D01*
X74397675Y-77156426D01*
X74341737Y-77157641D01*
X74274142Y-77158824D01*
X74251746Y-77159185D01*
X74188408Y-77160270D01*
X74136472Y-77161405D01*
X74094726Y-77162787D01*
X74061960Y-77164614D01*
X74036961Y-77167084D01*
X74018518Y-77170395D01*
X74005419Y-77174744D01*
X73996451Y-77180330D01*
X73990405Y-77187350D01*
X73986067Y-77196003D01*
X73982226Y-77206485D01*
X73980602Y-77216199D01*
X73978976Y-77239507D01*
X73977641Y-77275599D01*
X73976600Y-77324364D01*
X73975856Y-77385688D01*
X73975411Y-77459460D01*
X73975266Y-77545568D01*
X73975277Y-77595691D01*
X73975338Y-77660334D01*
X73975492Y-77713893D01*
X73975782Y-77757511D01*
X73976253Y-77792333D01*
X73976948Y-77819502D01*
X73977910Y-77840164D01*
X73979183Y-77855462D01*
X73980812Y-77866540D01*
X73982839Y-77874542D01*
X73985309Y-77880613D01*
X73988265Y-77885896D01*
X73989610Y-77887998D01*
X74003586Y-77903784D01*
X74018817Y-77913859D01*
X74028522Y-77915738D01*
X74050978Y-77917470D01*
X74083734Y-77918549D01*
X74125317Y-77918930D01*
X74174254Y-77918571D01*
X74213664Y-77917980D01*
X74249810Y-77917257D01*
X74276341Y-77916309D01*
X74295089Y-77914926D01*
X74307885Y-77912897D01*
X74316560Y-77910012D01*
X74322946Y-77906062D01*
X74328875Y-77900837D01*
X74329336Y-77900397D01*
X74342818Y-77882529D01*
X74352090Y-77861850D01*
X74353152Y-77855923D01*
X74354886Y-77836494D01*
X74356374Y-77807456D01*
X74357539Y-77770971D01*
X74358299Y-77729199D01*
X74358577Y-77684302D01*
X74358614Y-77529978D01*
X74820851Y-77529978D01*
X74818699Y-77759027D01*
X74816548Y-77988075D01*
X74798498Y-78039352D01*
X74793759Y-78052148D01*
X74771822Y-78099894D01*
X74745872Y-78141864D01*
X74718057Y-78174451D01*
X74701139Y-78188883D01*
X74659163Y-78216005D01*
X74609131Y-78239541D01*
X74554281Y-78258082D01*
X74497852Y-78270220D01*
X74497664Y-78270247D01*
X74483200Y-78271382D01*
X74457226Y-78272387D01*
X74421194Y-78273246D01*
X74376553Y-78273940D01*
X74324756Y-78274451D01*
X74267253Y-78274761D01*
X74205497Y-78274851D01*
X74140937Y-78274704D01*
X74104512Y-78274548D01*
X74037363Y-78274215D01*
X73981363Y-78273830D01*
X73935262Y-78273341D01*
X73897811Y-78272697D01*
X73867759Y-78271846D01*
X73843858Y-78270736D01*
X73824858Y-78269316D01*
X73809509Y-78267534D01*
X73796562Y-78265339D01*
X73784768Y-78262678D01*
X73772877Y-78259502D01*
X73706956Y-78236190D01*
X73651157Y-78205715D01*
X73604836Y-78167671D01*
X73583123Y-78143660D01*
X73557117Y-78105417D01*
X73536711Y-78060854D01*
X73520197Y-78006725D01*
X73518714Y-78000751D01*
X73516272Y-77990018D01*
X73514201Y-77978812D01*
X73512475Y-77966090D01*
X73511070Y-77950807D01*
X73509961Y-77931922D01*
X73509124Y-77908389D01*
X73508533Y-77879166D01*
X73508163Y-77843208D01*
X73507990Y-77799474D01*
X73507990Y-77746917D01*
X73508137Y-77684497D01*
X73508406Y-77611167D01*
X73508773Y-77525886D01*
X73510677Y-77097873D01*
X73528631Y-77044845D01*
X73537802Y-77020308D01*
X73565998Y-76966019D01*
X73602453Y-76920877D01*
X73647911Y-76884229D01*
X73703116Y-76855419D01*
X73768812Y-76833796D01*
X73774064Y-76832476D01*
X73789124Y-76829078D01*
X73804987Y-76826284D01*
X73823176Y-76824004D01*
X73845216Y-76822146D01*
X73872631Y-76820618D01*
X73906944Y-76819331D01*
X73949681Y-76818192D01*
X74002364Y-76817111D01*
X74066518Y-76815996D01*
X74082668Y-76815729D01*
X74146193Y-76814628D01*
X74198250Y-76813489D01*
X74240083Y-76812097D01*
X74272936Y-76810239D01*
X74298051Y-76807700D01*
X74316673Y-76804266D01*
X74330045Y-76799724D01*
X74339411Y-76793859D01*
X74346015Y-76786457D01*
X74351099Y-76777305D01*
X74355908Y-76766187D01*
X74357623Y-76758735D01*
X74359777Y-76738263D01*
X74361614Y-76707635D01*
X74363133Y-76668506D01*
X74364334Y-76622528D01*
X74365216Y-76571354D01*
X74365777Y-76516639D01*
X74366017Y-76460034D01*
X74365935Y-76403195D01*
X74365530Y-76347773D01*
X74364801Y-76295423D01*
X74363747Y-76247798D01*
X74362367Y-76206550D01*
X74360660Y-76173335D01*
X74358625Y-76149803D01*
X74356262Y-76137610D01*
X74354780Y-76134132D01*
X74348194Y-76120159D01*
X74340860Y-76109544D01*
X74331027Y-76101795D01*
X74316947Y-76096416D01*
X74296869Y-76092913D01*
X74269045Y-76090794D01*
X74231724Y-76089563D01*
X74183157Y-76088726D01*
X74179964Y-76088680D01*
X74132628Y-76088186D01*
X74096320Y-76088295D01*
X74069191Y-76089101D01*
X74049392Y-76090695D01*
X74035076Y-76093169D01*
X74024393Y-76096615D01*
X74012629Y-76102236D01*
X74003091Y-76109271D01*
X73995738Y-76119078D01*
X73990288Y-76133119D01*
X73986460Y-76152853D01*
X73983973Y-76179741D01*
X73982545Y-76215242D01*
X73981894Y-76260817D01*
X73981740Y-76317925D01*
X73981740Y-76483828D01*
X73512879Y-76483828D01*
X73515621Y-76254780D01*
X73515985Y-76225391D01*
X73516911Y-76164044D01*
X73518091Y-76113470D01*
X73519730Y-76072105D01*
X73522039Y-76038383D01*
X73525223Y-76010740D01*
X73529492Y-75987612D01*
X73535053Y-75967434D01*
X73542114Y-75948641D01*
X73550883Y-75929669D01*
X73561568Y-75908953D01*
X73577578Y-75882136D01*
X73614295Y-75837932D01*
X73660366Y-75801220D01*
X73716537Y-75771461D01*
X73783556Y-75748112D01*
X73785674Y-75747521D01*
X73797377Y-75744387D01*
X73808806Y-75741762D01*
X73821168Y-75739600D01*
X73835668Y-75737856D01*
X73853514Y-75736486D01*
X73875911Y-75735445D01*
X73904065Y-75734687D01*
X73939184Y-75734168D01*
X73982473Y-75733843D01*
X74035139Y-75733666D01*
X74098388Y-75733593D01*
X74173426Y-75733578D01*
X74178669Y-75733578D01*
X74252972Y-75733597D01*
G37*
G36*
X69688677Y-77556667D02*
G01*
X69708465Y-77654823D01*
X69727337Y-77748394D01*
X69745145Y-77836640D01*
X69761738Y-77918821D01*
X69776968Y-77994197D01*
X69790686Y-78062027D01*
X69802744Y-78121571D01*
X69812992Y-78172090D01*
X69821282Y-78212843D01*
X69827464Y-78243090D01*
X69831390Y-78262091D01*
X69832910Y-78269106D01*
X69831629Y-78271079D01*
X69824658Y-78272927D01*
X69810837Y-78274392D01*
X69789141Y-78275510D01*
X69758548Y-78276316D01*
X69718032Y-78276847D01*
X69666570Y-78277139D01*
X69603137Y-78277228D01*
X69370554Y-78277228D01*
X69337136Y-78080669D01*
X69335447Y-78070737D01*
X69326476Y-78017868D01*
X69317723Y-77966151D01*
X69309581Y-77917918D01*
X69302445Y-77875500D01*
X69296705Y-77841230D01*
X69292757Y-77817439D01*
X69281798Y-77750768D01*
X69002261Y-77752460D01*
X68722724Y-77754153D01*
X68678673Y-77994573D01*
X68678095Y-77997732D01*
X68668030Y-78052669D01*
X68658589Y-78104203D01*
X68650061Y-78150770D01*
X68642729Y-78190808D01*
X68636882Y-78222753D01*
X68632804Y-78245041D01*
X68630783Y-78256110D01*
X68626943Y-78277228D01*
X68392558Y-78277228D01*
X68345487Y-78277212D01*
X68292987Y-78277107D01*
X68251344Y-78276854D01*
X68219336Y-78276391D01*
X68195738Y-78275660D01*
X68179327Y-78274598D01*
X68168880Y-78273148D01*
X68163172Y-78271247D01*
X68160981Y-78268837D01*
X68161084Y-78265857D01*
X68161354Y-78264660D01*
X68163882Y-78252903D01*
X68168912Y-78229258D01*
X68176317Y-78194335D01*
X68185966Y-78148746D01*
X68197731Y-78093102D01*
X68211482Y-78028015D01*
X68227092Y-77954097D01*
X68244430Y-77871959D01*
X68263367Y-77782212D01*
X68283775Y-77685467D01*
X68305525Y-77582338D01*
X68328487Y-77473433D01*
X68345674Y-77391899D01*
X68790154Y-77391899D01*
X68790664Y-77393000D01*
X68795982Y-77395104D01*
X68807941Y-77396774D01*
X68827600Y-77398050D01*
X68856016Y-77398973D01*
X68894250Y-77399582D01*
X68943360Y-77399919D01*
X69004405Y-77400022D01*
X69052320Y-77399948D01*
X69106490Y-77399597D01*
X69149040Y-77398933D01*
X69180759Y-77397929D01*
X69202438Y-77396558D01*
X69214866Y-77394791D01*
X69218834Y-77392602D01*
X69218719Y-77391431D01*
X69216960Y-77379739D01*
X69213225Y-77356708D01*
X69207701Y-77323437D01*
X69200579Y-77281022D01*
X69192047Y-77230563D01*
X69182294Y-77173156D01*
X69171511Y-77109899D01*
X69159885Y-77041890D01*
X69147605Y-76970226D01*
X69134862Y-76896006D01*
X69121844Y-76820326D01*
X69108740Y-76744285D01*
X69095740Y-76668981D01*
X69083031Y-76595510D01*
X69070804Y-76524971D01*
X69059248Y-76458462D01*
X69048552Y-76397079D01*
X69038904Y-76341922D01*
X69030495Y-76294087D01*
X69023512Y-76254671D01*
X69018145Y-76224774D01*
X69014584Y-76205492D01*
X69013017Y-76197924D01*
X69012442Y-76199337D01*
X69009702Y-76211243D01*
X69004935Y-76234264D01*
X68998342Y-76267330D01*
X68990121Y-76309374D01*
X68980473Y-76359325D01*
X68969597Y-76416114D01*
X68957692Y-76478673D01*
X68944958Y-76545933D01*
X68931594Y-76616823D01*
X68917800Y-76690276D01*
X68903777Y-76765222D01*
X68889722Y-76840593D01*
X68875836Y-76915318D01*
X68862318Y-76988329D01*
X68849368Y-77058557D01*
X68837185Y-77124933D01*
X68825969Y-77186387D01*
X68815920Y-77241852D01*
X68807237Y-77290256D01*
X68800119Y-77330533D01*
X68794766Y-77361611D01*
X68791378Y-77382423D01*
X68790154Y-77391899D01*
X68345674Y-77391899D01*
X68352532Y-77359367D01*
X68377531Y-77240749D01*
X68403356Y-77118191D01*
X68429877Y-76992305D01*
X68695759Y-75730123D01*
X69009279Y-75730102D01*
X69013809Y-75730102D01*
X69076001Y-75730188D01*
X69133964Y-75730420D01*
X69186445Y-75730783D01*
X69232193Y-75731261D01*
X69269954Y-75731839D01*
X69298478Y-75732500D01*
X69316510Y-75733231D01*
X69322799Y-75734014D01*
X69323010Y-75735284D01*
X69325272Y-75747055D01*
X69329894Y-75770523D01*
X69336729Y-75804949D01*
X69345625Y-75849593D01*
X69356435Y-75903714D01*
X69369010Y-75966573D01*
X69383201Y-76037430D01*
X69398858Y-76115543D01*
X69415834Y-76200174D01*
X69433978Y-76290582D01*
X69453142Y-76386026D01*
X69473178Y-76485767D01*
X69493935Y-76589065D01*
X69515266Y-76695179D01*
X69537021Y-76803369D01*
X69559052Y-76912896D01*
X69581209Y-77023019D01*
X69603343Y-77132997D01*
X69625306Y-77242091D01*
X69646949Y-77349561D01*
X69655619Y-77392602D01*
X69668122Y-77454666D01*
X69688677Y-77556667D01*
G37*
G36*
X58550420Y-77512296D02*
G01*
X58571948Y-77619156D01*
X58592287Y-77720062D01*
X58611312Y-77814395D01*
X58628899Y-77901539D01*
X58644923Y-77980877D01*
X58659260Y-78051793D01*
X58671786Y-78113668D01*
X58682375Y-78165887D01*
X58690903Y-78207832D01*
X58697246Y-78238887D01*
X58701280Y-78258434D01*
X58702879Y-78265857D01*
X58703220Y-78268079D01*
X58701896Y-78270646D01*
X58697377Y-78272685D01*
X58688437Y-78274254D01*
X58673852Y-78275416D01*
X58652396Y-78276230D01*
X58622845Y-78276758D01*
X58583973Y-78277060D01*
X58534555Y-78277196D01*
X58473367Y-78277228D01*
X58240507Y-78277228D01*
X58205884Y-78067673D01*
X58201883Y-78043499D01*
X58193068Y-77990480D01*
X58184619Y-77939991D01*
X58176884Y-77894091D01*
X58170211Y-77854838D01*
X58164947Y-77824292D01*
X58161441Y-77804511D01*
X58151621Y-77750904D01*
X57595145Y-77750904D01*
X57588179Y-77785018D01*
X57586706Y-77792499D01*
X57582623Y-77814006D01*
X57576767Y-77845392D01*
X57569469Y-77884848D01*
X57561066Y-77930568D01*
X57551890Y-77980741D01*
X57542276Y-78033560D01*
X57535847Y-78068905D01*
X57526818Y-78118349D01*
X57518608Y-78163084D01*
X57511514Y-78201493D01*
X57505836Y-78231960D01*
X57501873Y-78252870D01*
X57499923Y-78262608D01*
X57496509Y-78277228D01*
X57028665Y-78277228D01*
X57032380Y-78262426D01*
X57032632Y-78261321D01*
X57035146Y-78249675D01*
X57040166Y-78226121D01*
X57047564Y-78191276D01*
X57057210Y-78145753D01*
X57068973Y-78090167D01*
X57082725Y-78025134D01*
X57098334Y-77951269D01*
X57115672Y-77869186D01*
X57134608Y-77779500D01*
X57155012Y-77682826D01*
X57176755Y-77579780D01*
X57199707Y-77470975D01*
X57214671Y-77400022D01*
X57657793Y-77400022D01*
X57872926Y-77400022D01*
X57901843Y-77400002D01*
X57957588Y-77399798D01*
X58001868Y-77399344D01*
X58035741Y-77398597D01*
X58060263Y-77397519D01*
X58076492Y-77396070D01*
X58085484Y-77394210D01*
X58088295Y-77391899D01*
X58088021Y-77388663D01*
X58085896Y-77373574D01*
X58081827Y-77347607D01*
X58076003Y-77311837D01*
X58068612Y-77267343D01*
X58059841Y-77215200D01*
X58049877Y-77156485D01*
X58038908Y-77092276D01*
X58027123Y-77023649D01*
X58014708Y-76951680D01*
X58001852Y-76877447D01*
X57988741Y-76802027D01*
X57975565Y-76726495D01*
X57962510Y-76651929D01*
X57949763Y-76579407D01*
X57937514Y-76510003D01*
X57925949Y-76444796D01*
X57915255Y-76384862D01*
X57905622Y-76331277D01*
X57897236Y-76285120D01*
X57890285Y-76247465D01*
X57884956Y-76219391D01*
X57881438Y-76201974D01*
X57879918Y-76196290D01*
X57879845Y-76196427D01*
X57877892Y-76204627D01*
X57873830Y-76224623D01*
X57867827Y-76255509D01*
X57860051Y-76296379D01*
X57850671Y-76346328D01*
X57839857Y-76404451D01*
X57827775Y-76469842D01*
X57814596Y-76541595D01*
X57800487Y-76618806D01*
X57785616Y-76700568D01*
X57770154Y-76785977D01*
X57768891Y-76792968D01*
X57753452Y-76878386D01*
X57738638Y-76960267D01*
X57724616Y-77037688D01*
X57711554Y-77109721D01*
X57699621Y-77175443D01*
X57688986Y-77233927D01*
X57679816Y-77284249D01*
X57672279Y-77325482D01*
X57666545Y-77356703D01*
X57662781Y-77376984D01*
X57661155Y-77385402D01*
X57657793Y-77400022D01*
X57214671Y-77400022D01*
X57223738Y-77357028D01*
X57248717Y-77238552D01*
X57274516Y-77116164D01*
X57301004Y-76990477D01*
X57565912Y-75733329D01*
X58190584Y-75729957D01*
X58194259Y-75744639D01*
X58194420Y-75745355D01*
X58196645Y-75756061D01*
X58201274Y-75778742D01*
X58208184Y-75812777D01*
X58217249Y-75857549D01*
X58228345Y-75912439D01*
X58241347Y-75976826D01*
X58256130Y-76050092D01*
X58272569Y-76131619D01*
X58290539Y-76220786D01*
X58309917Y-76316976D01*
X58330576Y-76419568D01*
X58352392Y-76527944D01*
X58375241Y-76641484D01*
X58398997Y-76759570D01*
X58423535Y-76881583D01*
X58448732Y-77006903D01*
X58454910Y-77037638D01*
X58479949Y-77162151D01*
X58504296Y-77283176D01*
X58526178Y-77391899D01*
X58527828Y-77400096D01*
X58550420Y-77512296D01*
G37*
G36*
X55188404Y-78275712D02*
G01*
X55126997Y-78275485D01*
X55037525Y-78275137D01*
X54959604Y-78274793D01*
X54892341Y-78274427D01*
X54834842Y-78274016D01*
X54786213Y-78273537D01*
X54745562Y-78272964D01*
X54711995Y-78272275D01*
X54684619Y-78271444D01*
X54662541Y-78270448D01*
X54644867Y-78269264D01*
X54630704Y-78267866D01*
X54619159Y-78266232D01*
X54609338Y-78264336D01*
X54600348Y-78262156D01*
X54591296Y-78259666D01*
X54556136Y-78248554D01*
X54495566Y-78222102D01*
X54445261Y-78188737D01*
X54404252Y-78147582D01*
X54371566Y-78097759D01*
X54346233Y-78038394D01*
X54329067Y-77988075D01*
X54329067Y-77005093D01*
X54792846Y-77005093D01*
X54792937Y-77098811D01*
X54793123Y-77191606D01*
X54793405Y-77282552D01*
X54793781Y-77370724D01*
X54794251Y-77455196D01*
X54794815Y-77535044D01*
X54795472Y-77609342D01*
X54796222Y-77677164D01*
X54797065Y-77737587D01*
X54798001Y-77789683D01*
X54799028Y-77832529D01*
X54800146Y-77865198D01*
X54801356Y-77886766D01*
X54802656Y-77896308D01*
X54803482Y-77898208D01*
X54816482Y-77915998D01*
X54838525Y-77928588D01*
X54838648Y-77928637D01*
X54847996Y-77931725D01*
X54859810Y-77934171D01*
X54875593Y-77936046D01*
X54896850Y-77937421D01*
X54925085Y-77938368D01*
X54961803Y-77938956D01*
X55008507Y-77939257D01*
X55066701Y-77939341D01*
X55268002Y-77939341D01*
X55268002Y-76067301D01*
X55057287Y-76069259D01*
X55030415Y-76069513D01*
X54977632Y-76070078D01*
X54935780Y-76070700D01*
X54903424Y-76071476D01*
X54879125Y-76072504D01*
X54861449Y-76073881D01*
X54848959Y-76075705D01*
X54840218Y-76078074D01*
X54833790Y-76081086D01*
X54828238Y-76084838D01*
X54828112Y-76084933D01*
X54812873Y-76099113D01*
X54801879Y-76114079D01*
X54801821Y-76114204D01*
X54800534Y-76123700D01*
X54799347Y-76145227D01*
X54798261Y-76177858D01*
X54797276Y-76220669D01*
X54796390Y-76272734D01*
X54795604Y-76333128D01*
X54794917Y-76400926D01*
X54794328Y-76475202D01*
X54793838Y-76555031D01*
X54793445Y-76639489D01*
X54793150Y-76727649D01*
X54792953Y-76818587D01*
X54792851Y-76911376D01*
X54792846Y-77005093D01*
X54329067Y-77005093D01*
X54329067Y-76019234D01*
X54347218Y-75965628D01*
X54350221Y-75957091D01*
X54377762Y-75898939D01*
X54414773Y-75849483D01*
X54461356Y-75808647D01*
X54517616Y-75776356D01*
X54583652Y-75752537D01*
X54659569Y-75737113D01*
X54671445Y-75735999D01*
X54698586Y-75734641D01*
X54738233Y-75733452D01*
X54790104Y-75732436D01*
X54853919Y-75731598D01*
X54929395Y-75730939D01*
X55016253Y-75730465D01*
X55114211Y-75730177D01*
X55222988Y-75730081D01*
X55735846Y-75730081D01*
X55735846Y-78277716D01*
X55188404Y-78275712D01*
G37*
G36*
X52902794Y-78277228D02*
G01*
X51655002Y-78277228D01*
X51656731Y-78100162D01*
X51658460Y-77923097D01*
X52046705Y-77921421D01*
X52434950Y-77919746D01*
X52434950Y-77153229D01*
X51807910Y-77149855D01*
X51807910Y-76792475D01*
X52434950Y-76789101D01*
X52434950Y-76087567D01*
X52062950Y-76085890D01*
X51690949Y-76084212D01*
X51689220Y-75907146D01*
X51687492Y-75730081D01*
X52902794Y-75730081D01*
X52902794Y-78277228D01*
G37*
G36*
X63548017Y-75733355D02*
G01*
X63612661Y-75733474D01*
X63666594Y-75733727D01*
X63711056Y-75734153D01*
X63747290Y-75734791D01*
X63776535Y-75735681D01*
X63800033Y-75736862D01*
X63819025Y-75738374D01*
X63834752Y-75740255D01*
X63848456Y-75742546D01*
X63861377Y-75745286D01*
X63923263Y-75763529D01*
X63982948Y-75791453D01*
X64032903Y-75827695D01*
X64073584Y-75872674D01*
X64105447Y-75926807D01*
X64128948Y-75990513D01*
X64130405Y-75995895D01*
X64132608Y-76005617D01*
X64134477Y-76016912D01*
X64136041Y-76030819D01*
X64137325Y-76048376D01*
X64138356Y-76070621D01*
X64139162Y-76098594D01*
X64139770Y-76133331D01*
X64140207Y-76175872D01*
X64140500Y-76227256D01*
X64140675Y-76288519D01*
X64140761Y-76360702D01*
X64140783Y-76444841D01*
X64140780Y-76478168D01*
X64140732Y-76557899D01*
X64140606Y-76626064D01*
X64140376Y-76683698D01*
X64140016Y-76731840D01*
X64139499Y-76771526D01*
X64138800Y-76803794D01*
X64137892Y-76829680D01*
X64136749Y-76850222D01*
X64135344Y-76866457D01*
X64133653Y-76879422D01*
X64131648Y-76890153D01*
X64129303Y-76899689D01*
X64124536Y-76916215D01*
X64100874Y-76977308D01*
X64070008Y-77028157D01*
X64031066Y-77069745D01*
X63983172Y-77103056D01*
X63925455Y-77129073D01*
X63905097Y-77135921D01*
X63880894Y-77142571D01*
X63854728Y-77147897D01*
X63825024Y-77152035D01*
X63790206Y-77155118D01*
X63748700Y-77157282D01*
X63698930Y-77158661D01*
X63639320Y-77159389D01*
X63568296Y-77159602D01*
X63505996Y-77159689D01*
X63454688Y-77160074D01*
X63413682Y-77160943D01*
X63381625Y-77162481D01*
X63357164Y-77164873D01*
X63338946Y-77168306D01*
X63325618Y-77172962D01*
X63315828Y-77179029D01*
X63308221Y-77186691D01*
X63301445Y-77196134D01*
X63300468Y-77197689D01*
X63297922Y-77202823D01*
X63295805Y-77209713D01*
X63294077Y-77219482D01*
X63292700Y-77233256D01*
X63291633Y-77252157D01*
X63290839Y-77277309D01*
X63290276Y-77309838D01*
X63289908Y-77350866D01*
X63289693Y-77401518D01*
X63289593Y-77462917D01*
X63289568Y-77536188D01*
X63289575Y-77586783D01*
X63289658Y-77655514D01*
X63289919Y-77713026D01*
X63290463Y-77760398D01*
X63291390Y-77798712D01*
X63292805Y-77829049D01*
X63294808Y-77852491D01*
X63297504Y-77870118D01*
X63300995Y-77883010D01*
X63305383Y-77892250D01*
X63310772Y-77898918D01*
X63317263Y-77904095D01*
X63324959Y-77908863D01*
X63328828Y-77910913D01*
X63338112Y-77914197D01*
X63351142Y-77916586D01*
X63369766Y-77918213D01*
X63395835Y-77919210D01*
X63431198Y-77919710D01*
X63477706Y-77919848D01*
X63512644Y-77919913D01*
X63557221Y-77919679D01*
X63592471Y-77917916D01*
X63619486Y-77913351D01*
X63639356Y-77904710D01*
X63653174Y-77890720D01*
X63662031Y-77870110D01*
X63667020Y-77841605D01*
X63669232Y-77803933D01*
X63669758Y-77755821D01*
X63669691Y-77695995D01*
X63669691Y-77529978D01*
X64138696Y-77529978D01*
X64135791Y-77752529D01*
X64135688Y-77760300D01*
X64134778Y-77821350D01*
X64133785Y-77871057D01*
X64132630Y-77910901D01*
X64131233Y-77942366D01*
X64129513Y-77966932D01*
X64127389Y-77986083D01*
X64124782Y-78001301D01*
X64121610Y-78014066D01*
X64113943Y-78038303D01*
X64087716Y-78098532D01*
X64053606Y-78149216D01*
X64010978Y-78190898D01*
X63959197Y-78224122D01*
X63897629Y-78249430D01*
X63825639Y-78267366D01*
X63812500Y-78269384D01*
X63794164Y-78271224D01*
X63770660Y-78272690D01*
X63740871Y-78273804D01*
X63703679Y-78274590D01*
X63657964Y-78275071D01*
X63602611Y-78275271D01*
X63536499Y-78275210D01*
X63458511Y-78274914D01*
X63421254Y-78274730D01*
X63354248Y-78274353D01*
X63298374Y-78273931D01*
X63252382Y-78273410D01*
X63215020Y-78272740D01*
X63185040Y-78271866D01*
X63161189Y-78270737D01*
X63142217Y-78269299D01*
X63126873Y-78267501D01*
X63113908Y-78265289D01*
X63102069Y-78262610D01*
X63090107Y-78259413D01*
X63080285Y-78256610D01*
X63031083Y-78240012D01*
X62990675Y-78220893D01*
X62955487Y-78197294D01*
X62921947Y-78167259D01*
X62899551Y-78143046D01*
X62871217Y-78103580D01*
X62849800Y-78059343D01*
X62833095Y-78006346D01*
X62832156Y-78002558D01*
X62829979Y-77992248D01*
X62828125Y-77980286D01*
X62826567Y-77965643D01*
X62825281Y-77947285D01*
X62824241Y-77924183D01*
X62823421Y-77895304D01*
X62822797Y-77859617D01*
X62822344Y-77816092D01*
X62822035Y-77763696D01*
X62821846Y-77701399D01*
X62821751Y-77628168D01*
X62821725Y-77542974D01*
X62821728Y-77472028D01*
X62821791Y-77392716D01*
X62822001Y-77324517D01*
X62822447Y-77266378D01*
X62823217Y-77217246D01*
X62824400Y-77176068D01*
X62826084Y-77141790D01*
X62828357Y-77113360D01*
X62831309Y-77089724D01*
X62835027Y-77069830D01*
X62839600Y-77052623D01*
X62845116Y-77037050D01*
X62851664Y-77022059D01*
X62859333Y-77006597D01*
X62868211Y-76989609D01*
X62885730Y-76960277D01*
X62921130Y-76917961D01*
X62965192Y-76883227D01*
X63018993Y-76855294D01*
X63083609Y-76833380D01*
X63090267Y-76831619D01*
X63104270Y-76828367D01*
X63119363Y-76825696D01*
X63137034Y-76823517D01*
X63158771Y-76821742D01*
X63186063Y-76820285D01*
X63220397Y-76819056D01*
X63263263Y-76817968D01*
X63316147Y-76816934D01*
X63380537Y-76815866D01*
X63390432Y-76815710D01*
X63454586Y-76814661D01*
X63507180Y-76813615D01*
X63549472Y-76812392D01*
X63582721Y-76810808D01*
X63608186Y-76808684D01*
X63627125Y-76805838D01*
X63640798Y-76802087D01*
X63650463Y-76797251D01*
X63657379Y-76791147D01*
X63662805Y-76783595D01*
X63667999Y-76774413D01*
X63670108Y-76770068D01*
X63672431Y-76763170D01*
X63674337Y-76753755D01*
X63675866Y-76740657D01*
X63677058Y-76722714D01*
X63677955Y-76698760D01*
X63678598Y-76667632D01*
X63679026Y-76628165D01*
X63679282Y-76579195D01*
X63679405Y-76519559D01*
X63679437Y-76448090D01*
X63679439Y-76406026D01*
X63679403Y-76339498D01*
X63679211Y-76284207D01*
X63678739Y-76239019D01*
X63677866Y-76202802D01*
X63676468Y-76174424D01*
X63674423Y-76152753D01*
X63671606Y-76136655D01*
X63667896Y-76124998D01*
X63663170Y-76116650D01*
X63657303Y-76110478D01*
X63650175Y-76105350D01*
X63641660Y-76100133D01*
X63633655Y-76095881D01*
X63624132Y-76092663D01*
X63611265Y-76090386D01*
X63593123Y-76088890D01*
X63567777Y-76088017D01*
X63533297Y-76087610D01*
X63487752Y-76087510D01*
X63484023Y-76087510D01*
X63439451Y-76087620D01*
X63405792Y-76088040D01*
X63381104Y-76088933D01*
X63363449Y-76090460D01*
X63350884Y-76092786D01*
X63341470Y-76096073D01*
X63333266Y-76100484D01*
X63331049Y-76101904D01*
X63315443Y-76115560D01*
X63305651Y-76130123D01*
X63304236Y-76137976D01*
X63302636Y-76158008D01*
X63301280Y-76187641D01*
X63300231Y-76224992D01*
X63299555Y-76268175D01*
X63299315Y-76315308D01*
X63299315Y-76483828D01*
X62823298Y-76483828D01*
X62826666Y-76264527D01*
X62827458Y-76217742D01*
X62828853Y-76157394D01*
X62830692Y-76107367D01*
X62833188Y-76066056D01*
X62836558Y-76031856D01*
X62841016Y-76003163D01*
X62846778Y-75978372D01*
X62854059Y-75955878D01*
X62863074Y-75934078D01*
X62874038Y-75911367D01*
X62896714Y-75875879D01*
X62930776Y-75838035D01*
X62970995Y-75804647D01*
X63013863Y-75779034D01*
X63028012Y-75772327D01*
X63047391Y-75763645D01*
X63065987Y-75756357D01*
X63085054Y-75750340D01*
X63105844Y-75745472D01*
X63129611Y-75741633D01*
X63157605Y-75738700D01*
X63191080Y-75736552D01*
X63231288Y-75735068D01*
X63279482Y-75734125D01*
X63336914Y-75733602D01*
X63404837Y-75733377D01*
X63484503Y-75733329D01*
X63548017Y-75733355D01*
G37*
G36*
X62353228Y-70905445D02*
G01*
X62204443Y-70907195D01*
X62162375Y-70907638D01*
X62122694Y-70907783D01*
X62091004Y-70907337D01*
X62064605Y-70906103D01*
X62040792Y-70903889D01*
X62016864Y-70900498D01*
X61990118Y-70895735D01*
X61957852Y-70889406D01*
X61911331Y-70880488D01*
X61856524Y-70870713D01*
X61798078Y-70860916D01*
X61737488Y-70851299D01*
X61676248Y-70842064D01*
X61615855Y-70833413D01*
X61557802Y-70825548D01*
X61503587Y-70818671D01*
X61454703Y-70812986D01*
X61412646Y-70808693D01*
X61378912Y-70805995D01*
X61354994Y-70805094D01*
X61342390Y-70806192D01*
X61341673Y-70806750D01*
X61347460Y-70808815D01*
X61362943Y-70811256D01*
X61385705Y-70813659D01*
X61410897Y-70816118D01*
X61464964Y-70822521D01*
X61527028Y-70831014D01*
X61594060Y-70841131D01*
X61663032Y-70852406D01*
X61730915Y-70864373D01*
X61794682Y-70876567D01*
X61803919Y-70878421D01*
X61842318Y-70886233D01*
X61875722Y-70893195D01*
X61902191Y-70898892D01*
X61919787Y-70902907D01*
X61926572Y-70904826D01*
X61926572Y-70904908D01*
X61919406Y-70905667D01*
X61899498Y-70906479D01*
X61867080Y-70907339D01*
X61822380Y-70908245D01*
X61765628Y-70909196D01*
X61697053Y-70910187D01*
X61616884Y-70911218D01*
X61525351Y-70912284D01*
X61422684Y-70913384D01*
X61309111Y-70914515D01*
X61184863Y-70915674D01*
X61050168Y-70916859D01*
X60905256Y-70918067D01*
X60750357Y-70919297D01*
X60585700Y-70920544D01*
X60411514Y-70921806D01*
X60325956Y-70922423D01*
X60220713Y-70923209D01*
X60119643Y-70923994D01*
X60023481Y-70924770D01*
X59932964Y-70925531D01*
X59848825Y-70926270D01*
X59771800Y-70926979D01*
X59702624Y-70927652D01*
X59642033Y-70928282D01*
X59590761Y-70928861D01*
X59549544Y-70929384D01*
X59519116Y-70929841D01*
X59500214Y-70930228D01*
X59493572Y-70930536D01*
X59493695Y-70930693D01*
X59500418Y-70936024D01*
X59517043Y-70948658D01*
X59543098Y-70968245D01*
X59578111Y-70994433D01*
X59621609Y-71026873D01*
X59673120Y-71065214D01*
X59732171Y-71109106D01*
X59798290Y-71158197D01*
X59871004Y-71212138D01*
X59949841Y-71270578D01*
X60034329Y-71333166D01*
X60123994Y-71399552D01*
X60218366Y-71469386D01*
X60316970Y-71542317D01*
X60419335Y-71617994D01*
X60524989Y-71696067D01*
X60633458Y-71776186D01*
X60650942Y-71789097D01*
X60759157Y-71869019D01*
X60816700Y-71911525D01*
X60827847Y-71919759D01*
X60864568Y-71946884D01*
X60966698Y-72022338D01*
X61065068Y-72095026D01*
X61159199Y-72164595D01*
X61248613Y-72230692D01*
X61332833Y-72292962D01*
X61411380Y-72351051D01*
X61483775Y-72404607D01*
X61549541Y-72453275D01*
X61608199Y-72496701D01*
X61659271Y-72534532D01*
X61702278Y-72566413D01*
X61736743Y-72591992D01*
X61762188Y-72610913D01*
X61778133Y-72622825D01*
X61784101Y-72627372D01*
X61784572Y-72628406D01*
X61784483Y-72633406D01*
X61782890Y-72642763D01*
X61779632Y-72657013D01*
X61774548Y-72676691D01*
X61767477Y-72702333D01*
X61758259Y-72734475D01*
X61751536Y-72757325D01*
X61746732Y-72773652D01*
X61732736Y-72820400D01*
X61716109Y-72875254D01*
X61696692Y-72938751D01*
X61674321Y-73011425D01*
X61648838Y-73093812D01*
X61620081Y-73186447D01*
X61587889Y-73289867D01*
X61552100Y-73404607D01*
X61512556Y-73531203D01*
X61481434Y-73630769D01*
X61449749Y-73732128D01*
X61419315Y-73829474D01*
X61390351Y-73922107D01*
X61363077Y-74009327D01*
X61337710Y-74090436D01*
X61314469Y-74164734D01*
X61293574Y-74231522D01*
X61275243Y-74290101D01*
X61259694Y-74339772D01*
X61247147Y-74379835D01*
X61237820Y-74409592D01*
X61231931Y-74428343D01*
X61229700Y-74435389D01*
X61229027Y-74437439D01*
X61227375Y-74440709D01*
X61223664Y-74442365D01*
X61215747Y-74442276D01*
X61201477Y-74440312D01*
X61178705Y-74436340D01*
X61145286Y-74430229D01*
X61020372Y-74408773D01*
X60864509Y-74385859D01*
X60711518Y-74367573D01*
X60564343Y-74354259D01*
X60425924Y-74346258D01*
X60405438Y-74345500D01*
X60373173Y-74344372D01*
X60330075Y-74342905D01*
X60276866Y-74341124D01*
X60214267Y-74339050D01*
X60143001Y-74336707D01*
X60063790Y-74334118D01*
X59977355Y-74331305D01*
X59884418Y-74328292D01*
X59785701Y-74325101D01*
X59681927Y-74321756D01*
X59573816Y-74318279D01*
X59462091Y-74314694D01*
X59347473Y-74311023D01*
X59230685Y-74307290D01*
X59112448Y-74303516D01*
X58993485Y-74299726D01*
X58874516Y-74295943D01*
X58756265Y-74292188D01*
X58639453Y-74288486D01*
X58524801Y-74284858D01*
X58413032Y-74281329D01*
X58304867Y-74277921D01*
X58201029Y-74274656D01*
X58102238Y-74271559D01*
X58009218Y-74268651D01*
X57922690Y-74265957D01*
X57843376Y-74263498D01*
X57771998Y-74261298D01*
X57709277Y-74259379D01*
X57655936Y-74257765D01*
X57612696Y-74256479D01*
X57580279Y-74255544D01*
X57559408Y-74254982D01*
X57550803Y-74254817D01*
X57543337Y-74251009D01*
X57525934Y-74238721D01*
X57498755Y-74217960D01*
X57461823Y-74188744D01*
X57415162Y-74151093D01*
X57358795Y-74105025D01*
X57292746Y-74050559D01*
X57217038Y-73987714D01*
X57131694Y-73916509D01*
X57105192Y-73894346D01*
X57043041Y-73842327D01*
X56983788Y-73792677D01*
X56928218Y-73746057D01*
X56877120Y-73703129D01*
X56831278Y-73664557D01*
X56791480Y-73631001D01*
X56758513Y-73603124D01*
X56733162Y-73581589D01*
X56716215Y-73567057D01*
X56708458Y-73560191D01*
X56690151Y-73542437D01*
X56929384Y-73538136D01*
X57019541Y-73536659D01*
X57148478Y-73535039D01*
X57275587Y-73534003D01*
X57399852Y-73533541D01*
X57520259Y-73533639D01*
X57635794Y-73534288D01*
X57745443Y-73535473D01*
X57848190Y-73537185D01*
X57943022Y-73539410D01*
X58028924Y-73542138D01*
X58104881Y-73545356D01*
X58169880Y-73549052D01*
X58222905Y-73553215D01*
X58271576Y-73557133D01*
X58334880Y-73560967D01*
X58406413Y-73564279D01*
X58483693Y-73567006D01*
X58564234Y-73569085D01*
X58645554Y-73570452D01*
X58725168Y-73571046D01*
X58800594Y-73570801D01*
X58869347Y-73569656D01*
X58882123Y-73569325D01*
X58931056Y-73567823D01*
X58974105Y-73566131D01*
X59009848Y-73564331D01*
X59036864Y-73562499D01*
X59053730Y-73560718D01*
X59059025Y-73559065D01*
X59055835Y-73557543D01*
X59041875Y-73555364D01*
X59019724Y-73553866D01*
X58992386Y-73553309D01*
X58948151Y-73552806D01*
X58864105Y-73549733D01*
X58770447Y-73544030D01*
X58669095Y-73535890D01*
X58561967Y-73525505D01*
X58450980Y-73513067D01*
X58338053Y-73498768D01*
X58225104Y-73482800D01*
X58114050Y-73465355D01*
X58090839Y-73461550D01*
X58031286Y-73452044D01*
X57967809Y-73442213D01*
X57904590Y-73432691D01*
X57845811Y-73424113D01*
X57795656Y-73417110D01*
X57734933Y-73409102D01*
X57656258Y-73399166D01*
X57570869Y-73388784D01*
X57480165Y-73378102D01*
X57385549Y-73367268D01*
X57288420Y-73356429D01*
X57190179Y-73345730D01*
X57092228Y-73335319D01*
X56995966Y-73325342D01*
X56902795Y-73315947D01*
X56814116Y-73307280D01*
X56731328Y-73299487D01*
X56655833Y-73292716D01*
X56589031Y-73287113D01*
X56532324Y-73282826D01*
X56487112Y-73280000D01*
X56364420Y-73273564D01*
X56165469Y-73106967D01*
X56133354Y-73080075D01*
X56077038Y-73032917D01*
X56017427Y-72983001D01*
X55957173Y-72932547D01*
X55898927Y-72883775D01*
X55845342Y-72838905D01*
X55799068Y-72800158D01*
X55769264Y-72775095D01*
X55732395Y-72743765D01*
X55700005Y-72715867D01*
X55673200Y-72692374D01*
X55653084Y-72674257D01*
X55640764Y-72662487D01*
X55637346Y-72658036D01*
X55638476Y-72657949D01*
X55649989Y-72658323D01*
X55672580Y-72659584D01*
X55704834Y-72661634D01*
X55745342Y-72664381D01*
X55792691Y-72667728D01*
X55845469Y-72671582D01*
X55902264Y-72675846D01*
X55927835Y-72677787D01*
X56010910Y-72684046D01*
X56100557Y-72690734D01*
X56195888Y-72697788D01*
X56296016Y-72705147D01*
X56400051Y-72712746D01*
X56507107Y-72720523D01*
X56616296Y-72728415D01*
X56726729Y-72736361D01*
X56837519Y-72744296D01*
X56947778Y-72752158D01*
X57056618Y-72759884D01*
X57163152Y-72767411D01*
X57266491Y-72774678D01*
X57365748Y-72781620D01*
X57460035Y-72788175D01*
X57548464Y-72794281D01*
X57630147Y-72799874D01*
X57704196Y-72804892D01*
X57769723Y-72809272D01*
X57825842Y-72812951D01*
X57871663Y-72815866D01*
X57906299Y-72817955D01*
X57928862Y-72819155D01*
X57988552Y-72821023D01*
X58062044Y-72821760D01*
X58144189Y-72821285D01*
X58232792Y-72819651D01*
X58325658Y-72816912D01*
X58420592Y-72813120D01*
X58515399Y-72808330D01*
X58607885Y-72802594D01*
X58637739Y-72800462D01*
X58678766Y-72797336D01*
X58724898Y-72793661D01*
X58774494Y-72789583D01*
X58825911Y-72785245D01*
X58877509Y-72780793D01*
X58927645Y-72776373D01*
X58974678Y-72772128D01*
X59016966Y-72768204D01*
X59052868Y-72764747D01*
X59080741Y-72761900D01*
X59098943Y-72759809D01*
X59105835Y-72758619D01*
X59105698Y-72758581D01*
X59097586Y-72758351D01*
X59077757Y-72758129D01*
X59047311Y-72757920D01*
X59007345Y-72757726D01*
X58958959Y-72757552D01*
X58903250Y-72757402D01*
X58863839Y-72757325D01*
X59114715Y-72757325D01*
X59117964Y-72760574D01*
X59121213Y-72757325D01*
X59117964Y-72754076D01*
X59114715Y-72757325D01*
X58863839Y-72757325D01*
X58841319Y-72757281D01*
X58774262Y-72757191D01*
X58703180Y-72757138D01*
X58694043Y-72757133D01*
X58592690Y-72756939D01*
X58502774Y-72756461D01*
X58422856Y-72755650D01*
X58351501Y-72754452D01*
X58287272Y-72752817D01*
X58228733Y-72750694D01*
X58174446Y-72748030D01*
X58122976Y-72744775D01*
X58072885Y-72740877D01*
X58022738Y-72736285D01*
X57971098Y-72730948D01*
X57970646Y-72730899D01*
X57950735Y-72728536D01*
X57918819Y-72724505D01*
X57875736Y-72718920D01*
X57822327Y-72711895D01*
X57759429Y-72703545D01*
X57687883Y-72693985D01*
X57608526Y-72683329D01*
X57522197Y-72671692D01*
X57429737Y-72659189D01*
X57331983Y-72645933D01*
X57229774Y-72632041D01*
X57123950Y-72617626D01*
X57015350Y-72602802D01*
X56904812Y-72587686D01*
X56793175Y-72572391D01*
X56681278Y-72557031D01*
X56569961Y-72541722D01*
X56460062Y-72526578D01*
X56352420Y-72511714D01*
X56247874Y-72497244D01*
X56147263Y-72483283D01*
X56051426Y-72469945D01*
X55961202Y-72457346D01*
X55877430Y-72445600D01*
X55800949Y-72434821D01*
X55732597Y-72425123D01*
X55691068Y-72419306D01*
X55626375Y-72410626D01*
X55564767Y-72402808D01*
X55508197Y-72396082D01*
X55458613Y-72390675D01*
X55417968Y-72386818D01*
X55388212Y-72384738D01*
X55297243Y-72380451D01*
X54941409Y-72082171D01*
X54893093Y-72041634D01*
X54837039Y-71994514D01*
X54784686Y-71950403D01*
X54736815Y-71909969D01*
X54694212Y-71873875D01*
X54657660Y-71842789D01*
X54627943Y-71817374D01*
X54605846Y-71798298D01*
X54592152Y-71786225D01*
X54587644Y-71781821D01*
X54589345Y-71781795D01*
X54601927Y-71782644D01*
X54625855Y-71784622D01*
X54660062Y-71787629D01*
X54703481Y-71791569D01*
X54755048Y-71796343D01*
X54813694Y-71801852D01*
X54878354Y-71807998D01*
X54947962Y-71814683D01*
X55021452Y-71821808D01*
X55095339Y-71828990D01*
X55229298Y-71841934D01*
X55365503Y-71855005D01*
X55502268Y-71868044D01*
X55637906Y-71880891D01*
X55770731Y-71893390D01*
X55899057Y-71905381D01*
X56021198Y-71916706D01*
X56135467Y-71927206D01*
X56240179Y-71936724D01*
X56333646Y-71945100D01*
X56375577Y-71948881D01*
X56433612Y-71954267D01*
X56491969Y-71959835D01*
X56547330Y-71965264D01*
X56596378Y-71970231D01*
X56635795Y-71974415D01*
X56659390Y-71976957D01*
X56835501Y-71992842D01*
X57022261Y-72004578D01*
X57218213Y-72012179D01*
X57421899Y-72015664D01*
X57631863Y-72015047D01*
X57846647Y-72010346D01*
X58064795Y-72001576D01*
X58284848Y-71988754D01*
X58505351Y-71971896D01*
X58724846Y-71951019D01*
X58736071Y-71949840D01*
X58797635Y-71943227D01*
X58849293Y-71937427D01*
X58890744Y-71932500D01*
X58921687Y-71928507D01*
X58941821Y-71925511D01*
X58950845Y-71923572D01*
X58948457Y-71922752D01*
X58934356Y-71923112D01*
X58908241Y-71924714D01*
X58869812Y-71927618D01*
X58818766Y-71931886D01*
X58632820Y-71946261D01*
X58426685Y-71958418D01*
X58218643Y-71966919D01*
X58010297Y-71971784D01*
X57803250Y-71973032D01*
X57599106Y-71970683D01*
X57399467Y-71964757D01*
X57205937Y-71955273D01*
X57020119Y-71942250D01*
X56843616Y-71925710D01*
X56783901Y-71918483D01*
X58971544Y-71918483D01*
X58972937Y-71920170D01*
X58984759Y-71920847D01*
X58989167Y-71920784D01*
X58998152Y-71919759D01*
X58996130Y-71917876D01*
X58989867Y-71916865D01*
X58973387Y-71917876D01*
X58971544Y-71918483D01*
X56783901Y-71918483D01*
X56742562Y-71913480D01*
X59031393Y-71913480D01*
X59036741Y-71915857D01*
X59040181Y-71915388D01*
X59041073Y-71911525D01*
X59040121Y-71910747D01*
X59032409Y-71911525D01*
X59031393Y-71913480D01*
X56742562Y-71913480D01*
X56678030Y-71905670D01*
X56669055Y-71904434D01*
X56624594Y-71898045D01*
X56572067Y-71890106D01*
X56511135Y-71880558D01*
X56441464Y-71869343D01*
X56362715Y-71856406D01*
X56274553Y-71841687D01*
X56176641Y-71825130D01*
X56068642Y-71806677D01*
X55950219Y-71786270D01*
X55821035Y-71763853D01*
X55680755Y-71739368D01*
X55529041Y-71712756D01*
X55365557Y-71683962D01*
X55189966Y-71652927D01*
X55001931Y-71619594D01*
X54940367Y-71608680D01*
X54843692Y-71591614D01*
X54758443Y-71576679D01*
X54683762Y-71563738D01*
X54618792Y-71552652D01*
X54562675Y-71543283D01*
X54514552Y-71535494D01*
X54473566Y-71529147D01*
X54438858Y-71524105D01*
X54409570Y-71520229D01*
X54384845Y-71517382D01*
X54363825Y-71515425D01*
X54345650Y-71514222D01*
X54257590Y-71509713D01*
X53827171Y-71149099D01*
X53774940Y-71105291D01*
X53712913Y-71053142D01*
X53654500Y-71003893D01*
X53600408Y-70958148D01*
X53551344Y-70916509D01*
X53508014Y-70879579D01*
X53471126Y-70847961D01*
X53441388Y-70822258D01*
X53419506Y-70803073D01*
X53406187Y-70791009D01*
X53402138Y-70786668D01*
X53402575Y-70786626D01*
X53412173Y-70787555D01*
X53432917Y-70790293D01*
X53463378Y-70794630D01*
X53502131Y-70800355D01*
X53547748Y-70807259D01*
X53598802Y-70815130D01*
X53653867Y-70823760D01*
X53885601Y-70859545D01*
X54208020Y-70906543D01*
X54523246Y-70949188D01*
X54830472Y-70987385D01*
X55128894Y-71021041D01*
X55417705Y-71050060D01*
X55696099Y-71074349D01*
X55963270Y-71093813D01*
X55997065Y-71096004D01*
X56076617Y-71101033D01*
X56147387Y-71105260D01*
X56211795Y-71108774D01*
X56272262Y-71111667D01*
X56331205Y-71114030D01*
X56391047Y-71115955D01*
X56454205Y-71117531D01*
X56523099Y-71118851D01*
X56600150Y-71120005D01*
X56687777Y-71121084D01*
X56691570Y-71121127D01*
X56803965Y-71122162D01*
X56905203Y-71122500D01*
X56997055Y-71122019D01*
X57081290Y-71120597D01*
X57159679Y-71118113D01*
X57233993Y-71114446D01*
X57306000Y-71109472D01*
X57377470Y-71103072D01*
X57450176Y-71095122D01*
X57525885Y-71085502D01*
X57606368Y-71074089D01*
X57693396Y-71060763D01*
X57788738Y-71045401D01*
X57821885Y-71039973D01*
X57960390Y-71017520D01*
X58096077Y-70995884D01*
X58228041Y-70975196D01*
X58355373Y-70955589D01*
X58477168Y-70937197D01*
X58592517Y-70920152D01*
X58700515Y-70904587D01*
X58800253Y-70890635D01*
X58890824Y-70878429D01*
X58971322Y-70868101D01*
X59040840Y-70859785D01*
X59098470Y-70853613D01*
X59186154Y-70845093D01*
X59302279Y-70834226D01*
X59410940Y-70824637D01*
X59514410Y-70816178D01*
X59614964Y-70808701D01*
X59714873Y-70802055D01*
X59730189Y-70801156D01*
X61280073Y-70801156D01*
X61283931Y-70802452D01*
X61297984Y-70802959D01*
X61307520Y-70802769D01*
X61315684Y-70801750D01*
X61312605Y-70800143D01*
X61302299Y-70799068D01*
X61283364Y-70800143D01*
X61280073Y-70801156D01*
X59730189Y-70801156D01*
X59816411Y-70796095D01*
X59850146Y-70794359D01*
X61206796Y-70794359D01*
X61208189Y-70796046D01*
X61220011Y-70796723D01*
X61224419Y-70796661D01*
X61233404Y-70795635D01*
X61231382Y-70793752D01*
X61225119Y-70792741D01*
X61208639Y-70793752D01*
X61206796Y-70794359D01*
X59850146Y-70794359D01*
X59921853Y-70790669D01*
X59970261Y-70788484D01*
X61135539Y-70788484D01*
X61138788Y-70791733D01*
X61142037Y-70788484D01*
X61138788Y-70785235D01*
X61135539Y-70788484D01*
X59970261Y-70788484D01*
X60033469Y-70785631D01*
X60153535Y-70780831D01*
X60284324Y-70776121D01*
X60287552Y-70776004D01*
X60294933Y-70775580D01*
X60290493Y-70775352D01*
X60275201Y-70775316D01*
X60250020Y-70775471D01*
X60215918Y-70775816D01*
X60173861Y-70776347D01*
X60081321Y-70778302D01*
X59976660Y-70781804D01*
X59864769Y-70786687D01*
X59748509Y-70792814D01*
X59630742Y-70800045D01*
X59514331Y-70808242D01*
X59467715Y-70811843D01*
X59381470Y-70818881D01*
X59284675Y-70827176D01*
X59178796Y-70836583D01*
X59065301Y-70846956D01*
X58945657Y-70858153D01*
X58821333Y-70870027D01*
X58693796Y-70882436D01*
X58564513Y-70895233D01*
X58434952Y-70908275D01*
X58306580Y-70921417D01*
X58180865Y-70934515D01*
X58059275Y-70947424D01*
X57943277Y-70959999D01*
X57834338Y-70972096D01*
X57733927Y-70983571D01*
X57732081Y-70983785D01*
X57677277Y-70990015D01*
X57621561Y-70996117D01*
X57567698Y-71001805D01*
X57518448Y-71006791D01*
X57476576Y-71010791D01*
X57444843Y-71013517D01*
X57439491Y-71013907D01*
X57402750Y-71015739D01*
X57355130Y-71017049D01*
X57298411Y-71017859D01*
X57234376Y-71018192D01*
X57164807Y-71018068D01*
X57091484Y-71017511D01*
X57016190Y-71016543D01*
X56940706Y-71015185D01*
X56866814Y-71013459D01*
X56796296Y-71011389D01*
X56730933Y-71008995D01*
X56672507Y-71006300D01*
X56622799Y-71003326D01*
X56422869Y-70988089D01*
X56176358Y-70965706D01*
X55923020Y-70938836D01*
X55662347Y-70907402D01*
X55393836Y-70871325D01*
X55116980Y-70830527D01*
X54831275Y-70784931D01*
X54732972Y-70768115D01*
X60472428Y-70768115D01*
X60472799Y-70769069D01*
X60484164Y-70769725D01*
X60505250Y-70769969D01*
X60518402Y-70769887D01*
X60534095Y-70769394D01*
X60539341Y-70768554D01*
X60532865Y-70767482D01*
X60530133Y-70767258D01*
X60503511Y-70766459D01*
X60477634Y-70767482D01*
X60472428Y-70768115D01*
X54732972Y-70768115D01*
X54536215Y-70734457D01*
X54231296Y-70679028D01*
X53916013Y-70618566D01*
X53589859Y-70552992D01*
X53252330Y-70482229D01*
X52955333Y-70418759D01*
X52599299Y-70120793D01*
X52552652Y-70081738D01*
X52495870Y-70034152D01*
X52442507Y-69989383D01*
X52393383Y-69948120D01*
X52349317Y-69911053D01*
X52311128Y-69878872D01*
X52279634Y-69852265D01*
X52255655Y-69831923D01*
X52240010Y-69818536D01*
X52233518Y-69812793D01*
X52228580Y-69807034D01*
X52230522Y-69804592D01*
X52243265Y-69806358D01*
X52246201Y-69806852D01*
X52264390Y-69809183D01*
X52289836Y-69811792D01*
X52317990Y-69814201D01*
X52327724Y-69814980D01*
X52351701Y-69817185D01*
X52369217Y-69819218D01*
X52377019Y-69820720D01*
X52381402Y-69821637D01*
X52398113Y-69823936D01*
X52426592Y-69827378D01*
X52466161Y-69831896D01*
X52516146Y-69837420D01*
X52575873Y-69843884D01*
X52644665Y-69851219D01*
X52721848Y-69859357D01*
X52806747Y-69868230D01*
X52898687Y-69877770D01*
X52996992Y-69887910D01*
X53100987Y-69898580D01*
X53209998Y-69909714D01*
X53323349Y-69921243D01*
X53440365Y-69933099D01*
X53560371Y-69945214D01*
X53682692Y-69957520D01*
X53806652Y-69969949D01*
X53931578Y-69982434D01*
X54056793Y-69994905D01*
X54181623Y-70007296D01*
X54305392Y-70019538D01*
X54427425Y-70031563D01*
X54547048Y-70043303D01*
X54663585Y-70054690D01*
X54776360Y-70065656D01*
X54884700Y-70076133D01*
X54987929Y-70086053D01*
X55085371Y-70095348D01*
X55176352Y-70103951D01*
X55260197Y-70111792D01*
X55336229Y-70118805D01*
X55600819Y-70140270D01*
X56004281Y-70162477D01*
X56406834Y-70171920D01*
X56808179Y-70168607D01*
X57208016Y-70152548D01*
X57606046Y-70123751D01*
X58001970Y-70082226D01*
X58395486Y-70027981D01*
X58450642Y-70019231D01*
X58510821Y-70009258D01*
X58573679Y-69998473D01*
X58638025Y-69987107D01*
X58702667Y-69975394D01*
X58766414Y-69963565D01*
X58828075Y-69951851D01*
X58886458Y-69940485D01*
X58940373Y-69929699D01*
X58988627Y-69919725D01*
X59030031Y-69910794D01*
X59063392Y-69903139D01*
X59087519Y-69896992D01*
X59101221Y-69892584D01*
X59103307Y-69890148D01*
X59099401Y-69890180D01*
X59083842Y-69891612D01*
X59058015Y-69894528D01*
X59023477Y-69898737D01*
X58981786Y-69904047D01*
X58934500Y-69910268D01*
X58883175Y-69917208D01*
X58865416Y-69919640D01*
X58800540Y-69928524D01*
X58727720Y-69938495D01*
X58650728Y-69949037D01*
X58573336Y-69959632D01*
X58499317Y-69969764D01*
X58432443Y-69978917D01*
X58389209Y-69984725D01*
X58257637Y-70000997D01*
X58126512Y-70014993D01*
X57994163Y-70026809D01*
X57858921Y-70036543D01*
X57719117Y-70044292D01*
X57573082Y-70050153D01*
X57419147Y-70054222D01*
X57255641Y-70056597D01*
X57080896Y-70057374D01*
X56943630Y-70056796D01*
X56717560Y-70053031D01*
X56499370Y-70045619D01*
X56286114Y-70034393D01*
X56074851Y-70019186D01*
X55862635Y-69999832D01*
X55646524Y-69976164D01*
X55644688Y-69975946D01*
X55596937Y-69970055D01*
X55537020Y-69962282D01*
X55465587Y-69952723D01*
X55383288Y-69941473D01*
X55290771Y-69928627D01*
X55188687Y-69914281D01*
X55077683Y-69898531D01*
X54958411Y-69881471D01*
X54831518Y-69863198D01*
X54697655Y-69843806D01*
X54557471Y-69823391D01*
X54411615Y-69802049D01*
X54260737Y-69779874D01*
X54105485Y-69756963D01*
X53946510Y-69733411D01*
X53784461Y-69709312D01*
X53619986Y-69684764D01*
X53453735Y-69659860D01*
X53286359Y-69634697D01*
X53118505Y-69609370D01*
X52950824Y-69583974D01*
X52783964Y-69558605D01*
X52618576Y-69533358D01*
X52455308Y-69508328D01*
X52294810Y-69483612D01*
X51735560Y-69397283D01*
X51075814Y-68845301D01*
X51045976Y-68820334D01*
X50966731Y-68753994D01*
X50890514Y-68690145D01*
X50817904Y-68629274D01*
X50749479Y-68571869D01*
X50685819Y-68518415D01*
X50627502Y-68469399D01*
X50575107Y-68425309D01*
X50529212Y-68386632D01*
X50490395Y-68353853D01*
X50459237Y-68327460D01*
X50436315Y-68307940D01*
X50422207Y-68295779D01*
X50417493Y-68291465D01*
X50418399Y-68291472D01*
X50429071Y-68293074D01*
X50450659Y-68296817D01*
X50481805Y-68302450D01*
X50521152Y-68309724D01*
X50567341Y-68318388D01*
X50619013Y-68328191D01*
X50674811Y-68338884D01*
X50877260Y-68377494D01*
X51310758Y-68457738D01*
X51749026Y-68535647D01*
X52190200Y-68610931D01*
X52632413Y-68683303D01*
X53073799Y-68752472D01*
X53512492Y-68818150D01*
X53946627Y-68880047D01*
X54374338Y-68937876D01*
X54793759Y-68991346D01*
X55203024Y-69040170D01*
X55288979Y-69049997D01*
X55373327Y-69059456D01*
X55448017Y-69067549D01*
X55514751Y-69074397D01*
X55575228Y-69080122D01*
X55631152Y-69084848D01*
X55684222Y-69088696D01*
X55736140Y-69091789D01*
X55788608Y-69094249D01*
X55843326Y-69096198D01*
X55901995Y-69097759D01*
X55966318Y-69099054D01*
X56037995Y-69100206D01*
X56062139Y-69100535D01*
X56163315Y-69101287D01*
X56263449Y-69100948D01*
X56363308Y-69099443D01*
X56463660Y-69096698D01*
X56565271Y-69092638D01*
X56668908Y-69087188D01*
X56775339Y-69080275D01*
X56885331Y-69071823D01*
X56999650Y-69061757D01*
X57119065Y-69050004D01*
X57244341Y-69036488D01*
X57376247Y-69021135D01*
X57515548Y-69003871D01*
X57663013Y-68984620D01*
X57819408Y-68963308D01*
X57985500Y-68939861D01*
X58162057Y-68914204D01*
X58349845Y-68886262D01*
X58549632Y-68855961D01*
X58566882Y-68853325D01*
X58744175Y-68826413D01*
X58909636Y-68801668D01*
X59064145Y-68778987D01*
X59208583Y-68758266D01*
X59343829Y-68739405D01*
X59470764Y-68722300D01*
X59590268Y-68706849D01*
X59703222Y-68692949D01*
X59810504Y-68680499D01*
X59912995Y-68669395D01*
X60011576Y-68659535D01*
X60107127Y-68650817D01*
X60200527Y-68643138D01*
X60292657Y-68636396D01*
X60384397Y-68630489D01*
X60476628Y-68625313D01*
X60570228Y-68620767D01*
X60618998Y-68619018D01*
X60678857Y-68617677D01*
X60745914Y-68616812D01*
X60818151Y-68616406D01*
X60893548Y-68616440D01*
X60970087Y-68616897D01*
X61045748Y-68617759D01*
X61118512Y-68619009D01*
X61186361Y-68620628D01*
X61247274Y-68622600D01*
X61299234Y-68624905D01*
X61340220Y-68627528D01*
X61404575Y-68632925D01*
X61605297Y-68653555D01*
X61795715Y-68679245D01*
X61977217Y-68710279D01*
X62151191Y-68746940D01*
X62319024Y-68789512D01*
X62482105Y-68838279D01*
X62641820Y-68893524D01*
X62663270Y-68901542D01*
X62710004Y-68919575D01*
X62756854Y-68938334D01*
X62802290Y-68957145D01*
X62844781Y-68975334D01*
X62882795Y-68992227D01*
X62914803Y-69007151D01*
X62939273Y-69019431D01*
X62954675Y-69028394D01*
X62959479Y-69033365D01*
X62951630Y-69055556D01*
X62940104Y-69089215D01*
X62925278Y-69133194D01*
X62907490Y-69186463D01*
X62887076Y-69247990D01*
X62864373Y-69316745D01*
X62839718Y-69391698D01*
X62813447Y-69471817D01*
X62785896Y-69556071D01*
X62757403Y-69643431D01*
X62728303Y-69732864D01*
X62698935Y-69823341D01*
X62669633Y-69913830D01*
X62640735Y-70003301D01*
X62612578Y-70090723D01*
X62585498Y-70175065D01*
X62559831Y-70255297D01*
X62535914Y-70330388D01*
X62396716Y-70768554D01*
X62390385Y-70788484D01*
X62388113Y-70795635D01*
X62386170Y-70801750D01*
X62353228Y-70905445D01*
G37*
G36*
X66418271Y-78277228D02*
G01*
X66418271Y-77283061D01*
X66264772Y-77283061D01*
X66070871Y-77780145D01*
X65876969Y-78277228D01*
X65627794Y-78277228D01*
X65616703Y-78277226D01*
X65561967Y-78277149D01*
X65511797Y-78276970D01*
X65467599Y-78276703D01*
X65430778Y-78276360D01*
X65402737Y-78275953D01*
X65384883Y-78275495D01*
X65378619Y-78274998D01*
X65379339Y-78273105D01*
X65384368Y-78260852D01*
X65393879Y-78237993D01*
X65407499Y-78205417D01*
X65424855Y-78164013D01*
X65445574Y-78114668D01*
X65469283Y-78058272D01*
X65495608Y-77995712D01*
X65524176Y-77927879D01*
X65554614Y-77855659D01*
X65586549Y-77779942D01*
X65603561Y-77739597D01*
X65634783Y-77665421D01*
X65664307Y-77595109D01*
X65691759Y-77529563D01*
X65716766Y-77469681D01*
X65738952Y-77416366D01*
X65757944Y-77370516D01*
X65773367Y-77333032D01*
X65784847Y-77304814D01*
X65792009Y-77286764D01*
X65794480Y-77279781D01*
X65794092Y-77278741D01*
X65785647Y-77272886D01*
X65768419Y-77265313D01*
X65745407Y-77257390D01*
X65724405Y-77250320D01*
X65665431Y-77222335D01*
X65615624Y-77185141D01*
X65574979Y-77138731D01*
X65543488Y-77083098D01*
X65521146Y-77018236D01*
X65519533Y-77011713D01*
X65517323Y-77001471D01*
X65515431Y-76990150D01*
X65513833Y-76976758D01*
X65512506Y-76960300D01*
X65511424Y-76939785D01*
X65510563Y-76914218D01*
X65509900Y-76882607D01*
X65509408Y-76843959D01*
X65509066Y-76797281D01*
X65508846Y-76741580D01*
X65508727Y-76675862D01*
X65508682Y-76599135D01*
X65508688Y-76513069D01*
X65969921Y-76513069D01*
X65969923Y-76557571D01*
X65969975Y-76632624D01*
X65970167Y-76696223D01*
X65970593Y-76749377D01*
X65971344Y-76793095D01*
X65972515Y-76828387D01*
X65974196Y-76856262D01*
X65976482Y-76877729D01*
X65979465Y-76893799D01*
X65983237Y-76905479D01*
X65987891Y-76913779D01*
X65993520Y-76919710D01*
X66000217Y-76924280D01*
X66008073Y-76928498D01*
X66013613Y-76930844D01*
X66023421Y-76933335D01*
X66037511Y-76935253D01*
X66057335Y-76936669D01*
X66084345Y-76937650D01*
X66119993Y-76938266D01*
X66165732Y-76938585D01*
X66223013Y-76938676D01*
X66418271Y-76938676D01*
X66418271Y-76087461D01*
X66226376Y-76087461D01*
X66216008Y-76087464D01*
X66159863Y-76087627D01*
X66115064Y-76088084D01*
X66080195Y-76088898D01*
X66053842Y-76090131D01*
X66034588Y-76091846D01*
X66021017Y-76094106D01*
X66011714Y-76096974D01*
X66005456Y-76099612D01*
X65997791Y-76103394D01*
X65991316Y-76108184D01*
X65985930Y-76114980D01*
X65981534Y-76124781D01*
X65978026Y-76138586D01*
X65975307Y-76157395D01*
X65973276Y-76182206D01*
X65971833Y-76214019D01*
X65970877Y-76253832D01*
X65970308Y-76302644D01*
X65970026Y-76361455D01*
X65969931Y-76431263D01*
X65969921Y-76513069D01*
X65508688Y-76513069D01*
X65508688Y-76510405D01*
X65508693Y-76489905D01*
X65508739Y-76399319D01*
X65508868Y-76320534D01*
X65509147Y-76252560D01*
X65509641Y-76194408D01*
X65510418Y-76145089D01*
X65511544Y-76103615D01*
X65513084Y-76068997D01*
X65515106Y-76040244D01*
X65517677Y-76016370D01*
X65520861Y-75996384D01*
X65524726Y-75979297D01*
X65529339Y-75964122D01*
X65534765Y-75949868D01*
X65541071Y-75935547D01*
X65548323Y-75920170D01*
X65567922Y-75885402D01*
X65605022Y-75840359D01*
X65652162Y-75802681D01*
X65709760Y-75772056D01*
X65778235Y-75748171D01*
X65782170Y-75747081D01*
X65791564Y-75744600D01*
X65801089Y-75742441D01*
X65811664Y-75740577D01*
X65824207Y-75738981D01*
X65839638Y-75737628D01*
X65858875Y-75736490D01*
X65882837Y-75735542D01*
X65912444Y-75734756D01*
X65948614Y-75734107D01*
X65992265Y-75733568D01*
X66044318Y-75733113D01*
X66105691Y-75732715D01*
X66177302Y-75732348D01*
X66260071Y-75731986D01*
X66354917Y-75731602D01*
X66879617Y-75729507D01*
X66879617Y-78277228D01*
X66418271Y-78277228D01*
G37*
G36*
X66641238Y-70794449D02*
G01*
X66657133Y-70795347D01*
X66743689Y-70800237D01*
X66767259Y-70801750D01*
X66843841Y-70806666D01*
X66943969Y-70813883D01*
X67046345Y-70822038D01*
X67153243Y-70831279D01*
X67266935Y-70841754D01*
X67389696Y-70853613D01*
X67402234Y-70854875D01*
X67462765Y-70861568D01*
X67534968Y-70870373D01*
X67617936Y-70881158D01*
X67710763Y-70893790D01*
X67812541Y-70908136D01*
X67922363Y-70924064D01*
X68039322Y-70941440D01*
X68162511Y-70960132D01*
X68291024Y-70980007D01*
X68423952Y-71000932D01*
X68560390Y-71022774D01*
X68699429Y-71045401D01*
X68702620Y-71045924D01*
X68797669Y-71061219D01*
X68884460Y-71074483D01*
X68964764Y-71085836D01*
X69040350Y-71095401D01*
X69112988Y-71103299D01*
X69184449Y-71109653D01*
X69256502Y-71114582D01*
X69330918Y-71118210D01*
X69409466Y-71120658D01*
X69493918Y-71122048D01*
X69586042Y-71122501D01*
X69687609Y-71122139D01*
X69800389Y-71121084D01*
X69834180Y-71120688D01*
X69917942Y-71119585D01*
X69992009Y-71118372D01*
X70058792Y-71116957D01*
X70120703Y-71115249D01*
X70180152Y-71113157D01*
X70239553Y-71110591D01*
X70301317Y-71107458D01*
X70367854Y-71103670D01*
X70441577Y-71099133D01*
X70524897Y-71093758D01*
X70612503Y-71087798D01*
X70899807Y-71065318D01*
X71198170Y-71037637D01*
X71506976Y-71004829D01*
X71825608Y-70966965D01*
X72153450Y-70924118D01*
X72489886Y-70876359D01*
X72834299Y-70823760D01*
X72844576Y-70822139D01*
X72899011Y-70813632D01*
X72949172Y-70805922D01*
X72993632Y-70799217D01*
X73030966Y-70793730D01*
X73059747Y-70789669D01*
X73078548Y-70787245D01*
X73085944Y-70786668D01*
X73083414Y-70789548D01*
X73071821Y-70800167D01*
X73051530Y-70818024D01*
X73023247Y-70842516D01*
X72987680Y-70873041D01*
X72945535Y-70908995D01*
X72897521Y-70949775D01*
X72844344Y-70994778D01*
X72786712Y-71043401D01*
X72725332Y-71095041D01*
X72660911Y-71149095D01*
X72230576Y-71509705D01*
X72142516Y-71514218D01*
X72132363Y-71514827D01*
X72112648Y-71516448D01*
X72089587Y-71518903D01*
X72062323Y-71522329D01*
X72029996Y-71526864D01*
X71991751Y-71532646D01*
X71946728Y-71539812D01*
X71894070Y-71548500D01*
X71832920Y-71558848D01*
X71762419Y-71570994D01*
X71681710Y-71585075D01*
X71589935Y-71601229D01*
X71486236Y-71619594D01*
X71442585Y-71627340D01*
X71257395Y-71660148D01*
X71084572Y-71690671D01*
X70923780Y-71718966D01*
X70774683Y-71745092D01*
X70636943Y-71769104D01*
X70510224Y-71791061D01*
X70394189Y-71811021D01*
X70288501Y-71829040D01*
X70192824Y-71845176D01*
X70106822Y-71859487D01*
X70030156Y-71872029D01*
X69962492Y-71882862D01*
X69903491Y-71892041D01*
X69852818Y-71899625D01*
X69810136Y-71905670D01*
X69762243Y-71911525D01*
X69694890Y-71919759D01*
X69658760Y-71924176D01*
X69483103Y-71941009D01*
X69297999Y-71954324D01*
X69105049Y-71964103D01*
X68905857Y-71970326D01*
X68702026Y-71972973D01*
X68495160Y-71972025D01*
X68286861Y-71967462D01*
X68078732Y-71959264D01*
X67872378Y-71947412D01*
X67669400Y-71931886D01*
X67659985Y-71931076D01*
X67611067Y-71927040D01*
X67574715Y-71924357D01*
X67550628Y-71922967D01*
X67538504Y-71922809D01*
X67538043Y-71923820D01*
X67548943Y-71925940D01*
X67570903Y-71929106D01*
X67603622Y-71933259D01*
X67646799Y-71938336D01*
X67700132Y-71944277D01*
X67763321Y-71951019D01*
X67793769Y-71954166D01*
X68013492Y-71974485D01*
X68234019Y-71990782D01*
X68453895Y-72003040D01*
X68671661Y-72011245D01*
X68885862Y-72015378D01*
X69095039Y-72015425D01*
X69297735Y-72011368D01*
X69492495Y-72003192D01*
X69677859Y-71990879D01*
X69852372Y-71974415D01*
X69881390Y-71971312D01*
X69928443Y-71966502D01*
X69982599Y-71961155D01*
X70040543Y-71955590D01*
X70098956Y-71950131D01*
X70154521Y-71945100D01*
X70205725Y-71940528D01*
X70305738Y-71931489D01*
X70416045Y-71921398D01*
X70534958Y-71910413D01*
X70660793Y-71898693D01*
X70791863Y-71886397D01*
X70926481Y-71873682D01*
X71062962Y-71860707D01*
X71199618Y-71847631D01*
X71334765Y-71834612D01*
X71466714Y-71821808D01*
X71503061Y-71818276D01*
X71574784Y-71811352D01*
X71642104Y-71804916D01*
X71703954Y-71799066D01*
X71759268Y-71793901D01*
X71806980Y-71789518D01*
X71846023Y-71786016D01*
X71875332Y-71783494D01*
X71893841Y-71782049D01*
X71900482Y-71781781D01*
X71897465Y-71784818D01*
X71885341Y-71795572D01*
X71864675Y-71813450D01*
X71836253Y-71837785D01*
X71800857Y-71867912D01*
X71759272Y-71903165D01*
X71712281Y-71942879D01*
X71660670Y-71986389D01*
X71605220Y-72033028D01*
X71546718Y-72082131D01*
X71190924Y-72380451D01*
X71099954Y-72384738D01*
X71082549Y-72385831D01*
X71045695Y-72389059D01*
X70999183Y-72393921D01*
X70944964Y-72400187D01*
X70884988Y-72407628D01*
X70821206Y-72416017D01*
X70755569Y-72425123D01*
X70753410Y-72425431D01*
X70684771Y-72435166D01*
X70608030Y-72445980D01*
X70524027Y-72457757D01*
X70433600Y-72470383D01*
X70337589Y-72483743D01*
X70236832Y-72497723D01*
X70132168Y-72512208D01*
X70024436Y-72527084D01*
X69914476Y-72542235D01*
X69803125Y-72557548D01*
X69691224Y-72572907D01*
X69579611Y-72588198D01*
X69469124Y-72603307D01*
X69360603Y-72618118D01*
X69254887Y-72632518D01*
X69152815Y-72646391D01*
X69055226Y-72659622D01*
X68962958Y-72672099D01*
X68876851Y-72683704D01*
X68797743Y-72694325D01*
X68726474Y-72703847D01*
X68663882Y-72712154D01*
X68610807Y-72719132D01*
X68568087Y-72724667D01*
X68536561Y-72728644D01*
X68517069Y-72730948D01*
X68510835Y-72731620D01*
X68459569Y-72736855D01*
X68409629Y-72741354D01*
X68359584Y-72745167D01*
X68308001Y-72748346D01*
X68253448Y-72750943D01*
X68194494Y-72753007D01*
X68129707Y-72754590D01*
X68057653Y-72755744D01*
X67976902Y-72756519D01*
X67886022Y-72756966D01*
X67783580Y-72757138D01*
X67765183Y-72757151D01*
X67696155Y-72757285D01*
X67686202Y-72757325D01*
X67632208Y-72757542D01*
X67574331Y-72757910D01*
X67523515Y-72758377D01*
X67480747Y-72758930D01*
X67447018Y-72759557D01*
X67423317Y-72760246D01*
X67410633Y-72760984D01*
X67409955Y-72761760D01*
X67410197Y-72761794D01*
X67431932Y-72764414D01*
X67464601Y-72767822D01*
X67506210Y-72771845D01*
X67554765Y-72776309D01*
X67608272Y-72781041D01*
X67664736Y-72785868D01*
X67722163Y-72790616D01*
X67778560Y-72795113D01*
X67831930Y-72799183D01*
X67880282Y-72802655D01*
X67894959Y-72803650D01*
X67984060Y-72809027D01*
X68075912Y-72813530D01*
X68168273Y-72817103D01*
X68258904Y-72819693D01*
X68345564Y-72821245D01*
X68426011Y-72821704D01*
X68498005Y-72821017D01*
X68559304Y-72819129D01*
X68559851Y-72819104D01*
X68588716Y-72817594D01*
X68629853Y-72815157D01*
X68682593Y-72811841D01*
X68746266Y-72807694D01*
X68820200Y-72802761D01*
X68903727Y-72797092D01*
X68996176Y-72790732D01*
X69096877Y-72783728D01*
X69205160Y-72776130D01*
X69320355Y-72767982D01*
X69441791Y-72759333D01*
X69568799Y-72750230D01*
X69700709Y-72740720D01*
X69836850Y-72730850D01*
X69976553Y-72720667D01*
X70119147Y-72710220D01*
X70263962Y-72699554D01*
X70410328Y-72688717D01*
X70453875Y-72685496D01*
X70526126Y-72680207D01*
X70593889Y-72675314D01*
X70656105Y-72670890D01*
X70711714Y-72667007D01*
X70759658Y-72663739D01*
X70798879Y-72661158D01*
X70828317Y-72659337D01*
X70846914Y-72658349D01*
X70853611Y-72658266D01*
X70853609Y-72658376D01*
X70848280Y-72663774D01*
X70834155Y-72676454D01*
X70812312Y-72695490D01*
X70783826Y-72719958D01*
X70749774Y-72748933D01*
X70711233Y-72781488D01*
X70669280Y-72816700D01*
X70653988Y-72829495D01*
X70598728Y-72875744D01*
X70538100Y-72926498D01*
X70475171Y-72979190D01*
X70413008Y-73031250D01*
X70354679Y-73080111D01*
X70303251Y-73123202D01*
X70123840Y-73273559D01*
X70001102Y-73279998D01*
X69963356Y-73282308D01*
X69908256Y-73286389D01*
X69842855Y-73291806D01*
X69768552Y-73298413D01*
X69686749Y-73306064D01*
X69598846Y-73314612D01*
X69506244Y-73323909D01*
X69410344Y-73333809D01*
X69312547Y-73344166D01*
X69214253Y-73354832D01*
X69116864Y-73365661D01*
X69021779Y-73376506D01*
X68930401Y-73387220D01*
X68844129Y-73397657D01*
X68764365Y-73407669D01*
X68692510Y-73417110D01*
X68672408Y-73419868D01*
X68618058Y-73427621D01*
X68556871Y-73436680D01*
X68493030Y-73446412D01*
X68430717Y-73456181D01*
X68374116Y-73465355D01*
X68309036Y-73475799D01*
X68196633Y-73492397D01*
X68083465Y-73507405D01*
X67971449Y-73520631D01*
X67862503Y-73531883D01*
X67758545Y-73540969D01*
X67661493Y-73547696D01*
X67573265Y-73551874D01*
X67495780Y-73553309D01*
X67478982Y-73553514D01*
X67454384Y-73554665D01*
X67436769Y-73556602D01*
X67429142Y-73559065D01*
X67429294Y-73559455D01*
X67437567Y-73561147D01*
X67457062Y-73562949D01*
X67486358Y-73564780D01*
X67524030Y-73566562D01*
X67568658Y-73568215D01*
X67618819Y-73569659D01*
X67693398Y-73570933D01*
X67814212Y-73570903D01*
X67940350Y-73568624D01*
X68067330Y-73564228D01*
X68190670Y-73557844D01*
X68305889Y-73549605D01*
X68312859Y-73549052D01*
X68353904Y-73546509D01*
X68406427Y-73544170D01*
X68469169Y-73542049D01*
X68540876Y-73540160D01*
X68620291Y-73538515D01*
X68706158Y-73537130D01*
X68797220Y-73536016D01*
X68892221Y-73535189D01*
X68989905Y-73534660D01*
X69089015Y-73534445D01*
X69188295Y-73534556D01*
X69286488Y-73535007D01*
X69382339Y-73535812D01*
X69474591Y-73536984D01*
X69798575Y-73541878D01*
X69779988Y-73559859D01*
X69777918Y-73561750D01*
X69766210Y-73571914D01*
X69745640Y-73589469D01*
X69716996Y-73613753D01*
X69681064Y-73644102D01*
X69638632Y-73679855D01*
X69590488Y-73720347D01*
X69537418Y-73764916D01*
X69480209Y-73812900D01*
X69419649Y-73863634D01*
X69356524Y-73916458D01*
X69276626Y-73983149D01*
X69199896Y-74046886D01*
X69132979Y-74102112D01*
X69075872Y-74148827D01*
X69028573Y-74187034D01*
X68991080Y-74216735D01*
X68963391Y-74237931D01*
X68945503Y-74250624D01*
X68937415Y-74254817D01*
X68929048Y-74254976D01*
X68908367Y-74255532D01*
X68876129Y-74256461D01*
X68833056Y-74257742D01*
X68779870Y-74259350D01*
X68717293Y-74261264D01*
X68646046Y-74263460D01*
X68566852Y-74265915D01*
X68480433Y-74268606D01*
X68387509Y-74271510D01*
X68288804Y-74274604D01*
X68185038Y-74277866D01*
X68076935Y-74281272D01*
X67965216Y-74284800D01*
X67850602Y-74288426D01*
X67733816Y-74292127D01*
X67615579Y-74295881D01*
X67496614Y-74299665D01*
X67377642Y-74303455D01*
X67259385Y-74307229D01*
X67142566Y-74310963D01*
X67027905Y-74314635D01*
X66916125Y-74318222D01*
X66807948Y-74321701D01*
X66704096Y-74325048D01*
X66605290Y-74328242D01*
X66512252Y-74331258D01*
X66425705Y-74334074D01*
X66346370Y-74336667D01*
X66274969Y-74339015D01*
X66212224Y-74341093D01*
X66158857Y-74342880D01*
X66115590Y-74344351D01*
X66083144Y-74345485D01*
X66062242Y-74346258D01*
X66040736Y-74347191D01*
X65956610Y-74352228D01*
X65865231Y-74359590D01*
X65769492Y-74368936D01*
X65672286Y-74379923D01*
X65576504Y-74392208D01*
X65485041Y-74405448D01*
X65400787Y-74419301D01*
X65326636Y-74433423D01*
X65305182Y-74437457D01*
X65284693Y-74440446D01*
X65272198Y-74441226D01*
X65271521Y-74441006D01*
X65269088Y-74438375D01*
X65265744Y-74432337D01*
X65261305Y-74422327D01*
X65255588Y-74407782D01*
X65248409Y-74388142D01*
X65239585Y-74362841D01*
X65228932Y-74331318D01*
X65216266Y-74293011D01*
X65201403Y-74247355D01*
X65184161Y-74193789D01*
X65164355Y-74131750D01*
X65141802Y-74060674D01*
X65116317Y-73980000D01*
X65087719Y-73889164D01*
X65055822Y-73787604D01*
X65020443Y-73674757D01*
X64981399Y-73550060D01*
X64952047Y-73456263D01*
X64920336Y-73354904D01*
X64889859Y-73257465D01*
X64860837Y-73164653D01*
X64833491Y-73077175D01*
X64808040Y-72995739D01*
X64784707Y-72921050D01*
X64763711Y-72853815D01*
X64745274Y-72794742D01*
X64733605Y-72757325D01*
X67366953Y-72757325D01*
X67370202Y-72760574D01*
X67373451Y-72757325D01*
X67370202Y-72754076D01*
X67366953Y-72757325D01*
X64733605Y-72757325D01*
X64729617Y-72744536D01*
X64716959Y-72703906D01*
X64707522Y-72673557D01*
X64701527Y-72654196D01*
X64699194Y-72646531D01*
X64699548Y-72644800D01*
X64702151Y-72641168D01*
X64707514Y-72635632D01*
X64716022Y-72627903D01*
X64728061Y-72617690D01*
X64744015Y-72604703D01*
X64764271Y-72588653D01*
X64789213Y-72569248D01*
X64819226Y-72546199D01*
X64854696Y-72519217D01*
X64896008Y-72488010D01*
X64943548Y-72452289D01*
X64997700Y-72411763D01*
X65058850Y-72366144D01*
X65127383Y-72315140D01*
X65203685Y-72258462D01*
X65288140Y-72195819D01*
X65381135Y-72126922D01*
X65483053Y-72051480D01*
X65594282Y-71969204D01*
X65662885Y-71918483D01*
X67490193Y-71918483D01*
X67491586Y-71920170D01*
X67503408Y-71920847D01*
X67507816Y-71920784D01*
X67516801Y-71919759D01*
X67514779Y-71917876D01*
X67508517Y-71916865D01*
X67492037Y-71917876D01*
X67490193Y-71918483D01*
X65662885Y-71918483D01*
X65669652Y-71913480D01*
X67446077Y-71913480D01*
X67451425Y-71915857D01*
X67454865Y-71915388D01*
X67455757Y-71911525D01*
X67454805Y-71910747D01*
X67447093Y-71911525D01*
X67446077Y-71913480D01*
X65669652Y-71913480D01*
X65715204Y-71879802D01*
X65846207Y-71782987D01*
X65872697Y-71763412D01*
X65980928Y-71683412D01*
X66086231Y-71605543D01*
X66188137Y-71530151D01*
X66286176Y-71457588D01*
X66379875Y-71388202D01*
X66468766Y-71322343D01*
X66552378Y-71260359D01*
X66630239Y-71202601D01*
X66701879Y-71149417D01*
X66766829Y-71101156D01*
X66824617Y-71058169D01*
X66874772Y-71020804D01*
X66916825Y-70989410D01*
X66950304Y-70964338D01*
X66974739Y-70945935D01*
X66989660Y-70934552D01*
X66994596Y-70930538D01*
X66990395Y-70930301D01*
X66974012Y-70929930D01*
X66945949Y-70929486D01*
X66906942Y-70928977D01*
X66857725Y-70928409D01*
X66799034Y-70927789D01*
X66731604Y-70927124D01*
X66656170Y-70926422D01*
X66573467Y-70925689D01*
X66484231Y-70924932D01*
X66389196Y-70924158D01*
X66289098Y-70923375D01*
X66184672Y-70922588D01*
X66076653Y-70921806D01*
X66056777Y-70921665D01*
X65883641Y-70920404D01*
X65720060Y-70919159D01*
X65566262Y-70917932D01*
X65422477Y-70916726D01*
X65288935Y-70915543D01*
X65165865Y-70914387D01*
X65053497Y-70913260D01*
X64952059Y-70912163D01*
X64861781Y-70911101D01*
X64782893Y-70910075D01*
X64715624Y-70909088D01*
X64660204Y-70908142D01*
X64616861Y-70907241D01*
X64585826Y-70906386D01*
X64567327Y-70905580D01*
X64561594Y-70904826D01*
X64562088Y-70904595D01*
X64571503Y-70902163D01*
X64591290Y-70897728D01*
X64619508Y-70891707D01*
X64654219Y-70884515D01*
X64693485Y-70876567D01*
X64727806Y-70869871D01*
X64794208Y-70857744D01*
X64863064Y-70846099D01*
X64931346Y-70835403D01*
X64996025Y-70826120D01*
X65054073Y-70818716D01*
X65102461Y-70813659D01*
X65111130Y-70812846D01*
X65131612Y-70810382D01*
X65143966Y-70808026D01*
X65145777Y-70806192D01*
X65134392Y-70805103D01*
X65111188Y-70805876D01*
X65078067Y-70808459D01*
X65036524Y-70812651D01*
X64988052Y-70818249D01*
X64934148Y-70825052D01*
X64876307Y-70832857D01*
X64816025Y-70841461D01*
X64754795Y-70850663D01*
X64694114Y-70860261D01*
X64635477Y-70870052D01*
X64580378Y-70879835D01*
X64530314Y-70889406D01*
X64502423Y-70894900D01*
X64475031Y-70899882D01*
X64450858Y-70903464D01*
X64427201Y-70905841D01*
X64401358Y-70907208D01*
X64370628Y-70907759D01*
X64332309Y-70907690D01*
X64283697Y-70907195D01*
X64134886Y-70905445D01*
X64101741Y-70801156D01*
X65172270Y-70801156D01*
X65176128Y-70802452D01*
X65190182Y-70802959D01*
X65199717Y-70802769D01*
X65207881Y-70801750D01*
X65204802Y-70800143D01*
X65194496Y-70799068D01*
X65175562Y-70800143D01*
X65172270Y-70801156D01*
X64101741Y-70801156D01*
X64099656Y-70794597D01*
X65248082Y-70794597D01*
X65251534Y-70796069D01*
X65264907Y-70796592D01*
X65271994Y-70796424D01*
X65279804Y-70795347D01*
X65276202Y-70793635D01*
X65265815Y-70792556D01*
X65250211Y-70793766D01*
X65248082Y-70794597D01*
X64099656Y-70794597D01*
X64097713Y-70788484D01*
X65346130Y-70788484D01*
X65349379Y-70791733D01*
X65352628Y-70788484D01*
X65349379Y-70785235D01*
X65346130Y-70788484D01*
X64097713Y-70788484D01*
X64091239Y-70768115D01*
X65950095Y-70768115D01*
X65950466Y-70769069D01*
X65961831Y-70769725D01*
X65982917Y-70769969D01*
X65996069Y-70769887D01*
X66011762Y-70769394D01*
X66017008Y-70768554D01*
X66010532Y-70767482D01*
X66007800Y-70767258D01*
X65981178Y-70766459D01*
X65955301Y-70767482D01*
X65950095Y-70768115D01*
X64091239Y-70768115D01*
X63949026Y-70320641D01*
X63930723Y-70263161D01*
X63904821Y-70182126D01*
X63877525Y-70097047D01*
X63849171Y-70008949D01*
X63820092Y-69918860D01*
X63790625Y-69827805D01*
X63761105Y-69736810D01*
X63731866Y-69646902D01*
X63703243Y-69559107D01*
X63675573Y-69474451D01*
X63649189Y-69393960D01*
X63624428Y-69318661D01*
X63601623Y-69249580D01*
X63581111Y-69187742D01*
X63563226Y-69134175D01*
X63548303Y-69089905D01*
X63536678Y-69055957D01*
X63528685Y-69033358D01*
X63532088Y-69029306D01*
X63546082Y-69020837D01*
X63569445Y-69008964D01*
X63600679Y-68994336D01*
X63638286Y-68977606D01*
X63680769Y-68959425D01*
X63726630Y-68940444D01*
X63774369Y-68921315D01*
X63822490Y-68902687D01*
X63869494Y-68885213D01*
X63922353Y-68866433D01*
X64079704Y-68815350D01*
X64240533Y-68770410D01*
X64406300Y-68731316D01*
X64578466Y-68697775D01*
X64758489Y-68669493D01*
X64947829Y-68646175D01*
X65147946Y-68627528D01*
X65187021Y-68625007D01*
X65238570Y-68622688D01*
X65299156Y-68620703D01*
X65366759Y-68619068D01*
X65439362Y-68617803D01*
X65514944Y-68616925D01*
X65591486Y-68616451D01*
X65666970Y-68616399D01*
X65739377Y-68616787D01*
X65806686Y-68617632D01*
X65866880Y-68618953D01*
X65917938Y-68620767D01*
X66003206Y-68624870D01*
X66091624Y-68629727D01*
X66179265Y-68635223D01*
X66266977Y-68641456D01*
X66355609Y-68648527D01*
X66446009Y-68656534D01*
X66539028Y-68665577D01*
X66635512Y-68675754D01*
X66736312Y-68687167D01*
X66842276Y-68699913D01*
X66954253Y-68714092D01*
X67073091Y-68729804D01*
X67199640Y-68747148D01*
X67334748Y-68766223D01*
X67479264Y-68787128D01*
X67634037Y-68809963D01*
X67799916Y-68834827D01*
X67977749Y-68861819D01*
X68171695Y-68891170D01*
X68358067Y-68918830D01*
X68533225Y-68944198D01*
X68697953Y-68967351D01*
X68853034Y-68988365D01*
X68999253Y-69007315D01*
X69137392Y-69024276D01*
X69268236Y-69039324D01*
X69392569Y-69052534D01*
X69511173Y-69063983D01*
X69624834Y-69073745D01*
X69734334Y-69081897D01*
X69840457Y-69088513D01*
X69943987Y-69093670D01*
X70045707Y-69097443D01*
X70146403Y-69099908D01*
X70246856Y-69101139D01*
X70347851Y-69101213D01*
X70450172Y-69100206D01*
X70515296Y-69099169D01*
X70580253Y-69097894D01*
X70639392Y-69096364D01*
X70694417Y-69094457D01*
X70747027Y-69092052D01*
X70798924Y-69089025D01*
X70851809Y-69085255D01*
X70907384Y-69080619D01*
X70967349Y-69074995D01*
X71033407Y-69068260D01*
X71107257Y-69060292D01*
X71190602Y-69050970D01*
X71285142Y-69040170D01*
X71476960Y-69017719D01*
X71891251Y-68966666D01*
X72314818Y-68911102D01*
X72745794Y-68851317D01*
X73182314Y-68787598D01*
X73622511Y-68720236D01*
X74064520Y-68649520D01*
X74506475Y-68575737D01*
X74946509Y-68499178D01*
X75382758Y-68420130D01*
X75813355Y-68338884D01*
X75833543Y-68335004D01*
X75888031Y-68324598D01*
X75937911Y-68315170D01*
X75981824Y-68306971D01*
X76018412Y-68300251D01*
X76046318Y-68295259D01*
X76064183Y-68292247D01*
X76070650Y-68291465D01*
X76070041Y-68292112D01*
X76061793Y-68299375D01*
X76044365Y-68314306D01*
X76018335Y-68336416D01*
X75984282Y-68365219D01*
X75942785Y-68400228D01*
X75894422Y-68440957D01*
X75839772Y-68486919D01*
X75779414Y-68537626D01*
X75713926Y-68592593D01*
X75643887Y-68651331D01*
X75569876Y-68713355D01*
X75492471Y-68778178D01*
X75412251Y-68845313D01*
X74752452Y-69397307D01*
X74193279Y-69483624D01*
X74186162Y-69484722D01*
X74025536Y-69509453D01*
X73862168Y-69534493D01*
X73696709Y-69559746D01*
X73529806Y-69585117D01*
X73362111Y-69610511D01*
X73194271Y-69635832D01*
X73026937Y-69660985D01*
X72860757Y-69685874D01*
X72696382Y-69710403D01*
X72534460Y-69734479D01*
X72375642Y-69758004D01*
X72220575Y-69780883D01*
X72069910Y-69803022D01*
X71924297Y-69824325D01*
X71784384Y-69844696D01*
X71650820Y-69864039D01*
X71524256Y-69882260D01*
X71405341Y-69899263D01*
X71294723Y-69914953D01*
X71193053Y-69929234D01*
X71100980Y-69942010D01*
X71019153Y-69953187D01*
X70948222Y-69962668D01*
X70888835Y-69970359D01*
X70841643Y-69976164D01*
X70714408Y-69990561D01*
X70500936Y-70011682D01*
X70289635Y-70028586D01*
X70077562Y-70041441D01*
X69861773Y-70050413D01*
X69639324Y-70055668D01*
X69407271Y-70057374D01*
X69349058Y-70057290D01*
X69178154Y-70056004D01*
X69017946Y-70053088D01*
X68866764Y-70048447D01*
X68722938Y-70041982D01*
X68584800Y-70033597D01*
X68450678Y-70023195D01*
X68318905Y-70010680D01*
X68187810Y-69995954D01*
X68055723Y-69978920D01*
X68035622Y-69976169D01*
X67966311Y-69966681D01*
X67891192Y-69956395D01*
X67814002Y-69945824D01*
X67738478Y-69935478D01*
X67668356Y-69925871D01*
X67607373Y-69917512D01*
X67575175Y-69913122D01*
X67526190Y-69906537D01*
X67482087Y-69900724D01*
X67444463Y-69895885D01*
X67414917Y-69892226D01*
X67395045Y-69889950D01*
X67386447Y-69889263D01*
X67384610Y-69889875D01*
X67390421Y-69892684D01*
X67407004Y-69897445D01*
X67433059Y-69903892D01*
X67467289Y-69911753D01*
X67508395Y-69920760D01*
X67555079Y-69930644D01*
X67606044Y-69941136D01*
X67659990Y-69951966D01*
X67715621Y-69962866D01*
X67771636Y-69973565D01*
X67826740Y-69983795D01*
X67879632Y-69993287D01*
X67929015Y-70001771D01*
X68166790Y-70039293D01*
X68467832Y-70080142D01*
X68767477Y-70113121D01*
X69068211Y-70138432D01*
X69372522Y-70156276D01*
X69682896Y-70166857D01*
X70001822Y-70170377D01*
X70014832Y-70170378D01*
X70101791Y-70170260D01*
X70183034Y-70169886D01*
X70259657Y-70169191D01*
X70332756Y-70168111D01*
X70403429Y-70166582D01*
X70472772Y-70164538D01*
X70541882Y-70161917D01*
X70611854Y-70158652D01*
X70683786Y-70154680D01*
X70758774Y-70149936D01*
X70837915Y-70144357D01*
X70922305Y-70137877D01*
X71013041Y-70130432D01*
X71111219Y-70121957D01*
X71217936Y-70112389D01*
X71334289Y-70101663D01*
X71461373Y-70089714D01*
X71600287Y-70076478D01*
X71630070Y-70073623D01*
X71731503Y-70063850D01*
X71837956Y-70053521D01*
X71948739Y-70042708D01*
X72063162Y-70031481D01*
X72180533Y-70019910D01*
X72300163Y-70008065D01*
X72421361Y-69996017D01*
X72543435Y-69983837D01*
X72665697Y-69971594D01*
X72787454Y-69959359D01*
X72908018Y-69947202D01*
X73026696Y-69935193D01*
X73142800Y-69923404D01*
X73255637Y-69911903D01*
X73364518Y-69900763D01*
X73468752Y-69890052D01*
X73567649Y-69879841D01*
X73660518Y-69870201D01*
X73746668Y-69861202D01*
X73825410Y-69852913D01*
X73896052Y-69845407D01*
X73957904Y-69838752D01*
X74010276Y-69833020D01*
X74052476Y-69828280D01*
X74083815Y-69824603D01*
X74103602Y-69822060D01*
X74111147Y-69820720D01*
X74112667Y-69820255D01*
X74124396Y-69818518D01*
X74144650Y-69816380D01*
X74170177Y-69814201D01*
X74177380Y-69813631D01*
X74205274Y-69811125D01*
X74229297Y-69808542D01*
X74244902Y-69806358D01*
X74255939Y-69804655D01*
X74259966Y-69806118D01*
X74254649Y-69812738D01*
X74250322Y-69816598D01*
X74236546Y-69828417D01*
X74214264Y-69847337D01*
X74184295Y-69872669D01*
X74147457Y-69903723D01*
X74104569Y-69939810D01*
X74056451Y-69980240D01*
X74003921Y-70024323D01*
X73947799Y-70071370D01*
X73888902Y-70120692D01*
X73532903Y-70418666D01*
X73265193Y-70475945D01*
X73160761Y-70498167D01*
X72834505Y-70565924D01*
X72519488Y-70628729D01*
X72215155Y-70686668D01*
X71920951Y-70739826D01*
X71752227Y-70768554D01*
X71636321Y-70788289D01*
X71360711Y-70832145D01*
X71093564Y-70871478D01*
X70834327Y-70906375D01*
X70582443Y-70936923D01*
X70337359Y-70963206D01*
X70098519Y-70985312D01*
X69865367Y-71003326D01*
X69857092Y-71003884D01*
X69805673Y-71006809D01*
X69745858Y-71009451D01*
X69679429Y-71011788D01*
X69608168Y-71013798D01*
X69533856Y-71015459D01*
X69458274Y-71016748D01*
X69383205Y-71017643D01*
X69310430Y-71018123D01*
X69241730Y-71018166D01*
X69178888Y-71017749D01*
X69123685Y-71016849D01*
X69077903Y-71015446D01*
X69043324Y-71013517D01*
X69042424Y-71013447D01*
X69010294Y-71010671D01*
X68968120Y-71006631D01*
X68918666Y-71001612D01*
X68864692Y-70995902D01*
X68808963Y-70989786D01*
X68754239Y-70983552D01*
X68723558Y-70980009D01*
X68631172Y-70969583D01*
X68528279Y-70958279D01*
X68416665Y-70946278D01*
X68298120Y-70933762D01*
X68174430Y-70920910D01*
X68047383Y-70907904D01*
X67918768Y-70894925D01*
X67790371Y-70882154D01*
X67663982Y-70869771D01*
X67541388Y-70857957D01*
X67424377Y-70846894D01*
X67314737Y-70836762D01*
X67214255Y-70827741D01*
X67143644Y-70821667D01*
X66990335Y-70809521D01*
X66840599Y-70799071D01*
X66696282Y-70790424D01*
X66559230Y-70783683D01*
X66431289Y-70778956D01*
X66314306Y-70776347D01*
X66304629Y-70776217D01*
X66264203Y-70775726D01*
X66231939Y-70775422D01*
X66208806Y-70775307D01*
X66195767Y-70775384D01*
X66193791Y-70775655D01*
X66203843Y-70776121D01*
X66297364Y-70779442D01*
X66420349Y-70784200D01*
X66518836Y-70788484D01*
X66534216Y-70789153D01*
X66641238Y-70794449D01*
G37*
%TD*%
D10*
%TO.C,J2*%
X15783000Y-87623000D03*
X22833000Y-87623000D03*
X103859000Y-87623000D03*
D11*
X35533000Y-90611000D03*
X36803000Y-85491000D03*
D12*
X38073000Y-90611000D03*
X39343000Y-85491000D03*
X40613000Y-90611000D03*
X41883000Y-85491000D03*
X43153000Y-90611000D03*
X44423000Y-85491000D03*
X45693000Y-90611000D03*
X46963000Y-85491000D03*
X48233000Y-90611000D03*
X49503000Y-85491000D03*
X50773000Y-90611000D03*
X52043000Y-85491000D03*
X53313000Y-90611000D03*
D13*
X54583000Y-85491000D03*
X55853000Y-90611000D03*
X57123000Y-85491000D03*
D12*
X58393000Y-90611000D03*
X59663000Y-85491000D03*
X60933000Y-90611000D03*
X62203000Y-85491000D03*
X63473000Y-90611000D03*
X64743000Y-85491000D03*
X66013000Y-90611000D03*
X67283000Y-85491000D03*
X68553000Y-90611000D03*
X69823000Y-85491000D03*
X71093000Y-90611000D03*
X72363000Y-85491000D03*
X73633000Y-90611000D03*
X74903000Y-85491000D03*
X76173000Y-90611000D03*
X77443000Y-85491000D03*
X78713000Y-90611000D03*
X79983000Y-85491000D03*
X81253000Y-90611000D03*
X82523000Y-85491000D03*
X83793000Y-90611000D03*
X85063000Y-85491000D03*
D13*
X86333000Y-90611000D03*
D12*
X87603000Y-85491000D03*
X88873000Y-90611000D03*
X90143000Y-85491000D03*
X91413000Y-90611000D03*
%TD*%
D14*
%TO.C,J1*%
X94037000Y-112268000D03*
X91497000Y-112268000D03*
X88957000Y-112268000D03*
X86417000Y-112268000D03*
X83877000Y-112268000D03*
X81337000Y-112268000D03*
X78797000Y-112268000D03*
X76257000Y-112268000D03*
X73717000Y-112268000D03*
D15*
X71177000Y-112668000D03*
X68637000Y-112668000D03*
D14*
X66097000Y-112268000D03*
X63557000Y-112268000D03*
X61017000Y-112268000D03*
X58477000Y-112268000D03*
X55937000Y-112268000D03*
X53397000Y-112268000D03*
X50857000Y-112268000D03*
X48317000Y-112268000D03*
X45777000Y-112268000D03*
X43237000Y-112268000D03*
X40697000Y-112268000D03*
X38157000Y-112268000D03*
X35617000Y-112268000D03*
X33077000Y-112268000D03*
%TD*%
M02*
