%TF.GenerationSoftware,KiCad,Pcbnew,8.0.2*%
%TF.CreationDate,2024-05-08T12:07:27-04:00*%
%TF.ProjectId,SMS-to-GG,534d532d-746f-42d4-9747-2e6b69636164,4*%
%TF.SameCoordinates,Original*%
%TF.FileFunction,Drillmap*%
%TF.FilePolarity,Positive*%
%FSLAX45Y45*%
G04 Gerber Fmt 4.5, Leading zero omitted, Abs format (unit mm)*
G04 Created by KiCad (PCBNEW 8.0.2) date 2024-05-08 12:07:27*
%MOMM*%
%LPD*%
G01*
G04 APERTURE LIST*
%ADD10C,0.100000*%
%ADD11C,0.200000*%
G04 APERTURE END LIST*
D10*
X11790400Y-12954300D02*
X11790400Y-13881400D01*
X19740600Y-8722000D02*
X10386000Y-8722000D01*
X11790400Y-13881400D02*
X18369000Y-13881400D01*
X19740600Y-12954300D02*
X19740600Y-8722000D01*
X18369000Y-12954300D02*
X19740600Y-12954300D01*
X10386000Y-8722000D02*
X10386000Y-12954300D01*
X18369000Y-13881400D02*
X18369000Y-12954300D01*
X10386000Y-12954300D02*
X11790400Y-12954300D01*
D11*
D10*
X10427000Y-8763000D02*
X10447000Y-8783000D01*
X10447000Y-8763000D02*
X10427000Y-8783000D01*
X10427000Y-12893000D02*
X10447000Y-12913000D01*
X10447000Y-12893000D02*
X10427000Y-12913000D01*
X11843900Y-12944300D02*
X11863900Y-12964300D01*
X11863900Y-12944300D02*
X11843900Y-12964300D01*
X12389000Y-9971000D02*
X12409000Y-9991000D01*
X12409000Y-9971000D02*
X12389000Y-9991000D01*
X12416000Y-10519000D02*
X12436000Y-10539000D01*
X12436000Y-10519000D02*
X12416000Y-10539000D01*
X12736000Y-12666000D02*
X12756000Y-12686000D01*
X12756000Y-12666000D02*
X12736000Y-12686000D01*
X12770000Y-9971000D02*
X12790000Y-9991000D01*
X12790000Y-9971000D02*
X12770000Y-9991000D01*
X12770000Y-10189000D02*
X12790000Y-10209000D01*
X12790000Y-10189000D02*
X12770000Y-10209000D01*
X12770000Y-10482000D02*
X12790000Y-10502000D01*
X12790000Y-10482000D02*
X12770000Y-10502000D01*
X12792000Y-12791000D02*
X12812000Y-12811000D01*
X12812000Y-12791000D02*
X12792000Y-12811000D01*
X13023000Y-10483000D02*
X13043000Y-10503000D01*
X13043000Y-10483000D02*
X13023000Y-10503000D01*
X13025000Y-10188000D02*
X13045000Y-10208000D01*
X13045000Y-10188000D02*
X13025000Y-10208000D01*
X13277000Y-10483000D02*
X13297000Y-10503000D01*
X13297000Y-10483000D02*
X13277000Y-10503000D01*
X13278000Y-10189000D02*
X13298000Y-10209000D01*
X13298000Y-10189000D02*
X13278000Y-10209000D01*
X13399000Y-12324000D02*
X13419000Y-12344000D01*
X13419000Y-12324000D02*
X13399000Y-12344000D01*
X13399000Y-12406000D02*
X13419000Y-12426000D01*
X13419000Y-12406000D02*
X13399000Y-12426000D01*
X13399000Y-12489000D02*
X13419000Y-12509000D01*
X13419000Y-12489000D02*
X13399000Y-12509000D01*
X13401000Y-12660000D02*
X13421000Y-12680000D01*
X13421000Y-12660000D02*
X13401000Y-12680000D01*
X13407000Y-12957000D02*
X13427000Y-12977000D01*
X13427000Y-12957000D02*
X13407000Y-12977000D01*
X13532000Y-10189000D02*
X13552000Y-10209000D01*
X13552000Y-10189000D02*
X13532000Y-10209000D01*
X13532000Y-10483000D02*
X13552000Y-10503000D01*
X13552000Y-10483000D02*
X13532000Y-10503000D01*
X13556000Y-11502000D02*
X13576000Y-11522000D01*
X13576000Y-11502000D02*
X13556000Y-11522000D01*
X13583000Y-12036000D02*
X13603000Y-12056000D01*
X13603000Y-12036000D02*
X13583000Y-12056000D01*
X13585000Y-12862000D02*
X13605000Y-12882000D01*
X13605000Y-12862000D02*
X13585000Y-12882000D01*
X13656000Y-12862000D02*
X13676000Y-12882000D01*
X13676000Y-12862000D02*
X13656000Y-12882000D01*
X13710000Y-12597000D02*
X13730000Y-12617000D01*
X13730000Y-12597000D02*
X13710000Y-12617000D01*
X13710000Y-12725000D02*
X13730000Y-12745000D01*
X13730000Y-12725000D02*
X13710000Y-12745000D01*
X13711000Y-12103000D02*
X13731000Y-12123000D01*
X13731000Y-12103000D02*
X13711000Y-12123000D01*
X13727000Y-11316000D02*
X13747000Y-11336000D01*
X13747000Y-11316000D02*
X13727000Y-11336000D01*
X13727000Y-11688000D02*
X13747000Y-11708000D01*
X13747000Y-11688000D02*
X13727000Y-11708000D01*
X13786000Y-10483000D02*
X13806000Y-10503000D01*
X13806000Y-10483000D02*
X13786000Y-10503000D01*
X13787000Y-10189000D02*
X13807000Y-10209000D01*
X13807000Y-10189000D02*
X13787000Y-10209000D01*
X13787000Y-12385000D02*
X13807000Y-12405000D01*
X13807000Y-12385000D02*
X13787000Y-12405000D01*
X13787000Y-12461000D02*
X13807000Y-12481000D01*
X13807000Y-12461000D02*
X13787000Y-12481000D01*
X13793000Y-12725000D02*
X13813000Y-12745000D01*
X13813000Y-12725000D02*
X13793000Y-12745000D01*
X13850000Y-11696000D02*
X13870000Y-11716000D01*
X13870000Y-11696000D02*
X13850000Y-11716000D01*
X13898000Y-11502000D02*
X13918000Y-11522000D01*
X13918000Y-11502000D02*
X13898000Y-11522000D01*
X13928000Y-12323000D02*
X13948000Y-12343000D01*
X13948000Y-12323000D02*
X13928000Y-12343000D01*
X13928000Y-12477000D02*
X13948000Y-12497000D01*
X13948000Y-12477000D02*
X13928000Y-12497000D01*
X13928000Y-12636000D02*
X13948000Y-12656000D01*
X13948000Y-12636000D02*
X13928000Y-12656000D01*
X13932000Y-12180000D02*
X13952000Y-12200000D01*
X13952000Y-12180000D02*
X13932000Y-12200000D01*
X13943000Y-12717000D02*
X13963000Y-12737000D01*
X13963000Y-12717000D02*
X13943000Y-12737000D01*
X13943000Y-12788000D02*
X13963000Y-12808000D01*
X13963000Y-12788000D02*
X13943000Y-12808000D01*
X14014000Y-12717000D02*
X14034000Y-12737000D01*
X14034000Y-12717000D02*
X14014000Y-12737000D01*
X14014000Y-12788000D02*
X14034000Y-12808000D01*
X14034000Y-12788000D02*
X14014000Y-12808000D01*
X14014000Y-12862000D02*
X14034000Y-12882000D01*
X14034000Y-12862000D02*
X14014000Y-12882000D01*
X14040000Y-10483000D02*
X14060000Y-10503000D01*
X14060000Y-10483000D02*
X14040000Y-10503000D01*
X14102000Y-12862000D02*
X14122000Y-12882000D01*
X14122000Y-12862000D02*
X14102000Y-12882000D01*
X14169000Y-12323000D02*
X14189000Y-12343000D01*
X14189000Y-12323000D02*
X14169000Y-12343000D01*
X14169000Y-12477000D02*
X14189000Y-12497000D01*
X14189000Y-12477000D02*
X14169000Y-12497000D01*
X14169000Y-12635000D02*
X14189000Y-12655000D01*
X14189000Y-12635000D02*
X14169000Y-12655000D01*
X14173000Y-12862000D02*
X14193000Y-12882000D01*
X14193000Y-12862000D02*
X14173000Y-12882000D01*
X14291000Y-12477000D02*
X14311000Y-12497000D01*
X14311000Y-12477000D02*
X14291000Y-12497000D01*
X14291000Y-12635000D02*
X14311000Y-12655000D01*
X14311000Y-12635000D02*
X14291000Y-12655000D01*
X14347000Y-12862000D02*
X14367000Y-12882000D01*
X14367000Y-12862000D02*
X14347000Y-12882000D01*
X14423000Y-12862000D02*
X14443000Y-12882000D01*
X14443000Y-12862000D02*
X14423000Y-12882000D01*
X14438000Y-12477000D02*
X14458000Y-12497000D01*
X14458000Y-12477000D02*
X14438000Y-12497000D01*
X14438000Y-12635000D02*
X14458000Y-12655000D01*
X14458000Y-12635000D02*
X14438000Y-12655000D01*
X14534000Y-11013000D02*
X14554000Y-11033000D01*
X14554000Y-11013000D02*
X14534000Y-11033000D01*
X14534000Y-11131000D02*
X14554000Y-11151000D01*
X14554000Y-11131000D02*
X14534000Y-11151000D01*
X14547000Y-10483000D02*
X14567000Y-10503000D01*
X14567000Y-10483000D02*
X14547000Y-10503000D01*
X14599800Y-12862000D02*
X14619800Y-12882000D01*
X14619800Y-12862000D02*
X14599800Y-12882000D01*
X14660000Y-12055000D02*
X14680000Y-12075000D01*
X14680000Y-12055000D02*
X14660000Y-12075000D01*
X14676000Y-12862000D02*
X14696000Y-12882000D01*
X14696000Y-12862000D02*
X14676000Y-12882000D01*
X14688000Y-12635000D02*
X14708000Y-12655000D01*
X14708000Y-12635000D02*
X14688000Y-12655000D01*
X14802000Y-10189000D02*
X14822000Y-10209000D01*
X14822000Y-10189000D02*
X14802000Y-10209000D01*
X14802000Y-10483000D02*
X14822000Y-10503000D01*
X14822000Y-10483000D02*
X14802000Y-10503000D01*
X14853800Y-12862000D02*
X14873800Y-12882000D01*
X14873800Y-12862000D02*
X14853800Y-12882000D01*
X14930000Y-12862000D02*
X14950000Y-12882000D01*
X14950000Y-12862000D02*
X14930000Y-12882000D01*
X14971000Y-12155000D02*
X14991000Y-12175000D01*
X14991000Y-12155000D02*
X14971000Y-12175000D01*
X15056000Y-10483000D02*
X15076000Y-10503000D01*
X15076000Y-10483000D02*
X15056000Y-10503000D01*
X15057000Y-10189000D02*
X15077000Y-10209000D01*
X15077000Y-10189000D02*
X15057000Y-10209000D01*
X15072000Y-12477000D02*
X15092000Y-12497000D01*
X15092000Y-12477000D02*
X15072000Y-12497000D01*
X15107000Y-12322000D02*
X15127000Y-12342000D01*
X15127000Y-12322000D02*
X15107000Y-12342000D01*
X15107800Y-12862000D02*
X15127800Y-12882000D01*
X15127800Y-12862000D02*
X15107800Y-12882000D01*
X15184000Y-12862000D02*
X15204000Y-12882000D01*
X15204000Y-12862000D02*
X15184000Y-12882000D01*
X15267000Y-12477000D02*
X15287000Y-12497000D01*
X15287000Y-12477000D02*
X15267000Y-12497000D01*
X15310000Y-10483000D02*
X15330000Y-10503000D01*
X15330000Y-10483000D02*
X15310000Y-10503000D01*
X15311000Y-10002000D02*
X15331000Y-10022000D01*
X15331000Y-10002000D02*
X15311000Y-10022000D01*
X15311000Y-10189000D02*
X15331000Y-10209000D01*
X15331000Y-10189000D02*
X15311000Y-10209000D01*
X15361950Y-12862000D02*
X15381950Y-12882000D01*
X15381950Y-12862000D02*
X15361950Y-12882000D01*
X15438000Y-12862000D02*
X15458000Y-12882000D01*
X15458000Y-12862000D02*
X15438000Y-12882000D01*
X15564000Y-10483000D02*
X15584000Y-10503000D01*
X15584000Y-10483000D02*
X15564000Y-10503000D01*
X15818000Y-10483000D02*
X15838000Y-10503000D01*
X15838000Y-10483000D02*
X15818000Y-10503000D01*
X15819000Y-10002000D02*
X15839000Y-10022000D01*
X15839000Y-10002000D02*
X15819000Y-10022000D01*
X15819000Y-10189000D02*
X15839000Y-10209000D01*
X15839000Y-10189000D02*
X15819000Y-10209000D01*
X15956000Y-12862000D02*
X15976000Y-12882000D01*
X15976000Y-12862000D02*
X15956000Y-12882000D01*
X16038000Y-12862000D02*
X16058000Y-12882000D01*
X16058000Y-12862000D02*
X16038000Y-12882000D01*
X16071000Y-10483000D02*
X16091000Y-10503000D01*
X16091000Y-10483000D02*
X16071000Y-10503000D01*
X16073000Y-10189000D02*
X16093000Y-10209000D01*
X16093000Y-10189000D02*
X16073000Y-10209000D01*
X16189000Y-11597000D02*
X16209000Y-11617000D01*
X16209000Y-11597000D02*
X16189000Y-11617000D01*
X16205000Y-11412000D02*
X16225000Y-11432000D01*
X16225000Y-11412000D02*
X16205000Y-11432000D01*
X16223000Y-11310000D02*
X16243000Y-11330000D01*
X16243000Y-11310000D02*
X16223000Y-11330000D01*
X16233000Y-12862000D02*
X16253000Y-12882000D01*
X16253000Y-12862000D02*
X16233000Y-12882000D01*
X16236000Y-11775000D02*
X16256000Y-11795000D01*
X16256000Y-11775000D02*
X16236000Y-11795000D01*
X16236000Y-11845000D02*
X16256000Y-11865000D01*
X16256000Y-11845000D02*
X16236000Y-11865000D01*
X16271000Y-11688000D02*
X16291000Y-11708000D01*
X16291000Y-11688000D02*
X16271000Y-11708000D01*
X16276000Y-11245000D02*
X16296000Y-11265000D01*
X16296000Y-11245000D02*
X16276000Y-11265000D01*
X16277000Y-12524000D02*
X16297000Y-12544000D01*
X16297000Y-12524000D02*
X16277000Y-12544000D01*
X16307000Y-11775000D02*
X16327000Y-11795000D01*
X16327000Y-11775000D02*
X16307000Y-11795000D01*
X16307000Y-11845000D02*
X16327000Y-11865000D01*
X16327000Y-11845000D02*
X16307000Y-11865000D01*
X16315000Y-12862000D02*
X16335000Y-12882000D01*
X16335000Y-12862000D02*
X16315000Y-12882000D01*
X16325000Y-10483000D02*
X16345000Y-10503000D01*
X16345000Y-10483000D02*
X16325000Y-10503000D01*
X16326000Y-10189000D02*
X16346000Y-10209000D01*
X16346000Y-10189000D02*
X16326000Y-10209000D01*
X16403000Y-11850000D02*
X16423000Y-11870000D01*
X16423000Y-11850000D02*
X16403000Y-11870000D01*
X16455000Y-12524000D02*
X16475000Y-12544000D01*
X16475000Y-12524000D02*
X16455000Y-12544000D01*
X16531000Y-12862000D02*
X16551000Y-12882000D01*
X16551000Y-12862000D02*
X16531000Y-12882000D01*
X16548000Y-11502000D02*
X16568000Y-11522000D01*
X16568000Y-11502000D02*
X16548000Y-11522000D01*
X16573000Y-11850000D02*
X16593000Y-11870000D01*
X16593000Y-11850000D02*
X16573000Y-11870000D01*
X16580000Y-10189000D02*
X16600000Y-10209000D01*
X16600000Y-10189000D02*
X16580000Y-10209000D01*
X16616000Y-12862000D02*
X16636000Y-12882000D01*
X16636000Y-12862000D02*
X16616000Y-12882000D01*
X16644000Y-12524000D02*
X16664000Y-12544000D01*
X16664000Y-12524000D02*
X16644000Y-12544000D01*
X16773000Y-11850000D02*
X16793000Y-11870000D01*
X16793000Y-11850000D02*
X16773000Y-11870000D01*
X16776000Y-10764000D02*
X16796000Y-10784000D01*
X16796000Y-10764000D02*
X16776000Y-10784000D01*
X16833000Y-10483000D02*
X16853000Y-10503000D01*
X16853000Y-10483000D02*
X16833000Y-10503000D01*
X16834000Y-10189000D02*
X16854000Y-10209000D01*
X16854000Y-10189000D02*
X16834000Y-10209000D01*
X16885800Y-12862000D02*
X16905800Y-12882000D01*
X16905800Y-12862000D02*
X16885800Y-12882000D01*
X16896000Y-10735000D02*
X16916000Y-10755000D01*
X16916000Y-10735000D02*
X16896000Y-10755000D01*
X16896000Y-11181000D02*
X16916000Y-11201000D01*
X16916000Y-11181000D02*
X16896000Y-11201000D01*
X16896000Y-11533000D02*
X16916000Y-11553000D01*
X16916000Y-11533000D02*
X16896000Y-11553000D01*
X16959000Y-11850000D02*
X16979000Y-11870000D01*
X16979000Y-11850000D02*
X16959000Y-11870000D01*
X16963000Y-12862000D02*
X16983000Y-12882000D01*
X16983000Y-12862000D02*
X16963000Y-12882000D01*
X17023000Y-10839000D02*
X17043000Y-10859000D01*
X17043000Y-10839000D02*
X17023000Y-10859000D01*
X17023000Y-11007000D02*
X17043000Y-11027000D01*
X17043000Y-11007000D02*
X17023000Y-11027000D01*
X17023000Y-11181000D02*
X17043000Y-11201000D01*
X17043000Y-11181000D02*
X17023000Y-11201000D01*
X17023000Y-11533000D02*
X17043000Y-11553000D01*
X17043000Y-11533000D02*
X17023000Y-11553000D01*
X17087000Y-10483000D02*
X17107000Y-10503000D01*
X17107000Y-10483000D02*
X17087000Y-10503000D01*
X17088000Y-10189000D02*
X17108000Y-10209000D01*
X17108000Y-10189000D02*
X17088000Y-10209000D01*
X17139800Y-12862000D02*
X17159800Y-12882000D01*
X17159800Y-12862000D02*
X17139800Y-12882000D01*
X17150000Y-11181000D02*
X17170000Y-11201000D01*
X17170000Y-11181000D02*
X17150000Y-11201000D01*
X17151000Y-11533000D02*
X17171000Y-11553000D01*
X17171000Y-11533000D02*
X17151000Y-11553000D01*
X17217000Y-12862000D02*
X17237000Y-12882000D01*
X17237000Y-12862000D02*
X17217000Y-12882000D01*
X17342000Y-10189000D02*
X17362000Y-10209000D01*
X17362000Y-10189000D02*
X17342000Y-10209000D01*
X17393800Y-12862000D02*
X17413800Y-12882000D01*
X17413800Y-12862000D02*
X17393800Y-12882000D01*
X17470000Y-12862000D02*
X17490000Y-12882000D01*
X17490000Y-12862000D02*
X17470000Y-12882000D01*
X17531000Y-11048000D02*
X17551000Y-11068000D01*
X17551000Y-11048000D02*
X17531000Y-11068000D01*
X17647800Y-12862000D02*
X17667800Y-12882000D01*
X17667800Y-12862000D02*
X17647800Y-12882000D01*
X17690000Y-11533000D02*
X17710000Y-11553000D01*
X17710000Y-11533000D02*
X17690000Y-11553000D01*
X17723000Y-9971000D02*
X17743000Y-9991000D01*
X17743000Y-9971000D02*
X17723000Y-9991000D01*
X17725000Y-12862000D02*
X17745000Y-12882000D01*
X17745000Y-12862000D02*
X17725000Y-12882000D01*
X17850000Y-10189000D02*
X17870000Y-10209000D01*
X17870000Y-10189000D02*
X17850000Y-10209000D01*
X17850000Y-10483000D02*
X17870000Y-10503000D01*
X17870000Y-10483000D02*
X17850000Y-10503000D01*
X17944000Y-10749000D02*
X17964000Y-10769000D01*
X17964000Y-10749000D02*
X17944000Y-10769000D01*
X18155000Y-12703000D02*
X18175000Y-12723000D01*
X18175000Y-12703000D02*
X18155000Y-12723000D01*
X18155000Y-12773000D02*
X18175000Y-12793000D01*
X18175000Y-12773000D02*
X18155000Y-12793000D01*
X18155000Y-12843000D02*
X18175000Y-12863000D01*
X18175000Y-12843000D02*
X18155000Y-12863000D01*
X18155000Y-12913000D02*
X18175000Y-12933000D01*
X18175000Y-12913000D02*
X18155000Y-12933000D01*
X18191000Y-12608000D02*
X18211000Y-12628000D01*
X18211000Y-12608000D02*
X18191000Y-12628000D01*
X18199000Y-11533000D02*
X18219000Y-11553000D01*
X18219000Y-11533000D02*
X18199000Y-11553000D01*
X18226000Y-12703000D02*
X18246000Y-12723000D01*
X18246000Y-12703000D02*
X18226000Y-12723000D01*
X18226000Y-12773000D02*
X18246000Y-12793000D01*
X18246000Y-12773000D02*
X18226000Y-12793000D01*
X18226000Y-12843000D02*
X18246000Y-12863000D01*
X18246000Y-12843000D02*
X18226000Y-12863000D01*
X18226000Y-12913000D02*
X18246000Y-12933000D01*
X18246000Y-12913000D02*
X18226000Y-12933000D01*
X18295500Y-12944300D02*
X18315500Y-12964300D01*
X18315500Y-12944300D02*
X18295500Y-12964300D01*
X18356000Y-11049000D02*
X18376000Y-11069000D01*
X18376000Y-11049000D02*
X18356000Y-11069000D01*
X19680000Y-8762000D02*
X19700000Y-8782000D01*
X19700000Y-8762000D02*
X19680000Y-8782000D01*
X19680000Y-12894000D02*
X19700000Y-12914000D01*
X19700000Y-12894000D02*
X19680000Y-12914000D01*
X13234000Y-12904000D02*
G75*
G02*
X13194000Y-12904000I-20000J0D01*
G01*
X13194000Y-12904000D02*
G75*
G02*
X13234000Y-12904000I20000J0D01*
G01*
X14782000Y-11596000D02*
G75*
G02*
X14742000Y-11596000I-20000J0D01*
G01*
X14742000Y-11596000D02*
G75*
G02*
X14782000Y-11596000I20000J0D01*
G01*
X14783000Y-11961000D02*
G75*
G02*
X14743000Y-11961000I-20000J0D01*
G01*
X14743000Y-11961000D02*
G75*
G02*
X14783000Y-11961000I20000J0D01*
G01*
X17297000Y-12104000D02*
G75*
G02*
X17257000Y-12104000I-20000J0D01*
G01*
X17257000Y-12104000D02*
G75*
G02*
X17297000Y-12104000I20000J0D01*
G01*
X17987000Y-12911000D02*
G75*
G02*
X17947000Y-12911000I-20000J0D01*
G01*
X17947000Y-12911000D02*
G75*
G02*
X17987000Y-12911000I20000J0D01*
G01*
X11662000Y-9687400D02*
X11662000Y-9767400D01*
X11622000Y-9727400D02*
X11702000Y-9727400D01*
X11663400Y-10298100D02*
X11663400Y-10378100D01*
X11623400Y-10338100D02*
X11703400Y-10338100D01*
X11663400Y-10907700D02*
X11663400Y-10987700D01*
X11623400Y-10947700D02*
X11703400Y-10947700D01*
X11663400Y-12736500D02*
X11663400Y-12816500D01*
X11623400Y-12776500D02*
X11703400Y-12776500D01*
X12418355Y-9687400D02*
X12418355Y-9767400D01*
X12378355Y-9727400D02*
X12458355Y-9727400D01*
X13174711Y-9687400D02*
X13174711Y-9767400D01*
X13134711Y-9727400D02*
X13214711Y-9727400D01*
X15707000Y-12877000D02*
X15707000Y-12957000D01*
X15667000Y-12917000D02*
X15747000Y-12917000D01*
X16956489Y-9687400D02*
X16956489Y-9767400D01*
X16916489Y-9727400D02*
X16996489Y-9727400D01*
X17712844Y-9687400D02*
X17712844Y-9767400D01*
X17672844Y-9727400D02*
X17752844Y-9727400D01*
X18469200Y-9687400D02*
X18469200Y-9767400D01*
X18429200Y-9727400D02*
X18509200Y-9727400D01*
X18469200Y-10309700D02*
X18469200Y-10389700D01*
X18429200Y-10349700D02*
X18509200Y-10349700D01*
X18470600Y-10920400D02*
X18470600Y-11000400D01*
X18430600Y-10960400D02*
X18510600Y-10960400D01*
X18470600Y-12749200D02*
X18470600Y-12829200D01*
X18430600Y-12789200D02*
X18510600Y-12789200D01*
X12307356Y-10664356D02*
X12307356Y-10593644D01*
X12236644Y-10593644D01*
X12236644Y-10664356D01*
X12307356Y-10664356D01*
X12434356Y-10152356D02*
X12434356Y-10081644D01*
X12363644Y-10081644D01*
X12363644Y-10152356D01*
X12434356Y-10152356D01*
X12561356Y-10664356D02*
X12561356Y-10593644D01*
X12490644Y-10593644D01*
X12490644Y-10664356D01*
X12561356Y-10664356D01*
X12688356Y-10152356D02*
X12688356Y-10081644D01*
X12617644Y-10081644D01*
X12617644Y-10152356D01*
X12688356Y-10152356D01*
X12815356Y-10664356D02*
X12815356Y-10593644D01*
X12744644Y-10593644D01*
X12744644Y-10664356D01*
X12815356Y-10664356D01*
X12942356Y-10152356D02*
X12942356Y-10081644D01*
X12871644Y-10081644D01*
X12871644Y-10152356D01*
X12942356Y-10152356D01*
X13069356Y-10664356D02*
X13069356Y-10593644D01*
X12998644Y-10593644D01*
X12998644Y-10664356D01*
X13069356Y-10664356D01*
X13196356Y-10152356D02*
X13196356Y-10081644D01*
X13125644Y-10081644D01*
X13125644Y-10152356D01*
X13196356Y-10152356D01*
X13323356Y-10664356D02*
X13323356Y-10593644D01*
X13252644Y-10593644D01*
X13252644Y-10664356D01*
X13323356Y-10664356D01*
X13450356Y-10152356D02*
X13450356Y-10081644D01*
X13379644Y-10081644D01*
X13379644Y-10152356D01*
X13450356Y-10152356D01*
X13577356Y-10664356D02*
X13577356Y-10593644D01*
X13506644Y-10593644D01*
X13506644Y-10664356D01*
X13577356Y-10664356D01*
X13704356Y-10152356D02*
X13704356Y-10081644D01*
X13633644Y-10081644D01*
X13633644Y-10152356D01*
X13704356Y-10152356D01*
X13831356Y-10664356D02*
X13831356Y-10593644D01*
X13760644Y-10593644D01*
X13760644Y-10664356D01*
X13831356Y-10664356D01*
X13958356Y-10152356D02*
X13958356Y-10081644D01*
X13887644Y-10081644D01*
X13887644Y-10152356D01*
X13958356Y-10152356D01*
X14085356Y-10664356D02*
X14085356Y-10593644D01*
X14014644Y-10593644D01*
X14014644Y-10664356D01*
X14085356Y-10664356D01*
X14212356Y-10152356D02*
X14212356Y-10081644D01*
X14141644Y-10081644D01*
X14141644Y-10152356D01*
X14212356Y-10152356D01*
X14339356Y-10664356D02*
X14339356Y-10593644D01*
X14268644Y-10593644D01*
X14268644Y-10664356D01*
X14339356Y-10664356D01*
X14466356Y-10152356D02*
X14466356Y-10081644D01*
X14395644Y-10081644D01*
X14395644Y-10152356D01*
X14466356Y-10152356D01*
X14593356Y-10664356D02*
X14593356Y-10593644D01*
X14522644Y-10593644D01*
X14522644Y-10664356D01*
X14593356Y-10664356D01*
X14720356Y-10152356D02*
X14720356Y-10081644D01*
X14649644Y-10081644D01*
X14649644Y-10152356D01*
X14720356Y-10152356D01*
X14847356Y-10664356D02*
X14847356Y-10593644D01*
X14776644Y-10593644D01*
X14776644Y-10664356D01*
X14847356Y-10664356D01*
X14974356Y-10152356D02*
X14974356Y-10081644D01*
X14903644Y-10081644D01*
X14903644Y-10152356D01*
X14974356Y-10152356D01*
X15101356Y-10664356D02*
X15101356Y-10593644D01*
X15030644Y-10593644D01*
X15030644Y-10664356D01*
X15101356Y-10664356D01*
X15228356Y-10152356D02*
X15228356Y-10081644D01*
X15157644Y-10081644D01*
X15157644Y-10152356D01*
X15228356Y-10152356D01*
X15355356Y-10664356D02*
X15355356Y-10593644D01*
X15284644Y-10593644D01*
X15284644Y-10664356D01*
X15355356Y-10664356D01*
X15482356Y-10152356D02*
X15482356Y-10081644D01*
X15411644Y-10081644D01*
X15411644Y-10152356D01*
X15482356Y-10152356D01*
X15609356Y-10664356D02*
X15609356Y-10593644D01*
X15538644Y-10593644D01*
X15538644Y-10664356D01*
X15609356Y-10664356D01*
X15736356Y-10152356D02*
X15736356Y-10081644D01*
X15665644Y-10081644D01*
X15665644Y-10152356D01*
X15736356Y-10152356D01*
X15863356Y-10664356D02*
X15863356Y-10593644D01*
X15792644Y-10593644D01*
X15792644Y-10664356D01*
X15863356Y-10664356D01*
X15990356Y-10152356D02*
X15990356Y-10081644D01*
X15919644Y-10081644D01*
X15919644Y-10152356D01*
X15990356Y-10152356D01*
X16117356Y-10664356D02*
X16117356Y-10593644D01*
X16046644Y-10593644D01*
X16046644Y-10664356D01*
X16117356Y-10664356D01*
X16244356Y-10152356D02*
X16244356Y-10081644D01*
X16173644Y-10081644D01*
X16173644Y-10152356D01*
X16244356Y-10152356D01*
X16371356Y-10664356D02*
X16371356Y-10593644D01*
X16300644Y-10593644D01*
X16300644Y-10664356D01*
X16371356Y-10664356D01*
X16498356Y-10152356D02*
X16498356Y-10081644D01*
X16427644Y-10081644D01*
X16427644Y-10152356D01*
X16498356Y-10152356D01*
X16625356Y-10664356D02*
X16625356Y-10593644D01*
X16554644Y-10593644D01*
X16554644Y-10664356D01*
X16625356Y-10664356D01*
X16752356Y-10152356D02*
X16752356Y-10081644D01*
X16681644Y-10081644D01*
X16681644Y-10152356D01*
X16752356Y-10152356D01*
X16879356Y-10664356D02*
X16879356Y-10593644D01*
X16808644Y-10593644D01*
X16808644Y-10664356D01*
X16879356Y-10664356D01*
X17006356Y-10152356D02*
X17006356Y-10081644D01*
X16935644Y-10081644D01*
X16935644Y-10152356D01*
X17006356Y-10152356D01*
X17133356Y-10664356D02*
X17133356Y-10593644D01*
X17062644Y-10593644D01*
X17062644Y-10664356D01*
X17133356Y-10664356D01*
X17260356Y-10152356D02*
X17260356Y-10081644D01*
X17189644Y-10081644D01*
X17189644Y-10152356D01*
X17260356Y-10152356D01*
X17387356Y-10664356D02*
X17387356Y-10593644D01*
X17316644Y-10593644D01*
X17316644Y-10664356D01*
X17387356Y-10664356D01*
X17514356Y-10152356D02*
X17514356Y-10081644D01*
X17443644Y-10081644D01*
X17443644Y-10152356D01*
X17514356Y-10152356D01*
X17641356Y-10664356D02*
X17641356Y-10593644D01*
X17570644Y-10593644D01*
X17570644Y-10664356D01*
X17641356Y-10664356D01*
X17768356Y-10152356D02*
X17768356Y-10081644D01*
X17697644Y-10081644D01*
X17697644Y-10152356D01*
X17768356Y-10152356D01*
X17895356Y-10664356D02*
X17895356Y-10593644D01*
X17824644Y-10593644D01*
X17824644Y-10664356D01*
X17895356Y-10664356D01*
D11*
X10641777Y-14197884D02*
X10641777Y-13997884D01*
X10641777Y-13997884D02*
X10689396Y-13997884D01*
X10689396Y-13997884D02*
X10717967Y-14007408D01*
X10717967Y-14007408D02*
X10737015Y-14026455D01*
X10737015Y-14026455D02*
X10746539Y-14045503D01*
X10746539Y-14045503D02*
X10756063Y-14083598D01*
X10756063Y-14083598D02*
X10756063Y-14112169D01*
X10756063Y-14112169D02*
X10746539Y-14150265D01*
X10746539Y-14150265D02*
X10737015Y-14169312D01*
X10737015Y-14169312D02*
X10717967Y-14188360D01*
X10717967Y-14188360D02*
X10689396Y-14197884D01*
X10689396Y-14197884D02*
X10641777Y-14197884D01*
X10841777Y-14197884D02*
X10841777Y-14064550D01*
X10841777Y-14102646D02*
X10851301Y-14083598D01*
X10851301Y-14083598D02*
X10860824Y-14074074D01*
X10860824Y-14074074D02*
X10879872Y-14064550D01*
X10879872Y-14064550D02*
X10898920Y-14064550D01*
X10965586Y-14197884D02*
X10965586Y-14064550D01*
X10965586Y-13997884D02*
X10956063Y-14007408D01*
X10956063Y-14007408D02*
X10965586Y-14016931D01*
X10965586Y-14016931D02*
X10975110Y-14007408D01*
X10975110Y-14007408D02*
X10965586Y-13997884D01*
X10965586Y-13997884D02*
X10965586Y-14016931D01*
X11089396Y-14197884D02*
X11070348Y-14188360D01*
X11070348Y-14188360D02*
X11060824Y-14169312D01*
X11060824Y-14169312D02*
X11060824Y-13997884D01*
X11194158Y-14197884D02*
X11175110Y-14188360D01*
X11175110Y-14188360D02*
X11165586Y-14169312D01*
X11165586Y-14169312D02*
X11165586Y-13997884D01*
X11422729Y-14197884D02*
X11422729Y-13997884D01*
X11422729Y-13997884D02*
X11489396Y-14140741D01*
X11489396Y-14140741D02*
X11556062Y-13997884D01*
X11556062Y-13997884D02*
X11556062Y-14197884D01*
X11737015Y-14197884D02*
X11737015Y-14093122D01*
X11737015Y-14093122D02*
X11727491Y-14074074D01*
X11727491Y-14074074D02*
X11708443Y-14064550D01*
X11708443Y-14064550D02*
X11670348Y-14064550D01*
X11670348Y-14064550D02*
X11651301Y-14074074D01*
X11737015Y-14188360D02*
X11717967Y-14197884D01*
X11717967Y-14197884D02*
X11670348Y-14197884D01*
X11670348Y-14197884D02*
X11651301Y-14188360D01*
X11651301Y-14188360D02*
X11641777Y-14169312D01*
X11641777Y-14169312D02*
X11641777Y-14150265D01*
X11641777Y-14150265D02*
X11651301Y-14131217D01*
X11651301Y-14131217D02*
X11670348Y-14121693D01*
X11670348Y-14121693D02*
X11717967Y-14121693D01*
X11717967Y-14121693D02*
X11737015Y-14112169D01*
X11832253Y-14064550D02*
X11832253Y-14264550D01*
X11832253Y-14074074D02*
X11851301Y-14064550D01*
X11851301Y-14064550D02*
X11889396Y-14064550D01*
X11889396Y-14064550D02*
X11908443Y-14074074D01*
X11908443Y-14074074D02*
X11917967Y-14083598D01*
X11917967Y-14083598D02*
X11927491Y-14102646D01*
X11927491Y-14102646D02*
X11927491Y-14159788D01*
X11927491Y-14159788D02*
X11917967Y-14178836D01*
X11917967Y-14178836D02*
X11908443Y-14188360D01*
X11908443Y-14188360D02*
X11889396Y-14197884D01*
X11889396Y-14197884D02*
X11851301Y-14197884D01*
X11851301Y-14197884D02*
X11832253Y-14188360D01*
X12013205Y-14178836D02*
X12022729Y-14188360D01*
X12022729Y-14188360D02*
X12013205Y-14197884D01*
X12013205Y-14197884D02*
X12003682Y-14188360D01*
X12003682Y-14188360D02*
X12013205Y-14178836D01*
X12013205Y-14178836D02*
X12013205Y-14197884D01*
X12013205Y-14074074D02*
X12022729Y-14083598D01*
X12022729Y-14083598D02*
X12013205Y-14093122D01*
X12013205Y-14093122D02*
X12003682Y-14083598D01*
X12003682Y-14083598D02*
X12013205Y-14074074D01*
X12013205Y-14074074D02*
X12013205Y-14093122D01*
D10*
X10361000Y-14516400D02*
X10381000Y-14536400D01*
X10381000Y-14516400D02*
X10361000Y-14536400D01*
D11*
X10679872Y-14417884D02*
X10698920Y-14417884D01*
X10698920Y-14417884D02*
X10717967Y-14427408D01*
X10717967Y-14427408D02*
X10727491Y-14436931D01*
X10727491Y-14436931D02*
X10737015Y-14455979D01*
X10737015Y-14455979D02*
X10746539Y-14494074D01*
X10746539Y-14494074D02*
X10746539Y-14541693D01*
X10746539Y-14541693D02*
X10737015Y-14579788D01*
X10737015Y-14579788D02*
X10727491Y-14598836D01*
X10727491Y-14598836D02*
X10717967Y-14608360D01*
X10717967Y-14608360D02*
X10698920Y-14617884D01*
X10698920Y-14617884D02*
X10679872Y-14617884D01*
X10679872Y-14617884D02*
X10660824Y-14608360D01*
X10660824Y-14608360D02*
X10651301Y-14598836D01*
X10651301Y-14598836D02*
X10641777Y-14579788D01*
X10641777Y-14579788D02*
X10632253Y-14541693D01*
X10632253Y-14541693D02*
X10632253Y-14494074D01*
X10632253Y-14494074D02*
X10641777Y-14455979D01*
X10641777Y-14455979D02*
X10651301Y-14436931D01*
X10651301Y-14436931D02*
X10660824Y-14427408D01*
X10660824Y-14427408D02*
X10679872Y-14417884D01*
X10832253Y-14598836D02*
X10841777Y-14608360D01*
X10841777Y-14608360D02*
X10832253Y-14617884D01*
X10832253Y-14617884D02*
X10822729Y-14608360D01*
X10822729Y-14608360D02*
X10832253Y-14598836D01*
X10832253Y-14598836D02*
X10832253Y-14617884D01*
X10917967Y-14436931D02*
X10927491Y-14427408D01*
X10927491Y-14427408D02*
X10946539Y-14417884D01*
X10946539Y-14417884D02*
X10994158Y-14417884D01*
X10994158Y-14417884D02*
X11013205Y-14427408D01*
X11013205Y-14427408D02*
X11022729Y-14436931D01*
X11022729Y-14436931D02*
X11032253Y-14455979D01*
X11032253Y-14455979D02*
X11032253Y-14475027D01*
X11032253Y-14475027D02*
X11022729Y-14503598D01*
X11022729Y-14503598D02*
X10908444Y-14617884D01*
X10908444Y-14617884D02*
X11032253Y-14617884D01*
X11156063Y-14417884D02*
X11175110Y-14417884D01*
X11175110Y-14417884D02*
X11194158Y-14427408D01*
X11194158Y-14427408D02*
X11203682Y-14436931D01*
X11203682Y-14436931D02*
X11213205Y-14455979D01*
X11213205Y-14455979D02*
X11222729Y-14494074D01*
X11222729Y-14494074D02*
X11222729Y-14541693D01*
X11222729Y-14541693D02*
X11213205Y-14579788D01*
X11213205Y-14579788D02*
X11203682Y-14598836D01*
X11203682Y-14598836D02*
X11194158Y-14608360D01*
X11194158Y-14608360D02*
X11175110Y-14617884D01*
X11175110Y-14617884D02*
X11156063Y-14617884D01*
X11156063Y-14617884D02*
X11137015Y-14608360D01*
X11137015Y-14608360D02*
X11127491Y-14598836D01*
X11127491Y-14598836D02*
X11117967Y-14579788D01*
X11117967Y-14579788D02*
X11108444Y-14541693D01*
X11108444Y-14541693D02*
X11108444Y-14494074D01*
X11108444Y-14494074D02*
X11117967Y-14455979D01*
X11117967Y-14455979D02*
X11127491Y-14436931D01*
X11127491Y-14436931D02*
X11137015Y-14427408D01*
X11137015Y-14427408D02*
X11156063Y-14417884D01*
X11346539Y-14417884D02*
X11365586Y-14417884D01*
X11365586Y-14417884D02*
X11384634Y-14427408D01*
X11384634Y-14427408D02*
X11394158Y-14436931D01*
X11394158Y-14436931D02*
X11403682Y-14455979D01*
X11403682Y-14455979D02*
X11413205Y-14494074D01*
X11413205Y-14494074D02*
X11413205Y-14541693D01*
X11413205Y-14541693D02*
X11403682Y-14579788D01*
X11403682Y-14579788D02*
X11394158Y-14598836D01*
X11394158Y-14598836D02*
X11384634Y-14608360D01*
X11384634Y-14608360D02*
X11365586Y-14617884D01*
X11365586Y-14617884D02*
X11346539Y-14617884D01*
X11346539Y-14617884D02*
X11327491Y-14608360D01*
X11327491Y-14608360D02*
X11317967Y-14598836D01*
X11317967Y-14598836D02*
X11308443Y-14579788D01*
X11308443Y-14579788D02*
X11298920Y-14541693D01*
X11298920Y-14541693D02*
X11298920Y-14494074D01*
X11298920Y-14494074D02*
X11308443Y-14455979D01*
X11308443Y-14455979D02*
X11317967Y-14436931D01*
X11317967Y-14436931D02*
X11327491Y-14427408D01*
X11327491Y-14427408D02*
X11346539Y-14417884D01*
X11498920Y-14617884D02*
X11498920Y-14484550D01*
X11498920Y-14503598D02*
X11508443Y-14494074D01*
X11508443Y-14494074D02*
X11527491Y-14484550D01*
X11527491Y-14484550D02*
X11556063Y-14484550D01*
X11556063Y-14484550D02*
X11575110Y-14494074D01*
X11575110Y-14494074D02*
X11584634Y-14513122D01*
X11584634Y-14513122D02*
X11584634Y-14617884D01*
X11584634Y-14513122D02*
X11594158Y-14494074D01*
X11594158Y-14494074D02*
X11613205Y-14484550D01*
X11613205Y-14484550D02*
X11641777Y-14484550D01*
X11641777Y-14484550D02*
X11660824Y-14494074D01*
X11660824Y-14494074D02*
X11670348Y-14513122D01*
X11670348Y-14513122D02*
X11670348Y-14617884D01*
X11765586Y-14617884D02*
X11765586Y-14484550D01*
X11765586Y-14503598D02*
X11775110Y-14494074D01*
X11775110Y-14494074D02*
X11794158Y-14484550D01*
X11794158Y-14484550D02*
X11822729Y-14484550D01*
X11822729Y-14484550D02*
X11841777Y-14494074D01*
X11841777Y-14494074D02*
X11851301Y-14513122D01*
X11851301Y-14513122D02*
X11851301Y-14617884D01*
X11851301Y-14513122D02*
X11860824Y-14494074D01*
X11860824Y-14494074D02*
X11879872Y-14484550D01*
X11879872Y-14484550D02*
X11908443Y-14484550D01*
X11908443Y-14484550D02*
X11927491Y-14494074D01*
X11927491Y-14494074D02*
X11937015Y-14513122D01*
X11937015Y-14513122D02*
X11937015Y-14617884D01*
X12327491Y-14408360D02*
X12156063Y-14665503D01*
X12584634Y-14417884D02*
X12603682Y-14417884D01*
X12603682Y-14417884D02*
X12622729Y-14427408D01*
X12622729Y-14427408D02*
X12632253Y-14436931D01*
X12632253Y-14436931D02*
X12641777Y-14455979D01*
X12641777Y-14455979D02*
X12651301Y-14494074D01*
X12651301Y-14494074D02*
X12651301Y-14541693D01*
X12651301Y-14541693D02*
X12641777Y-14579788D01*
X12641777Y-14579788D02*
X12632253Y-14598836D01*
X12632253Y-14598836D02*
X12622729Y-14608360D01*
X12622729Y-14608360D02*
X12603682Y-14617884D01*
X12603682Y-14617884D02*
X12584634Y-14617884D01*
X12584634Y-14617884D02*
X12565586Y-14608360D01*
X12565586Y-14608360D02*
X12556063Y-14598836D01*
X12556063Y-14598836D02*
X12546539Y-14579788D01*
X12546539Y-14579788D02*
X12537015Y-14541693D01*
X12537015Y-14541693D02*
X12537015Y-14494074D01*
X12537015Y-14494074D02*
X12546539Y-14455979D01*
X12546539Y-14455979D02*
X12556063Y-14436931D01*
X12556063Y-14436931D02*
X12565586Y-14427408D01*
X12565586Y-14427408D02*
X12584634Y-14417884D01*
X12737015Y-14598836D02*
X12746539Y-14608360D01*
X12746539Y-14608360D02*
X12737015Y-14617884D01*
X12737015Y-14617884D02*
X12727491Y-14608360D01*
X12727491Y-14608360D02*
X12737015Y-14598836D01*
X12737015Y-14598836D02*
X12737015Y-14617884D01*
X12870348Y-14417884D02*
X12889396Y-14417884D01*
X12889396Y-14417884D02*
X12908444Y-14427408D01*
X12908444Y-14427408D02*
X12917967Y-14436931D01*
X12917967Y-14436931D02*
X12927491Y-14455979D01*
X12927491Y-14455979D02*
X12937015Y-14494074D01*
X12937015Y-14494074D02*
X12937015Y-14541693D01*
X12937015Y-14541693D02*
X12927491Y-14579788D01*
X12927491Y-14579788D02*
X12917967Y-14598836D01*
X12917967Y-14598836D02*
X12908444Y-14608360D01*
X12908444Y-14608360D02*
X12889396Y-14617884D01*
X12889396Y-14617884D02*
X12870348Y-14617884D01*
X12870348Y-14617884D02*
X12851301Y-14608360D01*
X12851301Y-14608360D02*
X12841777Y-14598836D01*
X12841777Y-14598836D02*
X12832253Y-14579788D01*
X12832253Y-14579788D02*
X12822729Y-14541693D01*
X12822729Y-14541693D02*
X12822729Y-14494074D01*
X12822729Y-14494074D02*
X12832253Y-14455979D01*
X12832253Y-14455979D02*
X12841777Y-14436931D01*
X12841777Y-14436931D02*
X12851301Y-14427408D01*
X12851301Y-14427408D02*
X12870348Y-14417884D01*
X13060825Y-14417884D02*
X13079872Y-14417884D01*
X13079872Y-14417884D02*
X13098920Y-14427408D01*
X13098920Y-14427408D02*
X13108444Y-14436931D01*
X13108444Y-14436931D02*
X13117967Y-14455979D01*
X13117967Y-14455979D02*
X13127491Y-14494074D01*
X13127491Y-14494074D02*
X13127491Y-14541693D01*
X13127491Y-14541693D02*
X13117967Y-14579788D01*
X13117967Y-14579788D02*
X13108444Y-14598836D01*
X13108444Y-14598836D02*
X13098920Y-14608360D01*
X13098920Y-14608360D02*
X13079872Y-14617884D01*
X13079872Y-14617884D02*
X13060825Y-14617884D01*
X13060825Y-14617884D02*
X13041777Y-14608360D01*
X13041777Y-14608360D02*
X13032253Y-14598836D01*
X13032253Y-14598836D02*
X13022729Y-14579788D01*
X13022729Y-14579788D02*
X13013206Y-14541693D01*
X13013206Y-14541693D02*
X13013206Y-14494074D01*
X13013206Y-14494074D02*
X13022729Y-14455979D01*
X13022729Y-14455979D02*
X13032253Y-14436931D01*
X13032253Y-14436931D02*
X13041777Y-14427408D01*
X13041777Y-14427408D02*
X13060825Y-14417884D01*
X13194158Y-14417884D02*
X13327491Y-14417884D01*
X13327491Y-14417884D02*
X13241777Y-14617884D01*
X13413206Y-14617884D02*
X13451301Y-14617884D01*
X13451301Y-14617884D02*
X13470348Y-14608360D01*
X13470348Y-14608360D02*
X13479872Y-14598836D01*
X13479872Y-14598836D02*
X13498920Y-14570265D01*
X13498920Y-14570265D02*
X13508444Y-14532169D01*
X13508444Y-14532169D02*
X13508444Y-14455979D01*
X13508444Y-14455979D02*
X13498920Y-14436931D01*
X13498920Y-14436931D02*
X13489396Y-14427408D01*
X13489396Y-14427408D02*
X13470348Y-14417884D01*
X13470348Y-14417884D02*
X13432253Y-14417884D01*
X13432253Y-14417884D02*
X13413206Y-14427408D01*
X13413206Y-14427408D02*
X13403682Y-14436931D01*
X13403682Y-14436931D02*
X13394158Y-14455979D01*
X13394158Y-14455979D02*
X13394158Y-14503598D01*
X13394158Y-14503598D02*
X13403682Y-14522646D01*
X13403682Y-14522646D02*
X13413206Y-14532169D01*
X13413206Y-14532169D02*
X13432253Y-14541693D01*
X13432253Y-14541693D02*
X13470348Y-14541693D01*
X13470348Y-14541693D02*
X13489396Y-14532169D01*
X13489396Y-14532169D02*
X13498920Y-14522646D01*
X13498920Y-14522646D02*
X13508444Y-14503598D01*
X13584634Y-14417884D02*
X13584634Y-14455979D01*
X13660825Y-14417884D02*
X13660825Y-14455979D01*
X13956063Y-14694074D02*
X13946539Y-14684550D01*
X13946539Y-14684550D02*
X13927491Y-14655979D01*
X13927491Y-14655979D02*
X13917968Y-14636931D01*
X13917968Y-14636931D02*
X13908444Y-14608360D01*
X13908444Y-14608360D02*
X13898920Y-14560741D01*
X13898920Y-14560741D02*
X13898920Y-14522646D01*
X13898920Y-14522646D02*
X13908444Y-14475027D01*
X13908444Y-14475027D02*
X13917968Y-14446455D01*
X13917968Y-14446455D02*
X13927491Y-14427408D01*
X13927491Y-14427408D02*
X13946539Y-14398836D01*
X13946539Y-14398836D02*
X13956063Y-14389312D01*
X14137015Y-14617884D02*
X14022729Y-14617884D01*
X14079872Y-14617884D02*
X14079872Y-14417884D01*
X14079872Y-14417884D02*
X14060825Y-14446455D01*
X14060825Y-14446455D02*
X14041777Y-14465503D01*
X14041777Y-14465503D02*
X14022729Y-14475027D01*
X14317968Y-14417884D02*
X14222729Y-14417884D01*
X14222729Y-14417884D02*
X14213206Y-14513122D01*
X14213206Y-14513122D02*
X14222729Y-14503598D01*
X14222729Y-14503598D02*
X14241777Y-14494074D01*
X14241777Y-14494074D02*
X14289396Y-14494074D01*
X14289396Y-14494074D02*
X14308444Y-14503598D01*
X14308444Y-14503598D02*
X14317968Y-14513122D01*
X14317968Y-14513122D02*
X14327491Y-14532169D01*
X14327491Y-14532169D02*
X14327491Y-14579788D01*
X14327491Y-14579788D02*
X14317968Y-14598836D01*
X14317968Y-14598836D02*
X14308444Y-14608360D01*
X14308444Y-14608360D02*
X14289396Y-14617884D01*
X14289396Y-14617884D02*
X14241777Y-14617884D01*
X14241777Y-14617884D02*
X14222729Y-14608360D01*
X14222729Y-14608360D02*
X14213206Y-14598836D01*
X14394158Y-14417884D02*
X14527491Y-14417884D01*
X14527491Y-14417884D02*
X14441777Y-14617884D01*
X14756063Y-14617884D02*
X14756063Y-14417884D01*
X14841777Y-14617884D02*
X14841777Y-14513122D01*
X14841777Y-14513122D02*
X14832253Y-14494074D01*
X14832253Y-14494074D02*
X14813206Y-14484550D01*
X14813206Y-14484550D02*
X14784634Y-14484550D01*
X14784634Y-14484550D02*
X14765587Y-14494074D01*
X14765587Y-14494074D02*
X14756063Y-14503598D01*
X14965587Y-14617884D02*
X14946539Y-14608360D01*
X14946539Y-14608360D02*
X14937015Y-14598836D01*
X14937015Y-14598836D02*
X14927491Y-14579788D01*
X14927491Y-14579788D02*
X14927491Y-14522646D01*
X14927491Y-14522646D02*
X14937015Y-14503598D01*
X14937015Y-14503598D02*
X14946539Y-14494074D01*
X14946539Y-14494074D02*
X14965587Y-14484550D01*
X14965587Y-14484550D02*
X14994158Y-14484550D01*
X14994158Y-14484550D02*
X15013206Y-14494074D01*
X15013206Y-14494074D02*
X15022730Y-14503598D01*
X15022730Y-14503598D02*
X15032253Y-14522646D01*
X15032253Y-14522646D02*
X15032253Y-14579788D01*
X15032253Y-14579788D02*
X15022730Y-14598836D01*
X15022730Y-14598836D02*
X15013206Y-14608360D01*
X15013206Y-14608360D02*
X14994158Y-14617884D01*
X14994158Y-14617884D02*
X14965587Y-14617884D01*
X15146539Y-14617884D02*
X15127491Y-14608360D01*
X15127491Y-14608360D02*
X15117968Y-14589312D01*
X15117968Y-14589312D02*
X15117968Y-14417884D01*
X15298920Y-14608360D02*
X15279872Y-14617884D01*
X15279872Y-14617884D02*
X15241777Y-14617884D01*
X15241777Y-14617884D02*
X15222730Y-14608360D01*
X15222730Y-14608360D02*
X15213206Y-14589312D01*
X15213206Y-14589312D02*
X15213206Y-14513122D01*
X15213206Y-14513122D02*
X15222730Y-14494074D01*
X15222730Y-14494074D02*
X15241777Y-14484550D01*
X15241777Y-14484550D02*
X15279872Y-14484550D01*
X15279872Y-14484550D02*
X15298920Y-14494074D01*
X15298920Y-14494074D02*
X15308444Y-14513122D01*
X15308444Y-14513122D02*
X15308444Y-14532169D01*
X15308444Y-14532169D02*
X15213206Y-14551217D01*
X15384634Y-14608360D02*
X15403682Y-14617884D01*
X15403682Y-14617884D02*
X15441777Y-14617884D01*
X15441777Y-14617884D02*
X15460825Y-14608360D01*
X15460825Y-14608360D02*
X15470349Y-14589312D01*
X15470349Y-14589312D02*
X15470349Y-14579788D01*
X15470349Y-14579788D02*
X15460825Y-14560741D01*
X15460825Y-14560741D02*
X15441777Y-14551217D01*
X15441777Y-14551217D02*
X15413206Y-14551217D01*
X15413206Y-14551217D02*
X15394158Y-14541693D01*
X15394158Y-14541693D02*
X15384634Y-14522646D01*
X15384634Y-14522646D02*
X15384634Y-14513122D01*
X15384634Y-14513122D02*
X15394158Y-14494074D01*
X15394158Y-14494074D02*
X15413206Y-14484550D01*
X15413206Y-14484550D02*
X15441777Y-14484550D01*
X15441777Y-14484550D02*
X15460825Y-14494074D01*
X15537015Y-14694074D02*
X15546539Y-14684550D01*
X15546539Y-14684550D02*
X15565587Y-14655979D01*
X15565587Y-14655979D02*
X15575111Y-14636931D01*
X15575111Y-14636931D02*
X15584634Y-14608360D01*
X15584634Y-14608360D02*
X15594158Y-14560741D01*
X15594158Y-14560741D02*
X15594158Y-14522646D01*
X15594158Y-14522646D02*
X15584634Y-14475027D01*
X15584634Y-14475027D02*
X15575111Y-14446455D01*
X15575111Y-14446455D02*
X15565587Y-14427408D01*
X15565587Y-14427408D02*
X15546539Y-14398836D01*
X15546539Y-14398836D02*
X15537015Y-14389312D01*
D10*
X10381000Y-14790400D02*
G75*
G02*
X10341000Y-14790400I-20000J0D01*
G01*
X10341000Y-14790400D02*
G75*
G02*
X10381000Y-14790400I20000J0D01*
G01*
D11*
X10679872Y-14681884D02*
X10698920Y-14681884D01*
X10698920Y-14681884D02*
X10717967Y-14691408D01*
X10717967Y-14691408D02*
X10727491Y-14700931D01*
X10727491Y-14700931D02*
X10737015Y-14719979D01*
X10737015Y-14719979D02*
X10746539Y-14758074D01*
X10746539Y-14758074D02*
X10746539Y-14805693D01*
X10746539Y-14805693D02*
X10737015Y-14843788D01*
X10737015Y-14843788D02*
X10727491Y-14862836D01*
X10727491Y-14862836D02*
X10717967Y-14872360D01*
X10717967Y-14872360D02*
X10698920Y-14881884D01*
X10698920Y-14881884D02*
X10679872Y-14881884D01*
X10679872Y-14881884D02*
X10660824Y-14872360D01*
X10660824Y-14872360D02*
X10651301Y-14862836D01*
X10651301Y-14862836D02*
X10641777Y-14843788D01*
X10641777Y-14843788D02*
X10632253Y-14805693D01*
X10632253Y-14805693D02*
X10632253Y-14758074D01*
X10632253Y-14758074D02*
X10641777Y-14719979D01*
X10641777Y-14719979D02*
X10651301Y-14700931D01*
X10651301Y-14700931D02*
X10660824Y-14691408D01*
X10660824Y-14691408D02*
X10679872Y-14681884D01*
X10832253Y-14862836D02*
X10841777Y-14872360D01*
X10841777Y-14872360D02*
X10832253Y-14881884D01*
X10832253Y-14881884D02*
X10822729Y-14872360D01*
X10822729Y-14872360D02*
X10832253Y-14862836D01*
X10832253Y-14862836D02*
X10832253Y-14881884D01*
X11013205Y-14748550D02*
X11013205Y-14881884D01*
X10965586Y-14672360D02*
X10917967Y-14815217D01*
X10917967Y-14815217D02*
X11041777Y-14815217D01*
X11156063Y-14681884D02*
X11175110Y-14681884D01*
X11175110Y-14681884D02*
X11194158Y-14691408D01*
X11194158Y-14691408D02*
X11203682Y-14700931D01*
X11203682Y-14700931D02*
X11213205Y-14719979D01*
X11213205Y-14719979D02*
X11222729Y-14758074D01*
X11222729Y-14758074D02*
X11222729Y-14805693D01*
X11222729Y-14805693D02*
X11213205Y-14843788D01*
X11213205Y-14843788D02*
X11203682Y-14862836D01*
X11203682Y-14862836D02*
X11194158Y-14872360D01*
X11194158Y-14872360D02*
X11175110Y-14881884D01*
X11175110Y-14881884D02*
X11156063Y-14881884D01*
X11156063Y-14881884D02*
X11137015Y-14872360D01*
X11137015Y-14872360D02*
X11127491Y-14862836D01*
X11127491Y-14862836D02*
X11117967Y-14843788D01*
X11117967Y-14843788D02*
X11108444Y-14805693D01*
X11108444Y-14805693D02*
X11108444Y-14758074D01*
X11108444Y-14758074D02*
X11117967Y-14719979D01*
X11117967Y-14719979D02*
X11127491Y-14700931D01*
X11127491Y-14700931D02*
X11137015Y-14691408D01*
X11137015Y-14691408D02*
X11156063Y-14681884D01*
X11346539Y-14681884D02*
X11365586Y-14681884D01*
X11365586Y-14681884D02*
X11384634Y-14691408D01*
X11384634Y-14691408D02*
X11394158Y-14700931D01*
X11394158Y-14700931D02*
X11403682Y-14719979D01*
X11403682Y-14719979D02*
X11413205Y-14758074D01*
X11413205Y-14758074D02*
X11413205Y-14805693D01*
X11413205Y-14805693D02*
X11403682Y-14843788D01*
X11403682Y-14843788D02*
X11394158Y-14862836D01*
X11394158Y-14862836D02*
X11384634Y-14872360D01*
X11384634Y-14872360D02*
X11365586Y-14881884D01*
X11365586Y-14881884D02*
X11346539Y-14881884D01*
X11346539Y-14881884D02*
X11327491Y-14872360D01*
X11327491Y-14872360D02*
X11317967Y-14862836D01*
X11317967Y-14862836D02*
X11308443Y-14843788D01*
X11308443Y-14843788D02*
X11298920Y-14805693D01*
X11298920Y-14805693D02*
X11298920Y-14758074D01*
X11298920Y-14758074D02*
X11308443Y-14719979D01*
X11308443Y-14719979D02*
X11317967Y-14700931D01*
X11317967Y-14700931D02*
X11327491Y-14691408D01*
X11327491Y-14691408D02*
X11346539Y-14681884D01*
X11498920Y-14881884D02*
X11498920Y-14748550D01*
X11498920Y-14767598D02*
X11508443Y-14758074D01*
X11508443Y-14758074D02*
X11527491Y-14748550D01*
X11527491Y-14748550D02*
X11556063Y-14748550D01*
X11556063Y-14748550D02*
X11575110Y-14758074D01*
X11575110Y-14758074D02*
X11584634Y-14777122D01*
X11584634Y-14777122D02*
X11584634Y-14881884D01*
X11584634Y-14777122D02*
X11594158Y-14758074D01*
X11594158Y-14758074D02*
X11613205Y-14748550D01*
X11613205Y-14748550D02*
X11641777Y-14748550D01*
X11641777Y-14748550D02*
X11660824Y-14758074D01*
X11660824Y-14758074D02*
X11670348Y-14777122D01*
X11670348Y-14777122D02*
X11670348Y-14881884D01*
X11765586Y-14881884D02*
X11765586Y-14748550D01*
X11765586Y-14767598D02*
X11775110Y-14758074D01*
X11775110Y-14758074D02*
X11794158Y-14748550D01*
X11794158Y-14748550D02*
X11822729Y-14748550D01*
X11822729Y-14748550D02*
X11841777Y-14758074D01*
X11841777Y-14758074D02*
X11851301Y-14777122D01*
X11851301Y-14777122D02*
X11851301Y-14881884D01*
X11851301Y-14777122D02*
X11860824Y-14758074D01*
X11860824Y-14758074D02*
X11879872Y-14748550D01*
X11879872Y-14748550D02*
X11908443Y-14748550D01*
X11908443Y-14748550D02*
X11927491Y-14758074D01*
X11927491Y-14758074D02*
X11937015Y-14777122D01*
X11937015Y-14777122D02*
X11937015Y-14881884D01*
X12327491Y-14672360D02*
X12156063Y-14929503D01*
X12584634Y-14681884D02*
X12603682Y-14681884D01*
X12603682Y-14681884D02*
X12622729Y-14691408D01*
X12622729Y-14691408D02*
X12632253Y-14700931D01*
X12632253Y-14700931D02*
X12641777Y-14719979D01*
X12641777Y-14719979D02*
X12651301Y-14758074D01*
X12651301Y-14758074D02*
X12651301Y-14805693D01*
X12651301Y-14805693D02*
X12641777Y-14843788D01*
X12641777Y-14843788D02*
X12632253Y-14862836D01*
X12632253Y-14862836D02*
X12622729Y-14872360D01*
X12622729Y-14872360D02*
X12603682Y-14881884D01*
X12603682Y-14881884D02*
X12584634Y-14881884D01*
X12584634Y-14881884D02*
X12565586Y-14872360D01*
X12565586Y-14872360D02*
X12556063Y-14862836D01*
X12556063Y-14862836D02*
X12546539Y-14843788D01*
X12546539Y-14843788D02*
X12537015Y-14805693D01*
X12537015Y-14805693D02*
X12537015Y-14758074D01*
X12537015Y-14758074D02*
X12546539Y-14719979D01*
X12546539Y-14719979D02*
X12556063Y-14700931D01*
X12556063Y-14700931D02*
X12565586Y-14691408D01*
X12565586Y-14691408D02*
X12584634Y-14681884D01*
X12737015Y-14862836D02*
X12746539Y-14872360D01*
X12746539Y-14872360D02*
X12737015Y-14881884D01*
X12737015Y-14881884D02*
X12727491Y-14872360D01*
X12727491Y-14872360D02*
X12737015Y-14862836D01*
X12737015Y-14862836D02*
X12737015Y-14881884D01*
X12870348Y-14681884D02*
X12889396Y-14681884D01*
X12889396Y-14681884D02*
X12908444Y-14691408D01*
X12908444Y-14691408D02*
X12917967Y-14700931D01*
X12917967Y-14700931D02*
X12927491Y-14719979D01*
X12927491Y-14719979D02*
X12937015Y-14758074D01*
X12937015Y-14758074D02*
X12937015Y-14805693D01*
X12937015Y-14805693D02*
X12927491Y-14843788D01*
X12927491Y-14843788D02*
X12917967Y-14862836D01*
X12917967Y-14862836D02*
X12908444Y-14872360D01*
X12908444Y-14872360D02*
X12889396Y-14881884D01*
X12889396Y-14881884D02*
X12870348Y-14881884D01*
X12870348Y-14881884D02*
X12851301Y-14872360D01*
X12851301Y-14872360D02*
X12841777Y-14862836D01*
X12841777Y-14862836D02*
X12832253Y-14843788D01*
X12832253Y-14843788D02*
X12822729Y-14805693D01*
X12822729Y-14805693D02*
X12822729Y-14758074D01*
X12822729Y-14758074D02*
X12832253Y-14719979D01*
X12832253Y-14719979D02*
X12841777Y-14700931D01*
X12841777Y-14700931D02*
X12851301Y-14691408D01*
X12851301Y-14691408D02*
X12870348Y-14681884D01*
X13127491Y-14881884D02*
X13013206Y-14881884D01*
X13070348Y-14881884D02*
X13070348Y-14681884D01*
X13070348Y-14681884D02*
X13051301Y-14710455D01*
X13051301Y-14710455D02*
X13032253Y-14729503D01*
X13032253Y-14729503D02*
X13013206Y-14739027D01*
X13308444Y-14681884D02*
X13213206Y-14681884D01*
X13213206Y-14681884D02*
X13203682Y-14777122D01*
X13203682Y-14777122D02*
X13213206Y-14767598D01*
X13213206Y-14767598D02*
X13232253Y-14758074D01*
X13232253Y-14758074D02*
X13279872Y-14758074D01*
X13279872Y-14758074D02*
X13298920Y-14767598D01*
X13298920Y-14767598D02*
X13308444Y-14777122D01*
X13308444Y-14777122D02*
X13317967Y-14796169D01*
X13317967Y-14796169D02*
X13317967Y-14843788D01*
X13317967Y-14843788D02*
X13308444Y-14862836D01*
X13308444Y-14862836D02*
X13298920Y-14872360D01*
X13298920Y-14872360D02*
X13279872Y-14881884D01*
X13279872Y-14881884D02*
X13232253Y-14881884D01*
X13232253Y-14881884D02*
X13213206Y-14872360D01*
X13213206Y-14872360D02*
X13203682Y-14862836D01*
X13384634Y-14681884D02*
X13517967Y-14681884D01*
X13517967Y-14681884D02*
X13432253Y-14881884D01*
X13584634Y-14681884D02*
X13584634Y-14719979D01*
X13660825Y-14681884D02*
X13660825Y-14719979D01*
X13956063Y-14958074D02*
X13946539Y-14948550D01*
X13946539Y-14948550D02*
X13927491Y-14919979D01*
X13927491Y-14919979D02*
X13917968Y-14900931D01*
X13917968Y-14900931D02*
X13908444Y-14872360D01*
X13908444Y-14872360D02*
X13898920Y-14824741D01*
X13898920Y-14824741D02*
X13898920Y-14786646D01*
X13898920Y-14786646D02*
X13908444Y-14739027D01*
X13908444Y-14739027D02*
X13917968Y-14710455D01*
X13917968Y-14710455D02*
X13927491Y-14691408D01*
X13927491Y-14691408D02*
X13946539Y-14662836D01*
X13946539Y-14662836D02*
X13956063Y-14653312D01*
X14127491Y-14681884D02*
X14032253Y-14681884D01*
X14032253Y-14681884D02*
X14022729Y-14777122D01*
X14022729Y-14777122D02*
X14032253Y-14767598D01*
X14032253Y-14767598D02*
X14051301Y-14758074D01*
X14051301Y-14758074D02*
X14098920Y-14758074D01*
X14098920Y-14758074D02*
X14117968Y-14767598D01*
X14117968Y-14767598D02*
X14127491Y-14777122D01*
X14127491Y-14777122D02*
X14137015Y-14796169D01*
X14137015Y-14796169D02*
X14137015Y-14843788D01*
X14137015Y-14843788D02*
X14127491Y-14862836D01*
X14127491Y-14862836D02*
X14117968Y-14872360D01*
X14117968Y-14872360D02*
X14098920Y-14881884D01*
X14098920Y-14881884D02*
X14051301Y-14881884D01*
X14051301Y-14881884D02*
X14032253Y-14872360D01*
X14032253Y-14872360D02*
X14022729Y-14862836D01*
X14375110Y-14881884D02*
X14375110Y-14681884D01*
X14460825Y-14881884D02*
X14460825Y-14777122D01*
X14460825Y-14777122D02*
X14451301Y-14758074D01*
X14451301Y-14758074D02*
X14432253Y-14748550D01*
X14432253Y-14748550D02*
X14403682Y-14748550D01*
X14403682Y-14748550D02*
X14384634Y-14758074D01*
X14384634Y-14758074D02*
X14375110Y-14767598D01*
X14584634Y-14881884D02*
X14565587Y-14872360D01*
X14565587Y-14872360D02*
X14556063Y-14862836D01*
X14556063Y-14862836D02*
X14546539Y-14843788D01*
X14546539Y-14843788D02*
X14546539Y-14786646D01*
X14546539Y-14786646D02*
X14556063Y-14767598D01*
X14556063Y-14767598D02*
X14565587Y-14758074D01*
X14565587Y-14758074D02*
X14584634Y-14748550D01*
X14584634Y-14748550D02*
X14613206Y-14748550D01*
X14613206Y-14748550D02*
X14632253Y-14758074D01*
X14632253Y-14758074D02*
X14641777Y-14767598D01*
X14641777Y-14767598D02*
X14651301Y-14786646D01*
X14651301Y-14786646D02*
X14651301Y-14843788D01*
X14651301Y-14843788D02*
X14641777Y-14862836D01*
X14641777Y-14862836D02*
X14632253Y-14872360D01*
X14632253Y-14872360D02*
X14613206Y-14881884D01*
X14613206Y-14881884D02*
X14584634Y-14881884D01*
X14765587Y-14881884D02*
X14746539Y-14872360D01*
X14746539Y-14872360D02*
X14737015Y-14853312D01*
X14737015Y-14853312D02*
X14737015Y-14681884D01*
X14917968Y-14872360D02*
X14898920Y-14881884D01*
X14898920Y-14881884D02*
X14860825Y-14881884D01*
X14860825Y-14881884D02*
X14841777Y-14872360D01*
X14841777Y-14872360D02*
X14832253Y-14853312D01*
X14832253Y-14853312D02*
X14832253Y-14777122D01*
X14832253Y-14777122D02*
X14841777Y-14758074D01*
X14841777Y-14758074D02*
X14860825Y-14748550D01*
X14860825Y-14748550D02*
X14898920Y-14748550D01*
X14898920Y-14748550D02*
X14917968Y-14758074D01*
X14917968Y-14758074D02*
X14927491Y-14777122D01*
X14927491Y-14777122D02*
X14927491Y-14796169D01*
X14927491Y-14796169D02*
X14832253Y-14815217D01*
X15003682Y-14872360D02*
X15022730Y-14881884D01*
X15022730Y-14881884D02*
X15060825Y-14881884D01*
X15060825Y-14881884D02*
X15079872Y-14872360D01*
X15079872Y-14872360D02*
X15089396Y-14853312D01*
X15089396Y-14853312D02*
X15089396Y-14843788D01*
X15089396Y-14843788D02*
X15079872Y-14824741D01*
X15079872Y-14824741D02*
X15060825Y-14815217D01*
X15060825Y-14815217D02*
X15032253Y-14815217D01*
X15032253Y-14815217D02*
X15013206Y-14805693D01*
X15013206Y-14805693D02*
X15003682Y-14786646D01*
X15003682Y-14786646D02*
X15003682Y-14777122D01*
X15003682Y-14777122D02*
X15013206Y-14758074D01*
X15013206Y-14758074D02*
X15032253Y-14748550D01*
X15032253Y-14748550D02*
X15060825Y-14748550D01*
X15060825Y-14748550D02*
X15079872Y-14758074D01*
X15156063Y-14958074D02*
X15165587Y-14948550D01*
X15165587Y-14948550D02*
X15184634Y-14919979D01*
X15184634Y-14919979D02*
X15194158Y-14900931D01*
X15194158Y-14900931D02*
X15203682Y-14872360D01*
X15203682Y-14872360D02*
X15213206Y-14824741D01*
X15213206Y-14824741D02*
X15213206Y-14786646D01*
X15213206Y-14786646D02*
X15203682Y-14739027D01*
X15203682Y-14739027D02*
X15194158Y-14710455D01*
X15194158Y-14710455D02*
X15184634Y-14691408D01*
X15184634Y-14691408D02*
X15165587Y-14662836D01*
X15165587Y-14662836D02*
X15156063Y-14653312D01*
D10*
X10341000Y-15014400D02*
X10341000Y-15094400D01*
X10301000Y-15054400D02*
X10381000Y-15054400D01*
D11*
X10679872Y-14945884D02*
X10698920Y-14945884D01*
X10698920Y-14945884D02*
X10717967Y-14955408D01*
X10717967Y-14955408D02*
X10727491Y-14964931D01*
X10727491Y-14964931D02*
X10737015Y-14983979D01*
X10737015Y-14983979D02*
X10746539Y-15022074D01*
X10746539Y-15022074D02*
X10746539Y-15069693D01*
X10746539Y-15069693D02*
X10737015Y-15107788D01*
X10737015Y-15107788D02*
X10727491Y-15126836D01*
X10727491Y-15126836D02*
X10717967Y-15136360D01*
X10717967Y-15136360D02*
X10698920Y-15145884D01*
X10698920Y-15145884D02*
X10679872Y-15145884D01*
X10679872Y-15145884D02*
X10660824Y-15136360D01*
X10660824Y-15136360D02*
X10651301Y-15126836D01*
X10651301Y-15126836D02*
X10641777Y-15107788D01*
X10641777Y-15107788D02*
X10632253Y-15069693D01*
X10632253Y-15069693D02*
X10632253Y-15022074D01*
X10632253Y-15022074D02*
X10641777Y-14983979D01*
X10641777Y-14983979D02*
X10651301Y-14964931D01*
X10651301Y-14964931D02*
X10660824Y-14955408D01*
X10660824Y-14955408D02*
X10679872Y-14945884D01*
X10832253Y-15126836D02*
X10841777Y-15136360D01*
X10841777Y-15136360D02*
X10832253Y-15145884D01*
X10832253Y-15145884D02*
X10822729Y-15136360D01*
X10822729Y-15136360D02*
X10832253Y-15126836D01*
X10832253Y-15126836D02*
X10832253Y-15145884D01*
X10956063Y-15031598D02*
X10937015Y-15022074D01*
X10937015Y-15022074D02*
X10927491Y-15012550D01*
X10927491Y-15012550D02*
X10917967Y-14993503D01*
X10917967Y-14993503D02*
X10917967Y-14983979D01*
X10917967Y-14983979D02*
X10927491Y-14964931D01*
X10927491Y-14964931D02*
X10937015Y-14955408D01*
X10937015Y-14955408D02*
X10956063Y-14945884D01*
X10956063Y-14945884D02*
X10994158Y-14945884D01*
X10994158Y-14945884D02*
X11013205Y-14955408D01*
X11013205Y-14955408D02*
X11022729Y-14964931D01*
X11022729Y-14964931D02*
X11032253Y-14983979D01*
X11032253Y-14983979D02*
X11032253Y-14993503D01*
X11032253Y-14993503D02*
X11022729Y-15012550D01*
X11022729Y-15012550D02*
X11013205Y-15022074D01*
X11013205Y-15022074D02*
X10994158Y-15031598D01*
X10994158Y-15031598D02*
X10956063Y-15031598D01*
X10956063Y-15031598D02*
X10937015Y-15041122D01*
X10937015Y-15041122D02*
X10927491Y-15050646D01*
X10927491Y-15050646D02*
X10917967Y-15069693D01*
X10917967Y-15069693D02*
X10917967Y-15107788D01*
X10917967Y-15107788D02*
X10927491Y-15126836D01*
X10927491Y-15126836D02*
X10937015Y-15136360D01*
X10937015Y-15136360D02*
X10956063Y-15145884D01*
X10956063Y-15145884D02*
X10994158Y-15145884D01*
X10994158Y-15145884D02*
X11013205Y-15136360D01*
X11013205Y-15136360D02*
X11022729Y-15126836D01*
X11022729Y-15126836D02*
X11032253Y-15107788D01*
X11032253Y-15107788D02*
X11032253Y-15069693D01*
X11032253Y-15069693D02*
X11022729Y-15050646D01*
X11022729Y-15050646D02*
X11013205Y-15041122D01*
X11013205Y-15041122D02*
X10994158Y-15031598D01*
X11156063Y-14945884D02*
X11175110Y-14945884D01*
X11175110Y-14945884D02*
X11194158Y-14955408D01*
X11194158Y-14955408D02*
X11203682Y-14964931D01*
X11203682Y-14964931D02*
X11213205Y-14983979D01*
X11213205Y-14983979D02*
X11222729Y-15022074D01*
X11222729Y-15022074D02*
X11222729Y-15069693D01*
X11222729Y-15069693D02*
X11213205Y-15107788D01*
X11213205Y-15107788D02*
X11203682Y-15126836D01*
X11203682Y-15126836D02*
X11194158Y-15136360D01*
X11194158Y-15136360D02*
X11175110Y-15145884D01*
X11175110Y-15145884D02*
X11156063Y-15145884D01*
X11156063Y-15145884D02*
X11137015Y-15136360D01*
X11137015Y-15136360D02*
X11127491Y-15126836D01*
X11127491Y-15126836D02*
X11117967Y-15107788D01*
X11117967Y-15107788D02*
X11108444Y-15069693D01*
X11108444Y-15069693D02*
X11108444Y-15022074D01*
X11108444Y-15022074D02*
X11117967Y-14983979D01*
X11117967Y-14983979D02*
X11127491Y-14964931D01*
X11127491Y-14964931D02*
X11137015Y-14955408D01*
X11137015Y-14955408D02*
X11156063Y-14945884D01*
X11346539Y-14945884D02*
X11365586Y-14945884D01*
X11365586Y-14945884D02*
X11384634Y-14955408D01*
X11384634Y-14955408D02*
X11394158Y-14964931D01*
X11394158Y-14964931D02*
X11403682Y-14983979D01*
X11403682Y-14983979D02*
X11413205Y-15022074D01*
X11413205Y-15022074D02*
X11413205Y-15069693D01*
X11413205Y-15069693D02*
X11403682Y-15107788D01*
X11403682Y-15107788D02*
X11394158Y-15126836D01*
X11394158Y-15126836D02*
X11384634Y-15136360D01*
X11384634Y-15136360D02*
X11365586Y-15145884D01*
X11365586Y-15145884D02*
X11346539Y-15145884D01*
X11346539Y-15145884D02*
X11327491Y-15136360D01*
X11327491Y-15136360D02*
X11317967Y-15126836D01*
X11317967Y-15126836D02*
X11308443Y-15107788D01*
X11308443Y-15107788D02*
X11298920Y-15069693D01*
X11298920Y-15069693D02*
X11298920Y-15022074D01*
X11298920Y-15022074D02*
X11308443Y-14983979D01*
X11308443Y-14983979D02*
X11317967Y-14964931D01*
X11317967Y-14964931D02*
X11327491Y-14955408D01*
X11327491Y-14955408D02*
X11346539Y-14945884D01*
X11498920Y-15145884D02*
X11498920Y-15012550D01*
X11498920Y-15031598D02*
X11508443Y-15022074D01*
X11508443Y-15022074D02*
X11527491Y-15012550D01*
X11527491Y-15012550D02*
X11556063Y-15012550D01*
X11556063Y-15012550D02*
X11575110Y-15022074D01*
X11575110Y-15022074D02*
X11584634Y-15041122D01*
X11584634Y-15041122D02*
X11584634Y-15145884D01*
X11584634Y-15041122D02*
X11594158Y-15022074D01*
X11594158Y-15022074D02*
X11613205Y-15012550D01*
X11613205Y-15012550D02*
X11641777Y-15012550D01*
X11641777Y-15012550D02*
X11660824Y-15022074D01*
X11660824Y-15022074D02*
X11670348Y-15041122D01*
X11670348Y-15041122D02*
X11670348Y-15145884D01*
X11765586Y-15145884D02*
X11765586Y-15012550D01*
X11765586Y-15031598D02*
X11775110Y-15022074D01*
X11775110Y-15022074D02*
X11794158Y-15012550D01*
X11794158Y-15012550D02*
X11822729Y-15012550D01*
X11822729Y-15012550D02*
X11841777Y-15022074D01*
X11841777Y-15022074D02*
X11851301Y-15041122D01*
X11851301Y-15041122D02*
X11851301Y-15145884D01*
X11851301Y-15041122D02*
X11860824Y-15022074D01*
X11860824Y-15022074D02*
X11879872Y-15012550D01*
X11879872Y-15012550D02*
X11908443Y-15012550D01*
X11908443Y-15012550D02*
X11927491Y-15022074D01*
X11927491Y-15022074D02*
X11937015Y-15041122D01*
X11937015Y-15041122D02*
X11937015Y-15145884D01*
X12327491Y-14936360D02*
X12156063Y-15193503D01*
X12584634Y-14945884D02*
X12603682Y-14945884D01*
X12603682Y-14945884D02*
X12622729Y-14955408D01*
X12622729Y-14955408D02*
X12632253Y-14964931D01*
X12632253Y-14964931D02*
X12641777Y-14983979D01*
X12641777Y-14983979D02*
X12651301Y-15022074D01*
X12651301Y-15022074D02*
X12651301Y-15069693D01*
X12651301Y-15069693D02*
X12641777Y-15107788D01*
X12641777Y-15107788D02*
X12632253Y-15126836D01*
X12632253Y-15126836D02*
X12622729Y-15136360D01*
X12622729Y-15136360D02*
X12603682Y-15145884D01*
X12603682Y-15145884D02*
X12584634Y-15145884D01*
X12584634Y-15145884D02*
X12565586Y-15136360D01*
X12565586Y-15136360D02*
X12556063Y-15126836D01*
X12556063Y-15126836D02*
X12546539Y-15107788D01*
X12546539Y-15107788D02*
X12537015Y-15069693D01*
X12537015Y-15069693D02*
X12537015Y-15022074D01*
X12537015Y-15022074D02*
X12546539Y-14983979D01*
X12546539Y-14983979D02*
X12556063Y-14964931D01*
X12556063Y-14964931D02*
X12565586Y-14955408D01*
X12565586Y-14955408D02*
X12584634Y-14945884D01*
X12737015Y-15126836D02*
X12746539Y-15136360D01*
X12746539Y-15136360D02*
X12737015Y-15145884D01*
X12737015Y-15145884D02*
X12727491Y-15136360D01*
X12727491Y-15136360D02*
X12737015Y-15126836D01*
X12737015Y-15126836D02*
X12737015Y-15145884D01*
X12870348Y-14945884D02*
X12889396Y-14945884D01*
X12889396Y-14945884D02*
X12908444Y-14955408D01*
X12908444Y-14955408D02*
X12917967Y-14964931D01*
X12917967Y-14964931D02*
X12927491Y-14983979D01*
X12927491Y-14983979D02*
X12937015Y-15022074D01*
X12937015Y-15022074D02*
X12937015Y-15069693D01*
X12937015Y-15069693D02*
X12927491Y-15107788D01*
X12927491Y-15107788D02*
X12917967Y-15126836D01*
X12917967Y-15126836D02*
X12908444Y-15136360D01*
X12908444Y-15136360D02*
X12889396Y-15145884D01*
X12889396Y-15145884D02*
X12870348Y-15145884D01*
X12870348Y-15145884D02*
X12851301Y-15136360D01*
X12851301Y-15136360D02*
X12841777Y-15126836D01*
X12841777Y-15126836D02*
X12832253Y-15107788D01*
X12832253Y-15107788D02*
X12822729Y-15069693D01*
X12822729Y-15069693D02*
X12822729Y-15022074D01*
X12822729Y-15022074D02*
X12832253Y-14983979D01*
X12832253Y-14983979D02*
X12841777Y-14964931D01*
X12841777Y-14964931D02*
X12851301Y-14955408D01*
X12851301Y-14955408D02*
X12870348Y-14945884D01*
X13003682Y-14945884D02*
X13127491Y-14945884D01*
X13127491Y-14945884D02*
X13060825Y-15022074D01*
X13060825Y-15022074D02*
X13089396Y-15022074D01*
X13089396Y-15022074D02*
X13108444Y-15031598D01*
X13108444Y-15031598D02*
X13117967Y-15041122D01*
X13117967Y-15041122D02*
X13127491Y-15060169D01*
X13127491Y-15060169D02*
X13127491Y-15107788D01*
X13127491Y-15107788D02*
X13117967Y-15126836D01*
X13117967Y-15126836D02*
X13108444Y-15136360D01*
X13108444Y-15136360D02*
X13089396Y-15145884D01*
X13089396Y-15145884D02*
X13032253Y-15145884D01*
X13032253Y-15145884D02*
X13013206Y-15136360D01*
X13013206Y-15136360D02*
X13003682Y-15126836D01*
X13317967Y-15145884D02*
X13203682Y-15145884D01*
X13260825Y-15145884D02*
X13260825Y-14945884D01*
X13260825Y-14945884D02*
X13241777Y-14974455D01*
X13241777Y-14974455D02*
X13222729Y-14993503D01*
X13222729Y-14993503D02*
X13203682Y-15003027D01*
X13498920Y-14945884D02*
X13403682Y-14945884D01*
X13403682Y-14945884D02*
X13394158Y-15041122D01*
X13394158Y-15041122D02*
X13403682Y-15031598D01*
X13403682Y-15031598D02*
X13422729Y-15022074D01*
X13422729Y-15022074D02*
X13470348Y-15022074D01*
X13470348Y-15022074D02*
X13489396Y-15031598D01*
X13489396Y-15031598D02*
X13498920Y-15041122D01*
X13498920Y-15041122D02*
X13508444Y-15060169D01*
X13508444Y-15060169D02*
X13508444Y-15107788D01*
X13508444Y-15107788D02*
X13498920Y-15126836D01*
X13498920Y-15126836D02*
X13489396Y-15136360D01*
X13489396Y-15136360D02*
X13470348Y-15145884D01*
X13470348Y-15145884D02*
X13422729Y-15145884D01*
X13422729Y-15145884D02*
X13403682Y-15136360D01*
X13403682Y-15136360D02*
X13394158Y-15126836D01*
X13584634Y-14945884D02*
X13584634Y-14983979D01*
X13660825Y-14945884D02*
X13660825Y-14983979D01*
X13956063Y-15222074D02*
X13946539Y-15212550D01*
X13946539Y-15212550D02*
X13927491Y-15183979D01*
X13927491Y-15183979D02*
X13917968Y-15164931D01*
X13917968Y-15164931D02*
X13908444Y-15136360D01*
X13908444Y-15136360D02*
X13898920Y-15088741D01*
X13898920Y-15088741D02*
X13898920Y-15050646D01*
X13898920Y-15050646D02*
X13908444Y-15003027D01*
X13908444Y-15003027D02*
X13917968Y-14974455D01*
X13917968Y-14974455D02*
X13927491Y-14955408D01*
X13927491Y-14955408D02*
X13946539Y-14926836D01*
X13946539Y-14926836D02*
X13956063Y-14917312D01*
X14137015Y-15145884D02*
X14022729Y-15145884D01*
X14079872Y-15145884D02*
X14079872Y-14945884D01*
X14079872Y-14945884D02*
X14060825Y-14974455D01*
X14060825Y-14974455D02*
X14041777Y-14993503D01*
X14041777Y-14993503D02*
X14022729Y-15003027D01*
X14203682Y-14945884D02*
X14327491Y-14945884D01*
X14327491Y-14945884D02*
X14260825Y-15022074D01*
X14260825Y-15022074D02*
X14289396Y-15022074D01*
X14289396Y-15022074D02*
X14308444Y-15031598D01*
X14308444Y-15031598D02*
X14317968Y-15041122D01*
X14317968Y-15041122D02*
X14327491Y-15060169D01*
X14327491Y-15060169D02*
X14327491Y-15107788D01*
X14327491Y-15107788D02*
X14317968Y-15126836D01*
X14317968Y-15126836D02*
X14308444Y-15136360D01*
X14308444Y-15136360D02*
X14289396Y-15145884D01*
X14289396Y-15145884D02*
X14232253Y-15145884D01*
X14232253Y-15145884D02*
X14213206Y-15136360D01*
X14213206Y-15136360D02*
X14203682Y-15126836D01*
X14565587Y-15145884D02*
X14565587Y-14945884D01*
X14651301Y-15145884D02*
X14651301Y-15041122D01*
X14651301Y-15041122D02*
X14641777Y-15022074D01*
X14641777Y-15022074D02*
X14622730Y-15012550D01*
X14622730Y-15012550D02*
X14594158Y-15012550D01*
X14594158Y-15012550D02*
X14575110Y-15022074D01*
X14575110Y-15022074D02*
X14565587Y-15031598D01*
X14775110Y-15145884D02*
X14756063Y-15136360D01*
X14756063Y-15136360D02*
X14746539Y-15126836D01*
X14746539Y-15126836D02*
X14737015Y-15107788D01*
X14737015Y-15107788D02*
X14737015Y-15050646D01*
X14737015Y-15050646D02*
X14746539Y-15031598D01*
X14746539Y-15031598D02*
X14756063Y-15022074D01*
X14756063Y-15022074D02*
X14775110Y-15012550D01*
X14775110Y-15012550D02*
X14803682Y-15012550D01*
X14803682Y-15012550D02*
X14822730Y-15022074D01*
X14822730Y-15022074D02*
X14832253Y-15031598D01*
X14832253Y-15031598D02*
X14841777Y-15050646D01*
X14841777Y-15050646D02*
X14841777Y-15107788D01*
X14841777Y-15107788D02*
X14832253Y-15126836D01*
X14832253Y-15126836D02*
X14822730Y-15136360D01*
X14822730Y-15136360D02*
X14803682Y-15145884D01*
X14803682Y-15145884D02*
X14775110Y-15145884D01*
X14956063Y-15145884D02*
X14937015Y-15136360D01*
X14937015Y-15136360D02*
X14927491Y-15117312D01*
X14927491Y-15117312D02*
X14927491Y-14945884D01*
X15108444Y-15136360D02*
X15089396Y-15145884D01*
X15089396Y-15145884D02*
X15051301Y-15145884D01*
X15051301Y-15145884D02*
X15032253Y-15136360D01*
X15032253Y-15136360D02*
X15022730Y-15117312D01*
X15022730Y-15117312D02*
X15022730Y-15041122D01*
X15022730Y-15041122D02*
X15032253Y-15022074D01*
X15032253Y-15022074D02*
X15051301Y-15012550D01*
X15051301Y-15012550D02*
X15089396Y-15012550D01*
X15089396Y-15012550D02*
X15108444Y-15022074D01*
X15108444Y-15022074D02*
X15117968Y-15041122D01*
X15117968Y-15041122D02*
X15117968Y-15060169D01*
X15117968Y-15060169D02*
X15022730Y-15079217D01*
X15194158Y-15136360D02*
X15213206Y-15145884D01*
X15213206Y-15145884D02*
X15251301Y-15145884D01*
X15251301Y-15145884D02*
X15270349Y-15136360D01*
X15270349Y-15136360D02*
X15279872Y-15117312D01*
X15279872Y-15117312D02*
X15279872Y-15107788D01*
X15279872Y-15107788D02*
X15270349Y-15088741D01*
X15270349Y-15088741D02*
X15251301Y-15079217D01*
X15251301Y-15079217D02*
X15222730Y-15079217D01*
X15222730Y-15079217D02*
X15203682Y-15069693D01*
X15203682Y-15069693D02*
X15194158Y-15050646D01*
X15194158Y-15050646D02*
X15194158Y-15041122D01*
X15194158Y-15041122D02*
X15203682Y-15022074D01*
X15203682Y-15022074D02*
X15222730Y-15012550D01*
X15222730Y-15012550D02*
X15251301Y-15012550D01*
X15251301Y-15012550D02*
X15270349Y-15022074D01*
X15346539Y-15222074D02*
X15356063Y-15212550D01*
X15356063Y-15212550D02*
X15375111Y-15183979D01*
X15375111Y-15183979D02*
X15384634Y-15164931D01*
X15384634Y-15164931D02*
X15394158Y-15136360D01*
X15394158Y-15136360D02*
X15403682Y-15088741D01*
X15403682Y-15088741D02*
X15403682Y-15050646D01*
X15403682Y-15050646D02*
X15394158Y-15003027D01*
X15394158Y-15003027D02*
X15384634Y-14974455D01*
X15384634Y-14974455D02*
X15375111Y-14955408D01*
X15375111Y-14955408D02*
X15356063Y-14926836D01*
X15356063Y-14926836D02*
X15346539Y-14917312D01*
D10*
X10366356Y-15353756D02*
X10366356Y-15283044D01*
X10295644Y-15283044D01*
X10295644Y-15353756D01*
X10366356Y-15353756D01*
D11*
X10746539Y-15409884D02*
X10632253Y-15409884D01*
X10689396Y-15409884D02*
X10689396Y-15209884D01*
X10689396Y-15209884D02*
X10670348Y-15238455D01*
X10670348Y-15238455D02*
X10651301Y-15257503D01*
X10651301Y-15257503D02*
X10632253Y-15267027D01*
X10832253Y-15390836D02*
X10841777Y-15400360D01*
X10841777Y-15400360D02*
X10832253Y-15409884D01*
X10832253Y-15409884D02*
X10822729Y-15400360D01*
X10822729Y-15400360D02*
X10832253Y-15390836D01*
X10832253Y-15390836D02*
X10832253Y-15409884D01*
X10965586Y-15209884D02*
X10984634Y-15209884D01*
X10984634Y-15209884D02*
X11003682Y-15219408D01*
X11003682Y-15219408D02*
X11013205Y-15228931D01*
X11013205Y-15228931D02*
X11022729Y-15247979D01*
X11022729Y-15247979D02*
X11032253Y-15286074D01*
X11032253Y-15286074D02*
X11032253Y-15333693D01*
X11032253Y-15333693D02*
X11022729Y-15371788D01*
X11022729Y-15371788D02*
X11013205Y-15390836D01*
X11013205Y-15390836D02*
X11003682Y-15400360D01*
X11003682Y-15400360D02*
X10984634Y-15409884D01*
X10984634Y-15409884D02*
X10965586Y-15409884D01*
X10965586Y-15409884D02*
X10946539Y-15400360D01*
X10946539Y-15400360D02*
X10937015Y-15390836D01*
X10937015Y-15390836D02*
X10927491Y-15371788D01*
X10927491Y-15371788D02*
X10917967Y-15333693D01*
X10917967Y-15333693D02*
X10917967Y-15286074D01*
X10917967Y-15286074D02*
X10927491Y-15247979D01*
X10927491Y-15247979D02*
X10937015Y-15228931D01*
X10937015Y-15228931D02*
X10946539Y-15219408D01*
X10946539Y-15219408D02*
X10965586Y-15209884D01*
X11156063Y-15209884D02*
X11175110Y-15209884D01*
X11175110Y-15209884D02*
X11194158Y-15219408D01*
X11194158Y-15219408D02*
X11203682Y-15228931D01*
X11203682Y-15228931D02*
X11213205Y-15247979D01*
X11213205Y-15247979D02*
X11222729Y-15286074D01*
X11222729Y-15286074D02*
X11222729Y-15333693D01*
X11222729Y-15333693D02*
X11213205Y-15371788D01*
X11213205Y-15371788D02*
X11203682Y-15390836D01*
X11203682Y-15390836D02*
X11194158Y-15400360D01*
X11194158Y-15400360D02*
X11175110Y-15409884D01*
X11175110Y-15409884D02*
X11156063Y-15409884D01*
X11156063Y-15409884D02*
X11137015Y-15400360D01*
X11137015Y-15400360D02*
X11127491Y-15390836D01*
X11127491Y-15390836D02*
X11117967Y-15371788D01*
X11117967Y-15371788D02*
X11108444Y-15333693D01*
X11108444Y-15333693D02*
X11108444Y-15286074D01*
X11108444Y-15286074D02*
X11117967Y-15247979D01*
X11117967Y-15247979D02*
X11127491Y-15228931D01*
X11127491Y-15228931D02*
X11137015Y-15219408D01*
X11137015Y-15219408D02*
X11156063Y-15209884D01*
X11346539Y-15209884D02*
X11365586Y-15209884D01*
X11365586Y-15209884D02*
X11384634Y-15219408D01*
X11384634Y-15219408D02*
X11394158Y-15228931D01*
X11394158Y-15228931D02*
X11403682Y-15247979D01*
X11403682Y-15247979D02*
X11413205Y-15286074D01*
X11413205Y-15286074D02*
X11413205Y-15333693D01*
X11413205Y-15333693D02*
X11403682Y-15371788D01*
X11403682Y-15371788D02*
X11394158Y-15390836D01*
X11394158Y-15390836D02*
X11384634Y-15400360D01*
X11384634Y-15400360D02*
X11365586Y-15409884D01*
X11365586Y-15409884D02*
X11346539Y-15409884D01*
X11346539Y-15409884D02*
X11327491Y-15400360D01*
X11327491Y-15400360D02*
X11317967Y-15390836D01*
X11317967Y-15390836D02*
X11308443Y-15371788D01*
X11308443Y-15371788D02*
X11298920Y-15333693D01*
X11298920Y-15333693D02*
X11298920Y-15286074D01*
X11298920Y-15286074D02*
X11308443Y-15247979D01*
X11308443Y-15247979D02*
X11317967Y-15228931D01*
X11317967Y-15228931D02*
X11327491Y-15219408D01*
X11327491Y-15219408D02*
X11346539Y-15209884D01*
X11498920Y-15409884D02*
X11498920Y-15276550D01*
X11498920Y-15295598D02*
X11508443Y-15286074D01*
X11508443Y-15286074D02*
X11527491Y-15276550D01*
X11527491Y-15276550D02*
X11556063Y-15276550D01*
X11556063Y-15276550D02*
X11575110Y-15286074D01*
X11575110Y-15286074D02*
X11584634Y-15305122D01*
X11584634Y-15305122D02*
X11584634Y-15409884D01*
X11584634Y-15305122D02*
X11594158Y-15286074D01*
X11594158Y-15286074D02*
X11613205Y-15276550D01*
X11613205Y-15276550D02*
X11641777Y-15276550D01*
X11641777Y-15276550D02*
X11660824Y-15286074D01*
X11660824Y-15286074D02*
X11670348Y-15305122D01*
X11670348Y-15305122D02*
X11670348Y-15409884D01*
X11765586Y-15409884D02*
X11765586Y-15276550D01*
X11765586Y-15295598D02*
X11775110Y-15286074D01*
X11775110Y-15286074D02*
X11794158Y-15276550D01*
X11794158Y-15276550D02*
X11822729Y-15276550D01*
X11822729Y-15276550D02*
X11841777Y-15286074D01*
X11841777Y-15286074D02*
X11851301Y-15305122D01*
X11851301Y-15305122D02*
X11851301Y-15409884D01*
X11851301Y-15305122D02*
X11860824Y-15286074D01*
X11860824Y-15286074D02*
X11879872Y-15276550D01*
X11879872Y-15276550D02*
X11908443Y-15276550D01*
X11908443Y-15276550D02*
X11927491Y-15286074D01*
X11927491Y-15286074D02*
X11937015Y-15305122D01*
X11937015Y-15305122D02*
X11937015Y-15409884D01*
X12327491Y-15200360D02*
X12156063Y-15457503D01*
X12584634Y-15209884D02*
X12603682Y-15209884D01*
X12603682Y-15209884D02*
X12622729Y-15219408D01*
X12622729Y-15219408D02*
X12632253Y-15228931D01*
X12632253Y-15228931D02*
X12641777Y-15247979D01*
X12641777Y-15247979D02*
X12651301Y-15286074D01*
X12651301Y-15286074D02*
X12651301Y-15333693D01*
X12651301Y-15333693D02*
X12641777Y-15371788D01*
X12641777Y-15371788D02*
X12632253Y-15390836D01*
X12632253Y-15390836D02*
X12622729Y-15400360D01*
X12622729Y-15400360D02*
X12603682Y-15409884D01*
X12603682Y-15409884D02*
X12584634Y-15409884D01*
X12584634Y-15409884D02*
X12565586Y-15400360D01*
X12565586Y-15400360D02*
X12556063Y-15390836D01*
X12556063Y-15390836D02*
X12546539Y-15371788D01*
X12546539Y-15371788D02*
X12537015Y-15333693D01*
X12537015Y-15333693D02*
X12537015Y-15286074D01*
X12537015Y-15286074D02*
X12546539Y-15247979D01*
X12546539Y-15247979D02*
X12556063Y-15228931D01*
X12556063Y-15228931D02*
X12565586Y-15219408D01*
X12565586Y-15219408D02*
X12584634Y-15209884D01*
X12737015Y-15390836D02*
X12746539Y-15400360D01*
X12746539Y-15400360D02*
X12737015Y-15409884D01*
X12737015Y-15409884D02*
X12727491Y-15400360D01*
X12727491Y-15400360D02*
X12737015Y-15390836D01*
X12737015Y-15390836D02*
X12737015Y-15409884D01*
X12870348Y-15209884D02*
X12889396Y-15209884D01*
X12889396Y-15209884D02*
X12908444Y-15219408D01*
X12908444Y-15219408D02*
X12917967Y-15228931D01*
X12917967Y-15228931D02*
X12927491Y-15247979D01*
X12927491Y-15247979D02*
X12937015Y-15286074D01*
X12937015Y-15286074D02*
X12937015Y-15333693D01*
X12937015Y-15333693D02*
X12927491Y-15371788D01*
X12927491Y-15371788D02*
X12917967Y-15390836D01*
X12917967Y-15390836D02*
X12908444Y-15400360D01*
X12908444Y-15400360D02*
X12889396Y-15409884D01*
X12889396Y-15409884D02*
X12870348Y-15409884D01*
X12870348Y-15409884D02*
X12851301Y-15400360D01*
X12851301Y-15400360D02*
X12841777Y-15390836D01*
X12841777Y-15390836D02*
X12832253Y-15371788D01*
X12832253Y-15371788D02*
X12822729Y-15333693D01*
X12822729Y-15333693D02*
X12822729Y-15286074D01*
X12822729Y-15286074D02*
X12832253Y-15247979D01*
X12832253Y-15247979D02*
X12841777Y-15228931D01*
X12841777Y-15228931D02*
X12851301Y-15219408D01*
X12851301Y-15219408D02*
X12870348Y-15209884D01*
X13003682Y-15209884D02*
X13127491Y-15209884D01*
X13127491Y-15209884D02*
X13060825Y-15286074D01*
X13060825Y-15286074D02*
X13089396Y-15286074D01*
X13089396Y-15286074D02*
X13108444Y-15295598D01*
X13108444Y-15295598D02*
X13117967Y-15305122D01*
X13117967Y-15305122D02*
X13127491Y-15324169D01*
X13127491Y-15324169D02*
X13127491Y-15371788D01*
X13127491Y-15371788D02*
X13117967Y-15390836D01*
X13117967Y-15390836D02*
X13108444Y-15400360D01*
X13108444Y-15400360D02*
X13089396Y-15409884D01*
X13089396Y-15409884D02*
X13032253Y-15409884D01*
X13032253Y-15409884D02*
X13013206Y-15400360D01*
X13013206Y-15400360D02*
X13003682Y-15390836D01*
X13222729Y-15409884D02*
X13260825Y-15409884D01*
X13260825Y-15409884D02*
X13279872Y-15400360D01*
X13279872Y-15400360D02*
X13289396Y-15390836D01*
X13289396Y-15390836D02*
X13308444Y-15362265D01*
X13308444Y-15362265D02*
X13317967Y-15324169D01*
X13317967Y-15324169D02*
X13317967Y-15247979D01*
X13317967Y-15247979D02*
X13308444Y-15228931D01*
X13308444Y-15228931D02*
X13298920Y-15219408D01*
X13298920Y-15219408D02*
X13279872Y-15209884D01*
X13279872Y-15209884D02*
X13241777Y-15209884D01*
X13241777Y-15209884D02*
X13222729Y-15219408D01*
X13222729Y-15219408D02*
X13213206Y-15228931D01*
X13213206Y-15228931D02*
X13203682Y-15247979D01*
X13203682Y-15247979D02*
X13203682Y-15295598D01*
X13203682Y-15295598D02*
X13213206Y-15314646D01*
X13213206Y-15314646D02*
X13222729Y-15324169D01*
X13222729Y-15324169D02*
X13241777Y-15333693D01*
X13241777Y-15333693D02*
X13279872Y-15333693D01*
X13279872Y-15333693D02*
X13298920Y-15324169D01*
X13298920Y-15324169D02*
X13308444Y-15314646D01*
X13308444Y-15314646D02*
X13317967Y-15295598D01*
X13489396Y-15276550D02*
X13489396Y-15409884D01*
X13441777Y-15200360D02*
X13394158Y-15343217D01*
X13394158Y-15343217D02*
X13517967Y-15343217D01*
X13584634Y-15209884D02*
X13584634Y-15247979D01*
X13660825Y-15209884D02*
X13660825Y-15247979D01*
X13956063Y-15486074D02*
X13946539Y-15476550D01*
X13946539Y-15476550D02*
X13927491Y-15447979D01*
X13927491Y-15447979D02*
X13917968Y-15428931D01*
X13917968Y-15428931D02*
X13908444Y-15400360D01*
X13908444Y-15400360D02*
X13898920Y-15352741D01*
X13898920Y-15352741D02*
X13898920Y-15314646D01*
X13898920Y-15314646D02*
X13908444Y-15267027D01*
X13908444Y-15267027D02*
X13917968Y-15238455D01*
X13917968Y-15238455D02*
X13927491Y-15219408D01*
X13927491Y-15219408D02*
X13946539Y-15190836D01*
X13946539Y-15190836D02*
X13956063Y-15181312D01*
X14117968Y-15276550D02*
X14117968Y-15409884D01*
X14070348Y-15200360D02*
X14022729Y-15343217D01*
X14022729Y-15343217D02*
X14146539Y-15343217D01*
X14317968Y-15209884D02*
X14222729Y-15209884D01*
X14222729Y-15209884D02*
X14213206Y-15305122D01*
X14213206Y-15305122D02*
X14222729Y-15295598D01*
X14222729Y-15295598D02*
X14241777Y-15286074D01*
X14241777Y-15286074D02*
X14289396Y-15286074D01*
X14289396Y-15286074D02*
X14308444Y-15295598D01*
X14308444Y-15295598D02*
X14317968Y-15305122D01*
X14317968Y-15305122D02*
X14327491Y-15324169D01*
X14327491Y-15324169D02*
X14327491Y-15371788D01*
X14327491Y-15371788D02*
X14317968Y-15390836D01*
X14317968Y-15390836D02*
X14308444Y-15400360D01*
X14308444Y-15400360D02*
X14289396Y-15409884D01*
X14289396Y-15409884D02*
X14241777Y-15409884D01*
X14241777Y-15409884D02*
X14222729Y-15400360D01*
X14222729Y-15400360D02*
X14213206Y-15390836D01*
X14565587Y-15409884D02*
X14565587Y-15209884D01*
X14651301Y-15409884D02*
X14651301Y-15305122D01*
X14651301Y-15305122D02*
X14641777Y-15286074D01*
X14641777Y-15286074D02*
X14622730Y-15276550D01*
X14622730Y-15276550D02*
X14594158Y-15276550D01*
X14594158Y-15276550D02*
X14575110Y-15286074D01*
X14575110Y-15286074D02*
X14565587Y-15295598D01*
X14775110Y-15409884D02*
X14756063Y-15400360D01*
X14756063Y-15400360D02*
X14746539Y-15390836D01*
X14746539Y-15390836D02*
X14737015Y-15371788D01*
X14737015Y-15371788D02*
X14737015Y-15314646D01*
X14737015Y-15314646D02*
X14746539Y-15295598D01*
X14746539Y-15295598D02*
X14756063Y-15286074D01*
X14756063Y-15286074D02*
X14775110Y-15276550D01*
X14775110Y-15276550D02*
X14803682Y-15276550D01*
X14803682Y-15276550D02*
X14822730Y-15286074D01*
X14822730Y-15286074D02*
X14832253Y-15295598D01*
X14832253Y-15295598D02*
X14841777Y-15314646D01*
X14841777Y-15314646D02*
X14841777Y-15371788D01*
X14841777Y-15371788D02*
X14832253Y-15390836D01*
X14832253Y-15390836D02*
X14822730Y-15400360D01*
X14822730Y-15400360D02*
X14803682Y-15409884D01*
X14803682Y-15409884D02*
X14775110Y-15409884D01*
X14956063Y-15409884D02*
X14937015Y-15400360D01*
X14937015Y-15400360D02*
X14927491Y-15381312D01*
X14927491Y-15381312D02*
X14927491Y-15209884D01*
X15108444Y-15400360D02*
X15089396Y-15409884D01*
X15089396Y-15409884D02*
X15051301Y-15409884D01*
X15051301Y-15409884D02*
X15032253Y-15400360D01*
X15032253Y-15400360D02*
X15022730Y-15381312D01*
X15022730Y-15381312D02*
X15022730Y-15305122D01*
X15022730Y-15305122D02*
X15032253Y-15286074D01*
X15032253Y-15286074D02*
X15051301Y-15276550D01*
X15051301Y-15276550D02*
X15089396Y-15276550D01*
X15089396Y-15276550D02*
X15108444Y-15286074D01*
X15108444Y-15286074D02*
X15117968Y-15305122D01*
X15117968Y-15305122D02*
X15117968Y-15324169D01*
X15117968Y-15324169D02*
X15022730Y-15343217D01*
X15194158Y-15400360D02*
X15213206Y-15409884D01*
X15213206Y-15409884D02*
X15251301Y-15409884D01*
X15251301Y-15409884D02*
X15270349Y-15400360D01*
X15270349Y-15400360D02*
X15279872Y-15381312D01*
X15279872Y-15381312D02*
X15279872Y-15371788D01*
X15279872Y-15371788D02*
X15270349Y-15352741D01*
X15270349Y-15352741D02*
X15251301Y-15343217D01*
X15251301Y-15343217D02*
X15222730Y-15343217D01*
X15222730Y-15343217D02*
X15203682Y-15333693D01*
X15203682Y-15333693D02*
X15194158Y-15314646D01*
X15194158Y-15314646D02*
X15194158Y-15305122D01*
X15194158Y-15305122D02*
X15203682Y-15286074D01*
X15203682Y-15286074D02*
X15222730Y-15276550D01*
X15222730Y-15276550D02*
X15251301Y-15276550D01*
X15251301Y-15276550D02*
X15270349Y-15286074D01*
X15346539Y-15486074D02*
X15356063Y-15476550D01*
X15356063Y-15476550D02*
X15375111Y-15447979D01*
X15375111Y-15447979D02*
X15384634Y-15428931D01*
X15384634Y-15428931D02*
X15394158Y-15400360D01*
X15394158Y-15400360D02*
X15403682Y-15352741D01*
X15403682Y-15352741D02*
X15403682Y-15314646D01*
X15403682Y-15314646D02*
X15394158Y-15267027D01*
X15394158Y-15267027D02*
X15384634Y-15238455D01*
X15384634Y-15238455D02*
X15375111Y-15219408D01*
X15375111Y-15219408D02*
X15356063Y-15190836D01*
X15356063Y-15190836D02*
X15346539Y-15181312D01*
M02*
