M48
; DRILL file {KiCad (6.0.6)} date Fri Dec 16 03:55:16 2022
; FORMAT={-:-/ absolute / metric / decimal}
; #@! TF.CreationDate,2022-12-16T03:55:16-05:00
; #@! TF.GenerationSoftware,Kicad,Pcbnew,(6.0.6)
; #@! TF.FileFunction,MixedPlating,1,4
FMAT,2
METRIC
; #@! TA.AperFunction,Plated,PTH,ViaDrill
T1C0.200
; #@! TA.AperFunction,Plated,PTH,ViaDrill
T2C0.400
; #@! TA.AperFunction,Plated,PTH,ViaDrill
T3C0.600
; #@! TA.AperFunction,Plated,PTH,ViaDrill
T4C0.800
; #@! TA.AperFunction,Plated,PTH,ComponentDrill
T5C1.000
; #@! TA.AperFunction,NonPlated,NPTH,ComponentDrill
T6C3.300
%
G90
G05
T1
X31.369Y-107.823
X34.036Y-106.68
X40.005Y-92.329
X41.275Y-92.329
X42.545Y-92.329
X43.815Y-92.329
X45.085Y-92.329
X46.355Y-92.329
X47.625Y-92.329
X48.895Y-92.329
X50.165Y-92.329
X51.435Y-92.329
X52.705Y-92.329
X59.055Y-92.329
X60.325Y-92.329
X61.595Y-92.329
X62.865Y-92.329
X64.135Y-92.329
X65.405Y-92.329
X71.755Y-92.71
X73.025Y-92.71
X74.295Y-92.71
X75.565Y-92.71
X76.835Y-92.71
X78.105Y-92.71
X80.645Y-92.71
X81.915Y-92.71
X95.885Y-107.823
T2
X36.068Y-107.442
X38.608Y-103.505
X46.228Y-107.442
X48.006Y-105.156
X49.492Y-107.696
X50.419Y-106.172
X54.356Y-106.971
X57.15Y-88.9
X57.658Y-107.668
X58.674Y-96.012
X60.579Y-107.668
X61.468Y-99.822
X62.484Y-98.967
X62.738Y-100.203
X63.445Y-107.37
X65.532Y-102.997
X66.421Y-107.442
X73.533Y-107.315
X76.2Y-106.934
X78.613Y-87.122
X79.248Y-107.061
X81.28Y-88.392
X81.788Y-107.442
X84.328Y-107.442
X86.868Y-107.442
X89.408Y-107.442
T3
X50.703Y-107.569
T4
X29.464Y-81.661
X29.464Y-87.757
X29.464Y-93.853
X29.464Y-99.949
X29.464Y-106.045
X37.028Y-81.661
X42.926Y-104.267
X44.591Y-81.661
X52.155Y-81.661
X59.718Y-81.661
X67.282Y-81.661
X69.342Y-106.934
X74.845Y-81.661
X82.409Y-81.661
X89.972Y-81.661
X95.25Y-106.172
X97.536Y-81.661
X97.536Y-87.884
X97.536Y-93.98
X97.536Y-100.076
X97.536Y-106.172
T5
X35.533Y-90.611
X36.803Y-85.491
X38.073Y-90.611
X39.343Y-85.491
X40.613Y-90.611
X41.883Y-85.491
X43.153Y-90.611
X44.423Y-85.491
X45.693Y-90.611
X46.963Y-85.491
X48.233Y-90.611
X49.503Y-85.491
X50.773Y-90.611
X52.043Y-85.491
X53.313Y-90.611
X54.583Y-85.491
X55.853Y-90.611
X57.123Y-85.491
X58.393Y-90.611
X59.663Y-85.491
X60.933Y-90.611
X62.203Y-85.491
X63.473Y-90.611
X64.743Y-85.491
X66.013Y-90.611
X67.283Y-85.491
X68.553Y-90.611
X69.823Y-85.491
X71.093Y-90.611
X72.363Y-85.491
X73.633Y-90.611
X74.903Y-85.491
X76.173Y-90.611
X77.443Y-85.491
X78.713Y-90.611
X79.983Y-85.491
X81.253Y-90.611
X82.523Y-85.491
X83.793Y-90.611
X85.063Y-85.491
X86.333Y-90.611
X87.603Y-85.491
X88.873Y-90.611
X90.143Y-85.491
X91.413Y-90.611
T6
X16.483Y-86.293
X22.833Y-86.293
X103.859Y-86.293
T0
M30
