G04 #@! TF.GenerationSoftware,KiCad,Pcbnew,8.0.2*
G04 #@! TF.CreationDate,2024-05-08T12:07:27-04:00*
G04 #@! TF.ProjectId,SMS-to-GG,534d532d-746f-42d4-9747-2e6b69636164,4*
G04 #@! TF.SameCoordinates,Original*
G04 #@! TF.FileFunction,OtherDrawing,Comment*
%FSLAX46Y46*%
G04 Gerber Fmt 4.6, Leading zero omitted, Abs format (unit mm)*
G04 Created by KiCad (PCBNEW 8.0.2) date 2024-05-08 12:07:27*
%MOMM*%
%LPD*%
G01*
G04 APERTURE LIST*
%ADD10C,0.120000*%
G04 APERTURE END LIST*
D10*
G04 #@! TO.C,J1*
X183727000Y-138888000D02*
X183727000Y-127892000D01*
X117827000Y-138888000D02*
X183727000Y-138888000D01*
X117827000Y-127892000D02*
X117827000Y-138888000D01*
G04 #@! TO.C,J2*
X113630000Y-85402000D02*
X186510000Y-85402000D01*
X113630000Y-98700000D02*
X113630000Y-85402000D01*
X186510000Y-98700000D02*
X186510000Y-85402000D01*
X116860000Y-97860000D02*
X183860000Y-97860000D01*
X183860000Y-29810000D01*
X116860000Y-29810000D01*
X116860000Y-97860000D01*
X120663000Y-97604000D02*
X180663000Y-97604000D01*
X180663000Y-36994000D01*
X120663000Y-36994000D01*
X120663000Y-97604000D01*
X121883000Y-97380000D02*
X123583000Y-97380000D01*
X123583000Y-93500000D01*
X121883000Y-93500000D01*
X121883000Y-97380000D01*
G36*
X121883000Y-97380000D02*
G01*
X123583000Y-97380000D01*
X123583000Y-93500000D01*
X121883000Y-93500000D01*
X121883000Y-97380000D01*
G37*
X123143000Y-92410000D02*
X124843000Y-92410000D01*
X124843000Y-88530000D01*
X123143000Y-88530000D01*
X123143000Y-92410000D01*
G36*
X123143000Y-92410000D02*
G01*
X124843000Y-92410000D01*
X124843000Y-88530000D01*
X123143000Y-88530000D01*
X123143000Y-92410000D01*
G37*
X124413000Y-97380000D02*
X126113000Y-97380000D01*
X126113000Y-93500000D01*
X124413000Y-93500000D01*
X124413000Y-97380000D01*
G36*
X124413000Y-97380000D02*
G01*
X126113000Y-97380000D01*
X126113000Y-93500000D01*
X124413000Y-93500000D01*
X124413000Y-97380000D01*
G37*
X125683000Y-92410000D02*
X127383000Y-92410000D01*
X127383000Y-88530000D01*
X125683000Y-88530000D01*
X125683000Y-92410000D01*
G36*
X125683000Y-92410000D02*
G01*
X127383000Y-92410000D01*
X127383000Y-88530000D01*
X125683000Y-88530000D01*
X125683000Y-92410000D01*
G37*
X126953000Y-97380000D02*
X128653000Y-97380000D01*
X128653000Y-93500000D01*
X126953000Y-93500000D01*
X126953000Y-97380000D01*
G36*
X126953000Y-97380000D02*
G01*
X128653000Y-97380000D01*
X128653000Y-93500000D01*
X126953000Y-93500000D01*
X126953000Y-97380000D01*
G37*
X128213000Y-92410000D02*
X129913000Y-92410000D01*
X129913000Y-88530000D01*
X128213000Y-88530000D01*
X128213000Y-92410000D01*
G36*
X128213000Y-92410000D02*
G01*
X129913000Y-92410000D01*
X129913000Y-88530000D01*
X128213000Y-88530000D01*
X128213000Y-92410000D01*
G37*
X129493000Y-97380000D02*
X131193000Y-97380000D01*
X131193000Y-93500000D01*
X129493000Y-93500000D01*
X129493000Y-97380000D01*
G36*
X129493000Y-97380000D02*
G01*
X131193000Y-97380000D01*
X131193000Y-93500000D01*
X129493000Y-93500000D01*
X129493000Y-97380000D01*
G37*
X130763000Y-92410000D02*
X132463000Y-92410000D01*
X132463000Y-88530000D01*
X130763000Y-88530000D01*
X130763000Y-92410000D01*
G36*
X130763000Y-92410000D02*
G01*
X132463000Y-92410000D01*
X132463000Y-88530000D01*
X130763000Y-88530000D01*
X130763000Y-92410000D01*
G37*
X131993000Y-97380000D02*
X133693000Y-97380000D01*
X133693000Y-93500000D01*
X131993000Y-93500000D01*
X131993000Y-97380000D01*
G36*
X131993000Y-97380000D02*
G01*
X133693000Y-97380000D01*
X133693000Y-93500000D01*
X131993000Y-93500000D01*
X131993000Y-97380000D01*
G37*
X133263000Y-92410000D02*
X134963000Y-92410000D01*
X134963000Y-88530000D01*
X133263000Y-88530000D01*
X133263000Y-92410000D01*
G36*
X133263000Y-92410000D02*
G01*
X134963000Y-92410000D01*
X134963000Y-88530000D01*
X133263000Y-88530000D01*
X133263000Y-92410000D01*
G37*
X134543000Y-97380000D02*
X136243000Y-97380000D01*
X136243000Y-93500000D01*
X134543000Y-93500000D01*
X134543000Y-97380000D01*
G36*
X134543000Y-97380000D02*
G01*
X136243000Y-97380000D01*
X136243000Y-93500000D01*
X134543000Y-93500000D01*
X134543000Y-97380000D01*
G37*
X135813000Y-92410000D02*
X137513000Y-92410000D01*
X137513000Y-88530000D01*
X135813000Y-88530000D01*
X135813000Y-92410000D01*
G36*
X135813000Y-92410000D02*
G01*
X137513000Y-92410000D01*
X137513000Y-88530000D01*
X135813000Y-88530000D01*
X135813000Y-92410000D01*
G37*
X137113000Y-97380000D02*
X138813000Y-97380000D01*
X138813000Y-93500000D01*
X137113000Y-93500000D01*
X137113000Y-97380000D01*
G36*
X137113000Y-97380000D02*
G01*
X138813000Y-97380000D01*
X138813000Y-93500000D01*
X137113000Y-93500000D01*
X137113000Y-97380000D01*
G37*
X138373000Y-92410000D02*
X140073000Y-92410000D01*
X140073000Y-88530000D01*
X138373000Y-88530000D01*
X138373000Y-92410000D01*
G36*
X138373000Y-92410000D02*
G01*
X140073000Y-92410000D01*
X140073000Y-88530000D01*
X138373000Y-88530000D01*
X138373000Y-92410000D01*
G37*
X139663000Y-97380000D02*
X141363000Y-97380000D01*
X141363000Y-93500000D01*
X139663000Y-93500000D01*
X139663000Y-97380000D01*
G36*
X139663000Y-97380000D02*
G01*
X141363000Y-97380000D01*
X141363000Y-93500000D01*
X139663000Y-93500000D01*
X139663000Y-97380000D01*
G37*
X140923000Y-92410000D02*
X142623000Y-92410000D01*
X142623000Y-88530000D01*
X140923000Y-88530000D01*
X140923000Y-92410000D01*
G36*
X140923000Y-92410000D02*
G01*
X142623000Y-92410000D01*
X142623000Y-88530000D01*
X140923000Y-88530000D01*
X140923000Y-92410000D01*
G37*
X142213000Y-97600000D02*
X143913000Y-97600000D01*
X143913000Y-93500000D01*
X142213000Y-93500000D01*
X142213000Y-97600000D01*
G36*
X142213000Y-97600000D02*
G01*
X143913000Y-97600000D01*
X143913000Y-93500000D01*
X142213000Y-93500000D01*
X142213000Y-97600000D01*
G37*
X143463000Y-92410000D02*
X145163000Y-92410000D01*
X145163000Y-88530000D01*
X143463000Y-88530000D01*
X143463000Y-92410000D01*
G36*
X143463000Y-92410000D02*
G01*
X145163000Y-92410000D01*
X145163000Y-88530000D01*
X143463000Y-88530000D01*
X143463000Y-92410000D01*
G37*
X144733000Y-97380000D02*
X146433000Y-97380000D01*
X146433000Y-93500000D01*
X144733000Y-93500000D01*
X144733000Y-97380000D01*
G36*
X144733000Y-97380000D02*
G01*
X146433000Y-97380000D01*
X146433000Y-93500000D01*
X144733000Y-93500000D01*
X144733000Y-97380000D01*
G37*
X145993000Y-92410000D02*
X147693000Y-92410000D01*
X147693000Y-88530000D01*
X145993000Y-88530000D01*
X145993000Y-92410000D01*
G36*
X145993000Y-92410000D02*
G01*
X147693000Y-92410000D01*
X147693000Y-88530000D01*
X145993000Y-88530000D01*
X145993000Y-92410000D01*
G37*
X147273000Y-97380000D02*
X148973000Y-97380000D01*
X148973000Y-93500000D01*
X147273000Y-93500000D01*
X147273000Y-97380000D01*
G36*
X147273000Y-97380000D02*
G01*
X148973000Y-97380000D01*
X148973000Y-93500000D01*
X147273000Y-93500000D01*
X147273000Y-97380000D01*
G37*
X148543000Y-92410000D02*
X150243000Y-92410000D01*
X150243000Y-88530000D01*
X148543000Y-88530000D01*
X148543000Y-92410000D01*
G36*
X148543000Y-92410000D02*
G01*
X150243000Y-92410000D01*
X150243000Y-88530000D01*
X148543000Y-88530000D01*
X148543000Y-92410000D01*
G37*
X149813000Y-97380000D02*
X151513000Y-97380000D01*
X151513000Y-93500000D01*
X149813000Y-93500000D01*
X149813000Y-97380000D01*
G36*
X149813000Y-97380000D02*
G01*
X151513000Y-97380000D01*
X151513000Y-93500000D01*
X149813000Y-93500000D01*
X149813000Y-97380000D01*
G37*
X151083000Y-92410000D02*
X152783000Y-92410000D01*
X152783000Y-88530000D01*
X151083000Y-88530000D01*
X151083000Y-92410000D01*
G36*
X151083000Y-92410000D02*
G01*
X152783000Y-92410000D01*
X152783000Y-88530000D01*
X151083000Y-88530000D01*
X151083000Y-92410000D01*
G37*
X152353000Y-97380000D02*
X154053000Y-97380000D01*
X154053000Y-93500000D01*
X152353000Y-93500000D01*
X152353000Y-97380000D01*
G36*
X152353000Y-97380000D02*
G01*
X154053000Y-97380000D01*
X154053000Y-93500000D01*
X152353000Y-93500000D01*
X152353000Y-97380000D01*
G37*
X153613000Y-92410000D02*
X155313000Y-92410000D01*
X155313000Y-88530000D01*
X153613000Y-88530000D01*
X153613000Y-92410000D01*
G36*
X153613000Y-92410000D02*
G01*
X155313000Y-92410000D01*
X155313000Y-88530000D01*
X153613000Y-88530000D01*
X153613000Y-92410000D01*
G37*
X154893000Y-97380000D02*
X156593000Y-97380000D01*
X156593000Y-93500000D01*
X154893000Y-93500000D01*
X154893000Y-97380000D01*
G36*
X154893000Y-97380000D02*
G01*
X156593000Y-97380000D01*
X156593000Y-93500000D01*
X154893000Y-93500000D01*
X154893000Y-97380000D01*
G37*
X156163000Y-92410000D02*
X157863000Y-92410000D01*
X157863000Y-88530000D01*
X156163000Y-88530000D01*
X156163000Y-92410000D01*
G36*
X156163000Y-92410000D02*
G01*
X157863000Y-92410000D01*
X157863000Y-88530000D01*
X156163000Y-88530000D01*
X156163000Y-92410000D01*
G37*
X157433000Y-97380000D02*
X159133000Y-97380000D01*
X159133000Y-93500000D01*
X157433000Y-93500000D01*
X157433000Y-97380000D01*
G36*
X157433000Y-97380000D02*
G01*
X159133000Y-97380000D01*
X159133000Y-93500000D01*
X157433000Y-93500000D01*
X157433000Y-97380000D01*
G37*
X158703000Y-92410000D02*
X160403000Y-92410000D01*
X160403000Y-88530000D01*
X158703000Y-88530000D01*
X158703000Y-92410000D01*
G36*
X158703000Y-92410000D02*
G01*
X160403000Y-92410000D01*
X160403000Y-88530000D01*
X158703000Y-88530000D01*
X158703000Y-92410000D01*
G37*
X159973000Y-97380000D02*
X161673000Y-97380000D01*
X161673000Y-93500000D01*
X159973000Y-93500000D01*
X159973000Y-97380000D01*
G36*
X159973000Y-97380000D02*
G01*
X161673000Y-97380000D01*
X161673000Y-93500000D01*
X159973000Y-93500000D01*
X159973000Y-97380000D01*
G37*
X161223000Y-92410000D02*
X162923000Y-92410000D01*
X162923000Y-88530000D01*
X161223000Y-88530000D01*
X161223000Y-92410000D01*
G36*
X161223000Y-92410000D02*
G01*
X162923000Y-92410000D01*
X162923000Y-88530000D01*
X161223000Y-88530000D01*
X161223000Y-92410000D01*
G37*
X162473000Y-97380000D02*
X164173000Y-97380000D01*
X164173000Y-93500000D01*
X162473000Y-93500000D01*
X162473000Y-97380000D01*
G36*
X162473000Y-97380000D02*
G01*
X164173000Y-97380000D01*
X164173000Y-93500000D01*
X162473000Y-93500000D01*
X162473000Y-97380000D01*
G37*
X163733000Y-92410000D02*
X165433000Y-92410000D01*
X165433000Y-88530000D01*
X163733000Y-88530000D01*
X163733000Y-92410000D01*
G36*
X163733000Y-92410000D02*
G01*
X165433000Y-92410000D01*
X165433000Y-88530000D01*
X163733000Y-88530000D01*
X163733000Y-92410000D01*
G37*
X165023000Y-97380000D02*
X166723000Y-97380000D01*
X166723000Y-93500000D01*
X165023000Y-93500000D01*
X165023000Y-97380000D01*
G36*
X165023000Y-97380000D02*
G01*
X166723000Y-97380000D01*
X166723000Y-93500000D01*
X165023000Y-93500000D01*
X165023000Y-97380000D01*
G37*
X166293000Y-92410000D02*
X167993000Y-92410000D01*
X167993000Y-88530000D01*
X166293000Y-88530000D01*
X166293000Y-92410000D01*
G36*
X166293000Y-92410000D02*
G01*
X167993000Y-92410000D01*
X167993000Y-88530000D01*
X166293000Y-88530000D01*
X166293000Y-92410000D01*
G37*
X167593000Y-97380000D02*
X169293000Y-97380000D01*
X169293000Y-93500000D01*
X167593000Y-93500000D01*
X167593000Y-97380000D01*
G36*
X167593000Y-97380000D02*
G01*
X169293000Y-97380000D01*
X169293000Y-93500000D01*
X167593000Y-93500000D01*
X167593000Y-97380000D01*
G37*
X168863000Y-92410000D02*
X170563000Y-92410000D01*
X170563000Y-88530000D01*
X168863000Y-88530000D01*
X168863000Y-92410000D01*
G36*
X168863000Y-92410000D02*
G01*
X170563000Y-92410000D01*
X170563000Y-88530000D01*
X168863000Y-88530000D01*
X168863000Y-92410000D01*
G37*
X170133000Y-97380000D02*
X171833000Y-97380000D01*
X171833000Y-93500000D01*
X170133000Y-93500000D01*
X170133000Y-97380000D01*
G36*
X170133000Y-97380000D02*
G01*
X171833000Y-97380000D01*
X171833000Y-93500000D01*
X170133000Y-93500000D01*
X170133000Y-97380000D01*
G37*
X171393000Y-92410000D02*
X173093000Y-92410000D01*
X173093000Y-88530000D01*
X171393000Y-88530000D01*
X171393000Y-92410000D01*
G36*
X171393000Y-92410000D02*
G01*
X173093000Y-92410000D01*
X173093000Y-88530000D01*
X171393000Y-88530000D01*
X171393000Y-92410000D01*
G37*
X172693000Y-97600000D02*
X174393000Y-97600000D01*
X174393000Y-93530000D01*
X172693000Y-93530000D01*
X172693000Y-97600000D01*
G36*
X172693000Y-97600000D02*
G01*
X174393000Y-97600000D01*
X174393000Y-93530000D01*
X172693000Y-93530000D01*
X172693000Y-97600000D01*
G37*
X173943000Y-92410000D02*
X175643000Y-92410000D01*
X175643000Y-88530000D01*
X173943000Y-88530000D01*
X173943000Y-92410000D01*
G36*
X173943000Y-92410000D02*
G01*
X175643000Y-92410000D01*
X175643000Y-88530000D01*
X173943000Y-88530000D01*
X173943000Y-92410000D01*
G37*
X175213000Y-97380000D02*
X176913000Y-97380000D01*
X176913000Y-93500000D01*
X175213000Y-93500000D01*
X175213000Y-97380000D01*
G36*
X175213000Y-97380000D02*
G01*
X176913000Y-97380000D01*
X176913000Y-93500000D01*
X175213000Y-93500000D01*
X175213000Y-97380000D01*
G37*
X176483000Y-92410000D02*
X178183000Y-92410000D01*
X178183000Y-88530000D01*
X176483000Y-88530000D01*
X176483000Y-92410000D01*
G36*
X176483000Y-92410000D02*
G01*
X178183000Y-92410000D01*
X178183000Y-88530000D01*
X176483000Y-88530000D01*
X176483000Y-92410000D01*
G37*
X177753000Y-97380000D02*
X179453000Y-97380000D01*
X179453000Y-93500000D01*
X177753000Y-93500000D01*
X177753000Y-97380000D01*
G36*
X177753000Y-97380000D02*
G01*
X179453000Y-97380000D01*
X179453000Y-93500000D01*
X177753000Y-93500000D01*
X177753000Y-97380000D01*
G37*
G04 #@! TD*
M02*
