%TF.GenerationSoftware,KiCad,Pcbnew,(6.0.6)*%
%TF.CreationDate,2023-04-01T18:19:21-04:00*%
%TF.ProjectId,SMS-to-GG,534d532d-746f-42d4-9747-2e6b69636164,rev?*%
%TF.SameCoordinates,Original*%
%TF.FileFunction,Copper,L3,Inr*%
%TF.FilePolarity,Positive*%
%FSLAX46Y46*%
G04 Gerber Fmt 4.6, Leading zero omitted, Abs format (unit mm)*
G04 Created by KiCad (PCBNEW (6.0.6)) date 2023-04-01 18:19:21*
%MOMM*%
%LPD*%
G01*
G04 APERTURE LIST*
%TA.AperFunction,ComponentPad*%
%ADD10C,1.700000*%
%TD*%
%TA.AperFunction,ComponentPad*%
%ADD11O,1.700000X1.700000*%
%TD*%
%TA.AperFunction,ComponentPad*%
%ADD12R,1.700000X1.700000*%
%TD*%
%TA.AperFunction,ViaPad*%
%ADD13C,1.500000*%
%TD*%
%TA.AperFunction,ViaPad*%
%ADD14C,1.000000*%
%TD*%
%TA.AperFunction,ViaPad*%
%ADD15C,0.800000*%
%TD*%
%TA.AperFunction,ViaPad*%
%ADD16C,0.500000*%
%TD*%
%TA.AperFunction,ViaPad*%
%ADD17C,0.600000*%
%TD*%
%TA.AperFunction,Conductor*%
%ADD18C,0.250000*%
%TD*%
G04 APERTURE END LIST*
D10*
%TO.N,unconnected-(J2-Pad1)*%
%TO.C,J2*%
X35533000Y-90611000D03*
%TO.N,+5V*%
X36803000Y-85491000D03*
D11*
%TO.N,Write*%
X38073000Y-90611000D03*
%TO.N,A12*%
X39343000Y-85491000D03*
%TO.N,A7*%
X40613000Y-90611000D03*
%TO.N,A6*%
X41883000Y-85491000D03*
%TO.N,A5*%
X43153000Y-90611000D03*
%TO.N,A4*%
X44423000Y-85491000D03*
%TO.N,A3*%
X45693000Y-90611000D03*
%TO.N,A2*%
X46963000Y-85491000D03*
%TO.N,A1*%
X48233000Y-90611000D03*
%TO.N,A0*%
X49503000Y-85491000D03*
%TO.N,D0*%
X50773000Y-90611000D03*
%TO.N,D1*%
X52043000Y-85491000D03*
%TO.N,D2*%
X53313000Y-90611000D03*
D12*
%TO.N,GND*%
X54583000Y-85491000D03*
X55853000Y-90611000D03*
X57123000Y-85491000D03*
D11*
%TO.N,D3*%
X58393000Y-90611000D03*
%TO.N,D4*%
X59663000Y-85491000D03*
%TO.N,D5*%
X60933000Y-90611000D03*
%TO.N,D6*%
X62203000Y-85491000D03*
%TO.N,D7*%
X63473000Y-90611000D03*
%TO.N,Enable*%
X64743000Y-85491000D03*
%TO.N,A10*%
X66013000Y-90611000D03*
%TO.N,Read*%
X67283000Y-85491000D03*
%TO.N,M0-7*%
X68553000Y-90611000D03*
%TO.N,A15*%
X69823000Y-85491000D03*
%TO.N,A11*%
X71093000Y-90611000D03*
%TO.N,A9*%
X72363000Y-85491000D03*
%TO.N,A8*%
X73633000Y-90611000D03*
%TO.N,A13*%
X74903000Y-85491000D03*
%TO.N,A14*%
X76173000Y-90611000D03*
%TO.N,M8-B*%
X77443000Y-85491000D03*
%TO.N,+5V*%
X78713000Y-90611000D03*
%TO.N,M1*%
X79983000Y-85491000D03*
%TO.N,IO_Request*%
X81253000Y-90611000D03*
%TO.N,Refresh*%
X82523000Y-85491000D03*
%TO.N,Reset*%
X83793000Y-90611000D03*
%TO.N,Clock*%
X85063000Y-85491000D03*
D12*
%TO.N,GND*%
X86333000Y-90611000D03*
D11*
%TO.N,unconnected-(J2-Pad42)*%
X87603000Y-85491000D03*
%TO.N,+5V*%
X88873000Y-90611000D03*
%TO.N,unconnected-(J2-Pad44)*%
X90143000Y-85491000D03*
%TO.N,unconnected-(J2-Pad45)*%
X91413000Y-90611000D03*
%TD*%
D13*
%TO.N,+5V*%
X95250000Y-106172000D03*
D14*
X50703461Y-107568500D03*
D15*
%TO.N,Write*%
X81280000Y-88392000D03*
%TO.N,Read*%
X78613000Y-87122000D03*
%TO.N,M8-B*%
X89408000Y-107442000D03*
%TO.N,A13*%
X86868000Y-107442000D03*
%TO.N,A9*%
X84328000Y-107442000D03*
%TO.N,M0-7*%
X81788000Y-107442000D03*
%TO.N,Enable*%
X79248000Y-107061000D03*
%TO.N,D6*%
X76200000Y-106934000D03*
%TO.N,D4*%
X73533000Y-107315000D03*
D16*
%TO.N,GND*%
X59055000Y-92329000D03*
X41275000Y-92329000D03*
X64135000Y-92329000D03*
X81915000Y-92710000D03*
X52705000Y-92329000D03*
X45085000Y-92329000D03*
X46355000Y-92329000D03*
D13*
X29464000Y-81661000D03*
X69342000Y-106934000D03*
D16*
X43815000Y-92329000D03*
X80645000Y-92710000D03*
X73025000Y-92710000D03*
X47625000Y-92329000D03*
X62865000Y-92329000D03*
D13*
X97536000Y-100076000D03*
X29464000Y-87757000D03*
X97536000Y-81661000D03*
D16*
X75565000Y-92710000D03*
X50165000Y-92329000D03*
D13*
X97536000Y-106172000D03*
X67281775Y-81661000D03*
D16*
X65405000Y-92329000D03*
X42545000Y-92329000D03*
X61595000Y-92329000D03*
D15*
X62738000Y-100203000D03*
D13*
X42926000Y-104267000D03*
X97536000Y-87884000D03*
D16*
X48895000Y-92329000D03*
X60325000Y-92329000D03*
D13*
X29464000Y-99949000D03*
X29464000Y-106045000D03*
X59718220Y-81661000D03*
D16*
X78105000Y-92710000D03*
D13*
X37027555Y-81661000D03*
X29464000Y-93853000D03*
D16*
X76835000Y-92710000D03*
X71755000Y-92710000D03*
D13*
X52154665Y-81661000D03*
D16*
X95885000Y-107823000D03*
X51435000Y-92329000D03*
D17*
X34036000Y-106680000D03*
D15*
X65532000Y-102997000D03*
D13*
X89972440Y-81661000D03*
D15*
X58674000Y-96012000D03*
D16*
X74295000Y-92710000D03*
D13*
X44591110Y-81661000D03*
X74845330Y-81661000D03*
X82408885Y-81661000D03*
X97536000Y-93980000D03*
D16*
X31369000Y-107823000D03*
X40005000Y-92329000D03*
D15*
%TO.N,D1*%
X66421000Y-107442000D03*
%TO.N,A0*%
X63445452Y-107369549D03*
%TO.N,A2*%
X60579000Y-107668500D03*
%TO.N,A4*%
X57658000Y-107668500D03*
%TO.N,A6*%
X54356000Y-106971500D03*
%TO.N,A12*%
X50419000Y-106172000D03*
%TO.N,A15*%
X49492500Y-107696000D03*
X57150000Y-88900000D03*
%TO.N,IO_Request*%
X61468000Y-99822000D03*
X48006000Y-105156000D03*
%TO.N,Refresh*%
X46228000Y-107442000D03*
X62484000Y-98966547D03*
%TO.N,Reset*%
X38608000Y-103505000D03*
%TO.N,Clock*%
X36068000Y-107442000D03*
%TD*%
D18*
%TO.N,Write*%
X81280000Y-88392000D02*
X80899000Y-88011000D01*
X80899000Y-88011000D02*
X40673000Y-88011000D01*
X40673000Y-88011000D02*
X38073000Y-90611000D01*
%TO.N,Read*%
X78613000Y-87122000D02*
X68914000Y-87122000D01*
X68914000Y-87122000D02*
X67283000Y-85491000D01*
%TO.N,A15*%
X49530000Y-101727000D02*
X57150000Y-94107000D01*
X49492500Y-107696000D02*
X49530000Y-107658500D01*
X57150000Y-94107000D02*
X57150000Y-88900000D01*
X49530000Y-107658500D02*
X49530000Y-101727000D01*
%TD*%
%TA.AperFunction,Conductor*%
%TO.N,GND*%
G36*
X109923621Y-66949502D02*
G01*
X109970114Y-67003158D01*
X109981500Y-67055500D01*
X109981500Y-107442500D01*
X109961498Y-107510621D01*
X109907842Y-107557114D01*
X109855500Y-107568500D01*
X96557476Y-107568500D01*
X96532897Y-107566079D01*
X96520000Y-107563514D01*
X96507828Y-107565935D01*
X96494933Y-107568500D01*
X96420699Y-107583266D01*
X96336516Y-107639516D01*
X96280266Y-107723699D01*
X96260514Y-107823000D01*
X96262935Y-107835170D01*
X96263079Y-107835894D01*
X96265500Y-107860476D01*
X96265500Y-108078000D01*
X96245498Y-108146121D01*
X96191842Y-108192614D01*
X96139500Y-108204000D01*
X89865179Y-108204000D01*
X89797058Y-108183998D01*
X89750565Y-108130342D01*
X89740461Y-108060068D01*
X89769955Y-107995488D01*
X89783348Y-107982189D01*
X89792576Y-107974308D01*
X89893314Y-107888269D01*
X89985755Y-107759624D01*
X90044842Y-107612641D01*
X90058201Y-107518773D01*
X90066581Y-107459891D01*
X90066581Y-107459888D01*
X90067162Y-107455807D01*
X90067307Y-107442000D01*
X90048276Y-107284733D01*
X89992280Y-107136546D01*
X89974221Y-107110270D01*
X89906855Y-107012251D01*
X89906854Y-107012249D01*
X89902553Y-107005992D01*
X89892717Y-106997228D01*
X89821235Y-106933541D01*
X89784275Y-106900611D01*
X89776889Y-106896700D01*
X89650988Y-106830039D01*
X89650989Y-106830039D01*
X89644274Y-106826484D01*
X89490633Y-106787892D01*
X89483034Y-106787852D01*
X89483033Y-106787852D01*
X89417181Y-106787507D01*
X89332221Y-106787062D01*
X89324841Y-106788834D01*
X89324839Y-106788834D01*
X89185563Y-106822271D01*
X89185560Y-106822272D01*
X89178184Y-106824043D01*
X89037414Y-106896700D01*
X88918039Y-107000838D01*
X88826950Y-107130444D01*
X88816279Y-107157814D01*
X88775002Y-107263685D01*
X88769406Y-107278037D01*
X88768414Y-107285570D01*
X88768414Y-107285571D01*
X88752373Y-107407419D01*
X88748729Y-107435096D01*
X88766113Y-107592553D01*
X88768723Y-107599684D01*
X88768723Y-107599686D01*
X88810632Y-107714207D01*
X88820553Y-107741319D01*
X88824789Y-107747622D01*
X88824789Y-107747623D01*
X88896061Y-107853686D01*
X88908908Y-107872805D01*
X88914527Y-107877918D01*
X88914528Y-107877919D01*
X89000475Y-107956124D01*
X89022619Y-107976273D01*
X89026076Y-107979419D01*
X89025552Y-107979995D01*
X89065787Y-108031061D01*
X89072602Y-108101730D01*
X89040129Y-108164864D01*
X88978677Y-108200420D01*
X88948857Y-108204000D01*
X87325179Y-108204000D01*
X87257058Y-108183998D01*
X87210565Y-108130342D01*
X87200461Y-108060068D01*
X87229955Y-107995488D01*
X87243348Y-107982189D01*
X87252576Y-107974308D01*
X87353314Y-107888269D01*
X87445755Y-107759624D01*
X87504842Y-107612641D01*
X87518201Y-107518773D01*
X87526581Y-107459891D01*
X87526581Y-107459888D01*
X87527162Y-107455807D01*
X87527307Y-107442000D01*
X87508276Y-107284733D01*
X87452280Y-107136546D01*
X87434221Y-107110270D01*
X87366855Y-107012251D01*
X87366854Y-107012249D01*
X87362553Y-107005992D01*
X87352717Y-106997228D01*
X87281235Y-106933541D01*
X87244275Y-106900611D01*
X87236889Y-106896700D01*
X87110988Y-106830039D01*
X87110989Y-106830039D01*
X87104274Y-106826484D01*
X86950633Y-106787892D01*
X86943034Y-106787852D01*
X86943033Y-106787852D01*
X86877181Y-106787507D01*
X86792221Y-106787062D01*
X86784841Y-106788834D01*
X86784839Y-106788834D01*
X86645563Y-106822271D01*
X86645560Y-106822272D01*
X86638184Y-106824043D01*
X86497414Y-106896700D01*
X86378039Y-107000838D01*
X86286950Y-107130444D01*
X86276279Y-107157814D01*
X86235002Y-107263685D01*
X86229406Y-107278037D01*
X86228414Y-107285570D01*
X86228414Y-107285571D01*
X86212373Y-107407419D01*
X86208729Y-107435096D01*
X86226113Y-107592553D01*
X86228723Y-107599684D01*
X86228723Y-107599686D01*
X86270632Y-107714207D01*
X86280553Y-107741319D01*
X86284789Y-107747622D01*
X86284789Y-107747623D01*
X86356061Y-107853686D01*
X86368908Y-107872805D01*
X86374527Y-107877918D01*
X86374528Y-107877919D01*
X86460475Y-107956124D01*
X86482619Y-107976273D01*
X86486076Y-107979419D01*
X86485552Y-107979995D01*
X86525787Y-108031061D01*
X86532602Y-108101730D01*
X86500129Y-108164864D01*
X86438677Y-108200420D01*
X86408857Y-108204000D01*
X84785179Y-108204000D01*
X84717058Y-108183998D01*
X84670565Y-108130342D01*
X84660461Y-108060068D01*
X84689955Y-107995488D01*
X84703348Y-107982189D01*
X84712576Y-107974308D01*
X84813314Y-107888269D01*
X84905755Y-107759624D01*
X84964842Y-107612641D01*
X84978201Y-107518773D01*
X84986581Y-107459891D01*
X84986581Y-107459888D01*
X84987162Y-107455807D01*
X84987307Y-107442000D01*
X84968276Y-107284733D01*
X84912280Y-107136546D01*
X84894221Y-107110270D01*
X84826855Y-107012251D01*
X84826854Y-107012249D01*
X84822553Y-107005992D01*
X84812717Y-106997228D01*
X84741235Y-106933541D01*
X84704275Y-106900611D01*
X84696889Y-106896700D01*
X84570988Y-106830039D01*
X84570989Y-106830039D01*
X84564274Y-106826484D01*
X84410633Y-106787892D01*
X84403034Y-106787852D01*
X84403033Y-106787852D01*
X84337181Y-106787507D01*
X84252221Y-106787062D01*
X84244841Y-106788834D01*
X84244839Y-106788834D01*
X84105563Y-106822271D01*
X84105560Y-106822272D01*
X84098184Y-106824043D01*
X83957414Y-106896700D01*
X83838039Y-107000838D01*
X83746950Y-107130444D01*
X83736279Y-107157814D01*
X83695002Y-107263685D01*
X83689406Y-107278037D01*
X83688414Y-107285570D01*
X83688414Y-107285571D01*
X83672373Y-107407419D01*
X83668729Y-107435096D01*
X83686113Y-107592553D01*
X83688723Y-107599684D01*
X83688723Y-107599686D01*
X83730632Y-107714207D01*
X83740553Y-107741319D01*
X83744789Y-107747622D01*
X83744789Y-107747623D01*
X83816061Y-107853686D01*
X83828908Y-107872805D01*
X83834527Y-107877918D01*
X83834528Y-107877919D01*
X83920475Y-107956124D01*
X83942619Y-107976273D01*
X83946076Y-107979419D01*
X83945552Y-107979995D01*
X83985787Y-108031061D01*
X83992602Y-108101730D01*
X83960129Y-108164864D01*
X83898677Y-108200420D01*
X83868857Y-108204000D01*
X82245179Y-108204000D01*
X82177058Y-108183998D01*
X82130565Y-108130342D01*
X82120461Y-108060068D01*
X82149955Y-107995488D01*
X82163348Y-107982189D01*
X82172576Y-107974308D01*
X82273314Y-107888269D01*
X82365755Y-107759624D01*
X82424842Y-107612641D01*
X82438201Y-107518773D01*
X82446581Y-107459891D01*
X82446581Y-107459888D01*
X82447162Y-107455807D01*
X82447307Y-107442000D01*
X82428276Y-107284733D01*
X82372280Y-107136546D01*
X82354221Y-107110270D01*
X82286855Y-107012251D01*
X82286854Y-107012249D01*
X82282553Y-107005992D01*
X82272717Y-106997228D01*
X82201235Y-106933541D01*
X82164275Y-106900611D01*
X82156889Y-106896700D01*
X82030988Y-106830039D01*
X82030989Y-106830039D01*
X82024274Y-106826484D01*
X81870633Y-106787892D01*
X81863034Y-106787852D01*
X81863033Y-106787852D01*
X81797181Y-106787507D01*
X81712221Y-106787062D01*
X81704841Y-106788834D01*
X81704839Y-106788834D01*
X81565563Y-106822271D01*
X81565560Y-106822272D01*
X81558184Y-106824043D01*
X81417414Y-106896700D01*
X81298039Y-107000838D01*
X81206950Y-107130444D01*
X81196279Y-107157814D01*
X81155002Y-107263685D01*
X81149406Y-107278037D01*
X81148414Y-107285570D01*
X81148414Y-107285571D01*
X81132373Y-107407419D01*
X81128729Y-107435096D01*
X81146113Y-107592553D01*
X81148723Y-107599684D01*
X81148723Y-107599686D01*
X81190632Y-107714207D01*
X81200553Y-107741319D01*
X81204789Y-107747622D01*
X81204789Y-107747623D01*
X81276061Y-107853686D01*
X81288908Y-107872805D01*
X81294527Y-107877918D01*
X81294528Y-107877919D01*
X81380475Y-107956124D01*
X81402619Y-107976273D01*
X81406076Y-107979419D01*
X81405552Y-107979995D01*
X81445787Y-108031061D01*
X81452602Y-108101730D01*
X81420129Y-108164864D01*
X81358677Y-108200420D01*
X81328857Y-108204000D01*
X73697788Y-108204000D01*
X73629667Y-108183998D01*
X73583174Y-108130342D01*
X73573070Y-108060068D01*
X73602564Y-107995488D01*
X73662290Y-107957104D01*
X73669658Y-107955180D01*
X73756332Y-107935329D01*
X73840089Y-107893204D01*
X73891072Y-107867563D01*
X73891075Y-107867561D01*
X73897855Y-107864151D01*
X73903626Y-107859222D01*
X73903629Y-107859220D01*
X74012536Y-107766204D01*
X74012536Y-107766203D01*
X74018314Y-107761269D01*
X74110755Y-107632624D01*
X74169842Y-107485641D01*
X74185717Y-107374095D01*
X74191581Y-107332891D01*
X74191581Y-107332888D01*
X74192162Y-107328807D01*
X74192307Y-107315000D01*
X74173276Y-107157733D01*
X74117280Y-107009546D01*
X74090227Y-106970184D01*
X74060614Y-106927096D01*
X75540729Y-106927096D01*
X75546765Y-106981766D01*
X75556639Y-107071198D01*
X75558113Y-107084553D01*
X75560723Y-107091684D01*
X75560723Y-107091686D01*
X75609185Y-107224115D01*
X75612553Y-107233319D01*
X75616789Y-107239622D01*
X75616789Y-107239623D01*
X75695626Y-107356944D01*
X75700908Y-107364805D01*
X75706527Y-107369918D01*
X75706528Y-107369919D01*
X75805407Y-107459891D01*
X75818076Y-107471419D01*
X75957293Y-107547008D01*
X76110522Y-107587207D01*
X76194477Y-107588526D01*
X76261319Y-107589576D01*
X76261322Y-107589576D01*
X76268916Y-107589695D01*
X76423332Y-107554329D01*
X76507089Y-107512204D01*
X76558072Y-107486563D01*
X76558075Y-107486561D01*
X76564855Y-107483151D01*
X76570626Y-107478222D01*
X76570629Y-107478220D01*
X76679536Y-107385204D01*
X76679536Y-107385203D01*
X76685314Y-107380269D01*
X76777755Y-107251624D01*
X76836842Y-107104641D01*
X76844036Y-107054096D01*
X78588729Y-107054096D01*
X78594655Y-107107768D01*
X78604673Y-107198506D01*
X78606113Y-107211553D01*
X78608723Y-107218684D01*
X78608723Y-107218686D01*
X78645482Y-107319134D01*
X78660553Y-107360319D01*
X78664789Y-107366622D01*
X78664789Y-107366623D01*
X78739709Y-107478115D01*
X78748908Y-107491805D01*
X78754527Y-107496918D01*
X78754528Y-107496919D01*
X78859629Y-107592553D01*
X78866076Y-107598419D01*
X79005293Y-107674008D01*
X79158522Y-107714207D01*
X79242477Y-107715526D01*
X79309319Y-107716576D01*
X79309322Y-107716576D01*
X79316916Y-107716695D01*
X79471332Y-107681329D01*
X79568174Y-107632623D01*
X79606072Y-107613563D01*
X79606075Y-107613561D01*
X79612855Y-107610151D01*
X79618626Y-107605222D01*
X79618629Y-107605220D01*
X79727536Y-107512204D01*
X79727536Y-107512203D01*
X79733314Y-107507269D01*
X79825755Y-107378624D01*
X79884842Y-107231641D01*
X79900129Y-107124228D01*
X79906581Y-107078891D01*
X79906581Y-107078888D01*
X79907162Y-107074807D01*
X79907307Y-107061000D01*
X79888276Y-106903733D01*
X79832280Y-106755546D01*
X79770769Y-106666046D01*
X79746855Y-106631251D01*
X79746854Y-106631249D01*
X79742553Y-106624992D01*
X79732717Y-106616228D01*
X79688341Y-106576691D01*
X79624275Y-106519611D01*
X79616889Y-106515700D01*
X79490988Y-106449039D01*
X79490989Y-106449039D01*
X79484274Y-106445484D01*
X79330633Y-106406892D01*
X79323034Y-106406852D01*
X79323033Y-106406852D01*
X79257181Y-106406507D01*
X79172221Y-106406062D01*
X79164841Y-106407834D01*
X79164839Y-106407834D01*
X79025563Y-106441271D01*
X79025560Y-106441272D01*
X79018184Y-106443043D01*
X78877414Y-106515700D01*
X78758039Y-106619838D01*
X78666950Y-106749444D01*
X78651960Y-106787892D01*
X78612209Y-106889848D01*
X78609406Y-106897037D01*
X78608414Y-106904570D01*
X78608414Y-106904571D01*
X78592295Y-107027010D01*
X78588729Y-107054096D01*
X76844036Y-107054096D01*
X76849365Y-107016649D01*
X76858581Y-106951891D01*
X76858581Y-106951888D01*
X76859162Y-106947807D01*
X76859307Y-106934000D01*
X76840276Y-106776733D01*
X76784280Y-106628546D01*
X76756350Y-106587907D01*
X76698855Y-106504251D01*
X76698854Y-106504249D01*
X76694553Y-106497992D01*
X76576275Y-106392611D01*
X76568889Y-106388700D01*
X76507099Y-106355984D01*
X76436274Y-106318484D01*
X76282633Y-106279892D01*
X76275034Y-106279852D01*
X76275033Y-106279852D01*
X76209181Y-106279507D01*
X76124221Y-106279062D01*
X76116841Y-106280834D01*
X76116839Y-106280834D01*
X75977563Y-106314271D01*
X75977560Y-106314272D01*
X75970184Y-106316043D01*
X75829414Y-106388700D01*
X75710039Y-106492838D01*
X75618950Y-106622444D01*
X75603960Y-106660892D01*
X75565906Y-106758496D01*
X75561406Y-106770037D01*
X75560414Y-106777570D01*
X75560414Y-106777571D01*
X75543551Y-106905664D01*
X75540729Y-106927096D01*
X74060614Y-106927096D01*
X74031855Y-106885251D01*
X74031854Y-106885249D01*
X74027553Y-106878992D01*
X73909275Y-106773611D01*
X73901889Y-106769700D01*
X73802907Y-106717292D01*
X73769274Y-106699484D01*
X73615633Y-106660892D01*
X73608034Y-106660852D01*
X73608033Y-106660852D01*
X73542181Y-106660507D01*
X73457221Y-106660062D01*
X73449841Y-106661834D01*
X73449839Y-106661834D01*
X73310563Y-106695271D01*
X73310560Y-106695272D01*
X73303184Y-106697043D01*
X73162414Y-106769700D01*
X73043039Y-106873838D01*
X72951950Y-107003444D01*
X72933106Y-107051777D01*
X72900037Y-107136595D01*
X72894406Y-107151037D01*
X72893414Y-107158570D01*
X72893414Y-107158571D01*
X72875414Y-107295298D01*
X72873729Y-107308096D01*
X72891113Y-107465553D01*
X72893723Y-107472684D01*
X72893723Y-107472686D01*
X72942185Y-107605115D01*
X72945553Y-107614319D01*
X72949789Y-107620622D01*
X72949789Y-107620623D01*
X73027233Y-107735871D01*
X73033908Y-107745805D01*
X73039527Y-107750918D01*
X73039528Y-107750919D01*
X73144236Y-107846195D01*
X73151076Y-107852419D01*
X73290293Y-107928008D01*
X73373606Y-107949865D01*
X73397464Y-107956124D01*
X73458279Y-107992758D01*
X73489634Y-108056455D01*
X73481575Y-108126993D01*
X73436659Y-108181976D01*
X73365490Y-108204000D01*
X66878179Y-108204000D01*
X66810058Y-108183998D01*
X66763565Y-108130342D01*
X66753461Y-108060068D01*
X66782955Y-107995488D01*
X66796348Y-107982189D01*
X66805576Y-107974308D01*
X66906314Y-107888269D01*
X66998755Y-107759624D01*
X67057842Y-107612641D01*
X67071201Y-107518773D01*
X67079581Y-107459891D01*
X67079581Y-107459888D01*
X67080162Y-107455807D01*
X67080307Y-107442000D01*
X67061276Y-107284733D01*
X67005280Y-107136546D01*
X66987221Y-107110270D01*
X66919855Y-107012251D01*
X66919854Y-107012249D01*
X66915553Y-107005992D01*
X66905717Y-106997228D01*
X66834235Y-106933541D01*
X66797275Y-106900611D01*
X66789889Y-106896700D01*
X66663988Y-106830039D01*
X66663989Y-106830039D01*
X66657274Y-106826484D01*
X66503633Y-106787892D01*
X66496034Y-106787852D01*
X66496033Y-106787852D01*
X66430181Y-106787507D01*
X66345221Y-106787062D01*
X66337841Y-106788834D01*
X66337839Y-106788834D01*
X66198563Y-106822271D01*
X66198560Y-106822272D01*
X66191184Y-106824043D01*
X66050414Y-106896700D01*
X65931039Y-107000838D01*
X65839950Y-107130444D01*
X65829279Y-107157814D01*
X65788002Y-107263685D01*
X65782406Y-107278037D01*
X65781414Y-107285570D01*
X65781414Y-107285571D01*
X65765373Y-107407419D01*
X65761729Y-107435096D01*
X65779113Y-107592553D01*
X65781723Y-107599684D01*
X65781723Y-107599686D01*
X65823632Y-107714207D01*
X65833553Y-107741319D01*
X65837789Y-107747622D01*
X65837789Y-107747623D01*
X65909061Y-107853686D01*
X65921908Y-107872805D01*
X65927527Y-107877918D01*
X65927528Y-107877919D01*
X66013475Y-107956124D01*
X66035619Y-107976273D01*
X66039076Y-107979419D01*
X66038552Y-107979995D01*
X66078787Y-108031061D01*
X66085602Y-108101730D01*
X66053129Y-108164864D01*
X65991677Y-108200420D01*
X65961857Y-108204000D01*
X63773998Y-108204000D01*
X63705877Y-108183998D01*
X63659384Y-108130342D01*
X63649280Y-108060068D01*
X63678774Y-107995488D01*
X63717384Y-107965435D01*
X63803524Y-107922112D01*
X63803527Y-107922110D01*
X63810307Y-107918700D01*
X63816078Y-107913771D01*
X63816081Y-107913769D01*
X63924988Y-107820753D01*
X63924988Y-107820752D01*
X63930766Y-107815818D01*
X64023207Y-107687173D01*
X64082294Y-107540190D01*
X64092081Y-107471419D01*
X64104033Y-107387440D01*
X64104033Y-107387437D01*
X64104614Y-107383356D01*
X64104683Y-107376814D01*
X64104716Y-107373683D01*
X64104716Y-107373677D01*
X64104759Y-107369549D01*
X64104091Y-107364024D01*
X64097661Y-107310892D01*
X64085728Y-107212282D01*
X64029732Y-107064095D01*
X63989799Y-107005992D01*
X63944307Y-106939800D01*
X63944306Y-106939798D01*
X63940005Y-106933541D01*
X63821727Y-106828160D01*
X63814341Y-106824249D01*
X63688440Y-106757588D01*
X63688441Y-106757588D01*
X63681726Y-106754033D01*
X63528085Y-106715441D01*
X63520486Y-106715401D01*
X63520485Y-106715401D01*
X63454633Y-106715056D01*
X63369673Y-106714611D01*
X63362293Y-106716383D01*
X63362291Y-106716383D01*
X63223015Y-106749820D01*
X63223012Y-106749821D01*
X63215636Y-106751592D01*
X63074866Y-106824249D01*
X62955491Y-106928387D01*
X62864402Y-107057993D01*
X62838578Y-107124228D01*
X62812586Y-107190895D01*
X62806858Y-107205586D01*
X62805866Y-107213119D01*
X62805866Y-107213120D01*
X62787750Y-107350728D01*
X62786181Y-107362645D01*
X62794180Y-107435096D01*
X62802586Y-107511233D01*
X62803565Y-107520102D01*
X62806175Y-107527233D01*
X62806175Y-107527235D01*
X62855344Y-107661596D01*
X62858005Y-107668868D01*
X62862241Y-107675171D01*
X62862241Y-107675172D01*
X62921871Y-107763910D01*
X62946360Y-107800354D01*
X62951979Y-107805467D01*
X62951980Y-107805468D01*
X63016472Y-107864151D01*
X63063528Y-107906968D01*
X63070201Y-107910591D01*
X63174588Y-107967269D01*
X63224910Y-108017352D01*
X63240166Y-108086690D01*
X63215513Y-108153269D01*
X63158779Y-108195951D01*
X63114466Y-108204000D01*
X61245891Y-108204000D01*
X61177770Y-108183998D01*
X61131277Y-108130342D01*
X61121173Y-108060068D01*
X61143568Y-108004476D01*
X61156755Y-107986124D01*
X61215842Y-107839141D01*
X61226549Y-107763910D01*
X61237581Y-107686391D01*
X61237581Y-107686388D01*
X61238162Y-107682307D01*
X61238307Y-107668500D01*
X61219276Y-107511233D01*
X61163280Y-107363046D01*
X61099989Y-107270957D01*
X61077855Y-107238751D01*
X61077854Y-107238749D01*
X61073553Y-107232492D01*
X61059333Y-107219822D01*
X60999482Y-107166498D01*
X60955275Y-107127111D01*
X60947889Y-107123200D01*
X60874897Y-107084553D01*
X60815274Y-107052984D01*
X60661633Y-107014392D01*
X60654034Y-107014352D01*
X60654033Y-107014352D01*
X60588181Y-107014007D01*
X60503221Y-107013562D01*
X60495841Y-107015334D01*
X60495839Y-107015334D01*
X60356563Y-107048771D01*
X60356560Y-107048772D01*
X60349184Y-107050543D01*
X60208414Y-107123200D01*
X60089039Y-107227338D01*
X59997950Y-107356944D01*
X59980265Y-107402305D01*
X59947414Y-107486563D01*
X59940406Y-107504537D01*
X59939414Y-107512070D01*
X59939414Y-107512071D01*
X59921278Y-107649832D01*
X59919729Y-107661596D01*
X59927743Y-107734185D01*
X59935049Y-107800354D01*
X59937113Y-107819053D01*
X59939723Y-107826184D01*
X59939723Y-107826186D01*
X59986928Y-107955180D01*
X59991553Y-107967819D01*
X59995789Y-107974122D01*
X59995789Y-107974123D01*
X60018368Y-108007724D01*
X60039760Y-108075421D01*
X60021156Y-108143937D01*
X59968463Y-108191518D01*
X59913786Y-108204000D01*
X58324891Y-108204000D01*
X58256770Y-108183998D01*
X58210277Y-108130342D01*
X58200173Y-108060068D01*
X58222568Y-108004476D01*
X58235755Y-107986124D01*
X58294842Y-107839141D01*
X58305549Y-107763910D01*
X58316581Y-107686391D01*
X58316581Y-107686388D01*
X58317162Y-107682307D01*
X58317307Y-107668500D01*
X58298276Y-107511233D01*
X58242280Y-107363046D01*
X58178989Y-107270957D01*
X58156855Y-107238751D01*
X58156854Y-107238749D01*
X58152553Y-107232492D01*
X58138333Y-107219822D01*
X58078482Y-107166498D01*
X58034275Y-107127111D01*
X58026889Y-107123200D01*
X57953897Y-107084553D01*
X57894274Y-107052984D01*
X57740633Y-107014392D01*
X57733034Y-107014352D01*
X57733033Y-107014352D01*
X57667181Y-107014007D01*
X57582221Y-107013562D01*
X57574841Y-107015334D01*
X57574839Y-107015334D01*
X57435563Y-107048771D01*
X57435560Y-107048772D01*
X57428184Y-107050543D01*
X57287414Y-107123200D01*
X57168039Y-107227338D01*
X57076950Y-107356944D01*
X57059265Y-107402305D01*
X57026414Y-107486563D01*
X57019406Y-107504537D01*
X57018414Y-107512070D01*
X57018414Y-107512071D01*
X57000278Y-107649832D01*
X56998729Y-107661596D01*
X57006743Y-107734185D01*
X57014049Y-107800354D01*
X57016113Y-107819053D01*
X57018723Y-107826184D01*
X57018723Y-107826186D01*
X57065928Y-107955180D01*
X57070553Y-107967819D01*
X57074789Y-107974122D01*
X57074789Y-107974123D01*
X57097368Y-108007724D01*
X57118760Y-108075421D01*
X57100156Y-108143937D01*
X57047463Y-108191518D01*
X56992786Y-108204000D01*
X51422124Y-108204000D01*
X51354003Y-108183998D01*
X51307510Y-108130342D01*
X51297406Y-108060068D01*
X51317176Y-108008273D01*
X51374871Y-107921435D01*
X51374872Y-107921433D01*
X51378772Y-107915563D01*
X51438881Y-107757324D01*
X51450783Y-107672634D01*
X51461888Y-107593623D01*
X51461888Y-107593618D01*
X51462439Y-107589700D01*
X51462735Y-107568500D01*
X51455479Y-107503809D01*
X51444652Y-107407280D01*
X51444651Y-107407277D01*
X51443867Y-107400284D01*
X51388199Y-107240429D01*
X51298499Y-107096879D01*
X51266474Y-107064629D01*
X51218424Y-107016243D01*
X51179225Y-106976769D01*
X51171941Y-106972146D01*
X51160044Y-106964596D01*
X53696729Y-106964596D01*
X53702222Y-107014352D01*
X53713177Y-107113574D01*
X53714113Y-107122053D01*
X53716723Y-107129184D01*
X53716723Y-107129186D01*
X53764979Y-107261052D01*
X53768553Y-107270819D01*
X53772789Y-107277122D01*
X53772789Y-107277123D01*
X53845417Y-107385204D01*
X53856908Y-107402305D01*
X53862527Y-107407418D01*
X53862528Y-107407419D01*
X53949507Y-107486563D01*
X53974076Y-107508919D01*
X54113293Y-107584508D01*
X54266522Y-107624707D01*
X54350477Y-107626026D01*
X54417319Y-107627076D01*
X54417322Y-107627076D01*
X54424916Y-107627195D01*
X54579332Y-107591829D01*
X54665487Y-107548498D01*
X54714072Y-107524063D01*
X54714075Y-107524061D01*
X54720855Y-107520651D01*
X54726626Y-107515722D01*
X54726629Y-107515720D01*
X54835536Y-107422704D01*
X54835536Y-107422703D01*
X54841314Y-107417769D01*
X54933755Y-107289124D01*
X54992842Y-107142141D01*
X55001657Y-107080203D01*
X55014581Y-106989391D01*
X55014581Y-106989388D01*
X55015162Y-106985307D01*
X55015307Y-106971500D01*
X54996276Y-106814233D01*
X54940280Y-106666046D01*
X54912793Y-106626052D01*
X54854855Y-106541751D01*
X54854854Y-106541749D01*
X54850553Y-106535492D01*
X54832729Y-106519611D01*
X54753519Y-106449039D01*
X54732275Y-106430111D01*
X54724889Y-106426200D01*
X54678184Y-106401471D01*
X54592274Y-106355984D01*
X54438633Y-106317392D01*
X54431034Y-106317352D01*
X54431033Y-106317352D01*
X54365181Y-106317007D01*
X54280221Y-106316562D01*
X54272841Y-106318334D01*
X54272839Y-106318334D01*
X54133563Y-106351771D01*
X54133560Y-106351772D01*
X54126184Y-106353543D01*
X53985414Y-106426200D01*
X53866039Y-106530338D01*
X53774950Y-106659944D01*
X53750129Y-106723607D01*
X53724344Y-106789743D01*
X53717406Y-106807537D01*
X53716414Y-106815070D01*
X53716414Y-106815071D01*
X53698402Y-106951891D01*
X53696729Y-106964596D01*
X51160044Y-106964596D01*
X51105359Y-106929892D01*
X51036305Y-106886069D01*
X50940454Y-106851938D01*
X50927039Y-106847161D01*
X50869575Y-106805467D01*
X50843775Y-106739324D01*
X50857830Y-106669733D01*
X50887475Y-106632651D01*
X50898536Y-106623204D01*
X50898536Y-106623203D01*
X50904314Y-106618269D01*
X50996755Y-106489624D01*
X51055842Y-106342641D01*
X51076116Y-106200183D01*
X51077581Y-106189891D01*
X51077581Y-106189888D01*
X51078162Y-106185807D01*
X51078307Y-106172000D01*
X51076602Y-106157907D01*
X94240738Y-106157907D01*
X94241627Y-106168494D01*
X94256251Y-106342641D01*
X94257222Y-106354209D01*
X94283395Y-106445484D01*
X94309509Y-106536552D01*
X94311521Y-106543570D01*
X94314336Y-106549047D01*
X94396756Y-106709419D01*
X94401566Y-106718779D01*
X94405389Y-106723603D01*
X94405392Y-106723607D01*
X94489750Y-106830039D01*
X94523927Y-106873160D01*
X94528620Y-106877154D01*
X94528621Y-106877155D01*
X94655700Y-106985307D01*
X94673945Y-107000835D01*
X94679323Y-107003841D01*
X94679325Y-107003842D01*
X94831012Y-107088617D01*
X94845904Y-107096940D01*
X95033255Y-107157814D01*
X95228862Y-107181139D01*
X95234997Y-107180667D01*
X95234999Y-107180667D01*
X95294801Y-107176065D01*
X95425274Y-107166026D01*
X95615009Y-107113050D01*
X95625466Y-107107768D01*
X95785341Y-107027010D01*
X95785343Y-107027009D01*
X95790842Y-107024231D01*
X95946074Y-106902950D01*
X95950100Y-106898286D01*
X95950103Y-106898283D01*
X96070764Y-106758496D01*
X96070765Y-106758494D01*
X96074793Y-106753828D01*
X96172096Y-106582544D01*
X96234277Y-106395622D01*
X96258966Y-106200183D01*
X96259360Y-106172000D01*
X96240137Y-105975948D01*
X96183200Y-105787363D01*
X96175518Y-105772916D01*
X96093611Y-105618871D01*
X96093609Y-105618868D01*
X96090717Y-105613429D01*
X95966212Y-105460770D01*
X95900894Y-105406734D01*
X95819177Y-105339132D01*
X95819174Y-105339130D01*
X95814427Y-105335203D01*
X95641143Y-105241508D01*
X95452960Y-105183256D01*
X95446835Y-105182612D01*
X95446834Y-105182612D01*
X95263176Y-105163309D01*
X95263174Y-105163309D01*
X95257047Y-105162665D01*
X95178570Y-105169807D01*
X95067004Y-105179960D01*
X95067001Y-105179961D01*
X95060865Y-105180519D01*
X95054959Y-105182257D01*
X95054955Y-105182258D01*
X94914775Y-105223516D01*
X94871887Y-105236138D01*
X94866427Y-105238992D01*
X94866428Y-105238992D01*
X94702772Y-105324549D01*
X94702768Y-105324552D01*
X94697312Y-105327404D01*
X94692512Y-105331264D01*
X94692511Y-105331264D01*
X94687612Y-105335203D01*
X94543788Y-105450840D01*
X94417163Y-105601745D01*
X94410740Y-105613429D01*
X94330911Y-105758639D01*
X94322262Y-105774371D01*
X94320398Y-105780246D01*
X94320397Y-105780249D01*
X94310960Y-105809999D01*
X94262697Y-105962142D01*
X94240738Y-106157907D01*
X51076602Y-106157907D01*
X51059276Y-106014733D01*
X51003280Y-105866546D01*
X50965500Y-105811576D01*
X50917855Y-105742251D01*
X50917854Y-105742249D01*
X50913553Y-105735992D01*
X50795275Y-105630611D01*
X50787889Y-105626700D01*
X50661988Y-105560039D01*
X50661989Y-105560039D01*
X50655274Y-105556484D01*
X50501633Y-105517892D01*
X50494034Y-105517852D01*
X50494033Y-105517852D01*
X50428181Y-105517507D01*
X50343221Y-105517062D01*
X50335841Y-105518834D01*
X50335839Y-105518834D01*
X50196563Y-105552271D01*
X50196560Y-105552272D01*
X50189184Y-105554043D01*
X50093289Y-105603538D01*
X50023583Y-105617007D01*
X49957659Y-105590652D01*
X49916450Y-105532840D01*
X49909500Y-105491572D01*
X49909500Y-101936384D01*
X49929502Y-101868263D01*
X49946405Y-101847289D01*
X51978598Y-99815096D01*
X60808729Y-99815096D01*
X60826113Y-99972553D01*
X60880553Y-100121319D01*
X60968908Y-100252805D01*
X60974527Y-100257918D01*
X60974528Y-100257919D01*
X60985903Y-100268269D01*
X61086076Y-100359419D01*
X61225293Y-100435008D01*
X61378522Y-100475207D01*
X61462477Y-100476526D01*
X61529319Y-100477576D01*
X61529322Y-100477576D01*
X61536916Y-100477695D01*
X61691332Y-100442329D01*
X61761742Y-100406917D01*
X61826072Y-100374563D01*
X61826075Y-100374561D01*
X61832855Y-100371151D01*
X61838626Y-100366222D01*
X61838629Y-100366220D01*
X61947536Y-100273204D01*
X61947536Y-100273203D01*
X61953314Y-100268269D01*
X62045755Y-100139624D01*
X62104842Y-99992641D01*
X62127162Y-99835807D01*
X62127307Y-99822000D01*
X62115542Y-99724779D01*
X62127216Y-99654751D01*
X62174898Y-99602149D01*
X62243449Y-99583677D01*
X62272601Y-99587769D01*
X62394522Y-99619754D01*
X62478477Y-99621073D01*
X62545319Y-99622123D01*
X62545322Y-99622123D01*
X62552916Y-99622242D01*
X62707332Y-99586876D01*
X62777742Y-99551464D01*
X62842072Y-99519110D01*
X62842075Y-99519108D01*
X62848855Y-99515698D01*
X62854626Y-99510769D01*
X62854629Y-99510767D01*
X62963536Y-99417751D01*
X62963536Y-99417750D01*
X62969314Y-99412816D01*
X63061755Y-99284171D01*
X63120842Y-99137188D01*
X63143162Y-98980354D01*
X63143307Y-98966547D01*
X63124276Y-98809280D01*
X63068280Y-98661093D01*
X62978553Y-98530539D01*
X62860275Y-98425158D01*
X62852889Y-98421247D01*
X62726988Y-98354586D01*
X62726989Y-98354586D01*
X62720274Y-98351031D01*
X62566633Y-98312439D01*
X62559034Y-98312399D01*
X62559033Y-98312399D01*
X62493181Y-98312054D01*
X62408221Y-98311609D01*
X62400841Y-98313381D01*
X62400839Y-98313381D01*
X62261563Y-98346818D01*
X62261560Y-98346819D01*
X62254184Y-98348590D01*
X62113414Y-98421247D01*
X61994039Y-98525385D01*
X61902950Y-98654991D01*
X61845406Y-98802584D01*
X61824729Y-98959643D01*
X61836300Y-99064447D01*
X61823894Y-99134351D01*
X61775665Y-99186451D01*
X61706924Y-99204206D01*
X61680366Y-99200478D01*
X61558004Y-99169743D01*
X61558000Y-99169743D01*
X61550633Y-99167892D01*
X61543034Y-99167852D01*
X61543033Y-99167852D01*
X61477181Y-99167507D01*
X61392221Y-99167062D01*
X61384841Y-99168834D01*
X61384839Y-99168834D01*
X61245563Y-99202271D01*
X61245560Y-99202272D01*
X61238184Y-99204043D01*
X61097414Y-99276700D01*
X60978039Y-99380838D01*
X60886950Y-99510444D01*
X60860005Y-99579555D01*
X60845084Y-99617826D01*
X60829406Y-99658037D01*
X60808729Y-99815096D01*
X51978598Y-99815096D01*
X57380216Y-94413478D01*
X57398964Y-94398336D01*
X57400189Y-94397221D01*
X57408940Y-94391571D01*
X57415387Y-94383393D01*
X57415389Y-94383391D01*
X57429729Y-94365200D01*
X57433678Y-94360756D01*
X57433604Y-94360694D01*
X57436957Y-94356737D01*
X57440638Y-94353056D01*
X57451865Y-94337346D01*
X57455421Y-94332609D01*
X57480708Y-94300532D01*
X57487156Y-94292353D01*
X57490189Y-94283716D01*
X57495513Y-94276266D01*
X57510202Y-94227151D01*
X57512034Y-94221514D01*
X57526390Y-94180633D01*
X57526390Y-94180632D01*
X57529018Y-94173149D01*
X57529500Y-94167584D01*
X57529500Y-94164876D01*
X57529614Y-94162242D01*
X57529643Y-94162144D01*
X57529807Y-94162151D01*
X57529851Y-94161447D01*
X57531713Y-94155222D01*
X57529597Y-94101365D01*
X57529500Y-94096418D01*
X57529500Y-91598222D01*
X57549502Y-91530101D01*
X57603158Y-91483608D01*
X57673432Y-91473504D01*
X57725501Y-91493457D01*
X57863720Y-91585812D01*
X57869023Y-91588090D01*
X57869026Y-91588092D01*
X57957707Y-91626192D01*
X58050228Y-91665942D01*
X58123244Y-91682464D01*
X58242579Y-91709467D01*
X58242584Y-91709468D01*
X58248216Y-91710742D01*
X58253987Y-91710969D01*
X58253989Y-91710969D01*
X58313756Y-91713317D01*
X58451053Y-91718712D01*
X58551499Y-91704148D01*
X58646231Y-91690413D01*
X58646236Y-91690412D01*
X58651945Y-91689584D01*
X58657409Y-91687729D01*
X58657414Y-91687728D01*
X58838693Y-91626192D01*
X58838698Y-91626190D01*
X58844165Y-91624334D01*
X59021276Y-91525147D01*
X59036495Y-91512490D01*
X59172913Y-91399031D01*
X59177345Y-91395345D01*
X59307147Y-91239276D01*
X59406334Y-91062165D01*
X59408190Y-91056698D01*
X59408192Y-91056693D01*
X59469728Y-90875414D01*
X59469729Y-90875409D01*
X59471584Y-90869945D01*
X59472412Y-90864236D01*
X59472413Y-90864231D01*
X59500179Y-90672727D01*
X59500712Y-90669053D01*
X59502232Y-90611000D01*
X59499564Y-90581964D01*
X59824148Y-90581964D01*
X59837424Y-90784522D01*
X59838845Y-90790118D01*
X59838846Y-90790123D01*
X59859119Y-90869945D01*
X59887392Y-90981269D01*
X59889809Y-90986512D01*
X59927010Y-91067208D01*
X59972377Y-91165616D01*
X60089533Y-91331389D01*
X60234938Y-91473035D01*
X60239742Y-91476245D01*
X60293980Y-91512486D01*
X60403720Y-91585812D01*
X60409023Y-91588090D01*
X60409026Y-91588092D01*
X60497707Y-91626192D01*
X60590228Y-91665942D01*
X60663244Y-91682464D01*
X60782579Y-91709467D01*
X60782584Y-91709468D01*
X60788216Y-91710742D01*
X60793987Y-91710969D01*
X60793989Y-91710969D01*
X60853756Y-91713317D01*
X60991053Y-91718712D01*
X61091499Y-91704148D01*
X61186231Y-91690413D01*
X61186236Y-91690412D01*
X61191945Y-91689584D01*
X61197409Y-91687729D01*
X61197414Y-91687728D01*
X61378693Y-91626192D01*
X61378698Y-91626190D01*
X61384165Y-91624334D01*
X61561276Y-91525147D01*
X61576495Y-91512490D01*
X61712913Y-91399031D01*
X61717345Y-91395345D01*
X61847147Y-91239276D01*
X61946334Y-91062165D01*
X61948190Y-91056698D01*
X61948192Y-91056693D01*
X62009728Y-90875414D01*
X62009729Y-90875409D01*
X62011584Y-90869945D01*
X62012412Y-90864236D01*
X62012413Y-90864231D01*
X62040179Y-90672727D01*
X62040712Y-90669053D01*
X62042232Y-90611000D01*
X62039564Y-90581964D01*
X62364148Y-90581964D01*
X62377424Y-90784522D01*
X62378845Y-90790118D01*
X62378846Y-90790123D01*
X62399119Y-90869945D01*
X62427392Y-90981269D01*
X62429809Y-90986512D01*
X62467010Y-91067208D01*
X62512377Y-91165616D01*
X62629533Y-91331389D01*
X62774938Y-91473035D01*
X62779742Y-91476245D01*
X62833980Y-91512486D01*
X62943720Y-91585812D01*
X62949023Y-91588090D01*
X62949026Y-91588092D01*
X63037707Y-91626192D01*
X63130228Y-91665942D01*
X63203244Y-91682464D01*
X63322579Y-91709467D01*
X63322584Y-91709468D01*
X63328216Y-91710742D01*
X63333987Y-91710969D01*
X63333989Y-91710969D01*
X63393756Y-91713317D01*
X63531053Y-91718712D01*
X63631499Y-91704148D01*
X63726231Y-91690413D01*
X63726236Y-91690412D01*
X63731945Y-91689584D01*
X63737409Y-91687729D01*
X63737414Y-91687728D01*
X63918693Y-91626192D01*
X63918698Y-91626190D01*
X63924165Y-91624334D01*
X64101276Y-91525147D01*
X64116495Y-91512490D01*
X64252913Y-91399031D01*
X64257345Y-91395345D01*
X64387147Y-91239276D01*
X64486334Y-91062165D01*
X64488190Y-91056698D01*
X64488192Y-91056693D01*
X64549728Y-90875414D01*
X64549729Y-90875409D01*
X64551584Y-90869945D01*
X64552412Y-90864236D01*
X64552413Y-90864231D01*
X64580179Y-90672727D01*
X64580712Y-90669053D01*
X64582232Y-90611000D01*
X64579564Y-90581964D01*
X64904148Y-90581964D01*
X64917424Y-90784522D01*
X64918845Y-90790118D01*
X64918846Y-90790123D01*
X64939119Y-90869945D01*
X64967392Y-90981269D01*
X64969809Y-90986512D01*
X65007010Y-91067208D01*
X65052377Y-91165616D01*
X65169533Y-91331389D01*
X65314938Y-91473035D01*
X65319742Y-91476245D01*
X65373980Y-91512486D01*
X65483720Y-91585812D01*
X65489023Y-91588090D01*
X65489026Y-91588092D01*
X65577707Y-91626192D01*
X65670228Y-91665942D01*
X65743244Y-91682464D01*
X65862579Y-91709467D01*
X65862584Y-91709468D01*
X65868216Y-91710742D01*
X65873987Y-91710969D01*
X65873989Y-91710969D01*
X65933756Y-91713317D01*
X66071053Y-91718712D01*
X66171499Y-91704148D01*
X66266231Y-91690413D01*
X66266236Y-91690412D01*
X66271945Y-91689584D01*
X66277409Y-91687729D01*
X66277414Y-91687728D01*
X66458693Y-91626192D01*
X66458698Y-91626190D01*
X66464165Y-91624334D01*
X66641276Y-91525147D01*
X66656495Y-91512490D01*
X66792913Y-91399031D01*
X66797345Y-91395345D01*
X66927147Y-91239276D01*
X67026334Y-91062165D01*
X67028190Y-91056698D01*
X67028192Y-91056693D01*
X67089728Y-90875414D01*
X67089729Y-90875409D01*
X67091584Y-90869945D01*
X67092412Y-90864236D01*
X67092413Y-90864231D01*
X67120179Y-90672727D01*
X67120712Y-90669053D01*
X67122232Y-90611000D01*
X67119564Y-90581964D01*
X67444148Y-90581964D01*
X67457424Y-90784522D01*
X67458845Y-90790118D01*
X67458846Y-90790123D01*
X67479119Y-90869945D01*
X67507392Y-90981269D01*
X67509809Y-90986512D01*
X67547010Y-91067208D01*
X67592377Y-91165616D01*
X67709533Y-91331389D01*
X67854938Y-91473035D01*
X67859742Y-91476245D01*
X67913980Y-91512486D01*
X68023720Y-91585812D01*
X68029023Y-91588090D01*
X68029026Y-91588092D01*
X68117707Y-91626192D01*
X68210228Y-91665942D01*
X68283244Y-91682464D01*
X68402579Y-91709467D01*
X68402584Y-91709468D01*
X68408216Y-91710742D01*
X68413987Y-91710969D01*
X68413989Y-91710969D01*
X68473756Y-91713317D01*
X68611053Y-91718712D01*
X68711499Y-91704148D01*
X68806231Y-91690413D01*
X68806236Y-91690412D01*
X68811945Y-91689584D01*
X68817409Y-91687729D01*
X68817414Y-91687728D01*
X68998693Y-91626192D01*
X68998698Y-91626190D01*
X69004165Y-91624334D01*
X69181276Y-91525147D01*
X69196495Y-91512490D01*
X69332913Y-91399031D01*
X69337345Y-91395345D01*
X69467147Y-91239276D01*
X69566334Y-91062165D01*
X69568190Y-91056698D01*
X69568192Y-91056693D01*
X69629728Y-90875414D01*
X69629729Y-90875409D01*
X69631584Y-90869945D01*
X69632412Y-90864236D01*
X69632413Y-90864231D01*
X69660179Y-90672727D01*
X69660712Y-90669053D01*
X69662232Y-90611000D01*
X69659564Y-90581964D01*
X69984148Y-90581964D01*
X69997424Y-90784522D01*
X69998845Y-90790118D01*
X69998846Y-90790123D01*
X70019119Y-90869945D01*
X70047392Y-90981269D01*
X70049809Y-90986512D01*
X70087010Y-91067208D01*
X70132377Y-91165616D01*
X70249533Y-91331389D01*
X70394938Y-91473035D01*
X70399742Y-91476245D01*
X70453980Y-91512486D01*
X70563720Y-91585812D01*
X70569023Y-91588090D01*
X70569026Y-91588092D01*
X70657707Y-91626192D01*
X70750228Y-91665942D01*
X70823244Y-91682464D01*
X70942579Y-91709467D01*
X70942584Y-91709468D01*
X70948216Y-91710742D01*
X70953987Y-91710969D01*
X70953989Y-91710969D01*
X71013756Y-91713317D01*
X71151053Y-91718712D01*
X71251499Y-91704148D01*
X71346231Y-91690413D01*
X71346236Y-91690412D01*
X71351945Y-91689584D01*
X71357409Y-91687729D01*
X71357414Y-91687728D01*
X71538693Y-91626192D01*
X71538698Y-91626190D01*
X71544165Y-91624334D01*
X71721276Y-91525147D01*
X71736495Y-91512490D01*
X71872913Y-91399031D01*
X71877345Y-91395345D01*
X72007147Y-91239276D01*
X72106334Y-91062165D01*
X72108190Y-91056698D01*
X72108192Y-91056693D01*
X72169728Y-90875414D01*
X72169729Y-90875409D01*
X72171584Y-90869945D01*
X72172412Y-90864236D01*
X72172413Y-90864231D01*
X72200179Y-90672727D01*
X72200712Y-90669053D01*
X72202232Y-90611000D01*
X72199564Y-90581964D01*
X72524148Y-90581964D01*
X72537424Y-90784522D01*
X72538845Y-90790118D01*
X72538846Y-90790123D01*
X72559119Y-90869945D01*
X72587392Y-90981269D01*
X72589809Y-90986512D01*
X72627010Y-91067208D01*
X72672377Y-91165616D01*
X72789533Y-91331389D01*
X72934938Y-91473035D01*
X72939742Y-91476245D01*
X72993980Y-91512486D01*
X73103720Y-91585812D01*
X73109023Y-91588090D01*
X73109026Y-91588092D01*
X73197707Y-91626192D01*
X73290228Y-91665942D01*
X73363244Y-91682464D01*
X73482579Y-91709467D01*
X73482584Y-91709468D01*
X73488216Y-91710742D01*
X73493987Y-91710969D01*
X73493989Y-91710969D01*
X73553756Y-91713317D01*
X73691053Y-91718712D01*
X73791499Y-91704148D01*
X73886231Y-91690413D01*
X73886236Y-91690412D01*
X73891945Y-91689584D01*
X73897409Y-91687729D01*
X73897414Y-91687728D01*
X74078693Y-91626192D01*
X74078698Y-91626190D01*
X74084165Y-91624334D01*
X74261276Y-91525147D01*
X74276495Y-91512490D01*
X74412913Y-91399031D01*
X74417345Y-91395345D01*
X74547147Y-91239276D01*
X74646334Y-91062165D01*
X74648190Y-91056698D01*
X74648192Y-91056693D01*
X74709728Y-90875414D01*
X74709729Y-90875409D01*
X74711584Y-90869945D01*
X74712412Y-90864236D01*
X74712413Y-90864231D01*
X74740179Y-90672727D01*
X74740712Y-90669053D01*
X74742232Y-90611000D01*
X74739564Y-90581964D01*
X75064148Y-90581964D01*
X75077424Y-90784522D01*
X75078845Y-90790118D01*
X75078846Y-90790123D01*
X75099119Y-90869945D01*
X75127392Y-90981269D01*
X75129809Y-90986512D01*
X75167010Y-91067208D01*
X75212377Y-91165616D01*
X75329533Y-91331389D01*
X75474938Y-91473035D01*
X75479742Y-91476245D01*
X75533980Y-91512486D01*
X75643720Y-91585812D01*
X75649023Y-91588090D01*
X75649026Y-91588092D01*
X75737707Y-91626192D01*
X75830228Y-91665942D01*
X75903244Y-91682464D01*
X76022579Y-91709467D01*
X76022584Y-91709468D01*
X76028216Y-91710742D01*
X76033987Y-91710969D01*
X76033989Y-91710969D01*
X76093756Y-91713317D01*
X76231053Y-91718712D01*
X76331499Y-91704148D01*
X76426231Y-91690413D01*
X76426236Y-91690412D01*
X76431945Y-91689584D01*
X76437409Y-91687729D01*
X76437414Y-91687728D01*
X76618693Y-91626192D01*
X76618698Y-91626190D01*
X76624165Y-91624334D01*
X76801276Y-91525147D01*
X76816495Y-91512490D01*
X76952913Y-91399031D01*
X76957345Y-91395345D01*
X77087147Y-91239276D01*
X77186334Y-91062165D01*
X77188190Y-91056698D01*
X77188192Y-91056693D01*
X77249728Y-90875414D01*
X77249729Y-90875409D01*
X77251584Y-90869945D01*
X77252412Y-90864236D01*
X77252413Y-90864231D01*
X77280179Y-90672727D01*
X77280712Y-90669053D01*
X77282232Y-90611000D01*
X77279564Y-90581964D01*
X77604148Y-90581964D01*
X77617424Y-90784522D01*
X77618845Y-90790118D01*
X77618846Y-90790123D01*
X77639119Y-90869945D01*
X77667392Y-90981269D01*
X77669809Y-90986512D01*
X77707010Y-91067208D01*
X77752377Y-91165616D01*
X77869533Y-91331389D01*
X78014938Y-91473035D01*
X78019742Y-91476245D01*
X78073980Y-91512486D01*
X78183720Y-91585812D01*
X78189023Y-91588090D01*
X78189026Y-91588092D01*
X78277707Y-91626192D01*
X78370228Y-91665942D01*
X78443244Y-91682464D01*
X78562579Y-91709467D01*
X78562584Y-91709468D01*
X78568216Y-91710742D01*
X78573987Y-91710969D01*
X78573989Y-91710969D01*
X78633756Y-91713317D01*
X78771053Y-91718712D01*
X78871499Y-91704148D01*
X78966231Y-91690413D01*
X78966236Y-91690412D01*
X78971945Y-91689584D01*
X78977409Y-91687729D01*
X78977414Y-91687728D01*
X79158693Y-91626192D01*
X79158698Y-91626190D01*
X79164165Y-91624334D01*
X79341276Y-91525147D01*
X79356495Y-91512490D01*
X79492913Y-91399031D01*
X79497345Y-91395345D01*
X79627147Y-91239276D01*
X79726334Y-91062165D01*
X79728190Y-91056698D01*
X79728192Y-91056693D01*
X79789728Y-90875414D01*
X79789729Y-90875409D01*
X79791584Y-90869945D01*
X79792412Y-90864236D01*
X79792413Y-90864231D01*
X79820179Y-90672727D01*
X79820712Y-90669053D01*
X79822232Y-90611000D01*
X79819564Y-90581964D01*
X80144148Y-90581964D01*
X80157424Y-90784522D01*
X80158845Y-90790118D01*
X80158846Y-90790123D01*
X80179119Y-90869945D01*
X80207392Y-90981269D01*
X80209809Y-90986512D01*
X80247010Y-91067208D01*
X80292377Y-91165616D01*
X80409533Y-91331389D01*
X80554938Y-91473035D01*
X80559742Y-91476245D01*
X80613980Y-91512486D01*
X80723720Y-91585812D01*
X80729023Y-91588090D01*
X80729026Y-91588092D01*
X80817707Y-91626192D01*
X80910228Y-91665942D01*
X80983244Y-91682464D01*
X81102579Y-91709467D01*
X81102584Y-91709468D01*
X81108216Y-91710742D01*
X81113987Y-91710969D01*
X81113989Y-91710969D01*
X81173756Y-91713317D01*
X81311053Y-91718712D01*
X81411499Y-91704148D01*
X81506231Y-91690413D01*
X81506236Y-91690412D01*
X81511945Y-91689584D01*
X81517409Y-91687729D01*
X81517414Y-91687728D01*
X81698693Y-91626192D01*
X81698698Y-91626190D01*
X81704165Y-91624334D01*
X81881276Y-91525147D01*
X81896495Y-91512490D01*
X82032913Y-91399031D01*
X82037345Y-91395345D01*
X82167147Y-91239276D01*
X82266334Y-91062165D01*
X82268190Y-91056698D01*
X82268192Y-91056693D01*
X82329728Y-90875414D01*
X82329729Y-90875409D01*
X82331584Y-90869945D01*
X82332412Y-90864236D01*
X82332413Y-90864231D01*
X82360179Y-90672727D01*
X82360712Y-90669053D01*
X82362232Y-90611000D01*
X82359564Y-90581964D01*
X82684148Y-90581964D01*
X82697424Y-90784522D01*
X82698845Y-90790118D01*
X82698846Y-90790123D01*
X82719119Y-90869945D01*
X82747392Y-90981269D01*
X82749809Y-90986512D01*
X82787010Y-91067208D01*
X82832377Y-91165616D01*
X82949533Y-91331389D01*
X83094938Y-91473035D01*
X83099742Y-91476245D01*
X83153980Y-91512486D01*
X83263720Y-91585812D01*
X83269023Y-91588090D01*
X83269026Y-91588092D01*
X83357707Y-91626192D01*
X83450228Y-91665942D01*
X83523244Y-91682464D01*
X83642579Y-91709467D01*
X83642584Y-91709468D01*
X83648216Y-91710742D01*
X83653987Y-91710969D01*
X83653989Y-91710969D01*
X83713756Y-91713317D01*
X83851053Y-91718712D01*
X83951499Y-91704148D01*
X84046231Y-91690413D01*
X84046236Y-91690412D01*
X84051945Y-91689584D01*
X84057409Y-91687729D01*
X84057414Y-91687728D01*
X84238693Y-91626192D01*
X84238698Y-91626190D01*
X84244165Y-91624334D01*
X84421276Y-91525147D01*
X84436495Y-91512490D01*
X84572913Y-91399031D01*
X84577345Y-91395345D01*
X84707147Y-91239276D01*
X84709969Y-91234236D01*
X84709973Y-91234231D01*
X84739067Y-91182279D01*
X84789804Y-91132617D01*
X84859335Y-91118270D01*
X84925586Y-91143791D01*
X84967522Y-91201080D01*
X84975001Y-91243845D01*
X84975001Y-91505669D01*
X84975371Y-91512490D01*
X84980895Y-91563352D01*
X84984521Y-91578604D01*
X85029676Y-91699054D01*
X85038214Y-91714649D01*
X85114715Y-91816724D01*
X85127276Y-91829285D01*
X85229351Y-91905786D01*
X85244946Y-91914324D01*
X85365394Y-91959478D01*
X85380649Y-91963105D01*
X85431514Y-91968631D01*
X85438328Y-91969000D01*
X86060885Y-91969000D01*
X86076124Y-91964525D01*
X86077329Y-91963135D01*
X86079000Y-91955452D01*
X86079000Y-91950884D01*
X86587000Y-91950884D01*
X86591475Y-91966123D01*
X86592865Y-91967328D01*
X86600548Y-91968999D01*
X87227669Y-91968999D01*
X87234490Y-91968629D01*
X87285352Y-91963105D01*
X87300604Y-91959479D01*
X87421054Y-91914324D01*
X87436649Y-91905786D01*
X87538724Y-91829285D01*
X87551285Y-91816724D01*
X87627786Y-91714649D01*
X87636324Y-91699054D01*
X87681478Y-91578606D01*
X87685105Y-91563351D01*
X87690631Y-91512486D01*
X87691000Y-91505672D01*
X87691000Y-91248976D01*
X87711002Y-91180855D01*
X87764658Y-91134362D01*
X87834932Y-91124258D01*
X87899512Y-91153752D01*
X87919895Y-91176254D01*
X88029533Y-91331389D01*
X88174938Y-91473035D01*
X88179742Y-91476245D01*
X88233980Y-91512486D01*
X88343720Y-91585812D01*
X88349023Y-91588090D01*
X88349026Y-91588092D01*
X88437707Y-91626192D01*
X88530228Y-91665942D01*
X88603244Y-91682464D01*
X88722579Y-91709467D01*
X88722584Y-91709468D01*
X88728216Y-91710742D01*
X88733987Y-91710969D01*
X88733989Y-91710969D01*
X88793756Y-91713317D01*
X88931053Y-91718712D01*
X89031499Y-91704148D01*
X89126231Y-91690413D01*
X89126236Y-91690412D01*
X89131945Y-91689584D01*
X89137409Y-91687729D01*
X89137414Y-91687728D01*
X89318693Y-91626192D01*
X89318698Y-91626190D01*
X89324165Y-91624334D01*
X89501276Y-91525147D01*
X89516495Y-91512490D01*
X89652913Y-91399031D01*
X89657345Y-91395345D01*
X89787147Y-91239276D01*
X89886334Y-91062165D01*
X89888190Y-91056698D01*
X89888192Y-91056693D01*
X89949728Y-90875414D01*
X89949729Y-90875409D01*
X89951584Y-90869945D01*
X89952412Y-90864236D01*
X89952413Y-90864231D01*
X89980179Y-90672727D01*
X89980712Y-90669053D01*
X89982232Y-90611000D01*
X89979564Y-90581964D01*
X90304148Y-90581964D01*
X90317424Y-90784522D01*
X90318845Y-90790118D01*
X90318846Y-90790123D01*
X90339119Y-90869945D01*
X90367392Y-90981269D01*
X90369809Y-90986512D01*
X90407010Y-91067208D01*
X90452377Y-91165616D01*
X90569533Y-91331389D01*
X90714938Y-91473035D01*
X90719742Y-91476245D01*
X90773980Y-91512486D01*
X90883720Y-91585812D01*
X90889023Y-91588090D01*
X90889026Y-91588092D01*
X90977707Y-91626192D01*
X91070228Y-91665942D01*
X91143244Y-91682464D01*
X91262579Y-91709467D01*
X91262584Y-91709468D01*
X91268216Y-91710742D01*
X91273987Y-91710969D01*
X91273989Y-91710969D01*
X91333756Y-91713317D01*
X91471053Y-91718712D01*
X91571499Y-91704148D01*
X91666231Y-91690413D01*
X91666236Y-91690412D01*
X91671945Y-91689584D01*
X91677409Y-91687729D01*
X91677414Y-91687728D01*
X91858693Y-91626192D01*
X91858698Y-91626190D01*
X91864165Y-91624334D01*
X92041276Y-91525147D01*
X92056495Y-91512490D01*
X92192913Y-91399031D01*
X92197345Y-91395345D01*
X92327147Y-91239276D01*
X92426334Y-91062165D01*
X92428190Y-91056698D01*
X92428192Y-91056693D01*
X92489728Y-90875414D01*
X92489729Y-90875409D01*
X92491584Y-90869945D01*
X92492412Y-90864236D01*
X92492413Y-90864231D01*
X92520179Y-90672727D01*
X92520712Y-90669053D01*
X92522232Y-90611000D01*
X92503658Y-90408859D01*
X92502090Y-90403299D01*
X92450125Y-90219046D01*
X92450124Y-90219044D01*
X92448557Y-90213487D01*
X92437978Y-90192033D01*
X92361331Y-90036609D01*
X92358776Y-90031428D01*
X92237320Y-89868779D01*
X92088258Y-89730987D01*
X92083375Y-89727906D01*
X92083371Y-89727903D01*
X91921464Y-89625748D01*
X91916581Y-89622667D01*
X91728039Y-89547446D01*
X91722379Y-89546320D01*
X91722375Y-89546319D01*
X91534613Y-89508971D01*
X91534610Y-89508971D01*
X91528946Y-89507844D01*
X91523171Y-89507768D01*
X91523167Y-89507768D01*
X91421793Y-89506441D01*
X91325971Y-89505187D01*
X91320274Y-89506166D01*
X91320273Y-89506166D01*
X91222620Y-89522946D01*
X91125910Y-89539564D01*
X90935463Y-89609824D01*
X90761010Y-89713612D01*
X90756670Y-89717418D01*
X90756666Y-89717421D01*
X90612733Y-89843648D01*
X90608392Y-89847455D01*
X90482720Y-90006869D01*
X90480031Y-90011980D01*
X90480029Y-90011983D01*
X90468507Y-90033883D01*
X90388203Y-90186515D01*
X90328007Y-90380378D01*
X90304148Y-90581964D01*
X89979564Y-90581964D01*
X89963658Y-90408859D01*
X89962090Y-90403299D01*
X89910125Y-90219046D01*
X89910124Y-90219044D01*
X89908557Y-90213487D01*
X89897978Y-90192033D01*
X89821331Y-90036609D01*
X89818776Y-90031428D01*
X89697320Y-89868779D01*
X89548258Y-89730987D01*
X89543375Y-89727906D01*
X89543371Y-89727903D01*
X89381464Y-89625748D01*
X89376581Y-89622667D01*
X89188039Y-89547446D01*
X89182379Y-89546320D01*
X89182375Y-89546319D01*
X88994613Y-89508971D01*
X88994610Y-89508971D01*
X88988946Y-89507844D01*
X88983171Y-89507768D01*
X88983167Y-89507768D01*
X88881793Y-89506441D01*
X88785971Y-89505187D01*
X88780274Y-89506166D01*
X88780273Y-89506166D01*
X88682620Y-89522946D01*
X88585910Y-89539564D01*
X88395463Y-89609824D01*
X88221010Y-89713612D01*
X88216670Y-89717418D01*
X88216666Y-89717421D01*
X88072733Y-89843648D01*
X88068392Y-89847455D01*
X87942720Y-90006869D01*
X87940031Y-90011980D01*
X87940029Y-90011983D01*
X87928507Y-90033883D01*
X87879087Y-90084856D01*
X87809955Y-90101018D01*
X87743059Y-90077239D01*
X87699638Y-90021068D01*
X87690999Y-89975215D01*
X87690999Y-89716331D01*
X87690629Y-89709510D01*
X87685105Y-89658648D01*
X87681479Y-89643396D01*
X87636324Y-89522946D01*
X87627786Y-89507351D01*
X87551285Y-89405276D01*
X87538724Y-89392715D01*
X87436649Y-89316214D01*
X87421054Y-89307676D01*
X87300606Y-89262522D01*
X87285351Y-89258895D01*
X87234486Y-89253369D01*
X87227672Y-89253000D01*
X86605115Y-89253000D01*
X86589876Y-89257475D01*
X86588671Y-89258865D01*
X86587000Y-89266548D01*
X86587000Y-91950884D01*
X86079000Y-91950884D01*
X86079000Y-89271116D01*
X86074525Y-89255877D01*
X86073135Y-89254672D01*
X86065452Y-89253001D01*
X85438331Y-89253001D01*
X85431510Y-89253371D01*
X85380648Y-89258895D01*
X85365396Y-89262521D01*
X85244946Y-89307676D01*
X85229351Y-89316214D01*
X85127276Y-89392715D01*
X85114715Y-89405276D01*
X85038214Y-89507351D01*
X85029676Y-89522946D01*
X84984522Y-89643394D01*
X84980895Y-89658649D01*
X84975369Y-89709514D01*
X84975000Y-89716328D01*
X84975000Y-89971160D01*
X84954998Y-90039281D01*
X84901342Y-90085774D01*
X84831068Y-90095878D01*
X84766488Y-90066384D01*
X84741567Y-90036994D01*
X84741331Y-90036608D01*
X84738776Y-90031428D01*
X84617320Y-89868779D01*
X84468258Y-89730987D01*
X84463375Y-89727906D01*
X84463371Y-89727903D01*
X84301464Y-89625748D01*
X84296581Y-89622667D01*
X84108039Y-89547446D01*
X84102379Y-89546320D01*
X84102375Y-89546319D01*
X83914613Y-89508971D01*
X83914610Y-89508971D01*
X83908946Y-89507844D01*
X83903171Y-89507768D01*
X83903167Y-89507768D01*
X83801793Y-89506441D01*
X83705971Y-89505187D01*
X83700274Y-89506166D01*
X83700273Y-89506166D01*
X83602620Y-89522946D01*
X83505910Y-89539564D01*
X83315463Y-89609824D01*
X83141010Y-89713612D01*
X83136670Y-89717418D01*
X83136666Y-89717421D01*
X82992733Y-89843648D01*
X82988392Y-89847455D01*
X82862720Y-90006869D01*
X82860031Y-90011980D01*
X82860029Y-90011983D01*
X82848507Y-90033883D01*
X82768203Y-90186515D01*
X82708007Y-90380378D01*
X82684148Y-90581964D01*
X82359564Y-90581964D01*
X82343658Y-90408859D01*
X82342090Y-90403299D01*
X82290125Y-90219046D01*
X82290124Y-90219044D01*
X82288557Y-90213487D01*
X82277978Y-90192033D01*
X82201331Y-90036609D01*
X82198776Y-90031428D01*
X82077320Y-89868779D01*
X81928258Y-89730987D01*
X81923375Y-89727906D01*
X81923371Y-89727903D01*
X81761464Y-89625748D01*
X81756581Y-89622667D01*
X81568039Y-89547446D01*
X81562379Y-89546320D01*
X81562375Y-89546319D01*
X81374613Y-89508971D01*
X81374610Y-89508971D01*
X81368946Y-89507844D01*
X81363171Y-89507768D01*
X81363167Y-89507768D01*
X81261793Y-89506441D01*
X81165971Y-89505187D01*
X81160274Y-89506166D01*
X81160273Y-89506166D01*
X81062620Y-89522946D01*
X80965910Y-89539564D01*
X80775463Y-89609824D01*
X80601010Y-89713612D01*
X80596670Y-89717418D01*
X80596666Y-89717421D01*
X80452733Y-89843648D01*
X80448392Y-89847455D01*
X80322720Y-90006869D01*
X80320031Y-90011980D01*
X80320029Y-90011983D01*
X80308507Y-90033883D01*
X80228203Y-90186515D01*
X80168007Y-90380378D01*
X80144148Y-90581964D01*
X79819564Y-90581964D01*
X79803658Y-90408859D01*
X79802090Y-90403299D01*
X79750125Y-90219046D01*
X79750124Y-90219044D01*
X79748557Y-90213487D01*
X79737978Y-90192033D01*
X79661331Y-90036609D01*
X79658776Y-90031428D01*
X79537320Y-89868779D01*
X79388258Y-89730987D01*
X79383375Y-89727906D01*
X79383371Y-89727903D01*
X79221464Y-89625748D01*
X79216581Y-89622667D01*
X79028039Y-89547446D01*
X79022379Y-89546320D01*
X79022375Y-89546319D01*
X78834613Y-89508971D01*
X78834610Y-89508971D01*
X78828946Y-89507844D01*
X78823171Y-89507768D01*
X78823167Y-89507768D01*
X78721793Y-89506441D01*
X78625971Y-89505187D01*
X78620274Y-89506166D01*
X78620273Y-89506166D01*
X78522620Y-89522946D01*
X78425910Y-89539564D01*
X78235463Y-89609824D01*
X78061010Y-89713612D01*
X78056670Y-89717418D01*
X78056666Y-89717421D01*
X77912733Y-89843648D01*
X77908392Y-89847455D01*
X77782720Y-90006869D01*
X77780031Y-90011980D01*
X77780029Y-90011983D01*
X77768507Y-90033883D01*
X77688203Y-90186515D01*
X77628007Y-90380378D01*
X77604148Y-90581964D01*
X77279564Y-90581964D01*
X77263658Y-90408859D01*
X77262090Y-90403299D01*
X77210125Y-90219046D01*
X77210124Y-90219044D01*
X77208557Y-90213487D01*
X77197978Y-90192033D01*
X77121331Y-90036609D01*
X77118776Y-90031428D01*
X76997320Y-89868779D01*
X76848258Y-89730987D01*
X76843375Y-89727906D01*
X76843371Y-89727903D01*
X76681464Y-89625748D01*
X76676581Y-89622667D01*
X76488039Y-89547446D01*
X76482379Y-89546320D01*
X76482375Y-89546319D01*
X76294613Y-89508971D01*
X76294610Y-89508971D01*
X76288946Y-89507844D01*
X76283171Y-89507768D01*
X76283167Y-89507768D01*
X76181793Y-89506441D01*
X76085971Y-89505187D01*
X76080274Y-89506166D01*
X76080273Y-89506166D01*
X75982620Y-89522946D01*
X75885910Y-89539564D01*
X75695463Y-89609824D01*
X75521010Y-89713612D01*
X75516670Y-89717418D01*
X75516666Y-89717421D01*
X75372733Y-89843648D01*
X75368392Y-89847455D01*
X75242720Y-90006869D01*
X75240031Y-90011980D01*
X75240029Y-90011983D01*
X75228507Y-90033883D01*
X75148203Y-90186515D01*
X75088007Y-90380378D01*
X75064148Y-90581964D01*
X74739564Y-90581964D01*
X74723658Y-90408859D01*
X74722090Y-90403299D01*
X74670125Y-90219046D01*
X74670124Y-90219044D01*
X74668557Y-90213487D01*
X74657978Y-90192033D01*
X74581331Y-90036609D01*
X74578776Y-90031428D01*
X74457320Y-89868779D01*
X74308258Y-89730987D01*
X74303375Y-89727906D01*
X74303371Y-89727903D01*
X74141464Y-89625748D01*
X74136581Y-89622667D01*
X73948039Y-89547446D01*
X73942379Y-89546320D01*
X73942375Y-89546319D01*
X73754613Y-89508971D01*
X73754610Y-89508971D01*
X73748946Y-89507844D01*
X73743171Y-89507768D01*
X73743167Y-89507768D01*
X73641793Y-89506441D01*
X73545971Y-89505187D01*
X73540274Y-89506166D01*
X73540273Y-89506166D01*
X73442620Y-89522946D01*
X73345910Y-89539564D01*
X73155463Y-89609824D01*
X72981010Y-89713612D01*
X72976670Y-89717418D01*
X72976666Y-89717421D01*
X72832733Y-89843648D01*
X72828392Y-89847455D01*
X72702720Y-90006869D01*
X72700031Y-90011980D01*
X72700029Y-90011983D01*
X72688507Y-90033883D01*
X72608203Y-90186515D01*
X72548007Y-90380378D01*
X72524148Y-90581964D01*
X72199564Y-90581964D01*
X72183658Y-90408859D01*
X72182090Y-90403299D01*
X72130125Y-90219046D01*
X72130124Y-90219044D01*
X72128557Y-90213487D01*
X72117978Y-90192033D01*
X72041331Y-90036609D01*
X72038776Y-90031428D01*
X71917320Y-89868779D01*
X71768258Y-89730987D01*
X71763375Y-89727906D01*
X71763371Y-89727903D01*
X71601464Y-89625748D01*
X71596581Y-89622667D01*
X71408039Y-89547446D01*
X71402379Y-89546320D01*
X71402375Y-89546319D01*
X71214613Y-89508971D01*
X71214610Y-89508971D01*
X71208946Y-89507844D01*
X71203171Y-89507768D01*
X71203167Y-89507768D01*
X71101793Y-89506441D01*
X71005971Y-89505187D01*
X71000274Y-89506166D01*
X71000273Y-89506166D01*
X70902620Y-89522946D01*
X70805910Y-89539564D01*
X70615463Y-89609824D01*
X70441010Y-89713612D01*
X70436670Y-89717418D01*
X70436666Y-89717421D01*
X70292733Y-89843648D01*
X70288392Y-89847455D01*
X70162720Y-90006869D01*
X70160031Y-90011980D01*
X70160029Y-90011983D01*
X70148507Y-90033883D01*
X70068203Y-90186515D01*
X70008007Y-90380378D01*
X69984148Y-90581964D01*
X69659564Y-90581964D01*
X69643658Y-90408859D01*
X69642090Y-90403299D01*
X69590125Y-90219046D01*
X69590124Y-90219044D01*
X69588557Y-90213487D01*
X69577978Y-90192033D01*
X69501331Y-90036609D01*
X69498776Y-90031428D01*
X69377320Y-89868779D01*
X69228258Y-89730987D01*
X69223375Y-89727906D01*
X69223371Y-89727903D01*
X69061464Y-89625748D01*
X69056581Y-89622667D01*
X68868039Y-89547446D01*
X68862379Y-89546320D01*
X68862375Y-89546319D01*
X68674613Y-89508971D01*
X68674610Y-89508971D01*
X68668946Y-89507844D01*
X68663171Y-89507768D01*
X68663167Y-89507768D01*
X68561793Y-89506441D01*
X68465971Y-89505187D01*
X68460274Y-89506166D01*
X68460273Y-89506166D01*
X68362620Y-89522946D01*
X68265910Y-89539564D01*
X68075463Y-89609824D01*
X67901010Y-89713612D01*
X67896670Y-89717418D01*
X67896666Y-89717421D01*
X67752733Y-89843648D01*
X67748392Y-89847455D01*
X67622720Y-90006869D01*
X67620031Y-90011980D01*
X67620029Y-90011983D01*
X67608507Y-90033883D01*
X67528203Y-90186515D01*
X67468007Y-90380378D01*
X67444148Y-90581964D01*
X67119564Y-90581964D01*
X67103658Y-90408859D01*
X67102090Y-90403299D01*
X67050125Y-90219046D01*
X67050124Y-90219044D01*
X67048557Y-90213487D01*
X67037978Y-90192033D01*
X66961331Y-90036609D01*
X66958776Y-90031428D01*
X66837320Y-89868779D01*
X66688258Y-89730987D01*
X66683375Y-89727906D01*
X66683371Y-89727903D01*
X66521464Y-89625748D01*
X66516581Y-89622667D01*
X66328039Y-89547446D01*
X66322379Y-89546320D01*
X66322375Y-89546319D01*
X66134613Y-89508971D01*
X66134610Y-89508971D01*
X66128946Y-89507844D01*
X66123171Y-89507768D01*
X66123167Y-89507768D01*
X66021793Y-89506441D01*
X65925971Y-89505187D01*
X65920274Y-89506166D01*
X65920273Y-89506166D01*
X65822620Y-89522946D01*
X65725910Y-89539564D01*
X65535463Y-89609824D01*
X65361010Y-89713612D01*
X65356670Y-89717418D01*
X65356666Y-89717421D01*
X65212733Y-89843648D01*
X65208392Y-89847455D01*
X65082720Y-90006869D01*
X65080031Y-90011980D01*
X65080029Y-90011983D01*
X65068507Y-90033883D01*
X64988203Y-90186515D01*
X64928007Y-90380378D01*
X64904148Y-90581964D01*
X64579564Y-90581964D01*
X64563658Y-90408859D01*
X64562090Y-90403299D01*
X64510125Y-90219046D01*
X64510124Y-90219044D01*
X64508557Y-90213487D01*
X64497978Y-90192033D01*
X64421331Y-90036609D01*
X64418776Y-90031428D01*
X64297320Y-89868779D01*
X64148258Y-89730987D01*
X64143375Y-89727906D01*
X64143371Y-89727903D01*
X63981464Y-89625748D01*
X63976581Y-89622667D01*
X63788039Y-89547446D01*
X63782379Y-89546320D01*
X63782375Y-89546319D01*
X63594613Y-89508971D01*
X63594610Y-89508971D01*
X63588946Y-89507844D01*
X63583171Y-89507768D01*
X63583167Y-89507768D01*
X63481793Y-89506441D01*
X63385971Y-89505187D01*
X63380274Y-89506166D01*
X63380273Y-89506166D01*
X63282620Y-89522946D01*
X63185910Y-89539564D01*
X62995463Y-89609824D01*
X62821010Y-89713612D01*
X62816670Y-89717418D01*
X62816666Y-89717421D01*
X62672733Y-89843648D01*
X62668392Y-89847455D01*
X62542720Y-90006869D01*
X62540031Y-90011980D01*
X62540029Y-90011983D01*
X62528507Y-90033883D01*
X62448203Y-90186515D01*
X62388007Y-90380378D01*
X62364148Y-90581964D01*
X62039564Y-90581964D01*
X62023658Y-90408859D01*
X62022090Y-90403299D01*
X61970125Y-90219046D01*
X61970124Y-90219044D01*
X61968557Y-90213487D01*
X61957978Y-90192033D01*
X61881331Y-90036609D01*
X61878776Y-90031428D01*
X61757320Y-89868779D01*
X61608258Y-89730987D01*
X61603375Y-89727906D01*
X61603371Y-89727903D01*
X61441464Y-89625748D01*
X61436581Y-89622667D01*
X61248039Y-89547446D01*
X61242379Y-89546320D01*
X61242375Y-89546319D01*
X61054613Y-89508971D01*
X61054610Y-89508971D01*
X61048946Y-89507844D01*
X61043171Y-89507768D01*
X61043167Y-89507768D01*
X60941793Y-89506441D01*
X60845971Y-89505187D01*
X60840274Y-89506166D01*
X60840273Y-89506166D01*
X60742620Y-89522946D01*
X60645910Y-89539564D01*
X60455463Y-89609824D01*
X60281010Y-89713612D01*
X60276670Y-89717418D01*
X60276666Y-89717421D01*
X60132733Y-89843648D01*
X60128392Y-89847455D01*
X60002720Y-90006869D01*
X60000031Y-90011980D01*
X60000029Y-90011983D01*
X59988507Y-90033883D01*
X59908203Y-90186515D01*
X59848007Y-90380378D01*
X59824148Y-90581964D01*
X59499564Y-90581964D01*
X59483658Y-90408859D01*
X59482090Y-90403299D01*
X59430125Y-90219046D01*
X59430124Y-90219044D01*
X59428557Y-90213487D01*
X59417978Y-90192033D01*
X59341331Y-90036609D01*
X59338776Y-90031428D01*
X59217320Y-89868779D01*
X59068258Y-89730987D01*
X59063375Y-89727906D01*
X59063371Y-89727903D01*
X58901464Y-89625748D01*
X58896581Y-89622667D01*
X58708039Y-89547446D01*
X58702379Y-89546320D01*
X58702375Y-89546319D01*
X58514613Y-89508971D01*
X58514610Y-89508971D01*
X58508946Y-89507844D01*
X58503171Y-89507768D01*
X58503167Y-89507768D01*
X58401793Y-89506441D01*
X58305971Y-89505187D01*
X58300274Y-89506166D01*
X58300273Y-89506166D01*
X58202620Y-89522946D01*
X58105910Y-89539564D01*
X57915463Y-89609824D01*
X57741010Y-89713612D01*
X57736667Y-89717421D01*
X57731991Y-89720818D01*
X57730894Y-89719308D01*
X57674179Y-89745621D01*
X57603846Y-89735938D01*
X57549912Y-89689768D01*
X57529500Y-89621013D01*
X57529500Y-89494730D01*
X57549502Y-89426609D01*
X57573669Y-89398919D01*
X57629536Y-89351204D01*
X57635314Y-89346269D01*
X57727755Y-89217624D01*
X57786842Y-89070641D01*
X57806940Y-88929419D01*
X57808581Y-88917891D01*
X57808581Y-88917888D01*
X57809162Y-88913807D01*
X57809307Y-88900000D01*
X57808610Y-88894236D01*
X57800584Y-88827919D01*
X57790276Y-88742733D01*
X57734280Y-88594546D01*
X57729978Y-88588286D01*
X57729975Y-88588281D01*
X57729688Y-88587863D01*
X57729573Y-88587511D01*
X57726459Y-88581555D01*
X57727452Y-88581036D01*
X57707590Y-88520393D01*
X57725478Y-88451687D01*
X57777671Y-88403558D01*
X57833530Y-88390500D01*
X80508471Y-88390500D01*
X80576592Y-88410502D01*
X80623085Y-88464158D01*
X80633710Y-88502673D01*
X80636689Y-88529653D01*
X80638113Y-88542553D01*
X80640723Y-88549684D01*
X80640723Y-88549686D01*
X80679776Y-88656403D01*
X80692553Y-88691319D01*
X80696789Y-88697622D01*
X80696789Y-88697623D01*
X80750890Y-88778133D01*
X80780908Y-88822805D01*
X80786527Y-88827918D01*
X80786528Y-88827919D01*
X80885407Y-88917891D01*
X80898076Y-88929419D01*
X81037293Y-89005008D01*
X81190522Y-89045207D01*
X81274477Y-89046526D01*
X81341319Y-89047576D01*
X81341322Y-89047576D01*
X81348916Y-89047695D01*
X81503332Y-89012329D01*
X81573742Y-88976917D01*
X81638072Y-88944563D01*
X81638075Y-88944561D01*
X81644855Y-88941151D01*
X81650626Y-88936222D01*
X81650629Y-88936220D01*
X81759536Y-88843204D01*
X81759536Y-88843203D01*
X81765314Y-88838269D01*
X81857755Y-88709624D01*
X81916842Y-88562641D01*
X81939162Y-88405807D01*
X81939307Y-88392000D01*
X81920276Y-88234733D01*
X81864280Y-88086546D01*
X81791487Y-87980631D01*
X81778855Y-87962251D01*
X81778854Y-87962249D01*
X81774553Y-87955992D01*
X81656275Y-87850611D01*
X81516274Y-87776484D01*
X81362633Y-87737892D01*
X81355034Y-87737852D01*
X81355033Y-87737852D01*
X81286319Y-87737492D01*
X81208189Y-87737083D01*
X81135600Y-87713605D01*
X81129315Y-87709113D01*
X81124638Y-87705602D01*
X81084353Y-87673844D01*
X81075719Y-87670812D01*
X81068266Y-87665486D01*
X81019150Y-87650797D01*
X81013508Y-87648964D01*
X80972633Y-87634610D01*
X80972632Y-87634610D01*
X80965149Y-87631982D01*
X80959584Y-87631500D01*
X80956876Y-87631500D01*
X80954242Y-87631386D01*
X80954144Y-87631357D01*
X80954151Y-87631193D01*
X80953447Y-87631149D01*
X80947222Y-87629287D01*
X80893365Y-87631403D01*
X80888418Y-87631500D01*
X79297283Y-87631500D01*
X79229162Y-87611498D01*
X79182669Y-87557842D01*
X79181703Y-87551124D01*
X101800738Y-87551124D01*
X101800891Y-87555512D01*
X101800891Y-87555518D01*
X101808543Y-87774634D01*
X101810765Y-87838278D01*
X101811527Y-87842601D01*
X101811528Y-87842608D01*
X101836619Y-87984902D01*
X101860659Y-88121242D01*
X101862014Y-88125413D01*
X101862016Y-88125420D01*
X101899984Y-88242273D01*
X101949449Y-88394509D01*
X101951377Y-88398462D01*
X101951379Y-88398467D01*
X101980824Y-88458838D01*
X102075406Y-88652758D01*
X102236078Y-88890965D01*
X102239022Y-88894234D01*
X102239023Y-88894236D01*
X102404210Y-89077695D01*
X102428339Y-89104493D01*
X102487988Y-89154544D01*
X102645075Y-89286356D01*
X102645080Y-89286360D01*
X102648446Y-89289184D01*
X102652178Y-89291516D01*
X102887777Y-89438735D01*
X102892115Y-89441446D01*
X103023359Y-89499879D01*
X103150594Y-89556528D01*
X103150598Y-89556530D01*
X103154604Y-89558313D01*
X103430802Y-89637512D01*
X103435145Y-89638122D01*
X103435148Y-89638123D01*
X103536499Y-89652367D01*
X103715335Y-89677500D01*
X103930747Y-89677500D01*
X103932933Y-89677347D01*
X103932937Y-89677347D01*
X104141244Y-89662781D01*
X104141249Y-89662780D01*
X104145629Y-89662474D01*
X104149923Y-89661561D01*
X104149925Y-89661561D01*
X104340688Y-89621013D01*
X104426680Y-89602735D01*
X104430811Y-89601231D01*
X104430816Y-89601230D01*
X104602929Y-89538585D01*
X104696681Y-89504462D01*
X104815197Y-89441446D01*
X104946486Y-89371639D01*
X104946492Y-89371635D01*
X104950378Y-89369569D01*
X104953938Y-89366982D01*
X104953942Y-89366980D01*
X105179269Y-89203271D01*
X105179272Y-89203268D01*
X105182832Y-89200682D01*
X105185999Y-89197624D01*
X105386357Y-89004140D01*
X105386360Y-89004136D01*
X105389519Y-89001086D01*
X105566417Y-88774667D01*
X105643019Y-88641989D01*
X105707877Y-88529653D01*
X105707880Y-88529648D01*
X105710082Y-88525833D01*
X105711732Y-88521749D01*
X105711735Y-88521743D01*
X105816068Y-88263507D01*
X105817717Y-88259426D01*
X105887228Y-87980631D01*
X105901268Y-87847055D01*
X105916803Y-87699245D01*
X105916803Y-87699242D01*
X105917262Y-87694876D01*
X105916528Y-87673844D01*
X105907389Y-87412119D01*
X105907388Y-87412112D01*
X105907235Y-87407722D01*
X105906179Y-87401729D01*
X105858103Y-87129081D01*
X105857341Y-87124758D01*
X105855986Y-87120587D01*
X105855984Y-87120580D01*
X105769912Y-86855680D01*
X105768551Y-86851491D01*
X105765154Y-86844525D01*
X105699192Y-86709285D01*
X105642594Y-86593242D01*
X105481922Y-86355035D01*
X105406179Y-86270913D01*
X105292609Y-86144781D01*
X105292608Y-86144780D01*
X105289661Y-86141507D01*
X105188062Y-86056256D01*
X105072925Y-85959644D01*
X105072920Y-85959640D01*
X105069554Y-85956816D01*
X104825885Y-85804554D01*
X104680970Y-85740034D01*
X104567406Y-85689472D01*
X104567402Y-85689470D01*
X104563396Y-85687687D01*
X104287198Y-85608488D01*
X104282855Y-85607878D01*
X104282852Y-85607877D01*
X104181501Y-85593633D01*
X104002665Y-85568500D01*
X103787253Y-85568500D01*
X103785067Y-85568653D01*
X103785063Y-85568653D01*
X103576756Y-85583219D01*
X103576751Y-85583220D01*
X103572371Y-85583526D01*
X103568077Y-85584439D01*
X103568075Y-85584439D01*
X103457808Y-85607877D01*
X103291320Y-85643265D01*
X103287189Y-85644769D01*
X103287184Y-85644770D01*
X103172597Y-85686477D01*
X103021319Y-85741538D01*
X102995224Y-85755413D01*
X102771514Y-85874361D01*
X102771508Y-85874365D01*
X102767622Y-85876431D01*
X102764062Y-85879018D01*
X102764058Y-85879020D01*
X102599924Y-85998270D01*
X102535168Y-86045318D01*
X102532004Y-86048374D01*
X102532001Y-86048376D01*
X102359019Y-86215424D01*
X102328481Y-86244914D01*
X102151583Y-86471333D01*
X102108474Y-86546000D01*
X102014201Y-86709285D01*
X102007918Y-86720167D01*
X102006268Y-86724251D01*
X102006265Y-86724257D01*
X101955866Y-86849000D01*
X101900283Y-86986574D01*
X101830772Y-87265369D01*
X101830313Y-87269737D01*
X101830312Y-87269742D01*
X101805721Y-87503713D01*
X101800738Y-87551124D01*
X79181703Y-87551124D01*
X79172565Y-87487568D01*
X79186723Y-87445236D01*
X79190755Y-87439624D01*
X79249842Y-87292641D01*
X79272162Y-87135807D01*
X79272307Y-87122000D01*
X79253276Y-86964733D01*
X79197280Y-86816546D01*
X79146390Y-86742500D01*
X79111855Y-86692251D01*
X79111854Y-86692249D01*
X79107553Y-86685992D01*
X78989275Y-86580611D01*
X78981889Y-86576700D01*
X78855988Y-86510039D01*
X78855989Y-86510039D01*
X78849274Y-86506484D01*
X78695633Y-86467892D01*
X78688034Y-86467852D01*
X78688033Y-86467852D01*
X78622181Y-86467507D01*
X78537221Y-86467062D01*
X78529841Y-86468834D01*
X78529839Y-86468834D01*
X78390563Y-86502271D01*
X78390560Y-86502272D01*
X78383184Y-86504043D01*
X78274184Y-86560302D01*
X78217411Y-86571272D01*
X78190865Y-86621150D01*
X78183650Y-86627963D01*
X78128765Y-86675842D01*
X78128761Y-86675846D01*
X78123039Y-86680838D01*
X78118672Y-86687051D01*
X78118667Y-86687057D01*
X78117336Y-86688951D01*
X78116013Y-86690005D01*
X78113589Y-86692697D01*
X78113140Y-86692293D01*
X78061802Y-86733183D01*
X78014250Y-86742500D01*
X77950718Y-86742500D01*
X77882597Y-86722498D01*
X77836104Y-86668842D01*
X77826000Y-86598568D01*
X77855494Y-86533988D01*
X77894557Y-86505034D01*
X77894165Y-86504334D01*
X78039257Y-86423079D01*
X78099327Y-86409336D01*
X78129401Y-86357187D01*
X78135825Y-86351462D01*
X78222912Y-86279032D01*
X78222913Y-86279031D01*
X78227345Y-86275345D01*
X78338658Y-86141507D01*
X78353453Y-86123718D01*
X78353455Y-86123715D01*
X78357147Y-86119276D01*
X78456334Y-85942165D01*
X78458190Y-85936698D01*
X78458192Y-85936693D01*
X78519728Y-85755414D01*
X78519729Y-85755409D01*
X78521584Y-85749945D01*
X78522412Y-85744236D01*
X78522413Y-85744231D01*
X78545581Y-85584439D01*
X78550712Y-85549053D01*
X78552232Y-85491000D01*
X78549564Y-85461964D01*
X78874148Y-85461964D01*
X78887424Y-85664522D01*
X78888845Y-85670118D01*
X78888846Y-85670123D01*
X78922535Y-85802769D01*
X78937392Y-85861269D01*
X78939809Y-85866512D01*
X78977010Y-85947208D01*
X79022377Y-86045616D01*
X79025710Y-86050332D01*
X79090146Y-86141507D01*
X79139533Y-86211389D01*
X79284938Y-86353035D01*
X79289742Y-86356245D01*
X79343980Y-86392486D01*
X79453720Y-86465812D01*
X79459023Y-86468090D01*
X79459026Y-86468092D01*
X79612404Y-86533988D01*
X79640228Y-86545942D01*
X79703690Y-86560302D01*
X79832579Y-86589467D01*
X79832584Y-86589468D01*
X79838216Y-86590742D01*
X79843987Y-86590969D01*
X79843989Y-86590969D01*
X79901841Y-86593242D01*
X80041053Y-86598712D01*
X80141499Y-86584148D01*
X80236231Y-86570413D01*
X80236236Y-86570412D01*
X80241945Y-86569584D01*
X80247409Y-86567729D01*
X80247414Y-86567728D01*
X80428693Y-86506192D01*
X80428698Y-86506190D01*
X80434165Y-86504334D01*
X80493093Y-86471333D01*
X80579256Y-86423079D01*
X80611276Y-86405147D01*
X80626495Y-86392490D01*
X80762913Y-86279031D01*
X80767345Y-86275345D01*
X80878658Y-86141507D01*
X80893453Y-86123718D01*
X80893455Y-86123715D01*
X80897147Y-86119276D01*
X80996334Y-85942165D01*
X80998190Y-85936698D01*
X80998192Y-85936693D01*
X81059728Y-85755414D01*
X81059729Y-85755409D01*
X81061584Y-85749945D01*
X81062412Y-85744236D01*
X81062413Y-85744231D01*
X81085581Y-85584439D01*
X81090712Y-85549053D01*
X81092232Y-85491000D01*
X81089564Y-85461964D01*
X81414148Y-85461964D01*
X81427424Y-85664522D01*
X81428845Y-85670118D01*
X81428846Y-85670123D01*
X81462535Y-85802769D01*
X81477392Y-85861269D01*
X81479809Y-85866512D01*
X81517010Y-85947208D01*
X81562377Y-86045616D01*
X81565710Y-86050332D01*
X81630146Y-86141507D01*
X81679533Y-86211389D01*
X81824938Y-86353035D01*
X81829742Y-86356245D01*
X81883980Y-86392486D01*
X81993720Y-86465812D01*
X81999023Y-86468090D01*
X81999026Y-86468092D01*
X82152404Y-86533988D01*
X82180228Y-86545942D01*
X82243690Y-86560302D01*
X82372579Y-86589467D01*
X82372584Y-86589468D01*
X82378216Y-86590742D01*
X82383987Y-86590969D01*
X82383989Y-86590969D01*
X82441841Y-86593242D01*
X82581053Y-86598712D01*
X82681499Y-86584148D01*
X82776231Y-86570413D01*
X82776236Y-86570412D01*
X82781945Y-86569584D01*
X82787409Y-86567729D01*
X82787414Y-86567728D01*
X82968693Y-86506192D01*
X82968698Y-86506190D01*
X82974165Y-86504334D01*
X83033093Y-86471333D01*
X83119256Y-86423079D01*
X83151276Y-86405147D01*
X83166495Y-86392490D01*
X83302913Y-86279031D01*
X83307345Y-86275345D01*
X83418658Y-86141507D01*
X83433453Y-86123718D01*
X83433455Y-86123715D01*
X83437147Y-86119276D01*
X83536334Y-85942165D01*
X83538190Y-85936698D01*
X83538192Y-85936693D01*
X83599728Y-85755414D01*
X83599729Y-85755409D01*
X83601584Y-85749945D01*
X83602412Y-85744236D01*
X83602413Y-85744231D01*
X83625581Y-85584439D01*
X83630712Y-85549053D01*
X83632232Y-85491000D01*
X83629564Y-85461964D01*
X83954148Y-85461964D01*
X83967424Y-85664522D01*
X83968845Y-85670118D01*
X83968846Y-85670123D01*
X84002535Y-85802769D01*
X84017392Y-85861269D01*
X84019809Y-85866512D01*
X84057010Y-85947208D01*
X84102377Y-86045616D01*
X84105710Y-86050332D01*
X84170146Y-86141507D01*
X84219533Y-86211389D01*
X84364938Y-86353035D01*
X84369742Y-86356245D01*
X84423980Y-86392486D01*
X84533720Y-86465812D01*
X84539023Y-86468090D01*
X84539026Y-86468092D01*
X84692404Y-86533988D01*
X84720228Y-86545942D01*
X84783690Y-86560302D01*
X84912579Y-86589467D01*
X84912584Y-86589468D01*
X84918216Y-86590742D01*
X84923987Y-86590969D01*
X84923989Y-86590969D01*
X84981841Y-86593242D01*
X85121053Y-86598712D01*
X85221499Y-86584148D01*
X85316231Y-86570413D01*
X85316236Y-86570412D01*
X85321945Y-86569584D01*
X85327409Y-86567729D01*
X85327414Y-86567728D01*
X85508693Y-86506192D01*
X85508698Y-86506190D01*
X85514165Y-86504334D01*
X85573093Y-86471333D01*
X85659256Y-86423079D01*
X85691276Y-86405147D01*
X85706495Y-86392490D01*
X85842913Y-86279031D01*
X85847345Y-86275345D01*
X85958658Y-86141507D01*
X85973453Y-86123718D01*
X85973455Y-86123715D01*
X85977147Y-86119276D01*
X86076334Y-85942165D01*
X86078190Y-85936698D01*
X86078192Y-85936693D01*
X86139728Y-85755414D01*
X86139729Y-85755409D01*
X86141584Y-85749945D01*
X86142412Y-85744236D01*
X86142413Y-85744231D01*
X86165581Y-85584439D01*
X86170712Y-85549053D01*
X86172232Y-85491000D01*
X86169564Y-85461964D01*
X86494148Y-85461964D01*
X86507424Y-85664522D01*
X86508845Y-85670118D01*
X86508846Y-85670123D01*
X86542535Y-85802769D01*
X86557392Y-85861269D01*
X86559809Y-85866512D01*
X86597010Y-85947208D01*
X86642377Y-86045616D01*
X86645710Y-86050332D01*
X86710146Y-86141507D01*
X86759533Y-86211389D01*
X86904938Y-86353035D01*
X86909742Y-86356245D01*
X86963980Y-86392486D01*
X87073720Y-86465812D01*
X87079023Y-86468090D01*
X87079026Y-86468092D01*
X87232404Y-86533988D01*
X87260228Y-86545942D01*
X87323690Y-86560302D01*
X87452579Y-86589467D01*
X87452584Y-86589468D01*
X87458216Y-86590742D01*
X87463987Y-86590969D01*
X87463989Y-86590969D01*
X87521841Y-86593242D01*
X87661053Y-86598712D01*
X87761499Y-86584148D01*
X87856231Y-86570413D01*
X87856236Y-86570412D01*
X87861945Y-86569584D01*
X87867409Y-86567729D01*
X87867414Y-86567728D01*
X88048693Y-86506192D01*
X88048698Y-86506190D01*
X88054165Y-86504334D01*
X88113093Y-86471333D01*
X88199256Y-86423079D01*
X88231276Y-86405147D01*
X88246495Y-86392490D01*
X88382913Y-86279031D01*
X88387345Y-86275345D01*
X88498658Y-86141507D01*
X88513453Y-86123718D01*
X88513455Y-86123715D01*
X88517147Y-86119276D01*
X88616334Y-85942165D01*
X88618190Y-85936698D01*
X88618192Y-85936693D01*
X88679728Y-85755414D01*
X88679729Y-85755409D01*
X88681584Y-85749945D01*
X88682412Y-85744236D01*
X88682413Y-85744231D01*
X88705581Y-85584439D01*
X88710712Y-85549053D01*
X88712232Y-85491000D01*
X88709564Y-85461964D01*
X89034148Y-85461964D01*
X89047424Y-85664522D01*
X89048845Y-85670118D01*
X89048846Y-85670123D01*
X89082535Y-85802769D01*
X89097392Y-85861269D01*
X89099809Y-85866512D01*
X89137010Y-85947208D01*
X89182377Y-86045616D01*
X89185710Y-86050332D01*
X89250146Y-86141507D01*
X89299533Y-86211389D01*
X89444938Y-86353035D01*
X89449742Y-86356245D01*
X89503980Y-86392486D01*
X89613720Y-86465812D01*
X89619023Y-86468090D01*
X89619026Y-86468092D01*
X89772404Y-86533988D01*
X89800228Y-86545942D01*
X89863690Y-86560302D01*
X89992579Y-86589467D01*
X89992584Y-86589468D01*
X89998216Y-86590742D01*
X90003987Y-86590969D01*
X90003989Y-86590969D01*
X90061841Y-86593242D01*
X90201053Y-86598712D01*
X90301499Y-86584148D01*
X90396231Y-86570413D01*
X90396236Y-86570412D01*
X90401945Y-86569584D01*
X90407409Y-86567729D01*
X90407414Y-86567728D01*
X90588693Y-86506192D01*
X90588698Y-86506190D01*
X90594165Y-86504334D01*
X90653093Y-86471333D01*
X90739256Y-86423079D01*
X90771276Y-86405147D01*
X90786495Y-86392490D01*
X90922913Y-86279031D01*
X90927345Y-86275345D01*
X91038658Y-86141507D01*
X91053453Y-86123718D01*
X91053455Y-86123715D01*
X91057147Y-86119276D01*
X91156334Y-85942165D01*
X91158190Y-85936698D01*
X91158192Y-85936693D01*
X91219728Y-85755414D01*
X91219729Y-85755409D01*
X91221584Y-85749945D01*
X91222412Y-85744236D01*
X91222413Y-85744231D01*
X91245581Y-85584439D01*
X91250712Y-85549053D01*
X91252232Y-85491000D01*
X91233658Y-85288859D01*
X91232090Y-85283299D01*
X91180125Y-85099046D01*
X91180124Y-85099044D01*
X91178557Y-85093487D01*
X91167978Y-85072033D01*
X91091331Y-84916609D01*
X91088776Y-84911428D01*
X90967320Y-84748779D01*
X90818258Y-84610987D01*
X90813375Y-84607906D01*
X90813371Y-84607903D01*
X90651464Y-84505748D01*
X90646581Y-84502667D01*
X90458039Y-84427446D01*
X90452379Y-84426320D01*
X90452375Y-84426319D01*
X90264613Y-84388971D01*
X90264610Y-84388971D01*
X90258946Y-84387844D01*
X90253171Y-84387768D01*
X90253167Y-84387768D01*
X90151793Y-84386441D01*
X90055971Y-84385187D01*
X90050274Y-84386166D01*
X90050273Y-84386166D01*
X89952620Y-84402946D01*
X89855910Y-84419564D01*
X89665463Y-84489824D01*
X89491010Y-84593612D01*
X89486670Y-84597418D01*
X89486666Y-84597421D01*
X89466723Y-84614911D01*
X89338392Y-84727455D01*
X89212720Y-84886869D01*
X89210031Y-84891980D01*
X89210029Y-84891983D01*
X89198507Y-84913883D01*
X89118203Y-85066515D01*
X89058007Y-85260378D01*
X89034148Y-85461964D01*
X88709564Y-85461964D01*
X88693658Y-85288859D01*
X88692090Y-85283299D01*
X88640125Y-85099046D01*
X88640124Y-85099044D01*
X88638557Y-85093487D01*
X88627978Y-85072033D01*
X88551331Y-84916609D01*
X88548776Y-84911428D01*
X88427320Y-84748779D01*
X88278258Y-84610987D01*
X88273375Y-84607906D01*
X88273371Y-84607903D01*
X88111464Y-84505748D01*
X88106581Y-84502667D01*
X87918039Y-84427446D01*
X87912379Y-84426320D01*
X87912375Y-84426319D01*
X87724613Y-84388971D01*
X87724610Y-84388971D01*
X87718946Y-84387844D01*
X87713171Y-84387768D01*
X87713167Y-84387768D01*
X87611793Y-84386441D01*
X87515971Y-84385187D01*
X87510274Y-84386166D01*
X87510273Y-84386166D01*
X87412620Y-84402946D01*
X87315910Y-84419564D01*
X87125463Y-84489824D01*
X86951010Y-84593612D01*
X86946670Y-84597418D01*
X86946666Y-84597421D01*
X86926723Y-84614911D01*
X86798392Y-84727455D01*
X86672720Y-84886869D01*
X86670031Y-84891980D01*
X86670029Y-84891983D01*
X86658507Y-84913883D01*
X86578203Y-85066515D01*
X86518007Y-85260378D01*
X86494148Y-85461964D01*
X86169564Y-85461964D01*
X86153658Y-85288859D01*
X86152090Y-85283299D01*
X86100125Y-85099046D01*
X86100124Y-85099044D01*
X86098557Y-85093487D01*
X86087978Y-85072033D01*
X86011331Y-84916609D01*
X86008776Y-84911428D01*
X85887320Y-84748779D01*
X85738258Y-84610987D01*
X85733375Y-84607906D01*
X85733371Y-84607903D01*
X85571464Y-84505748D01*
X85566581Y-84502667D01*
X85378039Y-84427446D01*
X85372379Y-84426320D01*
X85372375Y-84426319D01*
X85184613Y-84388971D01*
X85184610Y-84388971D01*
X85178946Y-84387844D01*
X85173171Y-84387768D01*
X85173167Y-84387768D01*
X85071793Y-84386441D01*
X84975971Y-84385187D01*
X84970274Y-84386166D01*
X84970273Y-84386166D01*
X84872620Y-84402946D01*
X84775910Y-84419564D01*
X84585463Y-84489824D01*
X84411010Y-84593612D01*
X84406670Y-84597418D01*
X84406666Y-84597421D01*
X84386723Y-84614911D01*
X84258392Y-84727455D01*
X84132720Y-84886869D01*
X84130031Y-84891980D01*
X84130029Y-84891983D01*
X84118507Y-84913883D01*
X84038203Y-85066515D01*
X83978007Y-85260378D01*
X83954148Y-85461964D01*
X83629564Y-85461964D01*
X83613658Y-85288859D01*
X83612090Y-85283299D01*
X83560125Y-85099046D01*
X83560124Y-85099044D01*
X83558557Y-85093487D01*
X83547978Y-85072033D01*
X83471331Y-84916609D01*
X83468776Y-84911428D01*
X83347320Y-84748779D01*
X83198258Y-84610987D01*
X83193375Y-84607906D01*
X83193371Y-84607903D01*
X83031464Y-84505748D01*
X83026581Y-84502667D01*
X82838039Y-84427446D01*
X82832379Y-84426320D01*
X82832375Y-84426319D01*
X82644613Y-84388971D01*
X82644610Y-84388971D01*
X82638946Y-84387844D01*
X82633171Y-84387768D01*
X82633167Y-84387768D01*
X82531793Y-84386441D01*
X82435971Y-84385187D01*
X82430274Y-84386166D01*
X82430273Y-84386166D01*
X82332620Y-84402946D01*
X82235910Y-84419564D01*
X82045463Y-84489824D01*
X81871010Y-84593612D01*
X81866670Y-84597418D01*
X81866666Y-84597421D01*
X81846723Y-84614911D01*
X81718392Y-84727455D01*
X81592720Y-84886869D01*
X81590031Y-84891980D01*
X81590029Y-84891983D01*
X81578507Y-84913883D01*
X81498203Y-85066515D01*
X81438007Y-85260378D01*
X81414148Y-85461964D01*
X81089564Y-85461964D01*
X81073658Y-85288859D01*
X81072090Y-85283299D01*
X81020125Y-85099046D01*
X81020124Y-85099044D01*
X81018557Y-85093487D01*
X81007978Y-85072033D01*
X80931331Y-84916609D01*
X80928776Y-84911428D01*
X80807320Y-84748779D01*
X80658258Y-84610987D01*
X80653375Y-84607906D01*
X80653371Y-84607903D01*
X80491464Y-84505748D01*
X80486581Y-84502667D01*
X80298039Y-84427446D01*
X80292379Y-84426320D01*
X80292375Y-84426319D01*
X80104613Y-84388971D01*
X80104610Y-84388971D01*
X80098946Y-84387844D01*
X80093171Y-84387768D01*
X80093167Y-84387768D01*
X79991793Y-84386441D01*
X79895971Y-84385187D01*
X79890274Y-84386166D01*
X79890273Y-84386166D01*
X79792620Y-84402946D01*
X79695910Y-84419564D01*
X79505463Y-84489824D01*
X79331010Y-84593612D01*
X79326670Y-84597418D01*
X79326666Y-84597421D01*
X79306723Y-84614911D01*
X79178392Y-84727455D01*
X79052720Y-84886869D01*
X79050031Y-84891980D01*
X79050029Y-84891983D01*
X79038507Y-84913883D01*
X78958203Y-85066515D01*
X78898007Y-85260378D01*
X78874148Y-85461964D01*
X78549564Y-85461964D01*
X78533658Y-85288859D01*
X78532090Y-85283299D01*
X78480125Y-85099046D01*
X78480124Y-85099044D01*
X78478557Y-85093487D01*
X78467978Y-85072033D01*
X78391331Y-84916609D01*
X78388776Y-84911428D01*
X78267320Y-84748779D01*
X78118258Y-84610987D01*
X78113375Y-84607906D01*
X78113371Y-84607903D01*
X77951464Y-84505748D01*
X77946581Y-84502667D01*
X77758039Y-84427446D01*
X77752379Y-84426320D01*
X77752375Y-84426319D01*
X77564613Y-84388971D01*
X77564610Y-84388971D01*
X77558946Y-84387844D01*
X77553171Y-84387768D01*
X77553167Y-84387768D01*
X77451793Y-84386441D01*
X77355971Y-84385187D01*
X77350274Y-84386166D01*
X77350273Y-84386166D01*
X77252620Y-84402946D01*
X77155910Y-84419564D01*
X76965463Y-84489824D01*
X76791010Y-84593612D01*
X76786670Y-84597418D01*
X76786666Y-84597421D01*
X76766723Y-84614911D01*
X76638392Y-84727455D01*
X76512720Y-84886869D01*
X76510031Y-84891980D01*
X76510029Y-84891983D01*
X76498507Y-84913883D01*
X76418203Y-85066515D01*
X76358007Y-85260378D01*
X76334148Y-85461964D01*
X76347424Y-85664522D01*
X76348845Y-85670118D01*
X76348846Y-85670123D01*
X76382535Y-85802769D01*
X76397392Y-85861269D01*
X76399809Y-85866512D01*
X76437010Y-85947208D01*
X76482377Y-86045616D01*
X76485710Y-86050332D01*
X76550146Y-86141507D01*
X76599533Y-86211389D01*
X76744938Y-86353035D01*
X76749742Y-86356245D01*
X76803980Y-86392486D01*
X76913720Y-86465812D01*
X76919024Y-86468091D01*
X76919030Y-86468094D01*
X76994998Y-86500732D01*
X77049692Y-86546000D01*
X77071229Y-86613651D01*
X77052772Y-86682207D01*
X77000181Y-86729901D01*
X76945261Y-86742500D01*
X75410718Y-86742500D01*
X75342597Y-86722498D01*
X75296104Y-86668842D01*
X75286000Y-86598568D01*
X75315494Y-86533988D01*
X75354557Y-86505034D01*
X75354165Y-86504334D01*
X75413092Y-86471333D01*
X75531276Y-86405147D01*
X75546495Y-86392490D01*
X75682913Y-86279031D01*
X75687345Y-86275345D01*
X75798658Y-86141507D01*
X75813453Y-86123718D01*
X75813455Y-86123715D01*
X75817147Y-86119276D01*
X75916334Y-85942165D01*
X75918190Y-85936698D01*
X75918192Y-85936693D01*
X75979728Y-85755414D01*
X75979729Y-85755409D01*
X75981584Y-85749945D01*
X75982412Y-85744236D01*
X75982413Y-85744231D01*
X76005581Y-85584439D01*
X76010712Y-85549053D01*
X76012232Y-85491000D01*
X75993658Y-85288859D01*
X75992090Y-85283299D01*
X75940125Y-85099046D01*
X75940124Y-85099044D01*
X75938557Y-85093487D01*
X75927978Y-85072033D01*
X75851331Y-84916609D01*
X75848776Y-84911428D01*
X75727320Y-84748779D01*
X75578258Y-84610987D01*
X75573375Y-84607906D01*
X75573371Y-84607903D01*
X75411464Y-84505748D01*
X75406581Y-84502667D01*
X75218039Y-84427446D01*
X75212379Y-84426320D01*
X75212375Y-84426319D01*
X75024613Y-84388971D01*
X75024610Y-84388971D01*
X75018946Y-84387844D01*
X75013171Y-84387768D01*
X75013167Y-84387768D01*
X74911793Y-84386441D01*
X74815971Y-84385187D01*
X74810274Y-84386166D01*
X74810273Y-84386166D01*
X74712620Y-84402946D01*
X74615910Y-84419564D01*
X74425463Y-84489824D01*
X74251010Y-84593612D01*
X74246670Y-84597418D01*
X74246666Y-84597421D01*
X74226723Y-84614911D01*
X74098392Y-84727455D01*
X73972720Y-84886869D01*
X73970031Y-84891980D01*
X73970029Y-84891983D01*
X73958507Y-84913883D01*
X73878203Y-85066515D01*
X73818007Y-85260378D01*
X73794148Y-85461964D01*
X73807424Y-85664522D01*
X73808845Y-85670118D01*
X73808846Y-85670123D01*
X73842535Y-85802769D01*
X73857392Y-85861269D01*
X73859809Y-85866512D01*
X73897010Y-85947208D01*
X73942377Y-86045616D01*
X73945710Y-86050332D01*
X74010146Y-86141507D01*
X74059533Y-86211389D01*
X74204938Y-86353035D01*
X74209742Y-86356245D01*
X74263980Y-86392486D01*
X74373720Y-86465812D01*
X74379024Y-86468091D01*
X74379030Y-86468094D01*
X74454998Y-86500732D01*
X74509692Y-86546000D01*
X74531229Y-86613651D01*
X74512772Y-86682207D01*
X74460181Y-86729901D01*
X74405261Y-86742500D01*
X72870718Y-86742500D01*
X72802597Y-86722498D01*
X72756104Y-86668842D01*
X72746000Y-86598568D01*
X72775494Y-86533988D01*
X72814557Y-86505034D01*
X72814165Y-86504334D01*
X72873092Y-86471333D01*
X72991276Y-86405147D01*
X73006495Y-86392490D01*
X73142913Y-86279031D01*
X73147345Y-86275345D01*
X73258658Y-86141507D01*
X73273453Y-86123718D01*
X73273455Y-86123715D01*
X73277147Y-86119276D01*
X73376334Y-85942165D01*
X73378190Y-85936698D01*
X73378192Y-85936693D01*
X73439728Y-85755414D01*
X73439729Y-85755409D01*
X73441584Y-85749945D01*
X73442412Y-85744236D01*
X73442413Y-85744231D01*
X73465581Y-85584439D01*
X73470712Y-85549053D01*
X73472232Y-85491000D01*
X73453658Y-85288859D01*
X73452090Y-85283299D01*
X73400125Y-85099046D01*
X73400124Y-85099044D01*
X73398557Y-85093487D01*
X73387978Y-85072033D01*
X73311331Y-84916609D01*
X73308776Y-84911428D01*
X73187320Y-84748779D01*
X73038258Y-84610987D01*
X73033375Y-84607906D01*
X73033371Y-84607903D01*
X72871464Y-84505748D01*
X72866581Y-84502667D01*
X72678039Y-84427446D01*
X72672379Y-84426320D01*
X72672375Y-84426319D01*
X72484613Y-84388971D01*
X72484610Y-84388971D01*
X72478946Y-84387844D01*
X72473171Y-84387768D01*
X72473167Y-84387768D01*
X72371793Y-84386441D01*
X72275971Y-84385187D01*
X72270274Y-84386166D01*
X72270273Y-84386166D01*
X72172620Y-84402946D01*
X72075910Y-84419564D01*
X71885463Y-84489824D01*
X71711010Y-84593612D01*
X71706670Y-84597418D01*
X71706666Y-84597421D01*
X71686723Y-84614911D01*
X71558392Y-84727455D01*
X71432720Y-84886869D01*
X71430031Y-84891980D01*
X71430029Y-84891983D01*
X71418507Y-84913883D01*
X71338203Y-85066515D01*
X71278007Y-85260378D01*
X71254148Y-85461964D01*
X71267424Y-85664522D01*
X71268845Y-85670118D01*
X71268846Y-85670123D01*
X71302535Y-85802769D01*
X71317392Y-85861269D01*
X71319809Y-85866512D01*
X71357010Y-85947208D01*
X71402377Y-86045616D01*
X71405710Y-86050332D01*
X71470146Y-86141507D01*
X71519533Y-86211389D01*
X71664938Y-86353035D01*
X71669742Y-86356245D01*
X71723980Y-86392486D01*
X71833720Y-86465812D01*
X71839024Y-86468091D01*
X71839030Y-86468094D01*
X71914998Y-86500732D01*
X71969692Y-86546000D01*
X71991229Y-86613651D01*
X71972772Y-86682207D01*
X71920181Y-86729901D01*
X71865261Y-86742500D01*
X70330718Y-86742500D01*
X70262597Y-86722498D01*
X70216104Y-86668842D01*
X70206000Y-86598568D01*
X70235494Y-86533988D01*
X70274557Y-86505034D01*
X70274165Y-86504334D01*
X70333092Y-86471333D01*
X70451276Y-86405147D01*
X70466495Y-86392490D01*
X70602913Y-86279031D01*
X70607345Y-86275345D01*
X70718658Y-86141507D01*
X70733453Y-86123718D01*
X70733455Y-86123715D01*
X70737147Y-86119276D01*
X70836334Y-85942165D01*
X70838190Y-85936698D01*
X70838192Y-85936693D01*
X70899728Y-85755414D01*
X70899729Y-85755409D01*
X70901584Y-85749945D01*
X70902412Y-85744236D01*
X70902413Y-85744231D01*
X70925581Y-85584439D01*
X70930712Y-85549053D01*
X70932232Y-85491000D01*
X70913658Y-85288859D01*
X70912090Y-85283299D01*
X70860125Y-85099046D01*
X70860124Y-85099044D01*
X70858557Y-85093487D01*
X70847978Y-85072033D01*
X70771331Y-84916609D01*
X70768776Y-84911428D01*
X70647320Y-84748779D01*
X70498258Y-84610987D01*
X70493375Y-84607906D01*
X70493371Y-84607903D01*
X70331464Y-84505748D01*
X70326581Y-84502667D01*
X70138039Y-84427446D01*
X70132379Y-84426320D01*
X70132375Y-84426319D01*
X69944613Y-84388971D01*
X69944610Y-84388971D01*
X69938946Y-84387844D01*
X69933171Y-84387768D01*
X69933167Y-84387768D01*
X69831793Y-84386441D01*
X69735971Y-84385187D01*
X69730274Y-84386166D01*
X69730273Y-84386166D01*
X69632620Y-84402946D01*
X69535910Y-84419564D01*
X69345463Y-84489824D01*
X69171010Y-84593612D01*
X69166670Y-84597418D01*
X69166666Y-84597421D01*
X69146723Y-84614911D01*
X69018392Y-84727455D01*
X68892720Y-84886869D01*
X68890031Y-84891980D01*
X68890029Y-84891983D01*
X68878507Y-84913883D01*
X68798203Y-85066515D01*
X68738007Y-85260378D01*
X68714148Y-85461964D01*
X68727424Y-85664522D01*
X68728845Y-85670118D01*
X68728846Y-85670123D01*
X68762535Y-85802769D01*
X68777392Y-85861269D01*
X68779809Y-85866512D01*
X68817010Y-85947208D01*
X68862377Y-86045616D01*
X68865710Y-86050332D01*
X68930146Y-86141507D01*
X68979533Y-86211389D01*
X69124938Y-86353035D01*
X69129742Y-86356245D01*
X69183980Y-86392486D01*
X69293720Y-86465812D01*
X69299024Y-86468091D01*
X69299030Y-86468094D01*
X69374998Y-86500732D01*
X69429692Y-86546000D01*
X69451229Y-86613651D01*
X69432772Y-86682207D01*
X69380181Y-86729901D01*
X69325261Y-86742500D01*
X69123384Y-86742500D01*
X69055263Y-86722498D01*
X69034289Y-86705595D01*
X68345281Y-86016587D01*
X68311255Y-85954275D01*
X68315063Y-85886991D01*
X68323795Y-85861269D01*
X68343653Y-85802769D01*
X68359728Y-85755413D01*
X68359728Y-85755412D01*
X68361584Y-85749945D01*
X68362412Y-85744236D01*
X68362413Y-85744231D01*
X68385581Y-85584439D01*
X68390712Y-85549053D01*
X68392232Y-85491000D01*
X68373658Y-85288859D01*
X68372090Y-85283299D01*
X68320125Y-85099046D01*
X68320124Y-85099044D01*
X68318557Y-85093487D01*
X68307978Y-85072033D01*
X68231331Y-84916609D01*
X68228776Y-84911428D01*
X68107320Y-84748779D01*
X67958258Y-84610987D01*
X67953375Y-84607906D01*
X67953371Y-84607903D01*
X67791464Y-84505748D01*
X67786581Y-84502667D01*
X67598039Y-84427446D01*
X67592379Y-84426320D01*
X67592375Y-84426319D01*
X67404613Y-84388971D01*
X67404610Y-84388971D01*
X67398946Y-84387844D01*
X67393171Y-84387768D01*
X67393167Y-84387768D01*
X67291793Y-84386441D01*
X67195971Y-84385187D01*
X67190274Y-84386166D01*
X67190273Y-84386166D01*
X67092620Y-84402946D01*
X66995910Y-84419564D01*
X66805463Y-84489824D01*
X66631010Y-84593612D01*
X66626670Y-84597418D01*
X66626666Y-84597421D01*
X66606723Y-84614911D01*
X66478392Y-84727455D01*
X66352720Y-84886869D01*
X66350031Y-84891980D01*
X66350029Y-84891983D01*
X66338507Y-84913883D01*
X66258203Y-85066515D01*
X66198007Y-85260378D01*
X66174148Y-85461964D01*
X66187424Y-85664522D01*
X66188845Y-85670118D01*
X66188846Y-85670123D01*
X66222535Y-85802769D01*
X66237392Y-85861269D01*
X66239809Y-85866512D01*
X66277010Y-85947208D01*
X66322377Y-86045616D01*
X66325710Y-86050332D01*
X66390146Y-86141507D01*
X66439533Y-86211389D01*
X66584938Y-86353035D01*
X66589742Y-86356245D01*
X66643980Y-86392486D01*
X66753720Y-86465812D01*
X66759023Y-86468090D01*
X66759026Y-86468092D01*
X66912404Y-86533988D01*
X66940228Y-86545942D01*
X67003690Y-86560302D01*
X67132579Y-86589467D01*
X67132584Y-86589468D01*
X67138216Y-86590742D01*
X67143987Y-86590969D01*
X67143989Y-86590969D01*
X67201841Y-86593242D01*
X67341053Y-86598712D01*
X67441499Y-86584148D01*
X67536231Y-86570413D01*
X67536236Y-86570412D01*
X67541945Y-86569584D01*
X67678991Y-86523063D01*
X67749926Y-86520107D01*
X67808587Y-86553281D01*
X68607522Y-87352216D01*
X68622664Y-87370964D01*
X68623779Y-87372189D01*
X68629429Y-87380940D01*
X68637607Y-87387387D01*
X68637609Y-87387389D01*
X68655800Y-87401729D01*
X68660239Y-87405673D01*
X68660301Y-87405600D01*
X68664262Y-87408956D01*
X68664889Y-87409583D01*
X68665243Y-87410121D01*
X68666890Y-87411584D01*
X68667944Y-87412638D01*
X68667315Y-87413267D01*
X68703790Y-87468664D01*
X68704577Y-87539656D01*
X68666858Y-87599804D01*
X68602608Y-87630011D01*
X68583295Y-87631500D01*
X40726920Y-87631500D01*
X40702973Y-87628951D01*
X40701307Y-87628872D01*
X40691124Y-87626680D01*
X40680782Y-87627904D01*
X40680779Y-87627904D01*
X40657787Y-87630626D01*
X40651846Y-87630977D01*
X40651854Y-87631072D01*
X40646674Y-87631500D01*
X40641476Y-87631500D01*
X40636354Y-87632353D01*
X40636349Y-87632353D01*
X40622427Y-87634671D01*
X40616550Y-87635508D01*
X40610049Y-87636277D01*
X40575997Y-87640307D01*
X40575995Y-87640308D01*
X40565659Y-87641531D01*
X40557410Y-87645492D01*
X40548374Y-87646996D01*
X40539205Y-87651943D01*
X40539203Y-87651944D01*
X40503240Y-87671348D01*
X40497951Y-87674043D01*
X40484936Y-87680293D01*
X40451768Y-87696220D01*
X40447492Y-87699814D01*
X40445552Y-87701754D01*
X40443641Y-87703507D01*
X40443551Y-87703556D01*
X40443439Y-87703433D01*
X40442904Y-87703905D01*
X40437186Y-87706990D01*
X40430119Y-87714635D01*
X40400584Y-87746586D01*
X40397154Y-87750152D01*
X38598144Y-89549162D01*
X38535832Y-89583188D01*
X38462360Y-89577097D01*
X38388039Y-89547446D01*
X38382379Y-89546320D01*
X38382375Y-89546319D01*
X38194613Y-89508971D01*
X38194610Y-89508971D01*
X38188946Y-89507844D01*
X38183171Y-89507768D01*
X38183167Y-89507768D01*
X38081793Y-89506441D01*
X37985971Y-89505187D01*
X37980274Y-89506166D01*
X37980273Y-89506166D01*
X37882620Y-89522946D01*
X37785910Y-89539564D01*
X37595463Y-89609824D01*
X37421010Y-89713612D01*
X37416670Y-89717418D01*
X37416666Y-89717421D01*
X37272733Y-89843648D01*
X37268392Y-89847455D01*
X37142720Y-90006869D01*
X37140031Y-90011980D01*
X37140029Y-90011983D01*
X37128507Y-90033883D01*
X37048203Y-90186515D01*
X36988007Y-90380378D01*
X36964148Y-90581964D01*
X36977424Y-90784522D01*
X36978845Y-90790118D01*
X36978846Y-90790123D01*
X36999119Y-90869945D01*
X37027392Y-90981269D01*
X37029809Y-90986512D01*
X37067010Y-91067208D01*
X37112377Y-91165616D01*
X37229533Y-91331389D01*
X37374938Y-91473035D01*
X37379742Y-91476245D01*
X37433980Y-91512486D01*
X37543720Y-91585812D01*
X37549023Y-91588090D01*
X37549026Y-91588092D01*
X37637707Y-91626192D01*
X37730228Y-91665942D01*
X37803244Y-91682464D01*
X37922579Y-91709467D01*
X37922584Y-91709468D01*
X37928216Y-91710742D01*
X37933987Y-91710969D01*
X37933989Y-91710969D01*
X37993756Y-91713317D01*
X38131053Y-91718712D01*
X38231499Y-91704148D01*
X38326231Y-91690413D01*
X38326236Y-91690412D01*
X38331945Y-91689584D01*
X38337409Y-91687729D01*
X38337414Y-91687728D01*
X38518693Y-91626192D01*
X38518698Y-91626190D01*
X38524165Y-91624334D01*
X38701276Y-91525147D01*
X38716495Y-91512490D01*
X38852913Y-91399031D01*
X38857345Y-91395345D01*
X38987147Y-91239276D01*
X39086334Y-91062165D01*
X39088190Y-91056698D01*
X39088192Y-91056693D01*
X39149728Y-90875414D01*
X39149729Y-90875409D01*
X39151584Y-90869945D01*
X39152412Y-90864236D01*
X39152413Y-90864231D01*
X39180179Y-90672727D01*
X39180712Y-90669053D01*
X39182232Y-90611000D01*
X39179564Y-90581964D01*
X39504148Y-90581964D01*
X39517424Y-90784522D01*
X39518845Y-90790118D01*
X39518846Y-90790123D01*
X39539119Y-90869945D01*
X39567392Y-90981269D01*
X39569809Y-90986512D01*
X39607010Y-91067208D01*
X39652377Y-91165616D01*
X39769533Y-91331389D01*
X39914938Y-91473035D01*
X39919742Y-91476245D01*
X39973980Y-91512486D01*
X40083720Y-91585812D01*
X40089023Y-91588090D01*
X40089026Y-91588092D01*
X40177707Y-91626192D01*
X40270228Y-91665942D01*
X40343244Y-91682464D01*
X40462579Y-91709467D01*
X40462584Y-91709468D01*
X40468216Y-91710742D01*
X40473987Y-91710969D01*
X40473989Y-91710969D01*
X40533756Y-91713317D01*
X40671053Y-91718712D01*
X40771499Y-91704148D01*
X40866231Y-91690413D01*
X40866236Y-91690412D01*
X40871945Y-91689584D01*
X40877409Y-91687729D01*
X40877414Y-91687728D01*
X41058693Y-91626192D01*
X41058698Y-91626190D01*
X41064165Y-91624334D01*
X41241276Y-91525147D01*
X41256495Y-91512490D01*
X41392913Y-91399031D01*
X41397345Y-91395345D01*
X41527147Y-91239276D01*
X41626334Y-91062165D01*
X41628190Y-91056698D01*
X41628192Y-91056693D01*
X41689728Y-90875414D01*
X41689729Y-90875409D01*
X41691584Y-90869945D01*
X41692412Y-90864236D01*
X41692413Y-90864231D01*
X41720179Y-90672727D01*
X41720712Y-90669053D01*
X41722232Y-90611000D01*
X41719564Y-90581964D01*
X42044148Y-90581964D01*
X42057424Y-90784522D01*
X42058845Y-90790118D01*
X42058846Y-90790123D01*
X42079119Y-90869945D01*
X42107392Y-90981269D01*
X42109809Y-90986512D01*
X42147010Y-91067208D01*
X42192377Y-91165616D01*
X42309533Y-91331389D01*
X42454938Y-91473035D01*
X42459742Y-91476245D01*
X42513980Y-91512486D01*
X42623720Y-91585812D01*
X42629023Y-91588090D01*
X42629026Y-91588092D01*
X42717707Y-91626192D01*
X42810228Y-91665942D01*
X42883244Y-91682464D01*
X43002579Y-91709467D01*
X43002584Y-91709468D01*
X43008216Y-91710742D01*
X43013987Y-91710969D01*
X43013989Y-91710969D01*
X43073756Y-91713317D01*
X43211053Y-91718712D01*
X43311499Y-91704148D01*
X43406231Y-91690413D01*
X43406236Y-91690412D01*
X43411945Y-91689584D01*
X43417409Y-91687729D01*
X43417414Y-91687728D01*
X43598693Y-91626192D01*
X43598698Y-91626190D01*
X43604165Y-91624334D01*
X43781276Y-91525147D01*
X43796495Y-91512490D01*
X43932913Y-91399031D01*
X43937345Y-91395345D01*
X44067147Y-91239276D01*
X44166334Y-91062165D01*
X44168190Y-91056698D01*
X44168192Y-91056693D01*
X44229728Y-90875414D01*
X44229729Y-90875409D01*
X44231584Y-90869945D01*
X44232412Y-90864236D01*
X44232413Y-90864231D01*
X44260179Y-90672727D01*
X44260712Y-90669053D01*
X44262232Y-90611000D01*
X44259564Y-90581964D01*
X44584148Y-90581964D01*
X44597424Y-90784522D01*
X44598845Y-90790118D01*
X44598846Y-90790123D01*
X44619119Y-90869945D01*
X44647392Y-90981269D01*
X44649809Y-90986512D01*
X44687010Y-91067208D01*
X44732377Y-91165616D01*
X44849533Y-91331389D01*
X44994938Y-91473035D01*
X44999742Y-91476245D01*
X45053980Y-91512486D01*
X45163720Y-91585812D01*
X45169023Y-91588090D01*
X45169026Y-91588092D01*
X45257707Y-91626192D01*
X45350228Y-91665942D01*
X45423244Y-91682464D01*
X45542579Y-91709467D01*
X45542584Y-91709468D01*
X45548216Y-91710742D01*
X45553987Y-91710969D01*
X45553989Y-91710969D01*
X45613756Y-91713317D01*
X45751053Y-91718712D01*
X45851499Y-91704148D01*
X45946231Y-91690413D01*
X45946236Y-91690412D01*
X45951945Y-91689584D01*
X45957409Y-91687729D01*
X45957414Y-91687728D01*
X46138693Y-91626192D01*
X46138698Y-91626190D01*
X46144165Y-91624334D01*
X46321276Y-91525147D01*
X46336495Y-91512490D01*
X46472913Y-91399031D01*
X46477345Y-91395345D01*
X46607147Y-91239276D01*
X46706334Y-91062165D01*
X46708190Y-91056698D01*
X46708192Y-91056693D01*
X46769728Y-90875414D01*
X46769729Y-90875409D01*
X46771584Y-90869945D01*
X46772412Y-90864236D01*
X46772413Y-90864231D01*
X46800179Y-90672727D01*
X46800712Y-90669053D01*
X46802232Y-90611000D01*
X46799564Y-90581964D01*
X47124148Y-90581964D01*
X47137424Y-90784522D01*
X47138845Y-90790118D01*
X47138846Y-90790123D01*
X47159119Y-90869945D01*
X47187392Y-90981269D01*
X47189809Y-90986512D01*
X47227010Y-91067208D01*
X47272377Y-91165616D01*
X47389533Y-91331389D01*
X47534938Y-91473035D01*
X47539742Y-91476245D01*
X47593980Y-91512486D01*
X47703720Y-91585812D01*
X47709023Y-91588090D01*
X47709026Y-91588092D01*
X47797707Y-91626192D01*
X47890228Y-91665942D01*
X47963244Y-91682464D01*
X48082579Y-91709467D01*
X48082584Y-91709468D01*
X48088216Y-91710742D01*
X48093987Y-91710969D01*
X48093989Y-91710969D01*
X48153756Y-91713317D01*
X48291053Y-91718712D01*
X48391499Y-91704148D01*
X48486231Y-91690413D01*
X48486236Y-91690412D01*
X48491945Y-91689584D01*
X48497409Y-91687729D01*
X48497414Y-91687728D01*
X48678693Y-91626192D01*
X48678698Y-91626190D01*
X48684165Y-91624334D01*
X48861276Y-91525147D01*
X48876495Y-91512490D01*
X49012913Y-91399031D01*
X49017345Y-91395345D01*
X49147147Y-91239276D01*
X49246334Y-91062165D01*
X49248190Y-91056698D01*
X49248192Y-91056693D01*
X49309728Y-90875414D01*
X49309729Y-90875409D01*
X49311584Y-90869945D01*
X49312412Y-90864236D01*
X49312413Y-90864231D01*
X49340179Y-90672727D01*
X49340712Y-90669053D01*
X49342232Y-90611000D01*
X49339564Y-90581964D01*
X49664148Y-90581964D01*
X49677424Y-90784522D01*
X49678845Y-90790118D01*
X49678846Y-90790123D01*
X49699119Y-90869945D01*
X49727392Y-90981269D01*
X49729809Y-90986512D01*
X49767010Y-91067208D01*
X49812377Y-91165616D01*
X49929533Y-91331389D01*
X50074938Y-91473035D01*
X50079742Y-91476245D01*
X50133980Y-91512486D01*
X50243720Y-91585812D01*
X50249023Y-91588090D01*
X50249026Y-91588092D01*
X50337707Y-91626192D01*
X50430228Y-91665942D01*
X50503244Y-91682464D01*
X50622579Y-91709467D01*
X50622584Y-91709468D01*
X50628216Y-91710742D01*
X50633987Y-91710969D01*
X50633989Y-91710969D01*
X50693756Y-91713317D01*
X50831053Y-91718712D01*
X50931499Y-91704148D01*
X51026231Y-91690413D01*
X51026236Y-91690412D01*
X51031945Y-91689584D01*
X51037409Y-91687729D01*
X51037414Y-91687728D01*
X51218693Y-91626192D01*
X51218698Y-91626190D01*
X51224165Y-91624334D01*
X51401276Y-91525147D01*
X51416495Y-91512490D01*
X51552913Y-91399031D01*
X51557345Y-91395345D01*
X51687147Y-91239276D01*
X51786334Y-91062165D01*
X51788190Y-91056698D01*
X51788192Y-91056693D01*
X51849728Y-90875414D01*
X51849729Y-90875409D01*
X51851584Y-90869945D01*
X51852412Y-90864236D01*
X51852413Y-90864231D01*
X51880179Y-90672727D01*
X51880712Y-90669053D01*
X51882232Y-90611000D01*
X51879564Y-90581964D01*
X52204148Y-90581964D01*
X52217424Y-90784522D01*
X52218845Y-90790118D01*
X52218846Y-90790123D01*
X52239119Y-90869945D01*
X52267392Y-90981269D01*
X52269809Y-90986512D01*
X52307010Y-91067208D01*
X52352377Y-91165616D01*
X52469533Y-91331389D01*
X52614938Y-91473035D01*
X52619742Y-91476245D01*
X52673980Y-91512486D01*
X52783720Y-91585812D01*
X52789023Y-91588090D01*
X52789026Y-91588092D01*
X52877707Y-91626192D01*
X52970228Y-91665942D01*
X53043244Y-91682464D01*
X53162579Y-91709467D01*
X53162584Y-91709468D01*
X53168216Y-91710742D01*
X53173987Y-91710969D01*
X53173989Y-91710969D01*
X53233756Y-91713317D01*
X53371053Y-91718712D01*
X53471499Y-91704148D01*
X53566231Y-91690413D01*
X53566236Y-91690412D01*
X53571945Y-91689584D01*
X53577409Y-91687729D01*
X53577414Y-91687728D01*
X53758693Y-91626192D01*
X53758698Y-91626190D01*
X53764165Y-91624334D01*
X53941276Y-91525147D01*
X53956495Y-91512490D01*
X54092913Y-91399031D01*
X54097345Y-91395345D01*
X54227147Y-91239276D01*
X54229969Y-91234236D01*
X54229973Y-91234231D01*
X54259067Y-91182279D01*
X54309804Y-91132617D01*
X54379335Y-91118270D01*
X54445586Y-91143791D01*
X54487522Y-91201080D01*
X54495001Y-91243845D01*
X54495001Y-91505669D01*
X54495371Y-91512490D01*
X54500895Y-91563352D01*
X54504521Y-91578604D01*
X54549676Y-91699054D01*
X54558214Y-91714649D01*
X54634715Y-91816724D01*
X54647276Y-91829285D01*
X54749351Y-91905786D01*
X54764946Y-91914324D01*
X54885394Y-91959478D01*
X54900649Y-91963105D01*
X54951514Y-91968631D01*
X54958328Y-91969000D01*
X55580885Y-91969000D01*
X55596124Y-91964525D01*
X55597329Y-91963135D01*
X55599000Y-91955452D01*
X55599000Y-89271116D01*
X55594525Y-89255877D01*
X55593135Y-89254672D01*
X55585452Y-89253001D01*
X54958331Y-89253001D01*
X54951510Y-89253371D01*
X54900648Y-89258895D01*
X54885396Y-89262521D01*
X54764946Y-89307676D01*
X54749351Y-89316214D01*
X54647276Y-89392715D01*
X54634715Y-89405276D01*
X54558214Y-89507351D01*
X54549676Y-89522946D01*
X54504522Y-89643394D01*
X54500895Y-89658649D01*
X54495369Y-89709514D01*
X54495000Y-89716328D01*
X54495000Y-89971160D01*
X54474998Y-90039281D01*
X54421342Y-90085774D01*
X54351068Y-90095878D01*
X54286488Y-90066384D01*
X54261567Y-90036994D01*
X54261331Y-90036608D01*
X54258776Y-90031428D01*
X54137320Y-89868779D01*
X53988258Y-89730987D01*
X53983375Y-89727906D01*
X53983371Y-89727903D01*
X53821464Y-89625748D01*
X53816581Y-89622667D01*
X53628039Y-89547446D01*
X53622379Y-89546320D01*
X53622375Y-89546319D01*
X53434613Y-89508971D01*
X53434610Y-89508971D01*
X53428946Y-89507844D01*
X53423171Y-89507768D01*
X53423167Y-89507768D01*
X53321793Y-89506441D01*
X53225971Y-89505187D01*
X53220274Y-89506166D01*
X53220273Y-89506166D01*
X53122620Y-89522946D01*
X53025910Y-89539564D01*
X52835463Y-89609824D01*
X52661010Y-89713612D01*
X52656670Y-89717418D01*
X52656666Y-89717421D01*
X52512733Y-89843648D01*
X52508392Y-89847455D01*
X52382720Y-90006869D01*
X52380031Y-90011980D01*
X52380029Y-90011983D01*
X52368507Y-90033883D01*
X52288203Y-90186515D01*
X52228007Y-90380378D01*
X52204148Y-90581964D01*
X51879564Y-90581964D01*
X51863658Y-90408859D01*
X51862090Y-90403299D01*
X51810125Y-90219046D01*
X51810124Y-90219044D01*
X51808557Y-90213487D01*
X51797978Y-90192033D01*
X51721331Y-90036609D01*
X51718776Y-90031428D01*
X51597320Y-89868779D01*
X51448258Y-89730987D01*
X51443375Y-89727906D01*
X51443371Y-89727903D01*
X51281464Y-89625748D01*
X51276581Y-89622667D01*
X51088039Y-89547446D01*
X51082379Y-89546320D01*
X51082375Y-89546319D01*
X50894613Y-89508971D01*
X50894610Y-89508971D01*
X50888946Y-89507844D01*
X50883171Y-89507768D01*
X50883167Y-89507768D01*
X50781793Y-89506441D01*
X50685971Y-89505187D01*
X50680274Y-89506166D01*
X50680273Y-89506166D01*
X50582620Y-89522946D01*
X50485910Y-89539564D01*
X50295463Y-89609824D01*
X50121010Y-89713612D01*
X50116670Y-89717418D01*
X50116666Y-89717421D01*
X49972733Y-89843648D01*
X49968392Y-89847455D01*
X49842720Y-90006869D01*
X49840031Y-90011980D01*
X49840029Y-90011983D01*
X49828507Y-90033883D01*
X49748203Y-90186515D01*
X49688007Y-90380378D01*
X49664148Y-90581964D01*
X49339564Y-90581964D01*
X49323658Y-90408859D01*
X49322090Y-90403299D01*
X49270125Y-90219046D01*
X49270124Y-90219044D01*
X49268557Y-90213487D01*
X49257978Y-90192033D01*
X49181331Y-90036609D01*
X49178776Y-90031428D01*
X49057320Y-89868779D01*
X48908258Y-89730987D01*
X48903375Y-89727906D01*
X48903371Y-89727903D01*
X48741464Y-89625748D01*
X48736581Y-89622667D01*
X48548039Y-89547446D01*
X48542379Y-89546320D01*
X48542375Y-89546319D01*
X48354613Y-89508971D01*
X48354610Y-89508971D01*
X48348946Y-89507844D01*
X48343171Y-89507768D01*
X48343167Y-89507768D01*
X48241793Y-89506441D01*
X48145971Y-89505187D01*
X48140274Y-89506166D01*
X48140273Y-89506166D01*
X48042620Y-89522946D01*
X47945910Y-89539564D01*
X47755463Y-89609824D01*
X47581010Y-89713612D01*
X47576670Y-89717418D01*
X47576666Y-89717421D01*
X47432733Y-89843648D01*
X47428392Y-89847455D01*
X47302720Y-90006869D01*
X47300031Y-90011980D01*
X47300029Y-90011983D01*
X47288507Y-90033883D01*
X47208203Y-90186515D01*
X47148007Y-90380378D01*
X47124148Y-90581964D01*
X46799564Y-90581964D01*
X46783658Y-90408859D01*
X46782090Y-90403299D01*
X46730125Y-90219046D01*
X46730124Y-90219044D01*
X46728557Y-90213487D01*
X46717978Y-90192033D01*
X46641331Y-90036609D01*
X46638776Y-90031428D01*
X46517320Y-89868779D01*
X46368258Y-89730987D01*
X46363375Y-89727906D01*
X46363371Y-89727903D01*
X46201464Y-89625748D01*
X46196581Y-89622667D01*
X46008039Y-89547446D01*
X46002379Y-89546320D01*
X46002375Y-89546319D01*
X45814613Y-89508971D01*
X45814610Y-89508971D01*
X45808946Y-89507844D01*
X45803171Y-89507768D01*
X45803167Y-89507768D01*
X45701793Y-89506441D01*
X45605971Y-89505187D01*
X45600274Y-89506166D01*
X45600273Y-89506166D01*
X45502620Y-89522946D01*
X45405910Y-89539564D01*
X45215463Y-89609824D01*
X45041010Y-89713612D01*
X45036670Y-89717418D01*
X45036666Y-89717421D01*
X44892733Y-89843648D01*
X44888392Y-89847455D01*
X44762720Y-90006869D01*
X44760031Y-90011980D01*
X44760029Y-90011983D01*
X44748507Y-90033883D01*
X44668203Y-90186515D01*
X44608007Y-90380378D01*
X44584148Y-90581964D01*
X44259564Y-90581964D01*
X44243658Y-90408859D01*
X44242090Y-90403299D01*
X44190125Y-90219046D01*
X44190124Y-90219044D01*
X44188557Y-90213487D01*
X44177978Y-90192033D01*
X44101331Y-90036609D01*
X44098776Y-90031428D01*
X43977320Y-89868779D01*
X43828258Y-89730987D01*
X43823375Y-89727906D01*
X43823371Y-89727903D01*
X43661464Y-89625748D01*
X43656581Y-89622667D01*
X43468039Y-89547446D01*
X43462379Y-89546320D01*
X43462375Y-89546319D01*
X43274613Y-89508971D01*
X43274610Y-89508971D01*
X43268946Y-89507844D01*
X43263171Y-89507768D01*
X43263167Y-89507768D01*
X43161793Y-89506441D01*
X43065971Y-89505187D01*
X43060274Y-89506166D01*
X43060273Y-89506166D01*
X42962620Y-89522946D01*
X42865910Y-89539564D01*
X42675463Y-89609824D01*
X42501010Y-89713612D01*
X42496670Y-89717418D01*
X42496666Y-89717421D01*
X42352733Y-89843648D01*
X42348392Y-89847455D01*
X42222720Y-90006869D01*
X42220031Y-90011980D01*
X42220029Y-90011983D01*
X42208507Y-90033883D01*
X42128203Y-90186515D01*
X42068007Y-90380378D01*
X42044148Y-90581964D01*
X41719564Y-90581964D01*
X41703658Y-90408859D01*
X41702090Y-90403299D01*
X41650125Y-90219046D01*
X41650124Y-90219044D01*
X41648557Y-90213487D01*
X41637978Y-90192033D01*
X41561331Y-90036609D01*
X41558776Y-90031428D01*
X41437320Y-89868779D01*
X41288258Y-89730987D01*
X41283375Y-89727906D01*
X41283371Y-89727903D01*
X41121464Y-89625748D01*
X41116581Y-89622667D01*
X40928039Y-89547446D01*
X40922379Y-89546320D01*
X40922375Y-89546319D01*
X40734613Y-89508971D01*
X40734610Y-89508971D01*
X40728946Y-89507844D01*
X40723171Y-89507768D01*
X40723167Y-89507768D01*
X40621793Y-89506441D01*
X40525971Y-89505187D01*
X40520274Y-89506166D01*
X40520273Y-89506166D01*
X40422620Y-89522946D01*
X40325910Y-89539564D01*
X40135463Y-89609824D01*
X39961010Y-89713612D01*
X39956670Y-89717418D01*
X39956666Y-89717421D01*
X39812733Y-89843648D01*
X39808392Y-89847455D01*
X39682720Y-90006869D01*
X39680031Y-90011980D01*
X39680029Y-90011983D01*
X39668507Y-90033883D01*
X39588203Y-90186515D01*
X39528007Y-90380378D01*
X39504148Y-90581964D01*
X39179564Y-90581964D01*
X39163658Y-90408859D01*
X39162090Y-90403299D01*
X39110127Y-90219053D01*
X39110126Y-90219051D01*
X39108557Y-90213487D01*
X39109058Y-90213346D01*
X39103618Y-90146289D01*
X39137894Y-90082800D01*
X40793289Y-88427405D01*
X40855601Y-88393379D01*
X40882384Y-88390500D01*
X56465591Y-88390500D01*
X56533712Y-88410502D01*
X56580205Y-88464158D01*
X56590309Y-88534432D01*
X56576636Y-88576040D01*
X56573316Y-88582232D01*
X56568950Y-88588444D01*
X56566192Y-88595519D01*
X56566191Y-88595520D01*
X56519297Y-88715798D01*
X56511406Y-88736037D01*
X56510414Y-88743570D01*
X56510414Y-88743571D01*
X56499310Y-88827919D01*
X56490729Y-88893096D01*
X56494175Y-88924309D01*
X56503085Y-89005008D01*
X56508113Y-89050553D01*
X56520243Y-89083701D01*
X56524870Y-89154544D01*
X56490460Y-89216644D01*
X56427939Y-89250284D01*
X56401917Y-89253000D01*
X56125115Y-89253000D01*
X56109876Y-89257475D01*
X56108671Y-89258865D01*
X56107000Y-89266548D01*
X56107000Y-91950884D01*
X56111475Y-91966123D01*
X56112865Y-91967328D01*
X56120548Y-91968999D01*
X56644500Y-91968999D01*
X56712621Y-91989001D01*
X56759114Y-92042657D01*
X56770500Y-92094999D01*
X56770500Y-93897616D01*
X56750498Y-93965737D01*
X56733595Y-93986711D01*
X49299784Y-101420522D01*
X49281036Y-101435664D01*
X49279811Y-101436779D01*
X49271060Y-101442429D01*
X49264613Y-101450607D01*
X49264611Y-101450609D01*
X49250271Y-101468800D01*
X49246325Y-101473241D01*
X49246398Y-101473303D01*
X49243039Y-101477267D01*
X49239362Y-101480944D01*
X49228108Y-101496692D01*
X49224602Y-101501362D01*
X49192844Y-101541647D01*
X49189812Y-101550281D01*
X49184486Y-101557734D01*
X49181501Y-101567715D01*
X49169799Y-101606844D01*
X49167964Y-101612492D01*
X49150982Y-101660851D01*
X49150500Y-101666416D01*
X49150500Y-101669124D01*
X49150386Y-101671758D01*
X49150357Y-101671856D01*
X49150193Y-101671849D01*
X49150149Y-101672553D01*
X49148287Y-101678778D01*
X49148696Y-101689183D01*
X49150403Y-101732635D01*
X49150500Y-101737582D01*
X49150500Y-107068474D01*
X49130498Y-107136595D01*
X49107329Y-107163423D01*
X49008265Y-107249842D01*
X49008261Y-107249846D01*
X49002539Y-107254838D01*
X48911450Y-107384444D01*
X48898457Y-107417769D01*
X48860268Y-107515720D01*
X48853906Y-107532037D01*
X48852914Y-107539570D01*
X48852914Y-107539571D01*
X48834252Y-107681329D01*
X48833229Y-107689096D01*
X48850613Y-107846553D01*
X48853223Y-107853684D01*
X48853223Y-107853686D01*
X48900383Y-107982557D01*
X48905053Y-107995319D01*
X48909290Y-108001624D01*
X48913388Y-108007723D01*
X48934781Y-108075420D01*
X48916178Y-108143936D01*
X48863485Y-108191518D01*
X48808807Y-108204000D01*
X46685179Y-108204000D01*
X46617058Y-108183998D01*
X46570565Y-108130342D01*
X46560461Y-108060068D01*
X46589955Y-107995488D01*
X46603348Y-107982189D01*
X46612576Y-107974308D01*
X46713314Y-107888269D01*
X46805755Y-107759624D01*
X46864842Y-107612641D01*
X46878201Y-107518773D01*
X46886581Y-107459891D01*
X46886581Y-107459888D01*
X46887162Y-107455807D01*
X46887307Y-107442000D01*
X46868276Y-107284733D01*
X46812280Y-107136546D01*
X46794221Y-107110270D01*
X46726855Y-107012251D01*
X46726854Y-107012249D01*
X46722553Y-107005992D01*
X46712717Y-106997228D01*
X46641235Y-106933541D01*
X46604275Y-106900611D01*
X46596889Y-106896700D01*
X46470988Y-106830039D01*
X46470989Y-106830039D01*
X46464274Y-106826484D01*
X46310633Y-106787892D01*
X46303034Y-106787852D01*
X46303033Y-106787852D01*
X46237181Y-106787507D01*
X46152221Y-106787062D01*
X46144841Y-106788834D01*
X46144839Y-106788834D01*
X46005563Y-106822271D01*
X46005560Y-106822272D01*
X45998184Y-106824043D01*
X45857414Y-106896700D01*
X45738039Y-107000838D01*
X45646950Y-107130444D01*
X45636279Y-107157814D01*
X45595002Y-107263685D01*
X45589406Y-107278037D01*
X45588414Y-107285570D01*
X45588414Y-107285571D01*
X45572373Y-107407419D01*
X45568729Y-107435096D01*
X45586113Y-107592553D01*
X45588723Y-107599684D01*
X45588723Y-107599686D01*
X45630632Y-107714207D01*
X45640553Y-107741319D01*
X45644789Y-107747622D01*
X45644789Y-107747623D01*
X45716061Y-107853686D01*
X45728908Y-107872805D01*
X45734527Y-107877918D01*
X45734528Y-107877919D01*
X45820475Y-107956124D01*
X45842619Y-107976273D01*
X45846076Y-107979419D01*
X45845552Y-107979995D01*
X45885787Y-108031061D01*
X45892602Y-108101730D01*
X45860129Y-108164864D01*
X45798677Y-108200420D01*
X45768857Y-108204000D01*
X36525179Y-108204000D01*
X36457058Y-108183998D01*
X36410565Y-108130342D01*
X36400461Y-108060068D01*
X36429955Y-107995488D01*
X36443348Y-107982189D01*
X36452576Y-107974308D01*
X36553314Y-107888269D01*
X36645755Y-107759624D01*
X36704842Y-107612641D01*
X36718201Y-107518773D01*
X36726581Y-107459891D01*
X36726581Y-107459888D01*
X36727162Y-107455807D01*
X36727307Y-107442000D01*
X36708276Y-107284733D01*
X36652280Y-107136546D01*
X36634221Y-107110270D01*
X36566855Y-107012251D01*
X36566854Y-107012249D01*
X36562553Y-107005992D01*
X36552717Y-106997228D01*
X36481235Y-106933541D01*
X36444275Y-106900611D01*
X36436889Y-106896700D01*
X36310988Y-106830039D01*
X36310989Y-106830039D01*
X36304274Y-106826484D01*
X36150633Y-106787892D01*
X36143034Y-106787852D01*
X36143033Y-106787852D01*
X36077181Y-106787507D01*
X35992221Y-106787062D01*
X35984841Y-106788834D01*
X35984839Y-106788834D01*
X35845563Y-106822271D01*
X35845560Y-106822272D01*
X35838184Y-106824043D01*
X35697414Y-106896700D01*
X35578039Y-107000838D01*
X35486950Y-107130444D01*
X35476279Y-107157814D01*
X35435002Y-107263685D01*
X35429406Y-107278037D01*
X35428414Y-107285570D01*
X35428414Y-107285571D01*
X35412373Y-107407419D01*
X35408729Y-107435096D01*
X35426113Y-107592553D01*
X35428723Y-107599684D01*
X35428723Y-107599686D01*
X35470632Y-107714207D01*
X35480553Y-107741319D01*
X35484789Y-107747622D01*
X35484789Y-107747623D01*
X35556061Y-107853686D01*
X35568908Y-107872805D01*
X35574527Y-107877918D01*
X35574528Y-107877919D01*
X35660475Y-107956124D01*
X35682619Y-107976273D01*
X35686076Y-107979419D01*
X35685552Y-107979995D01*
X35725787Y-108031061D01*
X35732602Y-108101730D01*
X35700129Y-108164864D01*
X35638677Y-108200420D01*
X35608857Y-108204000D01*
X31114500Y-108204000D01*
X31046379Y-108183998D01*
X30999886Y-108130342D01*
X30988500Y-108078000D01*
X30988500Y-107860476D01*
X30990921Y-107835894D01*
X30991065Y-107835170D01*
X30993486Y-107823000D01*
X30973734Y-107723699D01*
X30917484Y-107639516D01*
X30833301Y-107583266D01*
X30759067Y-107568500D01*
X30746172Y-107565935D01*
X30734000Y-107563514D01*
X30721103Y-107566079D01*
X30696524Y-107568500D01*
X20065500Y-107568500D01*
X19997379Y-107548498D01*
X19950886Y-107494842D01*
X19939500Y-107442500D01*
X19939500Y-105149096D01*
X47346729Y-105149096D01*
X47350702Y-105185078D01*
X47356731Y-105239686D01*
X47364113Y-105306553D01*
X47366723Y-105313684D01*
X47366723Y-105313686D01*
X47415500Y-105446975D01*
X47418553Y-105455319D01*
X47422789Y-105461622D01*
X47422789Y-105461623D01*
X47460043Y-105517062D01*
X47506908Y-105586805D01*
X47512527Y-105591918D01*
X47512528Y-105591919D01*
X47618460Y-105688309D01*
X47624076Y-105693419D01*
X47763293Y-105769008D01*
X47916522Y-105809207D01*
X48000477Y-105810526D01*
X48067319Y-105811576D01*
X48067322Y-105811576D01*
X48074916Y-105811695D01*
X48229332Y-105776329D01*
X48319782Y-105730838D01*
X48364072Y-105708563D01*
X48364075Y-105708561D01*
X48370855Y-105705151D01*
X48376626Y-105700222D01*
X48376629Y-105700220D01*
X48485536Y-105607204D01*
X48485536Y-105607203D01*
X48491314Y-105602269D01*
X48583755Y-105473624D01*
X48642842Y-105326641D01*
X48665162Y-105169807D01*
X48665307Y-105156000D01*
X48646276Y-104998733D01*
X48590280Y-104850546D01*
X48500553Y-104719992D01*
X48382275Y-104614611D01*
X48374889Y-104610700D01*
X48248988Y-104544039D01*
X48248989Y-104544039D01*
X48242274Y-104540484D01*
X48088633Y-104501892D01*
X48081034Y-104501852D01*
X48081033Y-104501852D01*
X48015181Y-104501507D01*
X47930221Y-104501062D01*
X47922841Y-104502834D01*
X47922839Y-104502834D01*
X47783563Y-104536271D01*
X47783560Y-104536272D01*
X47776184Y-104538043D01*
X47635414Y-104610700D01*
X47516039Y-104714838D01*
X47424950Y-104844444D01*
X47367406Y-104992037D01*
X47346729Y-105149096D01*
X19939500Y-105149096D01*
X19939500Y-103498096D01*
X37948729Y-103498096D01*
X37966113Y-103655553D01*
X38020553Y-103804319D01*
X38108908Y-103935805D01*
X38114527Y-103940918D01*
X38114528Y-103940919D01*
X38125903Y-103951269D01*
X38226076Y-104042419D01*
X38365293Y-104118008D01*
X38518522Y-104158207D01*
X38602477Y-104159526D01*
X38669319Y-104160576D01*
X38669322Y-104160576D01*
X38676916Y-104160695D01*
X38831332Y-104125329D01*
X38901742Y-104089917D01*
X38966072Y-104057563D01*
X38966075Y-104057561D01*
X38972855Y-104054151D01*
X38978626Y-104049222D01*
X38978629Y-104049220D01*
X39087536Y-103956204D01*
X39087536Y-103956203D01*
X39093314Y-103951269D01*
X39185755Y-103822624D01*
X39244842Y-103675641D01*
X39267162Y-103518807D01*
X39267307Y-103505000D01*
X39248276Y-103347733D01*
X39192280Y-103199546D01*
X39102553Y-103068992D01*
X38984275Y-102963611D01*
X38976889Y-102959700D01*
X38850988Y-102893039D01*
X38850989Y-102893039D01*
X38844274Y-102889484D01*
X38690633Y-102850892D01*
X38683034Y-102850852D01*
X38683033Y-102850852D01*
X38617181Y-102850507D01*
X38532221Y-102850062D01*
X38524841Y-102851834D01*
X38524839Y-102851834D01*
X38385563Y-102885271D01*
X38385560Y-102885272D01*
X38378184Y-102887043D01*
X38237414Y-102959700D01*
X38118039Y-103063838D01*
X38026950Y-103193444D01*
X37969406Y-103341037D01*
X37948729Y-103498096D01*
X19939500Y-103498096D01*
X19939500Y-90581964D01*
X34424148Y-90581964D01*
X34437424Y-90784522D01*
X34438845Y-90790118D01*
X34438846Y-90790123D01*
X34459119Y-90869945D01*
X34487392Y-90981269D01*
X34489809Y-90986512D01*
X34527010Y-91067208D01*
X34572377Y-91165616D01*
X34689533Y-91331389D01*
X34834938Y-91473035D01*
X34839742Y-91476245D01*
X34893980Y-91512486D01*
X35003720Y-91585812D01*
X35009023Y-91588090D01*
X35009026Y-91588092D01*
X35097707Y-91626192D01*
X35190228Y-91665942D01*
X35263244Y-91682464D01*
X35382579Y-91709467D01*
X35382584Y-91709468D01*
X35388216Y-91710742D01*
X35393987Y-91710969D01*
X35393989Y-91710969D01*
X35453756Y-91713317D01*
X35591053Y-91718712D01*
X35691499Y-91704148D01*
X35786231Y-91690413D01*
X35786236Y-91690412D01*
X35791945Y-91689584D01*
X35797409Y-91687729D01*
X35797414Y-91687728D01*
X35978693Y-91626192D01*
X35978698Y-91626190D01*
X35984165Y-91624334D01*
X36161276Y-91525147D01*
X36176495Y-91512490D01*
X36312913Y-91399031D01*
X36317345Y-91395345D01*
X36447147Y-91239276D01*
X36546334Y-91062165D01*
X36548190Y-91056698D01*
X36548192Y-91056693D01*
X36609728Y-90875414D01*
X36609729Y-90875409D01*
X36611584Y-90869945D01*
X36612412Y-90864236D01*
X36612413Y-90864231D01*
X36640179Y-90672727D01*
X36640712Y-90669053D01*
X36642232Y-90611000D01*
X36623658Y-90408859D01*
X36622090Y-90403299D01*
X36570125Y-90219046D01*
X36570124Y-90219044D01*
X36568557Y-90213487D01*
X36557978Y-90192033D01*
X36481331Y-90036609D01*
X36478776Y-90031428D01*
X36357320Y-89868779D01*
X36208258Y-89730987D01*
X36203375Y-89727906D01*
X36203371Y-89727903D01*
X36041464Y-89625748D01*
X36036581Y-89622667D01*
X35848039Y-89547446D01*
X35842379Y-89546320D01*
X35842375Y-89546319D01*
X35654613Y-89508971D01*
X35654610Y-89508971D01*
X35648946Y-89507844D01*
X35643171Y-89507768D01*
X35643167Y-89507768D01*
X35541793Y-89506441D01*
X35445971Y-89505187D01*
X35440274Y-89506166D01*
X35440273Y-89506166D01*
X35342620Y-89522946D01*
X35245910Y-89539564D01*
X35055463Y-89609824D01*
X34881010Y-89713612D01*
X34876670Y-89717418D01*
X34876666Y-89717421D01*
X34732733Y-89843648D01*
X34728392Y-89847455D01*
X34602720Y-90006869D01*
X34600031Y-90011980D01*
X34600029Y-90011983D01*
X34588507Y-90033883D01*
X34508203Y-90186515D01*
X34448007Y-90380378D01*
X34424148Y-90581964D01*
X19939500Y-90581964D01*
X19939500Y-87551124D01*
X20774738Y-87551124D01*
X20774891Y-87555512D01*
X20774891Y-87555518D01*
X20782543Y-87774634D01*
X20784765Y-87838278D01*
X20785527Y-87842601D01*
X20785528Y-87842608D01*
X20810619Y-87984902D01*
X20834659Y-88121242D01*
X20836014Y-88125413D01*
X20836016Y-88125420D01*
X20873984Y-88242273D01*
X20923449Y-88394509D01*
X20925377Y-88398462D01*
X20925379Y-88398467D01*
X20954824Y-88458838D01*
X21049406Y-88652758D01*
X21210078Y-88890965D01*
X21213022Y-88894234D01*
X21213023Y-88894236D01*
X21378210Y-89077695D01*
X21402339Y-89104493D01*
X21461988Y-89154544D01*
X21619075Y-89286356D01*
X21619080Y-89286360D01*
X21622446Y-89289184D01*
X21626178Y-89291516D01*
X21861777Y-89438735D01*
X21866115Y-89441446D01*
X21997359Y-89499879D01*
X22124594Y-89556528D01*
X22124598Y-89556530D01*
X22128604Y-89558313D01*
X22404802Y-89637512D01*
X22409145Y-89638122D01*
X22409148Y-89638123D01*
X22510499Y-89652367D01*
X22689335Y-89677500D01*
X22904747Y-89677500D01*
X22906933Y-89677347D01*
X22906937Y-89677347D01*
X23115244Y-89662781D01*
X23115249Y-89662780D01*
X23119629Y-89662474D01*
X23123923Y-89661561D01*
X23123925Y-89661561D01*
X23314688Y-89621013D01*
X23400680Y-89602735D01*
X23404811Y-89601231D01*
X23404816Y-89601230D01*
X23576929Y-89538585D01*
X23670681Y-89504462D01*
X23789197Y-89441446D01*
X23920486Y-89371639D01*
X23920492Y-89371635D01*
X23924378Y-89369569D01*
X23927938Y-89366982D01*
X23927942Y-89366980D01*
X24153269Y-89203271D01*
X24153272Y-89203268D01*
X24156832Y-89200682D01*
X24159999Y-89197624D01*
X24360357Y-89004140D01*
X24360360Y-89004136D01*
X24363519Y-89001086D01*
X24540417Y-88774667D01*
X24617019Y-88641989D01*
X24681877Y-88529653D01*
X24681880Y-88529648D01*
X24684082Y-88525833D01*
X24685732Y-88521749D01*
X24685735Y-88521743D01*
X24790068Y-88263507D01*
X24791717Y-88259426D01*
X24861228Y-87980631D01*
X24875268Y-87847055D01*
X24890803Y-87699245D01*
X24890803Y-87699242D01*
X24891262Y-87694876D01*
X24890528Y-87673844D01*
X24881389Y-87412119D01*
X24881388Y-87412112D01*
X24881235Y-87407722D01*
X24880179Y-87401729D01*
X24832103Y-87129081D01*
X24831341Y-87124758D01*
X24829986Y-87120587D01*
X24829984Y-87120580D01*
X24743912Y-86855680D01*
X24742551Y-86851491D01*
X24739154Y-86844525D01*
X24673192Y-86709285D01*
X24616594Y-86593242D01*
X24455922Y-86355035D01*
X24380179Y-86270913D01*
X24266609Y-86144781D01*
X24266608Y-86144780D01*
X24263661Y-86141507D01*
X24162062Y-86056256D01*
X24046925Y-85959644D01*
X24046920Y-85959640D01*
X24043554Y-85956816D01*
X23799885Y-85804554D01*
X23654970Y-85740034D01*
X23541406Y-85689472D01*
X23541402Y-85689470D01*
X23537396Y-85687687D01*
X23261198Y-85608488D01*
X23256855Y-85607878D01*
X23256852Y-85607877D01*
X23155501Y-85593633D01*
X22976665Y-85568500D01*
X22761253Y-85568500D01*
X22759067Y-85568653D01*
X22759063Y-85568653D01*
X22550756Y-85583219D01*
X22550751Y-85583220D01*
X22546371Y-85583526D01*
X22542077Y-85584439D01*
X22542075Y-85584439D01*
X22431808Y-85607877D01*
X22265320Y-85643265D01*
X22261189Y-85644769D01*
X22261184Y-85644770D01*
X22146597Y-85686477D01*
X21995319Y-85741538D01*
X21969224Y-85755413D01*
X21745514Y-85874361D01*
X21745508Y-85874365D01*
X21741622Y-85876431D01*
X21738062Y-85879018D01*
X21738058Y-85879020D01*
X21573924Y-85998270D01*
X21509168Y-86045318D01*
X21506004Y-86048374D01*
X21506001Y-86048376D01*
X21333019Y-86215424D01*
X21302481Y-86244914D01*
X21125583Y-86471333D01*
X21082474Y-86546000D01*
X20988201Y-86709285D01*
X20981918Y-86720167D01*
X20980268Y-86724251D01*
X20980265Y-86724257D01*
X20929866Y-86849000D01*
X20874283Y-86986574D01*
X20804772Y-87265369D01*
X20804313Y-87269737D01*
X20804312Y-87269742D01*
X20779721Y-87503713D01*
X20774738Y-87551124D01*
X19939500Y-87551124D01*
X19939500Y-85461964D01*
X35694148Y-85461964D01*
X35707424Y-85664522D01*
X35708845Y-85670118D01*
X35708846Y-85670123D01*
X35742535Y-85802769D01*
X35757392Y-85861269D01*
X35759809Y-85866512D01*
X35797010Y-85947208D01*
X35842377Y-86045616D01*
X35845710Y-86050332D01*
X35910146Y-86141507D01*
X35959533Y-86211389D01*
X36104938Y-86353035D01*
X36109742Y-86356245D01*
X36163980Y-86392486D01*
X36273720Y-86465812D01*
X36279023Y-86468090D01*
X36279026Y-86468092D01*
X36432404Y-86533988D01*
X36460228Y-86545942D01*
X36523690Y-86560302D01*
X36652579Y-86589467D01*
X36652584Y-86589468D01*
X36658216Y-86590742D01*
X36663987Y-86590969D01*
X36663989Y-86590969D01*
X36721841Y-86593242D01*
X36861053Y-86598712D01*
X36961499Y-86584148D01*
X37056231Y-86570413D01*
X37056236Y-86570412D01*
X37061945Y-86569584D01*
X37067409Y-86567729D01*
X37067414Y-86567728D01*
X37248693Y-86506192D01*
X37248698Y-86506190D01*
X37254165Y-86504334D01*
X37313093Y-86471333D01*
X37399256Y-86423079D01*
X37431276Y-86405147D01*
X37446495Y-86392490D01*
X37582913Y-86279031D01*
X37587345Y-86275345D01*
X37698658Y-86141507D01*
X37713453Y-86123718D01*
X37713455Y-86123715D01*
X37717147Y-86119276D01*
X37816334Y-85942165D01*
X37818190Y-85936698D01*
X37818192Y-85936693D01*
X37879728Y-85755414D01*
X37879729Y-85755409D01*
X37881584Y-85749945D01*
X37882412Y-85744236D01*
X37882413Y-85744231D01*
X37905581Y-85584439D01*
X37910712Y-85549053D01*
X37912232Y-85491000D01*
X37909564Y-85461964D01*
X38234148Y-85461964D01*
X38247424Y-85664522D01*
X38248845Y-85670118D01*
X38248846Y-85670123D01*
X38282535Y-85802769D01*
X38297392Y-85861269D01*
X38299809Y-85866512D01*
X38337010Y-85947208D01*
X38382377Y-86045616D01*
X38385710Y-86050332D01*
X38450146Y-86141507D01*
X38499533Y-86211389D01*
X38644938Y-86353035D01*
X38649742Y-86356245D01*
X38703980Y-86392486D01*
X38813720Y-86465812D01*
X38819023Y-86468090D01*
X38819026Y-86468092D01*
X38972404Y-86533988D01*
X39000228Y-86545942D01*
X39063690Y-86560302D01*
X39192579Y-86589467D01*
X39192584Y-86589468D01*
X39198216Y-86590742D01*
X39203987Y-86590969D01*
X39203989Y-86590969D01*
X39261841Y-86593242D01*
X39401053Y-86598712D01*
X39501499Y-86584148D01*
X39596231Y-86570413D01*
X39596236Y-86570412D01*
X39601945Y-86569584D01*
X39607409Y-86567729D01*
X39607414Y-86567728D01*
X39788693Y-86506192D01*
X39788698Y-86506190D01*
X39794165Y-86504334D01*
X39853093Y-86471333D01*
X39939256Y-86423079D01*
X39971276Y-86405147D01*
X39986495Y-86392490D01*
X40122913Y-86279031D01*
X40127345Y-86275345D01*
X40238658Y-86141507D01*
X40253453Y-86123718D01*
X40253455Y-86123715D01*
X40257147Y-86119276D01*
X40356334Y-85942165D01*
X40358190Y-85936698D01*
X40358192Y-85936693D01*
X40419728Y-85755414D01*
X40419729Y-85755409D01*
X40421584Y-85749945D01*
X40422412Y-85744236D01*
X40422413Y-85744231D01*
X40445581Y-85584439D01*
X40450712Y-85549053D01*
X40452232Y-85491000D01*
X40449564Y-85461964D01*
X40774148Y-85461964D01*
X40787424Y-85664522D01*
X40788845Y-85670118D01*
X40788846Y-85670123D01*
X40822535Y-85802769D01*
X40837392Y-85861269D01*
X40839809Y-85866512D01*
X40877010Y-85947208D01*
X40922377Y-86045616D01*
X40925710Y-86050332D01*
X40990146Y-86141507D01*
X41039533Y-86211389D01*
X41184938Y-86353035D01*
X41189742Y-86356245D01*
X41243980Y-86392486D01*
X41353720Y-86465812D01*
X41359023Y-86468090D01*
X41359026Y-86468092D01*
X41512404Y-86533988D01*
X41540228Y-86545942D01*
X41603690Y-86560302D01*
X41732579Y-86589467D01*
X41732584Y-86589468D01*
X41738216Y-86590742D01*
X41743987Y-86590969D01*
X41743989Y-86590969D01*
X41801841Y-86593242D01*
X41941053Y-86598712D01*
X42041499Y-86584148D01*
X42136231Y-86570413D01*
X42136236Y-86570412D01*
X42141945Y-86569584D01*
X42147409Y-86567729D01*
X42147414Y-86567728D01*
X42328693Y-86506192D01*
X42328698Y-86506190D01*
X42334165Y-86504334D01*
X42393093Y-86471333D01*
X42479256Y-86423079D01*
X42511276Y-86405147D01*
X42526495Y-86392490D01*
X42662913Y-86279031D01*
X42667345Y-86275345D01*
X42778658Y-86141507D01*
X42793453Y-86123718D01*
X42793455Y-86123715D01*
X42797147Y-86119276D01*
X42896334Y-85942165D01*
X42898190Y-85936698D01*
X42898192Y-85936693D01*
X42959728Y-85755414D01*
X42959729Y-85755409D01*
X42961584Y-85749945D01*
X42962412Y-85744236D01*
X42962413Y-85744231D01*
X42985581Y-85584439D01*
X42990712Y-85549053D01*
X42992232Y-85491000D01*
X42989564Y-85461964D01*
X43314148Y-85461964D01*
X43327424Y-85664522D01*
X43328845Y-85670118D01*
X43328846Y-85670123D01*
X43362535Y-85802769D01*
X43377392Y-85861269D01*
X43379809Y-85866512D01*
X43417010Y-85947208D01*
X43462377Y-86045616D01*
X43465710Y-86050332D01*
X43530146Y-86141507D01*
X43579533Y-86211389D01*
X43724938Y-86353035D01*
X43729742Y-86356245D01*
X43783980Y-86392486D01*
X43893720Y-86465812D01*
X43899023Y-86468090D01*
X43899026Y-86468092D01*
X44052404Y-86533988D01*
X44080228Y-86545942D01*
X44143690Y-86560302D01*
X44272579Y-86589467D01*
X44272584Y-86589468D01*
X44278216Y-86590742D01*
X44283987Y-86590969D01*
X44283989Y-86590969D01*
X44341841Y-86593242D01*
X44481053Y-86598712D01*
X44581499Y-86584148D01*
X44676231Y-86570413D01*
X44676236Y-86570412D01*
X44681945Y-86569584D01*
X44687409Y-86567729D01*
X44687414Y-86567728D01*
X44868693Y-86506192D01*
X44868698Y-86506190D01*
X44874165Y-86504334D01*
X44933093Y-86471333D01*
X45019256Y-86423079D01*
X45051276Y-86405147D01*
X45066495Y-86392490D01*
X45202913Y-86279031D01*
X45207345Y-86275345D01*
X45318658Y-86141507D01*
X45333453Y-86123718D01*
X45333455Y-86123715D01*
X45337147Y-86119276D01*
X45436334Y-85942165D01*
X45438190Y-85936698D01*
X45438192Y-85936693D01*
X45499728Y-85755414D01*
X45499729Y-85755409D01*
X45501584Y-85749945D01*
X45502412Y-85744236D01*
X45502413Y-85744231D01*
X45525581Y-85584439D01*
X45530712Y-85549053D01*
X45532232Y-85491000D01*
X45529564Y-85461964D01*
X45854148Y-85461964D01*
X45867424Y-85664522D01*
X45868845Y-85670118D01*
X45868846Y-85670123D01*
X45902535Y-85802769D01*
X45917392Y-85861269D01*
X45919809Y-85866512D01*
X45957010Y-85947208D01*
X46002377Y-86045616D01*
X46005710Y-86050332D01*
X46070146Y-86141507D01*
X46119533Y-86211389D01*
X46264938Y-86353035D01*
X46269742Y-86356245D01*
X46323980Y-86392486D01*
X46433720Y-86465812D01*
X46439023Y-86468090D01*
X46439026Y-86468092D01*
X46592404Y-86533988D01*
X46620228Y-86545942D01*
X46683690Y-86560302D01*
X46812579Y-86589467D01*
X46812584Y-86589468D01*
X46818216Y-86590742D01*
X46823987Y-86590969D01*
X46823989Y-86590969D01*
X46881841Y-86593242D01*
X47021053Y-86598712D01*
X47121499Y-86584148D01*
X47216231Y-86570413D01*
X47216236Y-86570412D01*
X47221945Y-86569584D01*
X47227409Y-86567729D01*
X47227414Y-86567728D01*
X47408693Y-86506192D01*
X47408698Y-86506190D01*
X47414165Y-86504334D01*
X47473093Y-86471333D01*
X47559256Y-86423079D01*
X47591276Y-86405147D01*
X47606495Y-86392490D01*
X47742913Y-86279031D01*
X47747345Y-86275345D01*
X47858658Y-86141507D01*
X47873453Y-86123718D01*
X47873455Y-86123715D01*
X47877147Y-86119276D01*
X47976334Y-85942165D01*
X47978190Y-85936698D01*
X47978192Y-85936693D01*
X48039728Y-85755414D01*
X48039729Y-85755409D01*
X48041584Y-85749945D01*
X48042412Y-85744236D01*
X48042413Y-85744231D01*
X48065581Y-85584439D01*
X48070712Y-85549053D01*
X48072232Y-85491000D01*
X48069564Y-85461964D01*
X48394148Y-85461964D01*
X48407424Y-85664522D01*
X48408845Y-85670118D01*
X48408846Y-85670123D01*
X48442535Y-85802769D01*
X48457392Y-85861269D01*
X48459809Y-85866512D01*
X48497010Y-85947208D01*
X48542377Y-86045616D01*
X48545710Y-86050332D01*
X48610146Y-86141507D01*
X48659533Y-86211389D01*
X48804938Y-86353035D01*
X48809742Y-86356245D01*
X48863980Y-86392486D01*
X48973720Y-86465812D01*
X48979023Y-86468090D01*
X48979026Y-86468092D01*
X49132404Y-86533988D01*
X49160228Y-86545942D01*
X49223690Y-86560302D01*
X49352579Y-86589467D01*
X49352584Y-86589468D01*
X49358216Y-86590742D01*
X49363987Y-86590969D01*
X49363989Y-86590969D01*
X49421841Y-86593242D01*
X49561053Y-86598712D01*
X49661499Y-86584148D01*
X49756231Y-86570413D01*
X49756236Y-86570412D01*
X49761945Y-86569584D01*
X49767409Y-86567729D01*
X49767414Y-86567728D01*
X49948693Y-86506192D01*
X49948698Y-86506190D01*
X49954165Y-86504334D01*
X50013093Y-86471333D01*
X50099256Y-86423079D01*
X50131276Y-86405147D01*
X50146495Y-86392490D01*
X50282913Y-86279031D01*
X50287345Y-86275345D01*
X50398658Y-86141507D01*
X50413453Y-86123718D01*
X50413455Y-86123715D01*
X50417147Y-86119276D01*
X50516334Y-85942165D01*
X50518190Y-85936698D01*
X50518192Y-85936693D01*
X50579728Y-85755414D01*
X50579729Y-85755409D01*
X50581584Y-85749945D01*
X50582412Y-85744236D01*
X50582413Y-85744231D01*
X50605581Y-85584439D01*
X50610712Y-85549053D01*
X50612232Y-85491000D01*
X50609564Y-85461964D01*
X50934148Y-85461964D01*
X50947424Y-85664522D01*
X50948845Y-85670118D01*
X50948846Y-85670123D01*
X50982535Y-85802769D01*
X50997392Y-85861269D01*
X50999809Y-85866512D01*
X51037010Y-85947208D01*
X51082377Y-86045616D01*
X51085710Y-86050332D01*
X51150146Y-86141507D01*
X51199533Y-86211389D01*
X51344938Y-86353035D01*
X51349742Y-86356245D01*
X51403980Y-86392486D01*
X51513720Y-86465812D01*
X51519023Y-86468090D01*
X51519026Y-86468092D01*
X51672404Y-86533988D01*
X51700228Y-86545942D01*
X51763690Y-86560302D01*
X51892579Y-86589467D01*
X51892584Y-86589468D01*
X51898216Y-86590742D01*
X51903987Y-86590969D01*
X51903989Y-86590969D01*
X51961841Y-86593242D01*
X52101053Y-86598712D01*
X52201499Y-86584148D01*
X52296231Y-86570413D01*
X52296236Y-86570412D01*
X52301945Y-86569584D01*
X52307409Y-86567729D01*
X52307414Y-86567728D01*
X52488693Y-86506192D01*
X52488698Y-86506190D01*
X52494165Y-86504334D01*
X52553093Y-86471333D01*
X52639256Y-86423079D01*
X52671276Y-86405147D01*
X52686495Y-86392490D01*
X52822913Y-86279031D01*
X52827345Y-86275345D01*
X52938658Y-86141507D01*
X52953453Y-86123718D01*
X52953455Y-86123715D01*
X52957147Y-86119276D01*
X52959969Y-86114236D01*
X52959973Y-86114231D01*
X52989067Y-86062279D01*
X53039804Y-86012617D01*
X53109335Y-85998270D01*
X53175586Y-86023791D01*
X53217522Y-86081080D01*
X53225001Y-86123845D01*
X53225001Y-86385669D01*
X53225371Y-86392490D01*
X53230895Y-86443352D01*
X53234521Y-86458604D01*
X53279676Y-86579054D01*
X53288214Y-86594649D01*
X53364715Y-86696724D01*
X53377276Y-86709285D01*
X53479351Y-86785786D01*
X53494946Y-86794324D01*
X53615394Y-86839478D01*
X53630649Y-86843105D01*
X53681514Y-86848631D01*
X53688328Y-86849000D01*
X54310885Y-86849000D01*
X54326124Y-86844525D01*
X54327329Y-86843135D01*
X54329000Y-86835452D01*
X54329000Y-86830884D01*
X54837000Y-86830884D01*
X54841475Y-86846123D01*
X54842865Y-86847328D01*
X54850548Y-86848999D01*
X55477669Y-86848999D01*
X55484490Y-86848629D01*
X55535352Y-86843105D01*
X55550604Y-86839479D01*
X55671054Y-86794324D01*
X55686644Y-86785789D01*
X55777435Y-86717745D01*
X55843942Y-86692898D01*
X55913324Y-86707951D01*
X55928565Y-86717745D01*
X56019356Y-86785789D01*
X56034946Y-86794324D01*
X56155394Y-86839478D01*
X56170649Y-86843105D01*
X56221514Y-86848631D01*
X56228328Y-86849000D01*
X56850885Y-86849000D01*
X56866124Y-86844525D01*
X56867329Y-86843135D01*
X56869000Y-86835452D01*
X56869000Y-86830884D01*
X57377000Y-86830884D01*
X57381475Y-86846123D01*
X57382865Y-86847328D01*
X57390548Y-86848999D01*
X58017669Y-86848999D01*
X58024490Y-86848629D01*
X58075352Y-86843105D01*
X58090604Y-86839479D01*
X58211054Y-86794324D01*
X58226649Y-86785786D01*
X58328724Y-86709285D01*
X58341285Y-86696724D01*
X58417786Y-86594649D01*
X58426324Y-86579054D01*
X58471478Y-86458606D01*
X58475105Y-86443351D01*
X58480631Y-86392486D01*
X58481000Y-86385672D01*
X58481000Y-86128976D01*
X58501002Y-86060855D01*
X58554658Y-86014362D01*
X58624932Y-86004258D01*
X58689512Y-86033752D01*
X58709895Y-86056254D01*
X58819533Y-86211389D01*
X58964938Y-86353035D01*
X58969742Y-86356245D01*
X59023980Y-86392486D01*
X59133720Y-86465812D01*
X59139023Y-86468090D01*
X59139026Y-86468092D01*
X59292404Y-86533988D01*
X59320228Y-86545942D01*
X59383690Y-86560302D01*
X59512579Y-86589467D01*
X59512584Y-86589468D01*
X59518216Y-86590742D01*
X59523987Y-86590969D01*
X59523989Y-86590969D01*
X59581841Y-86593242D01*
X59721053Y-86598712D01*
X59821499Y-86584148D01*
X59916231Y-86570413D01*
X59916236Y-86570412D01*
X59921945Y-86569584D01*
X59927409Y-86567729D01*
X59927414Y-86567728D01*
X60108693Y-86506192D01*
X60108698Y-86506190D01*
X60114165Y-86504334D01*
X60173093Y-86471333D01*
X60259256Y-86423079D01*
X60291276Y-86405147D01*
X60306495Y-86392490D01*
X60442913Y-86279031D01*
X60447345Y-86275345D01*
X60558658Y-86141507D01*
X60573453Y-86123718D01*
X60573455Y-86123715D01*
X60577147Y-86119276D01*
X60676334Y-85942165D01*
X60678190Y-85936698D01*
X60678192Y-85936693D01*
X60739728Y-85755414D01*
X60739729Y-85755409D01*
X60741584Y-85749945D01*
X60742412Y-85744236D01*
X60742413Y-85744231D01*
X60765581Y-85584439D01*
X60770712Y-85549053D01*
X60772232Y-85491000D01*
X60769564Y-85461964D01*
X61094148Y-85461964D01*
X61107424Y-85664522D01*
X61108845Y-85670118D01*
X61108846Y-85670123D01*
X61142535Y-85802769D01*
X61157392Y-85861269D01*
X61159809Y-85866512D01*
X61197010Y-85947208D01*
X61242377Y-86045616D01*
X61245710Y-86050332D01*
X61310146Y-86141507D01*
X61359533Y-86211389D01*
X61504938Y-86353035D01*
X61509742Y-86356245D01*
X61563980Y-86392486D01*
X61673720Y-86465812D01*
X61679023Y-86468090D01*
X61679026Y-86468092D01*
X61832404Y-86533988D01*
X61860228Y-86545942D01*
X61923690Y-86560302D01*
X62052579Y-86589467D01*
X62052584Y-86589468D01*
X62058216Y-86590742D01*
X62063987Y-86590969D01*
X62063989Y-86590969D01*
X62121841Y-86593242D01*
X62261053Y-86598712D01*
X62361499Y-86584148D01*
X62456231Y-86570413D01*
X62456236Y-86570412D01*
X62461945Y-86569584D01*
X62467409Y-86567729D01*
X62467414Y-86567728D01*
X62648693Y-86506192D01*
X62648698Y-86506190D01*
X62654165Y-86504334D01*
X62713093Y-86471333D01*
X62799256Y-86423079D01*
X62831276Y-86405147D01*
X62846495Y-86392490D01*
X62982913Y-86279031D01*
X62987345Y-86275345D01*
X63098658Y-86141507D01*
X63113453Y-86123718D01*
X63113455Y-86123715D01*
X63117147Y-86119276D01*
X63216334Y-85942165D01*
X63218190Y-85936698D01*
X63218192Y-85936693D01*
X63279728Y-85755414D01*
X63279729Y-85755409D01*
X63281584Y-85749945D01*
X63282412Y-85744236D01*
X63282413Y-85744231D01*
X63305581Y-85584439D01*
X63310712Y-85549053D01*
X63312232Y-85491000D01*
X63309564Y-85461964D01*
X63634148Y-85461964D01*
X63647424Y-85664522D01*
X63648845Y-85670118D01*
X63648846Y-85670123D01*
X63682535Y-85802769D01*
X63697392Y-85861269D01*
X63699809Y-85866512D01*
X63737010Y-85947208D01*
X63782377Y-86045616D01*
X63785710Y-86050332D01*
X63850146Y-86141507D01*
X63899533Y-86211389D01*
X64044938Y-86353035D01*
X64049742Y-86356245D01*
X64103980Y-86392486D01*
X64213720Y-86465812D01*
X64219023Y-86468090D01*
X64219026Y-86468092D01*
X64372404Y-86533988D01*
X64400228Y-86545942D01*
X64463690Y-86560302D01*
X64592579Y-86589467D01*
X64592584Y-86589468D01*
X64598216Y-86590742D01*
X64603987Y-86590969D01*
X64603989Y-86590969D01*
X64661841Y-86593242D01*
X64801053Y-86598712D01*
X64901499Y-86584148D01*
X64996231Y-86570413D01*
X64996236Y-86570412D01*
X65001945Y-86569584D01*
X65007409Y-86567729D01*
X65007414Y-86567728D01*
X65188693Y-86506192D01*
X65188698Y-86506190D01*
X65194165Y-86504334D01*
X65253093Y-86471333D01*
X65339256Y-86423079D01*
X65371276Y-86405147D01*
X65386495Y-86392490D01*
X65522913Y-86279031D01*
X65527345Y-86275345D01*
X65638658Y-86141507D01*
X65653453Y-86123718D01*
X65653455Y-86123715D01*
X65657147Y-86119276D01*
X65756334Y-85942165D01*
X65758190Y-85936698D01*
X65758192Y-85936693D01*
X65819728Y-85755414D01*
X65819729Y-85755409D01*
X65821584Y-85749945D01*
X65822412Y-85744236D01*
X65822413Y-85744231D01*
X65845581Y-85584439D01*
X65850712Y-85549053D01*
X65852232Y-85491000D01*
X65833658Y-85288859D01*
X65832090Y-85283299D01*
X65780125Y-85099046D01*
X65780124Y-85099044D01*
X65778557Y-85093487D01*
X65767978Y-85072033D01*
X65691331Y-84916609D01*
X65688776Y-84911428D01*
X65567320Y-84748779D01*
X65418258Y-84610987D01*
X65413375Y-84607906D01*
X65413371Y-84607903D01*
X65251464Y-84505748D01*
X65246581Y-84502667D01*
X65058039Y-84427446D01*
X65052379Y-84426320D01*
X65052375Y-84426319D01*
X64864613Y-84388971D01*
X64864610Y-84388971D01*
X64858946Y-84387844D01*
X64853171Y-84387768D01*
X64853167Y-84387768D01*
X64751793Y-84386441D01*
X64655971Y-84385187D01*
X64650274Y-84386166D01*
X64650273Y-84386166D01*
X64552620Y-84402946D01*
X64455910Y-84419564D01*
X64265463Y-84489824D01*
X64091010Y-84593612D01*
X64086670Y-84597418D01*
X64086666Y-84597421D01*
X64066723Y-84614911D01*
X63938392Y-84727455D01*
X63812720Y-84886869D01*
X63810031Y-84891980D01*
X63810029Y-84891983D01*
X63798507Y-84913883D01*
X63718203Y-85066515D01*
X63658007Y-85260378D01*
X63634148Y-85461964D01*
X63309564Y-85461964D01*
X63293658Y-85288859D01*
X63292090Y-85283299D01*
X63240125Y-85099046D01*
X63240124Y-85099044D01*
X63238557Y-85093487D01*
X63227978Y-85072033D01*
X63151331Y-84916609D01*
X63148776Y-84911428D01*
X63027320Y-84748779D01*
X62878258Y-84610987D01*
X62873375Y-84607906D01*
X62873371Y-84607903D01*
X62711464Y-84505748D01*
X62706581Y-84502667D01*
X62518039Y-84427446D01*
X62512379Y-84426320D01*
X62512375Y-84426319D01*
X62324613Y-84388971D01*
X62324610Y-84388971D01*
X62318946Y-84387844D01*
X62313171Y-84387768D01*
X62313167Y-84387768D01*
X62211793Y-84386441D01*
X62115971Y-84385187D01*
X62110274Y-84386166D01*
X62110273Y-84386166D01*
X62012620Y-84402946D01*
X61915910Y-84419564D01*
X61725463Y-84489824D01*
X61551010Y-84593612D01*
X61546670Y-84597418D01*
X61546666Y-84597421D01*
X61526723Y-84614911D01*
X61398392Y-84727455D01*
X61272720Y-84886869D01*
X61270031Y-84891980D01*
X61270029Y-84891983D01*
X61258507Y-84913883D01*
X61178203Y-85066515D01*
X61118007Y-85260378D01*
X61094148Y-85461964D01*
X60769564Y-85461964D01*
X60753658Y-85288859D01*
X60752090Y-85283299D01*
X60700125Y-85099046D01*
X60700124Y-85099044D01*
X60698557Y-85093487D01*
X60687978Y-85072033D01*
X60611331Y-84916609D01*
X60608776Y-84911428D01*
X60487320Y-84748779D01*
X60338258Y-84610987D01*
X60333375Y-84607906D01*
X60333371Y-84607903D01*
X60171464Y-84505748D01*
X60166581Y-84502667D01*
X59978039Y-84427446D01*
X59972379Y-84426320D01*
X59972375Y-84426319D01*
X59784613Y-84388971D01*
X59784610Y-84388971D01*
X59778946Y-84387844D01*
X59773171Y-84387768D01*
X59773167Y-84387768D01*
X59671793Y-84386441D01*
X59575971Y-84385187D01*
X59570274Y-84386166D01*
X59570273Y-84386166D01*
X59472620Y-84402946D01*
X59375910Y-84419564D01*
X59185463Y-84489824D01*
X59011010Y-84593612D01*
X59006670Y-84597418D01*
X59006666Y-84597421D01*
X58986723Y-84614911D01*
X58858392Y-84727455D01*
X58732720Y-84886869D01*
X58730031Y-84891980D01*
X58730029Y-84891983D01*
X58718507Y-84913883D01*
X58669087Y-84964856D01*
X58599955Y-84981018D01*
X58533059Y-84957239D01*
X58489638Y-84901068D01*
X58480999Y-84855215D01*
X58480999Y-84596331D01*
X58480629Y-84589510D01*
X58475105Y-84538648D01*
X58471479Y-84523396D01*
X58426324Y-84402946D01*
X58417786Y-84387351D01*
X58341285Y-84285276D01*
X58328724Y-84272715D01*
X58226649Y-84196214D01*
X58211054Y-84187676D01*
X58090606Y-84142522D01*
X58075351Y-84138895D01*
X58024486Y-84133369D01*
X58017672Y-84133000D01*
X57395115Y-84133000D01*
X57379876Y-84137475D01*
X57378671Y-84138865D01*
X57377000Y-84146548D01*
X57377000Y-86830884D01*
X56869000Y-86830884D01*
X56869000Y-85763115D01*
X56864525Y-85747876D01*
X56863135Y-85746671D01*
X56855452Y-85745000D01*
X54855115Y-85745000D01*
X54839876Y-85749475D01*
X54838671Y-85750865D01*
X54837000Y-85758548D01*
X54837000Y-86830884D01*
X54329000Y-86830884D01*
X54329000Y-85218885D01*
X54837000Y-85218885D01*
X54841475Y-85234124D01*
X54842865Y-85235329D01*
X54850548Y-85237000D01*
X56850885Y-85237000D01*
X56866124Y-85232525D01*
X56867329Y-85231135D01*
X56869000Y-85223452D01*
X56869000Y-84151116D01*
X56864525Y-84135877D01*
X56863135Y-84134672D01*
X56855452Y-84133001D01*
X56228331Y-84133001D01*
X56221510Y-84133371D01*
X56170648Y-84138895D01*
X56155396Y-84142521D01*
X56034946Y-84187676D01*
X56019356Y-84196211D01*
X55928565Y-84264255D01*
X55862058Y-84289102D01*
X55792676Y-84274049D01*
X55777435Y-84264255D01*
X55686644Y-84196211D01*
X55671054Y-84187676D01*
X55550606Y-84142522D01*
X55535351Y-84138895D01*
X55484486Y-84133369D01*
X55477672Y-84133000D01*
X54855115Y-84133000D01*
X54839876Y-84137475D01*
X54838671Y-84138865D01*
X54837000Y-84146548D01*
X54837000Y-85218885D01*
X54329000Y-85218885D01*
X54329000Y-84151116D01*
X54324525Y-84135877D01*
X54323135Y-84134672D01*
X54315452Y-84133001D01*
X53688331Y-84133001D01*
X53681510Y-84133371D01*
X53630648Y-84138895D01*
X53615396Y-84142521D01*
X53494946Y-84187676D01*
X53479351Y-84196214D01*
X53377276Y-84272715D01*
X53364715Y-84285276D01*
X53288214Y-84387351D01*
X53279676Y-84402946D01*
X53234522Y-84523394D01*
X53230895Y-84538649D01*
X53225369Y-84589514D01*
X53225000Y-84596328D01*
X53225000Y-84851160D01*
X53204998Y-84919281D01*
X53151342Y-84965774D01*
X53081068Y-84975878D01*
X53016488Y-84946384D01*
X52991567Y-84916994D01*
X52991331Y-84916608D01*
X52988776Y-84911428D01*
X52867320Y-84748779D01*
X52718258Y-84610987D01*
X52713375Y-84607906D01*
X52713371Y-84607903D01*
X52551464Y-84505748D01*
X52546581Y-84502667D01*
X52358039Y-84427446D01*
X52352379Y-84426320D01*
X52352375Y-84426319D01*
X52164613Y-84388971D01*
X52164610Y-84388971D01*
X52158946Y-84387844D01*
X52153171Y-84387768D01*
X52153167Y-84387768D01*
X52051793Y-84386441D01*
X51955971Y-84385187D01*
X51950274Y-84386166D01*
X51950273Y-84386166D01*
X51852620Y-84402946D01*
X51755910Y-84419564D01*
X51565463Y-84489824D01*
X51391010Y-84593612D01*
X51386670Y-84597418D01*
X51386666Y-84597421D01*
X51366723Y-84614911D01*
X51238392Y-84727455D01*
X51112720Y-84886869D01*
X51110031Y-84891980D01*
X51110029Y-84891983D01*
X51098507Y-84913883D01*
X51018203Y-85066515D01*
X50958007Y-85260378D01*
X50934148Y-85461964D01*
X50609564Y-85461964D01*
X50593658Y-85288859D01*
X50592090Y-85283299D01*
X50540125Y-85099046D01*
X50540124Y-85099044D01*
X50538557Y-85093487D01*
X50527978Y-85072033D01*
X50451331Y-84916609D01*
X50448776Y-84911428D01*
X50327320Y-84748779D01*
X50178258Y-84610987D01*
X50173375Y-84607906D01*
X50173371Y-84607903D01*
X50011464Y-84505748D01*
X50006581Y-84502667D01*
X49818039Y-84427446D01*
X49812379Y-84426320D01*
X49812375Y-84426319D01*
X49624613Y-84388971D01*
X49624610Y-84388971D01*
X49618946Y-84387844D01*
X49613171Y-84387768D01*
X49613167Y-84387768D01*
X49511793Y-84386441D01*
X49415971Y-84385187D01*
X49410274Y-84386166D01*
X49410273Y-84386166D01*
X49312620Y-84402946D01*
X49215910Y-84419564D01*
X49025463Y-84489824D01*
X48851010Y-84593612D01*
X48846670Y-84597418D01*
X48846666Y-84597421D01*
X48826723Y-84614911D01*
X48698392Y-84727455D01*
X48572720Y-84886869D01*
X48570031Y-84891980D01*
X48570029Y-84891983D01*
X48558507Y-84913883D01*
X48478203Y-85066515D01*
X48418007Y-85260378D01*
X48394148Y-85461964D01*
X48069564Y-85461964D01*
X48053658Y-85288859D01*
X48052090Y-85283299D01*
X48000125Y-85099046D01*
X48000124Y-85099044D01*
X47998557Y-85093487D01*
X47987978Y-85072033D01*
X47911331Y-84916609D01*
X47908776Y-84911428D01*
X47787320Y-84748779D01*
X47638258Y-84610987D01*
X47633375Y-84607906D01*
X47633371Y-84607903D01*
X47471464Y-84505748D01*
X47466581Y-84502667D01*
X47278039Y-84427446D01*
X47272379Y-84426320D01*
X47272375Y-84426319D01*
X47084613Y-84388971D01*
X47084610Y-84388971D01*
X47078946Y-84387844D01*
X47073171Y-84387768D01*
X47073167Y-84387768D01*
X46971793Y-84386441D01*
X46875971Y-84385187D01*
X46870274Y-84386166D01*
X46870273Y-84386166D01*
X46772620Y-84402946D01*
X46675910Y-84419564D01*
X46485463Y-84489824D01*
X46311010Y-84593612D01*
X46306670Y-84597418D01*
X46306666Y-84597421D01*
X46286723Y-84614911D01*
X46158392Y-84727455D01*
X46032720Y-84886869D01*
X46030031Y-84891980D01*
X46030029Y-84891983D01*
X46018507Y-84913883D01*
X45938203Y-85066515D01*
X45878007Y-85260378D01*
X45854148Y-85461964D01*
X45529564Y-85461964D01*
X45513658Y-85288859D01*
X45512090Y-85283299D01*
X45460125Y-85099046D01*
X45460124Y-85099044D01*
X45458557Y-85093487D01*
X45447978Y-85072033D01*
X45371331Y-84916609D01*
X45368776Y-84911428D01*
X45247320Y-84748779D01*
X45098258Y-84610987D01*
X45093375Y-84607906D01*
X45093371Y-84607903D01*
X44931464Y-84505748D01*
X44926581Y-84502667D01*
X44738039Y-84427446D01*
X44732379Y-84426320D01*
X44732375Y-84426319D01*
X44544613Y-84388971D01*
X44544610Y-84388971D01*
X44538946Y-84387844D01*
X44533171Y-84387768D01*
X44533167Y-84387768D01*
X44431793Y-84386441D01*
X44335971Y-84385187D01*
X44330274Y-84386166D01*
X44330273Y-84386166D01*
X44232620Y-84402946D01*
X44135910Y-84419564D01*
X43945463Y-84489824D01*
X43771010Y-84593612D01*
X43766670Y-84597418D01*
X43766666Y-84597421D01*
X43746723Y-84614911D01*
X43618392Y-84727455D01*
X43492720Y-84886869D01*
X43490031Y-84891980D01*
X43490029Y-84891983D01*
X43478507Y-84913883D01*
X43398203Y-85066515D01*
X43338007Y-85260378D01*
X43314148Y-85461964D01*
X42989564Y-85461964D01*
X42973658Y-85288859D01*
X42972090Y-85283299D01*
X42920125Y-85099046D01*
X42920124Y-85099044D01*
X42918557Y-85093487D01*
X42907978Y-85072033D01*
X42831331Y-84916609D01*
X42828776Y-84911428D01*
X42707320Y-84748779D01*
X42558258Y-84610987D01*
X42553375Y-84607906D01*
X42553371Y-84607903D01*
X42391464Y-84505748D01*
X42386581Y-84502667D01*
X42198039Y-84427446D01*
X42192379Y-84426320D01*
X42192375Y-84426319D01*
X42004613Y-84388971D01*
X42004610Y-84388971D01*
X41998946Y-84387844D01*
X41993171Y-84387768D01*
X41993167Y-84387768D01*
X41891793Y-84386441D01*
X41795971Y-84385187D01*
X41790274Y-84386166D01*
X41790273Y-84386166D01*
X41692620Y-84402946D01*
X41595910Y-84419564D01*
X41405463Y-84489824D01*
X41231010Y-84593612D01*
X41226670Y-84597418D01*
X41226666Y-84597421D01*
X41206723Y-84614911D01*
X41078392Y-84727455D01*
X40952720Y-84886869D01*
X40950031Y-84891980D01*
X40950029Y-84891983D01*
X40938507Y-84913883D01*
X40858203Y-85066515D01*
X40798007Y-85260378D01*
X40774148Y-85461964D01*
X40449564Y-85461964D01*
X40433658Y-85288859D01*
X40432090Y-85283299D01*
X40380125Y-85099046D01*
X40380124Y-85099044D01*
X40378557Y-85093487D01*
X40367978Y-85072033D01*
X40291331Y-84916609D01*
X40288776Y-84911428D01*
X40167320Y-84748779D01*
X40018258Y-84610987D01*
X40013375Y-84607906D01*
X40013371Y-84607903D01*
X39851464Y-84505748D01*
X39846581Y-84502667D01*
X39658039Y-84427446D01*
X39652379Y-84426320D01*
X39652375Y-84426319D01*
X39464613Y-84388971D01*
X39464610Y-84388971D01*
X39458946Y-84387844D01*
X39453171Y-84387768D01*
X39453167Y-84387768D01*
X39351793Y-84386441D01*
X39255971Y-84385187D01*
X39250274Y-84386166D01*
X39250273Y-84386166D01*
X39152620Y-84402946D01*
X39055910Y-84419564D01*
X38865463Y-84489824D01*
X38691010Y-84593612D01*
X38686670Y-84597418D01*
X38686666Y-84597421D01*
X38666723Y-84614911D01*
X38538392Y-84727455D01*
X38412720Y-84886869D01*
X38410031Y-84891980D01*
X38410029Y-84891983D01*
X38398507Y-84913883D01*
X38318203Y-85066515D01*
X38258007Y-85260378D01*
X38234148Y-85461964D01*
X37909564Y-85461964D01*
X37893658Y-85288859D01*
X37892090Y-85283299D01*
X37840125Y-85099046D01*
X37840124Y-85099044D01*
X37838557Y-85093487D01*
X37827978Y-85072033D01*
X37751331Y-84916609D01*
X37748776Y-84911428D01*
X37627320Y-84748779D01*
X37478258Y-84610987D01*
X37473375Y-84607906D01*
X37473371Y-84607903D01*
X37311464Y-84505748D01*
X37306581Y-84502667D01*
X37118039Y-84427446D01*
X37112379Y-84426320D01*
X37112375Y-84426319D01*
X36924613Y-84388971D01*
X36924610Y-84388971D01*
X36918946Y-84387844D01*
X36913171Y-84387768D01*
X36913167Y-84387768D01*
X36811793Y-84386441D01*
X36715971Y-84385187D01*
X36710274Y-84386166D01*
X36710273Y-84386166D01*
X36612620Y-84402946D01*
X36515910Y-84419564D01*
X36325463Y-84489824D01*
X36151010Y-84593612D01*
X36146670Y-84597418D01*
X36146666Y-84597421D01*
X36126723Y-84614911D01*
X35998392Y-84727455D01*
X35872720Y-84886869D01*
X35870031Y-84891980D01*
X35870029Y-84891983D01*
X35858507Y-84913883D01*
X35778203Y-85066515D01*
X35718007Y-85260378D01*
X35694148Y-85461964D01*
X19939500Y-85461964D01*
X19939500Y-67055500D01*
X19959502Y-66987379D01*
X20013158Y-66940886D01*
X20065500Y-66929500D01*
X109855500Y-66929500D01*
X109923621Y-66949502D01*
G37*
%TD.AperFunction*%
%TD*%
M02*
