G04 #@! TF.GenerationSoftware,KiCad,Pcbnew,8.0.2*
G04 #@! TF.CreationDate,2024-05-08T12:07:27-04:00*
G04 #@! TF.ProjectId,SMS-to-GG,534d532d-746f-42d4-9747-2e6b69636164,4*
G04 #@! TF.SameCoordinates,Original*
G04 #@! TF.FileFunction,Soldermask,Top*
G04 #@! TF.FilePolarity,Negative*
%FSLAX46Y46*%
G04 Gerber Fmt 4.6, Leading zero omitted, Abs format (unit mm)*
G04 Created by KiCad (PCBNEW 8.0.2) date 2024-05-08 12:07:27*
%MOMM*%
%LPD*%
G01*
G04 APERTURE LIST*
G04 Aperture macros list*
%AMFreePoly0*
4,1,17,-0.910000,3.545000,-0.902068,3.629590,-0.857273,3.757607,-0.776734,3.866734,-0.667607,3.947273,-0.539590,3.992068,-0.455000,4.000000,0.455000,4.000000,0.539590,3.992068,0.667607,3.947273,0.776734,3.866734,0.857273,3.757607,0.902068,3.629590,0.910000,3.545000,0.910000,-4.000000,-0.910000,-4.000000,-0.910000,3.545000,-0.910000,3.545000,$1*%
%AMFreePoly1*
4,1,17,-0.910000,3.995000,-0.902068,4.079590,-0.857273,4.207607,-0.776734,4.316734,-0.667607,4.397273,-0.539590,4.442068,-0.455000,4.450000,0.455000,4.450000,0.539590,4.442068,0.667607,4.397273,0.776734,4.316734,0.857273,4.207607,0.902068,4.079590,0.910000,3.995000,0.910000,-4.450000,-0.910000,-4.450000,-0.910000,3.995000,-0.910000,3.995000,$1*%
G04 Aperture macros list end*
%ADD10R,0.300000X1.700000*%
%ADD11R,2.500000X2.800000*%
%ADD12FreePoly0,0.000000*%
%ADD13FreePoly1,0.000000*%
%ADD14C,3.700000*%
%ADD15C,1.700000*%
%ADD16O,1.700000X1.700000*%
%ADD17R,1.700000X1.700000*%
G04 APERTURE END LIST*
D10*
G04 #@! TO.C,J3*
X161620000Y-117570000D03*
X161120000Y-117570000D03*
X160620000Y-117570000D03*
X160120000Y-117570000D03*
X159620000Y-117570000D03*
X159120000Y-117570000D03*
X158620000Y-117570000D03*
X158120000Y-117570000D03*
X157620000Y-117570000D03*
X157120000Y-117570000D03*
X156620000Y-117570000D03*
X156120000Y-117570000D03*
X155620000Y-117570000D03*
X155120000Y-117570000D03*
X154620000Y-117570000D03*
X154120000Y-117570000D03*
X153620000Y-117570000D03*
X153120000Y-117570000D03*
X152620000Y-117570000D03*
X152120000Y-117570000D03*
X151620000Y-117570000D03*
X151120000Y-117570000D03*
X150620000Y-117570000D03*
X150120000Y-117570000D03*
X149620000Y-117570000D03*
X149120000Y-117570000D03*
X148620000Y-117570000D03*
X148120000Y-117570000D03*
X147620000Y-117570000D03*
X147120000Y-117570000D03*
X146620000Y-117570000D03*
X146120000Y-117570000D03*
X145620000Y-117570000D03*
X145120000Y-117570000D03*
X144620000Y-117570000D03*
X144120000Y-117570000D03*
X143620000Y-117570000D03*
X143120000Y-117570000D03*
X142620000Y-117570000D03*
X142120000Y-117570000D03*
X141620000Y-117570000D03*
X141120000Y-117570000D03*
X140620000Y-117570000D03*
X140120000Y-117570000D03*
X139620000Y-117570000D03*
D11*
X163870000Y-115120000D03*
X137370000Y-115120000D03*
G04 #@! TD*
D12*
G04 #@! TO.C,J1*
X120247000Y-133988000D03*
X122787000Y-133988000D03*
X125327000Y-133988000D03*
X127867000Y-133988000D03*
X130407000Y-133988000D03*
X132947000Y-133988000D03*
X135487000Y-133988000D03*
X138027000Y-133988000D03*
X140567000Y-133988000D03*
X143107000Y-133988000D03*
X145647000Y-133988000D03*
X148187000Y-133988000D03*
X150727000Y-133988000D03*
X153267000Y-133988000D03*
X155807000Y-133988000D03*
D13*
X158347000Y-134438000D03*
D12*
X160887000Y-133988000D03*
X163427000Y-133988000D03*
X165967000Y-133988000D03*
X168507000Y-133988000D03*
X171047000Y-133988000D03*
X173587000Y-133988000D03*
X176127000Y-133988000D03*
X178667000Y-133988000D03*
X181207000Y-133988000D03*
G04 #@! TD*
D14*
G04 #@! TO.C,J2*
X110020000Y-103302000D03*
X191046000Y-103302000D03*
D15*
X122720000Y-106290000D03*
X123990000Y-101170000D03*
D16*
X125260000Y-106290000D03*
X126530000Y-101170000D03*
X127800000Y-106290000D03*
X129070000Y-101170000D03*
X130340000Y-106290000D03*
X131610000Y-101170000D03*
X132880000Y-106290000D03*
X134150000Y-101170000D03*
X135420000Y-106290000D03*
X136690000Y-101170000D03*
X137960000Y-106290000D03*
X139230000Y-101170000D03*
X140500000Y-106290000D03*
D17*
X141770000Y-101170000D03*
X143040000Y-106290000D03*
X144310000Y-101170000D03*
D16*
X145580000Y-106290000D03*
X146850000Y-101170000D03*
X148120000Y-106290000D03*
X149390000Y-101170000D03*
X150660000Y-106290000D03*
X151930000Y-101170000D03*
X153200000Y-106290000D03*
X154470000Y-101170000D03*
X155740000Y-106290000D03*
X157010000Y-101170000D03*
X158280000Y-106290000D03*
X159550000Y-101170000D03*
X160820000Y-106290000D03*
X162090000Y-101170000D03*
X163360000Y-106290000D03*
X164630000Y-101170000D03*
X165900000Y-106290000D03*
X167170000Y-101170000D03*
X168440000Y-106290000D03*
X169710000Y-101170000D03*
X170980000Y-106290000D03*
X172250000Y-101170000D03*
D17*
X173520000Y-106290000D03*
D16*
X174790000Y-101170000D03*
X176060000Y-106290000D03*
X177330000Y-101170000D03*
X178600000Y-106290000D03*
G04 #@! TD*
M02*
