G04 #@! TF.GenerationSoftware,KiCad,Pcbnew,8.0.2*
G04 #@! TF.CreationDate,2024-05-08T12:07:27-04:00*
G04 #@! TF.ProjectId,SMS-to-GG,534d532d-746f-42d4-9747-2e6b69636164,4*
G04 #@! TF.SameCoordinates,Original*
G04 #@! TF.FileFunction,Other,User*
%FSLAX46Y46*%
G04 Gerber Fmt 4.6, Leading zero omitted, Abs format (unit mm)*
G04 Created by KiCad (PCBNEW 8.0.2) date 2024-05-08 12:07:27*
%MOMM*%
%LPD*%
G01*
G04 APERTURE LIST*
%ADD10C,0.062500*%
G04 APERTURE END LIST*
D10*
X164065244Y-126617107D02*
X164017625Y-126593297D01*
X164017625Y-126593297D02*
X163922387Y-126593297D01*
X163922387Y-126593297D02*
X163874768Y-126617107D01*
X163874768Y-126617107D02*
X163827149Y-126664726D01*
X163827149Y-126664726D02*
X163803339Y-126712345D01*
X163803339Y-126712345D02*
X163803339Y-126807583D01*
X163803339Y-126807583D02*
X163827149Y-126855202D01*
X163827149Y-126855202D02*
X163874768Y-126902821D01*
X163874768Y-126902821D02*
X163922387Y-126926630D01*
X163922387Y-126926630D02*
X164017625Y-126926630D01*
X164017625Y-126926630D02*
X164065244Y-126902821D01*
X163970006Y-126426630D02*
X163850958Y-126450440D01*
X163850958Y-126450440D02*
X163731911Y-126521869D01*
X163731911Y-126521869D02*
X163660482Y-126640916D01*
X163660482Y-126640916D02*
X163636673Y-126759964D01*
X163636673Y-126759964D02*
X163660482Y-126879011D01*
X163660482Y-126879011D02*
X163731911Y-126998059D01*
X163731911Y-126998059D02*
X163850958Y-127069488D01*
X163850958Y-127069488D02*
X163970006Y-127093297D01*
X163970006Y-127093297D02*
X164089054Y-127069488D01*
X164089054Y-127069488D02*
X164208101Y-126998059D01*
X164208101Y-126998059D02*
X164279530Y-126879011D01*
X164279530Y-126879011D02*
X164303339Y-126759964D01*
X164303339Y-126759964D02*
X164279530Y-126640916D01*
X164279530Y-126640916D02*
X164208101Y-126521869D01*
X164208101Y-126521869D02*
X164089054Y-126450440D01*
X164089054Y-126450440D02*
X163970006Y-126426630D01*
X164493816Y-126545678D02*
X164517625Y-126521869D01*
X164517625Y-126521869D02*
X164565244Y-126498059D01*
X164565244Y-126498059D02*
X164684292Y-126498059D01*
X164684292Y-126498059D02*
X164731911Y-126521869D01*
X164731911Y-126521869D02*
X164755720Y-126545678D01*
X164755720Y-126545678D02*
X164779530Y-126593297D01*
X164779530Y-126593297D02*
X164779530Y-126640916D01*
X164779530Y-126640916D02*
X164755720Y-126712345D01*
X164755720Y-126712345D02*
X164470006Y-126998059D01*
X164470006Y-126998059D02*
X164779530Y-126998059D01*
X165089053Y-126498059D02*
X165136672Y-126498059D01*
X165136672Y-126498059D02*
X165184291Y-126521869D01*
X165184291Y-126521869D02*
X165208101Y-126545678D01*
X165208101Y-126545678D02*
X165231910Y-126593297D01*
X165231910Y-126593297D02*
X165255720Y-126688535D01*
X165255720Y-126688535D02*
X165255720Y-126807583D01*
X165255720Y-126807583D02*
X165231910Y-126902821D01*
X165231910Y-126902821D02*
X165208101Y-126950440D01*
X165208101Y-126950440D02*
X165184291Y-126974250D01*
X165184291Y-126974250D02*
X165136672Y-126998059D01*
X165136672Y-126998059D02*
X165089053Y-126998059D01*
X165089053Y-126998059D02*
X165041434Y-126974250D01*
X165041434Y-126974250D02*
X165017625Y-126950440D01*
X165017625Y-126950440D02*
X164993815Y-126902821D01*
X164993815Y-126902821D02*
X164970006Y-126807583D01*
X164970006Y-126807583D02*
X164970006Y-126688535D01*
X164970006Y-126688535D02*
X164993815Y-126593297D01*
X164993815Y-126593297D02*
X165017625Y-126545678D01*
X165017625Y-126545678D02*
X165041434Y-126521869D01*
X165041434Y-126521869D02*
X165089053Y-126498059D01*
X165446196Y-126545678D02*
X165470005Y-126521869D01*
X165470005Y-126521869D02*
X165517624Y-126498059D01*
X165517624Y-126498059D02*
X165636672Y-126498059D01*
X165636672Y-126498059D02*
X165684291Y-126521869D01*
X165684291Y-126521869D02*
X165708100Y-126545678D01*
X165708100Y-126545678D02*
X165731910Y-126593297D01*
X165731910Y-126593297D02*
X165731910Y-126640916D01*
X165731910Y-126640916D02*
X165708100Y-126712345D01*
X165708100Y-126712345D02*
X165422386Y-126998059D01*
X165422386Y-126998059D02*
X165731910Y-126998059D01*
X166041433Y-126498059D02*
X166089052Y-126498059D01*
X166089052Y-126498059D02*
X166136671Y-126521869D01*
X166136671Y-126521869D02*
X166160481Y-126545678D01*
X166160481Y-126545678D02*
X166184290Y-126593297D01*
X166184290Y-126593297D02*
X166208100Y-126688535D01*
X166208100Y-126688535D02*
X166208100Y-126807583D01*
X166208100Y-126807583D02*
X166184290Y-126902821D01*
X166184290Y-126902821D02*
X166160481Y-126950440D01*
X166160481Y-126950440D02*
X166136671Y-126974250D01*
X166136671Y-126974250D02*
X166089052Y-126998059D01*
X166089052Y-126998059D02*
X166041433Y-126998059D01*
X166041433Y-126998059D02*
X165993814Y-126974250D01*
X165993814Y-126974250D02*
X165970005Y-126950440D01*
X165970005Y-126950440D02*
X165946195Y-126902821D01*
X165946195Y-126902821D02*
X165922386Y-126807583D01*
X165922386Y-126807583D02*
X165922386Y-126688535D01*
X165922386Y-126688535D02*
X165946195Y-126593297D01*
X165946195Y-126593297D02*
X165970005Y-126545678D01*
X165970005Y-126545678D02*
X165993814Y-126521869D01*
X165993814Y-126521869D02*
X166041433Y-126498059D01*
X166422385Y-126807583D02*
X166803338Y-126807583D01*
X167017624Y-126545678D02*
X167041433Y-126521869D01*
X167041433Y-126521869D02*
X167089052Y-126498059D01*
X167089052Y-126498059D02*
X167208100Y-126498059D01*
X167208100Y-126498059D02*
X167255719Y-126521869D01*
X167255719Y-126521869D02*
X167279528Y-126545678D01*
X167279528Y-126545678D02*
X167303338Y-126593297D01*
X167303338Y-126593297D02*
X167303338Y-126640916D01*
X167303338Y-126640916D02*
X167279528Y-126712345D01*
X167279528Y-126712345D02*
X166993814Y-126998059D01*
X166993814Y-126998059D02*
X167303338Y-126998059D01*
X167612861Y-126498059D02*
X167660480Y-126498059D01*
X167660480Y-126498059D02*
X167708099Y-126521869D01*
X167708099Y-126521869D02*
X167731909Y-126545678D01*
X167731909Y-126545678D02*
X167755718Y-126593297D01*
X167755718Y-126593297D02*
X167779528Y-126688535D01*
X167779528Y-126688535D02*
X167779528Y-126807583D01*
X167779528Y-126807583D02*
X167755718Y-126902821D01*
X167755718Y-126902821D02*
X167731909Y-126950440D01*
X167731909Y-126950440D02*
X167708099Y-126974250D01*
X167708099Y-126974250D02*
X167660480Y-126998059D01*
X167660480Y-126998059D02*
X167612861Y-126998059D01*
X167612861Y-126998059D02*
X167565242Y-126974250D01*
X167565242Y-126974250D02*
X167541433Y-126950440D01*
X167541433Y-126950440D02*
X167517623Y-126902821D01*
X167517623Y-126902821D02*
X167493814Y-126807583D01*
X167493814Y-126807583D02*
X167493814Y-126688535D01*
X167493814Y-126688535D02*
X167517623Y-126593297D01*
X167517623Y-126593297D02*
X167541433Y-126545678D01*
X167541433Y-126545678D02*
X167565242Y-126521869D01*
X167565242Y-126521869D02*
X167612861Y-126498059D01*
X167970004Y-126545678D02*
X167993813Y-126521869D01*
X167993813Y-126521869D02*
X168041432Y-126498059D01*
X168041432Y-126498059D02*
X168160480Y-126498059D01*
X168160480Y-126498059D02*
X168208099Y-126521869D01*
X168208099Y-126521869D02*
X168231908Y-126545678D01*
X168231908Y-126545678D02*
X168255718Y-126593297D01*
X168255718Y-126593297D02*
X168255718Y-126640916D01*
X168255718Y-126640916D02*
X168231908Y-126712345D01*
X168231908Y-126712345D02*
X167946194Y-126998059D01*
X167946194Y-126998059D02*
X168255718Y-126998059D01*
X168684289Y-126664726D02*
X168684289Y-126998059D01*
X168565241Y-126474250D02*
X168446194Y-126831392D01*
X168446194Y-126831392D02*
X168755717Y-126831392D01*
X169612859Y-126998059D02*
X169446193Y-126759964D01*
X169327145Y-126998059D02*
X169327145Y-126498059D01*
X169327145Y-126498059D02*
X169517621Y-126498059D01*
X169517621Y-126498059D02*
X169565240Y-126521869D01*
X169565240Y-126521869D02*
X169589050Y-126545678D01*
X169589050Y-126545678D02*
X169612859Y-126593297D01*
X169612859Y-126593297D02*
X169612859Y-126664726D01*
X169612859Y-126664726D02*
X169589050Y-126712345D01*
X169589050Y-126712345D02*
X169565240Y-126736154D01*
X169565240Y-126736154D02*
X169517621Y-126759964D01*
X169517621Y-126759964D02*
X169327145Y-126759964D01*
X170017621Y-126974250D02*
X169970002Y-126998059D01*
X169970002Y-126998059D02*
X169874764Y-126998059D01*
X169874764Y-126998059D02*
X169827145Y-126974250D01*
X169827145Y-126974250D02*
X169803336Y-126926630D01*
X169803336Y-126926630D02*
X169803336Y-126736154D01*
X169803336Y-126736154D02*
X169827145Y-126688535D01*
X169827145Y-126688535D02*
X169874764Y-126664726D01*
X169874764Y-126664726D02*
X169970002Y-126664726D01*
X169970002Y-126664726D02*
X170017621Y-126688535D01*
X170017621Y-126688535D02*
X170041431Y-126736154D01*
X170041431Y-126736154D02*
X170041431Y-126783773D01*
X170041431Y-126783773D02*
X169803336Y-126831392D01*
X170255716Y-126998059D02*
X170255716Y-126664726D01*
X170255716Y-126712345D02*
X170279526Y-126688535D01*
X170279526Y-126688535D02*
X170327145Y-126664726D01*
X170327145Y-126664726D02*
X170398573Y-126664726D01*
X170398573Y-126664726D02*
X170446192Y-126688535D01*
X170446192Y-126688535D02*
X170470002Y-126736154D01*
X170470002Y-126736154D02*
X170470002Y-126998059D01*
X170470002Y-126736154D02*
X170493811Y-126688535D01*
X170493811Y-126688535D02*
X170541430Y-126664726D01*
X170541430Y-126664726D02*
X170612859Y-126664726D01*
X170612859Y-126664726D02*
X170660478Y-126688535D01*
X170660478Y-126688535D02*
X170684288Y-126736154D01*
X170684288Y-126736154D02*
X170684288Y-126998059D01*
X170874764Y-126664726D02*
X170993812Y-126998059D01*
X171112859Y-126664726D02*
X170993812Y-126998059D01*
X170993812Y-126998059D02*
X170946193Y-127117107D01*
X170946193Y-127117107D02*
X170922383Y-127140916D01*
X170922383Y-127140916D02*
X170874764Y-127164726D01*
X171660478Y-126974250D02*
X171731906Y-126998059D01*
X171731906Y-126998059D02*
X171850954Y-126998059D01*
X171850954Y-126998059D02*
X171898573Y-126974250D01*
X171898573Y-126974250D02*
X171922382Y-126950440D01*
X171922382Y-126950440D02*
X171946192Y-126902821D01*
X171946192Y-126902821D02*
X171946192Y-126855202D01*
X171946192Y-126855202D02*
X171922382Y-126807583D01*
X171922382Y-126807583D02*
X171898573Y-126783773D01*
X171898573Y-126783773D02*
X171850954Y-126759964D01*
X171850954Y-126759964D02*
X171755716Y-126736154D01*
X171755716Y-126736154D02*
X171708097Y-126712345D01*
X171708097Y-126712345D02*
X171684287Y-126688535D01*
X171684287Y-126688535D02*
X171660478Y-126640916D01*
X171660478Y-126640916D02*
X171660478Y-126593297D01*
X171660478Y-126593297D02*
X171684287Y-126545678D01*
X171684287Y-126545678D02*
X171708097Y-126521869D01*
X171708097Y-126521869D02*
X171755716Y-126498059D01*
X171755716Y-126498059D02*
X171874763Y-126498059D01*
X171874763Y-126498059D02*
X171946192Y-126521869D01*
X172089049Y-126664726D02*
X172279525Y-126664726D01*
X172160477Y-126498059D02*
X172160477Y-126926630D01*
X172160477Y-126926630D02*
X172184287Y-126974250D01*
X172184287Y-126974250D02*
X172231906Y-126998059D01*
X172231906Y-126998059D02*
X172279525Y-126998059D01*
X172660477Y-126998059D02*
X172660477Y-126736154D01*
X172660477Y-126736154D02*
X172636667Y-126688535D01*
X172636667Y-126688535D02*
X172589048Y-126664726D01*
X172589048Y-126664726D02*
X172493810Y-126664726D01*
X172493810Y-126664726D02*
X172446191Y-126688535D01*
X172660477Y-126974250D02*
X172612858Y-126998059D01*
X172612858Y-126998059D02*
X172493810Y-126998059D01*
X172493810Y-126998059D02*
X172446191Y-126974250D01*
X172446191Y-126974250D02*
X172422382Y-126926630D01*
X172422382Y-126926630D02*
X172422382Y-126879011D01*
X172422382Y-126879011D02*
X172446191Y-126831392D01*
X172446191Y-126831392D02*
X172493810Y-126807583D01*
X172493810Y-126807583D02*
X172612858Y-126807583D01*
X172612858Y-126807583D02*
X172660477Y-126783773D01*
X172898572Y-126998059D02*
X172898572Y-126664726D01*
X172898572Y-126759964D02*
X172922382Y-126712345D01*
X172922382Y-126712345D02*
X172946191Y-126688535D01*
X172946191Y-126688535D02*
X172993810Y-126664726D01*
X172993810Y-126664726D02*
X173041429Y-126664726D01*
X173184287Y-126974250D02*
X173231906Y-126998059D01*
X173231906Y-126998059D02*
X173327144Y-126998059D01*
X173327144Y-126998059D02*
X173374763Y-126974250D01*
X173374763Y-126974250D02*
X173398572Y-126926630D01*
X173398572Y-126926630D02*
X173398572Y-126902821D01*
X173398572Y-126902821D02*
X173374763Y-126855202D01*
X173374763Y-126855202D02*
X173327144Y-126831392D01*
X173327144Y-126831392D02*
X173255715Y-126831392D01*
X173255715Y-126831392D02*
X173208096Y-126807583D01*
X173208096Y-126807583D02*
X173184287Y-126759964D01*
X173184287Y-126759964D02*
X173184287Y-126736154D01*
X173184287Y-126736154D02*
X173208096Y-126688535D01*
X173208096Y-126688535D02*
X173255715Y-126664726D01*
X173255715Y-126664726D02*
X173327144Y-126664726D01*
X173327144Y-126664726D02*
X173374763Y-126688535D01*
X173612858Y-126998059D02*
X173612858Y-126498059D01*
X173827144Y-126998059D02*
X173827144Y-126736154D01*
X173827144Y-126736154D02*
X173803334Y-126688535D01*
X173803334Y-126688535D02*
X173755715Y-126664726D01*
X173755715Y-126664726D02*
X173684287Y-126664726D01*
X173684287Y-126664726D02*
X173636668Y-126688535D01*
X173636668Y-126688535D02*
X173612858Y-126712345D01*
X174279525Y-126998059D02*
X174279525Y-126736154D01*
X174279525Y-126736154D02*
X174255715Y-126688535D01*
X174255715Y-126688535D02*
X174208096Y-126664726D01*
X174208096Y-126664726D02*
X174112858Y-126664726D01*
X174112858Y-126664726D02*
X174065239Y-126688535D01*
X174279525Y-126974250D02*
X174231906Y-126998059D01*
X174231906Y-126998059D02*
X174112858Y-126998059D01*
X174112858Y-126998059D02*
X174065239Y-126974250D01*
X174065239Y-126974250D02*
X174041430Y-126926630D01*
X174041430Y-126926630D02*
X174041430Y-126879011D01*
X174041430Y-126879011D02*
X174065239Y-126831392D01*
X174065239Y-126831392D02*
X174112858Y-126807583D01*
X174112858Y-126807583D02*
X174231906Y-126807583D01*
X174231906Y-126807583D02*
X174279525Y-126783773D01*
X174731906Y-126998059D02*
X174731906Y-126498059D01*
X174731906Y-126974250D02*
X174684287Y-126998059D01*
X174684287Y-126998059D02*
X174589049Y-126998059D01*
X174589049Y-126998059D02*
X174541430Y-126974250D01*
X174541430Y-126974250D02*
X174517620Y-126950440D01*
X174517620Y-126950440D02*
X174493811Y-126902821D01*
X174493811Y-126902821D02*
X174493811Y-126759964D01*
X174493811Y-126759964D02*
X174517620Y-126712345D01*
X174517620Y-126712345D02*
X174541430Y-126688535D01*
X174541430Y-126688535D02*
X174589049Y-126664726D01*
X174589049Y-126664726D02*
X174684287Y-126664726D01*
X174684287Y-126664726D02*
X174731906Y-126688535D01*
X175160477Y-126974250D02*
X175112858Y-126998059D01*
X175112858Y-126998059D02*
X175017620Y-126998059D01*
X175017620Y-126998059D02*
X174970001Y-126974250D01*
X174970001Y-126974250D02*
X174946192Y-126926630D01*
X174946192Y-126926630D02*
X174946192Y-126736154D01*
X174946192Y-126736154D02*
X174970001Y-126688535D01*
X174970001Y-126688535D02*
X175017620Y-126664726D01*
X175017620Y-126664726D02*
X175112858Y-126664726D01*
X175112858Y-126664726D02*
X175160477Y-126688535D01*
X175160477Y-126688535D02*
X175184287Y-126736154D01*
X175184287Y-126736154D02*
X175184287Y-126783773D01*
X175184287Y-126783773D02*
X174946192Y-126831392D01*
X175398572Y-126950440D02*
X175422382Y-126974250D01*
X175422382Y-126974250D02*
X175398572Y-126998059D01*
X175398572Y-126998059D02*
X175374763Y-126974250D01*
X175374763Y-126974250D02*
X175398572Y-126950440D01*
X175398572Y-126950440D02*
X175398572Y-126998059D01*
X175993810Y-126855202D02*
X176231905Y-126855202D01*
X175946191Y-126998059D02*
X176112857Y-126498059D01*
X176112857Y-126498059D02*
X176279524Y-126998059D01*
X176517619Y-126998059D02*
X176470000Y-126974250D01*
X176470000Y-126974250D02*
X176446190Y-126926630D01*
X176446190Y-126926630D02*
X176446190Y-126498059D01*
X176779524Y-126998059D02*
X176731905Y-126974250D01*
X176731905Y-126974250D02*
X176708095Y-126926630D01*
X176708095Y-126926630D02*
X176708095Y-126498059D01*
X177350952Y-126998059D02*
X177350952Y-126664726D01*
X177350952Y-126759964D02*
X177374762Y-126712345D01*
X177374762Y-126712345D02*
X177398571Y-126688535D01*
X177398571Y-126688535D02*
X177446190Y-126664726D01*
X177446190Y-126664726D02*
X177493809Y-126664726D01*
X177660476Y-126998059D02*
X177660476Y-126664726D01*
X177660476Y-126498059D02*
X177636667Y-126521869D01*
X177636667Y-126521869D02*
X177660476Y-126545678D01*
X177660476Y-126545678D02*
X177684286Y-126521869D01*
X177684286Y-126521869D02*
X177660476Y-126498059D01*
X177660476Y-126498059D02*
X177660476Y-126545678D01*
X178112857Y-126664726D02*
X178112857Y-127069488D01*
X178112857Y-127069488D02*
X178089047Y-127117107D01*
X178089047Y-127117107D02*
X178065238Y-127140916D01*
X178065238Y-127140916D02*
X178017619Y-127164726D01*
X178017619Y-127164726D02*
X177946190Y-127164726D01*
X177946190Y-127164726D02*
X177898571Y-127140916D01*
X178112857Y-126974250D02*
X178065238Y-126998059D01*
X178065238Y-126998059D02*
X177970000Y-126998059D01*
X177970000Y-126998059D02*
X177922381Y-126974250D01*
X177922381Y-126974250D02*
X177898571Y-126950440D01*
X177898571Y-126950440D02*
X177874762Y-126902821D01*
X177874762Y-126902821D02*
X177874762Y-126759964D01*
X177874762Y-126759964D02*
X177898571Y-126712345D01*
X177898571Y-126712345D02*
X177922381Y-126688535D01*
X177922381Y-126688535D02*
X177970000Y-126664726D01*
X177970000Y-126664726D02*
X178065238Y-126664726D01*
X178065238Y-126664726D02*
X178112857Y-126688535D01*
X178350952Y-126998059D02*
X178350952Y-126498059D01*
X178565238Y-126998059D02*
X178565238Y-126736154D01*
X178565238Y-126736154D02*
X178541428Y-126688535D01*
X178541428Y-126688535D02*
X178493809Y-126664726D01*
X178493809Y-126664726D02*
X178422381Y-126664726D01*
X178422381Y-126664726D02*
X178374762Y-126688535D01*
X178374762Y-126688535D02*
X178350952Y-126712345D01*
X178731905Y-126664726D02*
X178922381Y-126664726D01*
X178803333Y-126498059D02*
X178803333Y-126926630D01*
X178803333Y-126926630D02*
X178827143Y-126974250D01*
X178827143Y-126974250D02*
X178874762Y-126998059D01*
X178874762Y-126998059D02*
X178922381Y-126998059D01*
X179065238Y-126974250D02*
X179112857Y-126998059D01*
X179112857Y-126998059D02*
X179208095Y-126998059D01*
X179208095Y-126998059D02*
X179255714Y-126974250D01*
X179255714Y-126974250D02*
X179279523Y-126926630D01*
X179279523Y-126926630D02*
X179279523Y-126902821D01*
X179279523Y-126902821D02*
X179255714Y-126855202D01*
X179255714Y-126855202D02*
X179208095Y-126831392D01*
X179208095Y-126831392D02*
X179136666Y-126831392D01*
X179136666Y-126831392D02*
X179089047Y-126807583D01*
X179089047Y-126807583D02*
X179065238Y-126759964D01*
X179065238Y-126759964D02*
X179065238Y-126736154D01*
X179065238Y-126736154D02*
X179089047Y-126688535D01*
X179089047Y-126688535D02*
X179136666Y-126664726D01*
X179136666Y-126664726D02*
X179208095Y-126664726D01*
X179208095Y-126664726D02*
X179255714Y-126688535D01*
X179874761Y-126998059D02*
X179874761Y-126664726D01*
X179874761Y-126759964D02*
X179898571Y-126712345D01*
X179898571Y-126712345D02*
X179922380Y-126688535D01*
X179922380Y-126688535D02*
X179969999Y-126664726D01*
X179969999Y-126664726D02*
X180017618Y-126664726D01*
X180374761Y-126974250D02*
X180327142Y-126998059D01*
X180327142Y-126998059D02*
X180231904Y-126998059D01*
X180231904Y-126998059D02*
X180184285Y-126974250D01*
X180184285Y-126974250D02*
X180160476Y-126926630D01*
X180160476Y-126926630D02*
X180160476Y-126736154D01*
X180160476Y-126736154D02*
X180184285Y-126688535D01*
X180184285Y-126688535D02*
X180231904Y-126664726D01*
X180231904Y-126664726D02*
X180327142Y-126664726D01*
X180327142Y-126664726D02*
X180374761Y-126688535D01*
X180374761Y-126688535D02*
X180398571Y-126736154D01*
X180398571Y-126736154D02*
X180398571Y-126783773D01*
X180398571Y-126783773D02*
X180160476Y-126831392D01*
X180589047Y-126974250D02*
X180636666Y-126998059D01*
X180636666Y-126998059D02*
X180731904Y-126998059D01*
X180731904Y-126998059D02*
X180779523Y-126974250D01*
X180779523Y-126974250D02*
X180803332Y-126926630D01*
X180803332Y-126926630D02*
X180803332Y-126902821D01*
X180803332Y-126902821D02*
X180779523Y-126855202D01*
X180779523Y-126855202D02*
X180731904Y-126831392D01*
X180731904Y-126831392D02*
X180660475Y-126831392D01*
X180660475Y-126831392D02*
X180612856Y-126807583D01*
X180612856Y-126807583D02*
X180589047Y-126759964D01*
X180589047Y-126759964D02*
X180589047Y-126736154D01*
X180589047Y-126736154D02*
X180612856Y-126688535D01*
X180612856Y-126688535D02*
X180660475Y-126664726D01*
X180660475Y-126664726D02*
X180731904Y-126664726D01*
X180731904Y-126664726D02*
X180779523Y-126688535D01*
X181208094Y-126974250D02*
X181160475Y-126998059D01*
X181160475Y-126998059D02*
X181065237Y-126998059D01*
X181065237Y-126998059D02*
X181017618Y-126974250D01*
X181017618Y-126974250D02*
X180993809Y-126926630D01*
X180993809Y-126926630D02*
X180993809Y-126736154D01*
X180993809Y-126736154D02*
X181017618Y-126688535D01*
X181017618Y-126688535D02*
X181065237Y-126664726D01*
X181065237Y-126664726D02*
X181160475Y-126664726D01*
X181160475Y-126664726D02*
X181208094Y-126688535D01*
X181208094Y-126688535D02*
X181231904Y-126736154D01*
X181231904Y-126736154D02*
X181231904Y-126783773D01*
X181231904Y-126783773D02*
X180993809Y-126831392D01*
X181446189Y-126998059D02*
X181446189Y-126664726D01*
X181446189Y-126759964D02*
X181469999Y-126712345D01*
X181469999Y-126712345D02*
X181493808Y-126688535D01*
X181493808Y-126688535D02*
X181541427Y-126664726D01*
X181541427Y-126664726D02*
X181589046Y-126664726D01*
X181708094Y-126664726D02*
X181827142Y-126998059D01*
X181827142Y-126998059D02*
X181946189Y-126664726D01*
X182327141Y-126974250D02*
X182279522Y-126998059D01*
X182279522Y-126998059D02*
X182184284Y-126998059D01*
X182184284Y-126998059D02*
X182136665Y-126974250D01*
X182136665Y-126974250D02*
X182112856Y-126926630D01*
X182112856Y-126926630D02*
X182112856Y-126736154D01*
X182112856Y-126736154D02*
X182136665Y-126688535D01*
X182136665Y-126688535D02*
X182184284Y-126664726D01*
X182184284Y-126664726D02*
X182279522Y-126664726D01*
X182279522Y-126664726D02*
X182327141Y-126688535D01*
X182327141Y-126688535D02*
X182350951Y-126736154D01*
X182350951Y-126736154D02*
X182350951Y-126783773D01*
X182350951Y-126783773D02*
X182112856Y-126831392D01*
X182779522Y-126998059D02*
X182779522Y-126498059D01*
X182779522Y-126974250D02*
X182731903Y-126998059D01*
X182731903Y-126998059D02*
X182636665Y-126998059D01*
X182636665Y-126998059D02*
X182589046Y-126974250D01*
X182589046Y-126974250D02*
X182565236Y-126950440D01*
X182565236Y-126950440D02*
X182541427Y-126902821D01*
X182541427Y-126902821D02*
X182541427Y-126759964D01*
X182541427Y-126759964D02*
X182565236Y-126712345D01*
X182565236Y-126712345D02*
X182589046Y-126688535D01*
X182589046Y-126688535D02*
X182636665Y-126664726D01*
X182636665Y-126664726D02*
X182731903Y-126664726D01*
X182731903Y-126664726D02*
X182779522Y-126688535D01*
X183017617Y-126950440D02*
X183041427Y-126974250D01*
X183041427Y-126974250D02*
X183017617Y-126998059D01*
X183017617Y-126998059D02*
X182993808Y-126974250D01*
X182993808Y-126974250D02*
X183017617Y-126950440D01*
X183017617Y-126950440D02*
X183017617Y-126998059D01*
X183636664Y-126498059D02*
X183636664Y-126902821D01*
X183636664Y-126902821D02*
X183660474Y-126950440D01*
X183660474Y-126950440D02*
X183684283Y-126974250D01*
X183684283Y-126974250D02*
X183731902Y-126998059D01*
X183731902Y-126998059D02*
X183827140Y-126998059D01*
X183827140Y-126998059D02*
X183874759Y-126974250D01*
X183874759Y-126974250D02*
X183898569Y-126950440D01*
X183898569Y-126950440D02*
X183922378Y-126902821D01*
X183922378Y-126902821D02*
X183922378Y-126498059D01*
X184136665Y-126974250D02*
X184184284Y-126998059D01*
X184184284Y-126998059D02*
X184279522Y-126998059D01*
X184279522Y-126998059D02*
X184327141Y-126974250D01*
X184327141Y-126974250D02*
X184350950Y-126926630D01*
X184350950Y-126926630D02*
X184350950Y-126902821D01*
X184350950Y-126902821D02*
X184327141Y-126855202D01*
X184327141Y-126855202D02*
X184279522Y-126831392D01*
X184279522Y-126831392D02*
X184208093Y-126831392D01*
X184208093Y-126831392D02*
X184160474Y-126807583D01*
X184160474Y-126807583D02*
X184136665Y-126759964D01*
X184136665Y-126759964D02*
X184136665Y-126736154D01*
X184136665Y-126736154D02*
X184160474Y-126688535D01*
X184160474Y-126688535D02*
X184208093Y-126664726D01*
X184208093Y-126664726D02*
X184279522Y-126664726D01*
X184279522Y-126664726D02*
X184327141Y-126688535D01*
X184755712Y-126974250D02*
X184708093Y-126998059D01*
X184708093Y-126998059D02*
X184612855Y-126998059D01*
X184612855Y-126998059D02*
X184565236Y-126974250D01*
X184565236Y-126974250D02*
X184541427Y-126926630D01*
X184541427Y-126926630D02*
X184541427Y-126736154D01*
X184541427Y-126736154D02*
X184565236Y-126688535D01*
X184565236Y-126688535D02*
X184612855Y-126664726D01*
X184612855Y-126664726D02*
X184708093Y-126664726D01*
X184708093Y-126664726D02*
X184755712Y-126688535D01*
X184755712Y-126688535D02*
X184779522Y-126736154D01*
X184779522Y-126736154D02*
X184779522Y-126783773D01*
X184779522Y-126783773D02*
X184541427Y-126831392D01*
X185446188Y-126998059D02*
X185398569Y-126974250D01*
X185398569Y-126974250D02*
X185374759Y-126950440D01*
X185374759Y-126950440D02*
X185350950Y-126902821D01*
X185350950Y-126902821D02*
X185350950Y-126759964D01*
X185350950Y-126759964D02*
X185374759Y-126712345D01*
X185374759Y-126712345D02*
X185398569Y-126688535D01*
X185398569Y-126688535D02*
X185446188Y-126664726D01*
X185446188Y-126664726D02*
X185517616Y-126664726D01*
X185517616Y-126664726D02*
X185565235Y-126688535D01*
X185565235Y-126688535D02*
X185589045Y-126712345D01*
X185589045Y-126712345D02*
X185612854Y-126759964D01*
X185612854Y-126759964D02*
X185612854Y-126902821D01*
X185612854Y-126902821D02*
X185589045Y-126950440D01*
X185589045Y-126950440D02*
X185565235Y-126974250D01*
X185565235Y-126974250D02*
X185517616Y-126998059D01*
X185517616Y-126998059D02*
X185446188Y-126998059D01*
X185827140Y-126664726D02*
X185827140Y-126998059D01*
X185827140Y-126712345D02*
X185850950Y-126688535D01*
X185850950Y-126688535D02*
X185898569Y-126664726D01*
X185898569Y-126664726D02*
X185969997Y-126664726D01*
X185969997Y-126664726D02*
X186017616Y-126688535D01*
X186017616Y-126688535D02*
X186041426Y-126736154D01*
X186041426Y-126736154D02*
X186041426Y-126998059D01*
X186874759Y-126974250D02*
X186827140Y-126998059D01*
X186827140Y-126998059D02*
X186731902Y-126998059D01*
X186731902Y-126998059D02*
X186684283Y-126974250D01*
X186684283Y-126974250D02*
X186660473Y-126950440D01*
X186660473Y-126950440D02*
X186636664Y-126902821D01*
X186636664Y-126902821D02*
X186636664Y-126759964D01*
X186636664Y-126759964D02*
X186660473Y-126712345D01*
X186660473Y-126712345D02*
X186684283Y-126688535D01*
X186684283Y-126688535D02*
X186731902Y-126664726D01*
X186731902Y-126664726D02*
X186827140Y-126664726D01*
X186827140Y-126664726D02*
X186874759Y-126688535D01*
X187160473Y-126998059D02*
X187112854Y-126974250D01*
X187112854Y-126974250D02*
X187089044Y-126950440D01*
X187089044Y-126950440D02*
X187065235Y-126902821D01*
X187065235Y-126902821D02*
X187065235Y-126759964D01*
X187065235Y-126759964D02*
X187089044Y-126712345D01*
X187089044Y-126712345D02*
X187112854Y-126688535D01*
X187112854Y-126688535D02*
X187160473Y-126664726D01*
X187160473Y-126664726D02*
X187231901Y-126664726D01*
X187231901Y-126664726D02*
X187279520Y-126688535D01*
X187279520Y-126688535D02*
X187303330Y-126712345D01*
X187303330Y-126712345D02*
X187327139Y-126759964D01*
X187327139Y-126759964D02*
X187327139Y-126902821D01*
X187327139Y-126902821D02*
X187303330Y-126950440D01*
X187303330Y-126950440D02*
X187279520Y-126974250D01*
X187279520Y-126974250D02*
X187231901Y-126998059D01*
X187231901Y-126998059D02*
X187160473Y-126998059D01*
X187541425Y-126998059D02*
X187541425Y-126664726D01*
X187541425Y-126712345D02*
X187565235Y-126688535D01*
X187565235Y-126688535D02*
X187612854Y-126664726D01*
X187612854Y-126664726D02*
X187684282Y-126664726D01*
X187684282Y-126664726D02*
X187731901Y-126688535D01*
X187731901Y-126688535D02*
X187755711Y-126736154D01*
X187755711Y-126736154D02*
X187755711Y-126998059D01*
X187755711Y-126736154D02*
X187779520Y-126688535D01*
X187779520Y-126688535D02*
X187827139Y-126664726D01*
X187827139Y-126664726D02*
X187898568Y-126664726D01*
X187898568Y-126664726D02*
X187946187Y-126688535D01*
X187946187Y-126688535D02*
X187969997Y-126736154D01*
X187969997Y-126736154D02*
X187969997Y-126998059D01*
X188208092Y-126998059D02*
X188208092Y-126664726D01*
X188208092Y-126712345D02*
X188231902Y-126688535D01*
X188231902Y-126688535D02*
X188279521Y-126664726D01*
X188279521Y-126664726D02*
X188350949Y-126664726D01*
X188350949Y-126664726D02*
X188398568Y-126688535D01*
X188398568Y-126688535D02*
X188422378Y-126736154D01*
X188422378Y-126736154D02*
X188422378Y-126998059D01*
X188422378Y-126736154D02*
X188446187Y-126688535D01*
X188446187Y-126688535D02*
X188493806Y-126664726D01*
X188493806Y-126664726D02*
X188565235Y-126664726D01*
X188565235Y-126664726D02*
X188612854Y-126688535D01*
X188612854Y-126688535D02*
X188636664Y-126736154D01*
X188636664Y-126736154D02*
X188636664Y-126998059D01*
X189065235Y-126974250D02*
X189017616Y-126998059D01*
X189017616Y-126998059D02*
X188922378Y-126998059D01*
X188922378Y-126998059D02*
X188874759Y-126974250D01*
X188874759Y-126974250D02*
X188850950Y-126926630D01*
X188850950Y-126926630D02*
X188850950Y-126736154D01*
X188850950Y-126736154D02*
X188874759Y-126688535D01*
X188874759Y-126688535D02*
X188922378Y-126664726D01*
X188922378Y-126664726D02*
X189017616Y-126664726D01*
X189017616Y-126664726D02*
X189065235Y-126688535D01*
X189065235Y-126688535D02*
X189089045Y-126736154D01*
X189089045Y-126736154D02*
X189089045Y-126783773D01*
X189089045Y-126783773D02*
X188850950Y-126831392D01*
X189303330Y-126998059D02*
X189303330Y-126664726D01*
X189303330Y-126759964D02*
X189327140Y-126712345D01*
X189327140Y-126712345D02*
X189350949Y-126688535D01*
X189350949Y-126688535D02*
X189398568Y-126664726D01*
X189398568Y-126664726D02*
X189446187Y-126664726D01*
X189827140Y-126974250D02*
X189779521Y-126998059D01*
X189779521Y-126998059D02*
X189684283Y-126998059D01*
X189684283Y-126998059D02*
X189636664Y-126974250D01*
X189636664Y-126974250D02*
X189612854Y-126950440D01*
X189612854Y-126950440D02*
X189589045Y-126902821D01*
X189589045Y-126902821D02*
X189589045Y-126759964D01*
X189589045Y-126759964D02*
X189612854Y-126712345D01*
X189612854Y-126712345D02*
X189636664Y-126688535D01*
X189636664Y-126688535D02*
X189684283Y-126664726D01*
X189684283Y-126664726D02*
X189779521Y-126664726D01*
X189779521Y-126664726D02*
X189827140Y-126688535D01*
X190041425Y-126998059D02*
X190041425Y-126664726D01*
X190041425Y-126498059D02*
X190017616Y-126521869D01*
X190017616Y-126521869D02*
X190041425Y-126545678D01*
X190041425Y-126545678D02*
X190065235Y-126521869D01*
X190065235Y-126521869D02*
X190041425Y-126498059D01*
X190041425Y-126498059D02*
X190041425Y-126545678D01*
X190493806Y-126998059D02*
X190493806Y-126736154D01*
X190493806Y-126736154D02*
X190469996Y-126688535D01*
X190469996Y-126688535D02*
X190422377Y-126664726D01*
X190422377Y-126664726D02*
X190327139Y-126664726D01*
X190327139Y-126664726D02*
X190279520Y-126688535D01*
X190493806Y-126974250D02*
X190446187Y-126998059D01*
X190446187Y-126998059D02*
X190327139Y-126998059D01*
X190327139Y-126998059D02*
X190279520Y-126974250D01*
X190279520Y-126974250D02*
X190255711Y-126926630D01*
X190255711Y-126926630D02*
X190255711Y-126879011D01*
X190255711Y-126879011D02*
X190279520Y-126831392D01*
X190279520Y-126831392D02*
X190327139Y-126807583D01*
X190327139Y-126807583D02*
X190446187Y-126807583D01*
X190446187Y-126807583D02*
X190493806Y-126783773D01*
X190803330Y-126998059D02*
X190755711Y-126974250D01*
X190755711Y-126974250D02*
X190731901Y-126926630D01*
X190731901Y-126926630D02*
X190731901Y-126498059D01*
X191374758Y-126664726D02*
X191374758Y-127164726D01*
X191374758Y-126688535D02*
X191422377Y-126664726D01*
X191422377Y-126664726D02*
X191517615Y-126664726D01*
X191517615Y-126664726D02*
X191565234Y-126688535D01*
X191565234Y-126688535D02*
X191589044Y-126712345D01*
X191589044Y-126712345D02*
X191612853Y-126759964D01*
X191612853Y-126759964D02*
X191612853Y-126902821D01*
X191612853Y-126902821D02*
X191589044Y-126950440D01*
X191589044Y-126950440D02*
X191565234Y-126974250D01*
X191565234Y-126974250D02*
X191517615Y-126998059D01*
X191517615Y-126998059D02*
X191422377Y-126998059D01*
X191422377Y-126998059D02*
X191374758Y-126974250D01*
X191827139Y-126998059D02*
X191827139Y-126664726D01*
X191827139Y-126759964D02*
X191850949Y-126712345D01*
X191850949Y-126712345D02*
X191874758Y-126688535D01*
X191874758Y-126688535D02*
X191922377Y-126664726D01*
X191922377Y-126664726D02*
X191969996Y-126664726D01*
X192208092Y-126998059D02*
X192160473Y-126974250D01*
X192160473Y-126974250D02*
X192136663Y-126950440D01*
X192136663Y-126950440D02*
X192112854Y-126902821D01*
X192112854Y-126902821D02*
X192112854Y-126759964D01*
X192112854Y-126759964D02*
X192136663Y-126712345D01*
X192136663Y-126712345D02*
X192160473Y-126688535D01*
X192160473Y-126688535D02*
X192208092Y-126664726D01*
X192208092Y-126664726D02*
X192279520Y-126664726D01*
X192279520Y-126664726D02*
X192327139Y-126688535D01*
X192327139Y-126688535D02*
X192350949Y-126712345D01*
X192350949Y-126712345D02*
X192374758Y-126759964D01*
X192374758Y-126759964D02*
X192374758Y-126902821D01*
X192374758Y-126902821D02*
X192350949Y-126950440D01*
X192350949Y-126950440D02*
X192327139Y-126974250D01*
X192327139Y-126974250D02*
X192279520Y-126998059D01*
X192279520Y-126998059D02*
X192208092Y-126998059D01*
X192803330Y-126998059D02*
X192803330Y-126498059D01*
X192803330Y-126974250D02*
X192755711Y-126998059D01*
X192755711Y-126998059D02*
X192660473Y-126998059D01*
X192660473Y-126998059D02*
X192612854Y-126974250D01*
X192612854Y-126974250D02*
X192589044Y-126950440D01*
X192589044Y-126950440D02*
X192565235Y-126902821D01*
X192565235Y-126902821D02*
X192565235Y-126759964D01*
X192565235Y-126759964D02*
X192589044Y-126712345D01*
X192589044Y-126712345D02*
X192612854Y-126688535D01*
X192612854Y-126688535D02*
X192660473Y-126664726D01*
X192660473Y-126664726D02*
X192755711Y-126664726D01*
X192755711Y-126664726D02*
X192803330Y-126688535D01*
X193255711Y-126664726D02*
X193255711Y-126998059D01*
X193041425Y-126664726D02*
X193041425Y-126926630D01*
X193041425Y-126926630D02*
X193065235Y-126974250D01*
X193065235Y-126974250D02*
X193112854Y-126998059D01*
X193112854Y-126998059D02*
X193184282Y-126998059D01*
X193184282Y-126998059D02*
X193231901Y-126974250D01*
X193231901Y-126974250D02*
X193255711Y-126950440D01*
X193708092Y-126974250D02*
X193660473Y-126998059D01*
X193660473Y-126998059D02*
X193565235Y-126998059D01*
X193565235Y-126998059D02*
X193517616Y-126974250D01*
X193517616Y-126974250D02*
X193493806Y-126950440D01*
X193493806Y-126950440D02*
X193469997Y-126902821D01*
X193469997Y-126902821D02*
X193469997Y-126759964D01*
X193469997Y-126759964D02*
X193493806Y-126712345D01*
X193493806Y-126712345D02*
X193517616Y-126688535D01*
X193517616Y-126688535D02*
X193565235Y-126664726D01*
X193565235Y-126664726D02*
X193660473Y-126664726D01*
X193660473Y-126664726D02*
X193708092Y-126688535D01*
X193850949Y-126664726D02*
X194041425Y-126664726D01*
X193922377Y-126498059D02*
X193922377Y-126926630D01*
X193922377Y-126926630D02*
X193946187Y-126974250D01*
X193946187Y-126974250D02*
X193993806Y-126998059D01*
X193993806Y-126998059D02*
X194041425Y-126998059D01*
X194184282Y-126974250D02*
X194231901Y-126998059D01*
X194231901Y-126998059D02*
X194327139Y-126998059D01*
X194327139Y-126998059D02*
X194374758Y-126974250D01*
X194374758Y-126974250D02*
X194398567Y-126926630D01*
X194398567Y-126926630D02*
X194398567Y-126902821D01*
X194398567Y-126902821D02*
X194374758Y-126855202D01*
X194374758Y-126855202D02*
X194327139Y-126831392D01*
X194327139Y-126831392D02*
X194255710Y-126831392D01*
X194255710Y-126831392D02*
X194208091Y-126807583D01*
X194208091Y-126807583D02*
X194184282Y-126759964D01*
X194184282Y-126759964D02*
X194184282Y-126736154D01*
X194184282Y-126736154D02*
X194208091Y-126688535D01*
X194208091Y-126688535D02*
X194255710Y-126664726D01*
X194255710Y-126664726D02*
X194327139Y-126664726D01*
X194327139Y-126664726D02*
X194374758Y-126688535D01*
X194993805Y-126998059D02*
X194993805Y-126664726D01*
X194993805Y-126498059D02*
X194969996Y-126521869D01*
X194969996Y-126521869D02*
X194993805Y-126545678D01*
X194993805Y-126545678D02*
X195017615Y-126521869D01*
X195017615Y-126521869D02*
X194993805Y-126498059D01*
X194993805Y-126498059D02*
X194993805Y-126545678D01*
X195208091Y-126974250D02*
X195255710Y-126998059D01*
X195255710Y-126998059D02*
X195350948Y-126998059D01*
X195350948Y-126998059D02*
X195398567Y-126974250D01*
X195398567Y-126974250D02*
X195422376Y-126926630D01*
X195422376Y-126926630D02*
X195422376Y-126902821D01*
X195422376Y-126902821D02*
X195398567Y-126855202D01*
X195398567Y-126855202D02*
X195350948Y-126831392D01*
X195350948Y-126831392D02*
X195279519Y-126831392D01*
X195279519Y-126831392D02*
X195231900Y-126807583D01*
X195231900Y-126807583D02*
X195208091Y-126759964D01*
X195208091Y-126759964D02*
X195208091Y-126736154D01*
X195208091Y-126736154D02*
X195231900Y-126688535D01*
X195231900Y-126688535D02*
X195279519Y-126664726D01*
X195279519Y-126664726D02*
X195350948Y-126664726D01*
X195350948Y-126664726D02*
X195398567Y-126688535D01*
X196017614Y-126664726D02*
X196017614Y-127164726D01*
X196017614Y-126688535D02*
X196065233Y-126664726D01*
X196065233Y-126664726D02*
X196160471Y-126664726D01*
X196160471Y-126664726D02*
X196208090Y-126688535D01*
X196208090Y-126688535D02*
X196231900Y-126712345D01*
X196231900Y-126712345D02*
X196255709Y-126759964D01*
X196255709Y-126759964D02*
X196255709Y-126902821D01*
X196255709Y-126902821D02*
X196231900Y-126950440D01*
X196231900Y-126950440D02*
X196208090Y-126974250D01*
X196208090Y-126974250D02*
X196160471Y-126998059D01*
X196160471Y-126998059D02*
X196065233Y-126998059D01*
X196065233Y-126998059D02*
X196017614Y-126974250D01*
X196469995Y-126998059D02*
X196469995Y-126664726D01*
X196469995Y-126759964D02*
X196493805Y-126712345D01*
X196493805Y-126712345D02*
X196517614Y-126688535D01*
X196517614Y-126688535D02*
X196565233Y-126664726D01*
X196565233Y-126664726D02*
X196612852Y-126664726D01*
X196850948Y-126998059D02*
X196803329Y-126974250D01*
X196803329Y-126974250D02*
X196779519Y-126950440D01*
X196779519Y-126950440D02*
X196755710Y-126902821D01*
X196755710Y-126902821D02*
X196755710Y-126759964D01*
X196755710Y-126759964D02*
X196779519Y-126712345D01*
X196779519Y-126712345D02*
X196803329Y-126688535D01*
X196803329Y-126688535D02*
X196850948Y-126664726D01*
X196850948Y-126664726D02*
X196922376Y-126664726D01*
X196922376Y-126664726D02*
X196969995Y-126688535D01*
X196969995Y-126688535D02*
X196993805Y-126712345D01*
X196993805Y-126712345D02*
X197017614Y-126759964D01*
X197017614Y-126759964D02*
X197017614Y-126902821D01*
X197017614Y-126902821D02*
X196993805Y-126950440D01*
X196993805Y-126950440D02*
X196969995Y-126974250D01*
X196969995Y-126974250D02*
X196922376Y-126998059D01*
X196922376Y-126998059D02*
X196850948Y-126998059D01*
X197231900Y-126998059D02*
X197231900Y-126498059D01*
X197446186Y-126998059D02*
X197446186Y-126736154D01*
X197446186Y-126736154D02*
X197422376Y-126688535D01*
X197422376Y-126688535D02*
X197374757Y-126664726D01*
X197374757Y-126664726D02*
X197303329Y-126664726D01*
X197303329Y-126664726D02*
X197255710Y-126688535D01*
X197255710Y-126688535D02*
X197231900Y-126712345D01*
X197684281Y-126998059D02*
X197684281Y-126664726D01*
X197684281Y-126498059D02*
X197660472Y-126521869D01*
X197660472Y-126521869D02*
X197684281Y-126545678D01*
X197684281Y-126545678D02*
X197708091Y-126521869D01*
X197708091Y-126521869D02*
X197684281Y-126498059D01*
X197684281Y-126498059D02*
X197684281Y-126545678D01*
X197922376Y-126998059D02*
X197922376Y-126498059D01*
X197922376Y-126688535D02*
X197969995Y-126664726D01*
X197969995Y-126664726D02*
X198065233Y-126664726D01*
X198065233Y-126664726D02*
X198112852Y-126688535D01*
X198112852Y-126688535D02*
X198136662Y-126712345D01*
X198136662Y-126712345D02*
X198160471Y-126759964D01*
X198160471Y-126759964D02*
X198160471Y-126902821D01*
X198160471Y-126902821D02*
X198136662Y-126950440D01*
X198136662Y-126950440D02*
X198112852Y-126974250D01*
X198112852Y-126974250D02*
X198065233Y-126998059D01*
X198065233Y-126998059D02*
X197969995Y-126998059D01*
X197969995Y-126998059D02*
X197922376Y-126974250D01*
X198374757Y-126998059D02*
X198374757Y-126664726D01*
X198374757Y-126498059D02*
X198350948Y-126521869D01*
X198350948Y-126521869D02*
X198374757Y-126545678D01*
X198374757Y-126545678D02*
X198398567Y-126521869D01*
X198398567Y-126521869D02*
X198374757Y-126498059D01*
X198374757Y-126498059D02*
X198374757Y-126545678D01*
X198541424Y-126664726D02*
X198731900Y-126664726D01*
X198612852Y-126498059D02*
X198612852Y-126926630D01*
X198612852Y-126926630D02*
X198636662Y-126974250D01*
X198636662Y-126974250D02*
X198684281Y-126998059D01*
X198684281Y-126998059D02*
X198731900Y-126998059D01*
X199089042Y-126974250D02*
X199041423Y-126998059D01*
X199041423Y-126998059D02*
X198946185Y-126998059D01*
X198946185Y-126998059D02*
X198898566Y-126974250D01*
X198898566Y-126974250D02*
X198874757Y-126926630D01*
X198874757Y-126926630D02*
X198874757Y-126736154D01*
X198874757Y-126736154D02*
X198898566Y-126688535D01*
X198898566Y-126688535D02*
X198946185Y-126664726D01*
X198946185Y-126664726D02*
X199041423Y-126664726D01*
X199041423Y-126664726D02*
X199089042Y-126688535D01*
X199089042Y-126688535D02*
X199112852Y-126736154D01*
X199112852Y-126736154D02*
X199112852Y-126783773D01*
X199112852Y-126783773D02*
X198874757Y-126831392D01*
X199541423Y-126998059D02*
X199541423Y-126498059D01*
X199541423Y-126974250D02*
X199493804Y-126998059D01*
X199493804Y-126998059D02*
X199398566Y-126998059D01*
X199398566Y-126998059D02*
X199350947Y-126974250D01*
X199350947Y-126974250D02*
X199327137Y-126950440D01*
X199327137Y-126950440D02*
X199303328Y-126902821D01*
X199303328Y-126902821D02*
X199303328Y-126759964D01*
X199303328Y-126759964D02*
X199327137Y-126712345D01*
X199327137Y-126712345D02*
X199350947Y-126688535D01*
X199350947Y-126688535D02*
X199398566Y-126664726D01*
X199398566Y-126664726D02*
X199493804Y-126664726D01*
X199493804Y-126664726D02*
X199541423Y-126688535D01*
X199779518Y-126950440D02*
X199803328Y-126974250D01*
X199803328Y-126974250D02*
X199779518Y-126998059D01*
X199779518Y-126998059D02*
X199755709Y-126974250D01*
X199755709Y-126974250D02*
X199779518Y-126950440D01*
X199779518Y-126950440D02*
X199779518Y-126998059D01*
X132922505Y-98617107D02*
X132874886Y-98593297D01*
X132874886Y-98593297D02*
X132779648Y-98593297D01*
X132779648Y-98593297D02*
X132732029Y-98617107D01*
X132732029Y-98617107D02*
X132684410Y-98664726D01*
X132684410Y-98664726D02*
X132660600Y-98712345D01*
X132660600Y-98712345D02*
X132660600Y-98807583D01*
X132660600Y-98807583D02*
X132684410Y-98855202D01*
X132684410Y-98855202D02*
X132732029Y-98902821D01*
X132732029Y-98902821D02*
X132779648Y-98926630D01*
X132779648Y-98926630D02*
X132874886Y-98926630D01*
X132874886Y-98926630D02*
X132922505Y-98902821D01*
X132827267Y-98426630D02*
X132708219Y-98450440D01*
X132708219Y-98450440D02*
X132589172Y-98521869D01*
X132589172Y-98521869D02*
X132517743Y-98640916D01*
X132517743Y-98640916D02*
X132493934Y-98759964D01*
X132493934Y-98759964D02*
X132517743Y-98879011D01*
X132517743Y-98879011D02*
X132589172Y-98998059D01*
X132589172Y-98998059D02*
X132708219Y-99069488D01*
X132708219Y-99069488D02*
X132827267Y-99093297D01*
X132827267Y-99093297D02*
X132946315Y-99069488D01*
X132946315Y-99069488D02*
X133065362Y-98998059D01*
X133065362Y-98998059D02*
X133136791Y-98879011D01*
X133136791Y-98879011D02*
X133160600Y-98759964D01*
X133160600Y-98759964D02*
X133136791Y-98640916D01*
X133136791Y-98640916D02*
X133065362Y-98521869D01*
X133065362Y-98521869D02*
X132946315Y-98450440D01*
X132946315Y-98450440D02*
X132827267Y-98426630D01*
X133351077Y-98545678D02*
X133374886Y-98521869D01*
X133374886Y-98521869D02*
X133422505Y-98498059D01*
X133422505Y-98498059D02*
X133541553Y-98498059D01*
X133541553Y-98498059D02*
X133589172Y-98521869D01*
X133589172Y-98521869D02*
X133612981Y-98545678D01*
X133612981Y-98545678D02*
X133636791Y-98593297D01*
X133636791Y-98593297D02*
X133636791Y-98640916D01*
X133636791Y-98640916D02*
X133612981Y-98712345D01*
X133612981Y-98712345D02*
X133327267Y-98998059D01*
X133327267Y-98998059D02*
X133636791Y-98998059D01*
X133946314Y-98498059D02*
X133993933Y-98498059D01*
X133993933Y-98498059D02*
X134041552Y-98521869D01*
X134041552Y-98521869D02*
X134065362Y-98545678D01*
X134065362Y-98545678D02*
X134089171Y-98593297D01*
X134089171Y-98593297D02*
X134112981Y-98688535D01*
X134112981Y-98688535D02*
X134112981Y-98807583D01*
X134112981Y-98807583D02*
X134089171Y-98902821D01*
X134089171Y-98902821D02*
X134065362Y-98950440D01*
X134065362Y-98950440D02*
X134041552Y-98974250D01*
X134041552Y-98974250D02*
X133993933Y-98998059D01*
X133993933Y-98998059D02*
X133946314Y-98998059D01*
X133946314Y-98998059D02*
X133898695Y-98974250D01*
X133898695Y-98974250D02*
X133874886Y-98950440D01*
X133874886Y-98950440D02*
X133851076Y-98902821D01*
X133851076Y-98902821D02*
X133827267Y-98807583D01*
X133827267Y-98807583D02*
X133827267Y-98688535D01*
X133827267Y-98688535D02*
X133851076Y-98593297D01*
X133851076Y-98593297D02*
X133874886Y-98545678D01*
X133874886Y-98545678D02*
X133898695Y-98521869D01*
X133898695Y-98521869D02*
X133946314Y-98498059D01*
X134303457Y-98545678D02*
X134327266Y-98521869D01*
X134327266Y-98521869D02*
X134374885Y-98498059D01*
X134374885Y-98498059D02*
X134493933Y-98498059D01*
X134493933Y-98498059D02*
X134541552Y-98521869D01*
X134541552Y-98521869D02*
X134565361Y-98545678D01*
X134565361Y-98545678D02*
X134589171Y-98593297D01*
X134589171Y-98593297D02*
X134589171Y-98640916D01*
X134589171Y-98640916D02*
X134565361Y-98712345D01*
X134565361Y-98712345D02*
X134279647Y-98998059D01*
X134279647Y-98998059D02*
X134589171Y-98998059D01*
X134898694Y-98498059D02*
X134946313Y-98498059D01*
X134946313Y-98498059D02*
X134993932Y-98521869D01*
X134993932Y-98521869D02*
X135017742Y-98545678D01*
X135017742Y-98545678D02*
X135041551Y-98593297D01*
X135041551Y-98593297D02*
X135065361Y-98688535D01*
X135065361Y-98688535D02*
X135065361Y-98807583D01*
X135065361Y-98807583D02*
X135041551Y-98902821D01*
X135041551Y-98902821D02*
X135017742Y-98950440D01*
X135017742Y-98950440D02*
X134993932Y-98974250D01*
X134993932Y-98974250D02*
X134946313Y-98998059D01*
X134946313Y-98998059D02*
X134898694Y-98998059D01*
X134898694Y-98998059D02*
X134851075Y-98974250D01*
X134851075Y-98974250D02*
X134827266Y-98950440D01*
X134827266Y-98950440D02*
X134803456Y-98902821D01*
X134803456Y-98902821D02*
X134779647Y-98807583D01*
X134779647Y-98807583D02*
X134779647Y-98688535D01*
X134779647Y-98688535D02*
X134803456Y-98593297D01*
X134803456Y-98593297D02*
X134827266Y-98545678D01*
X134827266Y-98545678D02*
X134851075Y-98521869D01*
X134851075Y-98521869D02*
X134898694Y-98498059D01*
X135279646Y-98807583D02*
X135660599Y-98807583D01*
X135874885Y-98545678D02*
X135898694Y-98521869D01*
X135898694Y-98521869D02*
X135946313Y-98498059D01*
X135946313Y-98498059D02*
X136065361Y-98498059D01*
X136065361Y-98498059D02*
X136112980Y-98521869D01*
X136112980Y-98521869D02*
X136136789Y-98545678D01*
X136136789Y-98545678D02*
X136160599Y-98593297D01*
X136160599Y-98593297D02*
X136160599Y-98640916D01*
X136160599Y-98640916D02*
X136136789Y-98712345D01*
X136136789Y-98712345D02*
X135851075Y-98998059D01*
X135851075Y-98998059D02*
X136160599Y-98998059D01*
X136470122Y-98498059D02*
X136517741Y-98498059D01*
X136517741Y-98498059D02*
X136565360Y-98521869D01*
X136565360Y-98521869D02*
X136589170Y-98545678D01*
X136589170Y-98545678D02*
X136612979Y-98593297D01*
X136612979Y-98593297D02*
X136636789Y-98688535D01*
X136636789Y-98688535D02*
X136636789Y-98807583D01*
X136636789Y-98807583D02*
X136612979Y-98902821D01*
X136612979Y-98902821D02*
X136589170Y-98950440D01*
X136589170Y-98950440D02*
X136565360Y-98974250D01*
X136565360Y-98974250D02*
X136517741Y-98998059D01*
X136517741Y-98998059D02*
X136470122Y-98998059D01*
X136470122Y-98998059D02*
X136422503Y-98974250D01*
X136422503Y-98974250D02*
X136398694Y-98950440D01*
X136398694Y-98950440D02*
X136374884Y-98902821D01*
X136374884Y-98902821D02*
X136351075Y-98807583D01*
X136351075Y-98807583D02*
X136351075Y-98688535D01*
X136351075Y-98688535D02*
X136374884Y-98593297D01*
X136374884Y-98593297D02*
X136398694Y-98545678D01*
X136398694Y-98545678D02*
X136422503Y-98521869D01*
X136422503Y-98521869D02*
X136470122Y-98498059D01*
X136827265Y-98545678D02*
X136851074Y-98521869D01*
X136851074Y-98521869D02*
X136898693Y-98498059D01*
X136898693Y-98498059D02*
X137017741Y-98498059D01*
X137017741Y-98498059D02*
X137065360Y-98521869D01*
X137065360Y-98521869D02*
X137089169Y-98545678D01*
X137089169Y-98545678D02*
X137112979Y-98593297D01*
X137112979Y-98593297D02*
X137112979Y-98640916D01*
X137112979Y-98640916D02*
X137089169Y-98712345D01*
X137089169Y-98712345D02*
X136803455Y-98998059D01*
X136803455Y-98998059D02*
X137112979Y-98998059D01*
X137541550Y-98664726D02*
X137541550Y-98998059D01*
X137422502Y-98474250D02*
X137303455Y-98831392D01*
X137303455Y-98831392D02*
X137612978Y-98831392D01*
X138470120Y-98998059D02*
X138303454Y-98759964D01*
X138184406Y-98998059D02*
X138184406Y-98498059D01*
X138184406Y-98498059D02*
X138374882Y-98498059D01*
X138374882Y-98498059D02*
X138422501Y-98521869D01*
X138422501Y-98521869D02*
X138446311Y-98545678D01*
X138446311Y-98545678D02*
X138470120Y-98593297D01*
X138470120Y-98593297D02*
X138470120Y-98664726D01*
X138470120Y-98664726D02*
X138446311Y-98712345D01*
X138446311Y-98712345D02*
X138422501Y-98736154D01*
X138422501Y-98736154D02*
X138374882Y-98759964D01*
X138374882Y-98759964D02*
X138184406Y-98759964D01*
X138874882Y-98974250D02*
X138827263Y-98998059D01*
X138827263Y-98998059D02*
X138732025Y-98998059D01*
X138732025Y-98998059D02*
X138684406Y-98974250D01*
X138684406Y-98974250D02*
X138660597Y-98926630D01*
X138660597Y-98926630D02*
X138660597Y-98736154D01*
X138660597Y-98736154D02*
X138684406Y-98688535D01*
X138684406Y-98688535D02*
X138732025Y-98664726D01*
X138732025Y-98664726D02*
X138827263Y-98664726D01*
X138827263Y-98664726D02*
X138874882Y-98688535D01*
X138874882Y-98688535D02*
X138898692Y-98736154D01*
X138898692Y-98736154D02*
X138898692Y-98783773D01*
X138898692Y-98783773D02*
X138660597Y-98831392D01*
X139112977Y-98998059D02*
X139112977Y-98664726D01*
X139112977Y-98712345D02*
X139136787Y-98688535D01*
X139136787Y-98688535D02*
X139184406Y-98664726D01*
X139184406Y-98664726D02*
X139255834Y-98664726D01*
X139255834Y-98664726D02*
X139303453Y-98688535D01*
X139303453Y-98688535D02*
X139327263Y-98736154D01*
X139327263Y-98736154D02*
X139327263Y-98998059D01*
X139327263Y-98736154D02*
X139351072Y-98688535D01*
X139351072Y-98688535D02*
X139398691Y-98664726D01*
X139398691Y-98664726D02*
X139470120Y-98664726D01*
X139470120Y-98664726D02*
X139517739Y-98688535D01*
X139517739Y-98688535D02*
X139541549Y-98736154D01*
X139541549Y-98736154D02*
X139541549Y-98998059D01*
X139732025Y-98664726D02*
X139851073Y-98998059D01*
X139970120Y-98664726D02*
X139851073Y-98998059D01*
X139851073Y-98998059D02*
X139803454Y-99117107D01*
X139803454Y-99117107D02*
X139779644Y-99140916D01*
X139779644Y-99140916D02*
X139732025Y-99164726D01*
X140517739Y-98974250D02*
X140589167Y-98998059D01*
X140589167Y-98998059D02*
X140708215Y-98998059D01*
X140708215Y-98998059D02*
X140755834Y-98974250D01*
X140755834Y-98974250D02*
X140779643Y-98950440D01*
X140779643Y-98950440D02*
X140803453Y-98902821D01*
X140803453Y-98902821D02*
X140803453Y-98855202D01*
X140803453Y-98855202D02*
X140779643Y-98807583D01*
X140779643Y-98807583D02*
X140755834Y-98783773D01*
X140755834Y-98783773D02*
X140708215Y-98759964D01*
X140708215Y-98759964D02*
X140612977Y-98736154D01*
X140612977Y-98736154D02*
X140565358Y-98712345D01*
X140565358Y-98712345D02*
X140541548Y-98688535D01*
X140541548Y-98688535D02*
X140517739Y-98640916D01*
X140517739Y-98640916D02*
X140517739Y-98593297D01*
X140517739Y-98593297D02*
X140541548Y-98545678D01*
X140541548Y-98545678D02*
X140565358Y-98521869D01*
X140565358Y-98521869D02*
X140612977Y-98498059D01*
X140612977Y-98498059D02*
X140732024Y-98498059D01*
X140732024Y-98498059D02*
X140803453Y-98521869D01*
X140946310Y-98664726D02*
X141136786Y-98664726D01*
X141017738Y-98498059D02*
X141017738Y-98926630D01*
X141017738Y-98926630D02*
X141041548Y-98974250D01*
X141041548Y-98974250D02*
X141089167Y-98998059D01*
X141089167Y-98998059D02*
X141136786Y-98998059D01*
X141517738Y-98998059D02*
X141517738Y-98736154D01*
X141517738Y-98736154D02*
X141493928Y-98688535D01*
X141493928Y-98688535D02*
X141446309Y-98664726D01*
X141446309Y-98664726D02*
X141351071Y-98664726D01*
X141351071Y-98664726D02*
X141303452Y-98688535D01*
X141517738Y-98974250D02*
X141470119Y-98998059D01*
X141470119Y-98998059D02*
X141351071Y-98998059D01*
X141351071Y-98998059D02*
X141303452Y-98974250D01*
X141303452Y-98974250D02*
X141279643Y-98926630D01*
X141279643Y-98926630D02*
X141279643Y-98879011D01*
X141279643Y-98879011D02*
X141303452Y-98831392D01*
X141303452Y-98831392D02*
X141351071Y-98807583D01*
X141351071Y-98807583D02*
X141470119Y-98807583D01*
X141470119Y-98807583D02*
X141517738Y-98783773D01*
X141755833Y-98998059D02*
X141755833Y-98664726D01*
X141755833Y-98759964D02*
X141779643Y-98712345D01*
X141779643Y-98712345D02*
X141803452Y-98688535D01*
X141803452Y-98688535D02*
X141851071Y-98664726D01*
X141851071Y-98664726D02*
X141898690Y-98664726D01*
X142041548Y-98974250D02*
X142089167Y-98998059D01*
X142089167Y-98998059D02*
X142184405Y-98998059D01*
X142184405Y-98998059D02*
X142232024Y-98974250D01*
X142232024Y-98974250D02*
X142255833Y-98926630D01*
X142255833Y-98926630D02*
X142255833Y-98902821D01*
X142255833Y-98902821D02*
X142232024Y-98855202D01*
X142232024Y-98855202D02*
X142184405Y-98831392D01*
X142184405Y-98831392D02*
X142112976Y-98831392D01*
X142112976Y-98831392D02*
X142065357Y-98807583D01*
X142065357Y-98807583D02*
X142041548Y-98759964D01*
X142041548Y-98759964D02*
X142041548Y-98736154D01*
X142041548Y-98736154D02*
X142065357Y-98688535D01*
X142065357Y-98688535D02*
X142112976Y-98664726D01*
X142112976Y-98664726D02*
X142184405Y-98664726D01*
X142184405Y-98664726D02*
X142232024Y-98688535D01*
X142470119Y-98998059D02*
X142470119Y-98498059D01*
X142684405Y-98998059D02*
X142684405Y-98736154D01*
X142684405Y-98736154D02*
X142660595Y-98688535D01*
X142660595Y-98688535D02*
X142612976Y-98664726D01*
X142612976Y-98664726D02*
X142541548Y-98664726D01*
X142541548Y-98664726D02*
X142493929Y-98688535D01*
X142493929Y-98688535D02*
X142470119Y-98712345D01*
X143136786Y-98998059D02*
X143136786Y-98736154D01*
X143136786Y-98736154D02*
X143112976Y-98688535D01*
X143112976Y-98688535D02*
X143065357Y-98664726D01*
X143065357Y-98664726D02*
X142970119Y-98664726D01*
X142970119Y-98664726D02*
X142922500Y-98688535D01*
X143136786Y-98974250D02*
X143089167Y-98998059D01*
X143089167Y-98998059D02*
X142970119Y-98998059D01*
X142970119Y-98998059D02*
X142922500Y-98974250D01*
X142922500Y-98974250D02*
X142898691Y-98926630D01*
X142898691Y-98926630D02*
X142898691Y-98879011D01*
X142898691Y-98879011D02*
X142922500Y-98831392D01*
X142922500Y-98831392D02*
X142970119Y-98807583D01*
X142970119Y-98807583D02*
X143089167Y-98807583D01*
X143089167Y-98807583D02*
X143136786Y-98783773D01*
X143589167Y-98998059D02*
X143589167Y-98498059D01*
X143589167Y-98974250D02*
X143541548Y-98998059D01*
X143541548Y-98998059D02*
X143446310Y-98998059D01*
X143446310Y-98998059D02*
X143398691Y-98974250D01*
X143398691Y-98974250D02*
X143374881Y-98950440D01*
X143374881Y-98950440D02*
X143351072Y-98902821D01*
X143351072Y-98902821D02*
X143351072Y-98759964D01*
X143351072Y-98759964D02*
X143374881Y-98712345D01*
X143374881Y-98712345D02*
X143398691Y-98688535D01*
X143398691Y-98688535D02*
X143446310Y-98664726D01*
X143446310Y-98664726D02*
X143541548Y-98664726D01*
X143541548Y-98664726D02*
X143589167Y-98688535D01*
X144017738Y-98974250D02*
X143970119Y-98998059D01*
X143970119Y-98998059D02*
X143874881Y-98998059D01*
X143874881Y-98998059D02*
X143827262Y-98974250D01*
X143827262Y-98974250D02*
X143803453Y-98926630D01*
X143803453Y-98926630D02*
X143803453Y-98736154D01*
X143803453Y-98736154D02*
X143827262Y-98688535D01*
X143827262Y-98688535D02*
X143874881Y-98664726D01*
X143874881Y-98664726D02*
X143970119Y-98664726D01*
X143970119Y-98664726D02*
X144017738Y-98688535D01*
X144017738Y-98688535D02*
X144041548Y-98736154D01*
X144041548Y-98736154D02*
X144041548Y-98783773D01*
X144041548Y-98783773D02*
X143803453Y-98831392D01*
X144255833Y-98950440D02*
X144279643Y-98974250D01*
X144279643Y-98974250D02*
X144255833Y-98998059D01*
X144255833Y-98998059D02*
X144232024Y-98974250D01*
X144232024Y-98974250D02*
X144255833Y-98950440D01*
X144255833Y-98950440D02*
X144255833Y-98998059D01*
X144851071Y-98855202D02*
X145089166Y-98855202D01*
X144803452Y-98998059D02*
X144970118Y-98498059D01*
X144970118Y-98498059D02*
X145136785Y-98998059D01*
X145374880Y-98998059D02*
X145327261Y-98974250D01*
X145327261Y-98974250D02*
X145303451Y-98926630D01*
X145303451Y-98926630D02*
X145303451Y-98498059D01*
X145636785Y-98998059D02*
X145589166Y-98974250D01*
X145589166Y-98974250D02*
X145565356Y-98926630D01*
X145565356Y-98926630D02*
X145565356Y-98498059D01*
X146208213Y-98998059D02*
X146208213Y-98664726D01*
X146208213Y-98759964D02*
X146232023Y-98712345D01*
X146232023Y-98712345D02*
X146255832Y-98688535D01*
X146255832Y-98688535D02*
X146303451Y-98664726D01*
X146303451Y-98664726D02*
X146351070Y-98664726D01*
X146517737Y-98998059D02*
X146517737Y-98664726D01*
X146517737Y-98498059D02*
X146493928Y-98521869D01*
X146493928Y-98521869D02*
X146517737Y-98545678D01*
X146517737Y-98545678D02*
X146541547Y-98521869D01*
X146541547Y-98521869D02*
X146517737Y-98498059D01*
X146517737Y-98498059D02*
X146517737Y-98545678D01*
X146970118Y-98664726D02*
X146970118Y-99069488D01*
X146970118Y-99069488D02*
X146946308Y-99117107D01*
X146946308Y-99117107D02*
X146922499Y-99140916D01*
X146922499Y-99140916D02*
X146874880Y-99164726D01*
X146874880Y-99164726D02*
X146803451Y-99164726D01*
X146803451Y-99164726D02*
X146755832Y-99140916D01*
X146970118Y-98974250D02*
X146922499Y-98998059D01*
X146922499Y-98998059D02*
X146827261Y-98998059D01*
X146827261Y-98998059D02*
X146779642Y-98974250D01*
X146779642Y-98974250D02*
X146755832Y-98950440D01*
X146755832Y-98950440D02*
X146732023Y-98902821D01*
X146732023Y-98902821D02*
X146732023Y-98759964D01*
X146732023Y-98759964D02*
X146755832Y-98712345D01*
X146755832Y-98712345D02*
X146779642Y-98688535D01*
X146779642Y-98688535D02*
X146827261Y-98664726D01*
X146827261Y-98664726D02*
X146922499Y-98664726D01*
X146922499Y-98664726D02*
X146970118Y-98688535D01*
X147208213Y-98998059D02*
X147208213Y-98498059D01*
X147422499Y-98998059D02*
X147422499Y-98736154D01*
X147422499Y-98736154D02*
X147398689Y-98688535D01*
X147398689Y-98688535D02*
X147351070Y-98664726D01*
X147351070Y-98664726D02*
X147279642Y-98664726D01*
X147279642Y-98664726D02*
X147232023Y-98688535D01*
X147232023Y-98688535D02*
X147208213Y-98712345D01*
X147589166Y-98664726D02*
X147779642Y-98664726D01*
X147660594Y-98498059D02*
X147660594Y-98926630D01*
X147660594Y-98926630D02*
X147684404Y-98974250D01*
X147684404Y-98974250D02*
X147732023Y-98998059D01*
X147732023Y-98998059D02*
X147779642Y-98998059D01*
X147922499Y-98974250D02*
X147970118Y-98998059D01*
X147970118Y-98998059D02*
X148065356Y-98998059D01*
X148065356Y-98998059D02*
X148112975Y-98974250D01*
X148112975Y-98974250D02*
X148136784Y-98926630D01*
X148136784Y-98926630D02*
X148136784Y-98902821D01*
X148136784Y-98902821D02*
X148112975Y-98855202D01*
X148112975Y-98855202D02*
X148065356Y-98831392D01*
X148065356Y-98831392D02*
X147993927Y-98831392D01*
X147993927Y-98831392D02*
X147946308Y-98807583D01*
X147946308Y-98807583D02*
X147922499Y-98759964D01*
X147922499Y-98759964D02*
X147922499Y-98736154D01*
X147922499Y-98736154D02*
X147946308Y-98688535D01*
X147946308Y-98688535D02*
X147993927Y-98664726D01*
X147993927Y-98664726D02*
X148065356Y-98664726D01*
X148065356Y-98664726D02*
X148112975Y-98688535D01*
X148732022Y-98998059D02*
X148732022Y-98664726D01*
X148732022Y-98759964D02*
X148755832Y-98712345D01*
X148755832Y-98712345D02*
X148779641Y-98688535D01*
X148779641Y-98688535D02*
X148827260Y-98664726D01*
X148827260Y-98664726D02*
X148874879Y-98664726D01*
X149232022Y-98974250D02*
X149184403Y-98998059D01*
X149184403Y-98998059D02*
X149089165Y-98998059D01*
X149089165Y-98998059D02*
X149041546Y-98974250D01*
X149041546Y-98974250D02*
X149017737Y-98926630D01*
X149017737Y-98926630D02*
X149017737Y-98736154D01*
X149017737Y-98736154D02*
X149041546Y-98688535D01*
X149041546Y-98688535D02*
X149089165Y-98664726D01*
X149089165Y-98664726D02*
X149184403Y-98664726D01*
X149184403Y-98664726D02*
X149232022Y-98688535D01*
X149232022Y-98688535D02*
X149255832Y-98736154D01*
X149255832Y-98736154D02*
X149255832Y-98783773D01*
X149255832Y-98783773D02*
X149017737Y-98831392D01*
X149446308Y-98974250D02*
X149493927Y-98998059D01*
X149493927Y-98998059D02*
X149589165Y-98998059D01*
X149589165Y-98998059D02*
X149636784Y-98974250D01*
X149636784Y-98974250D02*
X149660593Y-98926630D01*
X149660593Y-98926630D02*
X149660593Y-98902821D01*
X149660593Y-98902821D02*
X149636784Y-98855202D01*
X149636784Y-98855202D02*
X149589165Y-98831392D01*
X149589165Y-98831392D02*
X149517736Y-98831392D01*
X149517736Y-98831392D02*
X149470117Y-98807583D01*
X149470117Y-98807583D02*
X149446308Y-98759964D01*
X149446308Y-98759964D02*
X149446308Y-98736154D01*
X149446308Y-98736154D02*
X149470117Y-98688535D01*
X149470117Y-98688535D02*
X149517736Y-98664726D01*
X149517736Y-98664726D02*
X149589165Y-98664726D01*
X149589165Y-98664726D02*
X149636784Y-98688535D01*
X150065355Y-98974250D02*
X150017736Y-98998059D01*
X150017736Y-98998059D02*
X149922498Y-98998059D01*
X149922498Y-98998059D02*
X149874879Y-98974250D01*
X149874879Y-98974250D02*
X149851070Y-98926630D01*
X149851070Y-98926630D02*
X149851070Y-98736154D01*
X149851070Y-98736154D02*
X149874879Y-98688535D01*
X149874879Y-98688535D02*
X149922498Y-98664726D01*
X149922498Y-98664726D02*
X150017736Y-98664726D01*
X150017736Y-98664726D02*
X150065355Y-98688535D01*
X150065355Y-98688535D02*
X150089165Y-98736154D01*
X150089165Y-98736154D02*
X150089165Y-98783773D01*
X150089165Y-98783773D02*
X149851070Y-98831392D01*
X150303450Y-98998059D02*
X150303450Y-98664726D01*
X150303450Y-98759964D02*
X150327260Y-98712345D01*
X150327260Y-98712345D02*
X150351069Y-98688535D01*
X150351069Y-98688535D02*
X150398688Y-98664726D01*
X150398688Y-98664726D02*
X150446307Y-98664726D01*
X150565355Y-98664726D02*
X150684403Y-98998059D01*
X150684403Y-98998059D02*
X150803450Y-98664726D01*
X151184402Y-98974250D02*
X151136783Y-98998059D01*
X151136783Y-98998059D02*
X151041545Y-98998059D01*
X151041545Y-98998059D02*
X150993926Y-98974250D01*
X150993926Y-98974250D02*
X150970117Y-98926630D01*
X150970117Y-98926630D02*
X150970117Y-98736154D01*
X150970117Y-98736154D02*
X150993926Y-98688535D01*
X150993926Y-98688535D02*
X151041545Y-98664726D01*
X151041545Y-98664726D02*
X151136783Y-98664726D01*
X151136783Y-98664726D02*
X151184402Y-98688535D01*
X151184402Y-98688535D02*
X151208212Y-98736154D01*
X151208212Y-98736154D02*
X151208212Y-98783773D01*
X151208212Y-98783773D02*
X150970117Y-98831392D01*
X151636783Y-98998059D02*
X151636783Y-98498059D01*
X151636783Y-98974250D02*
X151589164Y-98998059D01*
X151589164Y-98998059D02*
X151493926Y-98998059D01*
X151493926Y-98998059D02*
X151446307Y-98974250D01*
X151446307Y-98974250D02*
X151422497Y-98950440D01*
X151422497Y-98950440D02*
X151398688Y-98902821D01*
X151398688Y-98902821D02*
X151398688Y-98759964D01*
X151398688Y-98759964D02*
X151422497Y-98712345D01*
X151422497Y-98712345D02*
X151446307Y-98688535D01*
X151446307Y-98688535D02*
X151493926Y-98664726D01*
X151493926Y-98664726D02*
X151589164Y-98664726D01*
X151589164Y-98664726D02*
X151636783Y-98688535D01*
X151874878Y-98950440D02*
X151898688Y-98974250D01*
X151898688Y-98974250D02*
X151874878Y-98998059D01*
X151874878Y-98998059D02*
X151851069Y-98974250D01*
X151851069Y-98974250D02*
X151874878Y-98950440D01*
X151874878Y-98950440D02*
X151874878Y-98998059D01*
X152493925Y-98498059D02*
X152493925Y-98902821D01*
X152493925Y-98902821D02*
X152517735Y-98950440D01*
X152517735Y-98950440D02*
X152541544Y-98974250D01*
X152541544Y-98974250D02*
X152589163Y-98998059D01*
X152589163Y-98998059D02*
X152684401Y-98998059D01*
X152684401Y-98998059D02*
X152732020Y-98974250D01*
X152732020Y-98974250D02*
X152755830Y-98950440D01*
X152755830Y-98950440D02*
X152779639Y-98902821D01*
X152779639Y-98902821D02*
X152779639Y-98498059D01*
X152993926Y-98974250D02*
X153041545Y-98998059D01*
X153041545Y-98998059D02*
X153136783Y-98998059D01*
X153136783Y-98998059D02*
X153184402Y-98974250D01*
X153184402Y-98974250D02*
X153208211Y-98926630D01*
X153208211Y-98926630D02*
X153208211Y-98902821D01*
X153208211Y-98902821D02*
X153184402Y-98855202D01*
X153184402Y-98855202D02*
X153136783Y-98831392D01*
X153136783Y-98831392D02*
X153065354Y-98831392D01*
X153065354Y-98831392D02*
X153017735Y-98807583D01*
X153017735Y-98807583D02*
X152993926Y-98759964D01*
X152993926Y-98759964D02*
X152993926Y-98736154D01*
X152993926Y-98736154D02*
X153017735Y-98688535D01*
X153017735Y-98688535D02*
X153065354Y-98664726D01*
X153065354Y-98664726D02*
X153136783Y-98664726D01*
X153136783Y-98664726D02*
X153184402Y-98688535D01*
X153612973Y-98974250D02*
X153565354Y-98998059D01*
X153565354Y-98998059D02*
X153470116Y-98998059D01*
X153470116Y-98998059D02*
X153422497Y-98974250D01*
X153422497Y-98974250D02*
X153398688Y-98926630D01*
X153398688Y-98926630D02*
X153398688Y-98736154D01*
X153398688Y-98736154D02*
X153422497Y-98688535D01*
X153422497Y-98688535D02*
X153470116Y-98664726D01*
X153470116Y-98664726D02*
X153565354Y-98664726D01*
X153565354Y-98664726D02*
X153612973Y-98688535D01*
X153612973Y-98688535D02*
X153636783Y-98736154D01*
X153636783Y-98736154D02*
X153636783Y-98783773D01*
X153636783Y-98783773D02*
X153398688Y-98831392D01*
X154303449Y-98998059D02*
X154255830Y-98974250D01*
X154255830Y-98974250D02*
X154232020Y-98950440D01*
X154232020Y-98950440D02*
X154208211Y-98902821D01*
X154208211Y-98902821D02*
X154208211Y-98759964D01*
X154208211Y-98759964D02*
X154232020Y-98712345D01*
X154232020Y-98712345D02*
X154255830Y-98688535D01*
X154255830Y-98688535D02*
X154303449Y-98664726D01*
X154303449Y-98664726D02*
X154374877Y-98664726D01*
X154374877Y-98664726D02*
X154422496Y-98688535D01*
X154422496Y-98688535D02*
X154446306Y-98712345D01*
X154446306Y-98712345D02*
X154470115Y-98759964D01*
X154470115Y-98759964D02*
X154470115Y-98902821D01*
X154470115Y-98902821D02*
X154446306Y-98950440D01*
X154446306Y-98950440D02*
X154422496Y-98974250D01*
X154422496Y-98974250D02*
X154374877Y-98998059D01*
X154374877Y-98998059D02*
X154303449Y-98998059D01*
X154684401Y-98664726D02*
X154684401Y-98998059D01*
X154684401Y-98712345D02*
X154708211Y-98688535D01*
X154708211Y-98688535D02*
X154755830Y-98664726D01*
X154755830Y-98664726D02*
X154827258Y-98664726D01*
X154827258Y-98664726D02*
X154874877Y-98688535D01*
X154874877Y-98688535D02*
X154898687Y-98736154D01*
X154898687Y-98736154D02*
X154898687Y-98998059D01*
X155732020Y-98974250D02*
X155684401Y-98998059D01*
X155684401Y-98998059D02*
X155589163Y-98998059D01*
X155589163Y-98998059D02*
X155541544Y-98974250D01*
X155541544Y-98974250D02*
X155517734Y-98950440D01*
X155517734Y-98950440D02*
X155493925Y-98902821D01*
X155493925Y-98902821D02*
X155493925Y-98759964D01*
X155493925Y-98759964D02*
X155517734Y-98712345D01*
X155517734Y-98712345D02*
X155541544Y-98688535D01*
X155541544Y-98688535D02*
X155589163Y-98664726D01*
X155589163Y-98664726D02*
X155684401Y-98664726D01*
X155684401Y-98664726D02*
X155732020Y-98688535D01*
X156017734Y-98998059D02*
X155970115Y-98974250D01*
X155970115Y-98974250D02*
X155946305Y-98950440D01*
X155946305Y-98950440D02*
X155922496Y-98902821D01*
X155922496Y-98902821D02*
X155922496Y-98759964D01*
X155922496Y-98759964D02*
X155946305Y-98712345D01*
X155946305Y-98712345D02*
X155970115Y-98688535D01*
X155970115Y-98688535D02*
X156017734Y-98664726D01*
X156017734Y-98664726D02*
X156089162Y-98664726D01*
X156089162Y-98664726D02*
X156136781Y-98688535D01*
X156136781Y-98688535D02*
X156160591Y-98712345D01*
X156160591Y-98712345D02*
X156184400Y-98759964D01*
X156184400Y-98759964D02*
X156184400Y-98902821D01*
X156184400Y-98902821D02*
X156160591Y-98950440D01*
X156160591Y-98950440D02*
X156136781Y-98974250D01*
X156136781Y-98974250D02*
X156089162Y-98998059D01*
X156089162Y-98998059D02*
X156017734Y-98998059D01*
X156398686Y-98998059D02*
X156398686Y-98664726D01*
X156398686Y-98712345D02*
X156422496Y-98688535D01*
X156422496Y-98688535D02*
X156470115Y-98664726D01*
X156470115Y-98664726D02*
X156541543Y-98664726D01*
X156541543Y-98664726D02*
X156589162Y-98688535D01*
X156589162Y-98688535D02*
X156612972Y-98736154D01*
X156612972Y-98736154D02*
X156612972Y-98998059D01*
X156612972Y-98736154D02*
X156636781Y-98688535D01*
X156636781Y-98688535D02*
X156684400Y-98664726D01*
X156684400Y-98664726D02*
X156755829Y-98664726D01*
X156755829Y-98664726D02*
X156803448Y-98688535D01*
X156803448Y-98688535D02*
X156827258Y-98736154D01*
X156827258Y-98736154D02*
X156827258Y-98998059D01*
X157065353Y-98998059D02*
X157065353Y-98664726D01*
X157065353Y-98712345D02*
X157089163Y-98688535D01*
X157089163Y-98688535D02*
X157136782Y-98664726D01*
X157136782Y-98664726D02*
X157208210Y-98664726D01*
X157208210Y-98664726D02*
X157255829Y-98688535D01*
X157255829Y-98688535D02*
X157279639Y-98736154D01*
X157279639Y-98736154D02*
X157279639Y-98998059D01*
X157279639Y-98736154D02*
X157303448Y-98688535D01*
X157303448Y-98688535D02*
X157351067Y-98664726D01*
X157351067Y-98664726D02*
X157422496Y-98664726D01*
X157422496Y-98664726D02*
X157470115Y-98688535D01*
X157470115Y-98688535D02*
X157493925Y-98736154D01*
X157493925Y-98736154D02*
X157493925Y-98998059D01*
X157922496Y-98974250D02*
X157874877Y-98998059D01*
X157874877Y-98998059D02*
X157779639Y-98998059D01*
X157779639Y-98998059D02*
X157732020Y-98974250D01*
X157732020Y-98974250D02*
X157708211Y-98926630D01*
X157708211Y-98926630D02*
X157708211Y-98736154D01*
X157708211Y-98736154D02*
X157732020Y-98688535D01*
X157732020Y-98688535D02*
X157779639Y-98664726D01*
X157779639Y-98664726D02*
X157874877Y-98664726D01*
X157874877Y-98664726D02*
X157922496Y-98688535D01*
X157922496Y-98688535D02*
X157946306Y-98736154D01*
X157946306Y-98736154D02*
X157946306Y-98783773D01*
X157946306Y-98783773D02*
X157708211Y-98831392D01*
X158160591Y-98998059D02*
X158160591Y-98664726D01*
X158160591Y-98759964D02*
X158184401Y-98712345D01*
X158184401Y-98712345D02*
X158208210Y-98688535D01*
X158208210Y-98688535D02*
X158255829Y-98664726D01*
X158255829Y-98664726D02*
X158303448Y-98664726D01*
X158684401Y-98974250D02*
X158636782Y-98998059D01*
X158636782Y-98998059D02*
X158541544Y-98998059D01*
X158541544Y-98998059D02*
X158493925Y-98974250D01*
X158493925Y-98974250D02*
X158470115Y-98950440D01*
X158470115Y-98950440D02*
X158446306Y-98902821D01*
X158446306Y-98902821D02*
X158446306Y-98759964D01*
X158446306Y-98759964D02*
X158470115Y-98712345D01*
X158470115Y-98712345D02*
X158493925Y-98688535D01*
X158493925Y-98688535D02*
X158541544Y-98664726D01*
X158541544Y-98664726D02*
X158636782Y-98664726D01*
X158636782Y-98664726D02*
X158684401Y-98688535D01*
X158898686Y-98998059D02*
X158898686Y-98664726D01*
X158898686Y-98498059D02*
X158874877Y-98521869D01*
X158874877Y-98521869D02*
X158898686Y-98545678D01*
X158898686Y-98545678D02*
X158922496Y-98521869D01*
X158922496Y-98521869D02*
X158898686Y-98498059D01*
X158898686Y-98498059D02*
X158898686Y-98545678D01*
X159351067Y-98998059D02*
X159351067Y-98736154D01*
X159351067Y-98736154D02*
X159327257Y-98688535D01*
X159327257Y-98688535D02*
X159279638Y-98664726D01*
X159279638Y-98664726D02*
X159184400Y-98664726D01*
X159184400Y-98664726D02*
X159136781Y-98688535D01*
X159351067Y-98974250D02*
X159303448Y-98998059D01*
X159303448Y-98998059D02*
X159184400Y-98998059D01*
X159184400Y-98998059D02*
X159136781Y-98974250D01*
X159136781Y-98974250D02*
X159112972Y-98926630D01*
X159112972Y-98926630D02*
X159112972Y-98879011D01*
X159112972Y-98879011D02*
X159136781Y-98831392D01*
X159136781Y-98831392D02*
X159184400Y-98807583D01*
X159184400Y-98807583D02*
X159303448Y-98807583D01*
X159303448Y-98807583D02*
X159351067Y-98783773D01*
X159660591Y-98998059D02*
X159612972Y-98974250D01*
X159612972Y-98974250D02*
X159589162Y-98926630D01*
X159589162Y-98926630D02*
X159589162Y-98498059D01*
X160232019Y-98664726D02*
X160232019Y-99164726D01*
X160232019Y-98688535D02*
X160279638Y-98664726D01*
X160279638Y-98664726D02*
X160374876Y-98664726D01*
X160374876Y-98664726D02*
X160422495Y-98688535D01*
X160422495Y-98688535D02*
X160446305Y-98712345D01*
X160446305Y-98712345D02*
X160470114Y-98759964D01*
X160470114Y-98759964D02*
X160470114Y-98902821D01*
X160470114Y-98902821D02*
X160446305Y-98950440D01*
X160446305Y-98950440D02*
X160422495Y-98974250D01*
X160422495Y-98974250D02*
X160374876Y-98998059D01*
X160374876Y-98998059D02*
X160279638Y-98998059D01*
X160279638Y-98998059D02*
X160232019Y-98974250D01*
X160684400Y-98998059D02*
X160684400Y-98664726D01*
X160684400Y-98759964D02*
X160708210Y-98712345D01*
X160708210Y-98712345D02*
X160732019Y-98688535D01*
X160732019Y-98688535D02*
X160779638Y-98664726D01*
X160779638Y-98664726D02*
X160827257Y-98664726D01*
X161065353Y-98998059D02*
X161017734Y-98974250D01*
X161017734Y-98974250D02*
X160993924Y-98950440D01*
X160993924Y-98950440D02*
X160970115Y-98902821D01*
X160970115Y-98902821D02*
X160970115Y-98759964D01*
X160970115Y-98759964D02*
X160993924Y-98712345D01*
X160993924Y-98712345D02*
X161017734Y-98688535D01*
X161017734Y-98688535D02*
X161065353Y-98664726D01*
X161065353Y-98664726D02*
X161136781Y-98664726D01*
X161136781Y-98664726D02*
X161184400Y-98688535D01*
X161184400Y-98688535D02*
X161208210Y-98712345D01*
X161208210Y-98712345D02*
X161232019Y-98759964D01*
X161232019Y-98759964D02*
X161232019Y-98902821D01*
X161232019Y-98902821D02*
X161208210Y-98950440D01*
X161208210Y-98950440D02*
X161184400Y-98974250D01*
X161184400Y-98974250D02*
X161136781Y-98998059D01*
X161136781Y-98998059D02*
X161065353Y-98998059D01*
X161660591Y-98998059D02*
X161660591Y-98498059D01*
X161660591Y-98974250D02*
X161612972Y-98998059D01*
X161612972Y-98998059D02*
X161517734Y-98998059D01*
X161517734Y-98998059D02*
X161470115Y-98974250D01*
X161470115Y-98974250D02*
X161446305Y-98950440D01*
X161446305Y-98950440D02*
X161422496Y-98902821D01*
X161422496Y-98902821D02*
X161422496Y-98759964D01*
X161422496Y-98759964D02*
X161446305Y-98712345D01*
X161446305Y-98712345D02*
X161470115Y-98688535D01*
X161470115Y-98688535D02*
X161517734Y-98664726D01*
X161517734Y-98664726D02*
X161612972Y-98664726D01*
X161612972Y-98664726D02*
X161660591Y-98688535D01*
X162112972Y-98664726D02*
X162112972Y-98998059D01*
X161898686Y-98664726D02*
X161898686Y-98926630D01*
X161898686Y-98926630D02*
X161922496Y-98974250D01*
X161922496Y-98974250D02*
X161970115Y-98998059D01*
X161970115Y-98998059D02*
X162041543Y-98998059D01*
X162041543Y-98998059D02*
X162089162Y-98974250D01*
X162089162Y-98974250D02*
X162112972Y-98950440D01*
X162565353Y-98974250D02*
X162517734Y-98998059D01*
X162517734Y-98998059D02*
X162422496Y-98998059D01*
X162422496Y-98998059D02*
X162374877Y-98974250D01*
X162374877Y-98974250D02*
X162351067Y-98950440D01*
X162351067Y-98950440D02*
X162327258Y-98902821D01*
X162327258Y-98902821D02*
X162327258Y-98759964D01*
X162327258Y-98759964D02*
X162351067Y-98712345D01*
X162351067Y-98712345D02*
X162374877Y-98688535D01*
X162374877Y-98688535D02*
X162422496Y-98664726D01*
X162422496Y-98664726D02*
X162517734Y-98664726D01*
X162517734Y-98664726D02*
X162565353Y-98688535D01*
X162708210Y-98664726D02*
X162898686Y-98664726D01*
X162779638Y-98498059D02*
X162779638Y-98926630D01*
X162779638Y-98926630D02*
X162803448Y-98974250D01*
X162803448Y-98974250D02*
X162851067Y-98998059D01*
X162851067Y-98998059D02*
X162898686Y-98998059D01*
X163041543Y-98974250D02*
X163089162Y-98998059D01*
X163089162Y-98998059D02*
X163184400Y-98998059D01*
X163184400Y-98998059D02*
X163232019Y-98974250D01*
X163232019Y-98974250D02*
X163255828Y-98926630D01*
X163255828Y-98926630D02*
X163255828Y-98902821D01*
X163255828Y-98902821D02*
X163232019Y-98855202D01*
X163232019Y-98855202D02*
X163184400Y-98831392D01*
X163184400Y-98831392D02*
X163112971Y-98831392D01*
X163112971Y-98831392D02*
X163065352Y-98807583D01*
X163065352Y-98807583D02*
X163041543Y-98759964D01*
X163041543Y-98759964D02*
X163041543Y-98736154D01*
X163041543Y-98736154D02*
X163065352Y-98688535D01*
X163065352Y-98688535D02*
X163112971Y-98664726D01*
X163112971Y-98664726D02*
X163184400Y-98664726D01*
X163184400Y-98664726D02*
X163232019Y-98688535D01*
X163851066Y-98998059D02*
X163851066Y-98664726D01*
X163851066Y-98498059D02*
X163827257Y-98521869D01*
X163827257Y-98521869D02*
X163851066Y-98545678D01*
X163851066Y-98545678D02*
X163874876Y-98521869D01*
X163874876Y-98521869D02*
X163851066Y-98498059D01*
X163851066Y-98498059D02*
X163851066Y-98545678D01*
X164065352Y-98974250D02*
X164112971Y-98998059D01*
X164112971Y-98998059D02*
X164208209Y-98998059D01*
X164208209Y-98998059D02*
X164255828Y-98974250D01*
X164255828Y-98974250D02*
X164279637Y-98926630D01*
X164279637Y-98926630D02*
X164279637Y-98902821D01*
X164279637Y-98902821D02*
X164255828Y-98855202D01*
X164255828Y-98855202D02*
X164208209Y-98831392D01*
X164208209Y-98831392D02*
X164136780Y-98831392D01*
X164136780Y-98831392D02*
X164089161Y-98807583D01*
X164089161Y-98807583D02*
X164065352Y-98759964D01*
X164065352Y-98759964D02*
X164065352Y-98736154D01*
X164065352Y-98736154D02*
X164089161Y-98688535D01*
X164089161Y-98688535D02*
X164136780Y-98664726D01*
X164136780Y-98664726D02*
X164208209Y-98664726D01*
X164208209Y-98664726D02*
X164255828Y-98688535D01*
X164874875Y-98664726D02*
X164874875Y-99164726D01*
X164874875Y-98688535D02*
X164922494Y-98664726D01*
X164922494Y-98664726D02*
X165017732Y-98664726D01*
X165017732Y-98664726D02*
X165065351Y-98688535D01*
X165065351Y-98688535D02*
X165089161Y-98712345D01*
X165089161Y-98712345D02*
X165112970Y-98759964D01*
X165112970Y-98759964D02*
X165112970Y-98902821D01*
X165112970Y-98902821D02*
X165089161Y-98950440D01*
X165089161Y-98950440D02*
X165065351Y-98974250D01*
X165065351Y-98974250D02*
X165017732Y-98998059D01*
X165017732Y-98998059D02*
X164922494Y-98998059D01*
X164922494Y-98998059D02*
X164874875Y-98974250D01*
X165327256Y-98998059D02*
X165327256Y-98664726D01*
X165327256Y-98759964D02*
X165351066Y-98712345D01*
X165351066Y-98712345D02*
X165374875Y-98688535D01*
X165374875Y-98688535D02*
X165422494Y-98664726D01*
X165422494Y-98664726D02*
X165470113Y-98664726D01*
X165708209Y-98998059D02*
X165660590Y-98974250D01*
X165660590Y-98974250D02*
X165636780Y-98950440D01*
X165636780Y-98950440D02*
X165612971Y-98902821D01*
X165612971Y-98902821D02*
X165612971Y-98759964D01*
X165612971Y-98759964D02*
X165636780Y-98712345D01*
X165636780Y-98712345D02*
X165660590Y-98688535D01*
X165660590Y-98688535D02*
X165708209Y-98664726D01*
X165708209Y-98664726D02*
X165779637Y-98664726D01*
X165779637Y-98664726D02*
X165827256Y-98688535D01*
X165827256Y-98688535D02*
X165851066Y-98712345D01*
X165851066Y-98712345D02*
X165874875Y-98759964D01*
X165874875Y-98759964D02*
X165874875Y-98902821D01*
X165874875Y-98902821D02*
X165851066Y-98950440D01*
X165851066Y-98950440D02*
X165827256Y-98974250D01*
X165827256Y-98974250D02*
X165779637Y-98998059D01*
X165779637Y-98998059D02*
X165708209Y-98998059D01*
X166089161Y-98998059D02*
X166089161Y-98498059D01*
X166303447Y-98998059D02*
X166303447Y-98736154D01*
X166303447Y-98736154D02*
X166279637Y-98688535D01*
X166279637Y-98688535D02*
X166232018Y-98664726D01*
X166232018Y-98664726D02*
X166160590Y-98664726D01*
X166160590Y-98664726D02*
X166112971Y-98688535D01*
X166112971Y-98688535D02*
X166089161Y-98712345D01*
X166541542Y-98998059D02*
X166541542Y-98664726D01*
X166541542Y-98498059D02*
X166517733Y-98521869D01*
X166517733Y-98521869D02*
X166541542Y-98545678D01*
X166541542Y-98545678D02*
X166565352Y-98521869D01*
X166565352Y-98521869D02*
X166541542Y-98498059D01*
X166541542Y-98498059D02*
X166541542Y-98545678D01*
X166779637Y-98998059D02*
X166779637Y-98498059D01*
X166779637Y-98688535D02*
X166827256Y-98664726D01*
X166827256Y-98664726D02*
X166922494Y-98664726D01*
X166922494Y-98664726D02*
X166970113Y-98688535D01*
X166970113Y-98688535D02*
X166993923Y-98712345D01*
X166993923Y-98712345D02*
X167017732Y-98759964D01*
X167017732Y-98759964D02*
X167017732Y-98902821D01*
X167017732Y-98902821D02*
X166993923Y-98950440D01*
X166993923Y-98950440D02*
X166970113Y-98974250D01*
X166970113Y-98974250D02*
X166922494Y-98998059D01*
X166922494Y-98998059D02*
X166827256Y-98998059D01*
X166827256Y-98998059D02*
X166779637Y-98974250D01*
X167232018Y-98998059D02*
X167232018Y-98664726D01*
X167232018Y-98498059D02*
X167208209Y-98521869D01*
X167208209Y-98521869D02*
X167232018Y-98545678D01*
X167232018Y-98545678D02*
X167255828Y-98521869D01*
X167255828Y-98521869D02*
X167232018Y-98498059D01*
X167232018Y-98498059D02*
X167232018Y-98545678D01*
X167398685Y-98664726D02*
X167589161Y-98664726D01*
X167470113Y-98498059D02*
X167470113Y-98926630D01*
X167470113Y-98926630D02*
X167493923Y-98974250D01*
X167493923Y-98974250D02*
X167541542Y-98998059D01*
X167541542Y-98998059D02*
X167589161Y-98998059D01*
X167946303Y-98974250D02*
X167898684Y-98998059D01*
X167898684Y-98998059D02*
X167803446Y-98998059D01*
X167803446Y-98998059D02*
X167755827Y-98974250D01*
X167755827Y-98974250D02*
X167732018Y-98926630D01*
X167732018Y-98926630D02*
X167732018Y-98736154D01*
X167732018Y-98736154D02*
X167755827Y-98688535D01*
X167755827Y-98688535D02*
X167803446Y-98664726D01*
X167803446Y-98664726D02*
X167898684Y-98664726D01*
X167898684Y-98664726D02*
X167946303Y-98688535D01*
X167946303Y-98688535D02*
X167970113Y-98736154D01*
X167970113Y-98736154D02*
X167970113Y-98783773D01*
X167970113Y-98783773D02*
X167732018Y-98831392D01*
X168398684Y-98998059D02*
X168398684Y-98498059D01*
X168398684Y-98974250D02*
X168351065Y-98998059D01*
X168351065Y-98998059D02*
X168255827Y-98998059D01*
X168255827Y-98998059D02*
X168208208Y-98974250D01*
X168208208Y-98974250D02*
X168184398Y-98950440D01*
X168184398Y-98950440D02*
X168160589Y-98902821D01*
X168160589Y-98902821D02*
X168160589Y-98759964D01*
X168160589Y-98759964D02*
X168184398Y-98712345D01*
X168184398Y-98712345D02*
X168208208Y-98688535D01*
X168208208Y-98688535D02*
X168255827Y-98664726D01*
X168255827Y-98664726D02*
X168351065Y-98664726D01*
X168351065Y-98664726D02*
X168398684Y-98688535D01*
X168636779Y-98950440D02*
X168660589Y-98974250D01*
X168660589Y-98974250D02*
X168636779Y-98998059D01*
X168636779Y-98998059D02*
X168612970Y-98974250D01*
X168612970Y-98974250D02*
X168636779Y-98950440D01*
X168636779Y-98950440D02*
X168636779Y-98998059D01*
M02*
