G04 #@! TF.GenerationSoftware,KiCad,Pcbnew,8.0.2*
G04 #@! TF.CreationDate,2024-05-08T12:07:27-04:00*
G04 #@! TF.ProjectId,SMS-to-GG,534d532d-746f-42d4-9747-2e6b69636164,4*
G04 #@! TF.SameCoordinates,Original*
G04 #@! TF.FileFunction,Paste,Top*
G04 #@! TF.FilePolarity,Positive*
%FSLAX46Y46*%
G04 Gerber Fmt 4.6, Leading zero omitted, Abs format (unit mm)*
G04 Created by KiCad (PCBNEW 8.0.2) date 2024-05-08 12:07:27*
%MOMM*%
%LPD*%
G01*
G04 APERTURE LIST*
%ADD10R,0.300000X1.700000*%
%ADD11R,2.500000X2.800000*%
G04 APERTURE END LIST*
D10*
G04 #@! TO.C,J3*
X161620000Y-117570000D03*
X161120000Y-117570000D03*
X160620000Y-117570000D03*
X160120000Y-117570000D03*
X159620000Y-117570000D03*
X159120000Y-117570000D03*
X158620000Y-117570000D03*
X158120000Y-117570000D03*
X157620000Y-117570000D03*
X157120000Y-117570000D03*
X156620000Y-117570000D03*
X156120000Y-117570000D03*
X155620000Y-117570000D03*
X155120000Y-117570000D03*
X154620000Y-117570000D03*
X154120000Y-117570000D03*
X153620000Y-117570000D03*
X153120000Y-117570000D03*
X152620000Y-117570000D03*
X152120000Y-117570000D03*
X151620000Y-117570000D03*
X151120000Y-117570000D03*
X150620000Y-117570000D03*
X150120000Y-117570000D03*
X149620000Y-117570000D03*
X149120000Y-117570000D03*
X148620000Y-117570000D03*
X148120000Y-117570000D03*
X147620000Y-117570000D03*
X147120000Y-117570000D03*
X146620000Y-117570000D03*
X146120000Y-117570000D03*
X145620000Y-117570000D03*
X145120000Y-117570000D03*
X144620000Y-117570000D03*
X144120000Y-117570000D03*
X143620000Y-117570000D03*
X143120000Y-117570000D03*
X142620000Y-117570000D03*
X142120000Y-117570000D03*
X141620000Y-117570000D03*
X141120000Y-117570000D03*
X140620000Y-117570000D03*
X140120000Y-117570000D03*
X139620000Y-117570000D03*
D11*
X163870000Y-115120000D03*
X137370000Y-115120000D03*
G04 #@! TD*
M02*
