%TF.GenerationSoftware,KiCad,Pcbnew,(6.0.6)*%
%TF.CreationDate,2022-12-16T03:55:14-05:00*%
%TF.ProjectId,SMS-to-GG,534d532d-746f-42d4-9747-2e6b69636164,rev?*%
%TF.SameCoordinates,Original*%
%TF.FileFunction,Legend,Bot*%
%TF.FilePolarity,Positive*%
%FSLAX46Y46*%
G04 Gerber Fmt 4.6, Leading zero omitted, Abs format (unit mm)*
G04 Created by KiCad (PCBNEW (6.0.6)) date 2022-12-16 03:55:14*
%MOMM*%
%LPD*%
G01*
G04 APERTURE LIST*
%ADD10C,0.200000*%
G04 APERTURE END LIST*
D10*
X36512285Y-105825857D02*
X36912285Y-105254428D01*
X37198000Y-105825857D02*
X37198000Y-104625857D01*
X36740857Y-104625857D01*
X36626571Y-104683000D01*
X36569428Y-104740142D01*
X36512285Y-104854428D01*
X36512285Y-105025857D01*
X36569428Y-105140142D01*
X36626571Y-105197285D01*
X36740857Y-105254428D01*
X37198000Y-105254428D01*
X35998000Y-105197285D02*
X35598000Y-105197285D01*
X35426571Y-105825857D02*
X35998000Y-105825857D01*
X35998000Y-104625857D01*
X35426571Y-104625857D01*
X35083714Y-104625857D02*
X34683714Y-105825857D01*
X34283714Y-104625857D01*
X32340857Y-105825857D02*
X33026571Y-105825857D01*
X32683714Y-105825857D02*
X32683714Y-104625857D01*
X32798000Y-104797285D01*
X32912285Y-104911571D01*
X33026571Y-104968714D01*
X80614167Y-79371857D02*
X80614167Y-80343285D01*
X80671310Y-80457571D01*
X80728453Y-80514714D01*
X80842739Y-80571857D01*
X81014167Y-80571857D01*
X81128453Y-80514714D01*
X80614167Y-80114714D02*
X80728453Y-80171857D01*
X80957024Y-80171857D01*
X81071310Y-80114714D01*
X81128453Y-80057571D01*
X81185596Y-79943285D01*
X81185596Y-79600428D01*
X81128453Y-79486142D01*
X81071310Y-79429000D01*
X80957024Y-79371857D01*
X80728453Y-79371857D01*
X80614167Y-79429000D01*
X80042739Y-80171857D02*
X80042739Y-79371857D01*
X80042739Y-78971857D02*
X80099881Y-79029000D01*
X80042739Y-79086142D01*
X79985596Y-79029000D01*
X80042739Y-78971857D01*
X80042739Y-79086142D01*
X79642739Y-79371857D02*
X79185596Y-79371857D01*
X79471310Y-78971857D02*
X79471310Y-80000428D01*
X79414167Y-80114714D01*
X79299881Y-80171857D01*
X79185596Y-80171857D01*
X78785596Y-80171857D02*
X78785596Y-78971857D01*
X78271310Y-80171857D02*
X78271310Y-79543285D01*
X78328453Y-79429000D01*
X78442739Y-79371857D01*
X78614167Y-79371857D01*
X78728453Y-79429000D01*
X78785596Y-79486142D01*
X77185596Y-79371857D02*
X77185596Y-80171857D01*
X77699881Y-79371857D02*
X77699881Y-80000428D01*
X77642739Y-80114714D01*
X77528453Y-80171857D01*
X77357024Y-80171857D01*
X77242739Y-80114714D01*
X77185596Y-80057571D01*
X76614167Y-80171857D02*
X76614167Y-78971857D01*
X76614167Y-79429000D02*
X76499881Y-79371857D01*
X76271310Y-79371857D01*
X76157024Y-79429000D01*
X76099881Y-79486142D01*
X76042739Y-79600428D01*
X76042739Y-79943285D01*
X76099881Y-80057571D01*
X76157024Y-80114714D01*
X76271310Y-80171857D01*
X76499881Y-80171857D01*
X76614167Y-80114714D01*
X75528453Y-80057571D02*
X75471310Y-80114714D01*
X75528453Y-80171857D01*
X75585596Y-80114714D01*
X75528453Y-80057571D01*
X75528453Y-80171857D01*
X74442739Y-80114714D02*
X74557024Y-80171857D01*
X74785596Y-80171857D01*
X74899881Y-80114714D01*
X74957024Y-80057571D01*
X75014167Y-79943285D01*
X75014167Y-79600428D01*
X74957024Y-79486142D01*
X74899881Y-79429000D01*
X74785596Y-79371857D01*
X74557024Y-79371857D01*
X74442739Y-79429000D01*
X73757024Y-80171857D02*
X73871310Y-80114714D01*
X73928453Y-80057571D01*
X73985596Y-79943285D01*
X73985596Y-79600428D01*
X73928453Y-79486142D01*
X73871310Y-79429000D01*
X73757024Y-79371857D01*
X73585596Y-79371857D01*
X73471310Y-79429000D01*
X73414167Y-79486142D01*
X73357024Y-79600428D01*
X73357024Y-79943285D01*
X73414167Y-80057571D01*
X73471310Y-80114714D01*
X73585596Y-80171857D01*
X73757024Y-80171857D01*
X72842739Y-80171857D02*
X72842739Y-79371857D01*
X72842739Y-79486142D02*
X72785596Y-79429000D01*
X72671310Y-79371857D01*
X72499881Y-79371857D01*
X72385596Y-79429000D01*
X72328453Y-79543285D01*
X72328453Y-80171857D01*
X72328453Y-79543285D02*
X72271310Y-79429000D01*
X72157024Y-79371857D01*
X71985596Y-79371857D01*
X71871310Y-79429000D01*
X71814167Y-79543285D01*
X71814167Y-80171857D01*
X70385596Y-78914714D02*
X71414167Y-80457571D01*
X70042739Y-80114714D02*
X69871310Y-80171857D01*
X69585596Y-80171857D01*
X69471310Y-80114714D01*
X69414167Y-80057571D01*
X69357024Y-79943285D01*
X69357024Y-79829000D01*
X69414167Y-79714714D01*
X69471310Y-79657571D01*
X69585596Y-79600428D01*
X69814167Y-79543285D01*
X69928453Y-79486142D01*
X69985596Y-79429000D01*
X70042739Y-79314714D01*
X70042739Y-79200428D01*
X69985596Y-79086142D01*
X69928453Y-79029000D01*
X69814167Y-78971857D01*
X69528453Y-78971857D01*
X69357024Y-79029000D01*
X69014167Y-79371857D02*
X68557024Y-79371857D01*
X68842739Y-78971857D02*
X68842739Y-80000428D01*
X68785596Y-80114714D01*
X68671310Y-80171857D01*
X68557024Y-80171857D01*
X67642739Y-80171857D02*
X67642739Y-79543285D01*
X67699881Y-79429000D01*
X67814167Y-79371857D01*
X68042739Y-79371857D01*
X68157024Y-79429000D01*
X67642739Y-80114714D02*
X67757024Y-80171857D01*
X68042739Y-80171857D01*
X68157024Y-80114714D01*
X68214167Y-80000428D01*
X68214167Y-79886142D01*
X68157024Y-79771857D01*
X68042739Y-79714714D01*
X67757024Y-79714714D01*
X67642739Y-79657571D01*
X67071310Y-80171857D02*
X67071310Y-79371857D01*
X67071310Y-79600428D02*
X67014167Y-79486142D01*
X66957024Y-79429000D01*
X66842739Y-79371857D01*
X66728453Y-79371857D01*
X66385596Y-80114714D02*
X66271310Y-80171857D01*
X66042739Y-80171857D01*
X65928453Y-80114714D01*
X65871310Y-80000428D01*
X65871310Y-79943285D01*
X65928453Y-79829000D01*
X66042739Y-79771857D01*
X66214167Y-79771857D01*
X66328453Y-79714714D01*
X66385596Y-79600428D01*
X66385596Y-79543285D01*
X66328453Y-79429000D01*
X66214167Y-79371857D01*
X66042739Y-79371857D01*
X65928453Y-79429000D01*
X65357024Y-80171857D02*
X65357024Y-78971857D01*
X64842739Y-80171857D02*
X64842739Y-79543285D01*
X64899881Y-79429000D01*
X65014167Y-79371857D01*
X65185596Y-79371857D01*
X65299881Y-79429000D01*
X65357024Y-79486142D01*
X63757024Y-80171857D02*
X63757024Y-79543285D01*
X63814167Y-79429000D01*
X63928453Y-79371857D01*
X64157024Y-79371857D01*
X64271310Y-79429000D01*
X63757024Y-80114714D02*
X63871310Y-80171857D01*
X64157024Y-80171857D01*
X64271310Y-80114714D01*
X64328453Y-80000428D01*
X64328453Y-79886142D01*
X64271310Y-79771857D01*
X64157024Y-79714714D01*
X63871310Y-79714714D01*
X63757024Y-79657571D01*
X62671310Y-80171857D02*
X62671310Y-78971857D01*
X62671310Y-80114714D02*
X62785596Y-80171857D01*
X63014167Y-80171857D01*
X63128453Y-80114714D01*
X63185596Y-80057571D01*
X63242738Y-79943285D01*
X63242738Y-79600428D01*
X63185596Y-79486142D01*
X63128453Y-79429000D01*
X63014167Y-79371857D01*
X62785596Y-79371857D01*
X62671310Y-79429000D01*
X61642738Y-80114714D02*
X61757024Y-80171857D01*
X61985596Y-80171857D01*
X62099881Y-80114714D01*
X62157024Y-80000428D01*
X62157024Y-79543285D01*
X62099881Y-79429000D01*
X61985596Y-79371857D01*
X61757024Y-79371857D01*
X61642738Y-79429000D01*
X61585596Y-79543285D01*
X61585596Y-79657571D01*
X62157024Y-79771857D01*
X60385596Y-80171857D02*
X60785596Y-79600428D01*
X61071310Y-80171857D02*
X61071310Y-78971857D01*
X60614167Y-78971857D01*
X60499881Y-79029000D01*
X60442738Y-79086142D01*
X60385596Y-79200428D01*
X60385596Y-79371857D01*
X60442738Y-79486142D01*
X60499881Y-79543285D01*
X60614167Y-79600428D01*
X61071310Y-79600428D01*
X59871310Y-79543285D02*
X59471310Y-79543285D01*
X59299881Y-80171857D02*
X59871310Y-80171857D01*
X59871310Y-78971857D01*
X59299881Y-78971857D01*
X58957024Y-78971857D02*
X58271310Y-78971857D01*
X58614167Y-80171857D02*
X58614167Y-78971857D01*
X57185596Y-80171857D02*
X57585596Y-79600428D01*
X57871310Y-80171857D02*
X57871310Y-78971857D01*
X57414167Y-78971857D01*
X57299881Y-79029000D01*
X57242738Y-79086142D01*
X57185596Y-79200428D01*
X57185596Y-79371857D01*
X57242738Y-79486142D01*
X57299881Y-79543285D01*
X57414167Y-79600428D01*
X57871310Y-79600428D01*
X56442738Y-78971857D02*
X56214167Y-78971857D01*
X56099881Y-79029000D01*
X55985596Y-79143285D01*
X55928453Y-79371857D01*
X55928453Y-79771857D01*
X55985596Y-80000428D01*
X56099881Y-80114714D01*
X56214167Y-80171857D01*
X56442738Y-80171857D01*
X56557024Y-80114714D01*
X56671310Y-80000428D01*
X56728453Y-79771857D01*
X56728453Y-79371857D01*
X56671310Y-79143285D01*
X56557024Y-79029000D01*
X56442738Y-78971857D01*
X54557024Y-78914714D02*
X55585596Y-80457571D01*
X54157024Y-80171857D02*
X54157024Y-78971857D01*
X53471310Y-80171857D02*
X53985596Y-79486142D01*
X53471310Y-78971857D02*
X54157024Y-79657571D01*
X52957024Y-80171857D02*
X52957024Y-79371857D01*
X52957024Y-78971857D02*
X53014167Y-79029000D01*
X52957024Y-79086142D01*
X52899881Y-79029000D01*
X52957024Y-78971857D01*
X52957024Y-79086142D01*
X51699881Y-80057571D02*
X51757024Y-80114714D01*
X51928453Y-80171857D01*
X52042738Y-80171857D01*
X52214167Y-80114714D01*
X52328453Y-80000428D01*
X52385596Y-79886142D01*
X52442738Y-79657571D01*
X52442738Y-79486142D01*
X52385596Y-79257571D01*
X52328453Y-79143285D01*
X52214167Y-79029000D01*
X52042738Y-78971857D01*
X51928453Y-78971857D01*
X51757024Y-79029000D01*
X51699881Y-79086142D01*
X50671310Y-80171857D02*
X50671310Y-79543285D01*
X50728453Y-79429000D01*
X50842738Y-79371857D01*
X51071310Y-79371857D01*
X51185596Y-79429000D01*
X50671310Y-80114714D02*
X50785596Y-80171857D01*
X51071310Y-80171857D01*
X51185596Y-80114714D01*
X51242738Y-80000428D01*
X51242738Y-79886142D01*
X51185596Y-79771857D01*
X51071310Y-79714714D01*
X50785596Y-79714714D01*
X50671310Y-79657571D01*
X49585596Y-80171857D02*
X49585596Y-78971857D01*
X49585596Y-80114714D02*
X49699881Y-80171857D01*
X49928453Y-80171857D01*
X50042738Y-80114714D01*
X50099881Y-80057571D01*
X50157024Y-79943285D01*
X50157024Y-79600428D01*
X50099881Y-79486142D01*
X50042738Y-79429000D01*
X49928453Y-79371857D01*
X49699881Y-79371857D01*
X49585596Y-79429000D01*
X48614167Y-79543285D02*
X49014167Y-79543285D01*
X49014167Y-80171857D02*
X49014167Y-78971857D01*
X48442738Y-78971857D01*
X47985596Y-80171857D02*
X47985596Y-79371857D01*
X47985596Y-78971857D02*
X48042738Y-79029000D01*
X47985596Y-79086142D01*
X47928453Y-79029000D01*
X47985596Y-78971857D01*
X47985596Y-79086142D01*
X47242738Y-80171857D02*
X47357024Y-80114714D01*
X47414167Y-80000428D01*
X47414167Y-78971857D01*
X46328453Y-80114714D02*
X46442738Y-80171857D01*
X46671310Y-80171857D01*
X46785596Y-80114714D01*
X46842738Y-80000428D01*
X46842738Y-79543285D01*
X46785596Y-79429000D01*
X46671310Y-79371857D01*
X46442738Y-79371857D01*
X46328453Y-79429000D01*
X46271310Y-79543285D01*
X46271310Y-79657571D01*
X46842738Y-79771857D01*
X45814167Y-80114714D02*
X45699881Y-80171857D01*
X45471310Y-80171857D01*
X45357024Y-80114714D01*
X45299881Y-80000428D01*
X45299881Y-79943285D01*
X45357024Y-79829000D01*
X45471310Y-79771857D01*
X45642738Y-79771857D01*
X45757024Y-79714714D01*
X45814167Y-79600428D01*
X45814167Y-79543285D01*
X45757024Y-79429000D01*
X45642738Y-79371857D01*
X45471310Y-79371857D01*
X45357024Y-79429000D01*
%TO.C,G\u002A\u002A\u002A*%
G36*
X60445437Y-76833311D02*
G01*
X60971761Y-76833311D01*
X60971761Y-75728681D01*
X61433107Y-75728681D01*
X61433107Y-78275828D01*
X60971761Y-78275828D01*
X60971761Y-77190691D01*
X60445437Y-77190691D01*
X60445437Y-78275828D01*
X59977594Y-78275828D01*
X59977594Y-75728681D01*
X60445437Y-75728681D01*
X60445437Y-76833311D01*
G37*
G36*
X66416939Y-78275828D02*
G01*
X66416939Y-77281661D01*
X66263440Y-77281661D01*
X66069539Y-77778745D01*
X65875637Y-78275828D01*
X65626462Y-78275828D01*
X65615371Y-78275826D01*
X65560635Y-78275749D01*
X65510465Y-78275570D01*
X65466267Y-78275303D01*
X65429446Y-78274960D01*
X65401405Y-78274553D01*
X65383551Y-78274095D01*
X65377287Y-78273598D01*
X65378007Y-78271705D01*
X65383036Y-78259452D01*
X65392547Y-78236593D01*
X65406167Y-78204017D01*
X65423523Y-78162613D01*
X65444242Y-78113268D01*
X65467951Y-78056872D01*
X65494276Y-77994312D01*
X65522844Y-77926479D01*
X65553282Y-77854259D01*
X65585217Y-77778542D01*
X65602229Y-77738197D01*
X65633451Y-77664021D01*
X65662975Y-77593709D01*
X65690427Y-77528163D01*
X65715434Y-77468281D01*
X65737620Y-77414966D01*
X65756612Y-77369116D01*
X65772035Y-77331632D01*
X65783515Y-77303414D01*
X65790677Y-77285364D01*
X65793148Y-77278381D01*
X65792760Y-77277341D01*
X65784315Y-77271486D01*
X65767087Y-77263913D01*
X65744075Y-77255990D01*
X65723073Y-77248920D01*
X65664099Y-77220935D01*
X65614292Y-77183741D01*
X65573647Y-77137331D01*
X65542156Y-77081698D01*
X65519814Y-77016836D01*
X65518201Y-77010313D01*
X65515991Y-77000071D01*
X65514099Y-76988750D01*
X65512501Y-76975358D01*
X65511174Y-76958900D01*
X65510092Y-76938385D01*
X65509231Y-76912818D01*
X65508568Y-76881207D01*
X65508076Y-76842559D01*
X65507734Y-76795881D01*
X65507514Y-76740180D01*
X65507395Y-76674462D01*
X65507350Y-76597735D01*
X65507356Y-76511669D01*
X65968589Y-76511669D01*
X65968591Y-76556171D01*
X65968643Y-76631224D01*
X65968835Y-76694823D01*
X65969261Y-76747977D01*
X65970012Y-76791695D01*
X65971183Y-76826987D01*
X65972864Y-76854862D01*
X65975150Y-76876329D01*
X65978133Y-76892399D01*
X65981905Y-76904079D01*
X65986559Y-76912379D01*
X65992188Y-76918310D01*
X65998885Y-76922880D01*
X66006741Y-76927098D01*
X66012281Y-76929444D01*
X66022089Y-76931935D01*
X66036179Y-76933853D01*
X66056003Y-76935269D01*
X66083013Y-76936250D01*
X66118661Y-76936866D01*
X66164400Y-76937185D01*
X66221681Y-76937276D01*
X66416939Y-76937276D01*
X66416939Y-76086061D01*
X66225044Y-76086061D01*
X66214676Y-76086064D01*
X66158531Y-76086227D01*
X66113732Y-76086684D01*
X66078863Y-76087498D01*
X66052510Y-76088731D01*
X66033256Y-76090446D01*
X66019685Y-76092706D01*
X66010382Y-76095574D01*
X66004124Y-76098212D01*
X65996459Y-76101994D01*
X65989984Y-76106784D01*
X65984598Y-76113580D01*
X65980202Y-76123381D01*
X65976694Y-76137186D01*
X65973975Y-76155995D01*
X65971944Y-76180806D01*
X65970501Y-76212619D01*
X65969545Y-76252432D01*
X65968976Y-76301244D01*
X65968694Y-76360055D01*
X65968599Y-76429863D01*
X65968589Y-76511669D01*
X65507356Y-76511669D01*
X65507356Y-76509005D01*
X65507361Y-76488505D01*
X65507407Y-76397919D01*
X65507536Y-76319134D01*
X65507815Y-76251160D01*
X65508309Y-76193008D01*
X65509086Y-76143689D01*
X65510212Y-76102215D01*
X65511752Y-76067597D01*
X65513774Y-76038844D01*
X65516345Y-76014970D01*
X65519529Y-75994984D01*
X65523394Y-75977897D01*
X65528007Y-75962722D01*
X65533433Y-75948468D01*
X65539739Y-75934147D01*
X65546991Y-75918770D01*
X65566590Y-75884002D01*
X65603690Y-75838959D01*
X65650830Y-75801281D01*
X65708428Y-75770656D01*
X65776903Y-75746771D01*
X65780838Y-75745681D01*
X65790232Y-75743200D01*
X65799757Y-75741041D01*
X65810332Y-75739177D01*
X65822875Y-75737581D01*
X65838306Y-75736228D01*
X65857543Y-75735090D01*
X65881505Y-75734142D01*
X65911112Y-75733356D01*
X65947282Y-75732707D01*
X65990933Y-75732168D01*
X66042986Y-75731713D01*
X66104359Y-75731315D01*
X66175970Y-75730948D01*
X66258739Y-75730586D01*
X66353585Y-75730202D01*
X66878285Y-75728107D01*
X66878285Y-78275828D01*
X66416939Y-78275828D01*
G37*
G36*
X66076760Y-71248430D02*
G01*
X66070047Y-71253541D01*
X66050112Y-71268719D01*
X66046825Y-71271222D01*
X66035153Y-71280109D01*
X66010301Y-71299026D01*
X65984691Y-71318520D01*
X65977381Y-71324084D01*
X65959078Y-71338013D01*
X65933462Y-71357507D01*
X65913093Y-71373008D01*
X65907846Y-71377000D01*
X65879359Y-71398675D01*
X65873687Y-71402991D01*
X65859611Y-71413701D01*
X65848067Y-71422485D01*
X65842822Y-71426476D01*
X65833990Y-71433195D01*
X65822445Y-71441978D01*
X65808367Y-71452688D01*
X65796821Y-71461472D01*
X65782743Y-71472182D01*
X65771198Y-71480965D01*
X65767098Y-71484084D01*
X65747956Y-71498645D01*
X65714408Y-71524164D01*
X65709581Y-71527836D01*
X65688781Y-71543658D01*
X65686455Y-71545427D01*
X65685777Y-71545943D01*
X65663152Y-71563151D01*
X65660146Y-71565437D01*
X65637521Y-71582645D01*
X65634517Y-71584930D01*
X65614561Y-71600108D01*
X65611270Y-71602611D01*
X65601422Y-71610101D01*
X65574711Y-71630415D01*
X65549078Y-71649909D01*
X65523446Y-71669402D01*
X65512532Y-71677702D01*
X65497811Y-71688896D01*
X65472176Y-71708389D01*
X65446152Y-71728178D01*
X65437996Y-71734380D01*
X65423912Y-71745090D01*
X65420315Y-71747825D01*
X65412359Y-71753874D01*
X65398273Y-71764584D01*
X65386722Y-71773367D01*
X65372636Y-71784077D01*
X65361083Y-71792861D01*
X65346997Y-71803571D01*
X65335446Y-71812354D01*
X65325304Y-71820065D01*
X65312191Y-71830035D01*
X65307452Y-71833638D01*
X65278639Y-71855553D01*
X65273811Y-71859225D01*
X65253009Y-71875047D01*
X65250003Y-71877333D01*
X65227380Y-71894540D01*
X65224374Y-71896826D01*
X65212703Y-71905703D01*
X65201756Y-71914034D01*
X65198752Y-71916320D01*
X65181289Y-71929610D01*
X65175520Y-71934000D01*
X65138984Y-71961804D01*
X65120743Y-71975686D01*
X65113373Y-71981298D01*
X65087773Y-72000791D01*
X65062171Y-72020285D01*
X65036571Y-72039778D01*
X65032112Y-72043173D01*
X65010595Y-72059567D01*
X65002454Y-72065770D01*
X64988397Y-72076480D01*
X64976870Y-72085263D01*
X64962813Y-72095973D01*
X64951286Y-72104756D01*
X64947351Y-72107754D01*
X64937235Y-72115466D01*
X64925713Y-72124250D01*
X64900144Y-72143743D01*
X64876952Y-72161424D01*
X64866998Y-72169013D01*
X64843496Y-72186943D01*
X64838683Y-72190615D01*
X64817946Y-72206436D01*
X64814950Y-72208722D01*
X64792395Y-72225930D01*
X64791595Y-72226540D01*
X64789401Y-72228215D01*
X64771994Y-72241506D01*
X64763870Y-72247709D01*
X64746464Y-72260999D01*
X64738340Y-72267202D01*
X64721682Y-72279921D01*
X64720934Y-72280493D01*
X64704316Y-72293193D01*
X64678808Y-72312687D01*
X64657798Y-72328744D01*
X64653307Y-72332180D01*
X64627828Y-72351674D01*
X64602351Y-72371167D01*
X64600483Y-72372596D01*
X64579890Y-72388375D01*
X64568426Y-72397159D01*
X64554448Y-72407869D01*
X64550278Y-72411064D01*
X64543000Y-72416652D01*
X64529050Y-72427362D01*
X64517608Y-72436146D01*
X64507722Y-72443736D01*
X64503670Y-72446856D01*
X64492264Y-72455639D01*
X64473355Y-72470199D01*
X64466980Y-72475133D01*
X64447719Y-72490041D01*
X64436476Y-72498838D01*
X64431351Y-72502848D01*
X64424793Y-72508208D01*
X64411235Y-72522004D01*
X64656169Y-73285075D01*
X64662426Y-73304569D01*
X64665690Y-73314738D01*
X64672854Y-73337058D01*
X64679111Y-73356551D01*
X64684111Y-73372128D01*
X64689539Y-73389040D01*
X64695796Y-73408534D01*
X64702053Y-73428027D01*
X64706225Y-73441023D01*
X64712482Y-73460516D01*
X64718739Y-73480010D01*
X64722003Y-73490180D01*
X64729167Y-73512499D01*
X64735424Y-73531992D01*
X64738688Y-73542162D01*
X64745852Y-73564482D01*
X64751202Y-73581149D01*
X64752109Y-73583975D01*
X64755374Y-73594145D01*
X64757435Y-73600565D01*
X64762538Y-73616464D01*
X64768794Y-73635958D01*
X64772057Y-73646127D01*
X64779220Y-73668447D01*
X64785476Y-73687940D01*
X64790475Y-73703517D01*
X64793814Y-73713921D01*
X64795902Y-73720429D01*
X64802157Y-73739923D01*
X64807760Y-73757386D01*
X64812581Y-73772412D01*
X64818836Y-73791905D01*
X64825091Y-73811399D01*
X64829135Y-73824002D01*
X64829261Y-73824395D01*
X64835515Y-73843888D01*
X64841769Y-73863382D01*
X64845031Y-73873551D01*
X64852191Y-73895871D01*
X64858444Y-73915364D01*
X64861706Y-73925534D01*
X64863190Y-73930160D01*
X64868864Y-73947853D01*
X64875116Y-73967347D01*
X64878377Y-73977517D01*
X64885535Y-73999836D01*
X64891787Y-74019329D01*
X64895049Y-74029499D01*
X64895769Y-74031744D01*
X64902206Y-74051819D01*
X64908456Y-74071312D01*
X64913450Y-74086888D01*
X64918873Y-74103801D01*
X64925124Y-74123295D01*
X64926666Y-74128104D01*
X64931373Y-74142788D01*
X64935539Y-74155784D01*
X64941787Y-74175277D01*
X64948036Y-74194771D01*
X64952201Y-74207766D01*
X64955671Y-74218591D01*
X64958449Y-74227260D01*
X64964695Y-74246753D01*
X64967954Y-74256923D01*
X64975106Y-74279242D01*
X64981353Y-74298736D01*
X64982576Y-74302554D01*
X64984611Y-74308906D01*
X64991760Y-74331225D01*
X64998004Y-74350718D01*
X65001262Y-74360888D01*
X65007174Y-74379343D01*
X65008412Y-74383208D01*
X65014653Y-74402701D01*
X65020894Y-74422195D01*
X65025055Y-74435190D01*
X65029255Y-74448309D01*
X65031295Y-74454684D01*
X65036883Y-74472147D01*
X65041691Y-74487173D01*
X65047929Y-74506666D01*
X65048613Y-74508802D01*
X65054163Y-74526160D01*
X65065038Y-74560171D01*
X65078322Y-74601766D01*
X65088258Y-74632938D01*
X65094637Y-74653037D01*
X65097250Y-74661413D01*
X65097904Y-74663742D01*
X65100853Y-74677085D01*
X65100588Y-74682531D01*
X65099879Y-74682088D01*
X65090957Y-74675808D01*
X65072244Y-74662402D01*
X65044275Y-74642255D01*
X65007586Y-74615757D01*
X64962710Y-74583295D01*
X64910182Y-74545256D01*
X64867068Y-74514010D01*
X64969517Y-74514010D01*
X64971173Y-74520085D01*
X64972508Y-74522008D01*
X64978438Y-74526583D01*
X64979326Y-74526160D01*
X64977671Y-74520085D01*
X64976336Y-74518162D01*
X64970406Y-74513587D01*
X64969517Y-74514010D01*
X64867068Y-74514010D01*
X64850537Y-74502029D01*
X64840179Y-74494517D01*
X64943526Y-74494517D01*
X64945181Y-74500592D01*
X64946516Y-74502515D01*
X64952446Y-74507089D01*
X64953335Y-74506666D01*
X64951679Y-74500592D01*
X64950344Y-74498668D01*
X64944414Y-74494094D01*
X64943526Y-74494517D01*
X64840179Y-74494517D01*
X64813298Y-74475023D01*
X64917534Y-74475023D01*
X64919190Y-74481098D01*
X64920525Y-74483022D01*
X64926455Y-74487596D01*
X64927344Y-74487173D01*
X64925688Y-74481098D01*
X64924353Y-74479175D01*
X64918423Y-74474600D01*
X64917534Y-74475023D01*
X64813298Y-74475023D01*
X64786421Y-74455532D01*
X64889999Y-74455532D01*
X64895619Y-74463229D01*
X64897645Y-74465745D01*
X64906283Y-74474092D01*
X64909443Y-74472147D01*
X64907071Y-74468791D01*
X64898072Y-74460776D01*
X64893364Y-74457146D01*
X64889999Y-74455532D01*
X64786421Y-74455532D01*
X64784310Y-74454001D01*
X64768506Y-74442534D01*
X64872050Y-74442534D01*
X64873705Y-74448609D01*
X64875040Y-74450532D01*
X64880970Y-74455107D01*
X64881859Y-74454684D01*
X64880203Y-74448609D01*
X64878868Y-74446685D01*
X64872938Y-74442111D01*
X64872050Y-74442534D01*
X64768506Y-74442534D01*
X64741641Y-74423041D01*
X64846058Y-74423041D01*
X64847714Y-74429115D01*
X64849049Y-74431039D01*
X64854979Y-74435613D01*
X64855868Y-74435190D01*
X64854212Y-74429115D01*
X64852877Y-74427192D01*
X64846947Y-74422618D01*
X64846058Y-74423041D01*
X64741641Y-74423041D01*
X64723730Y-74410045D01*
X64826565Y-74410045D01*
X64828221Y-74416120D01*
X64829556Y-74418043D01*
X64835485Y-74422618D01*
X64836374Y-74422195D01*
X64834718Y-74416120D01*
X64833383Y-74414196D01*
X64827454Y-74409622D01*
X64826565Y-74410045D01*
X64723730Y-74410045D01*
X64712035Y-74401559D01*
X64696872Y-74390552D01*
X64800574Y-74390552D01*
X64802229Y-74396626D01*
X64803564Y-74398550D01*
X64809494Y-74403124D01*
X64810383Y-74402701D01*
X64808727Y-74396626D01*
X64807392Y-74394703D01*
X64801462Y-74390128D01*
X64800574Y-74390552D01*
X64696872Y-74390552D01*
X64670017Y-74371058D01*
X64774582Y-74371058D01*
X64776238Y-74377133D01*
X64777573Y-74379056D01*
X64783503Y-74383631D01*
X64784392Y-74383208D01*
X64782736Y-74377133D01*
X64781401Y-74375209D01*
X64775471Y-74370635D01*
X64774582Y-74371058D01*
X64670017Y-74371058D01*
X64656007Y-74360888D01*
X64753496Y-74360888D01*
X64756745Y-74364137D01*
X64759993Y-74360888D01*
X64756745Y-74357639D01*
X64753496Y-74360888D01*
X64656007Y-74360888D01*
X64634247Y-74345092D01*
X64625265Y-74338569D01*
X64729097Y-74338569D01*
X64730753Y-74344644D01*
X64732088Y-74346567D01*
X64738018Y-74351142D01*
X64738907Y-74350718D01*
X64737251Y-74344644D01*
X64735916Y-74342720D01*
X64729986Y-74338146D01*
X64729097Y-74338569D01*
X64625265Y-74338569D01*
X64598422Y-74319075D01*
X64703106Y-74319075D01*
X64704762Y-74325150D01*
X64706097Y-74327074D01*
X64712027Y-74331648D01*
X64712916Y-74331225D01*
X64711260Y-74325150D01*
X64709925Y-74323227D01*
X64703995Y-74318652D01*
X64703106Y-74319075D01*
X64598422Y-74319075D01*
X64584419Y-74308906D01*
X64682020Y-74308906D01*
X64685268Y-74312155D01*
X64688517Y-74308906D01*
X64685268Y-74305657D01*
X64682020Y-74308906D01*
X64584419Y-74308906D01*
X64553684Y-74286586D01*
X64657621Y-74286586D01*
X64659277Y-74292661D01*
X64660612Y-74294585D01*
X64666542Y-74299159D01*
X64667431Y-74298736D01*
X64665775Y-74292661D01*
X64664440Y-74290738D01*
X64658510Y-74286163D01*
X64657621Y-74286586D01*
X64553684Y-74286586D01*
X64551481Y-74284986D01*
X64526851Y-74267093D01*
X64631630Y-74267093D01*
X64633286Y-74273168D01*
X64634621Y-74275091D01*
X64640551Y-74279665D01*
X64641439Y-74279242D01*
X64639784Y-74273168D01*
X64638449Y-74271244D01*
X64632519Y-74266670D01*
X64631630Y-74267093D01*
X64526851Y-74267093D01*
X64512852Y-74256923D01*
X64610543Y-74256923D01*
X64613792Y-74260172D01*
X64617041Y-74256923D01*
X64613792Y-74253674D01*
X64610543Y-74256923D01*
X64512852Y-74256923D01*
X64482129Y-74234604D01*
X64586145Y-74234604D01*
X64587801Y-74240679D01*
X64589136Y-74242602D01*
X64595066Y-74247176D01*
X64595955Y-74246753D01*
X64594299Y-74240679D01*
X64592964Y-74238755D01*
X64587034Y-74234181D01*
X64586145Y-74234604D01*
X64482129Y-74234604D01*
X64464271Y-74221631D01*
X64455298Y-74215110D01*
X64560154Y-74215110D01*
X64561810Y-74221185D01*
X64563145Y-74223109D01*
X64569075Y-74227683D01*
X64569963Y-74227260D01*
X64568308Y-74221185D01*
X64566973Y-74219262D01*
X64561043Y-74214687D01*
X64560154Y-74215110D01*
X64455298Y-74215110D01*
X64428474Y-74195617D01*
X64534163Y-74195617D01*
X64535818Y-74201692D01*
X64537153Y-74203615D01*
X64543083Y-74208189D01*
X64543972Y-74207766D01*
X64542316Y-74201692D01*
X64540981Y-74199768D01*
X64535051Y-74195194D01*
X64534163Y-74195617D01*
X64428474Y-74195617D01*
X64410591Y-74182621D01*
X64514669Y-74182621D01*
X64516325Y-74188696D01*
X64517660Y-74190619D01*
X64523590Y-74195194D01*
X64524479Y-74194771D01*
X64522823Y-74188696D01*
X64521488Y-74186772D01*
X64515558Y-74182198D01*
X64514669Y-74182621D01*
X64410591Y-74182621D01*
X64383767Y-74163128D01*
X64488678Y-74163128D01*
X64490334Y-74169202D01*
X64491669Y-74171126D01*
X64497598Y-74175700D01*
X64498487Y-74175277D01*
X64496831Y-74169202D01*
X64495497Y-74167279D01*
X64489567Y-74162705D01*
X64488678Y-74163128D01*
X64383767Y-74163128D01*
X64373151Y-74155413D01*
X64356948Y-74143634D01*
X64462687Y-74143634D01*
X64464342Y-74149709D01*
X64465677Y-74151632D01*
X64471607Y-74156207D01*
X64472496Y-74155784D01*
X64470840Y-74149709D01*
X64469505Y-74147785D01*
X64463575Y-74143211D01*
X64462687Y-74143634D01*
X64356948Y-74143634D01*
X64339072Y-74130639D01*
X64443193Y-74130639D01*
X64444849Y-74136713D01*
X64446184Y-74138637D01*
X64452114Y-74143211D01*
X64453002Y-74142788D01*
X64451347Y-74136713D01*
X64450012Y-74134790D01*
X64444082Y-74130215D01*
X64443193Y-74130639D01*
X64339072Y-74130639D01*
X64312256Y-74111145D01*
X64417202Y-74111145D01*
X64418858Y-74117220D01*
X64420193Y-74119143D01*
X64426122Y-74123718D01*
X64427011Y-74123295D01*
X64425355Y-74117220D01*
X64424020Y-74115296D01*
X64418091Y-74110722D01*
X64417202Y-74111145D01*
X64312256Y-74111145D01*
X64285441Y-74091652D01*
X64391211Y-74091652D01*
X64392866Y-74097726D01*
X64394201Y-74099650D01*
X64400131Y-74104224D01*
X64401020Y-74103801D01*
X64399364Y-74097726D01*
X64398029Y-74095803D01*
X64392099Y-74091229D01*
X64391211Y-74091652D01*
X64285441Y-74091652D01*
X64278658Y-74086721D01*
X64258635Y-74072161D01*
X64363675Y-74072161D01*
X64369295Y-74079857D01*
X64375242Y-74086788D01*
X64380666Y-74091229D01*
X64381806Y-74091122D01*
X64381850Y-74086888D01*
X64371748Y-74077404D01*
X64367040Y-74073774D01*
X64363675Y-74072161D01*
X64258635Y-74072161D01*
X64240759Y-74059162D01*
X64345726Y-74059162D01*
X64347382Y-74065237D01*
X64348716Y-74067161D01*
X64354646Y-74071735D01*
X64355535Y-74071312D01*
X64353879Y-74065237D01*
X64352544Y-74063314D01*
X64346615Y-74058739D01*
X64345726Y-74059162D01*
X64240759Y-74059162D01*
X64213953Y-74039669D01*
X64319734Y-74039669D01*
X64321390Y-74045744D01*
X64322725Y-74047667D01*
X64328655Y-74052242D01*
X64329544Y-74051819D01*
X64327888Y-74045744D01*
X64326553Y-74043820D01*
X64320623Y-74039246D01*
X64319734Y-74039669D01*
X64213953Y-74039669D01*
X64199968Y-74029499D01*
X64298648Y-74029499D01*
X64301897Y-74032748D01*
X64305146Y-74029499D01*
X64301897Y-74026250D01*
X64298648Y-74029499D01*
X64199968Y-74029499D01*
X64181324Y-74015941D01*
X64169273Y-74007180D01*
X64274250Y-74007180D01*
X64275905Y-74013255D01*
X64277240Y-74015178D01*
X64283170Y-74019752D01*
X64284059Y-74019329D01*
X64282403Y-74013255D01*
X64281068Y-74011331D01*
X64275138Y-74006757D01*
X64274250Y-74007180D01*
X64169273Y-74007180D01*
X64142460Y-73987686D01*
X64248258Y-73987686D01*
X64249914Y-73993761D01*
X64251249Y-73995685D01*
X64257179Y-74000259D01*
X64258068Y-73999836D01*
X64256412Y-73993761D01*
X64255077Y-73991838D01*
X64249147Y-73987263D01*
X64248258Y-73987686D01*
X64142460Y-73987686D01*
X64128473Y-73977517D01*
X64227172Y-73977517D01*
X64230421Y-73980765D01*
X64233670Y-73977517D01*
X64230421Y-73974268D01*
X64227172Y-73977517D01*
X64128473Y-73977517D01*
X64107555Y-73962309D01*
X64097762Y-73955197D01*
X64202774Y-73955197D01*
X64204429Y-73961272D01*
X64205764Y-73963195D01*
X64211694Y-73967770D01*
X64212583Y-73967347D01*
X64210927Y-73961272D01*
X64209592Y-73959349D01*
X64203662Y-73954774D01*
X64202774Y-73955197D01*
X64097762Y-73955197D01*
X64070919Y-73935704D01*
X64176782Y-73935704D01*
X64178438Y-73941779D01*
X64179773Y-73943702D01*
X64185703Y-73948276D01*
X64186592Y-73947853D01*
X64184936Y-73941779D01*
X64183601Y-73939855D01*
X64177671Y-73935281D01*
X64176782Y-73935704D01*
X64070919Y-73935704D01*
X64056915Y-73925534D01*
X64155696Y-73925534D01*
X64158945Y-73928783D01*
X64162193Y-73925534D01*
X64158945Y-73922285D01*
X64155696Y-73925534D01*
X64056915Y-73925534D01*
X64026182Y-73903215D01*
X64131297Y-73903215D01*
X64132953Y-73909289D01*
X64134288Y-73911213D01*
X64140218Y-73915787D01*
X64141107Y-73915364D01*
X64139451Y-73909289D01*
X64138116Y-73907366D01*
X64132186Y-73902792D01*
X64131297Y-73903215D01*
X64026182Y-73903215D01*
X63999338Y-73883721D01*
X64105306Y-73883721D01*
X64106962Y-73889796D01*
X64108297Y-73891719D01*
X64114227Y-73896294D01*
X64115116Y-73895871D01*
X64113460Y-73889796D01*
X64112125Y-73887872D01*
X64106195Y-73883298D01*
X64105306Y-73883721D01*
X63999338Y-73883721D01*
X63985978Y-73874019D01*
X63985332Y-73873551D01*
X64084220Y-73873551D01*
X64087468Y-73876800D01*
X64090717Y-73873551D01*
X64087468Y-73870302D01*
X64084220Y-73873551D01*
X63985332Y-73873551D01*
X63954548Y-73851232D01*
X64059821Y-73851232D01*
X64061477Y-73857307D01*
X64062812Y-73859230D01*
X64068742Y-73863805D01*
X64069631Y-73863382D01*
X64067975Y-73857307D01*
X64066640Y-73855383D01*
X64060710Y-73850809D01*
X64059821Y-73851232D01*
X63954548Y-73851232D01*
X63927661Y-73831739D01*
X64033830Y-73831739D01*
X64035486Y-73837813D01*
X64036821Y-73839737D01*
X64042751Y-73844311D01*
X64043639Y-73843888D01*
X64041984Y-73837813D01*
X64040649Y-73835890D01*
X64034719Y-73831316D01*
X64033830Y-73831739D01*
X63927661Y-73831739D01*
X63900773Y-73812245D01*
X64007839Y-73812245D01*
X64009495Y-73818320D01*
X64010830Y-73820243D01*
X64016759Y-73824818D01*
X64017648Y-73824395D01*
X64015992Y-73818320D01*
X64014657Y-73816396D01*
X64008728Y-73811822D01*
X64007839Y-73812245D01*
X63900773Y-73812245D01*
X63882848Y-73799249D01*
X63988345Y-73799249D01*
X63990001Y-73805324D01*
X63991336Y-73807248D01*
X63997266Y-73811822D01*
X63998155Y-73811399D01*
X63996499Y-73805324D01*
X63995164Y-73803401D01*
X63989234Y-73798826D01*
X63988345Y-73799249D01*
X63882848Y-73799249D01*
X63873236Y-73792280D01*
X63855929Y-73779756D01*
X63962354Y-73779756D01*
X63964010Y-73785831D01*
X63965345Y-73787754D01*
X63971275Y-73792329D01*
X63972163Y-73791905D01*
X63970508Y-73785831D01*
X63969173Y-73783907D01*
X63963243Y-73779333D01*
X63962354Y-73779756D01*
X63855929Y-73779756D01*
X63828991Y-73760262D01*
X63936363Y-73760262D01*
X63938018Y-73766337D01*
X63939353Y-73768261D01*
X63945283Y-73772835D01*
X63946172Y-73772412D01*
X63944516Y-73766337D01*
X63943181Y-73764414D01*
X63937252Y-73759839D01*
X63936363Y-73760262D01*
X63828991Y-73760262D01*
X63802058Y-73740772D01*
X63908828Y-73740772D01*
X63914447Y-73748468D01*
X63916473Y-73750984D01*
X63925111Y-73759331D01*
X63928272Y-73757386D01*
X63925900Y-73754031D01*
X63916901Y-73746015D01*
X63912193Y-73742385D01*
X63908828Y-73740772D01*
X63802058Y-73740772D01*
X63784095Y-73727773D01*
X63890878Y-73727773D01*
X63892534Y-73733848D01*
X63893869Y-73735772D01*
X63899799Y-73740346D01*
X63900687Y-73739923D01*
X63899032Y-73733848D01*
X63897697Y-73731925D01*
X63891767Y-73727350D01*
X63890878Y-73727773D01*
X63784095Y-73727773D01*
X63769466Y-73717187D01*
X63757130Y-73708280D01*
X63864887Y-73708280D01*
X63866542Y-73714355D01*
X63867877Y-73716278D01*
X63873807Y-73720852D01*
X63874696Y-73720429D01*
X63873040Y-73714355D01*
X63871705Y-73712431D01*
X63865775Y-73707857D01*
X63864887Y-73708280D01*
X63757130Y-73708280D01*
X63730136Y-73688789D01*
X63837352Y-73688789D01*
X63842971Y-73696486D01*
X63848918Y-73703416D01*
X63854342Y-73707857D01*
X63855483Y-73707750D01*
X63855527Y-73703517D01*
X63845424Y-73694032D01*
X63840716Y-73690403D01*
X63837352Y-73688789D01*
X63730136Y-73688789D01*
X63712134Y-73675791D01*
X63819402Y-73675791D01*
X63821058Y-73681866D01*
X63822393Y-73683789D01*
X63828322Y-73688363D01*
X63829211Y-73687940D01*
X63827555Y-73681866D01*
X63826220Y-73679942D01*
X63820291Y-73675368D01*
X63819402Y-73675791D01*
X63712134Y-73675791D01*
X63685135Y-73656297D01*
X63793411Y-73656297D01*
X63795066Y-73662372D01*
X63796401Y-73664296D01*
X63802331Y-73668870D01*
X63803220Y-73668447D01*
X63801564Y-73662372D01*
X63800229Y-73660449D01*
X63794299Y-73655874D01*
X63793411Y-73656297D01*
X63685135Y-73656297D01*
X63674803Y-73648837D01*
X63671039Y-73646127D01*
X63772324Y-73646127D01*
X63775573Y-73649376D01*
X63778822Y-73646127D01*
X63775573Y-73642879D01*
X63772324Y-73646127D01*
X63671039Y-73646127D01*
X63640044Y-73623808D01*
X63747926Y-73623808D01*
X63749582Y-73629883D01*
X63750917Y-73631806D01*
X63756846Y-73636381D01*
X63757735Y-73635958D01*
X63756079Y-73629883D01*
X63754744Y-73627959D01*
X63748815Y-73623385D01*
X63747926Y-73623808D01*
X63640044Y-73623808D01*
X63612973Y-73604315D01*
X63721934Y-73604315D01*
X63723590Y-73610389D01*
X63724925Y-73612313D01*
X63730855Y-73616887D01*
X63731744Y-73616464D01*
X63730088Y-73610389D01*
X63728753Y-73608466D01*
X63722823Y-73603892D01*
X63721934Y-73604315D01*
X63612973Y-73604315D01*
X63598849Y-73594145D01*
X63700848Y-73594145D01*
X63704097Y-73597394D01*
X63707346Y-73594145D01*
X63704097Y-73590896D01*
X63700848Y-73594145D01*
X63598849Y-73594145D01*
X63589382Y-73587328D01*
X63567780Y-73571826D01*
X63676450Y-73571826D01*
X63678105Y-73577900D01*
X63679440Y-73579824D01*
X63685370Y-73584398D01*
X63686259Y-73583975D01*
X63684603Y-73577900D01*
X63683268Y-73575977D01*
X63677339Y-73571402D01*
X63676450Y-73571826D01*
X63567780Y-73571826D01*
X63540616Y-73552332D01*
X63650458Y-73552332D01*
X63652114Y-73558407D01*
X63653449Y-73560330D01*
X63659379Y-73564905D01*
X63660268Y-73564482D01*
X63658612Y-73558407D01*
X63657277Y-73556483D01*
X63651347Y-73551909D01*
X63650458Y-73552332D01*
X63540616Y-73552332D01*
X63526444Y-73542162D01*
X63629372Y-73542162D01*
X63632621Y-73545411D01*
X63635870Y-73542162D01*
X63632621Y-73538913D01*
X63629372Y-73542162D01*
X63526444Y-73542162D01*
X63513337Y-73532756D01*
X63495265Y-73519843D01*
X63604974Y-73519843D01*
X63606629Y-73525918D01*
X63607964Y-73527841D01*
X63613894Y-73532416D01*
X63614783Y-73531992D01*
X63613127Y-73525918D01*
X63611792Y-73523994D01*
X63605862Y-73519420D01*
X63604974Y-73519843D01*
X63495265Y-73519843D01*
X63467982Y-73500349D01*
X63578982Y-73500349D01*
X63580638Y-73506424D01*
X63581973Y-73508348D01*
X63587903Y-73512922D01*
X63588792Y-73512499D01*
X63587136Y-73506424D01*
X63585801Y-73504501D01*
X63579871Y-73499926D01*
X63578982Y-73500349D01*
X63467982Y-73500349D01*
X63453750Y-73490180D01*
X63557896Y-73490180D01*
X63561145Y-73493429D01*
X63564394Y-73490180D01*
X63561145Y-73486931D01*
X63557896Y-73490180D01*
X63453750Y-73490180D01*
X63446806Y-73485218D01*
X63422370Y-73467860D01*
X63533498Y-73467860D01*
X63535153Y-73473935D01*
X63536488Y-73475859D01*
X63542418Y-73480433D01*
X63543307Y-73480010D01*
X63541651Y-73473935D01*
X63540316Y-73472012D01*
X63534386Y-73467437D01*
X63533498Y-73467860D01*
X63422370Y-73467860D01*
X63394928Y-73448367D01*
X63507506Y-73448367D01*
X63509162Y-73454442D01*
X63510497Y-73456365D01*
X63516427Y-73460939D01*
X63517316Y-73460516D01*
X63515660Y-73454442D01*
X63514325Y-73452518D01*
X63508395Y-73447944D01*
X63507506Y-73448367D01*
X63394928Y-73448367D01*
X63389922Y-73444811D01*
X63367297Y-73428873D01*
X63481515Y-73428873D01*
X63483171Y-73434948D01*
X63484506Y-73436872D01*
X63490435Y-73441446D01*
X63491324Y-73441023D01*
X63489669Y-73434948D01*
X63488334Y-73433025D01*
X63482404Y-73428450D01*
X63481515Y-73428873D01*
X63367297Y-73428873D01*
X63348850Y-73415878D01*
X63462021Y-73415878D01*
X63463677Y-73421952D01*
X63465012Y-73423876D01*
X63470942Y-73428450D01*
X63471831Y-73428027D01*
X63470175Y-73421952D01*
X63468840Y-73420029D01*
X63462910Y-73415455D01*
X63462021Y-73415878D01*
X63348850Y-73415878D01*
X63342822Y-73411632D01*
X63320894Y-73396384D01*
X63436030Y-73396384D01*
X63437686Y-73402459D01*
X63439021Y-73404383D01*
X63444951Y-73408957D01*
X63445840Y-73408534D01*
X63444184Y-73402459D01*
X63442849Y-73400536D01*
X63436919Y-73395961D01*
X63436030Y-73396384D01*
X63320894Y-73396384D01*
X63305641Y-73385777D01*
X63292564Y-73376891D01*
X63410039Y-73376891D01*
X63411695Y-73382966D01*
X63413030Y-73384889D01*
X63418959Y-73389463D01*
X63419848Y-73389040D01*
X63418192Y-73382966D01*
X63416857Y-73381042D01*
X63410928Y-73376468D01*
X63410039Y-73376891D01*
X63292564Y-73376891D01*
X63278513Y-73367343D01*
X63263083Y-73357400D01*
X63382504Y-73357400D01*
X63388123Y-73365097D01*
X63394071Y-73372027D01*
X63399495Y-73376468D01*
X63400635Y-73376361D01*
X63400679Y-73372128D01*
X63390577Y-73362643D01*
X63385869Y-73359013D01*
X63382504Y-73357400D01*
X63263083Y-73357400D01*
X63261575Y-73356428D01*
X63254962Y-73353127D01*
X63254327Y-73353495D01*
X63245461Y-73359622D01*
X63237449Y-73365335D01*
X63226794Y-73372932D01*
X63210267Y-73384828D01*
X63198869Y-73393032D01*
X63183255Y-73404322D01*
X63167791Y-73415504D01*
X63162227Y-73419527D01*
X63138390Y-73436811D01*
X63117409Y-73452024D01*
X63111517Y-73456304D01*
X63096123Y-73467487D01*
X63066793Y-73488793D01*
X63064957Y-73490127D01*
X63039993Y-73508287D01*
X63013197Y-73527780D01*
X63005411Y-73533444D01*
X62997833Y-73538963D01*
X62968576Y-73560269D01*
X62941808Y-73579763D01*
X62939314Y-73581579D01*
X62915063Y-73599256D01*
X62899721Y-73610439D01*
X62870490Y-73631745D01*
X62867206Y-73634139D01*
X62843765Y-73651239D01*
X62828436Y-73662421D01*
X62801713Y-73681915D01*
X62789629Y-73690730D01*
X62772516Y-73703222D01*
X62745812Y-73722715D01*
X62730494Y-73733897D01*
X62707124Y-73750956D01*
X62701308Y-73755204D01*
X62674620Y-73774698D01*
X62647934Y-73794191D01*
X62632624Y-73805374D01*
X62620233Y-73814425D01*
X62603465Y-73826680D01*
X62576793Y-73846174D01*
X62550122Y-73865667D01*
X62534821Y-73876850D01*
X62529497Y-73880741D01*
X62505683Y-73898156D01*
X62479026Y-73917650D01*
X62463735Y-73928832D01*
X62435457Y-73949511D01*
X62434599Y-73950139D01*
X62407958Y-73969632D01*
X62381316Y-73989126D01*
X62366033Y-74000308D01*
X62338654Y-74020341D01*
X62336913Y-74021615D01*
X62311722Y-74040051D01*
X62310277Y-74041108D01*
X62283627Y-74060602D01*
X62268340Y-74071784D01*
X62239211Y-74093091D01*
X62215781Y-74110230D01*
X62212559Y-74112585D01*
X62197262Y-74123767D01*
X62168113Y-74145074D01*
X62141446Y-74164567D01*
X62122825Y-74178178D01*
X62114771Y-74184061D01*
X62099462Y-74195243D01*
X62070290Y-74216550D01*
X62043602Y-74236043D01*
X62033389Y-74243503D01*
X62016901Y-74255537D01*
X62001580Y-74266719D01*
X61972387Y-74288026D01*
X61948008Y-74305819D01*
X61945677Y-74307519D01*
X61930342Y-74318702D01*
X61901125Y-74340008D01*
X61874393Y-74359502D01*
X61867218Y-74364734D01*
X61847644Y-74378995D01*
X61832294Y-74390178D01*
X61803049Y-74411485D01*
X61791555Y-74419859D01*
X61776277Y-74430978D01*
X61749492Y-74450472D01*
X61734128Y-74461654D01*
X61721553Y-74470806D01*
X61704831Y-74482961D01*
X61678014Y-74502454D01*
X61657749Y-74517184D01*
X61651185Y-74521948D01*
X61600679Y-74558606D01*
X61550876Y-74594680D01*
X61508878Y-74625018D01*
X61475219Y-74649231D01*
X61450435Y-74666930D01*
X61435062Y-74677724D01*
X61429634Y-74681224D01*
X61429699Y-74680710D01*
X61432338Y-74671134D01*
X61438616Y-74649960D01*
X61448335Y-74617821D01*
X61461301Y-74575352D01*
X61475157Y-74530215D01*
X61537072Y-74530215D01*
X61537135Y-74531124D01*
X61540897Y-74532555D01*
X61547439Y-74525579D01*
X61549020Y-74521948D01*
X61544574Y-74522713D01*
X61541687Y-74524719D01*
X61537072Y-74530215D01*
X61475157Y-74530215D01*
X61477315Y-74523185D01*
X61481155Y-74510722D01*
X61563063Y-74510722D01*
X61563127Y-74511630D01*
X61566888Y-74513061D01*
X61573430Y-74506085D01*
X61575011Y-74502454D01*
X61570565Y-74503220D01*
X61567679Y-74505226D01*
X61563063Y-74510722D01*
X61481155Y-74510722D01*
X61487162Y-74491228D01*
X61589055Y-74491228D01*
X61589118Y-74492137D01*
X61592879Y-74493568D01*
X61599422Y-74486592D01*
X61601003Y-74482961D01*
X61596556Y-74483726D01*
X61593670Y-74485732D01*
X61589055Y-74491228D01*
X61487162Y-74491228D01*
X61491040Y-74478645D01*
X61608548Y-74478645D01*
X61608655Y-74479785D01*
X61612888Y-74479829D01*
X61622373Y-74469727D01*
X61626002Y-74465019D01*
X61627616Y-74461654D01*
X61619919Y-74467274D01*
X61612988Y-74473221D01*
X61608548Y-74478645D01*
X61491040Y-74478645D01*
X61496183Y-74461955D01*
X61497177Y-74458739D01*
X61634539Y-74458739D01*
X61634603Y-74459648D01*
X61638364Y-74461078D01*
X61644907Y-74454103D01*
X61646488Y-74450472D01*
X61642041Y-74451237D01*
X61639155Y-74453243D01*
X61634539Y-74458739D01*
X61497177Y-74458739D01*
X61503200Y-74439246D01*
X61660531Y-74439246D01*
X61660594Y-74440154D01*
X61664355Y-74441585D01*
X61670898Y-74434609D01*
X61672479Y-74430978D01*
X61668032Y-74431744D01*
X61665146Y-74433750D01*
X61660531Y-74439246D01*
X61503200Y-74439246D01*
X61509224Y-74419752D01*
X61686522Y-74419752D01*
X61686585Y-74420661D01*
X61690347Y-74422092D01*
X61696889Y-74415116D01*
X61698470Y-74411485D01*
X61694024Y-74412250D01*
X61691137Y-74414256D01*
X61686522Y-74419752D01*
X61509224Y-74419752D01*
X61513112Y-74407169D01*
X61706015Y-74407169D01*
X61706122Y-74408309D01*
X61710356Y-74408353D01*
X61719840Y-74398251D01*
X61723470Y-74393543D01*
X61725083Y-74390178D01*
X61717387Y-74395797D01*
X61710456Y-74401745D01*
X61706015Y-74407169D01*
X61513112Y-74407169D01*
X61517708Y-74392295D01*
X61519266Y-74387263D01*
X61732007Y-74387263D01*
X61732070Y-74388171D01*
X61735831Y-74389602D01*
X61742374Y-74382627D01*
X61743955Y-74378995D01*
X61739509Y-74379761D01*
X61736622Y-74381767D01*
X61732007Y-74387263D01*
X61519266Y-74387263D01*
X61525303Y-74367770D01*
X61757998Y-74367770D01*
X61758061Y-74368678D01*
X61761823Y-74370109D01*
X61768365Y-74363133D01*
X61769946Y-74359502D01*
X61765500Y-74360268D01*
X61762613Y-74362274D01*
X61757998Y-74367770D01*
X61525303Y-74367770D01*
X61531340Y-74348276D01*
X61783989Y-74348276D01*
X61784053Y-74349184D01*
X61787814Y-74350615D01*
X61794357Y-74343640D01*
X61795938Y-74340008D01*
X61791491Y-74340774D01*
X61788605Y-74342780D01*
X61783989Y-74348276D01*
X61531340Y-74348276D01*
X61535237Y-74335693D01*
X61803483Y-74335693D01*
X61803589Y-74336833D01*
X61807823Y-74336877D01*
X61817307Y-74326775D01*
X61820937Y-74322067D01*
X61822551Y-74318702D01*
X61814854Y-74324321D01*
X61807923Y-74330269D01*
X61803483Y-74335693D01*
X61535237Y-74335693D01*
X61541401Y-74315787D01*
X61829474Y-74315787D01*
X61829537Y-74316695D01*
X61833299Y-74318126D01*
X61839841Y-74311151D01*
X61841422Y-74307519D01*
X61836976Y-74308285D01*
X61834089Y-74310291D01*
X61829474Y-74315787D01*
X61541401Y-74315787D01*
X61541695Y-74314838D01*
X61547448Y-74296294D01*
X61855465Y-74296294D01*
X61855529Y-74297202D01*
X61859290Y-74298633D01*
X61865833Y-74291657D01*
X61867414Y-74288026D01*
X61862967Y-74288792D01*
X61860081Y-74290798D01*
X61855465Y-74296294D01*
X61547448Y-74296294D01*
X61551352Y-74283710D01*
X61874959Y-74283710D01*
X61875066Y-74284850D01*
X61879299Y-74284894D01*
X61888783Y-74274792D01*
X61892413Y-74270084D01*
X61894027Y-74266719D01*
X61886330Y-74272339D01*
X61879399Y-74278286D01*
X61874959Y-74283710D01*
X61551352Y-74283710D01*
X61557527Y-74263804D01*
X61900950Y-74263804D01*
X61901013Y-74264713D01*
X61904775Y-74266144D01*
X61911317Y-74259168D01*
X61912898Y-74255537D01*
X61908452Y-74256303D01*
X61905565Y-74258308D01*
X61900950Y-74263804D01*
X61557527Y-74263804D01*
X61563574Y-74244311D01*
X61926941Y-74244311D01*
X61927005Y-74245219D01*
X61930766Y-74246650D01*
X61937309Y-74239675D01*
X61938890Y-74236043D01*
X61934443Y-74236809D01*
X61931557Y-74238815D01*
X61926941Y-74244311D01*
X61563574Y-74244311D01*
X61567946Y-74230218D01*
X61569624Y-74224817D01*
X61952933Y-74224817D01*
X61952996Y-74225726D01*
X61956757Y-74227157D01*
X61963300Y-74220181D01*
X61964881Y-74216550D01*
X61960435Y-74217316D01*
X61957548Y-74219321D01*
X61952933Y-74224817D01*
X61569624Y-74224817D01*
X61573534Y-74212234D01*
X61972426Y-74212234D01*
X61972533Y-74213374D01*
X61976766Y-74213418D01*
X61986251Y-74203316D01*
X61989881Y-74198608D01*
X61991494Y-74195243D01*
X61983797Y-74200863D01*
X61976867Y-74206810D01*
X61972426Y-74212234D01*
X61573534Y-74212234D01*
X61579719Y-74192328D01*
X61998418Y-74192328D01*
X61998481Y-74193237D01*
X62002242Y-74194668D01*
X62008785Y-74187692D01*
X62010366Y-74184061D01*
X62005919Y-74184827D01*
X62003033Y-74186832D01*
X61998418Y-74192328D01*
X61579719Y-74192328D01*
X61585775Y-74172835D01*
X62024409Y-74172835D01*
X62024472Y-74173743D01*
X62028233Y-74175174D01*
X62034776Y-74168198D01*
X62036357Y-74164567D01*
X62031911Y-74165333D01*
X62029024Y-74167339D01*
X62024409Y-74172835D01*
X61585775Y-74172835D01*
X61591832Y-74153341D01*
X62050400Y-74153341D01*
X62050463Y-74154250D01*
X62054225Y-74155681D01*
X62060767Y-74148705D01*
X62062348Y-74145074D01*
X62057902Y-74145840D01*
X62055015Y-74147845D01*
X62050400Y-74153341D01*
X61591832Y-74153341D01*
X61595742Y-74140758D01*
X62069894Y-74140758D01*
X62070000Y-74141898D01*
X62074234Y-74141942D01*
X62083718Y-74131840D01*
X62087348Y-74127132D01*
X62088961Y-74123767D01*
X62081265Y-74129387D01*
X62074334Y-74135334D01*
X62069894Y-74140758D01*
X61595742Y-74140758D01*
X61596266Y-74139070D01*
X61601934Y-74120852D01*
X62095885Y-74120852D01*
X62095948Y-74121761D01*
X62099710Y-74123192D01*
X62106252Y-74116216D01*
X62107833Y-74112585D01*
X62103387Y-74113350D01*
X62100500Y-74115356D01*
X62095885Y-74120852D01*
X61601934Y-74120852D01*
X61607998Y-74101359D01*
X62121876Y-74101359D01*
X62121940Y-74102267D01*
X62125701Y-74103698D01*
X62132243Y-74096722D01*
X62133824Y-74093091D01*
X62129378Y-74093857D01*
X62126492Y-74095863D01*
X62121876Y-74101359D01*
X61607998Y-74101359D01*
X61611913Y-74088775D01*
X62141370Y-74088775D01*
X62141476Y-74089915D01*
X62145710Y-74089959D01*
X62155194Y-74079857D01*
X62158824Y-74075149D01*
X62160438Y-74071784D01*
X62152741Y-74077404D01*
X62145810Y-74083351D01*
X62141370Y-74088775D01*
X61611913Y-74088775D01*
X61618106Y-74068870D01*
X62167361Y-74068870D01*
X62167424Y-74069778D01*
X62171186Y-74071209D01*
X62177728Y-74064233D01*
X62179309Y-74060602D01*
X62174863Y-74061368D01*
X62171976Y-74063374D01*
X62167361Y-74068870D01*
X61618106Y-74068870D01*
X61624171Y-74049376D01*
X62193352Y-74049376D01*
X62193416Y-74050285D01*
X62197177Y-74051715D01*
X62203720Y-74044740D01*
X62205301Y-74041108D01*
X62200854Y-74041874D01*
X62197968Y-74043880D01*
X62193352Y-74049376D01*
X61624171Y-74049376D01*
X61626458Y-74042025D01*
X61630240Y-74029883D01*
X62219344Y-74029883D01*
X62219407Y-74030791D01*
X62223168Y-74032222D01*
X62229711Y-74025246D01*
X62231292Y-74021615D01*
X62226845Y-74022381D01*
X62223959Y-74024387D01*
X62219344Y-74029883D01*
X61630240Y-74029883D01*
X61634160Y-74017299D01*
X62238837Y-74017299D01*
X62238944Y-74018439D01*
X62243177Y-74018483D01*
X62252662Y-74008381D01*
X62256291Y-74003673D01*
X62257905Y-74000308D01*
X62250208Y-74005928D01*
X62243278Y-74011875D01*
X62238837Y-74017299D01*
X61634160Y-74017299D01*
X61640361Y-73997394D01*
X62264828Y-73997394D01*
X62264892Y-73998302D01*
X62268653Y-73999733D01*
X62275196Y-73992757D01*
X62276777Y-73989126D01*
X62272330Y-73989892D01*
X62269444Y-73991898D01*
X62264828Y-73997394D01*
X61640361Y-73997394D01*
X61646433Y-73977900D01*
X62290820Y-73977900D01*
X62290883Y-73978808D01*
X62294644Y-73980239D01*
X62301187Y-73973264D01*
X62302768Y-73969632D01*
X62298322Y-73970398D01*
X62295435Y-73972404D01*
X62290820Y-73977900D01*
X61646433Y-73977900D01*
X61652505Y-73958407D01*
X62316811Y-73958407D01*
X62316874Y-73959315D01*
X62320636Y-73960746D01*
X62327178Y-73953770D01*
X62328759Y-73950139D01*
X62324313Y-73950905D01*
X62321426Y-73952911D01*
X62316811Y-73958407D01*
X61652505Y-73958407D01*
X61656425Y-73945823D01*
X62336305Y-73945823D01*
X62336411Y-73946963D01*
X62340645Y-73947007D01*
X62350129Y-73936905D01*
X62353759Y-73932197D01*
X62355372Y-73928832D01*
X62347676Y-73934452D01*
X62340745Y-73940399D01*
X62336305Y-73945823D01*
X61656425Y-73945823D01*
X61658327Y-73939719D01*
X61662631Y-73925917D01*
X62362296Y-73925917D01*
X62362359Y-73926826D01*
X62366120Y-73928257D01*
X62372663Y-73921281D01*
X62374244Y-73917650D01*
X62369798Y-73918416D01*
X62366911Y-73920421D01*
X62362296Y-73925917D01*
X61662631Y-73925917D01*
X61668710Y-73906424D01*
X62388287Y-73906424D01*
X62388350Y-73907332D01*
X62392112Y-73908763D01*
X62398654Y-73901788D01*
X62400235Y-73898156D01*
X62395789Y-73898922D01*
X62392902Y-73900928D01*
X62388287Y-73906424D01*
X61668710Y-73906424D01*
X61672635Y-73893840D01*
X62407781Y-73893840D01*
X62407887Y-73894981D01*
X62412121Y-73895025D01*
X62421605Y-73884923D01*
X62425235Y-73880215D01*
X62426848Y-73876850D01*
X62419152Y-73882469D01*
X62412221Y-73888416D01*
X62407781Y-73893840D01*
X61672635Y-73893840D01*
X61678843Y-73873935D01*
X62433772Y-73873935D01*
X62433835Y-73874843D01*
X62437596Y-73876274D01*
X62444139Y-73869298D01*
X62445720Y-73865667D01*
X62441274Y-73866433D01*
X62438387Y-73868439D01*
X62433772Y-73873935D01*
X61678843Y-73873935D01*
X61684922Y-73854441D01*
X62459763Y-73854441D01*
X62459826Y-73855350D01*
X62463588Y-73856781D01*
X62470130Y-73849805D01*
X62471711Y-73846174D01*
X62467265Y-73846940D01*
X62464378Y-73848945D01*
X62459763Y-73854441D01*
X61684922Y-73854441D01*
X61691001Y-73834948D01*
X62485754Y-73834948D01*
X62485818Y-73835856D01*
X62489579Y-73837287D01*
X62496122Y-73830312D01*
X62497703Y-73826680D01*
X62493256Y-73827446D01*
X62490370Y-73829452D01*
X62485754Y-73834948D01*
X61691001Y-73834948D01*
X61691676Y-73832784D01*
X61694929Y-73822364D01*
X62505248Y-73822364D01*
X62505355Y-73823505D01*
X62509588Y-73823549D01*
X62519072Y-73813446D01*
X62522702Y-73808738D01*
X62524316Y-73805374D01*
X62516619Y-73810993D01*
X62509688Y-73816940D01*
X62505248Y-73822364D01*
X61694929Y-73822364D01*
X61701144Y-73802459D01*
X62531239Y-73802459D01*
X62531303Y-73803367D01*
X62535064Y-73804798D01*
X62541606Y-73797822D01*
X62543187Y-73794191D01*
X62538741Y-73794957D01*
X62535855Y-73796963D01*
X62531239Y-73802459D01*
X61701144Y-73802459D01*
X61707230Y-73782965D01*
X62557231Y-73782965D01*
X62557294Y-73783874D01*
X62561055Y-73785305D01*
X62567598Y-73778329D01*
X62569179Y-73774698D01*
X62564732Y-73775463D01*
X62561846Y-73777469D01*
X62557231Y-73782965D01*
X61707230Y-73782965D01*
X61713316Y-73763472D01*
X62583222Y-73763472D01*
X62583285Y-73764380D01*
X62587046Y-73765811D01*
X62593589Y-73758835D01*
X62595170Y-73755204D01*
X62590724Y-73755970D01*
X62587837Y-73757976D01*
X62583222Y-73763472D01*
X61713316Y-73763472D01*
X61717245Y-73750888D01*
X62602715Y-73750888D01*
X62602822Y-73752028D01*
X62607056Y-73752072D01*
X62616540Y-73741970D01*
X62620170Y-73737262D01*
X62621783Y-73733897D01*
X62614087Y-73739517D01*
X62607156Y-73745464D01*
X62602715Y-73750888D01*
X61717245Y-73750888D01*
X61723460Y-73730983D01*
X62628707Y-73730983D01*
X62628770Y-73731891D01*
X62632531Y-73733322D01*
X62639074Y-73726346D01*
X62640655Y-73722715D01*
X62636208Y-73723481D01*
X62633322Y-73725487D01*
X62628707Y-73730983D01*
X61723460Y-73730983D01*
X61726310Y-73721854D01*
X61729550Y-73711489D01*
X62654698Y-73711489D01*
X62654761Y-73712398D01*
X62658523Y-73713829D01*
X62665065Y-73706853D01*
X62666646Y-73703222D01*
X62662200Y-73703987D01*
X62659313Y-73705993D01*
X62654698Y-73711489D01*
X61729550Y-73711489D01*
X61733483Y-73698906D01*
X62674191Y-73698906D01*
X62674298Y-73700046D01*
X62678532Y-73700090D01*
X62688016Y-73689988D01*
X62691646Y-73685280D01*
X62693259Y-73681915D01*
X62685563Y-73687535D01*
X62678632Y-73693482D01*
X62674191Y-73698906D01*
X61733483Y-73698906D01*
X61739576Y-73679412D01*
X62700183Y-73679412D01*
X62700289Y-73680552D01*
X62704523Y-73680596D01*
X62714007Y-73670494D01*
X62717637Y-73665786D01*
X62719251Y-73662421D01*
X62711554Y-73668041D01*
X62704623Y-73673988D01*
X62700183Y-73679412D01*
X61739576Y-73679412D01*
X61745797Y-73659507D01*
X62726174Y-73659507D01*
X62726237Y-73660415D01*
X62729999Y-73661846D01*
X62736541Y-73654870D01*
X62738122Y-73651239D01*
X62733676Y-73652005D01*
X62730789Y-73654011D01*
X62726174Y-73659507D01*
X61745797Y-73659507D01*
X61751889Y-73640013D01*
X62752165Y-73640013D01*
X62752229Y-73640922D01*
X62755990Y-73642352D01*
X62762533Y-73635377D01*
X62764114Y-73631745D01*
X62759667Y-73632511D01*
X62756781Y-73634517D01*
X62752165Y-73640013D01*
X61751889Y-73640013D01*
X61755822Y-73627430D01*
X62771659Y-73627430D01*
X62771765Y-73628570D01*
X62775999Y-73628614D01*
X62785483Y-73618512D01*
X62789113Y-73613804D01*
X62790727Y-73610439D01*
X62783030Y-73616058D01*
X62776099Y-73622006D01*
X62771659Y-73627430D01*
X61755822Y-73627430D01*
X61762031Y-73607563D01*
X61762043Y-73607524D01*
X62797650Y-73607524D01*
X62797713Y-73608432D01*
X62801475Y-73609863D01*
X62808017Y-73602888D01*
X62809598Y-73599256D01*
X62805152Y-73600022D01*
X62802265Y-73602028D01*
X62797650Y-73607524D01*
X61762043Y-73607524D01*
X61768138Y-73588031D01*
X62823641Y-73588031D01*
X62823705Y-73588939D01*
X62827466Y-73590370D01*
X62834009Y-73583394D01*
X62835590Y-73579763D01*
X62831143Y-73580529D01*
X62828257Y-73582535D01*
X62823641Y-73588031D01*
X61768138Y-73588031D01*
X61774233Y-73568537D01*
X62849633Y-73568537D01*
X62849696Y-73569445D01*
X62853457Y-73570876D01*
X62860000Y-73563901D01*
X62861581Y-73560269D01*
X62857135Y-73561035D01*
X62854248Y-73563041D01*
X62849633Y-73568537D01*
X61774233Y-73568537D01*
X61778167Y-73555954D01*
X62869126Y-73555954D01*
X62869233Y-73557094D01*
X62873466Y-73557138D01*
X62882951Y-73547036D01*
X62886581Y-73542328D01*
X62888194Y-73538963D01*
X62880497Y-73544582D01*
X62873567Y-73550530D01*
X62869126Y-73555954D01*
X61778167Y-73555954D01*
X61784391Y-73536048D01*
X62895117Y-73536048D01*
X62895181Y-73536956D01*
X62898942Y-73538387D01*
X62905485Y-73531412D01*
X62907066Y-73527780D01*
X62902619Y-73528546D01*
X62899733Y-73530552D01*
X62895117Y-73536048D01*
X61784391Y-73536048D01*
X61790487Y-73516554D01*
X62921109Y-73516554D01*
X62921172Y-73517463D01*
X62924933Y-73518894D01*
X62931476Y-73511918D01*
X62933057Y-73508287D01*
X62928611Y-73509053D01*
X62925724Y-73511058D01*
X62921109Y-73516554D01*
X61790487Y-73516554D01*
X61796582Y-73497061D01*
X62947100Y-73497061D01*
X62947163Y-73497969D01*
X62950925Y-73499400D01*
X62957467Y-73492425D01*
X62959048Y-73488793D01*
X62954602Y-73489559D01*
X62951715Y-73491565D01*
X62947100Y-73497061D01*
X61796582Y-73497061D01*
X61800517Y-73484477D01*
X62966594Y-73484477D01*
X62966700Y-73485618D01*
X62970934Y-73485662D01*
X62980418Y-73475560D01*
X62984048Y-73470851D01*
X62985661Y-73467487D01*
X62977965Y-73473106D01*
X62971034Y-73479053D01*
X62966594Y-73484477D01*
X61800517Y-73484477D01*
X61803164Y-73476012D01*
X61806740Y-73464572D01*
X62992585Y-73464572D01*
X62992648Y-73465480D01*
X62996409Y-73466911D01*
X63002952Y-73459935D01*
X63004533Y-73456304D01*
X63000087Y-73457070D01*
X62997200Y-73459076D01*
X62992585Y-73464572D01*
X61806740Y-73464572D01*
X61812833Y-73445078D01*
X63018576Y-73445078D01*
X63018639Y-73445987D01*
X63022401Y-73447418D01*
X63028943Y-73440442D01*
X63030524Y-73436811D01*
X63026078Y-73437577D01*
X63023191Y-73439582D01*
X63018576Y-73445078D01*
X61812833Y-73445078D01*
X61816766Y-73432495D01*
X63038070Y-73432495D01*
X63038176Y-73433635D01*
X63042410Y-73433679D01*
X63051894Y-73423577D01*
X63055524Y-73418869D01*
X63057137Y-73415504D01*
X63049441Y-73421124D01*
X63042510Y-73427071D01*
X63038070Y-73432495D01*
X61816766Y-73432495D01*
X61822988Y-73412589D01*
X63064061Y-73412589D01*
X63064124Y-73413498D01*
X63067886Y-73414929D01*
X63074428Y-73407953D01*
X63076009Y-73404322D01*
X63071563Y-73405087D01*
X63068676Y-73407093D01*
X63064061Y-73412589D01*
X61822988Y-73412589D01*
X61829081Y-73393096D01*
X63090052Y-73393096D01*
X63090116Y-73394004D01*
X63093877Y-73395435D01*
X63100419Y-73388459D01*
X63102000Y-73384828D01*
X63097554Y-73385594D01*
X63094668Y-73387600D01*
X63090052Y-73393096D01*
X61829081Y-73393096D01*
X61835174Y-73373602D01*
X63116044Y-73373602D01*
X63116107Y-73374511D01*
X63119868Y-73375942D01*
X63126411Y-73368966D01*
X63127992Y-73365335D01*
X63123545Y-73366100D01*
X63120659Y-73368106D01*
X63116044Y-73373602D01*
X61835174Y-73373602D01*
X61839107Y-73361019D01*
X63135537Y-73361019D01*
X63135644Y-73362159D01*
X63139877Y-73362203D01*
X63149362Y-73352101D01*
X63152991Y-73347393D01*
X63154426Y-73344402D01*
X63364554Y-73344402D01*
X63366210Y-73350476D01*
X63367545Y-73352400D01*
X63373475Y-73356974D01*
X63374363Y-73356551D01*
X63372708Y-73350476D01*
X63371373Y-73348553D01*
X63365443Y-73343979D01*
X63365340Y-73344028D01*
X63364554Y-73344402D01*
X63154426Y-73344402D01*
X63154605Y-73344028D01*
X63146908Y-73349648D01*
X63139977Y-73355595D01*
X63135537Y-73361019D01*
X61839107Y-73361019D01*
X61841808Y-73352378D01*
X61845327Y-73341113D01*
X63161528Y-73341113D01*
X63161592Y-73342022D01*
X63165353Y-73343453D01*
X63171896Y-73336477D01*
X63173477Y-73332846D01*
X63169030Y-73333611D01*
X63166144Y-73335617D01*
X63161528Y-73341113D01*
X61845327Y-73341113D01*
X61850389Y-73324908D01*
X63338563Y-73324908D01*
X63340219Y-73330983D01*
X63341512Y-73332846D01*
X63341554Y-73332906D01*
X63347483Y-73337481D01*
X63348372Y-73337058D01*
X63346716Y-73330983D01*
X63345381Y-73329059D01*
X63339452Y-73324485D01*
X63338563Y-73324908D01*
X61850389Y-73324908D01*
X61851416Y-73321620D01*
X63187520Y-73321620D01*
X63187583Y-73322528D01*
X63191344Y-73323959D01*
X63197887Y-73316983D01*
X63198865Y-73314738D01*
X63317476Y-73314738D01*
X63320725Y-73317987D01*
X63323974Y-73314738D01*
X63320725Y-73311489D01*
X63317476Y-73314738D01*
X63198865Y-73314738D01*
X63199468Y-73313352D01*
X63195021Y-73314118D01*
X63192135Y-73316124D01*
X63187520Y-73321620D01*
X61851416Y-73321620D01*
X61857505Y-73302126D01*
X63213511Y-73302126D01*
X63213574Y-73303035D01*
X63217336Y-73304466D01*
X63223878Y-73297490D01*
X63225459Y-73293859D01*
X63221013Y-73294624D01*
X63218126Y-73296630D01*
X63213511Y-73302126D01*
X61857505Y-73302126D01*
X61860537Y-73292419D01*
X63293078Y-73292419D01*
X63293471Y-73293859D01*
X63294734Y-73298494D01*
X63296069Y-73300417D01*
X63301999Y-73304992D01*
X63302887Y-73304569D01*
X63301232Y-73298494D01*
X63299897Y-73296570D01*
X63293967Y-73291996D01*
X63293078Y-73292419D01*
X61860537Y-73292419D01*
X61861435Y-73289543D01*
X63233004Y-73289543D01*
X63233111Y-73290683D01*
X63237345Y-73290727D01*
X63246829Y-73280625D01*
X63250459Y-73275917D01*
X63251893Y-73272926D01*
X63267087Y-73272926D01*
X63268742Y-73279000D01*
X63270077Y-73280924D01*
X63276007Y-73285498D01*
X63276896Y-73285075D01*
X63275240Y-73279000D01*
X63273905Y-73277077D01*
X63267976Y-73272503D01*
X63267873Y-73272552D01*
X63267087Y-73272926D01*
X63251893Y-73272926D01*
X63252072Y-73272552D01*
X63244376Y-73278172D01*
X63237445Y-73284119D01*
X63233004Y-73289543D01*
X61861435Y-73289543D01*
X61876890Y-73240062D01*
X61908575Y-73138513D01*
X61937028Y-73047182D01*
X61962411Y-72965519D01*
X61984890Y-72892973D01*
X62004628Y-72828996D01*
X62021789Y-72773037D01*
X62036537Y-72724547D01*
X62049038Y-72682976D01*
X62059453Y-72647773D01*
X62067949Y-72618390D01*
X62074688Y-72594276D01*
X62079834Y-72574882D01*
X62083553Y-72559658D01*
X62086008Y-72548053D01*
X62087362Y-72539519D01*
X62087781Y-72533505D01*
X62087427Y-72529462D01*
X62086466Y-72526839D01*
X62085061Y-72525088D01*
X62084859Y-72524908D01*
X62077317Y-72519066D01*
X62059922Y-72505961D01*
X62034145Y-72486689D01*
X62142963Y-72486689D01*
X62144619Y-72492763D01*
X62145954Y-72494687D01*
X62151883Y-72499261D01*
X62152772Y-72498838D01*
X62151116Y-72492763D01*
X62149782Y-72490840D01*
X62143852Y-72486266D01*
X62142963Y-72486689D01*
X62034145Y-72486689D01*
X62033222Y-72485999D01*
X62007981Y-72467198D01*
X62115428Y-72467198D01*
X62121047Y-72474894D01*
X62126995Y-72481825D01*
X62132419Y-72486266D01*
X62133559Y-72486159D01*
X62133588Y-72483400D01*
X64350630Y-72483400D01*
X64350694Y-72484309D01*
X64354455Y-72485740D01*
X64360998Y-72478764D01*
X64362579Y-72475133D01*
X64358132Y-72475898D01*
X64355246Y-72477904D01*
X64351869Y-72481925D01*
X64350630Y-72483400D01*
X62133588Y-72483400D01*
X62133603Y-72481925D01*
X62123501Y-72472441D01*
X62118793Y-72468811D01*
X62115428Y-72467198D01*
X62007981Y-72467198D01*
X61997762Y-72459586D01*
X61981777Y-72447704D01*
X62089436Y-72447704D01*
X62095056Y-72455401D01*
X62101003Y-72462332D01*
X62106427Y-72466772D01*
X62107568Y-72466665D01*
X62107596Y-72463907D01*
X64376622Y-72463907D01*
X64376685Y-72464815D01*
X64380446Y-72466246D01*
X64386989Y-72459270D01*
X64388570Y-72455639D01*
X64384124Y-72456405D01*
X64381237Y-72458411D01*
X64377861Y-72462432D01*
X64376622Y-72463907D01*
X62107596Y-72463907D01*
X62107611Y-72462432D01*
X62097509Y-72452948D01*
X62092801Y-72449318D01*
X62089436Y-72447704D01*
X61981777Y-72447704D01*
X61964290Y-72434706D01*
X62071487Y-72434706D01*
X62073143Y-72440781D01*
X62074478Y-72442704D01*
X62080407Y-72447279D01*
X62081296Y-72446856D01*
X62080630Y-72444413D01*
X64402613Y-72444413D01*
X64402676Y-72445322D01*
X64406438Y-72446753D01*
X64412980Y-72439777D01*
X64414561Y-72436146D01*
X64410115Y-72436911D01*
X64407228Y-72438917D01*
X64402613Y-72444413D01*
X62080630Y-72444413D01*
X62079640Y-72440781D01*
X62078305Y-72438857D01*
X62072376Y-72434283D01*
X62071487Y-72434706D01*
X61964290Y-72434706D01*
X61954092Y-72427126D01*
X61938041Y-72415213D01*
X62045495Y-72415213D01*
X62047151Y-72421287D01*
X62048486Y-72423211D01*
X62054416Y-72427785D01*
X62055305Y-72427362D01*
X62054639Y-72424920D01*
X64428604Y-72424920D01*
X64428668Y-72425828D01*
X64432429Y-72427259D01*
X64438972Y-72420283D01*
X64440553Y-72416652D01*
X64436106Y-72417418D01*
X64433220Y-72419424D01*
X64428604Y-72424920D01*
X62054639Y-72424920D01*
X62053649Y-72421287D01*
X62052314Y-72419364D01*
X62046384Y-72414790D01*
X62045495Y-72415213D01*
X61938041Y-72415213D01*
X61911777Y-72395719D01*
X62019504Y-72395719D01*
X62021160Y-72401794D01*
X62022495Y-72403717D01*
X62028425Y-72408292D01*
X62029314Y-72407869D01*
X62028648Y-72405426D01*
X64454596Y-72405426D01*
X64454659Y-72406335D01*
X64458420Y-72407766D01*
X64464963Y-72400790D01*
X64466544Y-72397159D01*
X64462097Y-72397924D01*
X64459211Y-72399930D01*
X64454596Y-72405426D01*
X62028648Y-72405426D01*
X62027658Y-72401794D01*
X62026323Y-72399870D01*
X62020393Y-72395296D01*
X62019504Y-72395719D01*
X61911777Y-72395719D01*
X61902758Y-72389025D01*
X61885495Y-72376226D01*
X61993513Y-72376226D01*
X61995169Y-72382300D01*
X61996504Y-72384224D01*
X62002433Y-72388798D01*
X62003322Y-72388375D01*
X62001666Y-72382300D01*
X62000332Y-72380377D01*
X61999111Y-72379435D01*
X64487085Y-72379435D01*
X64487148Y-72380343D01*
X64490909Y-72381774D01*
X64497452Y-72374799D01*
X64499033Y-72371167D01*
X64497321Y-72371462D01*
X64494587Y-72371933D01*
X64491700Y-72373939D01*
X64487085Y-72379435D01*
X61999111Y-72379435D01*
X61994402Y-72375803D01*
X61993513Y-72376226D01*
X61885495Y-72376226D01*
X61859206Y-72356735D01*
X61965978Y-72356735D01*
X61971597Y-72364431D01*
X61977545Y-72371362D01*
X61982969Y-72375803D01*
X61984109Y-72375696D01*
X61984153Y-72371462D01*
X61974051Y-72361978D01*
X61971410Y-72359942D01*
X64513076Y-72359942D01*
X64513139Y-72360850D01*
X64516901Y-72362281D01*
X64523443Y-72355305D01*
X64525024Y-72351674D01*
X64523312Y-72351969D01*
X64520578Y-72352440D01*
X64517691Y-72354446D01*
X64513076Y-72359942D01*
X61971410Y-72359942D01*
X61969343Y-72358348D01*
X61965978Y-72356735D01*
X61859206Y-72356735D01*
X61844307Y-72345689D01*
X61832903Y-72337241D01*
X61939987Y-72337241D01*
X61945606Y-72344938D01*
X61951553Y-72351869D01*
X61956977Y-72356309D01*
X61958118Y-72356202D01*
X61958161Y-72351969D01*
X61948059Y-72342485D01*
X61945417Y-72340448D01*
X64539067Y-72340448D01*
X64539131Y-72341356D01*
X64542892Y-72342787D01*
X64549435Y-72335812D01*
X64551016Y-72332180D01*
X64546569Y-72332946D01*
X64543683Y-72334952D01*
X64542473Y-72336393D01*
X64539067Y-72340448D01*
X61945417Y-72340448D01*
X61943351Y-72338855D01*
X61939987Y-72337241D01*
X61832903Y-72337241D01*
X61815357Y-72324243D01*
X61922037Y-72324243D01*
X61923693Y-72330318D01*
X61925028Y-72332241D01*
X61930957Y-72336816D01*
X61931846Y-72336393D01*
X61930190Y-72330318D01*
X61928855Y-72328394D01*
X61922926Y-72323820D01*
X61922037Y-72324243D01*
X61815357Y-72324243D01*
X61810918Y-72320955D01*
X64565059Y-72320955D01*
X64565122Y-72321863D01*
X64568883Y-72323294D01*
X64575426Y-72316318D01*
X64577007Y-72312687D01*
X64572560Y-72313453D01*
X64569674Y-72315459D01*
X64568465Y-72316899D01*
X64565059Y-72320955D01*
X61810918Y-72320955D01*
X61789043Y-72304750D01*
X61896045Y-72304750D01*
X61897701Y-72310824D01*
X61899036Y-72312748D01*
X61904966Y-72317322D01*
X61905855Y-72316899D01*
X61904199Y-72310824D01*
X61902864Y-72308901D01*
X61896934Y-72304327D01*
X61896045Y-72304750D01*
X61789043Y-72304750D01*
X61784603Y-72301461D01*
X64591050Y-72301461D01*
X64591113Y-72302369D01*
X64594875Y-72303800D01*
X64601417Y-72296825D01*
X64602998Y-72293193D01*
X64598552Y-72293959D01*
X64595665Y-72295965D01*
X64594455Y-72297406D01*
X64591050Y-72301461D01*
X61784603Y-72301461D01*
X61779287Y-72297523D01*
X61762717Y-72285256D01*
X61870054Y-72285256D01*
X61871710Y-72291331D01*
X61873045Y-72293254D01*
X61878975Y-72297829D01*
X61879864Y-72297406D01*
X61878208Y-72291331D01*
X61876873Y-72289407D01*
X61870943Y-72284833D01*
X61870054Y-72285256D01*
X61762717Y-72285256D01*
X61736388Y-72265765D01*
X61842519Y-72265765D01*
X61848139Y-72273462D01*
X61854086Y-72280393D01*
X61859510Y-72284833D01*
X61860650Y-72284726D01*
X61860694Y-72280493D01*
X61855344Y-72275470D01*
X64623539Y-72275470D01*
X64623602Y-72276378D01*
X64627364Y-72277809D01*
X64633906Y-72270833D01*
X64635487Y-72267202D01*
X64631041Y-72267968D01*
X64628154Y-72269974D01*
X64623539Y-72275470D01*
X61855344Y-72275470D01*
X61850592Y-72271009D01*
X61845884Y-72267379D01*
X61842519Y-72265765D01*
X61736388Y-72265765D01*
X61710056Y-72246272D01*
X61816528Y-72246272D01*
X61822147Y-72253968D01*
X61828095Y-72260899D01*
X61833519Y-72265340D01*
X61834659Y-72265233D01*
X61834703Y-72260999D01*
X61829353Y-72255976D01*
X64649530Y-72255976D01*
X64649594Y-72256885D01*
X64653355Y-72258316D01*
X64659898Y-72251340D01*
X64661479Y-72247709D01*
X64657032Y-72248474D01*
X64654146Y-72250480D01*
X64649530Y-72255976D01*
X61829353Y-72255976D01*
X61824601Y-72251515D01*
X61819893Y-72247885D01*
X61816528Y-72246272D01*
X61710056Y-72246272D01*
X61708246Y-72244932D01*
X61683707Y-72226778D01*
X61790537Y-72226778D01*
X61796156Y-72234475D01*
X61802103Y-72241406D01*
X61807527Y-72245846D01*
X61808668Y-72245739D01*
X61808711Y-72241506D01*
X61803361Y-72236483D01*
X64675522Y-72236483D01*
X64675585Y-72237391D01*
X64679346Y-72238822D01*
X64685889Y-72231846D01*
X64687470Y-72228215D01*
X64683023Y-72228981D01*
X64680137Y-72230987D01*
X64675522Y-72236483D01*
X61803361Y-72236483D01*
X61798609Y-72232022D01*
X61793901Y-72228392D01*
X61790537Y-72226778D01*
X61683707Y-72226778D01*
X61666138Y-72213780D01*
X61772587Y-72213780D01*
X61774243Y-72219855D01*
X61775578Y-72221778D01*
X61781507Y-72226353D01*
X61782396Y-72225930D01*
X61780740Y-72219855D01*
X61779405Y-72217931D01*
X61778184Y-72216989D01*
X64701513Y-72216989D01*
X64701576Y-72217898D01*
X64705338Y-72219329D01*
X64711880Y-72212353D01*
X64713461Y-72208722D01*
X64709015Y-72209488D01*
X64706128Y-72211493D01*
X64701513Y-72216989D01*
X61778184Y-72216989D01*
X61773476Y-72213357D01*
X61772587Y-72213780D01*
X61666138Y-72213780D01*
X61639790Y-72194287D01*
X61746596Y-72194287D01*
X61748251Y-72200361D01*
X61749586Y-72202285D01*
X61755516Y-72206859D01*
X61756405Y-72206436D01*
X61754749Y-72200361D01*
X61753414Y-72198438D01*
X61747484Y-72193863D01*
X61746596Y-72194287D01*
X61639790Y-72194287D01*
X61634827Y-72190615D01*
X64734002Y-72190615D01*
X64737251Y-72193863D01*
X64740500Y-72190615D01*
X64737251Y-72187366D01*
X64734002Y-72190615D01*
X61634827Y-72190615D01*
X61631729Y-72188323D01*
X61613432Y-72174793D01*
X61720604Y-72174793D01*
X61722260Y-72180868D01*
X61723595Y-72182791D01*
X61729525Y-72187366D01*
X61730414Y-72186943D01*
X61728758Y-72180868D01*
X61727423Y-72178944D01*
X61726737Y-72178415D01*
X64753496Y-72178415D01*
X64753602Y-72179555D01*
X64757836Y-72179599D01*
X64767320Y-72169497D01*
X64770950Y-72164789D01*
X64772563Y-72161424D01*
X64764867Y-72167043D01*
X64761386Y-72170030D01*
X64757936Y-72172991D01*
X64753496Y-72178415D01*
X61726737Y-72178415D01*
X61721493Y-72174370D01*
X61720604Y-72174793D01*
X61613432Y-72174793D01*
X61587073Y-72155302D01*
X61693069Y-72155302D01*
X61698689Y-72162999D01*
X61704636Y-72169930D01*
X61710060Y-72174370D01*
X61711200Y-72174263D01*
X61711244Y-72170030D01*
X61701142Y-72160546D01*
X61696434Y-72156916D01*
X61693069Y-72155302D01*
X61587073Y-72155302D01*
X61560711Y-72135809D01*
X61667078Y-72135809D01*
X61672697Y-72143505D01*
X61678645Y-72150436D01*
X61684069Y-72154877D01*
X61685209Y-72154770D01*
X61685238Y-72152011D01*
X64785985Y-72152011D01*
X64786048Y-72152919D01*
X64789809Y-72154350D01*
X64796352Y-72147375D01*
X64797933Y-72143743D01*
X64793487Y-72144509D01*
X64790600Y-72146515D01*
X64787224Y-72150536D01*
X64785985Y-72152011D01*
X61685238Y-72152011D01*
X61685253Y-72150536D01*
X61675151Y-72141052D01*
X61670443Y-72137422D01*
X61667078Y-72135809D01*
X61560711Y-72135809D01*
X61550286Y-72128100D01*
X61534341Y-72116315D01*
X61641087Y-72116315D01*
X61646706Y-72124012D01*
X61652653Y-72130943D01*
X61658077Y-72135383D01*
X61659218Y-72135276D01*
X61659246Y-72132518D01*
X64811976Y-72132518D01*
X64812039Y-72133426D01*
X64815801Y-72134857D01*
X64822343Y-72127881D01*
X64823924Y-72124250D01*
X64819478Y-72125016D01*
X64816591Y-72127022D01*
X64813215Y-72131043D01*
X64811976Y-72132518D01*
X61659246Y-72132518D01*
X61659261Y-72131043D01*
X61649159Y-72121559D01*
X61644451Y-72117929D01*
X61641087Y-72116315D01*
X61534341Y-72116315D01*
X61516754Y-72103317D01*
X61623137Y-72103317D01*
X61624793Y-72109392D01*
X61626128Y-72111315D01*
X61632057Y-72115890D01*
X61632946Y-72115466D01*
X61632280Y-72113024D01*
X64837967Y-72113024D01*
X64838031Y-72113933D01*
X64841792Y-72115363D01*
X64848335Y-72108388D01*
X64849916Y-72104756D01*
X64845469Y-72105522D01*
X64842583Y-72107528D01*
X64837967Y-72113024D01*
X61632280Y-72113024D01*
X61631290Y-72109392D01*
X61629955Y-72107468D01*
X61624026Y-72102894D01*
X61623137Y-72103317D01*
X61516754Y-72103317D01*
X61490379Y-72083824D01*
X61597146Y-72083824D01*
X61598801Y-72089898D01*
X61600136Y-72091822D01*
X61606066Y-72096396D01*
X61606955Y-72095973D01*
X61606289Y-72093531D01*
X64863959Y-72093531D01*
X64864022Y-72094439D01*
X64867783Y-72095870D01*
X64874326Y-72088894D01*
X64875907Y-72085263D01*
X64871460Y-72086029D01*
X64868574Y-72088035D01*
X64863959Y-72093531D01*
X61606289Y-72093531D01*
X61605299Y-72089898D01*
X61603964Y-72087975D01*
X61598034Y-72083400D01*
X61597146Y-72083824D01*
X61490379Y-72083824D01*
X61464463Y-72064670D01*
X61464003Y-72064330D01*
X61571154Y-72064330D01*
X61572810Y-72070405D01*
X61574145Y-72072328D01*
X61580075Y-72076903D01*
X61580964Y-72076480D01*
X61580298Y-72074037D01*
X64889950Y-72074037D01*
X64890013Y-72074946D01*
X64893775Y-72076377D01*
X64900317Y-72069401D01*
X64901898Y-72065770D01*
X64897452Y-72066535D01*
X64894565Y-72068541D01*
X64889950Y-72074037D01*
X61580298Y-72074037D01*
X61579308Y-72070405D01*
X61577973Y-72068481D01*
X61572043Y-72063907D01*
X61571154Y-72064330D01*
X61464003Y-72064330D01*
X61437619Y-72044839D01*
X61543619Y-72044839D01*
X61549239Y-72052536D01*
X61555186Y-72059467D01*
X61560610Y-72063907D01*
X61561750Y-72063800D01*
X61561794Y-72059567D01*
X61551692Y-72050082D01*
X61549051Y-72048046D01*
X64922439Y-72048046D01*
X64922502Y-72048954D01*
X64926264Y-72050385D01*
X64932806Y-72043410D01*
X64934387Y-72039778D01*
X64932675Y-72040073D01*
X64929941Y-72040544D01*
X64927054Y-72042550D01*
X64922439Y-72048046D01*
X61549051Y-72048046D01*
X61546984Y-72046453D01*
X61543619Y-72044839D01*
X61437619Y-72044839D01*
X61411233Y-72025346D01*
X61517628Y-72025346D01*
X61523247Y-72033042D01*
X61529195Y-72039973D01*
X61534619Y-72044413D01*
X61535759Y-72044307D01*
X61535803Y-72040073D01*
X61525701Y-72030589D01*
X61523059Y-72028552D01*
X64948430Y-72028552D01*
X64948494Y-72029461D01*
X64952255Y-72030892D01*
X64958798Y-72023916D01*
X64960379Y-72020285D01*
X64955932Y-72021051D01*
X64953046Y-72023056D01*
X64951836Y-72024497D01*
X64948430Y-72028552D01*
X61523059Y-72028552D01*
X61520993Y-72026959D01*
X61517628Y-72025346D01*
X61411233Y-72025346D01*
X61393637Y-72012347D01*
X61499678Y-72012347D01*
X61501334Y-72018422D01*
X61502669Y-72020346D01*
X61508599Y-72024920D01*
X61509488Y-72024497D01*
X61507832Y-72018422D01*
X61506497Y-72016499D01*
X61500567Y-72011924D01*
X61499678Y-72012347D01*
X61393637Y-72012347D01*
X61389186Y-72009059D01*
X64974422Y-72009059D01*
X64974485Y-72009967D01*
X64978246Y-72011398D01*
X64984789Y-72004423D01*
X64986370Y-72000791D01*
X64981923Y-72001557D01*
X64979037Y-72003563D01*
X64977828Y-72005003D01*
X64974422Y-72009059D01*
X61389186Y-72009059D01*
X61374808Y-71998437D01*
X61367247Y-71992854D01*
X61473687Y-71992854D01*
X61475343Y-71998929D01*
X61476678Y-72000852D01*
X61482607Y-72005427D01*
X61483496Y-72005003D01*
X61481840Y-71998929D01*
X61480505Y-71997005D01*
X61474576Y-71992431D01*
X61473687Y-71992854D01*
X61367247Y-71992854D01*
X61362793Y-71989565D01*
X65000413Y-71989565D01*
X65000476Y-71990474D01*
X65004238Y-71991905D01*
X65010780Y-71984929D01*
X65012361Y-71981298D01*
X65007915Y-71982064D01*
X65005028Y-71984069D01*
X65003818Y-71985510D01*
X65000413Y-71989565D01*
X61362793Y-71989565D01*
X61340848Y-71973360D01*
X61447696Y-71973360D01*
X61449351Y-71979435D01*
X61450686Y-71981359D01*
X61456616Y-71985933D01*
X61457505Y-71985510D01*
X61455849Y-71979435D01*
X61454514Y-71977512D01*
X61448584Y-71972937D01*
X61447696Y-71973360D01*
X61340848Y-71973360D01*
X61336395Y-71970072D01*
X65026404Y-71970072D01*
X65026468Y-71970980D01*
X65030229Y-71972411D01*
X65036771Y-71965436D01*
X65038352Y-71961804D01*
X65033906Y-71962570D01*
X65031020Y-71964576D01*
X65029810Y-71966017D01*
X65026404Y-71970072D01*
X61336395Y-71970072D01*
X61314450Y-71953867D01*
X61421704Y-71953867D01*
X61423360Y-71959942D01*
X61424695Y-71961865D01*
X61430625Y-71966440D01*
X61431514Y-71966017D01*
X61429858Y-71959942D01*
X61428523Y-71958018D01*
X61422593Y-71953444D01*
X61421704Y-71953867D01*
X61314450Y-71953867D01*
X61288055Y-71934376D01*
X61394169Y-71934376D01*
X61399789Y-71942073D01*
X61405736Y-71949003D01*
X61411160Y-71953444D01*
X61412300Y-71953337D01*
X61412324Y-71950991D01*
X65052396Y-71950991D01*
X65052502Y-71952131D01*
X65056736Y-71952175D01*
X65066220Y-71942073D01*
X65069850Y-71937365D01*
X65071463Y-71934000D01*
X65063767Y-71939619D01*
X65056836Y-71945567D01*
X65053941Y-71949104D01*
X65052396Y-71950991D01*
X61412324Y-71950991D01*
X61412344Y-71949104D01*
X61402242Y-71939619D01*
X61397534Y-71935990D01*
X61394169Y-71934376D01*
X61288055Y-71934376D01*
X61281868Y-71929807D01*
X61261649Y-71914883D01*
X61368178Y-71914883D01*
X61373797Y-71922579D01*
X61379745Y-71929510D01*
X61385169Y-71933950D01*
X61386309Y-71933844D01*
X61386353Y-71929610D01*
X61381003Y-71924587D01*
X65084885Y-71924587D01*
X65084948Y-71925496D01*
X65088709Y-71926927D01*
X65095252Y-71919951D01*
X65096833Y-71916320D01*
X65092386Y-71917085D01*
X65089500Y-71919091D01*
X65084885Y-71924587D01*
X61381003Y-71924587D01*
X61376251Y-71920126D01*
X61371543Y-71916496D01*
X61368178Y-71914883D01*
X61261649Y-71914883D01*
X61244038Y-71901884D01*
X61350228Y-71901884D01*
X61351884Y-71907959D01*
X61353219Y-71909883D01*
X61359149Y-71914457D01*
X61360038Y-71914034D01*
X61358382Y-71907959D01*
X61357047Y-71906036D01*
X61355826Y-71905094D01*
X65110876Y-71905094D01*
X65110939Y-71906002D01*
X65114701Y-71907433D01*
X65121243Y-71900457D01*
X65122824Y-71896826D01*
X65118378Y-71897592D01*
X65115491Y-71899598D01*
X65110876Y-71905094D01*
X61355826Y-71905094D01*
X61351117Y-71901461D01*
X61350228Y-71901884D01*
X61244038Y-71901884D01*
X61217629Y-71882391D01*
X61324237Y-71882391D01*
X61325893Y-71888466D01*
X61327228Y-71890389D01*
X61333157Y-71894963D01*
X61334046Y-71894540D01*
X61332390Y-71888466D01*
X61331055Y-71886542D01*
X61329834Y-71885600D01*
X65136867Y-71885600D01*
X65136931Y-71886509D01*
X65140692Y-71887940D01*
X65147235Y-71880964D01*
X65148816Y-71877333D01*
X65144369Y-71878098D01*
X65141483Y-71880104D01*
X65136867Y-71885600D01*
X61329834Y-71885600D01*
X61325126Y-71881968D01*
X61324237Y-71882391D01*
X61217629Y-71882391D01*
X61191218Y-71862897D01*
X61298246Y-71862897D01*
X61299901Y-71868972D01*
X61301236Y-71870896D01*
X61307166Y-71875470D01*
X61308055Y-71875047D01*
X61306399Y-71868972D01*
X61305064Y-71867049D01*
X61299134Y-71862474D01*
X61298246Y-71862897D01*
X61191218Y-71862897D01*
X61186243Y-71859225D01*
X65169356Y-71859225D01*
X65172605Y-71862474D01*
X65175854Y-71859225D01*
X65172605Y-71855977D01*
X65169356Y-71859225D01*
X61186243Y-71859225D01*
X61186189Y-71859185D01*
X61175879Y-71851576D01*
X61164808Y-71843404D01*
X61272254Y-71843404D01*
X61273910Y-71849479D01*
X61275245Y-71851402D01*
X61281175Y-71855977D01*
X61282064Y-71855553D01*
X61280408Y-71849479D01*
X61279073Y-71847555D01*
X61278386Y-71847025D01*
X65188850Y-71847025D01*
X65188957Y-71848166D01*
X65193190Y-71848210D01*
X65202674Y-71838108D01*
X65206304Y-71833399D01*
X65207918Y-71830035D01*
X65200221Y-71835654D01*
X65196740Y-71838641D01*
X65193290Y-71841601D01*
X65188850Y-71847025D01*
X61278386Y-71847025D01*
X61273143Y-71842981D01*
X61272254Y-71843404D01*
X61164808Y-71843404D01*
X61138403Y-71823913D01*
X61244719Y-71823913D01*
X61250339Y-71831610D01*
X61256286Y-71838540D01*
X61261710Y-71842981D01*
X61262850Y-71842874D01*
X61262894Y-71838641D01*
X61252792Y-71829156D01*
X61248084Y-71825527D01*
X61244719Y-71823913D01*
X61138403Y-71823913D01*
X61111995Y-71804420D01*
X61218728Y-71804420D01*
X61224348Y-71812116D01*
X61230295Y-71819047D01*
X61235719Y-71823487D01*
X61236859Y-71823381D01*
X61236888Y-71820622D01*
X65221339Y-71820622D01*
X65221402Y-71821530D01*
X65225164Y-71822961D01*
X65231706Y-71815986D01*
X65233287Y-71812354D01*
X65228841Y-71813120D01*
X65225954Y-71815126D01*
X65222578Y-71819147D01*
X65221339Y-71820622D01*
X61236888Y-71820622D01*
X61236903Y-71819147D01*
X61226801Y-71809663D01*
X61222093Y-71806033D01*
X61218728Y-71804420D01*
X61111995Y-71804420D01*
X61094385Y-71791421D01*
X61200778Y-71791421D01*
X61202434Y-71797496D01*
X61203769Y-71799420D01*
X61209699Y-71803994D01*
X61210588Y-71803571D01*
X61209922Y-71801129D01*
X65247330Y-71801129D01*
X65247394Y-71802037D01*
X65251155Y-71803468D01*
X65257698Y-71796492D01*
X65259279Y-71792861D01*
X65254832Y-71793627D01*
X65251946Y-71795633D01*
X65247330Y-71801129D01*
X61209922Y-71801129D01*
X61208932Y-71797496D01*
X61207597Y-71795573D01*
X61201667Y-71790998D01*
X61200778Y-71791421D01*
X61094385Y-71791421D01*
X61080448Y-71781133D01*
X61067984Y-71771928D01*
X61174787Y-71771928D01*
X61176443Y-71778003D01*
X61177778Y-71779926D01*
X61183707Y-71784500D01*
X61184596Y-71784077D01*
X61183930Y-71781635D01*
X65273322Y-71781635D01*
X65273385Y-71782543D01*
X65277146Y-71783974D01*
X65283689Y-71776999D01*
X65285270Y-71773367D01*
X65280823Y-71774133D01*
X65277937Y-71776139D01*
X65273322Y-71781635D01*
X61183930Y-71781635D01*
X61182940Y-71778003D01*
X61181605Y-71776079D01*
X61175676Y-71771505D01*
X61174787Y-71771928D01*
X61067984Y-71771928D01*
X61041587Y-71752434D01*
X61148796Y-71752434D01*
X61150451Y-71758509D01*
X61151786Y-71760433D01*
X61157716Y-71765007D01*
X61158605Y-71764584D01*
X61157939Y-71762142D01*
X65299313Y-71762142D01*
X65299376Y-71763050D01*
X65303138Y-71764481D01*
X65309680Y-71757505D01*
X65311261Y-71753874D01*
X65306815Y-71754640D01*
X65303928Y-71756646D01*
X65299313Y-71762142D01*
X61157939Y-71762142D01*
X61156949Y-71758509D01*
X61155614Y-71756586D01*
X61149684Y-71752011D01*
X61148796Y-71752434D01*
X61041587Y-71752434D01*
X61015192Y-71732941D01*
X61122804Y-71732941D01*
X61124460Y-71739016D01*
X61125795Y-71740939D01*
X61131725Y-71745514D01*
X61132614Y-71745090D01*
X61131948Y-71742648D01*
X65325304Y-71742648D01*
X65325367Y-71743556D01*
X65329129Y-71744987D01*
X65335671Y-71738012D01*
X65337252Y-71734380D01*
X65332806Y-71735146D01*
X65329920Y-71737152D01*
X65325304Y-71742648D01*
X61131948Y-71742648D01*
X61130958Y-71739016D01*
X61129623Y-71737092D01*
X61123693Y-71732518D01*
X61122804Y-71732941D01*
X61015192Y-71732941D01*
X60988800Y-71713450D01*
X61095269Y-71713450D01*
X61100889Y-71721147D01*
X61106836Y-71728077D01*
X61112260Y-71732518D01*
X61113400Y-71732411D01*
X61113444Y-71728178D01*
X61103342Y-71718693D01*
X61100701Y-71716657D01*
X65357793Y-71716657D01*
X65357857Y-71717565D01*
X65361618Y-71718996D01*
X65368161Y-71712020D01*
X65369742Y-71708389D01*
X65368029Y-71708684D01*
X65365295Y-71709155D01*
X65362409Y-71711161D01*
X65357793Y-71716657D01*
X61100701Y-71716657D01*
X61098634Y-71715064D01*
X61095269Y-71713450D01*
X60988800Y-71713450D01*
X60987805Y-71712715D01*
X60962416Y-71693957D01*
X61069278Y-71693957D01*
X61074898Y-71701653D01*
X61080845Y-71708584D01*
X61086269Y-71713024D01*
X61087409Y-71712918D01*
X61087453Y-71708684D01*
X61077351Y-71699200D01*
X61074709Y-71697163D01*
X65383785Y-71697163D01*
X65383848Y-71698072D01*
X65387609Y-71699503D01*
X65394152Y-71692527D01*
X65395733Y-71688896D01*
X65391286Y-71689662D01*
X65388400Y-71691667D01*
X65387190Y-71693108D01*
X65383785Y-71697163D01*
X61074709Y-71697163D01*
X61072643Y-71695570D01*
X61069278Y-71693957D01*
X60962416Y-71693957D01*
X60944822Y-71680958D01*
X61051328Y-71680958D01*
X61052984Y-71687033D01*
X61054319Y-71688957D01*
X61060249Y-71693531D01*
X61061138Y-71693108D01*
X61059482Y-71687033D01*
X61058147Y-71685110D01*
X61052217Y-71680535D01*
X61051328Y-71680958D01*
X60944822Y-71680958D01*
X60940372Y-71677670D01*
X65409776Y-71677670D01*
X65409839Y-71678578D01*
X65413601Y-71680009D01*
X65420143Y-71673033D01*
X65421724Y-71669402D01*
X65417278Y-71670168D01*
X65414391Y-71672174D01*
X65413182Y-71673614D01*
X65409776Y-71677670D01*
X60940372Y-71677670D01*
X60918439Y-71661465D01*
X61025337Y-71661465D01*
X61026993Y-71667540D01*
X61028328Y-71669463D01*
X61034257Y-71674037D01*
X61035146Y-71673614D01*
X61033490Y-71667540D01*
X61032156Y-71665616D01*
X61026226Y-71661042D01*
X61025337Y-71661465D01*
X60918439Y-71661465D01*
X60913988Y-71658176D01*
X65435767Y-71658176D01*
X65435831Y-71659085D01*
X65439592Y-71660516D01*
X65446135Y-71653540D01*
X65447716Y-71649909D01*
X65443269Y-71650675D01*
X65440383Y-71652680D01*
X65439173Y-71654121D01*
X65435767Y-71658176D01*
X60913988Y-71658176D01*
X60898496Y-71646730D01*
X60892058Y-71641971D01*
X60999346Y-71641971D01*
X61001001Y-71648046D01*
X61002336Y-71649970D01*
X61008266Y-71654544D01*
X61009155Y-71654121D01*
X61007499Y-71648046D01*
X61006164Y-71646123D01*
X61000234Y-71641548D01*
X60999346Y-71641971D01*
X60892058Y-71641971D01*
X60887610Y-71638683D01*
X65461759Y-71638683D01*
X65461822Y-71639591D01*
X65465583Y-71641022D01*
X65472126Y-71634047D01*
X65473707Y-71630415D01*
X65469260Y-71631181D01*
X65466374Y-71633187D01*
X65465165Y-71634627D01*
X65461759Y-71638683D01*
X60887610Y-71638683D01*
X60865688Y-71622478D01*
X60973354Y-71622478D01*
X60975010Y-71628553D01*
X60976345Y-71630476D01*
X60982275Y-71635050D01*
X60983164Y-71634627D01*
X60981508Y-71628553D01*
X60980173Y-71626629D01*
X60974243Y-71622055D01*
X60973354Y-71622478D01*
X60865688Y-71622478D01*
X60839321Y-71602987D01*
X60945819Y-71602987D01*
X60951439Y-71610684D01*
X60957386Y-71617614D01*
X60962810Y-71622055D01*
X60963950Y-71621948D01*
X60963974Y-71619602D01*
X65487750Y-71619602D01*
X65487857Y-71620742D01*
X65492090Y-71620786D01*
X65501574Y-71610684D01*
X65505204Y-71605976D01*
X65506818Y-71602611D01*
X65499121Y-71608230D01*
X65492190Y-71614178D01*
X65489295Y-71617715D01*
X65487750Y-71619602D01*
X60963974Y-71619602D01*
X60963994Y-71617715D01*
X60953892Y-71608230D01*
X60949184Y-71604601D01*
X60945819Y-71602987D01*
X60839321Y-71602987D01*
X60813070Y-71583582D01*
X60812951Y-71583494D01*
X60919828Y-71583494D01*
X60925448Y-71591190D01*
X60927473Y-71593706D01*
X60936111Y-71602053D01*
X60939272Y-71600108D01*
X60936900Y-71596753D01*
X60932909Y-71593198D01*
X65520239Y-71593198D01*
X65520302Y-71594106D01*
X65524064Y-71595537D01*
X65530606Y-71588562D01*
X65532187Y-71584930D01*
X65527741Y-71585696D01*
X65524854Y-71587702D01*
X65520239Y-71593198D01*
X60932909Y-71593198D01*
X60927901Y-71588737D01*
X60923193Y-71585107D01*
X60919828Y-71583494D01*
X60812951Y-71583494D01*
X60795376Y-71570495D01*
X60901878Y-71570495D01*
X60903534Y-71576570D01*
X60904869Y-71578494D01*
X60910799Y-71583068D01*
X60911688Y-71582645D01*
X60910032Y-71576570D01*
X60908697Y-71574647D01*
X60907476Y-71573705D01*
X65546230Y-71573705D01*
X65546294Y-71574613D01*
X65550055Y-71576044D01*
X65556598Y-71569068D01*
X65558179Y-71565437D01*
X65553732Y-71566203D01*
X65550846Y-71568209D01*
X65546230Y-71573705D01*
X60907476Y-71573705D01*
X60902767Y-71570072D01*
X60901878Y-71570495D01*
X60795376Y-71570495D01*
X60769020Y-71551002D01*
X60875887Y-71551002D01*
X60877543Y-71557077D01*
X60878878Y-71559000D01*
X60884807Y-71563574D01*
X60885696Y-71563151D01*
X60884040Y-71557077D01*
X60882706Y-71555153D01*
X60881485Y-71554211D01*
X65572222Y-71554211D01*
X65572285Y-71555120D01*
X65576046Y-71556550D01*
X65582589Y-71549575D01*
X65584170Y-71545943D01*
X65579723Y-71546709D01*
X65576837Y-71548715D01*
X65572222Y-71554211D01*
X60881485Y-71554211D01*
X60876776Y-71550579D01*
X60875887Y-71551002D01*
X60769020Y-71551002D01*
X60742663Y-71531508D01*
X60849896Y-71531508D01*
X60851551Y-71537583D01*
X60852886Y-71539507D01*
X60858816Y-71544081D01*
X60859705Y-71543658D01*
X60858049Y-71537583D01*
X60856714Y-71535660D01*
X60850784Y-71531085D01*
X60849896Y-71531508D01*
X60742663Y-71531508D01*
X60737698Y-71527836D01*
X65604711Y-71527836D01*
X65607960Y-71531085D01*
X65611209Y-71527836D01*
X65607960Y-71524587D01*
X65604711Y-71527836D01*
X60737698Y-71527836D01*
X60732076Y-71523678D01*
X60716316Y-71512015D01*
X60823904Y-71512015D01*
X60825560Y-71518090D01*
X60826895Y-71520013D01*
X60832825Y-71524587D01*
X60833714Y-71524164D01*
X60832058Y-71518090D01*
X60830723Y-71516166D01*
X60830036Y-71515636D01*
X65624204Y-71515636D01*
X65624311Y-71516777D01*
X65628544Y-71516820D01*
X65638029Y-71506718D01*
X65641659Y-71502010D01*
X65643272Y-71498645D01*
X65635575Y-71504265D01*
X65629895Y-71509139D01*
X65628645Y-71510212D01*
X65624204Y-71515636D01*
X60830036Y-71515636D01*
X60824793Y-71511592D01*
X60823904Y-71512015D01*
X60716316Y-71512015D01*
X60689977Y-71492524D01*
X60796369Y-71492524D01*
X60801989Y-71500221D01*
X60804015Y-71502736D01*
X60812653Y-71511083D01*
X60815813Y-71509139D01*
X60813441Y-71505783D01*
X60804442Y-71497767D01*
X60799734Y-71494137D01*
X60796369Y-71492524D01*
X60689977Y-71492524D01*
X60663634Y-71473030D01*
X60770378Y-71473030D01*
X60775998Y-71480727D01*
X60778023Y-71483243D01*
X60786661Y-71491590D01*
X60789822Y-71489645D01*
X60789531Y-71489233D01*
X65656693Y-71489233D01*
X65656722Y-71489645D01*
X65656757Y-71490141D01*
X65660518Y-71491572D01*
X65667061Y-71484597D01*
X65668642Y-71480965D01*
X65664195Y-71481731D01*
X65661309Y-71483737D01*
X65656693Y-71489233D01*
X60789531Y-71489233D01*
X60787450Y-71486290D01*
X60778451Y-71478274D01*
X60773743Y-71474644D01*
X60770378Y-71473030D01*
X60663634Y-71473030D01*
X60656060Y-71467425D01*
X60646076Y-71460032D01*
X60752428Y-71460032D01*
X60754084Y-71466107D01*
X60755419Y-71468030D01*
X60761349Y-71472605D01*
X60762238Y-71472182D01*
X60761572Y-71469739D01*
X65682685Y-71469739D01*
X65682748Y-71470648D01*
X65686509Y-71472079D01*
X65693052Y-71465103D01*
X65694633Y-71461472D01*
X65690186Y-71462238D01*
X65687300Y-71464243D01*
X65682685Y-71469739D01*
X60761572Y-71469739D01*
X60760582Y-71466107D01*
X60759247Y-71464184D01*
X60753317Y-71459609D01*
X60752428Y-71460032D01*
X60646076Y-71460032D01*
X60619752Y-71440539D01*
X60726437Y-71440539D01*
X60728093Y-71446614D01*
X60729428Y-71448537D01*
X60735357Y-71453111D01*
X60736246Y-71452688D01*
X60735581Y-71450246D01*
X65708676Y-71450246D01*
X65708739Y-71451154D01*
X65712501Y-71452585D01*
X65719043Y-71445610D01*
X65720624Y-71441978D01*
X65716178Y-71442744D01*
X65713291Y-71444750D01*
X65708676Y-71450246D01*
X60735581Y-71450246D01*
X60734591Y-71446614D01*
X60733256Y-71444690D01*
X60727326Y-71440116D01*
X60726437Y-71440539D01*
X60619752Y-71440539D01*
X60593426Y-71421045D01*
X60700446Y-71421045D01*
X60702101Y-71427120D01*
X60703436Y-71429044D01*
X60709366Y-71433618D01*
X60710255Y-71433195D01*
X60709589Y-71430752D01*
X65734667Y-71430752D01*
X65734731Y-71431661D01*
X65738492Y-71433092D01*
X65745034Y-71426116D01*
X65746615Y-71422485D01*
X65742169Y-71423251D01*
X65739283Y-71425256D01*
X65734667Y-71430752D01*
X60709589Y-71430752D01*
X60708599Y-71427120D01*
X60707264Y-71425197D01*
X60701334Y-71420622D01*
X60700446Y-71421045D01*
X60593426Y-71421045D01*
X60585572Y-71415229D01*
X60567117Y-71401552D01*
X60674454Y-71401552D01*
X60676110Y-71407627D01*
X60677445Y-71409550D01*
X60683375Y-71414124D01*
X60684264Y-71413701D01*
X60683598Y-71411259D01*
X65760659Y-71411259D01*
X65760722Y-71412167D01*
X65764483Y-71413598D01*
X65771026Y-71406623D01*
X65772607Y-71402991D01*
X65768160Y-71403757D01*
X65765274Y-71405763D01*
X65760659Y-71411259D01*
X60683598Y-71411259D01*
X60682608Y-71407627D01*
X60681273Y-71405703D01*
X60675343Y-71401129D01*
X60674454Y-71401552D01*
X60567117Y-71401552D01*
X60540816Y-71382061D01*
X60646919Y-71382061D01*
X60652539Y-71389758D01*
X60654565Y-71392273D01*
X60663203Y-71400620D01*
X60666363Y-71398675D01*
X60663991Y-71395320D01*
X60654992Y-71387304D01*
X60652351Y-71385268D01*
X65793148Y-71385268D01*
X65793211Y-71386176D01*
X65796972Y-71387607D01*
X65803515Y-71380631D01*
X65805096Y-71377000D01*
X65800649Y-71377766D01*
X65798612Y-71379182D01*
X65797763Y-71379772D01*
X65793148Y-71385268D01*
X60652351Y-71385268D01*
X60650284Y-71383674D01*
X60646919Y-71382061D01*
X60540816Y-71382061D01*
X60521159Y-71367494D01*
X60514517Y-71362567D01*
X60620928Y-71362567D01*
X60626548Y-71370264D01*
X60628573Y-71372780D01*
X60637211Y-71381127D01*
X60640372Y-71379182D01*
X60638000Y-71375826D01*
X60629001Y-71367811D01*
X60626359Y-71365774D01*
X65819139Y-71365774D01*
X65819202Y-71366683D01*
X65822964Y-71368114D01*
X65829506Y-71361138D01*
X65831087Y-71357507D01*
X65826641Y-71358272D01*
X65823754Y-71360278D01*
X65822544Y-71361719D01*
X65819139Y-71365774D01*
X60626359Y-71365774D01*
X60624293Y-71364181D01*
X60620928Y-71362567D01*
X60514517Y-71362567D01*
X60496993Y-71349569D01*
X60602978Y-71349569D01*
X60604634Y-71355644D01*
X60605969Y-71357567D01*
X60611899Y-71362142D01*
X60612788Y-71361719D01*
X60611132Y-71355644D01*
X60609797Y-71353720D01*
X60603867Y-71349146D01*
X60602978Y-71349569D01*
X60496993Y-71349569D01*
X60492560Y-71346281D01*
X65845130Y-71346281D01*
X65845194Y-71347189D01*
X65848955Y-71348620D01*
X65855498Y-71341644D01*
X65857079Y-71338013D01*
X65852632Y-71338779D01*
X65849746Y-71340785D01*
X65848537Y-71342225D01*
X65845130Y-71346281D01*
X60492560Y-71346281D01*
X60470713Y-71330076D01*
X60576987Y-71330076D01*
X60578643Y-71336150D01*
X60579978Y-71338074D01*
X60585907Y-71342648D01*
X60586796Y-71342225D01*
X60585141Y-71336150D01*
X60583806Y-71334227D01*
X60577876Y-71329653D01*
X60576987Y-71330076D01*
X60470713Y-71330076D01*
X60466279Y-71326787D01*
X65871122Y-71326787D01*
X65871185Y-71327696D01*
X65874946Y-71329127D01*
X65881489Y-71322151D01*
X65883070Y-71318520D01*
X65878623Y-71319285D01*
X65875737Y-71321291D01*
X65874527Y-71322732D01*
X65871122Y-71326787D01*
X60466279Y-71326787D01*
X60463370Y-71324629D01*
X60444455Y-71310582D01*
X60550996Y-71310582D01*
X60552651Y-71316657D01*
X60553986Y-71318581D01*
X60559916Y-71323155D01*
X60560805Y-71322732D01*
X60559149Y-71316657D01*
X60557814Y-71314734D01*
X60551884Y-71310159D01*
X60550996Y-71310582D01*
X60444455Y-71310582D01*
X60440028Y-71307294D01*
X65897113Y-71307294D01*
X65897176Y-71308202D01*
X65900937Y-71309633D01*
X65907480Y-71302657D01*
X65909061Y-71299026D01*
X65904615Y-71299792D01*
X65901728Y-71301798D01*
X65900519Y-71303238D01*
X65897113Y-71307294D01*
X60440028Y-71307294D01*
X60418207Y-71291089D01*
X60525004Y-71291089D01*
X60526660Y-71297164D01*
X60527995Y-71299087D01*
X60533925Y-71303661D01*
X60534814Y-71303238D01*
X60533158Y-71297164D01*
X60531823Y-71295240D01*
X60525893Y-71290666D01*
X60525004Y-71291089D01*
X60418207Y-71291089D01*
X60412753Y-71287039D01*
X60391994Y-71271598D01*
X60497469Y-71271598D01*
X60503089Y-71279295D01*
X60505115Y-71281810D01*
X60513753Y-71290157D01*
X60516913Y-71288212D01*
X65923104Y-71288212D01*
X65923211Y-71289353D01*
X65927444Y-71289397D01*
X65936929Y-71279295D01*
X65940559Y-71274586D01*
X65942172Y-71271222D01*
X65934475Y-71276841D01*
X65927545Y-71282788D01*
X65923104Y-71288212D01*
X60516913Y-71288212D01*
X60514541Y-71284857D01*
X60505542Y-71276841D01*
X60500834Y-71273211D01*
X60497469Y-71271598D01*
X60391994Y-71271598D01*
X60369855Y-71255130D01*
X60365797Y-71252104D01*
X60471478Y-71252104D01*
X60477098Y-71259801D01*
X60479123Y-71262317D01*
X60487761Y-71270664D01*
X60490922Y-71268719D01*
X60488550Y-71265363D01*
X60484560Y-71261809D01*
X65955593Y-71261809D01*
X65955657Y-71262717D01*
X65959418Y-71264148D01*
X65965961Y-71257173D01*
X65967542Y-71253541D01*
X65963095Y-71254307D01*
X65960209Y-71256313D01*
X65955593Y-71261809D01*
X60484560Y-71261809D01*
X60479551Y-71257348D01*
X60474843Y-71253718D01*
X60471478Y-71252104D01*
X60365797Y-71252104D01*
X60360869Y-71248430D01*
X60458433Y-71248430D01*
X60461682Y-71251679D01*
X60464931Y-71248430D01*
X60461682Y-71245181D01*
X60458433Y-71248430D01*
X60360869Y-71248430D01*
X60352669Y-71242316D01*
X65981585Y-71242316D01*
X65981648Y-71243224D01*
X65985409Y-71244655D01*
X65991952Y-71237679D01*
X65993533Y-71234048D01*
X65989086Y-71234814D01*
X65986200Y-71236820D01*
X65981585Y-71242316D01*
X60352669Y-71242316D01*
X60335224Y-71229308D01*
X60326562Y-71222822D01*
X66007576Y-71222822D01*
X66007639Y-71223730D01*
X66011401Y-71225161D01*
X66017943Y-71218186D01*
X66019524Y-71214554D01*
X66015078Y-71215320D01*
X66012191Y-71217326D01*
X66007576Y-71222822D01*
X60326562Y-71222822D01*
X60309410Y-71209979D01*
X60292959Y-71197550D01*
X60286421Y-71192426D01*
X60284755Y-71190791D01*
X60282433Y-71187698D01*
X60283034Y-71185275D01*
X60287818Y-71183441D01*
X60298043Y-71182115D01*
X60314969Y-71181215D01*
X60339854Y-71180660D01*
X60373958Y-71180368D01*
X60418540Y-71180259D01*
X60474858Y-71180251D01*
X60487709Y-71180247D01*
X60530466Y-71180166D01*
X60582712Y-71179989D01*
X60643613Y-71179721D01*
X60712338Y-71179369D01*
X60788053Y-71178941D01*
X60869926Y-71178443D01*
X60957123Y-71177881D01*
X61048813Y-71177263D01*
X61144163Y-71176594D01*
X61242339Y-71175883D01*
X61342509Y-71175136D01*
X61443841Y-71174359D01*
X61545501Y-71173560D01*
X61646657Y-71172744D01*
X61746475Y-71171920D01*
X61844124Y-71171092D01*
X61938771Y-71170270D01*
X62029582Y-71169458D01*
X62115726Y-71168664D01*
X62196369Y-71167895D01*
X62270678Y-71167158D01*
X62337821Y-71166458D01*
X62396965Y-71165804D01*
X62447278Y-71165201D01*
X62487926Y-71164657D01*
X62518077Y-71164178D01*
X62536898Y-71163770D01*
X62543557Y-71163442D01*
X62544799Y-71159988D01*
X62549750Y-71145006D01*
X62558269Y-71118771D01*
X62570145Y-71081939D01*
X62585170Y-71035167D01*
X62603132Y-70979111D01*
X62623823Y-70914426D01*
X62647033Y-70841768D01*
X62672553Y-70761795D01*
X62700173Y-70675161D01*
X62729684Y-70582524D01*
X62760875Y-70484538D01*
X62793538Y-70381861D01*
X62827463Y-70275147D01*
X62862440Y-70165054D01*
X62884332Y-70096154D01*
X62919261Y-69986330D01*
X62953258Y-69879572D01*
X62986093Y-69776597D01*
X63017535Y-69678121D01*
X63047354Y-69584862D01*
X63075320Y-69497537D01*
X63101202Y-69416863D01*
X63124772Y-69343558D01*
X63145797Y-69278338D01*
X63164049Y-69221922D01*
X63179297Y-69175025D01*
X63191311Y-69138366D01*
X63199860Y-69112661D01*
X63204715Y-69098628D01*
X63230678Y-69028130D01*
X63269990Y-69137615D01*
X63271364Y-69141476D01*
X63278975Y-69163369D01*
X63290354Y-69196620D01*
X63305243Y-69240459D01*
X63323384Y-69294117D01*
X63344519Y-69356825D01*
X63368391Y-69427814D01*
X63394740Y-69506316D01*
X63423310Y-69591561D01*
X63453842Y-69682781D01*
X63486079Y-69779206D01*
X63519761Y-69880067D01*
X63554633Y-69984596D01*
X63590435Y-70092024D01*
X63626909Y-70201581D01*
X63944516Y-71156063D01*
X64591050Y-71151878D01*
X64649651Y-71151495D01*
X64758316Y-71150769D01*
X64872196Y-71149989D01*
X64989267Y-71149169D01*
X65107507Y-71148326D01*
X65224891Y-71147473D01*
X65339397Y-71146626D01*
X65449002Y-71145799D01*
X65551681Y-71145006D01*
X65645411Y-71144263D01*
X65728169Y-71143585D01*
X65736442Y-71143516D01*
X65814546Y-71142910D01*
X65888585Y-71142413D01*
X65957568Y-71142026D01*
X66020502Y-71141753D01*
X66076394Y-71141594D01*
X66124253Y-71141553D01*
X66163086Y-71141631D01*
X66191900Y-71141829D01*
X66209705Y-71142151D01*
X66215506Y-71142597D01*
X66215210Y-71142837D01*
X66207689Y-71148624D01*
X66190464Y-71161788D01*
X66164066Y-71181922D01*
X66129028Y-71208624D01*
X66121242Y-71214554D01*
X66095646Y-71234048D01*
X66085879Y-71241487D01*
X66076760Y-71248430D01*
G37*
G36*
X74251640Y-75732197D02*
G01*
X74314226Y-75732281D01*
X74366297Y-75732474D01*
X74409054Y-75732819D01*
X74443700Y-75733360D01*
X74471434Y-75734141D01*
X74493459Y-75735205D01*
X74510976Y-75736598D01*
X74525186Y-75738362D01*
X74537291Y-75740541D01*
X74548493Y-75743179D01*
X74559991Y-75746319D01*
X74593766Y-75756763D01*
X74642592Y-75776486D01*
X74683707Y-75800240D01*
X74720394Y-75829731D01*
X74723927Y-75833054D01*
X74762013Y-75877604D01*
X74791236Y-75930334D01*
X74812289Y-75992466D01*
X74814225Y-76000313D01*
X74816591Y-76011350D01*
X74818589Y-76023451D01*
X74820250Y-76037699D01*
X74821604Y-76055180D01*
X74822682Y-76076978D01*
X74823516Y-76104179D01*
X74824137Y-76137866D01*
X74824575Y-76179125D01*
X74824862Y-76229040D01*
X74825029Y-76288697D01*
X74825106Y-76359180D01*
X74825125Y-76441574D01*
X74825121Y-76473111D01*
X74825052Y-76552853D01*
X74824881Y-76621025D01*
X74824583Y-76678678D01*
X74824134Y-76726863D01*
X74823510Y-76766629D01*
X74822685Y-76799028D01*
X74821635Y-76825108D01*
X74820335Y-76845921D01*
X74818762Y-76862517D01*
X74816890Y-76875947D01*
X74814694Y-76887260D01*
X74798533Y-76942340D01*
X74770677Y-77000149D01*
X74733486Y-77048954D01*
X74686835Y-77088882D01*
X74630595Y-77120066D01*
X74564639Y-77142634D01*
X74562122Y-77143262D01*
X74548020Y-77146095D01*
X74530291Y-77148488D01*
X74507597Y-77150510D01*
X74478600Y-77152228D01*
X74441962Y-77153711D01*
X74396343Y-77155026D01*
X74340405Y-77156241D01*
X74272810Y-77157424D01*
X74250414Y-77157785D01*
X74187076Y-77158870D01*
X74135140Y-77160005D01*
X74093394Y-77161387D01*
X74060628Y-77163214D01*
X74035629Y-77165684D01*
X74017186Y-77168995D01*
X74004087Y-77173344D01*
X73995119Y-77178930D01*
X73989073Y-77185950D01*
X73984735Y-77194603D01*
X73980894Y-77205085D01*
X73979270Y-77214799D01*
X73977644Y-77238107D01*
X73976309Y-77274199D01*
X73975268Y-77322964D01*
X73974524Y-77384288D01*
X73974079Y-77458060D01*
X73973934Y-77544168D01*
X73973945Y-77594291D01*
X73974006Y-77658934D01*
X73974160Y-77712493D01*
X73974450Y-77756111D01*
X73974921Y-77790933D01*
X73975616Y-77818102D01*
X73976578Y-77838764D01*
X73977851Y-77854062D01*
X73979480Y-77865140D01*
X73981507Y-77873142D01*
X73983977Y-77879213D01*
X73986933Y-77884496D01*
X73988278Y-77886598D01*
X74002254Y-77902384D01*
X74017485Y-77912459D01*
X74027190Y-77914338D01*
X74049646Y-77916070D01*
X74082402Y-77917149D01*
X74123985Y-77917530D01*
X74172922Y-77917171D01*
X74212332Y-77916580D01*
X74248478Y-77915857D01*
X74275009Y-77914909D01*
X74293757Y-77913526D01*
X74306553Y-77911497D01*
X74315228Y-77908612D01*
X74321614Y-77904662D01*
X74327543Y-77899437D01*
X74328004Y-77898997D01*
X74341486Y-77881129D01*
X74350758Y-77860450D01*
X74351820Y-77854523D01*
X74353554Y-77835094D01*
X74355042Y-77806056D01*
X74356207Y-77769571D01*
X74356967Y-77727799D01*
X74357245Y-77682902D01*
X74357282Y-77528578D01*
X74819519Y-77528578D01*
X74817367Y-77757627D01*
X74815216Y-77986675D01*
X74797166Y-78037952D01*
X74792427Y-78050748D01*
X74770490Y-78098494D01*
X74744540Y-78140464D01*
X74716725Y-78173051D01*
X74699807Y-78187483D01*
X74657831Y-78214605D01*
X74607799Y-78238141D01*
X74552949Y-78256682D01*
X74496520Y-78268820D01*
X74496332Y-78268847D01*
X74481868Y-78269982D01*
X74455894Y-78270987D01*
X74419862Y-78271846D01*
X74375221Y-78272540D01*
X74323424Y-78273051D01*
X74265921Y-78273361D01*
X74204165Y-78273451D01*
X74139605Y-78273304D01*
X74103180Y-78273148D01*
X74036031Y-78272815D01*
X73980031Y-78272430D01*
X73933930Y-78271941D01*
X73896479Y-78271297D01*
X73866427Y-78270446D01*
X73842526Y-78269336D01*
X73823526Y-78267916D01*
X73808177Y-78266134D01*
X73795230Y-78263939D01*
X73783436Y-78261278D01*
X73771545Y-78258102D01*
X73705624Y-78234790D01*
X73649825Y-78204315D01*
X73603504Y-78166271D01*
X73581791Y-78142260D01*
X73555785Y-78104017D01*
X73535379Y-78059454D01*
X73518865Y-78005325D01*
X73517382Y-77999351D01*
X73514940Y-77988618D01*
X73512869Y-77977412D01*
X73511143Y-77964690D01*
X73509738Y-77949407D01*
X73508629Y-77930522D01*
X73507792Y-77906989D01*
X73507201Y-77877766D01*
X73506831Y-77841808D01*
X73506658Y-77798074D01*
X73506658Y-77745517D01*
X73506805Y-77683097D01*
X73507074Y-77609767D01*
X73507441Y-77524486D01*
X73509345Y-77096473D01*
X73527299Y-77043445D01*
X73536470Y-77018908D01*
X73564666Y-76964619D01*
X73601121Y-76919477D01*
X73646579Y-76882829D01*
X73701784Y-76854019D01*
X73767480Y-76832396D01*
X73772732Y-76831076D01*
X73787792Y-76827678D01*
X73803655Y-76824884D01*
X73821844Y-76822604D01*
X73843884Y-76820746D01*
X73871299Y-76819218D01*
X73905612Y-76817931D01*
X73948349Y-76816792D01*
X74001032Y-76815711D01*
X74065186Y-76814596D01*
X74081336Y-76814329D01*
X74144861Y-76813228D01*
X74196918Y-76812089D01*
X74238751Y-76810697D01*
X74271604Y-76808839D01*
X74296719Y-76806300D01*
X74315341Y-76802866D01*
X74328713Y-76798324D01*
X74338079Y-76792459D01*
X74344683Y-76785057D01*
X74349767Y-76775905D01*
X74354576Y-76764787D01*
X74356291Y-76757335D01*
X74358445Y-76736863D01*
X74360282Y-76706235D01*
X74361801Y-76667106D01*
X74363002Y-76621128D01*
X74363884Y-76569954D01*
X74364445Y-76515239D01*
X74364685Y-76458634D01*
X74364603Y-76401795D01*
X74364198Y-76346373D01*
X74363469Y-76294023D01*
X74362415Y-76246398D01*
X74361035Y-76205150D01*
X74359328Y-76171935D01*
X74357293Y-76148403D01*
X74354930Y-76136210D01*
X74353448Y-76132732D01*
X74346862Y-76118759D01*
X74339528Y-76108144D01*
X74329695Y-76100395D01*
X74315615Y-76095016D01*
X74295537Y-76091513D01*
X74267713Y-76089394D01*
X74230392Y-76088163D01*
X74181825Y-76087326D01*
X74178632Y-76087280D01*
X74131296Y-76086786D01*
X74094988Y-76086895D01*
X74067859Y-76087701D01*
X74048060Y-76089295D01*
X74033744Y-76091769D01*
X74023061Y-76095215D01*
X74011297Y-76100836D01*
X74001759Y-76107871D01*
X73994406Y-76117678D01*
X73988956Y-76131719D01*
X73985128Y-76151453D01*
X73982641Y-76178341D01*
X73981213Y-76213842D01*
X73980562Y-76259417D01*
X73980408Y-76316525D01*
X73980408Y-76482428D01*
X73511547Y-76482428D01*
X73514289Y-76253380D01*
X73514653Y-76223991D01*
X73515579Y-76162644D01*
X73516759Y-76112070D01*
X73518398Y-76070705D01*
X73520707Y-76036983D01*
X73523891Y-76009340D01*
X73528160Y-75986212D01*
X73533721Y-75966034D01*
X73540782Y-75947241D01*
X73549551Y-75928269D01*
X73560236Y-75907553D01*
X73576246Y-75880736D01*
X73612963Y-75836532D01*
X73659034Y-75799820D01*
X73715205Y-75770061D01*
X73782224Y-75746712D01*
X73784342Y-75746121D01*
X73796045Y-75742987D01*
X73807474Y-75740362D01*
X73819836Y-75738200D01*
X73834336Y-75736456D01*
X73852182Y-75735086D01*
X73874579Y-75734045D01*
X73902733Y-75733287D01*
X73937852Y-75732768D01*
X73981141Y-75732443D01*
X74033807Y-75732266D01*
X74097056Y-75732193D01*
X74172094Y-75732178D01*
X74177337Y-75732178D01*
X74251640Y-75732197D01*
G37*
G36*
X55187072Y-78274312D02*
G01*
X55125665Y-78274085D01*
X55036193Y-78273737D01*
X54958272Y-78273393D01*
X54891009Y-78273027D01*
X54833510Y-78272616D01*
X54784881Y-78272137D01*
X54744230Y-78271564D01*
X54710663Y-78270875D01*
X54683287Y-78270044D01*
X54661209Y-78269048D01*
X54643535Y-78267864D01*
X54629372Y-78266466D01*
X54617827Y-78264832D01*
X54608006Y-78262936D01*
X54599016Y-78260756D01*
X54589964Y-78258266D01*
X54554804Y-78247154D01*
X54494234Y-78220702D01*
X54443929Y-78187337D01*
X54402920Y-78146182D01*
X54370234Y-78096359D01*
X54344901Y-78036994D01*
X54327735Y-77986675D01*
X54327735Y-77003693D01*
X54791514Y-77003693D01*
X54791605Y-77097411D01*
X54791791Y-77190206D01*
X54792073Y-77281152D01*
X54792449Y-77369324D01*
X54792919Y-77453796D01*
X54793483Y-77533644D01*
X54794140Y-77607942D01*
X54794890Y-77675764D01*
X54795733Y-77736187D01*
X54796669Y-77788283D01*
X54797696Y-77831129D01*
X54798814Y-77863798D01*
X54800024Y-77885366D01*
X54801324Y-77894908D01*
X54802150Y-77896808D01*
X54815150Y-77914598D01*
X54837193Y-77927188D01*
X54837316Y-77927237D01*
X54846664Y-77930325D01*
X54858478Y-77932771D01*
X54874261Y-77934646D01*
X54895518Y-77936021D01*
X54923753Y-77936968D01*
X54960471Y-77937556D01*
X55007175Y-77937857D01*
X55065369Y-77937941D01*
X55266670Y-77937941D01*
X55266670Y-76065901D01*
X55055955Y-76067859D01*
X55029083Y-76068113D01*
X54976300Y-76068678D01*
X54934448Y-76069300D01*
X54902092Y-76070076D01*
X54877793Y-76071104D01*
X54860117Y-76072481D01*
X54847627Y-76074305D01*
X54838886Y-76076674D01*
X54832458Y-76079686D01*
X54826906Y-76083438D01*
X54826780Y-76083533D01*
X54811541Y-76097713D01*
X54800547Y-76112679D01*
X54800489Y-76112804D01*
X54799202Y-76122300D01*
X54798015Y-76143827D01*
X54796929Y-76176458D01*
X54795944Y-76219269D01*
X54795058Y-76271334D01*
X54794272Y-76331728D01*
X54793585Y-76399526D01*
X54792996Y-76473802D01*
X54792506Y-76553631D01*
X54792113Y-76638089D01*
X54791818Y-76726249D01*
X54791621Y-76817187D01*
X54791519Y-76909976D01*
X54791514Y-77003693D01*
X54327735Y-77003693D01*
X54327735Y-76017834D01*
X54345886Y-75964228D01*
X54348889Y-75955691D01*
X54376430Y-75897539D01*
X54413441Y-75848083D01*
X54460024Y-75807247D01*
X54516284Y-75774956D01*
X54582320Y-75751137D01*
X54658237Y-75735713D01*
X54670113Y-75734599D01*
X54697254Y-75733241D01*
X54736901Y-75732052D01*
X54788772Y-75731036D01*
X54852587Y-75730198D01*
X54928063Y-75729539D01*
X55014921Y-75729065D01*
X55112879Y-75728777D01*
X55221656Y-75728681D01*
X55734514Y-75728681D01*
X55734514Y-78276316D01*
X55187072Y-78274312D01*
G37*
G36*
X66639906Y-70793049D02*
G01*
X66655801Y-70793947D01*
X66742357Y-70798837D01*
X66765927Y-70800350D01*
X66842509Y-70805266D01*
X66942637Y-70812483D01*
X67045013Y-70820638D01*
X67151911Y-70829879D01*
X67265603Y-70840354D01*
X67388364Y-70852213D01*
X67400902Y-70853475D01*
X67461433Y-70860168D01*
X67533636Y-70868973D01*
X67616604Y-70879758D01*
X67709431Y-70892390D01*
X67811209Y-70906736D01*
X67921031Y-70922664D01*
X68037990Y-70940040D01*
X68161179Y-70958732D01*
X68289692Y-70978607D01*
X68422620Y-70999532D01*
X68559058Y-71021374D01*
X68698097Y-71044001D01*
X68701288Y-71044524D01*
X68796337Y-71059819D01*
X68883128Y-71073083D01*
X68963432Y-71084436D01*
X69039018Y-71094001D01*
X69111656Y-71101899D01*
X69183117Y-71108253D01*
X69255170Y-71113182D01*
X69329586Y-71116810D01*
X69408134Y-71119258D01*
X69492586Y-71120648D01*
X69584710Y-71121101D01*
X69686277Y-71120739D01*
X69799057Y-71119684D01*
X69832848Y-71119288D01*
X69916610Y-71118185D01*
X69990677Y-71116972D01*
X70057460Y-71115557D01*
X70119371Y-71113849D01*
X70178820Y-71111757D01*
X70238221Y-71109191D01*
X70299985Y-71106058D01*
X70366522Y-71102270D01*
X70440245Y-71097733D01*
X70523565Y-71092358D01*
X70611171Y-71086398D01*
X70898475Y-71063918D01*
X71196838Y-71036237D01*
X71505644Y-71003429D01*
X71824276Y-70965565D01*
X72152118Y-70922718D01*
X72488554Y-70874959D01*
X72832967Y-70822360D01*
X72843244Y-70820739D01*
X72897679Y-70812232D01*
X72947840Y-70804522D01*
X72992300Y-70797817D01*
X73029634Y-70792330D01*
X73058415Y-70788269D01*
X73077216Y-70785845D01*
X73084612Y-70785268D01*
X73082082Y-70788148D01*
X73070489Y-70798767D01*
X73050198Y-70816624D01*
X73021915Y-70841116D01*
X72986348Y-70871641D01*
X72944203Y-70907595D01*
X72896189Y-70948375D01*
X72843012Y-70993378D01*
X72785380Y-71042001D01*
X72724000Y-71093641D01*
X72659579Y-71147695D01*
X72229244Y-71508305D01*
X72141184Y-71512818D01*
X72131031Y-71513427D01*
X72111316Y-71515048D01*
X72088255Y-71517503D01*
X72060991Y-71520929D01*
X72028664Y-71525464D01*
X71990419Y-71531246D01*
X71945396Y-71538412D01*
X71892738Y-71547100D01*
X71831588Y-71557448D01*
X71761087Y-71569594D01*
X71680378Y-71583675D01*
X71588603Y-71599829D01*
X71484904Y-71618194D01*
X71441253Y-71625940D01*
X71256063Y-71658748D01*
X71083240Y-71689271D01*
X70922448Y-71717566D01*
X70773351Y-71743692D01*
X70635611Y-71767704D01*
X70508892Y-71789661D01*
X70392857Y-71809621D01*
X70287169Y-71827640D01*
X70191492Y-71843776D01*
X70105490Y-71858087D01*
X70028824Y-71870629D01*
X69961160Y-71881462D01*
X69902159Y-71890641D01*
X69851486Y-71898225D01*
X69808804Y-71904270D01*
X69760911Y-71910125D01*
X69693558Y-71918359D01*
X69657428Y-71922776D01*
X69481771Y-71939609D01*
X69296667Y-71952924D01*
X69103717Y-71962703D01*
X68904525Y-71968926D01*
X68700694Y-71971573D01*
X68493828Y-71970625D01*
X68285529Y-71966062D01*
X68077400Y-71957864D01*
X67871046Y-71946012D01*
X67668068Y-71930486D01*
X67658653Y-71929676D01*
X67609735Y-71925640D01*
X67573383Y-71922957D01*
X67549296Y-71921567D01*
X67537172Y-71921409D01*
X67536711Y-71922420D01*
X67547611Y-71924540D01*
X67569571Y-71927706D01*
X67602290Y-71931859D01*
X67645467Y-71936936D01*
X67698800Y-71942877D01*
X67761989Y-71949619D01*
X67792437Y-71952766D01*
X68012160Y-71973085D01*
X68232687Y-71989382D01*
X68452563Y-72001640D01*
X68670329Y-72009845D01*
X68884530Y-72013978D01*
X69093707Y-72014025D01*
X69296403Y-72009968D01*
X69491163Y-72001792D01*
X69676527Y-71989479D01*
X69851040Y-71973015D01*
X69880058Y-71969912D01*
X69927111Y-71965102D01*
X69981267Y-71959755D01*
X70039211Y-71954190D01*
X70097624Y-71948731D01*
X70153189Y-71943700D01*
X70204393Y-71939128D01*
X70304406Y-71930089D01*
X70414713Y-71919998D01*
X70533626Y-71909013D01*
X70659461Y-71897293D01*
X70790531Y-71884997D01*
X70925149Y-71872282D01*
X71061630Y-71859307D01*
X71198286Y-71846231D01*
X71333433Y-71833212D01*
X71465382Y-71820408D01*
X71501729Y-71816876D01*
X71573452Y-71809952D01*
X71640772Y-71803516D01*
X71702622Y-71797666D01*
X71757936Y-71792501D01*
X71805648Y-71788118D01*
X71844691Y-71784616D01*
X71874000Y-71782094D01*
X71892509Y-71780649D01*
X71899150Y-71780381D01*
X71896133Y-71783418D01*
X71884009Y-71794172D01*
X71863343Y-71812050D01*
X71834921Y-71836385D01*
X71799525Y-71866512D01*
X71757940Y-71901765D01*
X71710949Y-71941479D01*
X71659338Y-71984989D01*
X71603888Y-72031628D01*
X71545386Y-72080731D01*
X71189592Y-72379051D01*
X71098622Y-72383338D01*
X71081217Y-72384431D01*
X71044363Y-72387659D01*
X70997851Y-72392521D01*
X70943632Y-72398787D01*
X70883656Y-72406228D01*
X70819874Y-72414617D01*
X70754237Y-72423723D01*
X70752078Y-72424031D01*
X70683439Y-72433766D01*
X70606698Y-72444580D01*
X70522695Y-72456357D01*
X70432268Y-72468983D01*
X70336257Y-72482343D01*
X70235500Y-72496323D01*
X70130836Y-72510808D01*
X70023104Y-72525684D01*
X69913144Y-72540835D01*
X69801793Y-72556148D01*
X69689892Y-72571507D01*
X69578279Y-72586798D01*
X69467792Y-72601907D01*
X69359271Y-72616718D01*
X69253555Y-72631118D01*
X69151483Y-72644991D01*
X69053894Y-72658222D01*
X68961626Y-72670699D01*
X68875519Y-72682304D01*
X68796411Y-72692925D01*
X68725142Y-72702447D01*
X68662550Y-72710754D01*
X68609475Y-72717732D01*
X68566755Y-72723267D01*
X68535229Y-72727244D01*
X68515737Y-72729548D01*
X68509503Y-72730220D01*
X68458237Y-72735455D01*
X68408297Y-72739954D01*
X68358252Y-72743767D01*
X68306669Y-72746946D01*
X68252116Y-72749543D01*
X68193162Y-72751607D01*
X68128375Y-72753190D01*
X68056321Y-72754344D01*
X67975570Y-72755119D01*
X67884690Y-72755566D01*
X67782248Y-72755738D01*
X67763851Y-72755751D01*
X67694823Y-72755885D01*
X67684870Y-72755925D01*
X67630876Y-72756142D01*
X67572999Y-72756510D01*
X67522183Y-72756977D01*
X67479415Y-72757530D01*
X67445686Y-72758157D01*
X67421985Y-72758846D01*
X67409301Y-72759584D01*
X67408623Y-72760360D01*
X67408865Y-72760394D01*
X67430600Y-72763014D01*
X67463269Y-72766422D01*
X67504878Y-72770445D01*
X67553433Y-72774909D01*
X67606940Y-72779641D01*
X67663404Y-72784468D01*
X67720831Y-72789216D01*
X67777228Y-72793713D01*
X67830598Y-72797783D01*
X67878950Y-72801255D01*
X67893627Y-72802250D01*
X67982728Y-72807627D01*
X68074580Y-72812130D01*
X68166941Y-72815703D01*
X68257572Y-72818293D01*
X68344232Y-72819845D01*
X68424679Y-72820304D01*
X68496673Y-72819617D01*
X68557972Y-72817729D01*
X68558519Y-72817704D01*
X68587384Y-72816194D01*
X68628521Y-72813757D01*
X68681261Y-72810441D01*
X68744934Y-72806294D01*
X68818868Y-72801361D01*
X68902395Y-72795692D01*
X68994844Y-72789332D01*
X69095545Y-72782328D01*
X69203828Y-72774730D01*
X69319023Y-72766582D01*
X69440459Y-72757933D01*
X69567467Y-72748830D01*
X69699377Y-72739320D01*
X69835518Y-72729450D01*
X69975221Y-72719267D01*
X70117815Y-72708820D01*
X70262630Y-72698154D01*
X70408996Y-72687317D01*
X70452543Y-72684096D01*
X70524794Y-72678807D01*
X70592557Y-72673914D01*
X70654773Y-72669490D01*
X70710382Y-72665607D01*
X70758326Y-72662339D01*
X70797547Y-72659758D01*
X70826985Y-72657937D01*
X70845582Y-72656949D01*
X70852279Y-72656866D01*
X70852277Y-72656976D01*
X70846948Y-72662374D01*
X70832823Y-72675054D01*
X70810980Y-72694090D01*
X70782494Y-72718558D01*
X70748442Y-72747533D01*
X70709901Y-72780088D01*
X70667948Y-72815300D01*
X70652656Y-72828095D01*
X70597396Y-72874344D01*
X70536768Y-72925098D01*
X70473839Y-72977790D01*
X70411676Y-73029850D01*
X70353347Y-73078711D01*
X70301919Y-73121802D01*
X70122508Y-73272159D01*
X69999770Y-73278598D01*
X69962024Y-73280908D01*
X69906924Y-73284989D01*
X69841523Y-73290406D01*
X69767220Y-73297013D01*
X69685417Y-73304664D01*
X69597514Y-73313212D01*
X69504912Y-73322509D01*
X69409012Y-73332409D01*
X69311215Y-73342766D01*
X69212921Y-73353432D01*
X69115532Y-73364261D01*
X69020447Y-73375106D01*
X68929069Y-73385820D01*
X68842797Y-73396257D01*
X68763033Y-73406269D01*
X68691178Y-73415710D01*
X68671076Y-73418468D01*
X68616726Y-73426221D01*
X68555539Y-73435280D01*
X68491698Y-73445012D01*
X68429385Y-73454781D01*
X68372784Y-73463955D01*
X68307704Y-73474399D01*
X68195301Y-73490997D01*
X68082133Y-73506005D01*
X67970117Y-73519231D01*
X67861171Y-73530483D01*
X67757213Y-73539569D01*
X67660161Y-73546296D01*
X67571933Y-73550474D01*
X67494448Y-73551909D01*
X67477650Y-73552114D01*
X67453052Y-73553265D01*
X67435437Y-73555202D01*
X67427810Y-73557665D01*
X67427962Y-73558055D01*
X67436235Y-73559747D01*
X67455730Y-73561549D01*
X67485026Y-73563380D01*
X67522698Y-73565162D01*
X67567326Y-73566815D01*
X67617487Y-73568259D01*
X67692066Y-73569533D01*
X67812880Y-73569503D01*
X67939018Y-73567224D01*
X68065998Y-73562828D01*
X68189338Y-73556444D01*
X68304557Y-73548205D01*
X68311527Y-73547652D01*
X68352572Y-73545109D01*
X68405095Y-73542770D01*
X68467837Y-73540649D01*
X68539544Y-73538760D01*
X68618959Y-73537115D01*
X68704826Y-73535730D01*
X68795888Y-73534616D01*
X68890889Y-73533789D01*
X68988573Y-73533260D01*
X69087683Y-73533045D01*
X69186963Y-73533156D01*
X69285156Y-73533607D01*
X69381007Y-73534412D01*
X69473259Y-73535584D01*
X69797243Y-73540478D01*
X69778656Y-73558459D01*
X69776586Y-73560350D01*
X69764878Y-73570514D01*
X69744308Y-73588069D01*
X69715664Y-73612353D01*
X69679732Y-73642702D01*
X69637300Y-73678455D01*
X69589156Y-73718947D01*
X69536086Y-73763516D01*
X69478877Y-73811500D01*
X69418317Y-73862234D01*
X69355192Y-73915058D01*
X69275294Y-73981749D01*
X69198564Y-74045486D01*
X69131647Y-74100712D01*
X69074540Y-74147427D01*
X69027241Y-74185634D01*
X68989748Y-74215335D01*
X68962059Y-74236531D01*
X68944171Y-74249224D01*
X68936083Y-74253417D01*
X68927716Y-74253576D01*
X68907035Y-74254132D01*
X68874797Y-74255061D01*
X68831724Y-74256342D01*
X68778538Y-74257950D01*
X68715961Y-74259864D01*
X68644714Y-74262060D01*
X68565520Y-74264515D01*
X68479101Y-74267206D01*
X68386177Y-74270110D01*
X68287472Y-74273204D01*
X68183706Y-74276466D01*
X68075603Y-74279872D01*
X67963884Y-74283400D01*
X67849270Y-74287026D01*
X67732484Y-74290727D01*
X67614247Y-74294481D01*
X67495282Y-74298265D01*
X67376310Y-74302055D01*
X67258053Y-74305829D01*
X67141234Y-74309563D01*
X67026573Y-74313235D01*
X66914793Y-74316822D01*
X66806616Y-74320301D01*
X66702764Y-74323648D01*
X66603958Y-74326842D01*
X66510920Y-74329858D01*
X66424373Y-74332674D01*
X66345038Y-74335267D01*
X66273637Y-74337615D01*
X66210892Y-74339693D01*
X66157525Y-74341480D01*
X66114258Y-74342951D01*
X66081812Y-74344085D01*
X66060910Y-74344858D01*
X66039404Y-74345791D01*
X65955278Y-74350828D01*
X65863899Y-74358190D01*
X65768160Y-74367536D01*
X65670954Y-74378523D01*
X65575172Y-74390808D01*
X65483709Y-74404048D01*
X65399455Y-74417901D01*
X65325304Y-74432023D01*
X65303850Y-74436057D01*
X65283361Y-74439046D01*
X65270866Y-74439826D01*
X65270189Y-74439606D01*
X65267756Y-74436975D01*
X65264412Y-74430937D01*
X65259973Y-74420927D01*
X65254256Y-74406382D01*
X65247077Y-74386742D01*
X65238253Y-74361441D01*
X65227600Y-74329918D01*
X65214934Y-74291611D01*
X65200071Y-74245955D01*
X65182829Y-74192389D01*
X65163023Y-74130350D01*
X65140470Y-74059274D01*
X65114985Y-73978600D01*
X65086387Y-73887764D01*
X65054490Y-73786204D01*
X65019111Y-73673357D01*
X64980067Y-73548660D01*
X64950715Y-73454863D01*
X64919004Y-73353504D01*
X64888527Y-73256065D01*
X64859505Y-73163253D01*
X64832159Y-73075775D01*
X64806708Y-72994339D01*
X64783375Y-72919650D01*
X64762379Y-72852415D01*
X64743942Y-72793342D01*
X64732273Y-72755925D01*
X67365621Y-72755925D01*
X67368870Y-72759174D01*
X67372119Y-72755925D01*
X67368870Y-72752676D01*
X67365621Y-72755925D01*
X64732273Y-72755925D01*
X64728285Y-72743136D01*
X64715627Y-72702506D01*
X64706190Y-72672157D01*
X64700195Y-72652796D01*
X64697862Y-72645131D01*
X64698216Y-72643400D01*
X64700819Y-72639768D01*
X64706182Y-72634232D01*
X64714690Y-72626503D01*
X64726729Y-72616290D01*
X64742683Y-72603303D01*
X64762939Y-72587253D01*
X64787881Y-72567848D01*
X64817894Y-72544799D01*
X64853364Y-72517817D01*
X64894676Y-72486610D01*
X64942216Y-72450889D01*
X64996368Y-72410363D01*
X65057518Y-72364744D01*
X65126051Y-72313740D01*
X65202353Y-72257062D01*
X65286808Y-72194419D01*
X65379803Y-72125522D01*
X65481721Y-72050080D01*
X65592950Y-71967804D01*
X65661553Y-71917083D01*
X67488861Y-71917083D01*
X67490254Y-71918770D01*
X67502076Y-71919447D01*
X67506484Y-71919384D01*
X67515469Y-71918359D01*
X67513447Y-71916476D01*
X67507185Y-71915465D01*
X67490705Y-71916476D01*
X67488861Y-71917083D01*
X65661553Y-71917083D01*
X65668320Y-71912080D01*
X67444745Y-71912080D01*
X67450093Y-71914457D01*
X67453533Y-71913988D01*
X67454425Y-71910125D01*
X67453473Y-71909347D01*
X67445761Y-71910125D01*
X67444745Y-71912080D01*
X65668320Y-71912080D01*
X65713872Y-71878402D01*
X65844875Y-71781587D01*
X65871365Y-71762012D01*
X65979596Y-71682012D01*
X66084899Y-71604143D01*
X66186805Y-71528751D01*
X66284844Y-71456188D01*
X66378543Y-71386802D01*
X66467434Y-71320943D01*
X66551046Y-71258959D01*
X66628907Y-71201201D01*
X66700547Y-71148017D01*
X66765497Y-71099756D01*
X66823285Y-71056769D01*
X66873440Y-71019404D01*
X66915493Y-70988010D01*
X66948972Y-70962938D01*
X66973407Y-70944535D01*
X66988328Y-70933152D01*
X66993264Y-70929138D01*
X66989063Y-70928901D01*
X66972680Y-70928530D01*
X66944617Y-70928086D01*
X66905610Y-70927577D01*
X66856393Y-70927009D01*
X66797702Y-70926389D01*
X66730272Y-70925724D01*
X66654838Y-70925022D01*
X66572135Y-70924289D01*
X66482899Y-70923532D01*
X66387864Y-70922758D01*
X66287766Y-70921975D01*
X66183340Y-70921188D01*
X66075321Y-70920406D01*
X66055445Y-70920265D01*
X65882309Y-70919004D01*
X65718728Y-70917759D01*
X65564930Y-70916532D01*
X65421145Y-70915326D01*
X65287603Y-70914143D01*
X65164533Y-70912987D01*
X65052165Y-70911860D01*
X64950727Y-70910763D01*
X64860449Y-70909701D01*
X64781561Y-70908675D01*
X64714292Y-70907688D01*
X64658872Y-70906742D01*
X64615529Y-70905841D01*
X64584494Y-70904986D01*
X64565995Y-70904180D01*
X64560262Y-70903426D01*
X64560756Y-70903195D01*
X64570171Y-70900763D01*
X64589958Y-70896328D01*
X64618176Y-70890307D01*
X64652887Y-70883115D01*
X64692153Y-70875167D01*
X64726474Y-70868471D01*
X64792876Y-70856344D01*
X64861732Y-70844699D01*
X64930014Y-70834003D01*
X64994693Y-70824720D01*
X65052741Y-70817316D01*
X65101129Y-70812259D01*
X65109798Y-70811446D01*
X65130280Y-70808982D01*
X65142634Y-70806626D01*
X65144445Y-70804792D01*
X65133060Y-70803703D01*
X65109856Y-70804476D01*
X65076735Y-70807059D01*
X65035192Y-70811251D01*
X64986720Y-70816849D01*
X64932816Y-70823652D01*
X64874975Y-70831457D01*
X64814693Y-70840061D01*
X64753463Y-70849263D01*
X64692782Y-70858861D01*
X64634145Y-70868652D01*
X64579046Y-70878435D01*
X64528982Y-70888006D01*
X64501091Y-70893500D01*
X64473699Y-70898482D01*
X64449526Y-70902064D01*
X64425869Y-70904441D01*
X64400026Y-70905808D01*
X64369296Y-70906359D01*
X64330977Y-70906290D01*
X64282365Y-70905795D01*
X64133554Y-70904045D01*
X64100409Y-70799756D01*
X65170938Y-70799756D01*
X65174796Y-70801052D01*
X65188850Y-70801559D01*
X65198385Y-70801369D01*
X65206549Y-70800350D01*
X65203470Y-70798743D01*
X65193164Y-70797668D01*
X65174230Y-70798743D01*
X65170938Y-70799756D01*
X64100409Y-70799756D01*
X64098324Y-70793197D01*
X65246750Y-70793197D01*
X65250202Y-70794669D01*
X65263575Y-70795192D01*
X65270662Y-70795024D01*
X65278472Y-70793947D01*
X65274870Y-70792235D01*
X65264483Y-70791156D01*
X65248879Y-70792366D01*
X65246750Y-70793197D01*
X64098324Y-70793197D01*
X64096381Y-70787084D01*
X65344798Y-70787084D01*
X65348047Y-70790333D01*
X65351296Y-70787084D01*
X65348047Y-70783835D01*
X65344798Y-70787084D01*
X64096381Y-70787084D01*
X64089907Y-70766715D01*
X65948763Y-70766715D01*
X65949134Y-70767669D01*
X65960499Y-70768325D01*
X65981585Y-70768569D01*
X65994737Y-70768487D01*
X66010430Y-70767994D01*
X66015676Y-70767154D01*
X66009200Y-70766082D01*
X66006468Y-70765858D01*
X65979846Y-70765059D01*
X65953969Y-70766082D01*
X65948763Y-70766715D01*
X64089907Y-70766715D01*
X63947694Y-70319241D01*
X63929391Y-70261761D01*
X63903489Y-70180726D01*
X63876193Y-70095647D01*
X63847839Y-70007549D01*
X63818760Y-69917460D01*
X63789293Y-69826405D01*
X63759773Y-69735410D01*
X63730534Y-69645502D01*
X63701911Y-69557707D01*
X63674241Y-69473051D01*
X63647857Y-69392560D01*
X63623096Y-69317261D01*
X63600291Y-69248180D01*
X63579779Y-69186342D01*
X63561894Y-69132775D01*
X63546971Y-69088505D01*
X63535346Y-69054557D01*
X63527353Y-69031958D01*
X63530756Y-69027906D01*
X63544750Y-69019437D01*
X63568113Y-69007564D01*
X63599347Y-68992936D01*
X63636954Y-68976206D01*
X63679437Y-68958025D01*
X63725298Y-68939044D01*
X63773037Y-68919915D01*
X63821158Y-68901287D01*
X63868162Y-68883813D01*
X63921021Y-68865033D01*
X64078372Y-68813950D01*
X64239201Y-68769010D01*
X64404968Y-68729916D01*
X64577134Y-68696375D01*
X64757157Y-68668093D01*
X64946497Y-68644775D01*
X65146614Y-68626128D01*
X65185689Y-68623607D01*
X65237238Y-68621288D01*
X65297824Y-68619303D01*
X65365427Y-68617668D01*
X65438030Y-68616403D01*
X65513612Y-68615525D01*
X65590154Y-68615051D01*
X65665638Y-68614999D01*
X65738045Y-68615387D01*
X65805354Y-68616232D01*
X65865548Y-68617553D01*
X65916606Y-68619367D01*
X66001874Y-68623470D01*
X66090292Y-68628327D01*
X66177933Y-68633823D01*
X66265645Y-68640056D01*
X66354277Y-68647127D01*
X66444677Y-68655134D01*
X66537696Y-68664177D01*
X66634180Y-68674354D01*
X66734980Y-68685767D01*
X66840944Y-68698513D01*
X66952921Y-68712692D01*
X67071759Y-68728404D01*
X67198308Y-68745748D01*
X67333416Y-68764823D01*
X67477932Y-68785728D01*
X67632705Y-68808563D01*
X67798584Y-68833427D01*
X67976417Y-68860419D01*
X68170363Y-68889770D01*
X68356735Y-68917430D01*
X68531893Y-68942798D01*
X68696621Y-68965951D01*
X68851702Y-68986965D01*
X68997921Y-69005915D01*
X69136060Y-69022876D01*
X69266904Y-69037924D01*
X69391237Y-69051134D01*
X69509841Y-69062583D01*
X69623502Y-69072345D01*
X69733002Y-69080497D01*
X69839125Y-69087113D01*
X69942655Y-69092270D01*
X70044375Y-69096043D01*
X70145071Y-69098508D01*
X70245524Y-69099739D01*
X70346519Y-69099813D01*
X70448840Y-69098806D01*
X70513964Y-69097769D01*
X70578921Y-69096494D01*
X70638060Y-69094964D01*
X70693085Y-69093057D01*
X70745695Y-69090652D01*
X70797592Y-69087625D01*
X70850477Y-69083855D01*
X70906052Y-69079219D01*
X70966017Y-69073595D01*
X71032075Y-69066860D01*
X71105925Y-69058892D01*
X71189270Y-69049570D01*
X71283810Y-69038770D01*
X71475628Y-69016319D01*
X71889919Y-68965266D01*
X72313486Y-68909702D01*
X72744462Y-68849917D01*
X73180982Y-68786198D01*
X73621179Y-68718836D01*
X74063188Y-68648120D01*
X74505143Y-68574337D01*
X74945177Y-68497778D01*
X75381426Y-68418730D01*
X75812023Y-68337484D01*
X75832211Y-68333604D01*
X75886699Y-68323198D01*
X75936579Y-68313770D01*
X75980492Y-68305571D01*
X76017080Y-68298851D01*
X76044986Y-68293859D01*
X76062851Y-68290847D01*
X76069318Y-68290065D01*
X76068709Y-68290712D01*
X76060461Y-68297975D01*
X76043033Y-68312906D01*
X76017003Y-68335016D01*
X75982950Y-68363819D01*
X75941453Y-68398828D01*
X75893090Y-68439557D01*
X75838440Y-68485519D01*
X75778082Y-68536226D01*
X75712594Y-68591193D01*
X75642555Y-68649931D01*
X75568544Y-68711955D01*
X75491139Y-68776778D01*
X75410919Y-68843913D01*
X74751120Y-69395907D01*
X74191947Y-69482224D01*
X74184830Y-69483322D01*
X74024204Y-69508053D01*
X73860836Y-69533093D01*
X73695377Y-69558346D01*
X73528474Y-69583717D01*
X73360779Y-69609111D01*
X73192939Y-69634432D01*
X73025605Y-69659585D01*
X72859425Y-69684474D01*
X72695050Y-69709003D01*
X72533128Y-69733079D01*
X72374310Y-69756604D01*
X72219243Y-69779483D01*
X72068578Y-69801622D01*
X71922965Y-69822925D01*
X71783052Y-69843296D01*
X71649488Y-69862639D01*
X71522924Y-69880860D01*
X71404009Y-69897863D01*
X71293391Y-69913553D01*
X71191721Y-69927834D01*
X71099648Y-69940610D01*
X71017821Y-69951787D01*
X70946890Y-69961268D01*
X70887503Y-69968959D01*
X70840311Y-69974764D01*
X70713076Y-69989161D01*
X70499604Y-70010282D01*
X70288303Y-70027186D01*
X70076230Y-70040041D01*
X69860441Y-70049013D01*
X69637992Y-70054268D01*
X69405939Y-70055974D01*
X69347726Y-70055890D01*
X69176822Y-70054604D01*
X69016614Y-70051688D01*
X68865432Y-70047047D01*
X68721606Y-70040582D01*
X68583468Y-70032197D01*
X68449346Y-70021795D01*
X68317573Y-70009280D01*
X68186478Y-69994554D01*
X68054391Y-69977520D01*
X68034290Y-69974769D01*
X67964979Y-69965281D01*
X67889860Y-69954995D01*
X67812670Y-69944424D01*
X67737146Y-69934078D01*
X67667024Y-69924471D01*
X67606041Y-69916112D01*
X67573843Y-69911722D01*
X67524858Y-69905137D01*
X67480755Y-69899324D01*
X67443131Y-69894485D01*
X67413585Y-69890826D01*
X67393713Y-69888550D01*
X67385115Y-69887863D01*
X67383278Y-69888475D01*
X67389089Y-69891284D01*
X67405672Y-69896045D01*
X67431727Y-69902492D01*
X67465957Y-69910353D01*
X67507063Y-69919360D01*
X67553747Y-69929244D01*
X67604712Y-69939736D01*
X67658658Y-69950566D01*
X67714289Y-69961466D01*
X67770304Y-69972165D01*
X67825408Y-69982395D01*
X67878300Y-69991887D01*
X67927683Y-70000371D01*
X68165458Y-70037893D01*
X68466500Y-70078742D01*
X68766145Y-70111721D01*
X69066879Y-70137032D01*
X69371190Y-70154876D01*
X69681564Y-70165457D01*
X70000490Y-70168977D01*
X70013500Y-70168978D01*
X70100459Y-70168860D01*
X70181702Y-70168486D01*
X70258325Y-70167791D01*
X70331424Y-70166711D01*
X70402097Y-70165182D01*
X70471440Y-70163138D01*
X70540550Y-70160517D01*
X70610522Y-70157252D01*
X70682454Y-70153280D01*
X70757442Y-70148536D01*
X70836583Y-70142957D01*
X70920973Y-70136477D01*
X71011709Y-70129032D01*
X71109887Y-70120557D01*
X71216604Y-70110989D01*
X71332957Y-70100263D01*
X71460041Y-70088314D01*
X71598955Y-70075078D01*
X71628738Y-70072223D01*
X71730171Y-70062450D01*
X71836624Y-70052121D01*
X71947407Y-70041308D01*
X72061830Y-70030081D01*
X72179201Y-70018510D01*
X72298831Y-70006665D01*
X72420029Y-69994617D01*
X72542103Y-69982437D01*
X72664365Y-69970194D01*
X72786122Y-69957959D01*
X72906686Y-69945802D01*
X73025364Y-69933793D01*
X73141468Y-69922004D01*
X73254305Y-69910503D01*
X73363186Y-69899363D01*
X73467420Y-69888652D01*
X73566317Y-69878441D01*
X73659186Y-69868801D01*
X73745336Y-69859802D01*
X73824078Y-69851513D01*
X73894720Y-69844007D01*
X73956572Y-69837352D01*
X74008944Y-69831620D01*
X74051144Y-69826880D01*
X74082483Y-69823203D01*
X74102270Y-69820660D01*
X74109815Y-69819320D01*
X74111335Y-69818855D01*
X74123064Y-69817118D01*
X74143318Y-69814980D01*
X74168845Y-69812801D01*
X74176048Y-69812231D01*
X74203942Y-69809725D01*
X74227965Y-69807142D01*
X74243570Y-69804958D01*
X74254607Y-69803255D01*
X74258634Y-69804718D01*
X74253317Y-69811338D01*
X74248990Y-69815198D01*
X74235214Y-69827017D01*
X74212932Y-69845937D01*
X74182963Y-69871269D01*
X74146125Y-69902323D01*
X74103237Y-69938410D01*
X74055119Y-69978840D01*
X74002589Y-70022923D01*
X73946467Y-70069970D01*
X73887570Y-70119292D01*
X73531571Y-70417266D01*
X73263861Y-70474545D01*
X73159429Y-70496767D01*
X72833173Y-70564524D01*
X72518156Y-70627329D01*
X72213823Y-70685268D01*
X71919619Y-70738426D01*
X71750895Y-70767154D01*
X71634989Y-70786889D01*
X71359379Y-70830745D01*
X71092232Y-70870078D01*
X70832995Y-70904975D01*
X70581111Y-70935523D01*
X70336027Y-70961806D01*
X70097187Y-70983912D01*
X69864035Y-71001926D01*
X69855760Y-71002484D01*
X69804341Y-71005409D01*
X69744526Y-71008051D01*
X69678097Y-71010388D01*
X69606836Y-71012398D01*
X69532524Y-71014059D01*
X69456942Y-71015348D01*
X69381873Y-71016243D01*
X69309098Y-71016723D01*
X69240398Y-71016766D01*
X69177556Y-71016349D01*
X69122353Y-71015449D01*
X69076571Y-71014046D01*
X69041992Y-71012117D01*
X69041092Y-71012047D01*
X69008962Y-71009271D01*
X68966788Y-71005231D01*
X68917334Y-71000212D01*
X68863360Y-70994502D01*
X68807631Y-70988386D01*
X68752907Y-70982152D01*
X68722226Y-70978609D01*
X68629840Y-70968183D01*
X68526947Y-70956879D01*
X68415333Y-70944878D01*
X68296788Y-70932362D01*
X68173098Y-70919510D01*
X68046051Y-70906504D01*
X67917436Y-70893525D01*
X67789039Y-70880754D01*
X67662650Y-70868371D01*
X67540056Y-70856557D01*
X67423045Y-70845494D01*
X67313405Y-70835362D01*
X67212923Y-70826341D01*
X67142312Y-70820267D01*
X66989003Y-70808121D01*
X66839267Y-70797671D01*
X66694950Y-70789024D01*
X66557898Y-70782283D01*
X66429957Y-70777556D01*
X66312974Y-70774947D01*
X66303297Y-70774817D01*
X66262871Y-70774326D01*
X66230607Y-70774022D01*
X66207474Y-70773907D01*
X66194435Y-70773984D01*
X66192459Y-70774255D01*
X66202511Y-70774721D01*
X66296032Y-70778042D01*
X66419017Y-70782800D01*
X66517504Y-70787084D01*
X66532884Y-70787753D01*
X66639906Y-70793049D01*
G37*
G36*
X63546685Y-75731955D02*
G01*
X63611329Y-75732074D01*
X63665262Y-75732327D01*
X63709724Y-75732753D01*
X63745958Y-75733391D01*
X63775203Y-75734281D01*
X63798701Y-75735462D01*
X63817693Y-75736974D01*
X63833420Y-75738855D01*
X63847124Y-75741146D01*
X63860045Y-75743886D01*
X63921931Y-75762129D01*
X63981616Y-75790053D01*
X64031571Y-75826295D01*
X64072252Y-75871274D01*
X64104115Y-75925407D01*
X64127616Y-75989113D01*
X64129073Y-75994495D01*
X64131276Y-76004217D01*
X64133145Y-76015512D01*
X64134709Y-76029419D01*
X64135993Y-76046976D01*
X64137024Y-76069221D01*
X64137830Y-76097194D01*
X64138438Y-76131931D01*
X64138875Y-76174472D01*
X64139168Y-76225856D01*
X64139343Y-76287119D01*
X64139429Y-76359302D01*
X64139451Y-76443441D01*
X64139448Y-76476768D01*
X64139400Y-76556499D01*
X64139274Y-76624664D01*
X64139044Y-76682298D01*
X64138684Y-76730440D01*
X64138167Y-76770126D01*
X64137468Y-76802394D01*
X64136560Y-76828280D01*
X64135417Y-76848822D01*
X64134012Y-76865057D01*
X64132321Y-76878022D01*
X64130316Y-76888753D01*
X64127971Y-76898289D01*
X64123204Y-76914815D01*
X64099542Y-76975908D01*
X64068676Y-77026757D01*
X64029734Y-77068345D01*
X63981840Y-77101656D01*
X63924123Y-77127673D01*
X63903765Y-77134521D01*
X63879562Y-77141171D01*
X63853396Y-77146497D01*
X63823692Y-77150635D01*
X63788874Y-77153718D01*
X63747368Y-77155882D01*
X63697598Y-77157261D01*
X63637988Y-77157989D01*
X63566964Y-77158202D01*
X63504664Y-77158289D01*
X63453356Y-77158674D01*
X63412350Y-77159543D01*
X63380293Y-77161081D01*
X63355832Y-77163473D01*
X63337614Y-77166906D01*
X63324286Y-77171562D01*
X63314496Y-77177629D01*
X63306889Y-77185291D01*
X63300113Y-77194734D01*
X63299136Y-77196289D01*
X63296590Y-77201423D01*
X63294473Y-77208313D01*
X63292745Y-77218082D01*
X63291368Y-77231856D01*
X63290301Y-77250757D01*
X63289507Y-77275909D01*
X63288944Y-77308438D01*
X63288576Y-77349466D01*
X63288361Y-77400118D01*
X63288261Y-77461517D01*
X63288236Y-77534788D01*
X63288243Y-77585383D01*
X63288326Y-77654114D01*
X63288587Y-77711626D01*
X63289131Y-77758998D01*
X63290058Y-77797312D01*
X63291473Y-77827649D01*
X63293476Y-77851091D01*
X63296172Y-77868718D01*
X63299663Y-77881610D01*
X63304051Y-77890850D01*
X63309440Y-77897518D01*
X63315931Y-77902695D01*
X63323627Y-77907463D01*
X63327496Y-77909513D01*
X63336780Y-77912797D01*
X63349810Y-77915186D01*
X63368434Y-77916813D01*
X63394503Y-77917810D01*
X63429866Y-77918310D01*
X63476374Y-77918448D01*
X63511312Y-77918513D01*
X63555889Y-77918279D01*
X63591139Y-77916516D01*
X63618154Y-77911951D01*
X63638024Y-77903310D01*
X63651842Y-77889320D01*
X63660699Y-77868710D01*
X63665688Y-77840205D01*
X63667900Y-77802533D01*
X63668426Y-77754421D01*
X63668359Y-77694595D01*
X63668359Y-77528578D01*
X64137364Y-77528578D01*
X64134459Y-77751129D01*
X64134356Y-77758900D01*
X64133446Y-77819950D01*
X64132453Y-77869657D01*
X64131298Y-77909501D01*
X64129901Y-77940966D01*
X64128181Y-77965532D01*
X64126057Y-77984683D01*
X64123450Y-77999901D01*
X64120278Y-78012666D01*
X64112611Y-78036903D01*
X64086384Y-78097132D01*
X64052274Y-78147816D01*
X64009646Y-78189498D01*
X63957865Y-78222722D01*
X63896297Y-78248030D01*
X63824307Y-78265966D01*
X63811168Y-78267984D01*
X63792832Y-78269824D01*
X63769328Y-78271290D01*
X63739539Y-78272404D01*
X63702347Y-78273190D01*
X63656632Y-78273671D01*
X63601279Y-78273871D01*
X63535167Y-78273810D01*
X63457179Y-78273514D01*
X63419922Y-78273330D01*
X63352916Y-78272953D01*
X63297042Y-78272531D01*
X63251050Y-78272010D01*
X63213688Y-78271340D01*
X63183708Y-78270466D01*
X63159857Y-78269337D01*
X63140885Y-78267899D01*
X63125541Y-78266101D01*
X63112576Y-78263889D01*
X63100737Y-78261210D01*
X63088775Y-78258013D01*
X63078953Y-78255210D01*
X63029751Y-78238612D01*
X62989343Y-78219493D01*
X62954155Y-78195894D01*
X62920615Y-78165859D01*
X62898219Y-78141646D01*
X62869885Y-78102180D01*
X62848468Y-78057943D01*
X62831763Y-78004946D01*
X62830824Y-78001158D01*
X62828647Y-77990848D01*
X62826793Y-77978886D01*
X62825235Y-77964243D01*
X62823949Y-77945885D01*
X62822909Y-77922783D01*
X62822089Y-77893904D01*
X62821465Y-77858217D01*
X62821012Y-77814692D01*
X62820703Y-77762296D01*
X62820514Y-77699999D01*
X62820419Y-77626768D01*
X62820393Y-77541574D01*
X62820396Y-77470628D01*
X62820459Y-77391316D01*
X62820669Y-77323117D01*
X62821115Y-77264978D01*
X62821885Y-77215846D01*
X62823068Y-77174668D01*
X62824752Y-77140390D01*
X62827025Y-77111960D01*
X62829977Y-77088324D01*
X62833695Y-77068430D01*
X62838268Y-77051223D01*
X62843784Y-77035650D01*
X62850332Y-77020659D01*
X62858001Y-77005197D01*
X62866879Y-76988209D01*
X62884398Y-76958877D01*
X62919798Y-76916561D01*
X62963860Y-76881827D01*
X63017661Y-76853894D01*
X63082277Y-76831980D01*
X63088935Y-76830219D01*
X63102938Y-76826967D01*
X63118031Y-76824296D01*
X63135702Y-76822117D01*
X63157439Y-76820342D01*
X63184731Y-76818885D01*
X63219065Y-76817656D01*
X63261931Y-76816568D01*
X63314815Y-76815534D01*
X63379205Y-76814466D01*
X63389100Y-76814310D01*
X63453254Y-76813261D01*
X63505848Y-76812215D01*
X63548140Y-76810992D01*
X63581389Y-76809408D01*
X63606854Y-76807284D01*
X63625793Y-76804438D01*
X63639466Y-76800687D01*
X63649131Y-76795851D01*
X63656047Y-76789747D01*
X63661473Y-76782195D01*
X63666667Y-76773013D01*
X63668776Y-76768668D01*
X63671099Y-76761770D01*
X63673005Y-76752355D01*
X63674534Y-76739257D01*
X63675726Y-76721314D01*
X63676623Y-76697360D01*
X63677266Y-76666232D01*
X63677694Y-76626765D01*
X63677950Y-76577795D01*
X63678073Y-76518159D01*
X63678105Y-76446690D01*
X63678107Y-76404626D01*
X63678071Y-76338098D01*
X63677879Y-76282807D01*
X63677407Y-76237619D01*
X63676534Y-76201402D01*
X63675136Y-76173024D01*
X63673091Y-76151353D01*
X63670274Y-76135255D01*
X63666564Y-76123598D01*
X63661838Y-76115250D01*
X63655971Y-76109078D01*
X63648843Y-76103950D01*
X63640328Y-76098733D01*
X63632323Y-76094481D01*
X63622800Y-76091263D01*
X63609933Y-76088986D01*
X63591791Y-76087490D01*
X63566445Y-76086617D01*
X63531965Y-76086210D01*
X63486420Y-76086110D01*
X63482691Y-76086110D01*
X63438119Y-76086220D01*
X63404460Y-76086640D01*
X63379772Y-76087533D01*
X63362117Y-76089060D01*
X63349552Y-76091386D01*
X63340138Y-76094673D01*
X63331934Y-76099084D01*
X63329717Y-76100504D01*
X63314111Y-76114160D01*
X63304319Y-76128723D01*
X63302904Y-76136576D01*
X63301304Y-76156608D01*
X63299948Y-76186241D01*
X63298899Y-76223592D01*
X63298223Y-76266775D01*
X63297983Y-76313908D01*
X63297983Y-76482428D01*
X62821966Y-76482428D01*
X62825334Y-76263127D01*
X62826126Y-76216342D01*
X62827521Y-76155994D01*
X62829360Y-76105967D01*
X62831856Y-76064656D01*
X62835226Y-76030456D01*
X62839684Y-76001763D01*
X62845446Y-75976972D01*
X62852727Y-75954478D01*
X62861742Y-75932678D01*
X62872706Y-75909967D01*
X62895382Y-75874479D01*
X62929444Y-75836635D01*
X62969663Y-75803247D01*
X63012531Y-75777634D01*
X63026680Y-75770927D01*
X63046059Y-75762245D01*
X63064655Y-75754957D01*
X63083722Y-75748940D01*
X63104512Y-75744072D01*
X63128279Y-75740233D01*
X63156273Y-75737300D01*
X63189748Y-75735152D01*
X63229956Y-75733668D01*
X63278150Y-75732725D01*
X63335582Y-75732202D01*
X63403505Y-75731977D01*
X63483171Y-75731929D01*
X63546685Y-75731955D01*
G37*
G36*
X69687345Y-77555267D02*
G01*
X69707133Y-77653423D01*
X69726005Y-77746994D01*
X69743813Y-77835240D01*
X69760406Y-77917421D01*
X69775636Y-77992797D01*
X69789354Y-78060627D01*
X69801412Y-78120171D01*
X69811660Y-78170690D01*
X69819950Y-78211443D01*
X69826132Y-78241690D01*
X69830058Y-78260691D01*
X69831578Y-78267706D01*
X69830297Y-78269679D01*
X69823326Y-78271527D01*
X69809505Y-78272992D01*
X69787809Y-78274110D01*
X69757216Y-78274916D01*
X69716700Y-78275447D01*
X69665238Y-78275739D01*
X69601805Y-78275828D01*
X69369222Y-78275828D01*
X69335804Y-78079269D01*
X69334115Y-78069337D01*
X69325144Y-78016468D01*
X69316391Y-77964751D01*
X69308249Y-77916518D01*
X69301113Y-77874100D01*
X69295373Y-77839830D01*
X69291425Y-77816039D01*
X69280466Y-77749368D01*
X69000929Y-77751060D01*
X68721392Y-77752753D01*
X68677341Y-77993173D01*
X68676763Y-77996332D01*
X68666698Y-78051269D01*
X68657257Y-78102803D01*
X68648729Y-78149370D01*
X68641397Y-78189408D01*
X68635550Y-78221353D01*
X68631472Y-78243641D01*
X68629451Y-78254710D01*
X68625611Y-78275828D01*
X68391226Y-78275828D01*
X68344155Y-78275812D01*
X68291655Y-78275707D01*
X68250012Y-78275454D01*
X68218004Y-78274991D01*
X68194406Y-78274260D01*
X68177995Y-78273198D01*
X68167548Y-78271748D01*
X68161840Y-78269847D01*
X68159649Y-78267437D01*
X68159752Y-78264457D01*
X68160022Y-78263260D01*
X68162550Y-78251503D01*
X68167580Y-78227858D01*
X68174985Y-78192935D01*
X68184634Y-78147346D01*
X68196399Y-78091702D01*
X68210150Y-78026615D01*
X68225760Y-77952697D01*
X68243098Y-77870559D01*
X68262035Y-77780812D01*
X68282443Y-77684067D01*
X68304193Y-77580938D01*
X68327155Y-77472033D01*
X68344342Y-77390499D01*
X68788822Y-77390499D01*
X68789332Y-77391600D01*
X68794650Y-77393704D01*
X68806609Y-77395374D01*
X68826268Y-77396650D01*
X68854684Y-77397573D01*
X68892918Y-77398182D01*
X68942028Y-77398519D01*
X69003073Y-77398622D01*
X69050988Y-77398548D01*
X69105158Y-77398197D01*
X69147708Y-77397533D01*
X69179427Y-77396529D01*
X69201106Y-77395158D01*
X69213534Y-77393391D01*
X69217502Y-77391202D01*
X69217387Y-77390031D01*
X69215628Y-77378339D01*
X69211893Y-77355308D01*
X69206369Y-77322037D01*
X69199247Y-77279622D01*
X69190715Y-77229163D01*
X69180962Y-77171756D01*
X69170179Y-77108499D01*
X69158553Y-77040490D01*
X69146273Y-76968826D01*
X69133530Y-76894606D01*
X69120512Y-76818926D01*
X69107408Y-76742885D01*
X69094408Y-76667581D01*
X69081699Y-76594110D01*
X69069472Y-76523571D01*
X69057916Y-76457062D01*
X69047220Y-76395679D01*
X69037572Y-76340522D01*
X69029163Y-76292687D01*
X69022180Y-76253271D01*
X69016813Y-76223374D01*
X69013252Y-76204092D01*
X69011685Y-76196524D01*
X69011110Y-76197937D01*
X69008370Y-76209843D01*
X69003603Y-76232864D01*
X68997010Y-76265930D01*
X68988789Y-76307974D01*
X68979141Y-76357925D01*
X68968265Y-76414714D01*
X68956360Y-76477273D01*
X68943626Y-76544533D01*
X68930262Y-76615423D01*
X68916468Y-76688876D01*
X68902445Y-76763822D01*
X68888390Y-76839193D01*
X68874504Y-76913918D01*
X68860986Y-76986929D01*
X68848036Y-77057157D01*
X68835853Y-77123533D01*
X68824637Y-77184987D01*
X68814588Y-77240452D01*
X68805905Y-77288856D01*
X68798787Y-77329133D01*
X68793434Y-77360211D01*
X68790046Y-77381023D01*
X68788822Y-77390499D01*
X68344342Y-77390499D01*
X68351200Y-77357967D01*
X68376199Y-77239349D01*
X68402024Y-77116791D01*
X68428545Y-76990905D01*
X68694427Y-75728723D01*
X69007947Y-75728702D01*
X69012477Y-75728702D01*
X69074669Y-75728788D01*
X69132632Y-75729020D01*
X69185113Y-75729383D01*
X69230861Y-75729861D01*
X69268622Y-75730439D01*
X69297146Y-75731100D01*
X69315178Y-75731831D01*
X69321467Y-75732614D01*
X69321678Y-75733884D01*
X69323940Y-75745655D01*
X69328562Y-75769123D01*
X69335397Y-75803549D01*
X69344293Y-75848193D01*
X69355103Y-75902314D01*
X69367678Y-75965173D01*
X69381869Y-76036030D01*
X69397526Y-76114143D01*
X69414502Y-76198774D01*
X69432646Y-76289182D01*
X69451810Y-76384626D01*
X69471846Y-76484367D01*
X69492603Y-76587665D01*
X69513934Y-76693779D01*
X69535689Y-76801969D01*
X69557720Y-76911496D01*
X69579877Y-77021619D01*
X69602011Y-77131597D01*
X69623974Y-77240691D01*
X69645617Y-77348161D01*
X69654287Y-77391202D01*
X69666790Y-77453266D01*
X69687345Y-77555267D01*
G37*
G36*
X62351896Y-70904045D02*
G01*
X62203111Y-70905795D01*
X62161043Y-70906238D01*
X62121362Y-70906383D01*
X62089672Y-70905937D01*
X62063273Y-70904703D01*
X62039460Y-70902489D01*
X62015532Y-70899098D01*
X61988786Y-70894335D01*
X61956520Y-70888006D01*
X61909999Y-70879088D01*
X61855192Y-70869313D01*
X61796746Y-70859516D01*
X61736156Y-70849899D01*
X61674916Y-70840664D01*
X61614523Y-70832013D01*
X61556470Y-70824148D01*
X61502255Y-70817271D01*
X61453371Y-70811586D01*
X61411314Y-70807293D01*
X61377580Y-70804595D01*
X61353662Y-70803694D01*
X61341058Y-70804792D01*
X61340341Y-70805350D01*
X61346128Y-70807415D01*
X61361611Y-70809856D01*
X61384373Y-70812259D01*
X61409565Y-70814718D01*
X61463632Y-70821121D01*
X61525696Y-70829614D01*
X61592728Y-70839731D01*
X61661700Y-70851006D01*
X61729583Y-70862973D01*
X61793350Y-70875167D01*
X61802587Y-70877021D01*
X61840986Y-70884833D01*
X61874390Y-70891795D01*
X61900859Y-70897492D01*
X61918455Y-70901507D01*
X61925240Y-70903426D01*
X61925240Y-70903508D01*
X61918074Y-70904267D01*
X61898166Y-70905079D01*
X61865748Y-70905939D01*
X61821048Y-70906845D01*
X61764296Y-70907796D01*
X61695721Y-70908787D01*
X61615552Y-70909818D01*
X61524019Y-70910884D01*
X61421352Y-70911984D01*
X61307779Y-70913115D01*
X61183531Y-70914274D01*
X61048836Y-70915459D01*
X60903924Y-70916667D01*
X60749025Y-70917897D01*
X60584368Y-70919144D01*
X60410182Y-70920406D01*
X60324624Y-70921023D01*
X60219381Y-70921809D01*
X60118311Y-70922594D01*
X60022149Y-70923370D01*
X59931632Y-70924131D01*
X59847493Y-70924870D01*
X59770468Y-70925579D01*
X59701292Y-70926252D01*
X59640701Y-70926882D01*
X59589429Y-70927461D01*
X59548212Y-70927984D01*
X59517784Y-70928441D01*
X59498882Y-70928828D01*
X59492240Y-70929136D01*
X59492363Y-70929293D01*
X59499086Y-70934624D01*
X59515711Y-70947258D01*
X59541766Y-70966845D01*
X59576779Y-70993033D01*
X59620277Y-71025473D01*
X59671788Y-71063814D01*
X59730839Y-71107706D01*
X59796958Y-71156797D01*
X59869672Y-71210738D01*
X59948509Y-71269178D01*
X60032997Y-71331766D01*
X60122662Y-71398152D01*
X60217034Y-71467986D01*
X60315638Y-71540917D01*
X60418003Y-71616594D01*
X60523657Y-71694667D01*
X60632126Y-71774786D01*
X60649610Y-71787697D01*
X60757825Y-71867619D01*
X60815368Y-71910125D01*
X60826515Y-71918359D01*
X60863236Y-71945484D01*
X60965366Y-72020938D01*
X61063736Y-72093626D01*
X61157867Y-72163195D01*
X61247281Y-72229292D01*
X61331501Y-72291562D01*
X61410048Y-72349651D01*
X61482443Y-72403207D01*
X61548209Y-72451875D01*
X61606867Y-72495301D01*
X61657939Y-72533132D01*
X61700946Y-72565013D01*
X61735411Y-72590592D01*
X61760856Y-72609513D01*
X61776801Y-72621425D01*
X61782769Y-72625972D01*
X61783240Y-72627006D01*
X61783151Y-72632006D01*
X61781558Y-72641363D01*
X61778300Y-72655613D01*
X61773216Y-72675291D01*
X61766145Y-72700933D01*
X61756927Y-72733075D01*
X61750204Y-72755925D01*
X61745400Y-72772252D01*
X61731404Y-72819000D01*
X61714777Y-72873854D01*
X61695360Y-72937351D01*
X61672989Y-73010025D01*
X61647506Y-73092412D01*
X61618749Y-73185047D01*
X61586557Y-73288467D01*
X61550768Y-73403207D01*
X61511224Y-73529803D01*
X61480102Y-73629369D01*
X61448417Y-73730728D01*
X61417983Y-73828074D01*
X61389019Y-73920707D01*
X61361745Y-74007927D01*
X61336378Y-74089036D01*
X61313137Y-74163334D01*
X61292242Y-74230122D01*
X61273911Y-74288701D01*
X61258362Y-74338372D01*
X61245815Y-74378435D01*
X61236488Y-74408192D01*
X61230599Y-74426943D01*
X61228368Y-74433989D01*
X61227695Y-74436039D01*
X61226043Y-74439309D01*
X61222332Y-74440965D01*
X61214415Y-74440876D01*
X61200145Y-74438912D01*
X61177373Y-74434940D01*
X61143954Y-74428829D01*
X61019040Y-74407373D01*
X60863177Y-74384459D01*
X60710186Y-74366173D01*
X60563011Y-74352859D01*
X60424592Y-74344858D01*
X60404106Y-74344100D01*
X60371841Y-74342972D01*
X60328743Y-74341505D01*
X60275534Y-74339724D01*
X60212935Y-74337650D01*
X60141669Y-74335307D01*
X60062458Y-74332718D01*
X59976023Y-74329905D01*
X59883086Y-74326892D01*
X59784369Y-74323701D01*
X59680595Y-74320356D01*
X59572484Y-74316879D01*
X59460759Y-74313294D01*
X59346141Y-74309623D01*
X59229353Y-74305890D01*
X59111116Y-74302116D01*
X58992153Y-74298326D01*
X58873184Y-74294543D01*
X58754933Y-74290788D01*
X58638121Y-74287086D01*
X58523469Y-74283458D01*
X58411700Y-74279929D01*
X58303535Y-74276521D01*
X58199697Y-74273256D01*
X58100906Y-74270159D01*
X58007886Y-74267251D01*
X57921358Y-74264557D01*
X57842044Y-74262098D01*
X57770666Y-74259898D01*
X57707945Y-74257979D01*
X57654604Y-74256365D01*
X57611364Y-74255079D01*
X57578947Y-74254144D01*
X57558076Y-74253582D01*
X57549471Y-74253417D01*
X57542005Y-74249609D01*
X57524602Y-74237321D01*
X57497423Y-74216560D01*
X57460491Y-74187344D01*
X57413830Y-74149693D01*
X57357463Y-74103625D01*
X57291414Y-74049159D01*
X57215706Y-73986314D01*
X57130362Y-73915109D01*
X57103860Y-73892946D01*
X57041709Y-73840927D01*
X56982456Y-73791277D01*
X56926886Y-73744657D01*
X56875788Y-73701729D01*
X56829946Y-73663157D01*
X56790148Y-73629601D01*
X56757181Y-73601724D01*
X56731830Y-73580189D01*
X56714883Y-73565657D01*
X56707126Y-73558791D01*
X56688819Y-73541037D01*
X56928052Y-73536736D01*
X57018209Y-73535259D01*
X57147146Y-73533639D01*
X57274255Y-73532603D01*
X57398520Y-73532141D01*
X57518927Y-73532239D01*
X57634462Y-73532888D01*
X57744111Y-73534073D01*
X57846858Y-73535785D01*
X57941690Y-73538010D01*
X58027592Y-73540738D01*
X58103549Y-73543956D01*
X58168548Y-73547652D01*
X58221573Y-73551815D01*
X58270244Y-73555733D01*
X58333548Y-73559567D01*
X58405081Y-73562879D01*
X58482361Y-73565606D01*
X58562902Y-73567685D01*
X58644222Y-73569052D01*
X58723836Y-73569646D01*
X58799262Y-73569401D01*
X58868015Y-73568256D01*
X58880791Y-73567925D01*
X58929724Y-73566423D01*
X58972773Y-73564731D01*
X59008516Y-73562931D01*
X59035532Y-73561099D01*
X59052398Y-73559318D01*
X59057693Y-73557665D01*
X59054503Y-73556143D01*
X59040543Y-73553964D01*
X59018392Y-73552466D01*
X58991054Y-73551909D01*
X58946819Y-73551406D01*
X58862773Y-73548333D01*
X58769115Y-73542630D01*
X58667763Y-73534490D01*
X58560635Y-73524105D01*
X58449648Y-73511667D01*
X58336721Y-73497368D01*
X58223772Y-73481400D01*
X58112718Y-73463955D01*
X58089507Y-73460150D01*
X58029954Y-73450644D01*
X57966477Y-73440813D01*
X57903258Y-73431291D01*
X57844479Y-73422713D01*
X57794324Y-73415710D01*
X57733601Y-73407702D01*
X57654926Y-73397766D01*
X57569537Y-73387384D01*
X57478833Y-73376702D01*
X57384217Y-73365868D01*
X57287088Y-73355029D01*
X57188847Y-73344330D01*
X57090896Y-73333919D01*
X56994634Y-73323942D01*
X56901463Y-73314547D01*
X56812784Y-73305880D01*
X56729996Y-73298087D01*
X56654501Y-73291316D01*
X56587699Y-73285713D01*
X56530992Y-73281426D01*
X56485780Y-73278600D01*
X56363088Y-73272164D01*
X56164137Y-73105567D01*
X56132022Y-73078675D01*
X56075706Y-73031517D01*
X56016095Y-72981601D01*
X55955841Y-72931147D01*
X55897595Y-72882375D01*
X55844010Y-72837505D01*
X55797736Y-72798758D01*
X55767932Y-72773695D01*
X55731063Y-72742365D01*
X55698673Y-72714467D01*
X55671868Y-72690974D01*
X55651752Y-72672857D01*
X55639432Y-72661087D01*
X55636014Y-72656636D01*
X55637144Y-72656549D01*
X55648657Y-72656923D01*
X55671248Y-72658184D01*
X55703502Y-72660234D01*
X55744010Y-72662981D01*
X55791359Y-72666328D01*
X55844137Y-72670182D01*
X55900932Y-72674446D01*
X55926503Y-72676387D01*
X56009578Y-72682646D01*
X56099225Y-72689334D01*
X56194556Y-72696388D01*
X56294684Y-72703747D01*
X56398719Y-72711346D01*
X56505775Y-72719123D01*
X56614964Y-72727015D01*
X56725397Y-72734961D01*
X56836187Y-72742896D01*
X56946446Y-72750758D01*
X57055286Y-72758484D01*
X57161820Y-72766011D01*
X57265159Y-72773278D01*
X57364416Y-72780220D01*
X57458703Y-72786775D01*
X57547132Y-72792881D01*
X57628815Y-72798474D01*
X57702864Y-72803492D01*
X57768391Y-72807872D01*
X57824510Y-72811551D01*
X57870331Y-72814466D01*
X57904967Y-72816555D01*
X57927530Y-72817755D01*
X57987220Y-72819623D01*
X58060712Y-72820360D01*
X58142857Y-72819885D01*
X58231460Y-72818251D01*
X58324326Y-72815512D01*
X58419260Y-72811720D01*
X58514067Y-72806930D01*
X58606553Y-72801194D01*
X58636407Y-72799062D01*
X58677434Y-72795936D01*
X58723566Y-72792261D01*
X58773162Y-72788183D01*
X58824579Y-72783845D01*
X58876177Y-72779393D01*
X58926313Y-72774973D01*
X58973346Y-72770728D01*
X59015634Y-72766804D01*
X59051536Y-72763347D01*
X59079409Y-72760500D01*
X59097611Y-72758409D01*
X59104503Y-72757219D01*
X59104366Y-72757181D01*
X59096254Y-72756951D01*
X59076425Y-72756729D01*
X59045979Y-72756520D01*
X59006013Y-72756326D01*
X58957627Y-72756152D01*
X58901918Y-72756002D01*
X58862507Y-72755925D01*
X59113383Y-72755925D01*
X59116632Y-72759174D01*
X59119881Y-72755925D01*
X59116632Y-72752676D01*
X59113383Y-72755925D01*
X58862507Y-72755925D01*
X58839987Y-72755881D01*
X58772930Y-72755791D01*
X58701848Y-72755738D01*
X58692711Y-72755733D01*
X58591358Y-72755539D01*
X58501442Y-72755061D01*
X58421524Y-72754250D01*
X58350169Y-72753052D01*
X58285940Y-72751417D01*
X58227401Y-72749294D01*
X58173114Y-72746630D01*
X58121644Y-72743375D01*
X58071553Y-72739477D01*
X58021406Y-72734885D01*
X57969766Y-72729548D01*
X57969314Y-72729499D01*
X57949403Y-72727136D01*
X57917487Y-72723105D01*
X57874404Y-72717520D01*
X57820995Y-72710495D01*
X57758097Y-72702145D01*
X57686551Y-72692585D01*
X57607194Y-72681929D01*
X57520865Y-72670292D01*
X57428405Y-72657789D01*
X57330651Y-72644533D01*
X57228442Y-72630641D01*
X57122618Y-72616226D01*
X57014018Y-72601402D01*
X56903480Y-72586286D01*
X56791843Y-72570991D01*
X56679946Y-72555631D01*
X56568629Y-72540322D01*
X56458730Y-72525178D01*
X56351088Y-72510314D01*
X56246542Y-72495844D01*
X56145931Y-72481883D01*
X56050094Y-72468545D01*
X55959870Y-72455946D01*
X55876098Y-72444200D01*
X55799617Y-72433421D01*
X55731265Y-72423723D01*
X55689736Y-72417906D01*
X55625043Y-72409226D01*
X55563435Y-72401408D01*
X55506865Y-72394682D01*
X55457281Y-72389275D01*
X55416636Y-72385418D01*
X55386880Y-72383338D01*
X55295911Y-72379051D01*
X54940077Y-72080771D01*
X54891761Y-72040234D01*
X54835707Y-71993114D01*
X54783354Y-71949003D01*
X54735483Y-71908569D01*
X54692880Y-71872475D01*
X54656328Y-71841389D01*
X54626611Y-71815974D01*
X54604514Y-71796898D01*
X54590820Y-71784825D01*
X54586312Y-71780421D01*
X54588013Y-71780395D01*
X54600595Y-71781244D01*
X54624523Y-71783222D01*
X54658730Y-71786229D01*
X54702149Y-71790169D01*
X54753716Y-71794943D01*
X54812362Y-71800452D01*
X54877022Y-71806598D01*
X54946630Y-71813283D01*
X55020120Y-71820408D01*
X55094007Y-71827590D01*
X55227966Y-71840534D01*
X55364171Y-71853605D01*
X55500936Y-71866644D01*
X55636574Y-71879491D01*
X55769399Y-71891990D01*
X55897725Y-71903981D01*
X56019866Y-71915306D01*
X56134135Y-71925806D01*
X56238847Y-71935324D01*
X56332314Y-71943700D01*
X56374245Y-71947481D01*
X56432280Y-71952867D01*
X56490637Y-71958435D01*
X56545998Y-71963864D01*
X56595046Y-71968831D01*
X56634463Y-71973015D01*
X56658058Y-71975557D01*
X56834169Y-71991442D01*
X57020929Y-72003178D01*
X57216881Y-72010779D01*
X57420567Y-72014264D01*
X57630531Y-72013647D01*
X57845315Y-72008946D01*
X58063463Y-72000176D01*
X58283516Y-71987354D01*
X58504019Y-71970496D01*
X58723514Y-71949619D01*
X58734739Y-71948440D01*
X58796303Y-71941827D01*
X58847961Y-71936027D01*
X58889412Y-71931100D01*
X58920355Y-71927107D01*
X58940489Y-71924111D01*
X58949513Y-71922172D01*
X58947125Y-71921352D01*
X58933024Y-71921712D01*
X58906909Y-71923314D01*
X58868480Y-71926218D01*
X58817434Y-71930486D01*
X58631488Y-71944861D01*
X58425353Y-71957018D01*
X58217311Y-71965519D01*
X58008965Y-71970384D01*
X57801918Y-71971632D01*
X57597774Y-71969283D01*
X57398135Y-71963357D01*
X57204605Y-71953873D01*
X57018787Y-71940850D01*
X56842284Y-71924310D01*
X56782569Y-71917083D01*
X58970212Y-71917083D01*
X58971605Y-71918770D01*
X58983427Y-71919447D01*
X58987835Y-71919384D01*
X58996820Y-71918359D01*
X58994798Y-71916476D01*
X58988535Y-71915465D01*
X58972055Y-71916476D01*
X58970212Y-71917083D01*
X56782569Y-71917083D01*
X56741230Y-71912080D01*
X59030061Y-71912080D01*
X59035409Y-71914457D01*
X59038849Y-71913988D01*
X59039741Y-71910125D01*
X59038789Y-71909347D01*
X59031077Y-71910125D01*
X59030061Y-71912080D01*
X56741230Y-71912080D01*
X56676698Y-71904270D01*
X56667723Y-71903034D01*
X56623262Y-71896645D01*
X56570735Y-71888706D01*
X56509803Y-71879158D01*
X56440132Y-71867943D01*
X56361383Y-71855006D01*
X56273221Y-71840287D01*
X56175309Y-71823730D01*
X56067310Y-71805277D01*
X55948887Y-71784870D01*
X55819703Y-71762453D01*
X55679423Y-71737968D01*
X55527709Y-71711356D01*
X55364225Y-71682562D01*
X55188634Y-71651527D01*
X55000599Y-71618194D01*
X54939035Y-71607280D01*
X54842360Y-71590214D01*
X54757111Y-71575279D01*
X54682430Y-71562338D01*
X54617460Y-71551252D01*
X54561343Y-71541883D01*
X54513220Y-71534094D01*
X54472234Y-71527747D01*
X54437526Y-71522705D01*
X54408238Y-71518829D01*
X54383513Y-71515982D01*
X54362493Y-71514025D01*
X54344318Y-71512822D01*
X54256258Y-71508313D01*
X53825839Y-71147699D01*
X53773608Y-71103891D01*
X53711581Y-71051742D01*
X53653168Y-71002493D01*
X53599076Y-70956748D01*
X53550012Y-70915109D01*
X53506682Y-70878179D01*
X53469794Y-70846561D01*
X53440056Y-70820858D01*
X53418174Y-70801673D01*
X53404855Y-70789609D01*
X53400806Y-70785268D01*
X53401243Y-70785226D01*
X53410841Y-70786155D01*
X53431585Y-70788893D01*
X53462046Y-70793230D01*
X53500799Y-70798955D01*
X53546416Y-70805859D01*
X53597470Y-70813730D01*
X53652535Y-70822360D01*
X53884269Y-70858145D01*
X54206688Y-70905143D01*
X54521914Y-70947788D01*
X54829140Y-70985985D01*
X55127562Y-71019641D01*
X55416373Y-71048660D01*
X55694767Y-71072949D01*
X55961938Y-71092413D01*
X55995733Y-71094604D01*
X56075285Y-71099633D01*
X56146055Y-71103860D01*
X56210463Y-71107374D01*
X56270930Y-71110267D01*
X56329873Y-71112630D01*
X56389715Y-71114555D01*
X56452873Y-71116131D01*
X56521767Y-71117451D01*
X56598818Y-71118605D01*
X56686445Y-71119684D01*
X56690238Y-71119727D01*
X56802633Y-71120762D01*
X56903871Y-71121100D01*
X56995723Y-71120619D01*
X57079958Y-71119197D01*
X57158347Y-71116713D01*
X57232661Y-71113046D01*
X57304668Y-71108072D01*
X57376138Y-71101672D01*
X57448844Y-71093722D01*
X57524553Y-71084102D01*
X57605036Y-71072689D01*
X57692064Y-71059363D01*
X57787406Y-71044001D01*
X57820553Y-71038573D01*
X57959058Y-71016120D01*
X58094745Y-70994484D01*
X58226709Y-70973796D01*
X58354041Y-70954189D01*
X58475836Y-70935797D01*
X58591185Y-70918752D01*
X58699183Y-70903187D01*
X58798921Y-70889235D01*
X58889492Y-70877029D01*
X58969990Y-70866701D01*
X59039508Y-70858385D01*
X59097138Y-70852213D01*
X59184822Y-70843693D01*
X59300947Y-70832826D01*
X59409608Y-70823237D01*
X59513078Y-70814778D01*
X59613632Y-70807301D01*
X59713541Y-70800655D01*
X59728857Y-70799756D01*
X61278741Y-70799756D01*
X61282599Y-70801052D01*
X61296652Y-70801559D01*
X61306188Y-70801369D01*
X61314352Y-70800350D01*
X61311273Y-70798743D01*
X61300967Y-70797668D01*
X61282032Y-70798743D01*
X61278741Y-70799756D01*
X59728857Y-70799756D01*
X59815079Y-70794695D01*
X59848814Y-70792959D01*
X61205464Y-70792959D01*
X61206857Y-70794646D01*
X61218679Y-70795323D01*
X61223087Y-70795261D01*
X61232072Y-70794235D01*
X61230050Y-70792352D01*
X61223787Y-70791341D01*
X61207307Y-70792352D01*
X61205464Y-70792959D01*
X59848814Y-70792959D01*
X59920521Y-70789269D01*
X59968929Y-70787084D01*
X61134207Y-70787084D01*
X61137456Y-70790333D01*
X61140705Y-70787084D01*
X61137456Y-70783835D01*
X61134207Y-70787084D01*
X59968929Y-70787084D01*
X60032137Y-70784231D01*
X60152203Y-70779431D01*
X60282992Y-70774721D01*
X60286220Y-70774604D01*
X60293601Y-70774180D01*
X60289161Y-70773952D01*
X60273869Y-70773916D01*
X60248688Y-70774071D01*
X60214586Y-70774416D01*
X60172529Y-70774947D01*
X60079989Y-70776902D01*
X59975328Y-70780404D01*
X59863437Y-70785287D01*
X59747177Y-70791414D01*
X59629410Y-70798645D01*
X59512999Y-70806842D01*
X59466383Y-70810443D01*
X59380138Y-70817481D01*
X59283343Y-70825776D01*
X59177464Y-70835183D01*
X59063969Y-70845556D01*
X58944325Y-70856753D01*
X58820001Y-70868627D01*
X58692464Y-70881036D01*
X58563181Y-70893833D01*
X58433620Y-70906875D01*
X58305248Y-70920017D01*
X58179533Y-70933115D01*
X58057943Y-70946024D01*
X57941945Y-70958599D01*
X57833006Y-70970696D01*
X57732595Y-70982171D01*
X57730749Y-70982385D01*
X57675945Y-70988615D01*
X57620229Y-70994717D01*
X57566366Y-71000405D01*
X57517116Y-71005391D01*
X57475244Y-71009391D01*
X57443511Y-71012117D01*
X57438159Y-71012507D01*
X57401418Y-71014339D01*
X57353798Y-71015649D01*
X57297079Y-71016459D01*
X57233044Y-71016792D01*
X57163475Y-71016668D01*
X57090152Y-71016111D01*
X57014858Y-71015143D01*
X56939374Y-71013785D01*
X56865482Y-71012059D01*
X56794964Y-71009989D01*
X56729601Y-71007595D01*
X56671175Y-71004900D01*
X56621467Y-71001926D01*
X56421537Y-70986689D01*
X56175026Y-70964306D01*
X55921688Y-70937436D01*
X55661015Y-70906002D01*
X55392504Y-70869925D01*
X55115648Y-70829127D01*
X54829943Y-70783531D01*
X54731640Y-70766715D01*
X60471096Y-70766715D01*
X60471467Y-70767669D01*
X60482832Y-70768325D01*
X60503918Y-70768569D01*
X60517070Y-70768487D01*
X60532763Y-70767994D01*
X60538009Y-70767154D01*
X60531533Y-70766082D01*
X60528801Y-70765858D01*
X60502179Y-70765059D01*
X60476302Y-70766082D01*
X60471096Y-70766715D01*
X54731640Y-70766715D01*
X54534883Y-70733057D01*
X54229964Y-70677628D01*
X53914681Y-70617166D01*
X53588527Y-70551592D01*
X53250998Y-70480829D01*
X52954001Y-70417359D01*
X52597967Y-70119393D01*
X52551320Y-70080338D01*
X52494538Y-70032752D01*
X52441175Y-69987983D01*
X52392051Y-69946720D01*
X52347985Y-69909653D01*
X52309796Y-69877472D01*
X52278302Y-69850865D01*
X52254323Y-69830523D01*
X52238678Y-69817136D01*
X52232186Y-69811393D01*
X52227248Y-69805634D01*
X52229190Y-69803192D01*
X52241933Y-69804958D01*
X52244869Y-69805452D01*
X52263058Y-69807783D01*
X52288504Y-69810392D01*
X52316658Y-69812801D01*
X52326392Y-69813580D01*
X52350369Y-69815785D01*
X52367885Y-69817818D01*
X52375687Y-69819320D01*
X52380070Y-69820237D01*
X52396781Y-69822536D01*
X52425260Y-69825978D01*
X52464829Y-69830496D01*
X52514814Y-69836020D01*
X52574541Y-69842484D01*
X52643333Y-69849819D01*
X52720516Y-69857957D01*
X52805415Y-69866830D01*
X52897355Y-69876370D01*
X52995660Y-69886510D01*
X53099655Y-69897180D01*
X53208666Y-69908314D01*
X53322017Y-69919843D01*
X53439033Y-69931699D01*
X53559039Y-69943814D01*
X53681360Y-69956120D01*
X53805320Y-69968549D01*
X53930246Y-69981034D01*
X54055461Y-69993505D01*
X54180291Y-70005896D01*
X54304060Y-70018138D01*
X54426093Y-70030163D01*
X54545716Y-70041903D01*
X54662253Y-70053290D01*
X54775028Y-70064256D01*
X54883368Y-70074733D01*
X54986597Y-70084653D01*
X55084039Y-70093948D01*
X55175020Y-70102551D01*
X55258865Y-70110392D01*
X55334897Y-70117405D01*
X55599487Y-70138870D01*
X56002949Y-70161077D01*
X56405502Y-70170520D01*
X56806847Y-70167207D01*
X57206684Y-70151148D01*
X57604714Y-70122351D01*
X58000638Y-70080826D01*
X58394154Y-70026581D01*
X58449310Y-70017831D01*
X58509489Y-70007858D01*
X58572347Y-69997073D01*
X58636693Y-69985707D01*
X58701335Y-69973994D01*
X58765082Y-69962165D01*
X58826743Y-69950451D01*
X58885126Y-69939085D01*
X58939041Y-69928299D01*
X58987295Y-69918325D01*
X59028699Y-69909394D01*
X59062060Y-69901739D01*
X59086187Y-69895592D01*
X59099889Y-69891184D01*
X59101975Y-69888748D01*
X59098069Y-69888780D01*
X59082510Y-69890212D01*
X59056683Y-69893128D01*
X59022145Y-69897337D01*
X58980454Y-69902647D01*
X58933168Y-69908868D01*
X58881843Y-69915808D01*
X58864084Y-69918240D01*
X58799208Y-69927124D01*
X58726388Y-69937095D01*
X58649396Y-69947637D01*
X58572004Y-69958232D01*
X58497985Y-69968364D01*
X58431111Y-69977517D01*
X58387877Y-69983325D01*
X58256305Y-69999597D01*
X58125180Y-70013593D01*
X57992831Y-70025409D01*
X57857589Y-70035143D01*
X57717785Y-70042892D01*
X57571750Y-70048753D01*
X57417815Y-70052822D01*
X57254309Y-70055197D01*
X57079564Y-70055974D01*
X56942298Y-70055396D01*
X56716228Y-70051631D01*
X56498038Y-70044219D01*
X56284782Y-70032993D01*
X56073519Y-70017786D01*
X55861303Y-69998432D01*
X55645192Y-69974764D01*
X55643356Y-69974546D01*
X55595605Y-69968655D01*
X55535688Y-69960882D01*
X55464255Y-69951323D01*
X55381956Y-69940073D01*
X55289439Y-69927227D01*
X55187355Y-69912881D01*
X55076351Y-69897131D01*
X54957079Y-69880071D01*
X54830186Y-69861798D01*
X54696323Y-69842406D01*
X54556139Y-69821991D01*
X54410283Y-69800649D01*
X54259405Y-69778474D01*
X54104153Y-69755563D01*
X53945178Y-69732011D01*
X53783129Y-69707912D01*
X53618654Y-69683364D01*
X53452403Y-69658460D01*
X53285027Y-69633297D01*
X53117173Y-69607970D01*
X52949492Y-69582574D01*
X52782632Y-69557205D01*
X52617244Y-69531958D01*
X52453976Y-69506928D01*
X52293478Y-69482212D01*
X51734228Y-69395883D01*
X51074482Y-68843901D01*
X51044644Y-68818934D01*
X50965399Y-68752594D01*
X50889182Y-68688745D01*
X50816572Y-68627874D01*
X50748147Y-68570469D01*
X50684487Y-68517015D01*
X50626170Y-68467999D01*
X50573775Y-68423909D01*
X50527880Y-68385232D01*
X50489063Y-68352453D01*
X50457905Y-68326060D01*
X50434983Y-68306540D01*
X50420875Y-68294379D01*
X50416161Y-68290065D01*
X50417067Y-68290072D01*
X50427739Y-68291674D01*
X50449327Y-68295417D01*
X50480473Y-68301050D01*
X50519820Y-68308324D01*
X50566009Y-68316988D01*
X50617681Y-68326791D01*
X50673479Y-68337484D01*
X50875928Y-68376094D01*
X51309426Y-68456338D01*
X51747694Y-68534247D01*
X52188868Y-68609531D01*
X52631081Y-68681903D01*
X53072467Y-68751072D01*
X53511160Y-68816750D01*
X53945295Y-68878647D01*
X54373006Y-68936476D01*
X54792427Y-68989946D01*
X55201692Y-69038770D01*
X55287647Y-69048597D01*
X55371995Y-69058056D01*
X55446685Y-69066149D01*
X55513419Y-69072997D01*
X55573896Y-69078722D01*
X55629820Y-69083448D01*
X55682890Y-69087296D01*
X55734808Y-69090389D01*
X55787276Y-69092849D01*
X55841994Y-69094798D01*
X55900663Y-69096359D01*
X55964986Y-69097654D01*
X56036663Y-69098806D01*
X56060807Y-69099135D01*
X56161983Y-69099887D01*
X56262117Y-69099548D01*
X56361976Y-69098043D01*
X56462328Y-69095298D01*
X56563939Y-69091238D01*
X56667576Y-69085788D01*
X56774007Y-69078875D01*
X56883999Y-69070423D01*
X56998318Y-69060357D01*
X57117733Y-69048604D01*
X57243009Y-69035088D01*
X57374915Y-69019735D01*
X57514216Y-69002471D01*
X57661681Y-68983220D01*
X57818076Y-68961908D01*
X57984168Y-68938461D01*
X58160725Y-68912804D01*
X58348513Y-68884862D01*
X58548300Y-68854561D01*
X58565550Y-68851925D01*
X58742843Y-68825013D01*
X58908304Y-68800268D01*
X59062813Y-68777587D01*
X59207251Y-68756866D01*
X59342497Y-68738005D01*
X59469432Y-68720900D01*
X59588936Y-68705449D01*
X59701890Y-68691549D01*
X59809172Y-68679099D01*
X59911663Y-68667995D01*
X60010244Y-68658135D01*
X60105795Y-68649417D01*
X60199195Y-68641738D01*
X60291325Y-68634996D01*
X60383065Y-68629089D01*
X60475296Y-68623913D01*
X60568896Y-68619367D01*
X60617666Y-68617618D01*
X60677525Y-68616277D01*
X60744582Y-68615412D01*
X60816819Y-68615006D01*
X60892216Y-68615040D01*
X60968755Y-68615497D01*
X61044416Y-68616359D01*
X61117180Y-68617609D01*
X61185029Y-68619228D01*
X61245942Y-68621200D01*
X61297902Y-68623505D01*
X61338888Y-68626128D01*
X61403243Y-68631525D01*
X61603965Y-68652155D01*
X61794383Y-68677845D01*
X61975885Y-68708879D01*
X62149859Y-68745540D01*
X62317692Y-68788112D01*
X62480773Y-68836879D01*
X62640488Y-68892124D01*
X62661938Y-68900142D01*
X62708672Y-68918175D01*
X62755522Y-68936934D01*
X62800958Y-68955745D01*
X62843449Y-68973934D01*
X62881463Y-68990827D01*
X62913471Y-69005751D01*
X62937941Y-69018031D01*
X62953343Y-69026994D01*
X62958147Y-69031965D01*
X62950298Y-69054156D01*
X62938772Y-69087815D01*
X62923946Y-69131794D01*
X62906158Y-69185063D01*
X62885744Y-69246590D01*
X62863041Y-69315345D01*
X62838386Y-69390298D01*
X62812115Y-69470417D01*
X62784564Y-69554671D01*
X62756071Y-69642031D01*
X62726971Y-69731464D01*
X62697603Y-69821941D01*
X62668301Y-69912430D01*
X62639403Y-70001901D01*
X62611246Y-70089323D01*
X62584166Y-70173665D01*
X62558499Y-70253897D01*
X62534582Y-70328988D01*
X62395384Y-70767154D01*
X62389053Y-70787084D01*
X62386781Y-70794235D01*
X62384838Y-70800350D01*
X62351896Y-70904045D01*
G37*
G36*
X58549088Y-77510896D02*
G01*
X58570616Y-77617756D01*
X58590955Y-77718662D01*
X58609980Y-77812995D01*
X58627567Y-77900139D01*
X58643591Y-77979477D01*
X58657928Y-78050393D01*
X58670454Y-78112268D01*
X58681043Y-78164487D01*
X58689571Y-78206432D01*
X58695914Y-78237487D01*
X58699948Y-78257034D01*
X58701547Y-78264457D01*
X58701888Y-78266679D01*
X58700564Y-78269246D01*
X58696045Y-78271285D01*
X58687105Y-78272854D01*
X58672520Y-78274016D01*
X58651064Y-78274830D01*
X58621513Y-78275358D01*
X58582641Y-78275660D01*
X58533223Y-78275796D01*
X58472035Y-78275828D01*
X58239175Y-78275828D01*
X58204552Y-78066273D01*
X58200551Y-78042099D01*
X58191736Y-77989080D01*
X58183287Y-77938591D01*
X58175552Y-77892691D01*
X58168879Y-77853438D01*
X58163615Y-77822892D01*
X58160109Y-77803111D01*
X58150289Y-77749504D01*
X57593813Y-77749504D01*
X57586847Y-77783618D01*
X57585374Y-77791099D01*
X57581291Y-77812606D01*
X57575435Y-77843992D01*
X57568137Y-77883448D01*
X57559734Y-77929168D01*
X57550558Y-77979341D01*
X57540944Y-78032160D01*
X57534515Y-78067505D01*
X57525486Y-78116949D01*
X57517276Y-78161684D01*
X57510182Y-78200093D01*
X57504504Y-78230560D01*
X57500541Y-78251470D01*
X57498591Y-78261208D01*
X57495177Y-78275828D01*
X57027333Y-78275828D01*
X57031048Y-78261026D01*
X57031300Y-78259921D01*
X57033814Y-78248275D01*
X57038834Y-78224721D01*
X57046232Y-78189876D01*
X57055878Y-78144353D01*
X57067641Y-78088767D01*
X57081393Y-78023734D01*
X57097002Y-77949869D01*
X57114340Y-77867786D01*
X57133276Y-77778100D01*
X57153680Y-77681426D01*
X57175423Y-77578380D01*
X57198375Y-77469575D01*
X57213339Y-77398622D01*
X57656461Y-77398622D01*
X57871594Y-77398622D01*
X57900511Y-77398602D01*
X57956256Y-77398398D01*
X58000536Y-77397944D01*
X58034409Y-77397197D01*
X58058931Y-77396119D01*
X58075160Y-77394670D01*
X58084152Y-77392810D01*
X58086963Y-77390499D01*
X58086689Y-77387263D01*
X58084564Y-77372174D01*
X58080495Y-77346207D01*
X58074671Y-77310437D01*
X58067280Y-77265943D01*
X58058509Y-77213800D01*
X58048545Y-77155085D01*
X58037576Y-77090876D01*
X58025791Y-77022249D01*
X58013376Y-76950280D01*
X58000520Y-76876047D01*
X57987409Y-76800627D01*
X57974233Y-76725095D01*
X57961178Y-76650529D01*
X57948431Y-76578007D01*
X57936182Y-76508603D01*
X57924617Y-76443396D01*
X57913923Y-76383462D01*
X57904290Y-76329877D01*
X57895904Y-76283720D01*
X57888953Y-76246065D01*
X57883624Y-76217991D01*
X57880106Y-76200574D01*
X57878586Y-76194890D01*
X57878513Y-76195027D01*
X57876560Y-76203227D01*
X57872498Y-76223223D01*
X57866495Y-76254109D01*
X57858719Y-76294979D01*
X57849339Y-76344928D01*
X57838525Y-76403051D01*
X57826443Y-76468442D01*
X57813264Y-76540195D01*
X57799155Y-76617406D01*
X57784284Y-76699168D01*
X57768822Y-76784577D01*
X57767559Y-76791568D01*
X57752120Y-76876986D01*
X57737306Y-76958867D01*
X57723284Y-77036288D01*
X57710222Y-77108321D01*
X57698289Y-77174043D01*
X57687654Y-77232527D01*
X57678484Y-77282849D01*
X57670947Y-77324082D01*
X57665213Y-77355303D01*
X57661449Y-77375584D01*
X57659823Y-77384002D01*
X57656461Y-77398622D01*
X57213339Y-77398622D01*
X57222406Y-77355628D01*
X57247385Y-77237152D01*
X57273184Y-77114764D01*
X57299672Y-76989077D01*
X57564580Y-75731929D01*
X58189252Y-75728557D01*
X58192927Y-75743239D01*
X58193088Y-75743955D01*
X58195313Y-75754661D01*
X58199942Y-75777342D01*
X58206852Y-75811377D01*
X58215917Y-75856149D01*
X58227013Y-75911039D01*
X58240015Y-75975426D01*
X58254798Y-76048692D01*
X58271237Y-76130219D01*
X58289207Y-76219386D01*
X58308585Y-76315576D01*
X58329244Y-76418168D01*
X58351060Y-76526544D01*
X58373909Y-76640084D01*
X58397665Y-76758170D01*
X58422203Y-76880183D01*
X58447400Y-77005503D01*
X58453578Y-77036238D01*
X58478617Y-77160751D01*
X58502964Y-77281776D01*
X58524846Y-77390499D01*
X58526496Y-77398696D01*
X58549088Y-77510896D01*
G37*
G36*
X52901462Y-78275828D02*
G01*
X51653670Y-78275828D01*
X51655399Y-78098762D01*
X51657128Y-77921697D01*
X52045373Y-77920021D01*
X52433618Y-77918346D01*
X52433618Y-77151829D01*
X51806578Y-77148455D01*
X51806578Y-76791075D01*
X52433618Y-76787701D01*
X52433618Y-76086167D01*
X52061618Y-76084490D01*
X51689617Y-76082812D01*
X51687888Y-75905746D01*
X51686160Y-75728681D01*
X52901462Y-75728681D01*
X52901462Y-78275828D01*
G37*
G36*
X72290973Y-76086061D02*
G01*
X71849121Y-76086061D01*
X71849121Y-78275828D01*
X71381278Y-78275828D01*
X71381278Y-76086232D01*
X71158727Y-76084522D01*
X70936177Y-76082812D01*
X70934448Y-75905746D01*
X70932719Y-75728681D01*
X72290973Y-75728681D01*
X72290973Y-76086061D01*
G37*
%TD*%
M02*
