%TF.GenerationSoftware,KiCad,Pcbnew,8.0.2*%
%TF.CreationDate,2024-05-08T12:07:27-04:00*%
%TF.ProjectId,SMS-to-GG,534d532d-746f-42d4-9747-2e6b69636164,4*%
%TF.SameCoordinates,Original*%
%TF.FileFunction,Drillmap*%
%TF.FilePolarity,Positive*%
%FSLAX45Y45*%
G04 Gerber Fmt 4.5, Leading zero omitted, Abs format (unit mm)*
G04 Created by KiCad (PCBNEW 8.0.2) date 2024-05-08 12:07:27*
%MOMM*%
%LPD*%
G01*
G04 APERTURE LIST*
%ADD10C,0.100000*%
%ADD11C,0.200000*%
%ADD12C,0.360000*%
G04 APERTURE END LIST*
D10*
X11790400Y-12954300D02*
X11790400Y-13881400D01*
X19740600Y-8722000D02*
X10386000Y-8722000D01*
X11790400Y-13881400D02*
X18369000Y-13881400D01*
X19740600Y-12954300D02*
X19740600Y-8722000D01*
X18369000Y-12954300D02*
X19740600Y-12954300D01*
X10386000Y-8722000D02*
X10386000Y-12954300D01*
X18369000Y-13881400D02*
X18369000Y-12954300D01*
X10386000Y-12954300D02*
X11790400Y-12954300D01*
D11*
D12*
X10822000Y-10150200D02*
X11182000Y-10510200D01*
X11182000Y-10150200D02*
X10822000Y-10510200D01*
X18924600Y-10150200D02*
X19284600Y-10510200D01*
X19284600Y-10150200D02*
X18924600Y-10510200D01*
D11*
X10641777Y-14197884D02*
X10641777Y-13997884D01*
X10641777Y-13997884D02*
X10689396Y-13997884D01*
X10689396Y-13997884D02*
X10717967Y-14007408D01*
X10717967Y-14007408D02*
X10737015Y-14026455D01*
X10737015Y-14026455D02*
X10746539Y-14045503D01*
X10746539Y-14045503D02*
X10756063Y-14083598D01*
X10756063Y-14083598D02*
X10756063Y-14112169D01*
X10756063Y-14112169D02*
X10746539Y-14150265D01*
X10746539Y-14150265D02*
X10737015Y-14169312D01*
X10737015Y-14169312D02*
X10717967Y-14188360D01*
X10717967Y-14188360D02*
X10689396Y-14197884D01*
X10689396Y-14197884D02*
X10641777Y-14197884D01*
X10841777Y-14197884D02*
X10841777Y-14064550D01*
X10841777Y-14102646D02*
X10851301Y-14083598D01*
X10851301Y-14083598D02*
X10860824Y-14074074D01*
X10860824Y-14074074D02*
X10879872Y-14064550D01*
X10879872Y-14064550D02*
X10898920Y-14064550D01*
X10965586Y-14197884D02*
X10965586Y-14064550D01*
X10965586Y-13997884D02*
X10956063Y-14007408D01*
X10956063Y-14007408D02*
X10965586Y-14016931D01*
X10965586Y-14016931D02*
X10975110Y-14007408D01*
X10975110Y-14007408D02*
X10965586Y-13997884D01*
X10965586Y-13997884D02*
X10965586Y-14016931D01*
X11089396Y-14197884D02*
X11070348Y-14188360D01*
X11070348Y-14188360D02*
X11060824Y-14169312D01*
X11060824Y-14169312D02*
X11060824Y-13997884D01*
X11194158Y-14197884D02*
X11175110Y-14188360D01*
X11175110Y-14188360D02*
X11165586Y-14169312D01*
X11165586Y-14169312D02*
X11165586Y-13997884D01*
X11422729Y-14197884D02*
X11422729Y-13997884D01*
X11422729Y-13997884D02*
X11489396Y-14140741D01*
X11489396Y-14140741D02*
X11556062Y-13997884D01*
X11556062Y-13997884D02*
X11556062Y-14197884D01*
X11737015Y-14197884D02*
X11737015Y-14093122D01*
X11737015Y-14093122D02*
X11727491Y-14074074D01*
X11727491Y-14074074D02*
X11708443Y-14064550D01*
X11708443Y-14064550D02*
X11670348Y-14064550D01*
X11670348Y-14064550D02*
X11651301Y-14074074D01*
X11737015Y-14188360D02*
X11717967Y-14197884D01*
X11717967Y-14197884D02*
X11670348Y-14197884D01*
X11670348Y-14197884D02*
X11651301Y-14188360D01*
X11651301Y-14188360D02*
X11641777Y-14169312D01*
X11641777Y-14169312D02*
X11641777Y-14150265D01*
X11641777Y-14150265D02*
X11651301Y-14131217D01*
X11651301Y-14131217D02*
X11670348Y-14121693D01*
X11670348Y-14121693D02*
X11717967Y-14121693D01*
X11717967Y-14121693D02*
X11737015Y-14112169D01*
X11832253Y-14064550D02*
X11832253Y-14264550D01*
X11832253Y-14074074D02*
X11851301Y-14064550D01*
X11851301Y-14064550D02*
X11889396Y-14064550D01*
X11889396Y-14064550D02*
X11908443Y-14074074D01*
X11908443Y-14074074D02*
X11917967Y-14083598D01*
X11917967Y-14083598D02*
X11927491Y-14102646D01*
X11927491Y-14102646D02*
X11927491Y-14159788D01*
X11927491Y-14159788D02*
X11917967Y-14178836D01*
X11917967Y-14178836D02*
X11908443Y-14188360D01*
X11908443Y-14188360D02*
X11889396Y-14197884D01*
X11889396Y-14197884D02*
X11851301Y-14197884D01*
X11851301Y-14197884D02*
X11832253Y-14188360D01*
X12013205Y-14178836D02*
X12022729Y-14188360D01*
X12022729Y-14188360D02*
X12013205Y-14197884D01*
X12013205Y-14197884D02*
X12003682Y-14188360D01*
X12003682Y-14188360D02*
X12013205Y-14178836D01*
X12013205Y-14178836D02*
X12013205Y-14197884D01*
X12013205Y-14074074D02*
X12022729Y-14083598D01*
X12022729Y-14083598D02*
X12013205Y-14093122D01*
X12013205Y-14093122D02*
X12003682Y-14083598D01*
X12003682Y-14083598D02*
X12013205Y-14074074D01*
X12013205Y-14074074D02*
X12013205Y-14093122D01*
X10181000Y-14426400D02*
X10381000Y-14626400D01*
X10381000Y-14426400D02*
X10181000Y-14626400D01*
X10622729Y-14417884D02*
X10746539Y-14417884D01*
X10746539Y-14417884D02*
X10679872Y-14494074D01*
X10679872Y-14494074D02*
X10708444Y-14494074D01*
X10708444Y-14494074D02*
X10727491Y-14503598D01*
X10727491Y-14503598D02*
X10737015Y-14513122D01*
X10737015Y-14513122D02*
X10746539Y-14532169D01*
X10746539Y-14532169D02*
X10746539Y-14579788D01*
X10746539Y-14579788D02*
X10737015Y-14598836D01*
X10737015Y-14598836D02*
X10727491Y-14608360D01*
X10727491Y-14608360D02*
X10708444Y-14617884D01*
X10708444Y-14617884D02*
X10651301Y-14617884D01*
X10651301Y-14617884D02*
X10632253Y-14608360D01*
X10632253Y-14608360D02*
X10622729Y-14598836D01*
X10832253Y-14598836D02*
X10841777Y-14608360D01*
X10841777Y-14608360D02*
X10832253Y-14617884D01*
X10832253Y-14617884D02*
X10822729Y-14608360D01*
X10822729Y-14608360D02*
X10832253Y-14598836D01*
X10832253Y-14598836D02*
X10832253Y-14617884D01*
X11013205Y-14417884D02*
X10975110Y-14417884D01*
X10975110Y-14417884D02*
X10956063Y-14427408D01*
X10956063Y-14427408D02*
X10946539Y-14436931D01*
X10946539Y-14436931D02*
X10927491Y-14465503D01*
X10927491Y-14465503D02*
X10917967Y-14503598D01*
X10917967Y-14503598D02*
X10917967Y-14579788D01*
X10917967Y-14579788D02*
X10927491Y-14598836D01*
X10927491Y-14598836D02*
X10937015Y-14608360D01*
X10937015Y-14608360D02*
X10956063Y-14617884D01*
X10956063Y-14617884D02*
X10994158Y-14617884D01*
X10994158Y-14617884D02*
X11013205Y-14608360D01*
X11013205Y-14608360D02*
X11022729Y-14598836D01*
X11022729Y-14598836D02*
X11032253Y-14579788D01*
X11032253Y-14579788D02*
X11032253Y-14532169D01*
X11032253Y-14532169D02*
X11022729Y-14513122D01*
X11022729Y-14513122D02*
X11013205Y-14503598D01*
X11013205Y-14503598D02*
X10994158Y-14494074D01*
X10994158Y-14494074D02*
X10956063Y-14494074D01*
X10956063Y-14494074D02*
X10937015Y-14503598D01*
X10937015Y-14503598D02*
X10927491Y-14513122D01*
X10927491Y-14513122D02*
X10917967Y-14532169D01*
X11156063Y-14417884D02*
X11175110Y-14417884D01*
X11175110Y-14417884D02*
X11194158Y-14427408D01*
X11194158Y-14427408D02*
X11203682Y-14436931D01*
X11203682Y-14436931D02*
X11213205Y-14455979D01*
X11213205Y-14455979D02*
X11222729Y-14494074D01*
X11222729Y-14494074D02*
X11222729Y-14541693D01*
X11222729Y-14541693D02*
X11213205Y-14579788D01*
X11213205Y-14579788D02*
X11203682Y-14598836D01*
X11203682Y-14598836D02*
X11194158Y-14608360D01*
X11194158Y-14608360D02*
X11175110Y-14617884D01*
X11175110Y-14617884D02*
X11156063Y-14617884D01*
X11156063Y-14617884D02*
X11137015Y-14608360D01*
X11137015Y-14608360D02*
X11127491Y-14598836D01*
X11127491Y-14598836D02*
X11117967Y-14579788D01*
X11117967Y-14579788D02*
X11108444Y-14541693D01*
X11108444Y-14541693D02*
X11108444Y-14494074D01*
X11108444Y-14494074D02*
X11117967Y-14455979D01*
X11117967Y-14455979D02*
X11127491Y-14436931D01*
X11127491Y-14436931D02*
X11137015Y-14427408D01*
X11137015Y-14427408D02*
X11156063Y-14417884D01*
X11346539Y-14417884D02*
X11365586Y-14417884D01*
X11365586Y-14417884D02*
X11384634Y-14427408D01*
X11384634Y-14427408D02*
X11394158Y-14436931D01*
X11394158Y-14436931D02*
X11403682Y-14455979D01*
X11403682Y-14455979D02*
X11413205Y-14494074D01*
X11413205Y-14494074D02*
X11413205Y-14541693D01*
X11413205Y-14541693D02*
X11403682Y-14579788D01*
X11403682Y-14579788D02*
X11394158Y-14598836D01*
X11394158Y-14598836D02*
X11384634Y-14608360D01*
X11384634Y-14608360D02*
X11365586Y-14617884D01*
X11365586Y-14617884D02*
X11346539Y-14617884D01*
X11346539Y-14617884D02*
X11327491Y-14608360D01*
X11327491Y-14608360D02*
X11317967Y-14598836D01*
X11317967Y-14598836D02*
X11308443Y-14579788D01*
X11308443Y-14579788D02*
X11298920Y-14541693D01*
X11298920Y-14541693D02*
X11298920Y-14494074D01*
X11298920Y-14494074D02*
X11308443Y-14455979D01*
X11308443Y-14455979D02*
X11317967Y-14436931D01*
X11317967Y-14436931D02*
X11327491Y-14427408D01*
X11327491Y-14427408D02*
X11346539Y-14417884D01*
X11498920Y-14617884D02*
X11498920Y-14484550D01*
X11498920Y-14503598D02*
X11508443Y-14494074D01*
X11508443Y-14494074D02*
X11527491Y-14484550D01*
X11527491Y-14484550D02*
X11556063Y-14484550D01*
X11556063Y-14484550D02*
X11575110Y-14494074D01*
X11575110Y-14494074D02*
X11584634Y-14513122D01*
X11584634Y-14513122D02*
X11584634Y-14617884D01*
X11584634Y-14513122D02*
X11594158Y-14494074D01*
X11594158Y-14494074D02*
X11613205Y-14484550D01*
X11613205Y-14484550D02*
X11641777Y-14484550D01*
X11641777Y-14484550D02*
X11660824Y-14494074D01*
X11660824Y-14494074D02*
X11670348Y-14513122D01*
X11670348Y-14513122D02*
X11670348Y-14617884D01*
X11765586Y-14617884D02*
X11765586Y-14484550D01*
X11765586Y-14503598D02*
X11775110Y-14494074D01*
X11775110Y-14494074D02*
X11794158Y-14484550D01*
X11794158Y-14484550D02*
X11822729Y-14484550D01*
X11822729Y-14484550D02*
X11841777Y-14494074D01*
X11841777Y-14494074D02*
X11851301Y-14513122D01*
X11851301Y-14513122D02*
X11851301Y-14617884D01*
X11851301Y-14513122D02*
X11860824Y-14494074D01*
X11860824Y-14494074D02*
X11879872Y-14484550D01*
X11879872Y-14484550D02*
X11908443Y-14484550D01*
X11908443Y-14484550D02*
X11927491Y-14494074D01*
X11927491Y-14494074D02*
X11937015Y-14513122D01*
X11937015Y-14513122D02*
X11937015Y-14617884D01*
X12327491Y-14408360D02*
X12156063Y-14665503D01*
X12584634Y-14417884D02*
X12603682Y-14417884D01*
X12603682Y-14417884D02*
X12622729Y-14427408D01*
X12622729Y-14427408D02*
X12632253Y-14436931D01*
X12632253Y-14436931D02*
X12641777Y-14455979D01*
X12641777Y-14455979D02*
X12651301Y-14494074D01*
X12651301Y-14494074D02*
X12651301Y-14541693D01*
X12651301Y-14541693D02*
X12641777Y-14579788D01*
X12641777Y-14579788D02*
X12632253Y-14598836D01*
X12632253Y-14598836D02*
X12622729Y-14608360D01*
X12622729Y-14608360D02*
X12603682Y-14617884D01*
X12603682Y-14617884D02*
X12584634Y-14617884D01*
X12584634Y-14617884D02*
X12565586Y-14608360D01*
X12565586Y-14608360D02*
X12556063Y-14598836D01*
X12556063Y-14598836D02*
X12546539Y-14579788D01*
X12546539Y-14579788D02*
X12537015Y-14541693D01*
X12537015Y-14541693D02*
X12537015Y-14494074D01*
X12537015Y-14494074D02*
X12546539Y-14455979D01*
X12546539Y-14455979D02*
X12556063Y-14436931D01*
X12556063Y-14436931D02*
X12565586Y-14427408D01*
X12565586Y-14427408D02*
X12584634Y-14417884D01*
X12737015Y-14598836D02*
X12746539Y-14608360D01*
X12746539Y-14608360D02*
X12737015Y-14617884D01*
X12737015Y-14617884D02*
X12727491Y-14608360D01*
X12727491Y-14608360D02*
X12737015Y-14598836D01*
X12737015Y-14598836D02*
X12737015Y-14617884D01*
X12937015Y-14617884D02*
X12822729Y-14617884D01*
X12879872Y-14617884D02*
X12879872Y-14417884D01*
X12879872Y-14417884D02*
X12860825Y-14446455D01*
X12860825Y-14446455D02*
X12841777Y-14465503D01*
X12841777Y-14465503D02*
X12822729Y-14475027D01*
X13108444Y-14484550D02*
X13108444Y-14617884D01*
X13060825Y-14408360D02*
X13013206Y-14551217D01*
X13013206Y-14551217D02*
X13137015Y-14551217D01*
X13317967Y-14617884D02*
X13203682Y-14617884D01*
X13260825Y-14617884D02*
X13260825Y-14417884D01*
X13260825Y-14417884D02*
X13241777Y-14446455D01*
X13241777Y-14446455D02*
X13222729Y-14465503D01*
X13222729Y-14465503D02*
X13203682Y-14475027D01*
X13384634Y-14417884D02*
X13517967Y-14417884D01*
X13517967Y-14417884D02*
X13432253Y-14617884D01*
X13584634Y-14417884D02*
X13584634Y-14455979D01*
X13660825Y-14417884D02*
X13660825Y-14455979D01*
X13956063Y-14694074D02*
X13946539Y-14684550D01*
X13946539Y-14684550D02*
X13927491Y-14655979D01*
X13927491Y-14655979D02*
X13917968Y-14636931D01*
X13917968Y-14636931D02*
X13908444Y-14608360D01*
X13908444Y-14608360D02*
X13898920Y-14560741D01*
X13898920Y-14560741D02*
X13898920Y-14522646D01*
X13898920Y-14522646D02*
X13908444Y-14475027D01*
X13908444Y-14475027D02*
X13917968Y-14446455D01*
X13917968Y-14446455D02*
X13927491Y-14427408D01*
X13927491Y-14427408D02*
X13946539Y-14398836D01*
X13946539Y-14398836D02*
X13956063Y-14389312D01*
X14022729Y-14436931D02*
X14032253Y-14427408D01*
X14032253Y-14427408D02*
X14051301Y-14417884D01*
X14051301Y-14417884D02*
X14098920Y-14417884D01*
X14098920Y-14417884D02*
X14117968Y-14427408D01*
X14117968Y-14427408D02*
X14127491Y-14436931D01*
X14127491Y-14436931D02*
X14137015Y-14455979D01*
X14137015Y-14455979D02*
X14137015Y-14475027D01*
X14137015Y-14475027D02*
X14127491Y-14503598D01*
X14127491Y-14503598D02*
X14013206Y-14617884D01*
X14013206Y-14617884D02*
X14137015Y-14617884D01*
X14375110Y-14617884D02*
X14375110Y-14417884D01*
X14460825Y-14617884D02*
X14460825Y-14513122D01*
X14460825Y-14513122D02*
X14451301Y-14494074D01*
X14451301Y-14494074D02*
X14432253Y-14484550D01*
X14432253Y-14484550D02*
X14403682Y-14484550D01*
X14403682Y-14484550D02*
X14384634Y-14494074D01*
X14384634Y-14494074D02*
X14375110Y-14503598D01*
X14584634Y-14617884D02*
X14565587Y-14608360D01*
X14565587Y-14608360D02*
X14556063Y-14598836D01*
X14556063Y-14598836D02*
X14546539Y-14579788D01*
X14546539Y-14579788D02*
X14546539Y-14522646D01*
X14546539Y-14522646D02*
X14556063Y-14503598D01*
X14556063Y-14503598D02*
X14565587Y-14494074D01*
X14565587Y-14494074D02*
X14584634Y-14484550D01*
X14584634Y-14484550D02*
X14613206Y-14484550D01*
X14613206Y-14484550D02*
X14632253Y-14494074D01*
X14632253Y-14494074D02*
X14641777Y-14503598D01*
X14641777Y-14503598D02*
X14651301Y-14522646D01*
X14651301Y-14522646D02*
X14651301Y-14579788D01*
X14651301Y-14579788D02*
X14641777Y-14598836D01*
X14641777Y-14598836D02*
X14632253Y-14608360D01*
X14632253Y-14608360D02*
X14613206Y-14617884D01*
X14613206Y-14617884D02*
X14584634Y-14617884D01*
X14765587Y-14617884D02*
X14746539Y-14608360D01*
X14746539Y-14608360D02*
X14737015Y-14589312D01*
X14737015Y-14589312D02*
X14737015Y-14417884D01*
X14917968Y-14608360D02*
X14898920Y-14617884D01*
X14898920Y-14617884D02*
X14860825Y-14617884D01*
X14860825Y-14617884D02*
X14841777Y-14608360D01*
X14841777Y-14608360D02*
X14832253Y-14589312D01*
X14832253Y-14589312D02*
X14832253Y-14513122D01*
X14832253Y-14513122D02*
X14841777Y-14494074D01*
X14841777Y-14494074D02*
X14860825Y-14484550D01*
X14860825Y-14484550D02*
X14898920Y-14484550D01*
X14898920Y-14484550D02*
X14917968Y-14494074D01*
X14917968Y-14494074D02*
X14927491Y-14513122D01*
X14927491Y-14513122D02*
X14927491Y-14532169D01*
X14927491Y-14532169D02*
X14832253Y-14551217D01*
X15003682Y-14608360D02*
X15022730Y-14617884D01*
X15022730Y-14617884D02*
X15060825Y-14617884D01*
X15060825Y-14617884D02*
X15079872Y-14608360D01*
X15079872Y-14608360D02*
X15089396Y-14589312D01*
X15089396Y-14589312D02*
X15089396Y-14579788D01*
X15089396Y-14579788D02*
X15079872Y-14560741D01*
X15079872Y-14560741D02*
X15060825Y-14551217D01*
X15060825Y-14551217D02*
X15032253Y-14551217D01*
X15032253Y-14551217D02*
X15013206Y-14541693D01*
X15013206Y-14541693D02*
X15003682Y-14522646D01*
X15003682Y-14522646D02*
X15003682Y-14513122D01*
X15003682Y-14513122D02*
X15013206Y-14494074D01*
X15013206Y-14494074D02*
X15032253Y-14484550D01*
X15032253Y-14484550D02*
X15060825Y-14484550D01*
X15060825Y-14484550D02*
X15079872Y-14494074D01*
X15156063Y-14694074D02*
X15165587Y-14684550D01*
X15165587Y-14684550D02*
X15184634Y-14655979D01*
X15184634Y-14655979D02*
X15194158Y-14636931D01*
X15194158Y-14636931D02*
X15203682Y-14608360D01*
X15203682Y-14608360D02*
X15213206Y-14560741D01*
X15213206Y-14560741D02*
X15213206Y-14522646D01*
X15213206Y-14522646D02*
X15203682Y-14475027D01*
X15203682Y-14475027D02*
X15194158Y-14446455D01*
X15194158Y-14446455D02*
X15184634Y-14427408D01*
X15184634Y-14427408D02*
X15165587Y-14398836D01*
X15165587Y-14398836D02*
X15156063Y-14389312D01*
X15517968Y-14694074D02*
X15508444Y-14684550D01*
X15508444Y-14684550D02*
X15489396Y-14655979D01*
X15489396Y-14655979D02*
X15479872Y-14636931D01*
X15479872Y-14636931D02*
X15470349Y-14608360D01*
X15470349Y-14608360D02*
X15460825Y-14560741D01*
X15460825Y-14560741D02*
X15460825Y-14522646D01*
X15460825Y-14522646D02*
X15470349Y-14475027D01*
X15470349Y-14475027D02*
X15479872Y-14446455D01*
X15479872Y-14446455D02*
X15489396Y-14427408D01*
X15489396Y-14427408D02*
X15508444Y-14398836D01*
X15508444Y-14398836D02*
X15517968Y-14389312D01*
X15594158Y-14484550D02*
X15594158Y-14617884D01*
X15594158Y-14503598D02*
X15603682Y-14494074D01*
X15603682Y-14494074D02*
X15622730Y-14484550D01*
X15622730Y-14484550D02*
X15651301Y-14484550D01*
X15651301Y-14484550D02*
X15670349Y-14494074D01*
X15670349Y-14494074D02*
X15679872Y-14513122D01*
X15679872Y-14513122D02*
X15679872Y-14617884D01*
X15803682Y-14617884D02*
X15784634Y-14608360D01*
X15784634Y-14608360D02*
X15775111Y-14598836D01*
X15775111Y-14598836D02*
X15765587Y-14579788D01*
X15765587Y-14579788D02*
X15765587Y-14522646D01*
X15765587Y-14522646D02*
X15775111Y-14503598D01*
X15775111Y-14503598D02*
X15784634Y-14494074D01*
X15784634Y-14494074D02*
X15803682Y-14484550D01*
X15803682Y-14484550D02*
X15832253Y-14484550D01*
X15832253Y-14484550D02*
X15851301Y-14494074D01*
X15851301Y-14494074D02*
X15860825Y-14503598D01*
X15860825Y-14503598D02*
X15870349Y-14522646D01*
X15870349Y-14522646D02*
X15870349Y-14579788D01*
X15870349Y-14579788D02*
X15860825Y-14598836D01*
X15860825Y-14598836D02*
X15851301Y-14608360D01*
X15851301Y-14608360D02*
X15832253Y-14617884D01*
X15832253Y-14617884D02*
X15803682Y-14617884D01*
X15927492Y-14484550D02*
X16003682Y-14484550D01*
X15956063Y-14417884D02*
X15956063Y-14589312D01*
X15956063Y-14589312D02*
X15965587Y-14608360D01*
X15965587Y-14608360D02*
X15984634Y-14617884D01*
X15984634Y-14617884D02*
X16003682Y-14617884D01*
X16222730Y-14484550D02*
X16222730Y-14684550D01*
X16222730Y-14494074D02*
X16241777Y-14484550D01*
X16241777Y-14484550D02*
X16279873Y-14484550D01*
X16279873Y-14484550D02*
X16298920Y-14494074D01*
X16298920Y-14494074D02*
X16308444Y-14503598D01*
X16308444Y-14503598D02*
X16317968Y-14522646D01*
X16317968Y-14522646D02*
X16317968Y-14579788D01*
X16317968Y-14579788D02*
X16308444Y-14598836D01*
X16308444Y-14598836D02*
X16298920Y-14608360D01*
X16298920Y-14608360D02*
X16279873Y-14617884D01*
X16279873Y-14617884D02*
X16241777Y-14617884D01*
X16241777Y-14617884D02*
X16222730Y-14608360D01*
X16432253Y-14617884D02*
X16413206Y-14608360D01*
X16413206Y-14608360D02*
X16403682Y-14589312D01*
X16403682Y-14589312D02*
X16403682Y-14417884D01*
X16594158Y-14617884D02*
X16594158Y-14513122D01*
X16594158Y-14513122D02*
X16584634Y-14494074D01*
X16584634Y-14494074D02*
X16565587Y-14484550D01*
X16565587Y-14484550D02*
X16527492Y-14484550D01*
X16527492Y-14484550D02*
X16508444Y-14494074D01*
X16594158Y-14608360D02*
X16575111Y-14617884D01*
X16575111Y-14617884D02*
X16527492Y-14617884D01*
X16527492Y-14617884D02*
X16508444Y-14608360D01*
X16508444Y-14608360D02*
X16498920Y-14589312D01*
X16498920Y-14589312D02*
X16498920Y-14570265D01*
X16498920Y-14570265D02*
X16508444Y-14551217D01*
X16508444Y-14551217D02*
X16527492Y-14541693D01*
X16527492Y-14541693D02*
X16575111Y-14541693D01*
X16575111Y-14541693D02*
X16594158Y-14532169D01*
X16660825Y-14484550D02*
X16737015Y-14484550D01*
X16689396Y-14417884D02*
X16689396Y-14589312D01*
X16689396Y-14589312D02*
X16698920Y-14608360D01*
X16698920Y-14608360D02*
X16717968Y-14617884D01*
X16717968Y-14617884D02*
X16737015Y-14617884D01*
X16879873Y-14608360D02*
X16860825Y-14617884D01*
X16860825Y-14617884D02*
X16822730Y-14617884D01*
X16822730Y-14617884D02*
X16803682Y-14608360D01*
X16803682Y-14608360D02*
X16794158Y-14589312D01*
X16794158Y-14589312D02*
X16794158Y-14513122D01*
X16794158Y-14513122D02*
X16803682Y-14494074D01*
X16803682Y-14494074D02*
X16822730Y-14484550D01*
X16822730Y-14484550D02*
X16860825Y-14484550D01*
X16860825Y-14484550D02*
X16879873Y-14494074D01*
X16879873Y-14494074D02*
X16889396Y-14513122D01*
X16889396Y-14513122D02*
X16889396Y-14532169D01*
X16889396Y-14532169D02*
X16794158Y-14551217D01*
X17060825Y-14617884D02*
X17060825Y-14417884D01*
X17060825Y-14608360D02*
X17041777Y-14617884D01*
X17041777Y-14617884D02*
X17003682Y-14617884D01*
X17003682Y-14617884D02*
X16984635Y-14608360D01*
X16984635Y-14608360D02*
X16975111Y-14598836D01*
X16975111Y-14598836D02*
X16965587Y-14579788D01*
X16965587Y-14579788D02*
X16965587Y-14522646D01*
X16965587Y-14522646D02*
X16975111Y-14503598D01*
X16975111Y-14503598D02*
X16984635Y-14494074D01*
X16984635Y-14494074D02*
X17003682Y-14484550D01*
X17003682Y-14484550D02*
X17041777Y-14484550D01*
X17041777Y-14484550D02*
X17060825Y-14494074D01*
X17137016Y-14694074D02*
X17146539Y-14684550D01*
X17146539Y-14684550D02*
X17165587Y-14655979D01*
X17165587Y-14655979D02*
X17175111Y-14636931D01*
X17175111Y-14636931D02*
X17184635Y-14608360D01*
X17184635Y-14608360D02*
X17194158Y-14560741D01*
X17194158Y-14560741D02*
X17194158Y-14522646D01*
X17194158Y-14522646D02*
X17184635Y-14475027D01*
X17184635Y-14475027D02*
X17175111Y-14446455D01*
X17175111Y-14446455D02*
X17165587Y-14427408D01*
X17165587Y-14427408D02*
X17146539Y-14398836D01*
X17146539Y-14398836D02*
X17137016Y-14389312D01*
M02*
