G04 #@! TF.GenerationSoftware,KiCad,Pcbnew,8.0.2*
G04 #@! TF.CreationDate,2024-05-08T12:07:27-04:00*
G04 #@! TF.ProjectId,SMS-to-GG,534d532d-746f-42d4-9747-2e6b69636164,4*
G04 #@! TF.SameCoordinates,Original*
G04 #@! TF.FileFunction,AssemblyDrawing,Top*
%FSLAX46Y46*%
G04 Gerber Fmt 4.6, Leading zero omitted, Abs format (unit mm)*
G04 Created by KiCad (PCBNEW 8.0.2) date 2024-05-08 12:07:27*
%MOMM*%
%LPD*%
G01*
G04 APERTURE LIST*
%ADD10C,0.150000*%
%ADD11C,0.125000*%
%ADD12C,0.100000*%
%ADD13C,0.200000*%
%ADD14C,0.120000*%
G04 APERTURE END LIST*
D10*
X142395712Y-109512438D02*
X142300474Y-109464819D01*
X142300474Y-109464819D02*
X142157617Y-109464819D01*
X142157617Y-109464819D02*
X142014760Y-109512438D01*
X142014760Y-109512438D02*
X141919522Y-109607676D01*
X141919522Y-109607676D02*
X141871903Y-109702914D01*
X141871903Y-109702914D02*
X141824284Y-109893390D01*
X141824284Y-109893390D02*
X141824284Y-110036247D01*
X141824284Y-110036247D02*
X141871903Y-110226723D01*
X141871903Y-110226723D02*
X141919522Y-110321961D01*
X141919522Y-110321961D02*
X142014760Y-110417200D01*
X142014760Y-110417200D02*
X142157617Y-110464819D01*
X142157617Y-110464819D02*
X142252855Y-110464819D01*
X142252855Y-110464819D02*
X142395712Y-110417200D01*
X142395712Y-110417200D02*
X142443331Y-110369580D01*
X142443331Y-110369580D02*
X142443331Y-110036247D01*
X142443331Y-110036247D02*
X142252855Y-110036247D01*
X143300474Y-110464819D02*
X143300474Y-109941009D01*
X143300474Y-109941009D02*
X143252855Y-109845771D01*
X143252855Y-109845771D02*
X143157617Y-109798152D01*
X143157617Y-109798152D02*
X142967141Y-109798152D01*
X142967141Y-109798152D02*
X142871903Y-109845771D01*
X143300474Y-110417200D02*
X143205236Y-110464819D01*
X143205236Y-110464819D02*
X142967141Y-110464819D01*
X142967141Y-110464819D02*
X142871903Y-110417200D01*
X142871903Y-110417200D02*
X142824284Y-110321961D01*
X142824284Y-110321961D02*
X142824284Y-110226723D01*
X142824284Y-110226723D02*
X142871903Y-110131485D01*
X142871903Y-110131485D02*
X142967141Y-110083866D01*
X142967141Y-110083866D02*
X143205236Y-110083866D01*
X143205236Y-110083866D02*
X143300474Y-110036247D01*
X143776665Y-110464819D02*
X143776665Y-109798152D01*
X143776665Y-109893390D02*
X143824284Y-109845771D01*
X143824284Y-109845771D02*
X143919522Y-109798152D01*
X143919522Y-109798152D02*
X144062379Y-109798152D01*
X144062379Y-109798152D02*
X144157617Y-109845771D01*
X144157617Y-109845771D02*
X144205236Y-109941009D01*
X144205236Y-109941009D02*
X144205236Y-110464819D01*
X144205236Y-109941009D02*
X144252855Y-109845771D01*
X144252855Y-109845771D02*
X144348093Y-109798152D01*
X144348093Y-109798152D02*
X144490950Y-109798152D01*
X144490950Y-109798152D02*
X144586189Y-109845771D01*
X144586189Y-109845771D02*
X144633808Y-109941009D01*
X144633808Y-109941009D02*
X144633808Y-110464819D01*
X145490950Y-110417200D02*
X145395712Y-110464819D01*
X145395712Y-110464819D02*
X145205236Y-110464819D01*
X145205236Y-110464819D02*
X145109998Y-110417200D01*
X145109998Y-110417200D02*
X145062379Y-110321961D01*
X145062379Y-110321961D02*
X145062379Y-109941009D01*
X145062379Y-109941009D02*
X145109998Y-109845771D01*
X145109998Y-109845771D02*
X145205236Y-109798152D01*
X145205236Y-109798152D02*
X145395712Y-109798152D01*
X145395712Y-109798152D02*
X145490950Y-109845771D01*
X145490950Y-109845771D02*
X145538569Y-109941009D01*
X145538569Y-109941009D02*
X145538569Y-110036247D01*
X145538569Y-110036247D02*
X145062379Y-110131485D01*
X145919522Y-110417200D02*
X146014760Y-110464819D01*
X146014760Y-110464819D02*
X146205236Y-110464819D01*
X146205236Y-110464819D02*
X146300474Y-110417200D01*
X146300474Y-110417200D02*
X146348093Y-110321961D01*
X146348093Y-110321961D02*
X146348093Y-110274342D01*
X146348093Y-110274342D02*
X146300474Y-110179104D01*
X146300474Y-110179104D02*
X146205236Y-110131485D01*
X146205236Y-110131485D02*
X146062379Y-110131485D01*
X146062379Y-110131485D02*
X145967141Y-110083866D01*
X145967141Y-110083866D02*
X145919522Y-109988628D01*
X145919522Y-109988628D02*
X145919522Y-109941009D01*
X145919522Y-109941009D02*
X145967141Y-109845771D01*
X145967141Y-109845771D02*
X146062379Y-109798152D01*
X146062379Y-109798152D02*
X146205236Y-109798152D01*
X146205236Y-109798152D02*
X146300474Y-109845771D01*
X146919522Y-110464819D02*
X146824284Y-110417200D01*
X146824284Y-110417200D02*
X146776665Y-110321961D01*
X146776665Y-110321961D02*
X146776665Y-109464819D01*
X147443332Y-110464819D02*
X147348094Y-110417200D01*
X147348094Y-110417200D02*
X147300475Y-110369580D01*
X147300475Y-110369580D02*
X147252856Y-110274342D01*
X147252856Y-110274342D02*
X147252856Y-109988628D01*
X147252856Y-109988628D02*
X147300475Y-109893390D01*
X147300475Y-109893390D02*
X147348094Y-109845771D01*
X147348094Y-109845771D02*
X147443332Y-109798152D01*
X147443332Y-109798152D02*
X147586189Y-109798152D01*
X147586189Y-109798152D02*
X147681427Y-109845771D01*
X147681427Y-109845771D02*
X147729046Y-109893390D01*
X147729046Y-109893390D02*
X147776665Y-109988628D01*
X147776665Y-109988628D02*
X147776665Y-110274342D01*
X147776665Y-110274342D02*
X147729046Y-110369580D01*
X147729046Y-110369580D02*
X147681427Y-110417200D01*
X147681427Y-110417200D02*
X147586189Y-110464819D01*
X147586189Y-110464819D02*
X147443332Y-110464819D01*
X148062380Y-109798152D02*
X148443332Y-109798152D01*
X148205237Y-109464819D02*
X148205237Y-110321961D01*
X148205237Y-110321961D02*
X148252856Y-110417200D01*
X148252856Y-110417200D02*
X148348094Y-110464819D01*
X148348094Y-110464819D02*
X148443332Y-110464819D01*
X150062380Y-109512438D02*
X149967142Y-109464819D01*
X149967142Y-109464819D02*
X149824285Y-109464819D01*
X149824285Y-109464819D02*
X149681428Y-109512438D01*
X149681428Y-109512438D02*
X149586190Y-109607676D01*
X149586190Y-109607676D02*
X149538571Y-109702914D01*
X149538571Y-109702914D02*
X149490952Y-109893390D01*
X149490952Y-109893390D02*
X149490952Y-110036247D01*
X149490952Y-110036247D02*
X149538571Y-110226723D01*
X149538571Y-110226723D02*
X149586190Y-110321961D01*
X149586190Y-110321961D02*
X149681428Y-110417200D01*
X149681428Y-110417200D02*
X149824285Y-110464819D01*
X149824285Y-110464819D02*
X149919523Y-110464819D01*
X149919523Y-110464819D02*
X150062380Y-110417200D01*
X150062380Y-110417200D02*
X150109999Y-110369580D01*
X150109999Y-110369580D02*
X150109999Y-110036247D01*
X150109999Y-110036247D02*
X149919523Y-110036247D01*
X151062380Y-109512438D02*
X150967142Y-109464819D01*
X150967142Y-109464819D02*
X150824285Y-109464819D01*
X150824285Y-109464819D02*
X150681428Y-109512438D01*
X150681428Y-109512438D02*
X150586190Y-109607676D01*
X150586190Y-109607676D02*
X150538571Y-109702914D01*
X150538571Y-109702914D02*
X150490952Y-109893390D01*
X150490952Y-109893390D02*
X150490952Y-110036247D01*
X150490952Y-110036247D02*
X150538571Y-110226723D01*
X150538571Y-110226723D02*
X150586190Y-110321961D01*
X150586190Y-110321961D02*
X150681428Y-110417200D01*
X150681428Y-110417200D02*
X150824285Y-110464819D01*
X150824285Y-110464819D02*
X150919523Y-110464819D01*
X150919523Y-110464819D02*
X151062380Y-110417200D01*
X151062380Y-110417200D02*
X151109999Y-110369580D01*
X151109999Y-110369580D02*
X151109999Y-110036247D01*
X151109999Y-110036247D02*
X150919523Y-110036247D01*
X152871904Y-110369580D02*
X152824285Y-110417200D01*
X152824285Y-110417200D02*
X152681428Y-110464819D01*
X152681428Y-110464819D02*
X152586190Y-110464819D01*
X152586190Y-110464819D02*
X152443333Y-110417200D01*
X152443333Y-110417200D02*
X152348095Y-110321961D01*
X152348095Y-110321961D02*
X152300476Y-110226723D01*
X152300476Y-110226723D02*
X152252857Y-110036247D01*
X152252857Y-110036247D02*
X152252857Y-109893390D01*
X152252857Y-109893390D02*
X152300476Y-109702914D01*
X152300476Y-109702914D02*
X152348095Y-109607676D01*
X152348095Y-109607676D02*
X152443333Y-109512438D01*
X152443333Y-109512438D02*
X152586190Y-109464819D01*
X152586190Y-109464819D02*
X152681428Y-109464819D01*
X152681428Y-109464819D02*
X152824285Y-109512438D01*
X152824285Y-109512438D02*
X152871904Y-109560057D01*
X153443333Y-110464819D02*
X153348095Y-110417200D01*
X153348095Y-110417200D02*
X153300476Y-110369580D01*
X153300476Y-110369580D02*
X153252857Y-110274342D01*
X153252857Y-110274342D02*
X153252857Y-109988628D01*
X153252857Y-109988628D02*
X153300476Y-109893390D01*
X153300476Y-109893390D02*
X153348095Y-109845771D01*
X153348095Y-109845771D02*
X153443333Y-109798152D01*
X153443333Y-109798152D02*
X153586190Y-109798152D01*
X153586190Y-109798152D02*
X153681428Y-109845771D01*
X153681428Y-109845771D02*
X153729047Y-109893390D01*
X153729047Y-109893390D02*
X153776666Y-109988628D01*
X153776666Y-109988628D02*
X153776666Y-110274342D01*
X153776666Y-110274342D02*
X153729047Y-110369580D01*
X153729047Y-110369580D02*
X153681428Y-110417200D01*
X153681428Y-110417200D02*
X153586190Y-110464819D01*
X153586190Y-110464819D02*
X153443333Y-110464819D01*
X154205238Y-109798152D02*
X154205238Y-110464819D01*
X154205238Y-109893390D02*
X154252857Y-109845771D01*
X154252857Y-109845771D02*
X154348095Y-109798152D01*
X154348095Y-109798152D02*
X154490952Y-109798152D01*
X154490952Y-109798152D02*
X154586190Y-109845771D01*
X154586190Y-109845771D02*
X154633809Y-109941009D01*
X154633809Y-109941009D02*
X154633809Y-110464819D01*
X155110000Y-109798152D02*
X155110000Y-110464819D01*
X155110000Y-109893390D02*
X155157619Y-109845771D01*
X155157619Y-109845771D02*
X155252857Y-109798152D01*
X155252857Y-109798152D02*
X155395714Y-109798152D01*
X155395714Y-109798152D02*
X155490952Y-109845771D01*
X155490952Y-109845771D02*
X155538571Y-109941009D01*
X155538571Y-109941009D02*
X155538571Y-110464819D01*
X156395714Y-110417200D02*
X156300476Y-110464819D01*
X156300476Y-110464819D02*
X156110000Y-110464819D01*
X156110000Y-110464819D02*
X156014762Y-110417200D01*
X156014762Y-110417200D02*
X155967143Y-110321961D01*
X155967143Y-110321961D02*
X155967143Y-109941009D01*
X155967143Y-109941009D02*
X156014762Y-109845771D01*
X156014762Y-109845771D02*
X156110000Y-109798152D01*
X156110000Y-109798152D02*
X156300476Y-109798152D01*
X156300476Y-109798152D02*
X156395714Y-109845771D01*
X156395714Y-109845771D02*
X156443333Y-109941009D01*
X156443333Y-109941009D02*
X156443333Y-110036247D01*
X156443333Y-110036247D02*
X155967143Y-110131485D01*
X157300476Y-110417200D02*
X157205238Y-110464819D01*
X157205238Y-110464819D02*
X157014762Y-110464819D01*
X157014762Y-110464819D02*
X156919524Y-110417200D01*
X156919524Y-110417200D02*
X156871905Y-110369580D01*
X156871905Y-110369580D02*
X156824286Y-110274342D01*
X156824286Y-110274342D02*
X156824286Y-109988628D01*
X156824286Y-109988628D02*
X156871905Y-109893390D01*
X156871905Y-109893390D02*
X156919524Y-109845771D01*
X156919524Y-109845771D02*
X157014762Y-109798152D01*
X157014762Y-109798152D02*
X157205238Y-109798152D01*
X157205238Y-109798152D02*
X157300476Y-109845771D01*
X157586191Y-109798152D02*
X157967143Y-109798152D01*
X157729048Y-109464819D02*
X157729048Y-110321961D01*
X157729048Y-110321961D02*
X157776667Y-110417200D01*
X157776667Y-110417200D02*
X157871905Y-110464819D01*
X157871905Y-110464819D02*
X157967143Y-110464819D01*
X158443334Y-110464819D02*
X158348096Y-110417200D01*
X158348096Y-110417200D02*
X158300477Y-110369580D01*
X158300477Y-110369580D02*
X158252858Y-110274342D01*
X158252858Y-110274342D02*
X158252858Y-109988628D01*
X158252858Y-109988628D02*
X158300477Y-109893390D01*
X158300477Y-109893390D02*
X158348096Y-109845771D01*
X158348096Y-109845771D02*
X158443334Y-109798152D01*
X158443334Y-109798152D02*
X158586191Y-109798152D01*
X158586191Y-109798152D02*
X158681429Y-109845771D01*
X158681429Y-109845771D02*
X158729048Y-109893390D01*
X158729048Y-109893390D02*
X158776667Y-109988628D01*
X158776667Y-109988628D02*
X158776667Y-110274342D01*
X158776667Y-110274342D02*
X158729048Y-110369580D01*
X158729048Y-110369580D02*
X158681429Y-110417200D01*
X158681429Y-110417200D02*
X158586191Y-110464819D01*
X158586191Y-110464819D02*
X158443334Y-110464819D01*
X159205239Y-110464819D02*
X159205239Y-109798152D01*
X159205239Y-109988628D02*
X159252858Y-109893390D01*
X159252858Y-109893390D02*
X159300477Y-109845771D01*
X159300477Y-109845771D02*
X159395715Y-109798152D01*
X159395715Y-109798152D02*
X159490953Y-109798152D01*
X174520696Y-129295200D02*
X174663553Y-129342819D01*
X174663553Y-129342819D02*
X174901648Y-129342819D01*
X174901648Y-129342819D02*
X174996886Y-129295200D01*
X174996886Y-129295200D02*
X175044505Y-129247580D01*
X175044505Y-129247580D02*
X175092124Y-129152342D01*
X175092124Y-129152342D02*
X175092124Y-129057104D01*
X175092124Y-129057104D02*
X175044505Y-128961866D01*
X175044505Y-128961866D02*
X174996886Y-128914247D01*
X174996886Y-128914247D02*
X174901648Y-128866628D01*
X174901648Y-128866628D02*
X174711172Y-128819009D01*
X174711172Y-128819009D02*
X174615934Y-128771390D01*
X174615934Y-128771390D02*
X174568315Y-128723771D01*
X174568315Y-128723771D02*
X174520696Y-128628533D01*
X174520696Y-128628533D02*
X174520696Y-128533295D01*
X174520696Y-128533295D02*
X174568315Y-128438057D01*
X174568315Y-128438057D02*
X174615934Y-128390438D01*
X174615934Y-128390438D02*
X174711172Y-128342819D01*
X174711172Y-128342819D02*
X174949267Y-128342819D01*
X174949267Y-128342819D02*
X175092124Y-128390438D01*
X175520696Y-129342819D02*
X175520696Y-128342819D01*
X175520696Y-128342819D02*
X175854029Y-129057104D01*
X175854029Y-129057104D02*
X176187362Y-128342819D01*
X176187362Y-128342819D02*
X176187362Y-129342819D01*
X176615934Y-129295200D02*
X176758791Y-129342819D01*
X176758791Y-129342819D02*
X176996886Y-129342819D01*
X176996886Y-129342819D02*
X177092124Y-129295200D01*
X177092124Y-129295200D02*
X177139743Y-129247580D01*
X177139743Y-129247580D02*
X177187362Y-129152342D01*
X177187362Y-129152342D02*
X177187362Y-129057104D01*
X177187362Y-129057104D02*
X177139743Y-128961866D01*
X177139743Y-128961866D02*
X177092124Y-128914247D01*
X177092124Y-128914247D02*
X176996886Y-128866628D01*
X176996886Y-128866628D02*
X176806410Y-128819009D01*
X176806410Y-128819009D02*
X176711172Y-128771390D01*
X176711172Y-128771390D02*
X176663553Y-128723771D01*
X176663553Y-128723771D02*
X176615934Y-128628533D01*
X176615934Y-128628533D02*
X176615934Y-128533295D01*
X176615934Y-128533295D02*
X176663553Y-128438057D01*
X176663553Y-128438057D02*
X176711172Y-128390438D01*
X176711172Y-128390438D02*
X176806410Y-128342819D01*
X176806410Y-128342819D02*
X177044505Y-128342819D01*
X177044505Y-128342819D02*
X177187362Y-128390438D01*
X178711172Y-128819009D02*
X178377839Y-128819009D01*
X178377839Y-129342819D02*
X178377839Y-128342819D01*
X178377839Y-128342819D02*
X178854029Y-128342819D01*
X179234982Y-129342819D02*
X179234982Y-128676152D01*
X179234982Y-128342819D02*
X179187363Y-128390438D01*
X179187363Y-128390438D02*
X179234982Y-128438057D01*
X179234982Y-128438057D02*
X179282601Y-128390438D01*
X179282601Y-128390438D02*
X179234982Y-128342819D01*
X179234982Y-128342819D02*
X179234982Y-128438057D01*
X179711172Y-128676152D02*
X179711172Y-129342819D01*
X179711172Y-128771390D02*
X179758791Y-128723771D01*
X179758791Y-128723771D02*
X179854029Y-128676152D01*
X179854029Y-128676152D02*
X179996886Y-128676152D01*
X179996886Y-128676152D02*
X180092124Y-128723771D01*
X180092124Y-128723771D02*
X180139743Y-128819009D01*
X180139743Y-128819009D02*
X180139743Y-129342819D01*
X181044505Y-128676152D02*
X181044505Y-129485676D01*
X181044505Y-129485676D02*
X180996886Y-129580914D01*
X180996886Y-129580914D02*
X180949267Y-129628533D01*
X180949267Y-129628533D02*
X180854029Y-129676152D01*
X180854029Y-129676152D02*
X180711172Y-129676152D01*
X180711172Y-129676152D02*
X180615934Y-129628533D01*
X181044505Y-129295200D02*
X180949267Y-129342819D01*
X180949267Y-129342819D02*
X180758791Y-129342819D01*
X180758791Y-129342819D02*
X180663553Y-129295200D01*
X180663553Y-129295200D02*
X180615934Y-129247580D01*
X180615934Y-129247580D02*
X180568315Y-129152342D01*
X180568315Y-129152342D02*
X180568315Y-128866628D01*
X180568315Y-128866628D02*
X180615934Y-128771390D01*
X180615934Y-128771390D02*
X180663553Y-128723771D01*
X180663553Y-128723771D02*
X180758791Y-128676152D01*
X180758791Y-128676152D02*
X180949267Y-128676152D01*
X180949267Y-128676152D02*
X181044505Y-128723771D01*
X181901648Y-129295200D02*
X181806410Y-129342819D01*
X181806410Y-129342819D02*
X181615934Y-129342819D01*
X181615934Y-129342819D02*
X181520696Y-129295200D01*
X181520696Y-129295200D02*
X181473077Y-129199961D01*
X181473077Y-129199961D02*
X181473077Y-128819009D01*
X181473077Y-128819009D02*
X181520696Y-128723771D01*
X181520696Y-128723771D02*
X181615934Y-128676152D01*
X181615934Y-128676152D02*
X181806410Y-128676152D01*
X181806410Y-128676152D02*
X181901648Y-128723771D01*
X181901648Y-128723771D02*
X181949267Y-128819009D01*
X181949267Y-128819009D02*
X181949267Y-128914247D01*
X181949267Y-128914247D02*
X181473077Y-129009485D01*
X182377839Y-129342819D02*
X182377839Y-128676152D01*
X182377839Y-128866628D02*
X182425458Y-128771390D01*
X182425458Y-128771390D02*
X182473077Y-128723771D01*
X182473077Y-128723771D02*
X182568315Y-128676152D01*
X182568315Y-128676152D02*
X182663553Y-128676152D01*
X182949268Y-129295200D02*
X183044506Y-129342819D01*
X183044506Y-129342819D02*
X183234982Y-129342819D01*
X183234982Y-129342819D02*
X183330220Y-129295200D01*
X183330220Y-129295200D02*
X183377839Y-129199961D01*
X183377839Y-129199961D02*
X183377839Y-129152342D01*
X183377839Y-129152342D02*
X183330220Y-129057104D01*
X183330220Y-129057104D02*
X183234982Y-129009485D01*
X183234982Y-129009485D02*
X183092125Y-129009485D01*
X183092125Y-129009485D02*
X182996887Y-128961866D01*
X182996887Y-128961866D02*
X182949268Y-128866628D01*
X182949268Y-128866628D02*
X182949268Y-128819009D01*
X182949268Y-128819009D02*
X182996887Y-128723771D01*
X182996887Y-128723771D02*
X183092125Y-128676152D01*
X183092125Y-128676152D02*
X183234982Y-128676152D01*
X183234982Y-128676152D02*
X183330220Y-128723771D01*
D11*
X126998429Y-139187642D02*
X126941287Y-139159071D01*
X126941287Y-139159071D02*
X126855572Y-139159071D01*
X126855572Y-139159071D02*
X126769858Y-139187642D01*
X126769858Y-139187642D02*
X126712715Y-139244785D01*
X126712715Y-139244785D02*
X126684144Y-139301928D01*
X126684144Y-139301928D02*
X126655572Y-139416214D01*
X126655572Y-139416214D02*
X126655572Y-139501928D01*
X126655572Y-139501928D02*
X126684144Y-139616214D01*
X126684144Y-139616214D02*
X126712715Y-139673357D01*
X126712715Y-139673357D02*
X126769858Y-139730500D01*
X126769858Y-139730500D02*
X126855572Y-139759071D01*
X126855572Y-139759071D02*
X126912715Y-139759071D01*
X126912715Y-139759071D02*
X126998429Y-139730500D01*
X126998429Y-139730500D02*
X127027001Y-139701928D01*
X127027001Y-139701928D02*
X127027001Y-139501928D01*
X127027001Y-139501928D02*
X126912715Y-139501928D01*
X127284144Y-139759071D02*
X127284144Y-139159071D01*
X127284144Y-139159071D02*
X127627001Y-139759071D01*
X127627001Y-139759071D02*
X127627001Y-139159071D01*
X127912715Y-139759071D02*
X127912715Y-139159071D01*
X127912715Y-139159071D02*
X128055572Y-139159071D01*
X128055572Y-139159071D02*
X128141286Y-139187642D01*
X128141286Y-139187642D02*
X128198429Y-139244785D01*
X128198429Y-139244785D02*
X128227000Y-139301928D01*
X128227000Y-139301928D02*
X128255572Y-139416214D01*
X128255572Y-139416214D02*
X128255572Y-139501928D01*
X128255572Y-139501928D02*
X128227000Y-139616214D01*
X128227000Y-139616214D02*
X128198429Y-139673357D01*
X128198429Y-139673357D02*
X128141286Y-139730500D01*
X128141286Y-139730500D02*
X128055572Y-139759071D01*
X128055572Y-139759071D02*
X127912715Y-139759071D01*
X129227001Y-139730500D02*
X129169858Y-139759071D01*
X129169858Y-139759071D02*
X129055572Y-139759071D01*
X129055572Y-139759071D02*
X128998429Y-139730500D01*
X128998429Y-139730500D02*
X128969858Y-139701928D01*
X128969858Y-139701928D02*
X128941286Y-139644785D01*
X128941286Y-139644785D02*
X128941286Y-139473357D01*
X128941286Y-139473357D02*
X128969858Y-139416214D01*
X128969858Y-139416214D02*
X128998429Y-139387642D01*
X128998429Y-139387642D02*
X129055572Y-139359071D01*
X129055572Y-139359071D02*
X129169858Y-139359071D01*
X129169858Y-139359071D02*
X129227001Y-139387642D01*
X129569858Y-139759071D02*
X129512715Y-139730500D01*
X129512715Y-139730500D02*
X129484144Y-139701928D01*
X129484144Y-139701928D02*
X129455572Y-139644785D01*
X129455572Y-139644785D02*
X129455572Y-139473357D01*
X129455572Y-139473357D02*
X129484144Y-139416214D01*
X129484144Y-139416214D02*
X129512715Y-139387642D01*
X129512715Y-139387642D02*
X129569858Y-139359071D01*
X129569858Y-139359071D02*
X129655572Y-139359071D01*
X129655572Y-139359071D02*
X129712715Y-139387642D01*
X129712715Y-139387642D02*
X129741287Y-139416214D01*
X129741287Y-139416214D02*
X129769858Y-139473357D01*
X129769858Y-139473357D02*
X129769858Y-139644785D01*
X129769858Y-139644785D02*
X129741287Y-139701928D01*
X129741287Y-139701928D02*
X129712715Y-139730500D01*
X129712715Y-139730500D02*
X129655572Y-139759071D01*
X129655572Y-139759071D02*
X129569858Y-139759071D01*
X130027001Y-139359071D02*
X130027001Y-139759071D01*
X130027001Y-139416214D02*
X130055572Y-139387642D01*
X130055572Y-139387642D02*
X130112715Y-139359071D01*
X130112715Y-139359071D02*
X130198429Y-139359071D01*
X130198429Y-139359071D02*
X130255572Y-139387642D01*
X130255572Y-139387642D02*
X130284144Y-139444785D01*
X130284144Y-139444785D02*
X130284144Y-139759071D01*
X130484143Y-139359071D02*
X130712715Y-139359071D01*
X130569858Y-139159071D02*
X130569858Y-139673357D01*
X130569858Y-139673357D02*
X130598429Y-139730500D01*
X130598429Y-139730500D02*
X130655572Y-139759071D01*
X130655572Y-139759071D02*
X130712715Y-139759071D01*
X131169858Y-139759071D02*
X131169858Y-139444785D01*
X131169858Y-139444785D02*
X131141286Y-139387642D01*
X131141286Y-139387642D02*
X131084143Y-139359071D01*
X131084143Y-139359071D02*
X130969858Y-139359071D01*
X130969858Y-139359071D02*
X130912715Y-139387642D01*
X131169858Y-139730500D02*
X131112715Y-139759071D01*
X131112715Y-139759071D02*
X130969858Y-139759071D01*
X130969858Y-139759071D02*
X130912715Y-139730500D01*
X130912715Y-139730500D02*
X130884143Y-139673357D01*
X130884143Y-139673357D02*
X130884143Y-139616214D01*
X130884143Y-139616214D02*
X130912715Y-139559071D01*
X130912715Y-139559071D02*
X130969858Y-139530500D01*
X130969858Y-139530500D02*
X131112715Y-139530500D01*
X131112715Y-139530500D02*
X131169858Y-139501928D01*
X131712715Y-139730500D02*
X131655572Y-139759071D01*
X131655572Y-139759071D02*
X131541286Y-139759071D01*
X131541286Y-139759071D02*
X131484143Y-139730500D01*
X131484143Y-139730500D02*
X131455572Y-139701928D01*
X131455572Y-139701928D02*
X131427000Y-139644785D01*
X131427000Y-139644785D02*
X131427000Y-139473357D01*
X131427000Y-139473357D02*
X131455572Y-139416214D01*
X131455572Y-139416214D02*
X131484143Y-139387642D01*
X131484143Y-139387642D02*
X131541286Y-139359071D01*
X131541286Y-139359071D02*
X131655572Y-139359071D01*
X131655572Y-139359071D02*
X131712715Y-139387642D01*
X131884143Y-139359071D02*
X132112715Y-139359071D01*
X131969858Y-139159071D02*
X131969858Y-139673357D01*
X131969858Y-139673357D02*
X131998429Y-139730500D01*
X131998429Y-139730500D02*
X132055572Y-139759071D01*
X132055572Y-139759071D02*
X132112715Y-139759071D01*
X132284143Y-139730500D02*
X132341286Y-139759071D01*
X132341286Y-139759071D02*
X132455572Y-139759071D01*
X132455572Y-139759071D02*
X132512715Y-139730500D01*
X132512715Y-139730500D02*
X132541286Y-139673357D01*
X132541286Y-139673357D02*
X132541286Y-139644785D01*
X132541286Y-139644785D02*
X132512715Y-139587642D01*
X132512715Y-139587642D02*
X132455572Y-139559071D01*
X132455572Y-139559071D02*
X132369858Y-139559071D01*
X132369858Y-139559071D02*
X132312715Y-139530500D01*
X132312715Y-139530500D02*
X132284143Y-139473357D01*
X132284143Y-139473357D02*
X132284143Y-139444785D01*
X132284143Y-139444785D02*
X132312715Y-139387642D01*
X132312715Y-139387642D02*
X132369858Y-139359071D01*
X132369858Y-139359071D02*
X132455572Y-139359071D01*
X132455572Y-139359071D02*
X132512715Y-139387642D01*
X133484143Y-139730500D02*
X133427000Y-139759071D01*
X133427000Y-139759071D02*
X133312715Y-139759071D01*
X133312715Y-139759071D02*
X133255572Y-139730500D01*
X133255572Y-139730500D02*
X133227000Y-139673357D01*
X133227000Y-139673357D02*
X133227000Y-139444785D01*
X133227000Y-139444785D02*
X133255572Y-139387642D01*
X133255572Y-139387642D02*
X133312715Y-139359071D01*
X133312715Y-139359071D02*
X133427000Y-139359071D01*
X133427000Y-139359071D02*
X133484143Y-139387642D01*
X133484143Y-139387642D02*
X133512715Y-139444785D01*
X133512715Y-139444785D02*
X133512715Y-139501928D01*
X133512715Y-139501928D02*
X133227000Y-139559071D01*
X133712715Y-139759071D02*
X134027001Y-139359071D01*
X133712715Y-139359071D02*
X134027001Y-139759071D01*
X134169857Y-139359071D02*
X134398429Y-139359071D01*
X134255572Y-139159071D02*
X134255572Y-139673357D01*
X134255572Y-139673357D02*
X134284143Y-139730500D01*
X134284143Y-139730500D02*
X134341286Y-139759071D01*
X134341286Y-139759071D02*
X134398429Y-139759071D01*
X134827000Y-139730500D02*
X134769857Y-139759071D01*
X134769857Y-139759071D02*
X134655572Y-139759071D01*
X134655572Y-139759071D02*
X134598429Y-139730500D01*
X134598429Y-139730500D02*
X134569857Y-139673357D01*
X134569857Y-139673357D02*
X134569857Y-139444785D01*
X134569857Y-139444785D02*
X134598429Y-139387642D01*
X134598429Y-139387642D02*
X134655572Y-139359071D01*
X134655572Y-139359071D02*
X134769857Y-139359071D01*
X134769857Y-139359071D02*
X134827000Y-139387642D01*
X134827000Y-139387642D02*
X134855572Y-139444785D01*
X134855572Y-139444785D02*
X134855572Y-139501928D01*
X134855572Y-139501928D02*
X134569857Y-139559071D01*
X135112715Y-139359071D02*
X135112715Y-139759071D01*
X135112715Y-139416214D02*
X135141286Y-139387642D01*
X135141286Y-139387642D02*
X135198429Y-139359071D01*
X135198429Y-139359071D02*
X135284143Y-139359071D01*
X135284143Y-139359071D02*
X135341286Y-139387642D01*
X135341286Y-139387642D02*
X135369858Y-139444785D01*
X135369858Y-139444785D02*
X135369858Y-139759071D01*
X135912715Y-139759071D02*
X135912715Y-139159071D01*
X135912715Y-139730500D02*
X135855572Y-139759071D01*
X135855572Y-139759071D02*
X135741286Y-139759071D01*
X135741286Y-139759071D02*
X135684143Y-139730500D01*
X135684143Y-139730500D02*
X135655572Y-139701928D01*
X135655572Y-139701928D02*
X135627000Y-139644785D01*
X135627000Y-139644785D02*
X135627000Y-139473357D01*
X135627000Y-139473357D02*
X135655572Y-139416214D01*
X135655572Y-139416214D02*
X135684143Y-139387642D01*
X135684143Y-139387642D02*
X135741286Y-139359071D01*
X135741286Y-139359071D02*
X135855572Y-139359071D01*
X135855572Y-139359071D02*
X135912715Y-139387642D01*
X136569857Y-139359071D02*
X136798429Y-139359071D01*
X136655572Y-139159071D02*
X136655572Y-139673357D01*
X136655572Y-139673357D02*
X136684143Y-139730500D01*
X136684143Y-139730500D02*
X136741286Y-139759071D01*
X136741286Y-139759071D02*
X136798429Y-139759071D01*
X137084143Y-139759071D02*
X137027000Y-139730500D01*
X137027000Y-139730500D02*
X136998429Y-139701928D01*
X136998429Y-139701928D02*
X136969857Y-139644785D01*
X136969857Y-139644785D02*
X136969857Y-139473357D01*
X136969857Y-139473357D02*
X136998429Y-139416214D01*
X136998429Y-139416214D02*
X137027000Y-139387642D01*
X137027000Y-139387642D02*
X137084143Y-139359071D01*
X137084143Y-139359071D02*
X137169857Y-139359071D01*
X137169857Y-139359071D02*
X137227000Y-139387642D01*
X137227000Y-139387642D02*
X137255572Y-139416214D01*
X137255572Y-139416214D02*
X137284143Y-139473357D01*
X137284143Y-139473357D02*
X137284143Y-139644785D01*
X137284143Y-139644785D02*
X137255572Y-139701928D01*
X137255572Y-139701928D02*
X137227000Y-139730500D01*
X137227000Y-139730500D02*
X137169857Y-139759071D01*
X137169857Y-139759071D02*
X137084143Y-139759071D01*
X137998429Y-139759071D02*
X137998429Y-139159071D01*
X137998429Y-139387642D02*
X138055572Y-139359071D01*
X138055572Y-139359071D02*
X138169857Y-139359071D01*
X138169857Y-139359071D02*
X138227000Y-139387642D01*
X138227000Y-139387642D02*
X138255572Y-139416214D01*
X138255572Y-139416214D02*
X138284143Y-139473357D01*
X138284143Y-139473357D02*
X138284143Y-139644785D01*
X138284143Y-139644785D02*
X138255572Y-139701928D01*
X138255572Y-139701928D02*
X138227000Y-139730500D01*
X138227000Y-139730500D02*
X138169857Y-139759071D01*
X138169857Y-139759071D02*
X138055572Y-139759071D01*
X138055572Y-139759071D02*
X137998429Y-139730500D01*
X138627000Y-139759071D02*
X138569857Y-139730500D01*
X138569857Y-139730500D02*
X138541286Y-139701928D01*
X138541286Y-139701928D02*
X138512714Y-139644785D01*
X138512714Y-139644785D02*
X138512714Y-139473357D01*
X138512714Y-139473357D02*
X138541286Y-139416214D01*
X138541286Y-139416214D02*
X138569857Y-139387642D01*
X138569857Y-139387642D02*
X138627000Y-139359071D01*
X138627000Y-139359071D02*
X138712714Y-139359071D01*
X138712714Y-139359071D02*
X138769857Y-139387642D01*
X138769857Y-139387642D02*
X138798429Y-139416214D01*
X138798429Y-139416214D02*
X138827000Y-139473357D01*
X138827000Y-139473357D02*
X138827000Y-139644785D01*
X138827000Y-139644785D02*
X138798429Y-139701928D01*
X138798429Y-139701928D02*
X138769857Y-139730500D01*
X138769857Y-139730500D02*
X138712714Y-139759071D01*
X138712714Y-139759071D02*
X138627000Y-139759071D01*
X139341286Y-139759071D02*
X139341286Y-139444785D01*
X139341286Y-139444785D02*
X139312714Y-139387642D01*
X139312714Y-139387642D02*
X139255571Y-139359071D01*
X139255571Y-139359071D02*
X139141286Y-139359071D01*
X139141286Y-139359071D02*
X139084143Y-139387642D01*
X139341286Y-139730500D02*
X139284143Y-139759071D01*
X139284143Y-139759071D02*
X139141286Y-139759071D01*
X139141286Y-139759071D02*
X139084143Y-139730500D01*
X139084143Y-139730500D02*
X139055571Y-139673357D01*
X139055571Y-139673357D02*
X139055571Y-139616214D01*
X139055571Y-139616214D02*
X139084143Y-139559071D01*
X139084143Y-139559071D02*
X139141286Y-139530500D01*
X139141286Y-139530500D02*
X139284143Y-139530500D01*
X139284143Y-139530500D02*
X139341286Y-139501928D01*
X139627000Y-139759071D02*
X139627000Y-139359071D01*
X139627000Y-139473357D02*
X139655571Y-139416214D01*
X139655571Y-139416214D02*
X139684143Y-139387642D01*
X139684143Y-139387642D02*
X139741285Y-139359071D01*
X139741285Y-139359071D02*
X139798428Y-139359071D01*
X140255572Y-139759071D02*
X140255572Y-139159071D01*
X140255572Y-139730500D02*
X140198429Y-139759071D01*
X140198429Y-139759071D02*
X140084143Y-139759071D01*
X140084143Y-139759071D02*
X140027000Y-139730500D01*
X140027000Y-139730500D02*
X139998429Y-139701928D01*
X139998429Y-139701928D02*
X139969857Y-139644785D01*
X139969857Y-139644785D02*
X139969857Y-139473357D01*
X139969857Y-139473357D02*
X139998429Y-139416214D01*
X139998429Y-139416214D02*
X140027000Y-139387642D01*
X140027000Y-139387642D02*
X140084143Y-139359071D01*
X140084143Y-139359071D02*
X140198429Y-139359071D01*
X140198429Y-139359071D02*
X140255572Y-139387642D01*
X141227000Y-139730500D02*
X141169857Y-139759071D01*
X141169857Y-139759071D02*
X141055572Y-139759071D01*
X141055572Y-139759071D02*
X140998429Y-139730500D01*
X140998429Y-139730500D02*
X140969857Y-139673357D01*
X140969857Y-139673357D02*
X140969857Y-139444785D01*
X140969857Y-139444785D02*
X140998429Y-139387642D01*
X140998429Y-139387642D02*
X141055572Y-139359071D01*
X141055572Y-139359071D02*
X141169857Y-139359071D01*
X141169857Y-139359071D02*
X141227000Y-139387642D01*
X141227000Y-139387642D02*
X141255572Y-139444785D01*
X141255572Y-139444785D02*
X141255572Y-139501928D01*
X141255572Y-139501928D02*
X140969857Y-139559071D01*
X141769858Y-139759071D02*
X141769858Y-139159071D01*
X141769858Y-139730500D02*
X141712715Y-139759071D01*
X141712715Y-139759071D02*
X141598429Y-139759071D01*
X141598429Y-139759071D02*
X141541286Y-139730500D01*
X141541286Y-139730500D02*
X141512715Y-139701928D01*
X141512715Y-139701928D02*
X141484143Y-139644785D01*
X141484143Y-139644785D02*
X141484143Y-139473357D01*
X141484143Y-139473357D02*
X141512715Y-139416214D01*
X141512715Y-139416214D02*
X141541286Y-139387642D01*
X141541286Y-139387642D02*
X141598429Y-139359071D01*
X141598429Y-139359071D02*
X141712715Y-139359071D01*
X141712715Y-139359071D02*
X141769858Y-139387642D01*
X142312715Y-139359071D02*
X142312715Y-139844785D01*
X142312715Y-139844785D02*
X142284143Y-139901928D01*
X142284143Y-139901928D02*
X142255572Y-139930500D01*
X142255572Y-139930500D02*
X142198429Y-139959071D01*
X142198429Y-139959071D02*
X142112715Y-139959071D01*
X142112715Y-139959071D02*
X142055572Y-139930500D01*
X142312715Y-139730500D02*
X142255572Y-139759071D01*
X142255572Y-139759071D02*
X142141286Y-139759071D01*
X142141286Y-139759071D02*
X142084143Y-139730500D01*
X142084143Y-139730500D02*
X142055572Y-139701928D01*
X142055572Y-139701928D02*
X142027000Y-139644785D01*
X142027000Y-139644785D02*
X142027000Y-139473357D01*
X142027000Y-139473357D02*
X142055572Y-139416214D01*
X142055572Y-139416214D02*
X142084143Y-139387642D01*
X142084143Y-139387642D02*
X142141286Y-139359071D01*
X142141286Y-139359071D02*
X142255572Y-139359071D01*
X142255572Y-139359071D02*
X142312715Y-139387642D01*
X142827000Y-139730500D02*
X142769857Y-139759071D01*
X142769857Y-139759071D02*
X142655572Y-139759071D01*
X142655572Y-139759071D02*
X142598429Y-139730500D01*
X142598429Y-139730500D02*
X142569857Y-139673357D01*
X142569857Y-139673357D02*
X142569857Y-139444785D01*
X142569857Y-139444785D02*
X142598429Y-139387642D01*
X142598429Y-139387642D02*
X142655572Y-139359071D01*
X142655572Y-139359071D02*
X142769857Y-139359071D01*
X142769857Y-139359071D02*
X142827000Y-139387642D01*
X142827000Y-139387642D02*
X142855572Y-139444785D01*
X142855572Y-139444785D02*
X142855572Y-139501928D01*
X142855572Y-139501928D02*
X142569857Y-139559071D01*
X143541286Y-139730500D02*
X143598429Y-139759071D01*
X143598429Y-139759071D02*
X143712715Y-139759071D01*
X143712715Y-139759071D02*
X143769858Y-139730500D01*
X143769858Y-139730500D02*
X143798429Y-139673357D01*
X143798429Y-139673357D02*
X143798429Y-139644785D01*
X143798429Y-139644785D02*
X143769858Y-139587642D01*
X143769858Y-139587642D02*
X143712715Y-139559071D01*
X143712715Y-139559071D02*
X143627001Y-139559071D01*
X143627001Y-139559071D02*
X143569858Y-139530500D01*
X143569858Y-139530500D02*
X143541286Y-139473357D01*
X143541286Y-139473357D02*
X143541286Y-139444785D01*
X143541286Y-139444785D02*
X143569858Y-139387642D01*
X143569858Y-139387642D02*
X143627001Y-139359071D01*
X143627001Y-139359071D02*
X143712715Y-139359071D01*
X143712715Y-139359071D02*
X143769858Y-139387642D01*
X144141286Y-139759071D02*
X144084143Y-139730500D01*
X144084143Y-139730500D02*
X144055572Y-139701928D01*
X144055572Y-139701928D02*
X144027000Y-139644785D01*
X144027000Y-139644785D02*
X144027000Y-139473357D01*
X144027000Y-139473357D02*
X144055572Y-139416214D01*
X144055572Y-139416214D02*
X144084143Y-139387642D01*
X144084143Y-139387642D02*
X144141286Y-139359071D01*
X144141286Y-139359071D02*
X144227000Y-139359071D01*
X144227000Y-139359071D02*
X144284143Y-139387642D01*
X144284143Y-139387642D02*
X144312715Y-139416214D01*
X144312715Y-139416214D02*
X144341286Y-139473357D01*
X144341286Y-139473357D02*
X144341286Y-139644785D01*
X144341286Y-139644785D02*
X144312715Y-139701928D01*
X144312715Y-139701928D02*
X144284143Y-139730500D01*
X144284143Y-139730500D02*
X144227000Y-139759071D01*
X144227000Y-139759071D02*
X144141286Y-139759071D01*
X145055572Y-139759071D02*
X145055572Y-139359071D01*
X145055572Y-139159071D02*
X145027000Y-139187642D01*
X145027000Y-139187642D02*
X145055572Y-139216214D01*
X145055572Y-139216214D02*
X145084143Y-139187642D01*
X145084143Y-139187642D02*
X145055572Y-139159071D01*
X145055572Y-139159071D02*
X145055572Y-139216214D01*
X145255571Y-139359071D02*
X145484143Y-139359071D01*
X145341286Y-139159071D02*
X145341286Y-139673357D01*
X145341286Y-139673357D02*
X145369857Y-139730500D01*
X145369857Y-139730500D02*
X145427000Y-139759071D01*
X145427000Y-139759071D02*
X145484143Y-139759071D01*
X146141286Y-139759071D02*
X146141286Y-139359071D01*
X146141286Y-139416214D02*
X146169857Y-139387642D01*
X146169857Y-139387642D02*
X146227000Y-139359071D01*
X146227000Y-139359071D02*
X146312714Y-139359071D01*
X146312714Y-139359071D02*
X146369857Y-139387642D01*
X146369857Y-139387642D02*
X146398429Y-139444785D01*
X146398429Y-139444785D02*
X146398429Y-139759071D01*
X146398429Y-139444785D02*
X146427000Y-139387642D01*
X146427000Y-139387642D02*
X146484143Y-139359071D01*
X146484143Y-139359071D02*
X146569857Y-139359071D01*
X146569857Y-139359071D02*
X146627000Y-139387642D01*
X146627000Y-139387642D02*
X146655571Y-139444785D01*
X146655571Y-139444785D02*
X146655571Y-139759071D01*
X147198429Y-139759071D02*
X147198429Y-139444785D01*
X147198429Y-139444785D02*
X147169857Y-139387642D01*
X147169857Y-139387642D02*
X147112714Y-139359071D01*
X147112714Y-139359071D02*
X146998429Y-139359071D01*
X146998429Y-139359071D02*
X146941286Y-139387642D01*
X147198429Y-139730500D02*
X147141286Y-139759071D01*
X147141286Y-139759071D02*
X146998429Y-139759071D01*
X146998429Y-139759071D02*
X146941286Y-139730500D01*
X146941286Y-139730500D02*
X146912714Y-139673357D01*
X146912714Y-139673357D02*
X146912714Y-139616214D01*
X146912714Y-139616214D02*
X146941286Y-139559071D01*
X146941286Y-139559071D02*
X146998429Y-139530500D01*
X146998429Y-139530500D02*
X147141286Y-139530500D01*
X147141286Y-139530500D02*
X147198429Y-139501928D01*
X147484143Y-139759071D02*
X147484143Y-139159071D01*
X147541286Y-139530500D02*
X147712714Y-139759071D01*
X147712714Y-139359071D02*
X147484143Y-139587642D01*
X148198428Y-139730500D02*
X148141285Y-139759071D01*
X148141285Y-139759071D02*
X148027000Y-139759071D01*
X148027000Y-139759071D02*
X147969857Y-139730500D01*
X147969857Y-139730500D02*
X147941285Y-139673357D01*
X147941285Y-139673357D02*
X147941285Y-139444785D01*
X147941285Y-139444785D02*
X147969857Y-139387642D01*
X147969857Y-139387642D02*
X148027000Y-139359071D01*
X148027000Y-139359071D02*
X148141285Y-139359071D01*
X148141285Y-139359071D02*
X148198428Y-139387642D01*
X148198428Y-139387642D02*
X148227000Y-139444785D01*
X148227000Y-139444785D02*
X148227000Y-139501928D01*
X148227000Y-139501928D02*
X147941285Y-139559071D01*
X148455571Y-139730500D02*
X148512714Y-139759071D01*
X148512714Y-139759071D02*
X148627000Y-139759071D01*
X148627000Y-139759071D02*
X148684143Y-139730500D01*
X148684143Y-139730500D02*
X148712714Y-139673357D01*
X148712714Y-139673357D02*
X148712714Y-139644785D01*
X148712714Y-139644785D02*
X148684143Y-139587642D01*
X148684143Y-139587642D02*
X148627000Y-139559071D01*
X148627000Y-139559071D02*
X148541286Y-139559071D01*
X148541286Y-139559071D02*
X148484143Y-139530500D01*
X148484143Y-139530500D02*
X148455571Y-139473357D01*
X148455571Y-139473357D02*
X148455571Y-139444785D01*
X148455571Y-139444785D02*
X148484143Y-139387642D01*
X148484143Y-139387642D02*
X148541286Y-139359071D01*
X148541286Y-139359071D02*
X148627000Y-139359071D01*
X148627000Y-139359071D02*
X148684143Y-139387642D01*
X149684143Y-139730500D02*
X149627000Y-139759071D01*
X149627000Y-139759071D02*
X149512714Y-139759071D01*
X149512714Y-139759071D02*
X149455571Y-139730500D01*
X149455571Y-139730500D02*
X149427000Y-139701928D01*
X149427000Y-139701928D02*
X149398428Y-139644785D01*
X149398428Y-139644785D02*
X149398428Y-139473357D01*
X149398428Y-139473357D02*
X149427000Y-139416214D01*
X149427000Y-139416214D02*
X149455571Y-139387642D01*
X149455571Y-139387642D02*
X149512714Y-139359071D01*
X149512714Y-139359071D02*
X149627000Y-139359071D01*
X149627000Y-139359071D02*
X149684143Y-139387642D01*
X150027000Y-139759071D02*
X149969857Y-139730500D01*
X149969857Y-139730500D02*
X149941286Y-139701928D01*
X149941286Y-139701928D02*
X149912714Y-139644785D01*
X149912714Y-139644785D02*
X149912714Y-139473357D01*
X149912714Y-139473357D02*
X149941286Y-139416214D01*
X149941286Y-139416214D02*
X149969857Y-139387642D01*
X149969857Y-139387642D02*
X150027000Y-139359071D01*
X150027000Y-139359071D02*
X150112714Y-139359071D01*
X150112714Y-139359071D02*
X150169857Y-139387642D01*
X150169857Y-139387642D02*
X150198429Y-139416214D01*
X150198429Y-139416214D02*
X150227000Y-139473357D01*
X150227000Y-139473357D02*
X150227000Y-139644785D01*
X150227000Y-139644785D02*
X150198429Y-139701928D01*
X150198429Y-139701928D02*
X150169857Y-139730500D01*
X150169857Y-139730500D02*
X150112714Y-139759071D01*
X150112714Y-139759071D02*
X150027000Y-139759071D01*
X150484143Y-139359071D02*
X150484143Y-139759071D01*
X150484143Y-139416214D02*
X150512714Y-139387642D01*
X150512714Y-139387642D02*
X150569857Y-139359071D01*
X150569857Y-139359071D02*
X150655571Y-139359071D01*
X150655571Y-139359071D02*
X150712714Y-139387642D01*
X150712714Y-139387642D02*
X150741286Y-139444785D01*
X150741286Y-139444785D02*
X150741286Y-139759071D01*
X150941285Y-139359071D02*
X151169857Y-139359071D01*
X151027000Y-139159071D02*
X151027000Y-139673357D01*
X151027000Y-139673357D02*
X151055571Y-139730500D01*
X151055571Y-139730500D02*
X151112714Y-139759071D01*
X151112714Y-139759071D02*
X151169857Y-139759071D01*
X151627000Y-139759071D02*
X151627000Y-139444785D01*
X151627000Y-139444785D02*
X151598428Y-139387642D01*
X151598428Y-139387642D02*
X151541285Y-139359071D01*
X151541285Y-139359071D02*
X151427000Y-139359071D01*
X151427000Y-139359071D02*
X151369857Y-139387642D01*
X151627000Y-139730500D02*
X151569857Y-139759071D01*
X151569857Y-139759071D02*
X151427000Y-139759071D01*
X151427000Y-139759071D02*
X151369857Y-139730500D01*
X151369857Y-139730500D02*
X151341285Y-139673357D01*
X151341285Y-139673357D02*
X151341285Y-139616214D01*
X151341285Y-139616214D02*
X151369857Y-139559071D01*
X151369857Y-139559071D02*
X151427000Y-139530500D01*
X151427000Y-139530500D02*
X151569857Y-139530500D01*
X151569857Y-139530500D02*
X151627000Y-139501928D01*
X152169857Y-139730500D02*
X152112714Y-139759071D01*
X152112714Y-139759071D02*
X151998428Y-139759071D01*
X151998428Y-139759071D02*
X151941285Y-139730500D01*
X151941285Y-139730500D02*
X151912714Y-139701928D01*
X151912714Y-139701928D02*
X151884142Y-139644785D01*
X151884142Y-139644785D02*
X151884142Y-139473357D01*
X151884142Y-139473357D02*
X151912714Y-139416214D01*
X151912714Y-139416214D02*
X151941285Y-139387642D01*
X151941285Y-139387642D02*
X151998428Y-139359071D01*
X151998428Y-139359071D02*
X152112714Y-139359071D01*
X152112714Y-139359071D02*
X152169857Y-139387642D01*
X152341285Y-139359071D02*
X152569857Y-139359071D01*
X152427000Y-139159071D02*
X152427000Y-139673357D01*
X152427000Y-139673357D02*
X152455571Y-139730500D01*
X152455571Y-139730500D02*
X152512714Y-139759071D01*
X152512714Y-139759071D02*
X152569857Y-139759071D01*
X153141285Y-139359071D02*
X153369857Y-139359071D01*
X153227000Y-139759071D02*
X153227000Y-139244785D01*
X153227000Y-139244785D02*
X153255571Y-139187642D01*
X153255571Y-139187642D02*
X153312714Y-139159071D01*
X153312714Y-139159071D02*
X153369857Y-139159071D01*
X153569857Y-139759071D02*
X153569857Y-139359071D01*
X153569857Y-139159071D02*
X153541285Y-139187642D01*
X153541285Y-139187642D02*
X153569857Y-139216214D01*
X153569857Y-139216214D02*
X153598428Y-139187642D01*
X153598428Y-139187642D02*
X153569857Y-139159071D01*
X153569857Y-139159071D02*
X153569857Y-139216214D01*
X153855571Y-139759071D02*
X153855571Y-139359071D01*
X153855571Y-139473357D02*
X153884142Y-139416214D01*
X153884142Y-139416214D02*
X153912714Y-139387642D01*
X153912714Y-139387642D02*
X153969856Y-139359071D01*
X153969856Y-139359071D02*
X154026999Y-139359071D01*
X154198428Y-139730500D02*
X154255571Y-139759071D01*
X154255571Y-139759071D02*
X154369857Y-139759071D01*
X154369857Y-139759071D02*
X154427000Y-139730500D01*
X154427000Y-139730500D02*
X154455571Y-139673357D01*
X154455571Y-139673357D02*
X154455571Y-139644785D01*
X154455571Y-139644785D02*
X154427000Y-139587642D01*
X154427000Y-139587642D02*
X154369857Y-139559071D01*
X154369857Y-139559071D02*
X154284143Y-139559071D01*
X154284143Y-139559071D02*
X154227000Y-139530500D01*
X154227000Y-139530500D02*
X154198428Y-139473357D01*
X154198428Y-139473357D02*
X154198428Y-139444785D01*
X154198428Y-139444785D02*
X154227000Y-139387642D01*
X154227000Y-139387642D02*
X154284143Y-139359071D01*
X154284143Y-139359071D02*
X154369857Y-139359071D01*
X154369857Y-139359071D02*
X154427000Y-139387642D01*
X154626999Y-139359071D02*
X154855571Y-139359071D01*
X154712714Y-139159071D02*
X154712714Y-139673357D01*
X154712714Y-139673357D02*
X154741285Y-139730500D01*
X154741285Y-139730500D02*
X154798428Y-139759071D01*
X154798428Y-139759071D02*
X154855571Y-139759071D01*
D10*
X150226666Y-103244819D02*
X150226666Y-103959104D01*
X150226666Y-103959104D02*
X150179047Y-104101961D01*
X150179047Y-104101961D02*
X150083809Y-104197200D01*
X150083809Y-104197200D02*
X149940952Y-104244819D01*
X149940952Y-104244819D02*
X149845714Y-104244819D01*
X150655238Y-103340057D02*
X150702857Y-103292438D01*
X150702857Y-103292438D02*
X150798095Y-103244819D01*
X150798095Y-103244819D02*
X151036190Y-103244819D01*
X151036190Y-103244819D02*
X151131428Y-103292438D01*
X151131428Y-103292438D02*
X151179047Y-103340057D01*
X151179047Y-103340057D02*
X151226666Y-103435295D01*
X151226666Y-103435295D02*
X151226666Y-103530533D01*
X151226666Y-103530533D02*
X151179047Y-103673390D01*
X151179047Y-103673390D02*
X150607619Y-104244819D01*
X150607619Y-104244819D02*
X151226666Y-104244819D01*
D12*
G04 #@! TO.C,J3*
X165120000Y-116470000D02*
X136120000Y-116470000D01*
X165120000Y-111170000D02*
X165120000Y-116470000D01*
X136120000Y-116470000D02*
X136120000Y-111170000D01*
X136120000Y-111170000D02*
X165120000Y-111170000D01*
D13*
X162470000Y-117570000D02*
G75*
G02*
X162270000Y-117570000I-100000J0D01*
G01*
X162270000Y-117570000D02*
G75*
G02*
X162470000Y-117570000I100000J0D01*
G01*
D14*
G04 #@! TO.C,J1*
X158327000Y-139813000D02*
X158327000Y-139163000D01*
X158327000Y-139163000D02*
X158407000Y-139273000D01*
X158327000Y-139163000D02*
X158247000Y-139273000D01*
X155827000Y-139813000D02*
X155827000Y-139163000D01*
X155827000Y-139163000D02*
X155907000Y-139273000D01*
X155827000Y-139163000D02*
X155747000Y-139273000D01*
G04 #@! TD*
M02*
