G04 #@! TF.GenerationSoftware,KiCad,Pcbnew,8.0.2*
G04 #@! TF.CreationDate,2024-05-08T12:07:27-04:00*
G04 #@! TF.ProjectId,SMS-to-GG,534d532d-746f-42d4-9747-2e6b69636164,4*
G04 #@! TF.SameCoordinates,Original*
G04 #@! TF.FileFunction,Other,User*
%FSLAX46Y46*%
G04 Gerber Fmt 4.6, Leading zero omitted, Abs format (unit mm)*
G04 Created by KiCad (PCBNEW 8.0.2) date 2024-05-08 12:07:27*
%MOMM*%
%LPD*%
G01*
G04 APERTURE LIST*
%ADD10C,0.200000*%
%ADD11C,0.400000*%
G04 APERTURE END LIST*
D10*
X14488720Y-184290028D02*
X14488720Y-182790028D01*
X14488720Y-182790028D02*
X14988720Y-183861457D01*
X14988720Y-183861457D02*
X15488720Y-182790028D01*
X15488720Y-182790028D02*
X15488720Y-184290028D01*
X16203006Y-184290028D02*
X16203006Y-183290028D01*
X16203006Y-182790028D02*
X16131578Y-182861457D01*
X16131578Y-182861457D02*
X16203006Y-182932885D01*
X16203006Y-182932885D02*
X16274435Y-182861457D01*
X16274435Y-182861457D02*
X16203006Y-182790028D01*
X16203006Y-182790028D02*
X16203006Y-182932885D01*
X16917292Y-183290028D02*
X16917292Y-184290028D01*
X16917292Y-183432885D02*
X16988721Y-183361457D01*
X16988721Y-183361457D02*
X17131578Y-183290028D01*
X17131578Y-183290028D02*
X17345864Y-183290028D01*
X17345864Y-183290028D02*
X17488721Y-183361457D01*
X17488721Y-183361457D02*
X17560150Y-183504314D01*
X17560150Y-183504314D02*
X17560150Y-184290028D01*
X19203007Y-183290028D02*
X19774435Y-183290028D01*
X19417292Y-182790028D02*
X19417292Y-184075742D01*
X19417292Y-184075742D02*
X19488721Y-184218600D01*
X19488721Y-184218600D02*
X19631578Y-184290028D01*
X19631578Y-184290028D02*
X19774435Y-184290028D01*
X20274435Y-184290028D02*
X20274435Y-183290028D01*
X20274435Y-183575742D02*
X20345864Y-183432885D01*
X20345864Y-183432885D02*
X20417293Y-183361457D01*
X20417293Y-183361457D02*
X20560150Y-183290028D01*
X20560150Y-183290028D02*
X20703007Y-183290028D01*
X21845864Y-184290028D02*
X21845864Y-183504314D01*
X21845864Y-183504314D02*
X21774435Y-183361457D01*
X21774435Y-183361457D02*
X21631578Y-183290028D01*
X21631578Y-183290028D02*
X21345864Y-183290028D01*
X21345864Y-183290028D02*
X21203006Y-183361457D01*
X21845864Y-184218600D02*
X21703006Y-184290028D01*
X21703006Y-184290028D02*
X21345864Y-184290028D01*
X21345864Y-184290028D02*
X21203006Y-184218600D01*
X21203006Y-184218600D02*
X21131578Y-184075742D01*
X21131578Y-184075742D02*
X21131578Y-183932885D01*
X21131578Y-183932885D02*
X21203006Y-183790028D01*
X21203006Y-183790028D02*
X21345864Y-183718600D01*
X21345864Y-183718600D02*
X21703006Y-183718600D01*
X21703006Y-183718600D02*
X21845864Y-183647171D01*
X23203007Y-184218600D02*
X23060149Y-184290028D01*
X23060149Y-184290028D02*
X22774435Y-184290028D01*
X22774435Y-184290028D02*
X22631578Y-184218600D01*
X22631578Y-184218600D02*
X22560149Y-184147171D01*
X22560149Y-184147171D02*
X22488721Y-184004314D01*
X22488721Y-184004314D02*
X22488721Y-183575742D01*
X22488721Y-183575742D02*
X22560149Y-183432885D01*
X22560149Y-183432885D02*
X22631578Y-183361457D01*
X22631578Y-183361457D02*
X22774435Y-183290028D01*
X22774435Y-183290028D02*
X23060149Y-183290028D01*
X23060149Y-183290028D02*
X23203007Y-183361457D01*
X23845863Y-184290028D02*
X23845863Y-182790028D01*
X23988721Y-183718600D02*
X24417292Y-184290028D01*
X24417292Y-183290028D02*
X23845863Y-183861457D01*
X26131578Y-182718600D02*
X24845864Y-184647171D01*
X26560150Y-184218600D02*
X26703007Y-184290028D01*
X26703007Y-184290028D02*
X26988721Y-184290028D01*
X26988721Y-184290028D02*
X27131578Y-184218600D01*
X27131578Y-184218600D02*
X27203007Y-184075742D01*
X27203007Y-184075742D02*
X27203007Y-184004314D01*
X27203007Y-184004314D02*
X27131578Y-183861457D01*
X27131578Y-183861457D02*
X26988721Y-183790028D01*
X26988721Y-183790028D02*
X26774436Y-183790028D01*
X26774436Y-183790028D02*
X26631578Y-183718600D01*
X26631578Y-183718600D02*
X26560150Y-183575742D01*
X26560150Y-183575742D02*
X26560150Y-183504314D01*
X26560150Y-183504314D02*
X26631578Y-183361457D01*
X26631578Y-183361457D02*
X26774436Y-183290028D01*
X26774436Y-183290028D02*
X26988721Y-183290028D01*
X26988721Y-183290028D02*
X27131578Y-183361457D01*
X27845864Y-183290028D02*
X27845864Y-184790028D01*
X27845864Y-183361457D02*
X27988722Y-183290028D01*
X27988722Y-183290028D02*
X28274436Y-183290028D01*
X28274436Y-183290028D02*
X28417293Y-183361457D01*
X28417293Y-183361457D02*
X28488722Y-183432885D01*
X28488722Y-183432885D02*
X28560150Y-183575742D01*
X28560150Y-183575742D02*
X28560150Y-184004314D01*
X28560150Y-184004314D02*
X28488722Y-184147171D01*
X28488722Y-184147171D02*
X28417293Y-184218600D01*
X28417293Y-184218600D02*
X28274436Y-184290028D01*
X28274436Y-184290028D02*
X27988722Y-184290028D01*
X27988722Y-184290028D02*
X27845864Y-184218600D01*
X29845865Y-184290028D02*
X29845865Y-183504314D01*
X29845865Y-183504314D02*
X29774436Y-183361457D01*
X29774436Y-183361457D02*
X29631579Y-183290028D01*
X29631579Y-183290028D02*
X29345865Y-183290028D01*
X29345865Y-183290028D02*
X29203007Y-183361457D01*
X29845865Y-184218600D02*
X29703007Y-184290028D01*
X29703007Y-184290028D02*
X29345865Y-184290028D01*
X29345865Y-184290028D02*
X29203007Y-184218600D01*
X29203007Y-184218600D02*
X29131579Y-184075742D01*
X29131579Y-184075742D02*
X29131579Y-183932885D01*
X29131579Y-183932885D02*
X29203007Y-183790028D01*
X29203007Y-183790028D02*
X29345865Y-183718600D01*
X29345865Y-183718600D02*
X29703007Y-183718600D01*
X29703007Y-183718600D02*
X29845865Y-183647171D01*
X31203008Y-184218600D02*
X31060150Y-184290028D01*
X31060150Y-184290028D02*
X30774436Y-184290028D01*
X30774436Y-184290028D02*
X30631579Y-184218600D01*
X30631579Y-184218600D02*
X30560150Y-184147171D01*
X30560150Y-184147171D02*
X30488722Y-184004314D01*
X30488722Y-184004314D02*
X30488722Y-183575742D01*
X30488722Y-183575742D02*
X30560150Y-183432885D01*
X30560150Y-183432885D02*
X30631579Y-183361457D01*
X30631579Y-183361457D02*
X30774436Y-183290028D01*
X30774436Y-183290028D02*
X31060150Y-183290028D01*
X31060150Y-183290028D02*
X31203008Y-183361457D01*
X31845864Y-184290028D02*
X31845864Y-183290028D01*
X31845864Y-182790028D02*
X31774436Y-182861457D01*
X31774436Y-182861457D02*
X31845864Y-182932885D01*
X31845864Y-182932885D02*
X31917293Y-182861457D01*
X31917293Y-182861457D02*
X31845864Y-182790028D01*
X31845864Y-182790028D02*
X31845864Y-182932885D01*
X32560150Y-183290028D02*
X32560150Y-184290028D01*
X32560150Y-183432885D02*
X32631579Y-183361457D01*
X32631579Y-183361457D02*
X32774436Y-183290028D01*
X32774436Y-183290028D02*
X32988722Y-183290028D01*
X32988722Y-183290028D02*
X33131579Y-183361457D01*
X33131579Y-183361457D02*
X33203008Y-183504314D01*
X33203008Y-183504314D02*
X33203008Y-184290028D01*
X34560151Y-183290028D02*
X34560151Y-184504314D01*
X34560151Y-184504314D02*
X34488722Y-184647171D01*
X34488722Y-184647171D02*
X34417293Y-184718600D01*
X34417293Y-184718600D02*
X34274436Y-184790028D01*
X34274436Y-184790028D02*
X34060151Y-184790028D01*
X34060151Y-184790028D02*
X33917293Y-184718600D01*
X34560151Y-184218600D02*
X34417293Y-184290028D01*
X34417293Y-184290028D02*
X34131579Y-184290028D01*
X34131579Y-184290028D02*
X33988722Y-184218600D01*
X33988722Y-184218600D02*
X33917293Y-184147171D01*
X33917293Y-184147171D02*
X33845865Y-184004314D01*
X33845865Y-184004314D02*
X33845865Y-183575742D01*
X33845865Y-183575742D02*
X33917293Y-183432885D01*
X33917293Y-183432885D02*
X33988722Y-183361457D01*
X33988722Y-183361457D02*
X34131579Y-183290028D01*
X34131579Y-183290028D02*
X34417293Y-183290028D01*
X34417293Y-183290028D02*
X34560151Y-183361457D01*
X35274436Y-184147171D02*
X35345865Y-184218600D01*
X35345865Y-184218600D02*
X35274436Y-184290028D01*
X35274436Y-184290028D02*
X35203008Y-184218600D01*
X35203008Y-184218600D02*
X35274436Y-184147171D01*
X35274436Y-184147171D02*
X35274436Y-184290028D01*
X35274436Y-183361457D02*
X35345865Y-183432885D01*
X35345865Y-183432885D02*
X35274436Y-183504314D01*
X35274436Y-183504314D02*
X35203008Y-183432885D01*
X35203008Y-183432885D02*
X35274436Y-183361457D01*
X35274436Y-183361457D02*
X35274436Y-183504314D01*
X47431578Y-195446742D02*
X47431578Y-196161028D01*
X46931578Y-194661028D02*
X47431578Y-195446742D01*
X47431578Y-195446742D02*
X47931578Y-194661028D01*
X49003006Y-196089600D02*
X48860149Y-196161028D01*
X48860149Y-196161028D02*
X48574435Y-196161028D01*
X48574435Y-196161028D02*
X48431577Y-196089600D01*
X48431577Y-196089600D02*
X48360149Y-195946742D01*
X48360149Y-195946742D02*
X48360149Y-195375314D01*
X48360149Y-195375314D02*
X48431577Y-195232457D01*
X48431577Y-195232457D02*
X48574435Y-195161028D01*
X48574435Y-195161028D02*
X48860149Y-195161028D01*
X48860149Y-195161028D02*
X49003006Y-195232457D01*
X49003006Y-195232457D02*
X49074435Y-195375314D01*
X49074435Y-195375314D02*
X49074435Y-195518171D01*
X49074435Y-195518171D02*
X48360149Y-195661028D01*
X49645863Y-196089600D02*
X49788720Y-196161028D01*
X49788720Y-196161028D02*
X50074434Y-196161028D01*
X50074434Y-196161028D02*
X50217291Y-196089600D01*
X50217291Y-196089600D02*
X50288720Y-195946742D01*
X50288720Y-195946742D02*
X50288720Y-195875314D01*
X50288720Y-195875314D02*
X50217291Y-195732457D01*
X50217291Y-195732457D02*
X50074434Y-195661028D01*
X50074434Y-195661028D02*
X49860149Y-195661028D01*
X49860149Y-195661028D02*
X49717291Y-195589600D01*
X49717291Y-195589600D02*
X49645863Y-195446742D01*
X49645863Y-195446742D02*
X49645863Y-195375314D01*
X49645863Y-195375314D02*
X49717291Y-195232457D01*
X49717291Y-195232457D02*
X49860149Y-195161028D01*
X49860149Y-195161028D02*
X50074434Y-195161028D01*
X50074434Y-195161028D02*
X50217291Y-195232457D01*
X51003006Y-196089600D02*
X51003006Y-196161028D01*
X51003006Y-196161028D02*
X50931577Y-196303885D01*
X50931577Y-196303885D02*
X50860149Y-196375314D01*
X53288720Y-195375314D02*
X53503006Y-195446742D01*
X53503006Y-195446742D02*
X53574435Y-195518171D01*
X53574435Y-195518171D02*
X53645863Y-195661028D01*
X53645863Y-195661028D02*
X53645863Y-195875314D01*
X53645863Y-195875314D02*
X53574435Y-196018171D01*
X53574435Y-196018171D02*
X53503006Y-196089600D01*
X53503006Y-196089600D02*
X53360149Y-196161028D01*
X53360149Y-196161028D02*
X52788720Y-196161028D01*
X52788720Y-196161028D02*
X52788720Y-194661028D01*
X52788720Y-194661028D02*
X53288720Y-194661028D01*
X53288720Y-194661028D02*
X53431578Y-194732457D01*
X53431578Y-194732457D02*
X53503006Y-194803885D01*
X53503006Y-194803885D02*
X53574435Y-194946742D01*
X53574435Y-194946742D02*
X53574435Y-195089600D01*
X53574435Y-195089600D02*
X53503006Y-195232457D01*
X53503006Y-195232457D02*
X53431578Y-195303885D01*
X53431578Y-195303885D02*
X53288720Y-195375314D01*
X53288720Y-195375314D02*
X52788720Y-195375314D01*
X54860149Y-196089600D02*
X54717292Y-196161028D01*
X54717292Y-196161028D02*
X54431578Y-196161028D01*
X54431578Y-196161028D02*
X54288720Y-196089600D01*
X54288720Y-196089600D02*
X54217292Y-195946742D01*
X54217292Y-195946742D02*
X54217292Y-195375314D01*
X54217292Y-195375314D02*
X54288720Y-195232457D01*
X54288720Y-195232457D02*
X54431578Y-195161028D01*
X54431578Y-195161028D02*
X54717292Y-195161028D01*
X54717292Y-195161028D02*
X54860149Y-195232457D01*
X54860149Y-195232457D02*
X54931578Y-195375314D01*
X54931578Y-195375314D02*
X54931578Y-195518171D01*
X54931578Y-195518171D02*
X54217292Y-195661028D01*
X55431577Y-195161028D02*
X55788720Y-196161028D01*
X55788720Y-196161028D02*
X56145863Y-195161028D01*
X57288720Y-196089600D02*
X57145863Y-196161028D01*
X57145863Y-196161028D02*
X56860149Y-196161028D01*
X56860149Y-196161028D02*
X56717291Y-196089600D01*
X56717291Y-196089600D02*
X56645863Y-195946742D01*
X56645863Y-195946742D02*
X56645863Y-195375314D01*
X56645863Y-195375314D02*
X56717291Y-195232457D01*
X56717291Y-195232457D02*
X56860149Y-195161028D01*
X56860149Y-195161028D02*
X57145863Y-195161028D01*
X57145863Y-195161028D02*
X57288720Y-195232457D01*
X57288720Y-195232457D02*
X57360149Y-195375314D01*
X57360149Y-195375314D02*
X57360149Y-195518171D01*
X57360149Y-195518171D02*
X56645863Y-195661028D01*
X58217291Y-196161028D02*
X58074434Y-196089600D01*
X58074434Y-196089600D02*
X58003005Y-195946742D01*
X58003005Y-195946742D02*
X58003005Y-194661028D01*
X59003005Y-196161028D02*
X58860148Y-196089600D01*
X58860148Y-196089600D02*
X58788719Y-195946742D01*
X58788719Y-195946742D02*
X58788719Y-194661028D01*
X60145862Y-196089600D02*
X60003005Y-196161028D01*
X60003005Y-196161028D02*
X59717291Y-196161028D01*
X59717291Y-196161028D02*
X59574433Y-196089600D01*
X59574433Y-196089600D02*
X59503005Y-195946742D01*
X59503005Y-195946742D02*
X59503005Y-195375314D01*
X59503005Y-195375314D02*
X59574433Y-195232457D01*
X59574433Y-195232457D02*
X59717291Y-195161028D01*
X59717291Y-195161028D02*
X60003005Y-195161028D01*
X60003005Y-195161028D02*
X60145862Y-195232457D01*
X60145862Y-195232457D02*
X60217291Y-195375314D01*
X60217291Y-195375314D02*
X60217291Y-195518171D01*
X60217291Y-195518171D02*
X59503005Y-195661028D01*
X61503005Y-196161028D02*
X61503005Y-194661028D01*
X61503005Y-196089600D02*
X61360147Y-196161028D01*
X61360147Y-196161028D02*
X61074433Y-196161028D01*
X61074433Y-196161028D02*
X60931576Y-196089600D01*
X60931576Y-196089600D02*
X60860147Y-196018171D01*
X60860147Y-196018171D02*
X60788719Y-195875314D01*
X60788719Y-195875314D02*
X60788719Y-195446742D01*
X60788719Y-195446742D02*
X60860147Y-195303885D01*
X60860147Y-195303885D02*
X60931576Y-195232457D01*
X60931576Y-195232457D02*
X61074433Y-195161028D01*
X61074433Y-195161028D02*
X61360147Y-195161028D01*
X61360147Y-195161028D02*
X61503005Y-195232457D01*
X106245858Y-188247028D02*
X106245858Y-186747028D01*
X106245858Y-186747028D02*
X107103001Y-188247028D01*
X107103001Y-188247028D02*
X107103001Y-186747028D01*
X108031573Y-188247028D02*
X107888716Y-188175600D01*
X107888716Y-188175600D02*
X107817287Y-188104171D01*
X107817287Y-188104171D02*
X107745859Y-187961314D01*
X107745859Y-187961314D02*
X107745859Y-187532742D01*
X107745859Y-187532742D02*
X107817287Y-187389885D01*
X107817287Y-187389885D02*
X107888716Y-187318457D01*
X107888716Y-187318457D02*
X108031573Y-187247028D01*
X108031573Y-187247028D02*
X108245859Y-187247028D01*
X108245859Y-187247028D02*
X108388716Y-187318457D01*
X108388716Y-187318457D02*
X108460145Y-187389885D01*
X108460145Y-187389885D02*
X108531573Y-187532742D01*
X108531573Y-187532742D02*
X108531573Y-187961314D01*
X108531573Y-187961314D02*
X108460145Y-188104171D01*
X108460145Y-188104171D02*
X108388716Y-188175600D01*
X108388716Y-188175600D02*
X108245859Y-188247028D01*
X108245859Y-188247028D02*
X108031573Y-188247028D01*
X47217292Y-180333028D02*
X47503006Y-180333028D01*
X47503006Y-180333028D02*
X47645863Y-180261600D01*
X47645863Y-180261600D02*
X47717292Y-180190171D01*
X47717292Y-180190171D02*
X47860149Y-179975885D01*
X47860149Y-179975885D02*
X47931578Y-179690171D01*
X47931578Y-179690171D02*
X47931578Y-179118742D01*
X47931578Y-179118742D02*
X47860149Y-178975885D01*
X47860149Y-178975885D02*
X47788721Y-178904457D01*
X47788721Y-178904457D02*
X47645863Y-178833028D01*
X47645863Y-178833028D02*
X47360149Y-178833028D01*
X47360149Y-178833028D02*
X47217292Y-178904457D01*
X47217292Y-178904457D02*
X47145863Y-178975885D01*
X47145863Y-178975885D02*
X47074435Y-179118742D01*
X47074435Y-179118742D02*
X47074435Y-179475885D01*
X47074435Y-179475885D02*
X47145863Y-179618742D01*
X47145863Y-179618742D02*
X47217292Y-179690171D01*
X47217292Y-179690171D02*
X47360149Y-179761600D01*
X47360149Y-179761600D02*
X47645863Y-179761600D01*
X47645863Y-179761600D02*
X47788721Y-179690171D01*
X47788721Y-179690171D02*
X47860149Y-179618742D01*
X47860149Y-179618742D02*
X47931578Y-179475885D01*
X48431577Y-178833028D02*
X49360149Y-178833028D01*
X49360149Y-178833028D02*
X48860149Y-179404457D01*
X48860149Y-179404457D02*
X49074434Y-179404457D01*
X49074434Y-179404457D02*
X49217292Y-179475885D01*
X49217292Y-179475885D02*
X49288720Y-179547314D01*
X49288720Y-179547314D02*
X49360149Y-179690171D01*
X49360149Y-179690171D02*
X49360149Y-180047314D01*
X49360149Y-180047314D02*
X49288720Y-180190171D01*
X49288720Y-180190171D02*
X49217292Y-180261600D01*
X49217292Y-180261600D02*
X49074434Y-180333028D01*
X49074434Y-180333028D02*
X48645863Y-180333028D01*
X48645863Y-180333028D02*
X48503006Y-180261600D01*
X48503006Y-180261600D02*
X48431577Y-180190171D01*
X50003005Y-180190171D02*
X50074434Y-180261600D01*
X50074434Y-180261600D02*
X50003005Y-180333028D01*
X50003005Y-180333028D02*
X49931577Y-180261600D01*
X49931577Y-180261600D02*
X50003005Y-180190171D01*
X50003005Y-180190171D02*
X50003005Y-180333028D01*
X51431577Y-178833028D02*
X50717291Y-178833028D01*
X50717291Y-178833028D02*
X50645863Y-179547314D01*
X50645863Y-179547314D02*
X50717291Y-179475885D01*
X50717291Y-179475885D02*
X50860149Y-179404457D01*
X50860149Y-179404457D02*
X51217291Y-179404457D01*
X51217291Y-179404457D02*
X51360149Y-179475885D01*
X51360149Y-179475885D02*
X51431577Y-179547314D01*
X51431577Y-179547314D02*
X51503006Y-179690171D01*
X51503006Y-179690171D02*
X51503006Y-180047314D01*
X51503006Y-180047314D02*
X51431577Y-180190171D01*
X51431577Y-180190171D02*
X51360149Y-180261600D01*
X51360149Y-180261600D02*
X51217291Y-180333028D01*
X51217291Y-180333028D02*
X50860149Y-180333028D01*
X50860149Y-180333028D02*
X50717291Y-180261600D01*
X50717291Y-180261600D02*
X50645863Y-180190171D01*
X52788720Y-179333028D02*
X52788720Y-180333028D01*
X52431577Y-178761600D02*
X52074434Y-179833028D01*
X52074434Y-179833028D02*
X53003005Y-179833028D01*
X54217291Y-178833028D02*
X53931576Y-178833028D01*
X53931576Y-178833028D02*
X53788719Y-178904457D01*
X53788719Y-178904457D02*
X53717291Y-178975885D01*
X53717291Y-178975885D02*
X53574433Y-179190171D01*
X53574433Y-179190171D02*
X53503005Y-179475885D01*
X53503005Y-179475885D02*
X53503005Y-180047314D01*
X53503005Y-180047314D02*
X53574433Y-180190171D01*
X53574433Y-180190171D02*
X53645862Y-180261600D01*
X53645862Y-180261600D02*
X53788719Y-180333028D01*
X53788719Y-180333028D02*
X54074433Y-180333028D01*
X54074433Y-180333028D02*
X54217291Y-180261600D01*
X54217291Y-180261600D02*
X54288719Y-180190171D01*
X54288719Y-180190171D02*
X54360148Y-180047314D01*
X54360148Y-180047314D02*
X54360148Y-179690171D01*
X54360148Y-179690171D02*
X54288719Y-179547314D01*
X54288719Y-179547314D02*
X54217291Y-179475885D01*
X54217291Y-179475885D02*
X54074433Y-179404457D01*
X54074433Y-179404457D02*
X53788719Y-179404457D01*
X53788719Y-179404457D02*
X53645862Y-179475885D01*
X53645862Y-179475885D02*
X53574433Y-179547314D01*
X53574433Y-179547314D02*
X53503005Y-179690171D01*
X55288719Y-178833028D02*
X55431576Y-178833028D01*
X55431576Y-178833028D02*
X55574433Y-178904457D01*
X55574433Y-178904457D02*
X55645862Y-178975885D01*
X55645862Y-178975885D02*
X55717290Y-179118742D01*
X55717290Y-179118742D02*
X55788719Y-179404457D01*
X55788719Y-179404457D02*
X55788719Y-179761600D01*
X55788719Y-179761600D02*
X55717290Y-180047314D01*
X55717290Y-180047314D02*
X55645862Y-180190171D01*
X55645862Y-180190171D02*
X55574433Y-180261600D01*
X55574433Y-180261600D02*
X55431576Y-180333028D01*
X55431576Y-180333028D02*
X55288719Y-180333028D01*
X55288719Y-180333028D02*
X55145862Y-180261600D01*
X55145862Y-180261600D02*
X55074433Y-180190171D01*
X55074433Y-180190171D02*
X55003004Y-180047314D01*
X55003004Y-180047314D02*
X54931576Y-179761600D01*
X54931576Y-179761600D02*
X54931576Y-179404457D01*
X54931576Y-179404457D02*
X55003004Y-179118742D01*
X55003004Y-179118742D02*
X55074433Y-178975885D01*
X55074433Y-178975885D02*
X55145862Y-178904457D01*
X55145862Y-178904457D02*
X55288719Y-178833028D01*
X57574432Y-180333028D02*
X57574432Y-179333028D01*
X57574432Y-179475885D02*
X57645861Y-179404457D01*
X57645861Y-179404457D02*
X57788718Y-179333028D01*
X57788718Y-179333028D02*
X58003004Y-179333028D01*
X58003004Y-179333028D02*
X58145861Y-179404457D01*
X58145861Y-179404457D02*
X58217290Y-179547314D01*
X58217290Y-179547314D02*
X58217290Y-180333028D01*
X58217290Y-179547314D02*
X58288718Y-179404457D01*
X58288718Y-179404457D02*
X58431575Y-179333028D01*
X58431575Y-179333028D02*
X58645861Y-179333028D01*
X58645861Y-179333028D02*
X58788718Y-179404457D01*
X58788718Y-179404457D02*
X58860147Y-179547314D01*
X58860147Y-179547314D02*
X58860147Y-180333028D01*
X59574432Y-180333028D02*
X59574432Y-179333028D01*
X59574432Y-179475885D02*
X59645861Y-179404457D01*
X59645861Y-179404457D02*
X59788718Y-179333028D01*
X59788718Y-179333028D02*
X60003004Y-179333028D01*
X60003004Y-179333028D02*
X60145861Y-179404457D01*
X60145861Y-179404457D02*
X60217290Y-179547314D01*
X60217290Y-179547314D02*
X60217290Y-180333028D01*
X60217290Y-179547314D02*
X60288718Y-179404457D01*
X60288718Y-179404457D02*
X60431575Y-179333028D01*
X60431575Y-179333028D02*
X60645861Y-179333028D01*
X60645861Y-179333028D02*
X60788718Y-179404457D01*
X60788718Y-179404457D02*
X60860147Y-179547314D01*
X60860147Y-179547314D02*
X60860147Y-180333028D01*
X62574432Y-180333028D02*
X63360147Y-179333028D01*
X62574432Y-179333028D02*
X63360147Y-180333028D01*
X65788718Y-178833028D02*
X65074432Y-178833028D01*
X65074432Y-178833028D02*
X65003004Y-179547314D01*
X65003004Y-179547314D02*
X65074432Y-179475885D01*
X65074432Y-179475885D02*
X65217290Y-179404457D01*
X65217290Y-179404457D02*
X65574432Y-179404457D01*
X65574432Y-179404457D02*
X65717290Y-179475885D01*
X65717290Y-179475885D02*
X65788718Y-179547314D01*
X65788718Y-179547314D02*
X65860147Y-179690171D01*
X65860147Y-179690171D02*
X65860147Y-180047314D01*
X65860147Y-180047314D02*
X65788718Y-180190171D01*
X65788718Y-180190171D02*
X65717290Y-180261600D01*
X65717290Y-180261600D02*
X65574432Y-180333028D01*
X65574432Y-180333028D02*
X65217290Y-180333028D01*
X65217290Y-180333028D02*
X65074432Y-180261600D01*
X65074432Y-180261600D02*
X65003004Y-180190171D01*
X67288718Y-180333028D02*
X66431575Y-180333028D01*
X66860146Y-180333028D02*
X66860146Y-178833028D01*
X66860146Y-178833028D02*
X66717289Y-179047314D01*
X66717289Y-179047314D02*
X66574432Y-179190171D01*
X66574432Y-179190171D02*
X66431575Y-179261600D01*
X67931574Y-180190171D02*
X68003003Y-180261600D01*
X68003003Y-180261600D02*
X67931574Y-180333028D01*
X67931574Y-180333028D02*
X67860146Y-180261600D01*
X67860146Y-180261600D02*
X67931574Y-180190171D01*
X67931574Y-180190171D02*
X67931574Y-180333028D01*
X69360146Y-178833028D02*
X68645860Y-178833028D01*
X68645860Y-178833028D02*
X68574432Y-179547314D01*
X68574432Y-179547314D02*
X68645860Y-179475885D01*
X68645860Y-179475885D02*
X68788718Y-179404457D01*
X68788718Y-179404457D02*
X69145860Y-179404457D01*
X69145860Y-179404457D02*
X69288718Y-179475885D01*
X69288718Y-179475885D02*
X69360146Y-179547314D01*
X69360146Y-179547314D02*
X69431575Y-179690171D01*
X69431575Y-179690171D02*
X69431575Y-180047314D01*
X69431575Y-180047314D02*
X69360146Y-180190171D01*
X69360146Y-180190171D02*
X69288718Y-180261600D01*
X69288718Y-180261600D02*
X69145860Y-180333028D01*
X69145860Y-180333028D02*
X68788718Y-180333028D01*
X68788718Y-180333028D02*
X68645860Y-180261600D01*
X68645860Y-180261600D02*
X68574432Y-180190171D01*
X70145860Y-180333028D02*
X70431574Y-180333028D01*
X70431574Y-180333028D02*
X70574431Y-180261600D01*
X70574431Y-180261600D02*
X70645860Y-180190171D01*
X70645860Y-180190171D02*
X70788717Y-179975885D01*
X70788717Y-179975885D02*
X70860146Y-179690171D01*
X70860146Y-179690171D02*
X70860146Y-179118742D01*
X70860146Y-179118742D02*
X70788717Y-178975885D01*
X70788717Y-178975885D02*
X70717289Y-178904457D01*
X70717289Y-178904457D02*
X70574431Y-178833028D01*
X70574431Y-178833028D02*
X70288717Y-178833028D01*
X70288717Y-178833028D02*
X70145860Y-178904457D01*
X70145860Y-178904457D02*
X70074431Y-178975885D01*
X70074431Y-178975885D02*
X70003003Y-179118742D01*
X70003003Y-179118742D02*
X70003003Y-179475885D01*
X70003003Y-179475885D02*
X70074431Y-179618742D01*
X70074431Y-179618742D02*
X70145860Y-179690171D01*
X70145860Y-179690171D02*
X70288717Y-179761600D01*
X70288717Y-179761600D02*
X70574431Y-179761600D01*
X70574431Y-179761600D02*
X70717289Y-179690171D01*
X70717289Y-179690171D02*
X70788717Y-179618742D01*
X70788717Y-179618742D02*
X70860146Y-179475885D01*
X72145860Y-179333028D02*
X72145860Y-180333028D01*
X71788717Y-178761600D02*
X71431574Y-179833028D01*
X71431574Y-179833028D02*
X72360145Y-179833028D01*
X73217288Y-178833028D02*
X73360145Y-178833028D01*
X73360145Y-178833028D02*
X73503002Y-178904457D01*
X73503002Y-178904457D02*
X73574431Y-178975885D01*
X73574431Y-178975885D02*
X73645859Y-179118742D01*
X73645859Y-179118742D02*
X73717288Y-179404457D01*
X73717288Y-179404457D02*
X73717288Y-179761600D01*
X73717288Y-179761600D02*
X73645859Y-180047314D01*
X73645859Y-180047314D02*
X73574431Y-180190171D01*
X73574431Y-180190171D02*
X73503002Y-180261600D01*
X73503002Y-180261600D02*
X73360145Y-180333028D01*
X73360145Y-180333028D02*
X73217288Y-180333028D01*
X73217288Y-180333028D02*
X73074431Y-180261600D01*
X73074431Y-180261600D02*
X73003002Y-180190171D01*
X73003002Y-180190171D02*
X72931573Y-180047314D01*
X72931573Y-180047314D02*
X72860145Y-179761600D01*
X72860145Y-179761600D02*
X72860145Y-179404457D01*
X72860145Y-179404457D02*
X72931573Y-179118742D01*
X72931573Y-179118742D02*
X73003002Y-178975885D01*
X73003002Y-178975885D02*
X73074431Y-178904457D01*
X73074431Y-178904457D02*
X73217288Y-178833028D01*
X75503001Y-180333028D02*
X75503001Y-179333028D01*
X75503001Y-179475885D02*
X75574430Y-179404457D01*
X75574430Y-179404457D02*
X75717287Y-179333028D01*
X75717287Y-179333028D02*
X75931573Y-179333028D01*
X75931573Y-179333028D02*
X76074430Y-179404457D01*
X76074430Y-179404457D02*
X76145859Y-179547314D01*
X76145859Y-179547314D02*
X76145859Y-180333028D01*
X76145859Y-179547314D02*
X76217287Y-179404457D01*
X76217287Y-179404457D02*
X76360144Y-179333028D01*
X76360144Y-179333028D02*
X76574430Y-179333028D01*
X76574430Y-179333028D02*
X76717287Y-179404457D01*
X76717287Y-179404457D02*
X76788716Y-179547314D01*
X76788716Y-179547314D02*
X76788716Y-180333028D01*
X77503001Y-180333028D02*
X77503001Y-179333028D01*
X77503001Y-179475885D02*
X77574430Y-179404457D01*
X77574430Y-179404457D02*
X77717287Y-179333028D01*
X77717287Y-179333028D02*
X77931573Y-179333028D01*
X77931573Y-179333028D02*
X78074430Y-179404457D01*
X78074430Y-179404457D02*
X78145859Y-179547314D01*
X78145859Y-179547314D02*
X78145859Y-180333028D01*
X78145859Y-179547314D02*
X78217287Y-179404457D01*
X78217287Y-179404457D02*
X78360144Y-179333028D01*
X78360144Y-179333028D02*
X78574430Y-179333028D01*
X78574430Y-179333028D02*
X78717287Y-179404457D01*
X78717287Y-179404457D02*
X78788716Y-179547314D01*
X78788716Y-179547314D02*
X78788716Y-180333028D01*
X14988720Y-179547314D02*
X15203006Y-179618742D01*
X15203006Y-179618742D02*
X15274435Y-179690171D01*
X15274435Y-179690171D02*
X15345863Y-179833028D01*
X15345863Y-179833028D02*
X15345863Y-180047314D01*
X15345863Y-180047314D02*
X15274435Y-180190171D01*
X15274435Y-180190171D02*
X15203006Y-180261600D01*
X15203006Y-180261600D02*
X15060149Y-180333028D01*
X15060149Y-180333028D02*
X14488720Y-180333028D01*
X14488720Y-180333028D02*
X14488720Y-178833028D01*
X14488720Y-178833028D02*
X14988720Y-178833028D01*
X14988720Y-178833028D02*
X15131578Y-178904457D01*
X15131578Y-178904457D02*
X15203006Y-178975885D01*
X15203006Y-178975885D02*
X15274435Y-179118742D01*
X15274435Y-179118742D02*
X15274435Y-179261600D01*
X15274435Y-179261600D02*
X15203006Y-179404457D01*
X15203006Y-179404457D02*
X15131578Y-179475885D01*
X15131578Y-179475885D02*
X14988720Y-179547314D01*
X14988720Y-179547314D02*
X14488720Y-179547314D01*
X16203006Y-180333028D02*
X16060149Y-180261600D01*
X16060149Y-180261600D02*
X15988720Y-180190171D01*
X15988720Y-180190171D02*
X15917292Y-180047314D01*
X15917292Y-180047314D02*
X15917292Y-179618742D01*
X15917292Y-179618742D02*
X15988720Y-179475885D01*
X15988720Y-179475885D02*
X16060149Y-179404457D01*
X16060149Y-179404457D02*
X16203006Y-179333028D01*
X16203006Y-179333028D02*
X16417292Y-179333028D01*
X16417292Y-179333028D02*
X16560149Y-179404457D01*
X16560149Y-179404457D02*
X16631578Y-179475885D01*
X16631578Y-179475885D02*
X16703006Y-179618742D01*
X16703006Y-179618742D02*
X16703006Y-180047314D01*
X16703006Y-180047314D02*
X16631578Y-180190171D01*
X16631578Y-180190171D02*
X16560149Y-180261600D01*
X16560149Y-180261600D02*
X16417292Y-180333028D01*
X16417292Y-180333028D02*
X16203006Y-180333028D01*
X17988721Y-180333028D02*
X17988721Y-179547314D01*
X17988721Y-179547314D02*
X17917292Y-179404457D01*
X17917292Y-179404457D02*
X17774435Y-179333028D01*
X17774435Y-179333028D02*
X17488721Y-179333028D01*
X17488721Y-179333028D02*
X17345863Y-179404457D01*
X17988721Y-180261600D02*
X17845863Y-180333028D01*
X17845863Y-180333028D02*
X17488721Y-180333028D01*
X17488721Y-180333028D02*
X17345863Y-180261600D01*
X17345863Y-180261600D02*
X17274435Y-180118742D01*
X17274435Y-180118742D02*
X17274435Y-179975885D01*
X17274435Y-179975885D02*
X17345863Y-179833028D01*
X17345863Y-179833028D02*
X17488721Y-179761600D01*
X17488721Y-179761600D02*
X17845863Y-179761600D01*
X17845863Y-179761600D02*
X17988721Y-179690171D01*
X18703006Y-180333028D02*
X18703006Y-179333028D01*
X18703006Y-179618742D02*
X18774435Y-179475885D01*
X18774435Y-179475885D02*
X18845864Y-179404457D01*
X18845864Y-179404457D02*
X18988721Y-179333028D01*
X18988721Y-179333028D02*
X19131578Y-179333028D01*
X20274435Y-180333028D02*
X20274435Y-178833028D01*
X20274435Y-180261600D02*
X20131577Y-180333028D01*
X20131577Y-180333028D02*
X19845863Y-180333028D01*
X19845863Y-180333028D02*
X19703006Y-180261600D01*
X19703006Y-180261600D02*
X19631577Y-180190171D01*
X19631577Y-180190171D02*
X19560149Y-180047314D01*
X19560149Y-180047314D02*
X19560149Y-179618742D01*
X19560149Y-179618742D02*
X19631577Y-179475885D01*
X19631577Y-179475885D02*
X19703006Y-179404457D01*
X19703006Y-179404457D02*
X19845863Y-179333028D01*
X19845863Y-179333028D02*
X20131577Y-179333028D01*
X20131577Y-179333028D02*
X20274435Y-179404457D01*
X22345863Y-180333028D02*
X22203006Y-180261600D01*
X22203006Y-180261600D02*
X22131577Y-180190171D01*
X22131577Y-180190171D02*
X22060149Y-180047314D01*
X22060149Y-180047314D02*
X22060149Y-179618742D01*
X22060149Y-179618742D02*
X22131577Y-179475885D01*
X22131577Y-179475885D02*
X22203006Y-179404457D01*
X22203006Y-179404457D02*
X22345863Y-179333028D01*
X22345863Y-179333028D02*
X22560149Y-179333028D01*
X22560149Y-179333028D02*
X22703006Y-179404457D01*
X22703006Y-179404457D02*
X22774435Y-179475885D01*
X22774435Y-179475885D02*
X22845863Y-179618742D01*
X22845863Y-179618742D02*
X22845863Y-180047314D01*
X22845863Y-180047314D02*
X22774435Y-180190171D01*
X22774435Y-180190171D02*
X22703006Y-180261600D01*
X22703006Y-180261600D02*
X22560149Y-180333028D01*
X22560149Y-180333028D02*
X22345863Y-180333028D01*
X23345863Y-179333028D02*
X23703006Y-180333028D01*
X23703006Y-180333028D02*
X24060149Y-179333028D01*
X25203006Y-180261600D02*
X25060149Y-180333028D01*
X25060149Y-180333028D02*
X24774435Y-180333028D01*
X24774435Y-180333028D02*
X24631577Y-180261600D01*
X24631577Y-180261600D02*
X24560149Y-180118742D01*
X24560149Y-180118742D02*
X24560149Y-179547314D01*
X24560149Y-179547314D02*
X24631577Y-179404457D01*
X24631577Y-179404457D02*
X24774435Y-179333028D01*
X24774435Y-179333028D02*
X25060149Y-179333028D01*
X25060149Y-179333028D02*
X25203006Y-179404457D01*
X25203006Y-179404457D02*
X25274435Y-179547314D01*
X25274435Y-179547314D02*
X25274435Y-179690171D01*
X25274435Y-179690171D02*
X24560149Y-179833028D01*
X25917291Y-180333028D02*
X25917291Y-179333028D01*
X25917291Y-179618742D02*
X25988720Y-179475885D01*
X25988720Y-179475885D02*
X26060149Y-179404457D01*
X26060149Y-179404457D02*
X26203006Y-179333028D01*
X26203006Y-179333028D02*
X26345863Y-179333028D01*
X27488720Y-180333028D02*
X27488720Y-179547314D01*
X27488720Y-179547314D02*
X27417291Y-179404457D01*
X27417291Y-179404457D02*
X27274434Y-179333028D01*
X27274434Y-179333028D02*
X26988720Y-179333028D01*
X26988720Y-179333028D02*
X26845862Y-179404457D01*
X27488720Y-180261600D02*
X27345862Y-180333028D01*
X27345862Y-180333028D02*
X26988720Y-180333028D01*
X26988720Y-180333028D02*
X26845862Y-180261600D01*
X26845862Y-180261600D02*
X26774434Y-180118742D01*
X26774434Y-180118742D02*
X26774434Y-179975885D01*
X26774434Y-179975885D02*
X26845862Y-179833028D01*
X26845862Y-179833028D02*
X26988720Y-179761600D01*
X26988720Y-179761600D02*
X27345862Y-179761600D01*
X27345862Y-179761600D02*
X27488720Y-179690171D01*
X28417291Y-180333028D02*
X28274434Y-180261600D01*
X28274434Y-180261600D02*
X28203005Y-180118742D01*
X28203005Y-180118742D02*
X28203005Y-178833028D01*
X29203005Y-180333028D02*
X29060148Y-180261600D01*
X29060148Y-180261600D02*
X28988719Y-180118742D01*
X28988719Y-180118742D02*
X28988719Y-178833028D01*
X31560148Y-180333028D02*
X31560148Y-178833028D01*
X31560148Y-180261600D02*
X31417290Y-180333028D01*
X31417290Y-180333028D02*
X31131576Y-180333028D01*
X31131576Y-180333028D02*
X30988719Y-180261600D01*
X30988719Y-180261600D02*
X30917290Y-180190171D01*
X30917290Y-180190171D02*
X30845862Y-180047314D01*
X30845862Y-180047314D02*
X30845862Y-179618742D01*
X30845862Y-179618742D02*
X30917290Y-179475885D01*
X30917290Y-179475885D02*
X30988719Y-179404457D01*
X30988719Y-179404457D02*
X31131576Y-179333028D01*
X31131576Y-179333028D02*
X31417290Y-179333028D01*
X31417290Y-179333028D02*
X31560148Y-179404457D01*
X32274433Y-180333028D02*
X32274433Y-179333028D01*
X32274433Y-178833028D02*
X32203005Y-178904457D01*
X32203005Y-178904457D02*
X32274433Y-178975885D01*
X32274433Y-178975885D02*
X32345862Y-178904457D01*
X32345862Y-178904457D02*
X32274433Y-178833028D01*
X32274433Y-178833028D02*
X32274433Y-178975885D01*
X32988719Y-180333028D02*
X32988719Y-179333028D01*
X32988719Y-179475885D02*
X33060148Y-179404457D01*
X33060148Y-179404457D02*
X33203005Y-179333028D01*
X33203005Y-179333028D02*
X33417291Y-179333028D01*
X33417291Y-179333028D02*
X33560148Y-179404457D01*
X33560148Y-179404457D02*
X33631577Y-179547314D01*
X33631577Y-179547314D02*
X33631577Y-180333028D01*
X33631577Y-179547314D02*
X33703005Y-179404457D01*
X33703005Y-179404457D02*
X33845862Y-179333028D01*
X33845862Y-179333028D02*
X34060148Y-179333028D01*
X34060148Y-179333028D02*
X34203005Y-179404457D01*
X34203005Y-179404457D02*
X34274434Y-179547314D01*
X34274434Y-179547314D02*
X34274434Y-180333028D01*
X35560148Y-180261600D02*
X35417291Y-180333028D01*
X35417291Y-180333028D02*
X35131577Y-180333028D01*
X35131577Y-180333028D02*
X34988719Y-180261600D01*
X34988719Y-180261600D02*
X34917291Y-180118742D01*
X34917291Y-180118742D02*
X34917291Y-179547314D01*
X34917291Y-179547314D02*
X34988719Y-179404457D01*
X34988719Y-179404457D02*
X35131577Y-179333028D01*
X35131577Y-179333028D02*
X35417291Y-179333028D01*
X35417291Y-179333028D02*
X35560148Y-179404457D01*
X35560148Y-179404457D02*
X35631577Y-179547314D01*
X35631577Y-179547314D02*
X35631577Y-179690171D01*
X35631577Y-179690171D02*
X34917291Y-179833028D01*
X36274433Y-179333028D02*
X36274433Y-180333028D01*
X36274433Y-179475885D02*
X36345862Y-179404457D01*
X36345862Y-179404457D02*
X36488719Y-179333028D01*
X36488719Y-179333028D02*
X36703005Y-179333028D01*
X36703005Y-179333028D02*
X36845862Y-179404457D01*
X36845862Y-179404457D02*
X36917291Y-179547314D01*
X36917291Y-179547314D02*
X36917291Y-180333028D01*
X37560148Y-180261600D02*
X37703005Y-180333028D01*
X37703005Y-180333028D02*
X37988719Y-180333028D01*
X37988719Y-180333028D02*
X38131576Y-180261600D01*
X38131576Y-180261600D02*
X38203005Y-180118742D01*
X38203005Y-180118742D02*
X38203005Y-180047314D01*
X38203005Y-180047314D02*
X38131576Y-179904457D01*
X38131576Y-179904457D02*
X37988719Y-179833028D01*
X37988719Y-179833028D02*
X37774434Y-179833028D01*
X37774434Y-179833028D02*
X37631576Y-179761600D01*
X37631576Y-179761600D02*
X37560148Y-179618742D01*
X37560148Y-179618742D02*
X37560148Y-179547314D01*
X37560148Y-179547314D02*
X37631576Y-179404457D01*
X37631576Y-179404457D02*
X37774434Y-179333028D01*
X37774434Y-179333028D02*
X37988719Y-179333028D01*
X37988719Y-179333028D02*
X38131576Y-179404457D01*
X38845862Y-180333028D02*
X38845862Y-179333028D01*
X38845862Y-178833028D02*
X38774434Y-178904457D01*
X38774434Y-178904457D02*
X38845862Y-178975885D01*
X38845862Y-178975885D02*
X38917291Y-178904457D01*
X38917291Y-178904457D02*
X38845862Y-178833028D01*
X38845862Y-178833028D02*
X38845862Y-178975885D01*
X39774434Y-180333028D02*
X39631577Y-180261600D01*
X39631577Y-180261600D02*
X39560148Y-180190171D01*
X39560148Y-180190171D02*
X39488720Y-180047314D01*
X39488720Y-180047314D02*
X39488720Y-179618742D01*
X39488720Y-179618742D02*
X39560148Y-179475885D01*
X39560148Y-179475885D02*
X39631577Y-179404457D01*
X39631577Y-179404457D02*
X39774434Y-179333028D01*
X39774434Y-179333028D02*
X39988720Y-179333028D01*
X39988720Y-179333028D02*
X40131577Y-179404457D01*
X40131577Y-179404457D02*
X40203006Y-179475885D01*
X40203006Y-179475885D02*
X40274434Y-179618742D01*
X40274434Y-179618742D02*
X40274434Y-180047314D01*
X40274434Y-180047314D02*
X40203006Y-180190171D01*
X40203006Y-180190171D02*
X40131577Y-180261600D01*
X40131577Y-180261600D02*
X39988720Y-180333028D01*
X39988720Y-180333028D02*
X39774434Y-180333028D01*
X40917291Y-179333028D02*
X40917291Y-180333028D01*
X40917291Y-179475885D02*
X40988720Y-179404457D01*
X40988720Y-179404457D02*
X41131577Y-179333028D01*
X41131577Y-179333028D02*
X41345863Y-179333028D01*
X41345863Y-179333028D02*
X41488720Y-179404457D01*
X41488720Y-179404457D02*
X41560149Y-179547314D01*
X41560149Y-179547314D02*
X41560149Y-180333028D01*
X42203006Y-180261600D02*
X42345863Y-180333028D01*
X42345863Y-180333028D02*
X42631577Y-180333028D01*
X42631577Y-180333028D02*
X42774434Y-180261600D01*
X42774434Y-180261600D02*
X42845863Y-180118742D01*
X42845863Y-180118742D02*
X42845863Y-180047314D01*
X42845863Y-180047314D02*
X42774434Y-179904457D01*
X42774434Y-179904457D02*
X42631577Y-179833028D01*
X42631577Y-179833028D02*
X42417292Y-179833028D01*
X42417292Y-179833028D02*
X42274434Y-179761600D01*
X42274434Y-179761600D02*
X42203006Y-179618742D01*
X42203006Y-179618742D02*
X42203006Y-179547314D01*
X42203006Y-179547314D02*
X42274434Y-179404457D01*
X42274434Y-179404457D02*
X42417292Y-179333028D01*
X42417292Y-179333028D02*
X42631577Y-179333028D01*
X42631577Y-179333028D02*
X42774434Y-179404457D01*
X43488720Y-180190171D02*
X43560149Y-180261600D01*
X43560149Y-180261600D02*
X43488720Y-180333028D01*
X43488720Y-180333028D02*
X43417292Y-180261600D01*
X43417292Y-180261600D02*
X43488720Y-180190171D01*
X43488720Y-180190171D02*
X43488720Y-180333028D01*
X43488720Y-179404457D02*
X43560149Y-179475885D01*
X43560149Y-179475885D02*
X43488720Y-179547314D01*
X43488720Y-179547314D02*
X43417292Y-179475885D01*
X43417292Y-179475885D02*
X43488720Y-179404457D01*
X43488720Y-179404457D02*
X43488720Y-179547314D01*
X106531573Y-182790028D02*
X106674430Y-182790028D01*
X106674430Y-182790028D02*
X106817287Y-182861457D01*
X106817287Y-182861457D02*
X106888716Y-182932885D01*
X106888716Y-182932885D02*
X106960144Y-183075742D01*
X106960144Y-183075742D02*
X107031573Y-183361457D01*
X107031573Y-183361457D02*
X107031573Y-183718600D01*
X107031573Y-183718600D02*
X106960144Y-184004314D01*
X106960144Y-184004314D02*
X106888716Y-184147171D01*
X106888716Y-184147171D02*
X106817287Y-184218600D01*
X106817287Y-184218600D02*
X106674430Y-184290028D01*
X106674430Y-184290028D02*
X106531573Y-184290028D01*
X106531573Y-184290028D02*
X106388716Y-184218600D01*
X106388716Y-184218600D02*
X106317287Y-184147171D01*
X106317287Y-184147171D02*
X106245858Y-184004314D01*
X106245858Y-184004314D02*
X106174430Y-183718600D01*
X106174430Y-183718600D02*
X106174430Y-183361457D01*
X106174430Y-183361457D02*
X106245858Y-183075742D01*
X106245858Y-183075742D02*
X106317287Y-182932885D01*
X106317287Y-182932885D02*
X106388716Y-182861457D01*
X106388716Y-182861457D02*
X106531573Y-182790028D01*
X107674429Y-184147171D02*
X107745858Y-184218600D01*
X107745858Y-184218600D02*
X107674429Y-184290028D01*
X107674429Y-184290028D02*
X107603001Y-184218600D01*
X107603001Y-184218600D02*
X107674429Y-184147171D01*
X107674429Y-184147171D02*
X107674429Y-184290028D01*
X108317287Y-182932885D02*
X108388715Y-182861457D01*
X108388715Y-182861457D02*
X108531573Y-182790028D01*
X108531573Y-182790028D02*
X108888715Y-182790028D01*
X108888715Y-182790028D02*
X109031573Y-182861457D01*
X109031573Y-182861457D02*
X109103001Y-182932885D01*
X109103001Y-182932885D02*
X109174430Y-183075742D01*
X109174430Y-183075742D02*
X109174430Y-183218600D01*
X109174430Y-183218600D02*
X109103001Y-183432885D01*
X109103001Y-183432885D02*
X108245858Y-184290028D01*
X108245858Y-184290028D02*
X109174430Y-184290028D01*
X110103001Y-182790028D02*
X110245858Y-182790028D01*
X110245858Y-182790028D02*
X110388715Y-182861457D01*
X110388715Y-182861457D02*
X110460144Y-182932885D01*
X110460144Y-182932885D02*
X110531572Y-183075742D01*
X110531572Y-183075742D02*
X110603001Y-183361457D01*
X110603001Y-183361457D02*
X110603001Y-183718600D01*
X110603001Y-183718600D02*
X110531572Y-184004314D01*
X110531572Y-184004314D02*
X110460144Y-184147171D01*
X110460144Y-184147171D02*
X110388715Y-184218600D01*
X110388715Y-184218600D02*
X110245858Y-184290028D01*
X110245858Y-184290028D02*
X110103001Y-184290028D01*
X110103001Y-184290028D02*
X109960144Y-184218600D01*
X109960144Y-184218600D02*
X109888715Y-184147171D01*
X109888715Y-184147171D02*
X109817286Y-184004314D01*
X109817286Y-184004314D02*
X109745858Y-183718600D01*
X109745858Y-183718600D02*
X109745858Y-183361457D01*
X109745858Y-183361457D02*
X109817286Y-183075742D01*
X109817286Y-183075742D02*
X109888715Y-182932885D01*
X109888715Y-182932885D02*
X109960144Y-182861457D01*
X109960144Y-182861457D02*
X110103001Y-182790028D01*
X111531572Y-182790028D02*
X111674429Y-182790028D01*
X111674429Y-182790028D02*
X111817286Y-182861457D01*
X111817286Y-182861457D02*
X111888715Y-182932885D01*
X111888715Y-182932885D02*
X111960143Y-183075742D01*
X111960143Y-183075742D02*
X112031572Y-183361457D01*
X112031572Y-183361457D02*
X112031572Y-183718600D01*
X112031572Y-183718600D02*
X111960143Y-184004314D01*
X111960143Y-184004314D02*
X111888715Y-184147171D01*
X111888715Y-184147171D02*
X111817286Y-184218600D01*
X111817286Y-184218600D02*
X111674429Y-184290028D01*
X111674429Y-184290028D02*
X111531572Y-184290028D01*
X111531572Y-184290028D02*
X111388715Y-184218600D01*
X111388715Y-184218600D02*
X111317286Y-184147171D01*
X111317286Y-184147171D02*
X111245857Y-184004314D01*
X111245857Y-184004314D02*
X111174429Y-183718600D01*
X111174429Y-183718600D02*
X111174429Y-183361457D01*
X111174429Y-183361457D02*
X111245857Y-183075742D01*
X111245857Y-183075742D02*
X111317286Y-182932885D01*
X111317286Y-182932885D02*
X111388715Y-182861457D01*
X111388715Y-182861457D02*
X111531572Y-182790028D01*
X112960143Y-182790028D02*
X113103000Y-182790028D01*
X113103000Y-182790028D02*
X113245857Y-182861457D01*
X113245857Y-182861457D02*
X113317286Y-182932885D01*
X113317286Y-182932885D02*
X113388714Y-183075742D01*
X113388714Y-183075742D02*
X113460143Y-183361457D01*
X113460143Y-183361457D02*
X113460143Y-183718600D01*
X113460143Y-183718600D02*
X113388714Y-184004314D01*
X113388714Y-184004314D02*
X113317286Y-184147171D01*
X113317286Y-184147171D02*
X113245857Y-184218600D01*
X113245857Y-184218600D02*
X113103000Y-184290028D01*
X113103000Y-184290028D02*
X112960143Y-184290028D01*
X112960143Y-184290028D02*
X112817286Y-184218600D01*
X112817286Y-184218600D02*
X112745857Y-184147171D01*
X112745857Y-184147171D02*
X112674428Y-184004314D01*
X112674428Y-184004314D02*
X112603000Y-183718600D01*
X112603000Y-183718600D02*
X112603000Y-183361457D01*
X112603000Y-183361457D02*
X112674428Y-183075742D01*
X112674428Y-183075742D02*
X112745857Y-182932885D01*
X112745857Y-182932885D02*
X112817286Y-182861457D01*
X112817286Y-182861457D02*
X112960143Y-182790028D01*
X115245856Y-184290028D02*
X115245856Y-183290028D01*
X115245856Y-183432885D02*
X115317285Y-183361457D01*
X115317285Y-183361457D02*
X115460142Y-183290028D01*
X115460142Y-183290028D02*
X115674428Y-183290028D01*
X115674428Y-183290028D02*
X115817285Y-183361457D01*
X115817285Y-183361457D02*
X115888714Y-183504314D01*
X115888714Y-183504314D02*
X115888714Y-184290028D01*
X115888714Y-183504314D02*
X115960142Y-183361457D01*
X115960142Y-183361457D02*
X116102999Y-183290028D01*
X116102999Y-183290028D02*
X116317285Y-183290028D01*
X116317285Y-183290028D02*
X116460142Y-183361457D01*
X116460142Y-183361457D02*
X116531571Y-183504314D01*
X116531571Y-183504314D02*
X116531571Y-184290028D01*
X117245856Y-184290028D02*
X117245856Y-183290028D01*
X117245856Y-183432885D02*
X117317285Y-183361457D01*
X117317285Y-183361457D02*
X117460142Y-183290028D01*
X117460142Y-183290028D02*
X117674428Y-183290028D01*
X117674428Y-183290028D02*
X117817285Y-183361457D01*
X117817285Y-183361457D02*
X117888714Y-183504314D01*
X117888714Y-183504314D02*
X117888714Y-184290028D01*
X117888714Y-183504314D02*
X117960142Y-183361457D01*
X117960142Y-183361457D02*
X118102999Y-183290028D01*
X118102999Y-183290028D02*
X118317285Y-183290028D01*
X118317285Y-183290028D02*
X118460142Y-183361457D01*
X118460142Y-183361457D02*
X118531571Y-183504314D01*
X118531571Y-183504314D02*
X118531571Y-184290028D01*
X106245858Y-192204028D02*
X106245858Y-190704028D01*
X106245858Y-190704028D02*
X107103001Y-192204028D01*
X107103001Y-192204028D02*
X107103001Y-190704028D01*
X108031573Y-192204028D02*
X107888716Y-192132600D01*
X107888716Y-192132600D02*
X107817287Y-192061171D01*
X107817287Y-192061171D02*
X107745859Y-191918314D01*
X107745859Y-191918314D02*
X107745859Y-191489742D01*
X107745859Y-191489742D02*
X107817287Y-191346885D01*
X107817287Y-191346885D02*
X107888716Y-191275457D01*
X107888716Y-191275457D02*
X108031573Y-191204028D01*
X108031573Y-191204028D02*
X108245859Y-191204028D01*
X108245859Y-191204028D02*
X108388716Y-191275457D01*
X108388716Y-191275457D02*
X108460145Y-191346885D01*
X108460145Y-191346885D02*
X108531573Y-191489742D01*
X108531573Y-191489742D02*
X108531573Y-191918314D01*
X108531573Y-191918314D02*
X108460145Y-192061171D01*
X108460145Y-192061171D02*
X108388716Y-192132600D01*
X108388716Y-192132600D02*
X108245859Y-192204028D01*
X108245859Y-192204028D02*
X108031573Y-192204028D01*
X81803001Y-175590314D02*
X82017287Y-175661742D01*
X82017287Y-175661742D02*
X82088716Y-175733171D01*
X82088716Y-175733171D02*
X82160144Y-175876028D01*
X82160144Y-175876028D02*
X82160144Y-176090314D01*
X82160144Y-176090314D02*
X82088716Y-176233171D01*
X82088716Y-176233171D02*
X82017287Y-176304600D01*
X82017287Y-176304600D02*
X81874430Y-176376028D01*
X81874430Y-176376028D02*
X81303001Y-176376028D01*
X81303001Y-176376028D02*
X81303001Y-174876028D01*
X81303001Y-174876028D02*
X81803001Y-174876028D01*
X81803001Y-174876028D02*
X81945859Y-174947457D01*
X81945859Y-174947457D02*
X82017287Y-175018885D01*
X82017287Y-175018885D02*
X82088716Y-175161742D01*
X82088716Y-175161742D02*
X82088716Y-175304600D01*
X82088716Y-175304600D02*
X82017287Y-175447457D01*
X82017287Y-175447457D02*
X81945859Y-175518885D01*
X81945859Y-175518885D02*
X81803001Y-175590314D01*
X81803001Y-175590314D02*
X81303001Y-175590314D01*
X83017287Y-176376028D02*
X82874430Y-176304600D01*
X82874430Y-176304600D02*
X82803001Y-176233171D01*
X82803001Y-176233171D02*
X82731573Y-176090314D01*
X82731573Y-176090314D02*
X82731573Y-175661742D01*
X82731573Y-175661742D02*
X82803001Y-175518885D01*
X82803001Y-175518885D02*
X82874430Y-175447457D01*
X82874430Y-175447457D02*
X83017287Y-175376028D01*
X83017287Y-175376028D02*
X83231573Y-175376028D01*
X83231573Y-175376028D02*
X83374430Y-175447457D01*
X83374430Y-175447457D02*
X83445859Y-175518885D01*
X83445859Y-175518885D02*
X83517287Y-175661742D01*
X83517287Y-175661742D02*
X83517287Y-176090314D01*
X83517287Y-176090314D02*
X83445859Y-176233171D01*
X83445859Y-176233171D02*
X83374430Y-176304600D01*
X83374430Y-176304600D02*
X83231573Y-176376028D01*
X83231573Y-176376028D02*
X83017287Y-176376028D01*
X84803002Y-176376028D02*
X84803002Y-175590314D01*
X84803002Y-175590314D02*
X84731573Y-175447457D01*
X84731573Y-175447457D02*
X84588716Y-175376028D01*
X84588716Y-175376028D02*
X84303002Y-175376028D01*
X84303002Y-175376028D02*
X84160144Y-175447457D01*
X84803002Y-176304600D02*
X84660144Y-176376028D01*
X84660144Y-176376028D02*
X84303002Y-176376028D01*
X84303002Y-176376028D02*
X84160144Y-176304600D01*
X84160144Y-176304600D02*
X84088716Y-176161742D01*
X84088716Y-176161742D02*
X84088716Y-176018885D01*
X84088716Y-176018885D02*
X84160144Y-175876028D01*
X84160144Y-175876028D02*
X84303002Y-175804600D01*
X84303002Y-175804600D02*
X84660144Y-175804600D01*
X84660144Y-175804600D02*
X84803002Y-175733171D01*
X85517287Y-176376028D02*
X85517287Y-175376028D01*
X85517287Y-175661742D02*
X85588716Y-175518885D01*
X85588716Y-175518885D02*
X85660145Y-175447457D01*
X85660145Y-175447457D02*
X85803002Y-175376028D01*
X85803002Y-175376028D02*
X85945859Y-175376028D01*
X87088716Y-176376028D02*
X87088716Y-174876028D01*
X87088716Y-176304600D02*
X86945858Y-176376028D01*
X86945858Y-176376028D02*
X86660144Y-176376028D01*
X86660144Y-176376028D02*
X86517287Y-176304600D01*
X86517287Y-176304600D02*
X86445858Y-176233171D01*
X86445858Y-176233171D02*
X86374430Y-176090314D01*
X86374430Y-176090314D02*
X86374430Y-175661742D01*
X86374430Y-175661742D02*
X86445858Y-175518885D01*
X86445858Y-175518885D02*
X86517287Y-175447457D01*
X86517287Y-175447457D02*
X86660144Y-175376028D01*
X86660144Y-175376028D02*
X86945858Y-175376028D01*
X86945858Y-175376028D02*
X87088716Y-175447457D01*
X88731573Y-174876028D02*
X89588716Y-174876028D01*
X89160144Y-176376028D02*
X89160144Y-174876028D01*
X90088715Y-176376028D02*
X90088715Y-174876028D01*
X90731573Y-176376028D02*
X90731573Y-175590314D01*
X90731573Y-175590314D02*
X90660144Y-175447457D01*
X90660144Y-175447457D02*
X90517287Y-175376028D01*
X90517287Y-175376028D02*
X90303001Y-175376028D01*
X90303001Y-175376028D02*
X90160144Y-175447457D01*
X90160144Y-175447457D02*
X90088715Y-175518885D01*
X91445858Y-176376028D02*
X91445858Y-175376028D01*
X91445858Y-174876028D02*
X91374430Y-174947457D01*
X91374430Y-174947457D02*
X91445858Y-175018885D01*
X91445858Y-175018885D02*
X91517287Y-174947457D01*
X91517287Y-174947457D02*
X91445858Y-174876028D01*
X91445858Y-174876028D02*
X91445858Y-175018885D01*
X92803002Y-176304600D02*
X92660144Y-176376028D01*
X92660144Y-176376028D02*
X92374430Y-176376028D01*
X92374430Y-176376028D02*
X92231573Y-176304600D01*
X92231573Y-176304600D02*
X92160144Y-176233171D01*
X92160144Y-176233171D02*
X92088716Y-176090314D01*
X92088716Y-176090314D02*
X92088716Y-175661742D01*
X92088716Y-175661742D02*
X92160144Y-175518885D01*
X92160144Y-175518885D02*
X92231573Y-175447457D01*
X92231573Y-175447457D02*
X92374430Y-175376028D01*
X92374430Y-175376028D02*
X92660144Y-175376028D01*
X92660144Y-175376028D02*
X92803002Y-175447457D01*
X93445858Y-176376028D02*
X93445858Y-174876028D01*
X93588716Y-175804600D02*
X94017287Y-176376028D01*
X94017287Y-175376028D02*
X93445858Y-175947457D01*
X94660144Y-175376028D02*
X94660144Y-176376028D01*
X94660144Y-175518885D02*
X94731573Y-175447457D01*
X94731573Y-175447457D02*
X94874430Y-175376028D01*
X94874430Y-175376028D02*
X95088716Y-175376028D01*
X95088716Y-175376028D02*
X95231573Y-175447457D01*
X95231573Y-175447457D02*
X95303002Y-175590314D01*
X95303002Y-175590314D02*
X95303002Y-176376028D01*
X96588716Y-176304600D02*
X96445859Y-176376028D01*
X96445859Y-176376028D02*
X96160145Y-176376028D01*
X96160145Y-176376028D02*
X96017287Y-176304600D01*
X96017287Y-176304600D02*
X95945859Y-176161742D01*
X95945859Y-176161742D02*
X95945859Y-175590314D01*
X95945859Y-175590314D02*
X96017287Y-175447457D01*
X96017287Y-175447457D02*
X96160145Y-175376028D01*
X96160145Y-175376028D02*
X96445859Y-175376028D01*
X96445859Y-175376028D02*
X96588716Y-175447457D01*
X96588716Y-175447457D02*
X96660145Y-175590314D01*
X96660145Y-175590314D02*
X96660145Y-175733171D01*
X96660145Y-175733171D02*
X95945859Y-175876028D01*
X97231573Y-176304600D02*
X97374430Y-176376028D01*
X97374430Y-176376028D02*
X97660144Y-176376028D01*
X97660144Y-176376028D02*
X97803001Y-176304600D01*
X97803001Y-176304600D02*
X97874430Y-176161742D01*
X97874430Y-176161742D02*
X97874430Y-176090314D01*
X97874430Y-176090314D02*
X97803001Y-175947457D01*
X97803001Y-175947457D02*
X97660144Y-175876028D01*
X97660144Y-175876028D02*
X97445859Y-175876028D01*
X97445859Y-175876028D02*
X97303001Y-175804600D01*
X97303001Y-175804600D02*
X97231573Y-175661742D01*
X97231573Y-175661742D02*
X97231573Y-175590314D01*
X97231573Y-175590314D02*
X97303001Y-175447457D01*
X97303001Y-175447457D02*
X97445859Y-175376028D01*
X97445859Y-175376028D02*
X97660144Y-175376028D01*
X97660144Y-175376028D02*
X97803001Y-175447457D01*
X98445859Y-176304600D02*
X98588716Y-176376028D01*
X98588716Y-176376028D02*
X98874430Y-176376028D01*
X98874430Y-176376028D02*
X99017287Y-176304600D01*
X99017287Y-176304600D02*
X99088716Y-176161742D01*
X99088716Y-176161742D02*
X99088716Y-176090314D01*
X99088716Y-176090314D02*
X99017287Y-175947457D01*
X99017287Y-175947457D02*
X98874430Y-175876028D01*
X98874430Y-175876028D02*
X98660145Y-175876028D01*
X98660145Y-175876028D02*
X98517287Y-175804600D01*
X98517287Y-175804600D02*
X98445859Y-175661742D01*
X98445859Y-175661742D02*
X98445859Y-175590314D01*
X98445859Y-175590314D02*
X98517287Y-175447457D01*
X98517287Y-175447457D02*
X98660145Y-175376028D01*
X98660145Y-175376028D02*
X98874430Y-175376028D01*
X98874430Y-175376028D02*
X99017287Y-175447457D01*
X99731573Y-176233171D02*
X99803002Y-176304600D01*
X99803002Y-176304600D02*
X99731573Y-176376028D01*
X99731573Y-176376028D02*
X99660145Y-176304600D01*
X99660145Y-176304600D02*
X99731573Y-176233171D01*
X99731573Y-176233171D02*
X99731573Y-176376028D01*
X99731573Y-175447457D02*
X99803002Y-175518885D01*
X99803002Y-175518885D02*
X99731573Y-175590314D01*
X99731573Y-175590314D02*
X99660145Y-175518885D01*
X99660145Y-175518885D02*
X99731573Y-175447457D01*
X99731573Y-175447457D02*
X99731573Y-175590314D01*
X107031573Y-176376028D02*
X106174430Y-176376028D01*
X106603001Y-176376028D02*
X106603001Y-174876028D01*
X106603001Y-174876028D02*
X106460144Y-175090314D01*
X106460144Y-175090314D02*
X106317287Y-175233171D01*
X106317287Y-175233171D02*
X106174430Y-175304600D01*
X107674429Y-176233171D02*
X107745858Y-176304600D01*
X107745858Y-176304600D02*
X107674429Y-176376028D01*
X107674429Y-176376028D02*
X107603001Y-176304600D01*
X107603001Y-176304600D02*
X107674429Y-176233171D01*
X107674429Y-176233171D02*
X107674429Y-176376028D01*
X109031573Y-174876028D02*
X108745858Y-174876028D01*
X108745858Y-174876028D02*
X108603001Y-174947457D01*
X108603001Y-174947457D02*
X108531573Y-175018885D01*
X108531573Y-175018885D02*
X108388715Y-175233171D01*
X108388715Y-175233171D02*
X108317287Y-175518885D01*
X108317287Y-175518885D02*
X108317287Y-176090314D01*
X108317287Y-176090314D02*
X108388715Y-176233171D01*
X108388715Y-176233171D02*
X108460144Y-176304600D01*
X108460144Y-176304600D02*
X108603001Y-176376028D01*
X108603001Y-176376028D02*
X108888715Y-176376028D01*
X108888715Y-176376028D02*
X109031573Y-176304600D01*
X109031573Y-176304600D02*
X109103001Y-176233171D01*
X109103001Y-176233171D02*
X109174430Y-176090314D01*
X109174430Y-176090314D02*
X109174430Y-175733171D01*
X109174430Y-175733171D02*
X109103001Y-175590314D01*
X109103001Y-175590314D02*
X109031573Y-175518885D01*
X109031573Y-175518885D02*
X108888715Y-175447457D01*
X108888715Y-175447457D02*
X108603001Y-175447457D01*
X108603001Y-175447457D02*
X108460144Y-175518885D01*
X108460144Y-175518885D02*
X108388715Y-175590314D01*
X108388715Y-175590314D02*
X108317287Y-175733171D01*
X110603001Y-176376028D02*
X109745858Y-176376028D01*
X110174429Y-176376028D02*
X110174429Y-174876028D01*
X110174429Y-174876028D02*
X110031572Y-175090314D01*
X110031572Y-175090314D02*
X109888715Y-175233171D01*
X109888715Y-175233171D02*
X109745858Y-175304600D01*
X111888715Y-174876028D02*
X111603000Y-174876028D01*
X111603000Y-174876028D02*
X111460143Y-174947457D01*
X111460143Y-174947457D02*
X111388715Y-175018885D01*
X111388715Y-175018885D02*
X111245857Y-175233171D01*
X111245857Y-175233171D02*
X111174429Y-175518885D01*
X111174429Y-175518885D02*
X111174429Y-176090314D01*
X111174429Y-176090314D02*
X111245857Y-176233171D01*
X111245857Y-176233171D02*
X111317286Y-176304600D01*
X111317286Y-176304600D02*
X111460143Y-176376028D01*
X111460143Y-176376028D02*
X111745857Y-176376028D01*
X111745857Y-176376028D02*
X111888715Y-176304600D01*
X111888715Y-176304600D02*
X111960143Y-176233171D01*
X111960143Y-176233171D02*
X112031572Y-176090314D01*
X112031572Y-176090314D02*
X112031572Y-175733171D01*
X112031572Y-175733171D02*
X111960143Y-175590314D01*
X111960143Y-175590314D02*
X111888715Y-175518885D01*
X111888715Y-175518885D02*
X111745857Y-175447457D01*
X111745857Y-175447457D02*
X111460143Y-175447457D01*
X111460143Y-175447457D02*
X111317286Y-175518885D01*
X111317286Y-175518885D02*
X111245857Y-175590314D01*
X111245857Y-175590314D02*
X111174429Y-175733171D01*
X112531571Y-174876028D02*
X113531571Y-174876028D01*
X113531571Y-174876028D02*
X112888714Y-176376028D01*
X115245856Y-176376028D02*
X115245856Y-175376028D01*
X115245856Y-175518885D02*
X115317285Y-175447457D01*
X115317285Y-175447457D02*
X115460142Y-175376028D01*
X115460142Y-175376028D02*
X115674428Y-175376028D01*
X115674428Y-175376028D02*
X115817285Y-175447457D01*
X115817285Y-175447457D02*
X115888714Y-175590314D01*
X115888714Y-175590314D02*
X115888714Y-176376028D01*
X115888714Y-175590314D02*
X115960142Y-175447457D01*
X115960142Y-175447457D02*
X116102999Y-175376028D01*
X116102999Y-175376028D02*
X116317285Y-175376028D01*
X116317285Y-175376028D02*
X116460142Y-175447457D01*
X116460142Y-175447457D02*
X116531571Y-175590314D01*
X116531571Y-175590314D02*
X116531571Y-176376028D01*
X117245856Y-176376028D02*
X117245856Y-175376028D01*
X117245856Y-175518885D02*
X117317285Y-175447457D01*
X117317285Y-175447457D02*
X117460142Y-175376028D01*
X117460142Y-175376028D02*
X117674428Y-175376028D01*
X117674428Y-175376028D02*
X117817285Y-175447457D01*
X117817285Y-175447457D02*
X117888714Y-175590314D01*
X117888714Y-175590314D02*
X117888714Y-176376028D01*
X117888714Y-175590314D02*
X117960142Y-175447457D01*
X117960142Y-175447457D02*
X118102999Y-175376028D01*
X118102999Y-175376028D02*
X118317285Y-175376028D01*
X118317285Y-175376028D02*
X118460142Y-175447457D01*
X118460142Y-175447457D02*
X118531571Y-175590314D01*
X118531571Y-175590314D02*
X118531571Y-176376028D01*
D11*
X14656014Y-170347819D02*
X14941728Y-170443057D01*
X14941728Y-170443057D02*
X15036966Y-170538295D01*
X15036966Y-170538295D02*
X15132204Y-170728771D01*
X15132204Y-170728771D02*
X15132204Y-171014485D01*
X15132204Y-171014485D02*
X15036966Y-171204961D01*
X15036966Y-171204961D02*
X14941728Y-171300200D01*
X14941728Y-171300200D02*
X14751252Y-171395438D01*
X14751252Y-171395438D02*
X13989347Y-171395438D01*
X13989347Y-171395438D02*
X13989347Y-169395438D01*
X13989347Y-169395438D02*
X14656014Y-169395438D01*
X14656014Y-169395438D02*
X14846490Y-169490676D01*
X14846490Y-169490676D02*
X14941728Y-169585914D01*
X14941728Y-169585914D02*
X15036966Y-169776390D01*
X15036966Y-169776390D02*
X15036966Y-169966866D01*
X15036966Y-169966866D02*
X14941728Y-170157342D01*
X14941728Y-170157342D02*
X14846490Y-170252580D01*
X14846490Y-170252580D02*
X14656014Y-170347819D01*
X14656014Y-170347819D02*
X13989347Y-170347819D01*
X16370299Y-169395438D02*
X16751252Y-169395438D01*
X16751252Y-169395438D02*
X16941728Y-169490676D01*
X16941728Y-169490676D02*
X17132204Y-169681152D01*
X17132204Y-169681152D02*
X17227442Y-170062104D01*
X17227442Y-170062104D02*
X17227442Y-170728771D01*
X17227442Y-170728771D02*
X17132204Y-171109723D01*
X17132204Y-171109723D02*
X16941728Y-171300200D01*
X16941728Y-171300200D02*
X16751252Y-171395438D01*
X16751252Y-171395438D02*
X16370299Y-171395438D01*
X16370299Y-171395438D02*
X16179823Y-171300200D01*
X16179823Y-171300200D02*
X15989347Y-171109723D01*
X15989347Y-171109723D02*
X15894109Y-170728771D01*
X15894109Y-170728771D02*
X15894109Y-170062104D01*
X15894109Y-170062104D02*
X15989347Y-169681152D01*
X15989347Y-169681152D02*
X16179823Y-169490676D01*
X16179823Y-169490676D02*
X16370299Y-169395438D01*
X17989347Y-170824009D02*
X18941728Y-170824009D01*
X17798871Y-171395438D02*
X18465537Y-169395438D01*
X18465537Y-169395438D02*
X19132204Y-171395438D01*
X20941728Y-171395438D02*
X20275061Y-170443057D01*
X19798871Y-171395438D02*
X19798871Y-169395438D01*
X19798871Y-169395438D02*
X20560776Y-169395438D01*
X20560776Y-169395438D02*
X20751252Y-169490676D01*
X20751252Y-169490676D02*
X20846490Y-169585914D01*
X20846490Y-169585914D02*
X20941728Y-169776390D01*
X20941728Y-169776390D02*
X20941728Y-170062104D01*
X20941728Y-170062104D02*
X20846490Y-170252580D01*
X20846490Y-170252580D02*
X20751252Y-170347819D01*
X20751252Y-170347819D02*
X20560776Y-170443057D01*
X20560776Y-170443057D02*
X19798871Y-170443057D01*
X21798871Y-171395438D02*
X21798871Y-169395438D01*
X21798871Y-169395438D02*
X22275061Y-169395438D01*
X22275061Y-169395438D02*
X22560776Y-169490676D01*
X22560776Y-169490676D02*
X22751252Y-169681152D01*
X22751252Y-169681152D02*
X22846490Y-169871628D01*
X22846490Y-169871628D02*
X22941728Y-170252580D01*
X22941728Y-170252580D02*
X22941728Y-170538295D01*
X22941728Y-170538295D02*
X22846490Y-170919247D01*
X22846490Y-170919247D02*
X22751252Y-171109723D01*
X22751252Y-171109723D02*
X22560776Y-171300200D01*
X22560776Y-171300200D02*
X22275061Y-171395438D01*
X22275061Y-171395438D02*
X21798871Y-171395438D01*
X26465538Y-171204961D02*
X26370300Y-171300200D01*
X26370300Y-171300200D02*
X26084586Y-171395438D01*
X26084586Y-171395438D02*
X25894110Y-171395438D01*
X25894110Y-171395438D02*
X25608395Y-171300200D01*
X25608395Y-171300200D02*
X25417919Y-171109723D01*
X25417919Y-171109723D02*
X25322681Y-170919247D01*
X25322681Y-170919247D02*
X25227443Y-170538295D01*
X25227443Y-170538295D02*
X25227443Y-170252580D01*
X25227443Y-170252580D02*
X25322681Y-169871628D01*
X25322681Y-169871628D02*
X25417919Y-169681152D01*
X25417919Y-169681152D02*
X25608395Y-169490676D01*
X25608395Y-169490676D02*
X25894110Y-169395438D01*
X25894110Y-169395438D02*
X26084586Y-169395438D01*
X26084586Y-169395438D02*
X26370300Y-169490676D01*
X26370300Y-169490676D02*
X26465538Y-169585914D01*
X27322681Y-171395438D02*
X27322681Y-169395438D01*
X27322681Y-170347819D02*
X28465538Y-170347819D01*
X28465538Y-171395438D02*
X28465538Y-169395438D01*
X29322681Y-170824009D02*
X30275062Y-170824009D01*
X29132205Y-171395438D02*
X29798871Y-169395438D01*
X29798871Y-169395438D02*
X30465538Y-171395438D01*
X32275062Y-171395438D02*
X31608395Y-170443057D01*
X31132205Y-171395438D02*
X31132205Y-169395438D01*
X31132205Y-169395438D02*
X31894110Y-169395438D01*
X31894110Y-169395438D02*
X32084586Y-169490676D01*
X32084586Y-169490676D02*
X32179824Y-169585914D01*
X32179824Y-169585914D02*
X32275062Y-169776390D01*
X32275062Y-169776390D02*
X32275062Y-170062104D01*
X32275062Y-170062104D02*
X32179824Y-170252580D01*
X32179824Y-170252580D02*
X32084586Y-170347819D01*
X32084586Y-170347819D02*
X31894110Y-170443057D01*
X31894110Y-170443057D02*
X31132205Y-170443057D01*
X33036967Y-170824009D02*
X33989348Y-170824009D01*
X32846491Y-171395438D02*
X33513157Y-169395438D01*
X33513157Y-169395438D02*
X34179824Y-171395438D01*
X35989348Y-171204961D02*
X35894110Y-171300200D01*
X35894110Y-171300200D02*
X35608396Y-171395438D01*
X35608396Y-171395438D02*
X35417920Y-171395438D01*
X35417920Y-171395438D02*
X35132205Y-171300200D01*
X35132205Y-171300200D02*
X34941729Y-171109723D01*
X34941729Y-171109723D02*
X34846491Y-170919247D01*
X34846491Y-170919247D02*
X34751253Y-170538295D01*
X34751253Y-170538295D02*
X34751253Y-170252580D01*
X34751253Y-170252580D02*
X34846491Y-169871628D01*
X34846491Y-169871628D02*
X34941729Y-169681152D01*
X34941729Y-169681152D02*
X35132205Y-169490676D01*
X35132205Y-169490676D02*
X35417920Y-169395438D01*
X35417920Y-169395438D02*
X35608396Y-169395438D01*
X35608396Y-169395438D02*
X35894110Y-169490676D01*
X35894110Y-169490676D02*
X35989348Y-169585914D01*
X36560777Y-169395438D02*
X37703634Y-169395438D01*
X37132205Y-171395438D02*
X37132205Y-169395438D01*
X38370301Y-170347819D02*
X39036968Y-170347819D01*
X39322682Y-171395438D02*
X38370301Y-171395438D01*
X38370301Y-171395438D02*
X38370301Y-169395438D01*
X38370301Y-169395438D02*
X39322682Y-169395438D01*
X41322682Y-171395438D02*
X40656015Y-170443057D01*
X40179825Y-171395438D02*
X40179825Y-169395438D01*
X40179825Y-169395438D02*
X40941730Y-169395438D01*
X40941730Y-169395438D02*
X41132206Y-169490676D01*
X41132206Y-169490676D02*
X41227444Y-169585914D01*
X41227444Y-169585914D02*
X41322682Y-169776390D01*
X41322682Y-169776390D02*
X41322682Y-170062104D01*
X41322682Y-170062104D02*
X41227444Y-170252580D01*
X41227444Y-170252580D02*
X41132206Y-170347819D01*
X41132206Y-170347819D02*
X40941730Y-170443057D01*
X40941730Y-170443057D02*
X40179825Y-170443057D01*
X42179825Y-171395438D02*
X42179825Y-169395438D01*
X43036968Y-171300200D02*
X43322682Y-171395438D01*
X43322682Y-171395438D02*
X43798873Y-171395438D01*
X43798873Y-171395438D02*
X43989349Y-171300200D01*
X43989349Y-171300200D02*
X44084587Y-171204961D01*
X44084587Y-171204961D02*
X44179825Y-171014485D01*
X44179825Y-171014485D02*
X44179825Y-170824009D01*
X44179825Y-170824009D02*
X44084587Y-170633533D01*
X44084587Y-170633533D02*
X43989349Y-170538295D01*
X43989349Y-170538295D02*
X43798873Y-170443057D01*
X43798873Y-170443057D02*
X43417920Y-170347819D01*
X43417920Y-170347819D02*
X43227444Y-170252580D01*
X43227444Y-170252580D02*
X43132206Y-170157342D01*
X43132206Y-170157342D02*
X43036968Y-169966866D01*
X43036968Y-169966866D02*
X43036968Y-169776390D01*
X43036968Y-169776390D02*
X43132206Y-169585914D01*
X43132206Y-169585914D02*
X43227444Y-169490676D01*
X43227444Y-169490676D02*
X43417920Y-169395438D01*
X43417920Y-169395438D02*
X43894111Y-169395438D01*
X43894111Y-169395438D02*
X44179825Y-169490676D01*
X44751254Y-169395438D02*
X45894111Y-169395438D01*
X45322682Y-171395438D02*
X45322682Y-169395438D01*
X46560778Y-171395438D02*
X46560778Y-169395438D01*
X48656016Y-171204961D02*
X48560778Y-171300200D01*
X48560778Y-171300200D02*
X48275064Y-171395438D01*
X48275064Y-171395438D02*
X48084588Y-171395438D01*
X48084588Y-171395438D02*
X47798873Y-171300200D01*
X47798873Y-171300200D02*
X47608397Y-171109723D01*
X47608397Y-171109723D02*
X47513159Y-170919247D01*
X47513159Y-170919247D02*
X47417921Y-170538295D01*
X47417921Y-170538295D02*
X47417921Y-170252580D01*
X47417921Y-170252580D02*
X47513159Y-169871628D01*
X47513159Y-169871628D02*
X47608397Y-169681152D01*
X47608397Y-169681152D02*
X47798873Y-169490676D01*
X47798873Y-169490676D02*
X48084588Y-169395438D01*
X48084588Y-169395438D02*
X48275064Y-169395438D01*
X48275064Y-169395438D02*
X48560778Y-169490676D01*
X48560778Y-169490676D02*
X48656016Y-169585914D01*
X49417921Y-171300200D02*
X49703635Y-171395438D01*
X49703635Y-171395438D02*
X50179826Y-171395438D01*
X50179826Y-171395438D02*
X50370302Y-171300200D01*
X50370302Y-171300200D02*
X50465540Y-171204961D01*
X50465540Y-171204961D02*
X50560778Y-171014485D01*
X50560778Y-171014485D02*
X50560778Y-170824009D01*
X50560778Y-170824009D02*
X50465540Y-170633533D01*
X50465540Y-170633533D02*
X50370302Y-170538295D01*
X50370302Y-170538295D02*
X50179826Y-170443057D01*
X50179826Y-170443057D02*
X49798873Y-170347819D01*
X49798873Y-170347819D02*
X49608397Y-170252580D01*
X49608397Y-170252580D02*
X49513159Y-170157342D01*
X49513159Y-170157342D02*
X49417921Y-169966866D01*
X49417921Y-169966866D02*
X49417921Y-169776390D01*
X49417921Y-169776390D02*
X49513159Y-169585914D01*
X49513159Y-169585914D02*
X49608397Y-169490676D01*
X49608397Y-169490676D02*
X49798873Y-169395438D01*
X49798873Y-169395438D02*
X50275064Y-169395438D01*
X50275064Y-169395438D02*
X50560778Y-169490676D01*
D10*
X47145863Y-192204028D02*
X47145863Y-190704028D01*
X47145863Y-190704028D02*
X48003006Y-192204028D01*
X48003006Y-192204028D02*
X48003006Y-190704028D01*
X48931578Y-192204028D02*
X48788721Y-192132600D01*
X48788721Y-192132600D02*
X48717292Y-192061171D01*
X48717292Y-192061171D02*
X48645864Y-191918314D01*
X48645864Y-191918314D02*
X48645864Y-191489742D01*
X48645864Y-191489742D02*
X48717292Y-191346885D01*
X48717292Y-191346885D02*
X48788721Y-191275457D01*
X48788721Y-191275457D02*
X48931578Y-191204028D01*
X48931578Y-191204028D02*
X49145864Y-191204028D01*
X49145864Y-191204028D02*
X49288721Y-191275457D01*
X49288721Y-191275457D02*
X49360150Y-191346885D01*
X49360150Y-191346885D02*
X49431578Y-191489742D01*
X49431578Y-191489742D02*
X49431578Y-191918314D01*
X49431578Y-191918314D02*
X49360150Y-192061171D01*
X49360150Y-192061171D02*
X49288721Y-192132600D01*
X49288721Y-192132600D02*
X49145864Y-192204028D01*
X49145864Y-192204028D02*
X48931578Y-192204028D01*
X15345863Y-192061171D02*
X15274435Y-192132600D01*
X15274435Y-192132600D02*
X15060149Y-192204028D01*
X15060149Y-192204028D02*
X14917292Y-192204028D01*
X14917292Y-192204028D02*
X14703006Y-192132600D01*
X14703006Y-192132600D02*
X14560149Y-191989742D01*
X14560149Y-191989742D02*
X14488720Y-191846885D01*
X14488720Y-191846885D02*
X14417292Y-191561171D01*
X14417292Y-191561171D02*
X14417292Y-191346885D01*
X14417292Y-191346885D02*
X14488720Y-191061171D01*
X14488720Y-191061171D02*
X14560149Y-190918314D01*
X14560149Y-190918314D02*
X14703006Y-190775457D01*
X14703006Y-190775457D02*
X14917292Y-190704028D01*
X14917292Y-190704028D02*
X15060149Y-190704028D01*
X15060149Y-190704028D02*
X15274435Y-190775457D01*
X15274435Y-190775457D02*
X15345863Y-190846885D01*
X16631578Y-192204028D02*
X16631578Y-191418314D01*
X16631578Y-191418314D02*
X16560149Y-191275457D01*
X16560149Y-191275457D02*
X16417292Y-191204028D01*
X16417292Y-191204028D02*
X16131578Y-191204028D01*
X16131578Y-191204028D02*
X15988720Y-191275457D01*
X16631578Y-192132600D02*
X16488720Y-192204028D01*
X16488720Y-192204028D02*
X16131578Y-192204028D01*
X16131578Y-192204028D02*
X15988720Y-192132600D01*
X15988720Y-192132600D02*
X15917292Y-191989742D01*
X15917292Y-191989742D02*
X15917292Y-191846885D01*
X15917292Y-191846885D02*
X15988720Y-191704028D01*
X15988720Y-191704028D02*
X16131578Y-191632600D01*
X16131578Y-191632600D02*
X16488720Y-191632600D01*
X16488720Y-191632600D02*
X16631578Y-191561171D01*
X17274435Y-192132600D02*
X17417292Y-192204028D01*
X17417292Y-192204028D02*
X17703006Y-192204028D01*
X17703006Y-192204028D02*
X17845863Y-192132600D01*
X17845863Y-192132600D02*
X17917292Y-191989742D01*
X17917292Y-191989742D02*
X17917292Y-191918314D01*
X17917292Y-191918314D02*
X17845863Y-191775457D01*
X17845863Y-191775457D02*
X17703006Y-191704028D01*
X17703006Y-191704028D02*
X17488721Y-191704028D01*
X17488721Y-191704028D02*
X17345863Y-191632600D01*
X17345863Y-191632600D02*
X17274435Y-191489742D01*
X17274435Y-191489742D02*
X17274435Y-191418314D01*
X17274435Y-191418314D02*
X17345863Y-191275457D01*
X17345863Y-191275457D02*
X17488721Y-191204028D01*
X17488721Y-191204028D02*
X17703006Y-191204028D01*
X17703006Y-191204028D02*
X17845863Y-191275457D01*
X18345864Y-191204028D02*
X18917292Y-191204028D01*
X18560149Y-190704028D02*
X18560149Y-191989742D01*
X18560149Y-191989742D02*
X18631578Y-192132600D01*
X18631578Y-192132600D02*
X18774435Y-192204028D01*
X18774435Y-192204028D02*
X18917292Y-192204028D01*
X19988721Y-192132600D02*
X19845864Y-192204028D01*
X19845864Y-192204028D02*
X19560150Y-192204028D01*
X19560150Y-192204028D02*
X19417292Y-192132600D01*
X19417292Y-192132600D02*
X19345864Y-191989742D01*
X19345864Y-191989742D02*
X19345864Y-191418314D01*
X19345864Y-191418314D02*
X19417292Y-191275457D01*
X19417292Y-191275457D02*
X19560150Y-191204028D01*
X19560150Y-191204028D02*
X19845864Y-191204028D01*
X19845864Y-191204028D02*
X19988721Y-191275457D01*
X19988721Y-191275457D02*
X20060150Y-191418314D01*
X20060150Y-191418314D02*
X20060150Y-191561171D01*
X20060150Y-191561171D02*
X19345864Y-191704028D01*
X20917292Y-192204028D02*
X20774435Y-192132600D01*
X20774435Y-192132600D02*
X20703006Y-191989742D01*
X20703006Y-191989742D02*
X20703006Y-190704028D01*
X21703006Y-192204028D02*
X21560149Y-192132600D01*
X21560149Y-192132600D02*
X21488720Y-191989742D01*
X21488720Y-191989742D02*
X21488720Y-190704028D01*
X22917292Y-192204028D02*
X22917292Y-191418314D01*
X22917292Y-191418314D02*
X22845863Y-191275457D01*
X22845863Y-191275457D02*
X22703006Y-191204028D01*
X22703006Y-191204028D02*
X22417292Y-191204028D01*
X22417292Y-191204028D02*
X22274434Y-191275457D01*
X22917292Y-192132600D02*
X22774434Y-192204028D01*
X22774434Y-192204028D02*
X22417292Y-192204028D01*
X22417292Y-192204028D02*
X22274434Y-192132600D01*
X22274434Y-192132600D02*
X22203006Y-191989742D01*
X22203006Y-191989742D02*
X22203006Y-191846885D01*
X22203006Y-191846885D02*
X22274434Y-191704028D01*
X22274434Y-191704028D02*
X22417292Y-191632600D01*
X22417292Y-191632600D02*
X22774434Y-191632600D01*
X22774434Y-191632600D02*
X22917292Y-191561171D01*
X23417292Y-191204028D02*
X23988720Y-191204028D01*
X23631577Y-190704028D02*
X23631577Y-191989742D01*
X23631577Y-191989742D02*
X23703006Y-192132600D01*
X23703006Y-192132600D02*
X23845863Y-192204028D01*
X23845863Y-192204028D02*
X23988720Y-192204028D01*
X25060149Y-192132600D02*
X24917292Y-192204028D01*
X24917292Y-192204028D02*
X24631578Y-192204028D01*
X24631578Y-192204028D02*
X24488720Y-192132600D01*
X24488720Y-192132600D02*
X24417292Y-191989742D01*
X24417292Y-191989742D02*
X24417292Y-191418314D01*
X24417292Y-191418314D02*
X24488720Y-191275457D01*
X24488720Y-191275457D02*
X24631578Y-191204028D01*
X24631578Y-191204028D02*
X24917292Y-191204028D01*
X24917292Y-191204028D02*
X25060149Y-191275457D01*
X25060149Y-191275457D02*
X25131578Y-191418314D01*
X25131578Y-191418314D02*
X25131578Y-191561171D01*
X25131578Y-191561171D02*
X24417292Y-191704028D01*
X26417292Y-192204028D02*
X26417292Y-190704028D01*
X26417292Y-192132600D02*
X26274434Y-192204028D01*
X26274434Y-192204028D02*
X25988720Y-192204028D01*
X25988720Y-192204028D02*
X25845863Y-192132600D01*
X25845863Y-192132600D02*
X25774434Y-192061171D01*
X25774434Y-192061171D02*
X25703006Y-191918314D01*
X25703006Y-191918314D02*
X25703006Y-191489742D01*
X25703006Y-191489742D02*
X25774434Y-191346885D01*
X25774434Y-191346885D02*
X25845863Y-191275457D01*
X25845863Y-191275457D02*
X25988720Y-191204028D01*
X25988720Y-191204028D02*
X26274434Y-191204028D01*
X26274434Y-191204028D02*
X26417292Y-191275457D01*
X28274434Y-191204028D02*
X28274434Y-192704028D01*
X28274434Y-191275457D02*
X28417292Y-191204028D01*
X28417292Y-191204028D02*
X28703006Y-191204028D01*
X28703006Y-191204028D02*
X28845863Y-191275457D01*
X28845863Y-191275457D02*
X28917292Y-191346885D01*
X28917292Y-191346885D02*
X28988720Y-191489742D01*
X28988720Y-191489742D02*
X28988720Y-191918314D01*
X28988720Y-191918314D02*
X28917292Y-192061171D01*
X28917292Y-192061171D02*
X28845863Y-192132600D01*
X28845863Y-192132600D02*
X28703006Y-192204028D01*
X28703006Y-192204028D02*
X28417292Y-192204028D01*
X28417292Y-192204028D02*
X28274434Y-192132600D01*
X30274435Y-192204028D02*
X30274435Y-191418314D01*
X30274435Y-191418314D02*
X30203006Y-191275457D01*
X30203006Y-191275457D02*
X30060149Y-191204028D01*
X30060149Y-191204028D02*
X29774435Y-191204028D01*
X29774435Y-191204028D02*
X29631577Y-191275457D01*
X30274435Y-192132600D02*
X30131577Y-192204028D01*
X30131577Y-192204028D02*
X29774435Y-192204028D01*
X29774435Y-192204028D02*
X29631577Y-192132600D01*
X29631577Y-192132600D02*
X29560149Y-191989742D01*
X29560149Y-191989742D02*
X29560149Y-191846885D01*
X29560149Y-191846885D02*
X29631577Y-191704028D01*
X29631577Y-191704028D02*
X29774435Y-191632600D01*
X29774435Y-191632600D02*
X30131577Y-191632600D01*
X30131577Y-191632600D02*
X30274435Y-191561171D01*
X31631578Y-192204028D02*
X31631578Y-190704028D01*
X31631578Y-192132600D02*
X31488720Y-192204028D01*
X31488720Y-192204028D02*
X31203006Y-192204028D01*
X31203006Y-192204028D02*
X31060149Y-192132600D01*
X31060149Y-192132600D02*
X30988720Y-192061171D01*
X30988720Y-192061171D02*
X30917292Y-191918314D01*
X30917292Y-191918314D02*
X30917292Y-191489742D01*
X30917292Y-191489742D02*
X30988720Y-191346885D01*
X30988720Y-191346885D02*
X31060149Y-191275457D01*
X31060149Y-191275457D02*
X31203006Y-191204028D01*
X31203006Y-191204028D02*
X31488720Y-191204028D01*
X31488720Y-191204028D02*
X31631578Y-191275457D01*
X32274435Y-192132600D02*
X32417292Y-192204028D01*
X32417292Y-192204028D02*
X32703006Y-192204028D01*
X32703006Y-192204028D02*
X32845863Y-192132600D01*
X32845863Y-192132600D02*
X32917292Y-191989742D01*
X32917292Y-191989742D02*
X32917292Y-191918314D01*
X32917292Y-191918314D02*
X32845863Y-191775457D01*
X32845863Y-191775457D02*
X32703006Y-191704028D01*
X32703006Y-191704028D02*
X32488721Y-191704028D01*
X32488721Y-191704028D02*
X32345863Y-191632600D01*
X32345863Y-191632600D02*
X32274435Y-191489742D01*
X32274435Y-191489742D02*
X32274435Y-191418314D01*
X32274435Y-191418314D02*
X32345863Y-191275457D01*
X32345863Y-191275457D02*
X32488721Y-191204028D01*
X32488721Y-191204028D02*
X32703006Y-191204028D01*
X32703006Y-191204028D02*
X32845863Y-191275457D01*
X33560149Y-192061171D02*
X33631578Y-192132600D01*
X33631578Y-192132600D02*
X33560149Y-192204028D01*
X33560149Y-192204028D02*
X33488721Y-192132600D01*
X33488721Y-192132600D02*
X33560149Y-192061171D01*
X33560149Y-192061171D02*
X33560149Y-192204028D01*
X33560149Y-191275457D02*
X33631578Y-191346885D01*
X33631578Y-191346885D02*
X33560149Y-191418314D01*
X33560149Y-191418314D02*
X33488721Y-191346885D01*
X33488721Y-191346885D02*
X33560149Y-191275457D01*
X33560149Y-191275457D02*
X33560149Y-191418314D01*
X47431578Y-182790028D02*
X47574435Y-182790028D01*
X47574435Y-182790028D02*
X47717292Y-182861457D01*
X47717292Y-182861457D02*
X47788721Y-182932885D01*
X47788721Y-182932885D02*
X47860149Y-183075742D01*
X47860149Y-183075742D02*
X47931578Y-183361457D01*
X47931578Y-183361457D02*
X47931578Y-183718600D01*
X47931578Y-183718600D02*
X47860149Y-184004314D01*
X47860149Y-184004314D02*
X47788721Y-184147171D01*
X47788721Y-184147171D02*
X47717292Y-184218600D01*
X47717292Y-184218600D02*
X47574435Y-184290028D01*
X47574435Y-184290028D02*
X47431578Y-184290028D01*
X47431578Y-184290028D02*
X47288721Y-184218600D01*
X47288721Y-184218600D02*
X47217292Y-184147171D01*
X47217292Y-184147171D02*
X47145863Y-184004314D01*
X47145863Y-184004314D02*
X47074435Y-183718600D01*
X47074435Y-183718600D02*
X47074435Y-183361457D01*
X47074435Y-183361457D02*
X47145863Y-183075742D01*
X47145863Y-183075742D02*
X47217292Y-182932885D01*
X47217292Y-182932885D02*
X47288721Y-182861457D01*
X47288721Y-182861457D02*
X47431578Y-182790028D01*
X48574434Y-184147171D02*
X48645863Y-184218600D01*
X48645863Y-184218600D02*
X48574434Y-184290028D01*
X48574434Y-184290028D02*
X48503006Y-184218600D01*
X48503006Y-184218600D02*
X48574434Y-184147171D01*
X48574434Y-184147171D02*
X48574434Y-184290028D01*
X50074435Y-184290028D02*
X49217292Y-184290028D01*
X49645863Y-184290028D02*
X49645863Y-182790028D01*
X49645863Y-182790028D02*
X49503006Y-183004314D01*
X49503006Y-183004314D02*
X49360149Y-183147171D01*
X49360149Y-183147171D02*
X49217292Y-183218600D01*
X51003006Y-182790028D02*
X51145863Y-182790028D01*
X51145863Y-182790028D02*
X51288720Y-182861457D01*
X51288720Y-182861457D02*
X51360149Y-182932885D01*
X51360149Y-182932885D02*
X51431577Y-183075742D01*
X51431577Y-183075742D02*
X51503006Y-183361457D01*
X51503006Y-183361457D02*
X51503006Y-183718600D01*
X51503006Y-183718600D02*
X51431577Y-184004314D01*
X51431577Y-184004314D02*
X51360149Y-184147171D01*
X51360149Y-184147171D02*
X51288720Y-184218600D01*
X51288720Y-184218600D02*
X51145863Y-184290028D01*
X51145863Y-184290028D02*
X51003006Y-184290028D01*
X51003006Y-184290028D02*
X50860149Y-184218600D01*
X50860149Y-184218600D02*
X50788720Y-184147171D01*
X50788720Y-184147171D02*
X50717291Y-184004314D01*
X50717291Y-184004314D02*
X50645863Y-183718600D01*
X50645863Y-183718600D02*
X50645863Y-183361457D01*
X50645863Y-183361457D02*
X50717291Y-183075742D01*
X50717291Y-183075742D02*
X50788720Y-182932885D01*
X50788720Y-182932885D02*
X50860149Y-182861457D01*
X50860149Y-182861457D02*
X51003006Y-182790028D01*
X52431577Y-182790028D02*
X52574434Y-182790028D01*
X52574434Y-182790028D02*
X52717291Y-182861457D01*
X52717291Y-182861457D02*
X52788720Y-182932885D01*
X52788720Y-182932885D02*
X52860148Y-183075742D01*
X52860148Y-183075742D02*
X52931577Y-183361457D01*
X52931577Y-183361457D02*
X52931577Y-183718600D01*
X52931577Y-183718600D02*
X52860148Y-184004314D01*
X52860148Y-184004314D02*
X52788720Y-184147171D01*
X52788720Y-184147171D02*
X52717291Y-184218600D01*
X52717291Y-184218600D02*
X52574434Y-184290028D01*
X52574434Y-184290028D02*
X52431577Y-184290028D01*
X52431577Y-184290028D02*
X52288720Y-184218600D01*
X52288720Y-184218600D02*
X52217291Y-184147171D01*
X52217291Y-184147171D02*
X52145862Y-184004314D01*
X52145862Y-184004314D02*
X52074434Y-183718600D01*
X52074434Y-183718600D02*
X52074434Y-183361457D01*
X52074434Y-183361457D02*
X52145862Y-183075742D01*
X52145862Y-183075742D02*
X52217291Y-182932885D01*
X52217291Y-182932885D02*
X52288720Y-182861457D01*
X52288720Y-182861457D02*
X52431577Y-182790028D01*
X53860148Y-182790028D02*
X54003005Y-182790028D01*
X54003005Y-182790028D02*
X54145862Y-182861457D01*
X54145862Y-182861457D02*
X54217291Y-182932885D01*
X54217291Y-182932885D02*
X54288719Y-183075742D01*
X54288719Y-183075742D02*
X54360148Y-183361457D01*
X54360148Y-183361457D02*
X54360148Y-183718600D01*
X54360148Y-183718600D02*
X54288719Y-184004314D01*
X54288719Y-184004314D02*
X54217291Y-184147171D01*
X54217291Y-184147171D02*
X54145862Y-184218600D01*
X54145862Y-184218600D02*
X54003005Y-184290028D01*
X54003005Y-184290028D02*
X53860148Y-184290028D01*
X53860148Y-184290028D02*
X53717291Y-184218600D01*
X53717291Y-184218600D02*
X53645862Y-184147171D01*
X53645862Y-184147171D02*
X53574433Y-184004314D01*
X53574433Y-184004314D02*
X53503005Y-183718600D01*
X53503005Y-183718600D02*
X53503005Y-183361457D01*
X53503005Y-183361457D02*
X53574433Y-183075742D01*
X53574433Y-183075742D02*
X53645862Y-182932885D01*
X53645862Y-182932885D02*
X53717291Y-182861457D01*
X53717291Y-182861457D02*
X53860148Y-182790028D01*
X56145861Y-184290028D02*
X56145861Y-183290028D01*
X56145861Y-183432885D02*
X56217290Y-183361457D01*
X56217290Y-183361457D02*
X56360147Y-183290028D01*
X56360147Y-183290028D02*
X56574433Y-183290028D01*
X56574433Y-183290028D02*
X56717290Y-183361457D01*
X56717290Y-183361457D02*
X56788719Y-183504314D01*
X56788719Y-183504314D02*
X56788719Y-184290028D01*
X56788719Y-183504314D02*
X56860147Y-183361457D01*
X56860147Y-183361457D02*
X57003004Y-183290028D01*
X57003004Y-183290028D02*
X57217290Y-183290028D01*
X57217290Y-183290028D02*
X57360147Y-183361457D01*
X57360147Y-183361457D02*
X57431576Y-183504314D01*
X57431576Y-183504314D02*
X57431576Y-184290028D01*
X58145861Y-184290028D02*
X58145861Y-183290028D01*
X58145861Y-183432885D02*
X58217290Y-183361457D01*
X58217290Y-183361457D02*
X58360147Y-183290028D01*
X58360147Y-183290028D02*
X58574433Y-183290028D01*
X58574433Y-183290028D02*
X58717290Y-183361457D01*
X58717290Y-183361457D02*
X58788719Y-183504314D01*
X58788719Y-183504314D02*
X58788719Y-184290028D01*
X58788719Y-183504314D02*
X58860147Y-183361457D01*
X58860147Y-183361457D02*
X59003004Y-183290028D01*
X59003004Y-183290028D02*
X59217290Y-183290028D01*
X59217290Y-183290028D02*
X59360147Y-183361457D01*
X59360147Y-183361457D02*
X59431576Y-183504314D01*
X59431576Y-183504314D02*
X59431576Y-184290028D01*
X62360147Y-182718600D02*
X61074433Y-184647171D01*
X64288719Y-182790028D02*
X64431576Y-182790028D01*
X64431576Y-182790028D02*
X64574433Y-182861457D01*
X64574433Y-182861457D02*
X64645862Y-182932885D01*
X64645862Y-182932885D02*
X64717290Y-183075742D01*
X64717290Y-183075742D02*
X64788719Y-183361457D01*
X64788719Y-183361457D02*
X64788719Y-183718600D01*
X64788719Y-183718600D02*
X64717290Y-184004314D01*
X64717290Y-184004314D02*
X64645862Y-184147171D01*
X64645862Y-184147171D02*
X64574433Y-184218600D01*
X64574433Y-184218600D02*
X64431576Y-184290028D01*
X64431576Y-184290028D02*
X64288719Y-184290028D01*
X64288719Y-184290028D02*
X64145862Y-184218600D01*
X64145862Y-184218600D02*
X64074433Y-184147171D01*
X64074433Y-184147171D02*
X64003004Y-184004314D01*
X64003004Y-184004314D02*
X63931576Y-183718600D01*
X63931576Y-183718600D02*
X63931576Y-183361457D01*
X63931576Y-183361457D02*
X64003004Y-183075742D01*
X64003004Y-183075742D02*
X64074433Y-182932885D01*
X64074433Y-182932885D02*
X64145862Y-182861457D01*
X64145862Y-182861457D02*
X64288719Y-182790028D01*
X65431575Y-184147171D02*
X65503004Y-184218600D01*
X65503004Y-184218600D02*
X65431575Y-184290028D01*
X65431575Y-184290028D02*
X65360147Y-184218600D01*
X65360147Y-184218600D02*
X65431575Y-184147171D01*
X65431575Y-184147171D02*
X65431575Y-184290028D01*
X66931576Y-184290028D02*
X66074433Y-184290028D01*
X66503004Y-184290028D02*
X66503004Y-182790028D01*
X66503004Y-182790028D02*
X66360147Y-183004314D01*
X66360147Y-183004314D02*
X66217290Y-183147171D01*
X66217290Y-183147171D02*
X66074433Y-183218600D01*
X67860147Y-182790028D02*
X68003004Y-182790028D01*
X68003004Y-182790028D02*
X68145861Y-182861457D01*
X68145861Y-182861457D02*
X68217290Y-182932885D01*
X68217290Y-182932885D02*
X68288718Y-183075742D01*
X68288718Y-183075742D02*
X68360147Y-183361457D01*
X68360147Y-183361457D02*
X68360147Y-183718600D01*
X68360147Y-183718600D02*
X68288718Y-184004314D01*
X68288718Y-184004314D02*
X68217290Y-184147171D01*
X68217290Y-184147171D02*
X68145861Y-184218600D01*
X68145861Y-184218600D02*
X68003004Y-184290028D01*
X68003004Y-184290028D02*
X67860147Y-184290028D01*
X67860147Y-184290028D02*
X67717290Y-184218600D01*
X67717290Y-184218600D02*
X67645861Y-184147171D01*
X67645861Y-184147171D02*
X67574432Y-184004314D01*
X67574432Y-184004314D02*
X67503004Y-183718600D01*
X67503004Y-183718600D02*
X67503004Y-183361457D01*
X67503004Y-183361457D02*
X67574432Y-183075742D01*
X67574432Y-183075742D02*
X67645861Y-182932885D01*
X67645861Y-182932885D02*
X67717290Y-182861457D01*
X67717290Y-182861457D02*
X67860147Y-182790028D01*
X69288718Y-182790028D02*
X69431575Y-182790028D01*
X69431575Y-182790028D02*
X69574432Y-182861457D01*
X69574432Y-182861457D02*
X69645861Y-182932885D01*
X69645861Y-182932885D02*
X69717289Y-183075742D01*
X69717289Y-183075742D02*
X69788718Y-183361457D01*
X69788718Y-183361457D02*
X69788718Y-183718600D01*
X69788718Y-183718600D02*
X69717289Y-184004314D01*
X69717289Y-184004314D02*
X69645861Y-184147171D01*
X69645861Y-184147171D02*
X69574432Y-184218600D01*
X69574432Y-184218600D02*
X69431575Y-184290028D01*
X69431575Y-184290028D02*
X69288718Y-184290028D01*
X69288718Y-184290028D02*
X69145861Y-184218600D01*
X69145861Y-184218600D02*
X69074432Y-184147171D01*
X69074432Y-184147171D02*
X69003003Y-184004314D01*
X69003003Y-184004314D02*
X68931575Y-183718600D01*
X68931575Y-183718600D02*
X68931575Y-183361457D01*
X68931575Y-183361457D02*
X69003003Y-183075742D01*
X69003003Y-183075742D02*
X69074432Y-182932885D01*
X69074432Y-182932885D02*
X69145861Y-182861457D01*
X69145861Y-182861457D02*
X69288718Y-182790028D01*
X70717289Y-182790028D02*
X70860146Y-182790028D01*
X70860146Y-182790028D02*
X71003003Y-182861457D01*
X71003003Y-182861457D02*
X71074432Y-182932885D01*
X71074432Y-182932885D02*
X71145860Y-183075742D01*
X71145860Y-183075742D02*
X71217289Y-183361457D01*
X71217289Y-183361457D02*
X71217289Y-183718600D01*
X71217289Y-183718600D02*
X71145860Y-184004314D01*
X71145860Y-184004314D02*
X71074432Y-184147171D01*
X71074432Y-184147171D02*
X71003003Y-184218600D01*
X71003003Y-184218600D02*
X70860146Y-184290028D01*
X70860146Y-184290028D02*
X70717289Y-184290028D01*
X70717289Y-184290028D02*
X70574432Y-184218600D01*
X70574432Y-184218600D02*
X70503003Y-184147171D01*
X70503003Y-184147171D02*
X70431574Y-184004314D01*
X70431574Y-184004314D02*
X70360146Y-183718600D01*
X70360146Y-183718600D02*
X70360146Y-183361457D01*
X70360146Y-183361457D02*
X70431574Y-183075742D01*
X70431574Y-183075742D02*
X70503003Y-182932885D01*
X70503003Y-182932885D02*
X70574432Y-182861457D01*
X70574432Y-182861457D02*
X70717289Y-182790028D01*
X73003002Y-184290028D02*
X73003002Y-183290028D01*
X73003002Y-183432885D02*
X73074431Y-183361457D01*
X73074431Y-183361457D02*
X73217288Y-183290028D01*
X73217288Y-183290028D02*
X73431574Y-183290028D01*
X73431574Y-183290028D02*
X73574431Y-183361457D01*
X73574431Y-183361457D02*
X73645860Y-183504314D01*
X73645860Y-183504314D02*
X73645860Y-184290028D01*
X73645860Y-183504314D02*
X73717288Y-183361457D01*
X73717288Y-183361457D02*
X73860145Y-183290028D01*
X73860145Y-183290028D02*
X74074431Y-183290028D01*
X74074431Y-183290028D02*
X74217288Y-183361457D01*
X74217288Y-183361457D02*
X74288717Y-183504314D01*
X74288717Y-183504314D02*
X74288717Y-184290028D01*
X75003002Y-184290028D02*
X75003002Y-183290028D01*
X75003002Y-183432885D02*
X75074431Y-183361457D01*
X75074431Y-183361457D02*
X75217288Y-183290028D01*
X75217288Y-183290028D02*
X75431574Y-183290028D01*
X75431574Y-183290028D02*
X75574431Y-183361457D01*
X75574431Y-183361457D02*
X75645860Y-183504314D01*
X75645860Y-183504314D02*
X75645860Y-184290028D01*
X75645860Y-183504314D02*
X75717288Y-183361457D01*
X75717288Y-183361457D02*
X75860145Y-183290028D01*
X75860145Y-183290028D02*
X76074431Y-183290028D01*
X76074431Y-183290028D02*
X76217288Y-183361457D01*
X76217288Y-183361457D02*
X76288717Y-183504314D01*
X76288717Y-183504314D02*
X76288717Y-184290028D01*
X81303001Y-184290028D02*
X81303001Y-182790028D01*
X81303001Y-182790028D02*
X81803001Y-183861457D01*
X81803001Y-183861457D02*
X82303001Y-182790028D01*
X82303001Y-182790028D02*
X82303001Y-184290028D01*
X83017287Y-184290028D02*
X83017287Y-183290028D01*
X83017287Y-182790028D02*
X82945859Y-182861457D01*
X82945859Y-182861457D02*
X83017287Y-182932885D01*
X83017287Y-182932885D02*
X83088716Y-182861457D01*
X83088716Y-182861457D02*
X83017287Y-182790028D01*
X83017287Y-182790028D02*
X83017287Y-182932885D01*
X83731573Y-183290028D02*
X83731573Y-184290028D01*
X83731573Y-183432885D02*
X83803002Y-183361457D01*
X83803002Y-183361457D02*
X83945859Y-183290028D01*
X83945859Y-183290028D02*
X84160145Y-183290028D01*
X84160145Y-183290028D02*
X84303002Y-183361457D01*
X84303002Y-183361457D02*
X84374431Y-183504314D01*
X84374431Y-183504314D02*
X84374431Y-184290028D01*
X86231573Y-184290028D02*
X86231573Y-182790028D01*
X86874431Y-184290028D02*
X86874431Y-183504314D01*
X86874431Y-183504314D02*
X86803002Y-183361457D01*
X86803002Y-183361457D02*
X86660145Y-183290028D01*
X86660145Y-183290028D02*
X86445859Y-183290028D01*
X86445859Y-183290028D02*
X86303002Y-183361457D01*
X86303002Y-183361457D02*
X86231573Y-183432885D01*
X87803002Y-184290028D02*
X87660145Y-184218600D01*
X87660145Y-184218600D02*
X87588716Y-184147171D01*
X87588716Y-184147171D02*
X87517288Y-184004314D01*
X87517288Y-184004314D02*
X87517288Y-183575742D01*
X87517288Y-183575742D02*
X87588716Y-183432885D01*
X87588716Y-183432885D02*
X87660145Y-183361457D01*
X87660145Y-183361457D02*
X87803002Y-183290028D01*
X87803002Y-183290028D02*
X88017288Y-183290028D01*
X88017288Y-183290028D02*
X88160145Y-183361457D01*
X88160145Y-183361457D02*
X88231574Y-183432885D01*
X88231574Y-183432885D02*
X88303002Y-183575742D01*
X88303002Y-183575742D02*
X88303002Y-184004314D01*
X88303002Y-184004314D02*
X88231574Y-184147171D01*
X88231574Y-184147171D02*
X88160145Y-184218600D01*
X88160145Y-184218600D02*
X88017288Y-184290028D01*
X88017288Y-184290028D02*
X87803002Y-184290028D01*
X89160145Y-184290028D02*
X89017288Y-184218600D01*
X89017288Y-184218600D02*
X88945859Y-184075742D01*
X88945859Y-184075742D02*
X88945859Y-182790028D01*
X90303002Y-184218600D02*
X90160145Y-184290028D01*
X90160145Y-184290028D02*
X89874431Y-184290028D01*
X89874431Y-184290028D02*
X89731573Y-184218600D01*
X89731573Y-184218600D02*
X89660145Y-184075742D01*
X89660145Y-184075742D02*
X89660145Y-183504314D01*
X89660145Y-183504314D02*
X89731573Y-183361457D01*
X89731573Y-183361457D02*
X89874431Y-183290028D01*
X89874431Y-183290028D02*
X90160145Y-183290028D01*
X90160145Y-183290028D02*
X90303002Y-183361457D01*
X90303002Y-183361457D02*
X90374431Y-183504314D01*
X90374431Y-183504314D02*
X90374431Y-183647171D01*
X90374431Y-183647171D02*
X89660145Y-183790028D01*
X92803002Y-184290028D02*
X92803002Y-182790028D01*
X92803002Y-184218600D02*
X92660144Y-184290028D01*
X92660144Y-184290028D02*
X92374430Y-184290028D01*
X92374430Y-184290028D02*
X92231573Y-184218600D01*
X92231573Y-184218600D02*
X92160144Y-184147171D01*
X92160144Y-184147171D02*
X92088716Y-184004314D01*
X92088716Y-184004314D02*
X92088716Y-183575742D01*
X92088716Y-183575742D02*
X92160144Y-183432885D01*
X92160144Y-183432885D02*
X92231573Y-183361457D01*
X92231573Y-183361457D02*
X92374430Y-183290028D01*
X92374430Y-183290028D02*
X92660144Y-183290028D01*
X92660144Y-183290028D02*
X92803002Y-183361457D01*
X93517287Y-184290028D02*
X93517287Y-183290028D01*
X93517287Y-182790028D02*
X93445859Y-182861457D01*
X93445859Y-182861457D02*
X93517287Y-182932885D01*
X93517287Y-182932885D02*
X93588716Y-182861457D01*
X93588716Y-182861457D02*
X93517287Y-182790028D01*
X93517287Y-182790028D02*
X93517287Y-182932885D01*
X94874431Y-184290028D02*
X94874431Y-183504314D01*
X94874431Y-183504314D02*
X94803002Y-183361457D01*
X94803002Y-183361457D02*
X94660145Y-183290028D01*
X94660145Y-183290028D02*
X94374431Y-183290028D01*
X94374431Y-183290028D02*
X94231573Y-183361457D01*
X94874431Y-184218600D02*
X94731573Y-184290028D01*
X94731573Y-184290028D02*
X94374431Y-184290028D01*
X94374431Y-184290028D02*
X94231573Y-184218600D01*
X94231573Y-184218600D02*
X94160145Y-184075742D01*
X94160145Y-184075742D02*
X94160145Y-183932885D01*
X94160145Y-183932885D02*
X94231573Y-183790028D01*
X94231573Y-183790028D02*
X94374431Y-183718600D01*
X94374431Y-183718600D02*
X94731573Y-183718600D01*
X94731573Y-183718600D02*
X94874431Y-183647171D01*
X95588716Y-184290028D02*
X95588716Y-183290028D01*
X95588716Y-183432885D02*
X95660145Y-183361457D01*
X95660145Y-183361457D02*
X95803002Y-183290028D01*
X95803002Y-183290028D02*
X96017288Y-183290028D01*
X96017288Y-183290028D02*
X96160145Y-183361457D01*
X96160145Y-183361457D02*
X96231574Y-183504314D01*
X96231574Y-183504314D02*
X96231574Y-184290028D01*
X96231574Y-183504314D02*
X96303002Y-183361457D01*
X96303002Y-183361457D02*
X96445859Y-183290028D01*
X96445859Y-183290028D02*
X96660145Y-183290028D01*
X96660145Y-183290028D02*
X96803002Y-183361457D01*
X96803002Y-183361457D02*
X96874431Y-183504314D01*
X96874431Y-183504314D02*
X96874431Y-184290028D01*
X98160145Y-184218600D02*
X98017288Y-184290028D01*
X98017288Y-184290028D02*
X97731574Y-184290028D01*
X97731574Y-184290028D02*
X97588716Y-184218600D01*
X97588716Y-184218600D02*
X97517288Y-184075742D01*
X97517288Y-184075742D02*
X97517288Y-183504314D01*
X97517288Y-183504314D02*
X97588716Y-183361457D01*
X97588716Y-183361457D02*
X97731574Y-183290028D01*
X97731574Y-183290028D02*
X98017288Y-183290028D01*
X98017288Y-183290028D02*
X98160145Y-183361457D01*
X98160145Y-183361457D02*
X98231574Y-183504314D01*
X98231574Y-183504314D02*
X98231574Y-183647171D01*
X98231574Y-183647171D02*
X97517288Y-183790028D01*
X98660145Y-183290028D02*
X99231573Y-183290028D01*
X98874430Y-182790028D02*
X98874430Y-184075742D01*
X98874430Y-184075742D02*
X98945859Y-184218600D01*
X98945859Y-184218600D02*
X99088716Y-184290028D01*
X99088716Y-184290028D02*
X99231573Y-184290028D01*
X100303002Y-184218600D02*
X100160145Y-184290028D01*
X100160145Y-184290028D02*
X99874431Y-184290028D01*
X99874431Y-184290028D02*
X99731573Y-184218600D01*
X99731573Y-184218600D02*
X99660145Y-184075742D01*
X99660145Y-184075742D02*
X99660145Y-183504314D01*
X99660145Y-183504314D02*
X99731573Y-183361457D01*
X99731573Y-183361457D02*
X99874431Y-183290028D01*
X99874431Y-183290028D02*
X100160145Y-183290028D01*
X100160145Y-183290028D02*
X100303002Y-183361457D01*
X100303002Y-183361457D02*
X100374431Y-183504314D01*
X100374431Y-183504314D02*
X100374431Y-183647171D01*
X100374431Y-183647171D02*
X99660145Y-183790028D01*
X101017287Y-184290028D02*
X101017287Y-183290028D01*
X101017287Y-183575742D02*
X101088716Y-183432885D01*
X101088716Y-183432885D02*
X101160145Y-183361457D01*
X101160145Y-183361457D02*
X101303002Y-183290028D01*
X101303002Y-183290028D02*
X101445859Y-183290028D01*
X101945858Y-184147171D02*
X102017287Y-184218600D01*
X102017287Y-184218600D02*
X101945858Y-184290028D01*
X101945858Y-184290028D02*
X101874430Y-184218600D01*
X101874430Y-184218600D02*
X101945858Y-184147171D01*
X101945858Y-184147171D02*
X101945858Y-184290028D01*
X101945858Y-183361457D02*
X102017287Y-183432885D01*
X102017287Y-183432885D02*
X101945858Y-183504314D01*
X101945858Y-183504314D02*
X101874430Y-183432885D01*
X101874430Y-183432885D02*
X101945858Y-183361457D01*
X101945858Y-183361457D02*
X101945858Y-183504314D01*
X47788721Y-175376028D02*
X47788721Y-176376028D01*
X47431578Y-174804600D02*
X47074435Y-175876028D01*
X47074435Y-175876028D02*
X48003006Y-175876028D01*
X15345863Y-188104171D02*
X15274435Y-188175600D01*
X15274435Y-188175600D02*
X15060149Y-188247028D01*
X15060149Y-188247028D02*
X14917292Y-188247028D01*
X14917292Y-188247028D02*
X14703006Y-188175600D01*
X14703006Y-188175600D02*
X14560149Y-188032742D01*
X14560149Y-188032742D02*
X14488720Y-187889885D01*
X14488720Y-187889885D02*
X14417292Y-187604171D01*
X14417292Y-187604171D02*
X14417292Y-187389885D01*
X14417292Y-187389885D02*
X14488720Y-187104171D01*
X14488720Y-187104171D02*
X14560149Y-186961314D01*
X14560149Y-186961314D02*
X14703006Y-186818457D01*
X14703006Y-186818457D02*
X14917292Y-186747028D01*
X14917292Y-186747028D02*
X15060149Y-186747028D01*
X15060149Y-186747028D02*
X15274435Y-186818457D01*
X15274435Y-186818457D02*
X15345863Y-186889885D01*
X16203006Y-188247028D02*
X16060149Y-188175600D01*
X16060149Y-188175600D02*
X15988720Y-188104171D01*
X15988720Y-188104171D02*
X15917292Y-187961314D01*
X15917292Y-187961314D02*
X15917292Y-187532742D01*
X15917292Y-187532742D02*
X15988720Y-187389885D01*
X15988720Y-187389885D02*
X16060149Y-187318457D01*
X16060149Y-187318457D02*
X16203006Y-187247028D01*
X16203006Y-187247028D02*
X16417292Y-187247028D01*
X16417292Y-187247028D02*
X16560149Y-187318457D01*
X16560149Y-187318457D02*
X16631578Y-187389885D01*
X16631578Y-187389885D02*
X16703006Y-187532742D01*
X16703006Y-187532742D02*
X16703006Y-187961314D01*
X16703006Y-187961314D02*
X16631578Y-188104171D01*
X16631578Y-188104171D02*
X16560149Y-188175600D01*
X16560149Y-188175600D02*
X16417292Y-188247028D01*
X16417292Y-188247028D02*
X16203006Y-188247028D01*
X17345863Y-187247028D02*
X17345863Y-188747028D01*
X17345863Y-187318457D02*
X17488721Y-187247028D01*
X17488721Y-187247028D02*
X17774435Y-187247028D01*
X17774435Y-187247028D02*
X17917292Y-187318457D01*
X17917292Y-187318457D02*
X17988721Y-187389885D01*
X17988721Y-187389885D02*
X18060149Y-187532742D01*
X18060149Y-187532742D02*
X18060149Y-187961314D01*
X18060149Y-187961314D02*
X17988721Y-188104171D01*
X17988721Y-188104171D02*
X17917292Y-188175600D01*
X17917292Y-188175600D02*
X17774435Y-188247028D01*
X17774435Y-188247028D02*
X17488721Y-188247028D01*
X17488721Y-188247028D02*
X17345863Y-188175600D01*
X18703006Y-187247028D02*
X18703006Y-188747028D01*
X18703006Y-187318457D02*
X18845864Y-187247028D01*
X18845864Y-187247028D02*
X19131578Y-187247028D01*
X19131578Y-187247028D02*
X19274435Y-187318457D01*
X19274435Y-187318457D02*
X19345864Y-187389885D01*
X19345864Y-187389885D02*
X19417292Y-187532742D01*
X19417292Y-187532742D02*
X19417292Y-187961314D01*
X19417292Y-187961314D02*
X19345864Y-188104171D01*
X19345864Y-188104171D02*
X19274435Y-188175600D01*
X19274435Y-188175600D02*
X19131578Y-188247028D01*
X19131578Y-188247028D02*
X18845864Y-188247028D01*
X18845864Y-188247028D02*
X18703006Y-188175600D01*
X20631578Y-188175600D02*
X20488721Y-188247028D01*
X20488721Y-188247028D02*
X20203007Y-188247028D01*
X20203007Y-188247028D02*
X20060149Y-188175600D01*
X20060149Y-188175600D02*
X19988721Y-188032742D01*
X19988721Y-188032742D02*
X19988721Y-187461314D01*
X19988721Y-187461314D02*
X20060149Y-187318457D01*
X20060149Y-187318457D02*
X20203007Y-187247028D01*
X20203007Y-187247028D02*
X20488721Y-187247028D01*
X20488721Y-187247028D02*
X20631578Y-187318457D01*
X20631578Y-187318457D02*
X20703007Y-187461314D01*
X20703007Y-187461314D02*
X20703007Y-187604171D01*
X20703007Y-187604171D02*
X19988721Y-187747028D01*
X21345863Y-188247028D02*
X21345863Y-187247028D01*
X21345863Y-187532742D02*
X21417292Y-187389885D01*
X21417292Y-187389885D02*
X21488721Y-187318457D01*
X21488721Y-187318457D02*
X21631578Y-187247028D01*
X21631578Y-187247028D02*
X21774435Y-187247028D01*
X23917291Y-187461314D02*
X23417291Y-187461314D01*
X23417291Y-188247028D02*
X23417291Y-186747028D01*
X23417291Y-186747028D02*
X24131577Y-186747028D01*
X24703005Y-188247028D02*
X24703005Y-187247028D01*
X24703005Y-186747028D02*
X24631577Y-186818457D01*
X24631577Y-186818457D02*
X24703005Y-186889885D01*
X24703005Y-186889885D02*
X24774434Y-186818457D01*
X24774434Y-186818457D02*
X24703005Y-186747028D01*
X24703005Y-186747028D02*
X24703005Y-186889885D01*
X25417291Y-187247028D02*
X25417291Y-188247028D01*
X25417291Y-187389885D02*
X25488720Y-187318457D01*
X25488720Y-187318457D02*
X25631577Y-187247028D01*
X25631577Y-187247028D02*
X25845863Y-187247028D01*
X25845863Y-187247028D02*
X25988720Y-187318457D01*
X25988720Y-187318457D02*
X26060149Y-187461314D01*
X26060149Y-187461314D02*
X26060149Y-188247028D01*
X26774434Y-188247028D02*
X26774434Y-187247028D01*
X26774434Y-186747028D02*
X26703006Y-186818457D01*
X26703006Y-186818457D02*
X26774434Y-186889885D01*
X26774434Y-186889885D02*
X26845863Y-186818457D01*
X26845863Y-186818457D02*
X26774434Y-186747028D01*
X26774434Y-186747028D02*
X26774434Y-186889885D01*
X27417292Y-188175600D02*
X27560149Y-188247028D01*
X27560149Y-188247028D02*
X27845863Y-188247028D01*
X27845863Y-188247028D02*
X27988720Y-188175600D01*
X27988720Y-188175600D02*
X28060149Y-188032742D01*
X28060149Y-188032742D02*
X28060149Y-187961314D01*
X28060149Y-187961314D02*
X27988720Y-187818457D01*
X27988720Y-187818457D02*
X27845863Y-187747028D01*
X27845863Y-187747028D02*
X27631578Y-187747028D01*
X27631578Y-187747028D02*
X27488720Y-187675600D01*
X27488720Y-187675600D02*
X27417292Y-187532742D01*
X27417292Y-187532742D02*
X27417292Y-187461314D01*
X27417292Y-187461314D02*
X27488720Y-187318457D01*
X27488720Y-187318457D02*
X27631578Y-187247028D01*
X27631578Y-187247028D02*
X27845863Y-187247028D01*
X27845863Y-187247028D02*
X27988720Y-187318457D01*
X28703006Y-188247028D02*
X28703006Y-186747028D01*
X29345864Y-188247028D02*
X29345864Y-187461314D01*
X29345864Y-187461314D02*
X29274435Y-187318457D01*
X29274435Y-187318457D02*
X29131578Y-187247028D01*
X29131578Y-187247028D02*
X28917292Y-187247028D01*
X28917292Y-187247028D02*
X28774435Y-187318457D01*
X28774435Y-187318457D02*
X28703006Y-187389885D01*
X30060149Y-188104171D02*
X30131578Y-188175600D01*
X30131578Y-188175600D02*
X30060149Y-188247028D01*
X30060149Y-188247028D02*
X29988721Y-188175600D01*
X29988721Y-188175600D02*
X30060149Y-188104171D01*
X30060149Y-188104171D02*
X30060149Y-188247028D01*
X30060149Y-187318457D02*
X30131578Y-187389885D01*
X30131578Y-187389885D02*
X30060149Y-187461314D01*
X30060149Y-187461314D02*
X29988721Y-187389885D01*
X29988721Y-187389885D02*
X30060149Y-187318457D01*
X30060149Y-187318457D02*
X30060149Y-187461314D01*
X81303001Y-188247028D02*
X81303001Y-186747028D01*
X82017287Y-188247028D02*
X82017287Y-187247028D01*
X82017287Y-187389885D02*
X82088716Y-187318457D01*
X82088716Y-187318457D02*
X82231573Y-187247028D01*
X82231573Y-187247028D02*
X82445859Y-187247028D01*
X82445859Y-187247028D02*
X82588716Y-187318457D01*
X82588716Y-187318457D02*
X82660145Y-187461314D01*
X82660145Y-187461314D02*
X82660145Y-188247028D01*
X82660145Y-187461314D02*
X82731573Y-187318457D01*
X82731573Y-187318457D02*
X82874430Y-187247028D01*
X82874430Y-187247028D02*
X83088716Y-187247028D01*
X83088716Y-187247028D02*
X83231573Y-187318457D01*
X83231573Y-187318457D02*
X83303002Y-187461314D01*
X83303002Y-187461314D02*
X83303002Y-188247028D01*
X84017287Y-187247028D02*
X84017287Y-188747028D01*
X84017287Y-187318457D02*
X84160145Y-187247028D01*
X84160145Y-187247028D02*
X84445859Y-187247028D01*
X84445859Y-187247028D02*
X84588716Y-187318457D01*
X84588716Y-187318457D02*
X84660145Y-187389885D01*
X84660145Y-187389885D02*
X84731573Y-187532742D01*
X84731573Y-187532742D02*
X84731573Y-187961314D01*
X84731573Y-187961314D02*
X84660145Y-188104171D01*
X84660145Y-188104171D02*
X84588716Y-188175600D01*
X84588716Y-188175600D02*
X84445859Y-188247028D01*
X84445859Y-188247028D02*
X84160145Y-188247028D01*
X84160145Y-188247028D02*
X84017287Y-188175600D01*
X85945859Y-188175600D02*
X85803002Y-188247028D01*
X85803002Y-188247028D02*
X85517288Y-188247028D01*
X85517288Y-188247028D02*
X85374430Y-188175600D01*
X85374430Y-188175600D02*
X85303002Y-188032742D01*
X85303002Y-188032742D02*
X85303002Y-187461314D01*
X85303002Y-187461314D02*
X85374430Y-187318457D01*
X85374430Y-187318457D02*
X85517288Y-187247028D01*
X85517288Y-187247028D02*
X85803002Y-187247028D01*
X85803002Y-187247028D02*
X85945859Y-187318457D01*
X85945859Y-187318457D02*
X86017288Y-187461314D01*
X86017288Y-187461314D02*
X86017288Y-187604171D01*
X86017288Y-187604171D02*
X85303002Y-187747028D01*
X87303002Y-188247028D02*
X87303002Y-186747028D01*
X87303002Y-188175600D02*
X87160144Y-188247028D01*
X87160144Y-188247028D02*
X86874430Y-188247028D01*
X86874430Y-188247028D02*
X86731573Y-188175600D01*
X86731573Y-188175600D02*
X86660144Y-188104171D01*
X86660144Y-188104171D02*
X86588716Y-187961314D01*
X86588716Y-187961314D02*
X86588716Y-187532742D01*
X86588716Y-187532742D02*
X86660144Y-187389885D01*
X86660144Y-187389885D02*
X86731573Y-187318457D01*
X86731573Y-187318457D02*
X86874430Y-187247028D01*
X86874430Y-187247028D02*
X87160144Y-187247028D01*
X87160144Y-187247028D02*
X87303002Y-187318457D01*
X88660145Y-188247028D02*
X88660145Y-187461314D01*
X88660145Y-187461314D02*
X88588716Y-187318457D01*
X88588716Y-187318457D02*
X88445859Y-187247028D01*
X88445859Y-187247028D02*
X88160145Y-187247028D01*
X88160145Y-187247028D02*
X88017287Y-187318457D01*
X88660145Y-188175600D02*
X88517287Y-188247028D01*
X88517287Y-188247028D02*
X88160145Y-188247028D01*
X88160145Y-188247028D02*
X88017287Y-188175600D01*
X88017287Y-188175600D02*
X87945859Y-188032742D01*
X87945859Y-188032742D02*
X87945859Y-187889885D01*
X87945859Y-187889885D02*
X88017287Y-187747028D01*
X88017287Y-187747028D02*
X88160145Y-187675600D01*
X88160145Y-187675600D02*
X88517287Y-187675600D01*
X88517287Y-187675600D02*
X88660145Y-187604171D01*
X89374430Y-187247028D02*
X89374430Y-188247028D01*
X89374430Y-187389885D02*
X89445859Y-187318457D01*
X89445859Y-187318457D02*
X89588716Y-187247028D01*
X89588716Y-187247028D02*
X89803002Y-187247028D01*
X89803002Y-187247028D02*
X89945859Y-187318457D01*
X89945859Y-187318457D02*
X90017288Y-187461314D01*
X90017288Y-187461314D02*
X90017288Y-188247028D01*
X91374431Y-188175600D02*
X91231573Y-188247028D01*
X91231573Y-188247028D02*
X90945859Y-188247028D01*
X90945859Y-188247028D02*
X90803002Y-188175600D01*
X90803002Y-188175600D02*
X90731573Y-188104171D01*
X90731573Y-188104171D02*
X90660145Y-187961314D01*
X90660145Y-187961314D02*
X90660145Y-187532742D01*
X90660145Y-187532742D02*
X90731573Y-187389885D01*
X90731573Y-187389885D02*
X90803002Y-187318457D01*
X90803002Y-187318457D02*
X90945859Y-187247028D01*
X90945859Y-187247028D02*
X91231573Y-187247028D01*
X91231573Y-187247028D02*
X91374431Y-187318457D01*
X92588716Y-188175600D02*
X92445859Y-188247028D01*
X92445859Y-188247028D02*
X92160145Y-188247028D01*
X92160145Y-188247028D02*
X92017287Y-188175600D01*
X92017287Y-188175600D02*
X91945859Y-188032742D01*
X91945859Y-188032742D02*
X91945859Y-187461314D01*
X91945859Y-187461314D02*
X92017287Y-187318457D01*
X92017287Y-187318457D02*
X92160145Y-187247028D01*
X92160145Y-187247028D02*
X92445859Y-187247028D01*
X92445859Y-187247028D02*
X92588716Y-187318457D01*
X92588716Y-187318457D02*
X92660145Y-187461314D01*
X92660145Y-187461314D02*
X92660145Y-187604171D01*
X92660145Y-187604171D02*
X91945859Y-187747028D01*
X95303001Y-188104171D02*
X95231573Y-188175600D01*
X95231573Y-188175600D02*
X95017287Y-188247028D01*
X95017287Y-188247028D02*
X94874430Y-188247028D01*
X94874430Y-188247028D02*
X94660144Y-188175600D01*
X94660144Y-188175600D02*
X94517287Y-188032742D01*
X94517287Y-188032742D02*
X94445858Y-187889885D01*
X94445858Y-187889885D02*
X94374430Y-187604171D01*
X94374430Y-187604171D02*
X94374430Y-187389885D01*
X94374430Y-187389885D02*
X94445858Y-187104171D01*
X94445858Y-187104171D02*
X94517287Y-186961314D01*
X94517287Y-186961314D02*
X94660144Y-186818457D01*
X94660144Y-186818457D02*
X94874430Y-186747028D01*
X94874430Y-186747028D02*
X95017287Y-186747028D01*
X95017287Y-186747028D02*
X95231573Y-186818457D01*
X95231573Y-186818457D02*
X95303001Y-186889885D01*
X96160144Y-188247028D02*
X96017287Y-188175600D01*
X96017287Y-188175600D02*
X95945858Y-188104171D01*
X95945858Y-188104171D02*
X95874430Y-187961314D01*
X95874430Y-187961314D02*
X95874430Y-187532742D01*
X95874430Y-187532742D02*
X95945858Y-187389885D01*
X95945858Y-187389885D02*
X96017287Y-187318457D01*
X96017287Y-187318457D02*
X96160144Y-187247028D01*
X96160144Y-187247028D02*
X96374430Y-187247028D01*
X96374430Y-187247028D02*
X96517287Y-187318457D01*
X96517287Y-187318457D02*
X96588716Y-187389885D01*
X96588716Y-187389885D02*
X96660144Y-187532742D01*
X96660144Y-187532742D02*
X96660144Y-187961314D01*
X96660144Y-187961314D02*
X96588716Y-188104171D01*
X96588716Y-188104171D02*
X96517287Y-188175600D01*
X96517287Y-188175600D02*
X96374430Y-188247028D01*
X96374430Y-188247028D02*
X96160144Y-188247028D01*
X97303001Y-187247028D02*
X97303001Y-188247028D01*
X97303001Y-187389885D02*
X97374430Y-187318457D01*
X97374430Y-187318457D02*
X97517287Y-187247028D01*
X97517287Y-187247028D02*
X97731573Y-187247028D01*
X97731573Y-187247028D02*
X97874430Y-187318457D01*
X97874430Y-187318457D02*
X97945859Y-187461314D01*
X97945859Y-187461314D02*
X97945859Y-188247028D01*
X98445859Y-187247028D02*
X99017287Y-187247028D01*
X98660144Y-186747028D02*
X98660144Y-188032742D01*
X98660144Y-188032742D02*
X98731573Y-188175600D01*
X98731573Y-188175600D02*
X98874430Y-188247028D01*
X98874430Y-188247028D02*
X99017287Y-188247028D01*
X99517287Y-188247028D02*
X99517287Y-187247028D01*
X99517287Y-187532742D02*
X99588716Y-187389885D01*
X99588716Y-187389885D02*
X99660145Y-187318457D01*
X99660145Y-187318457D02*
X99803002Y-187247028D01*
X99803002Y-187247028D02*
X99945859Y-187247028D01*
X100660144Y-188247028D02*
X100517287Y-188175600D01*
X100517287Y-188175600D02*
X100445858Y-188104171D01*
X100445858Y-188104171D02*
X100374430Y-187961314D01*
X100374430Y-187961314D02*
X100374430Y-187532742D01*
X100374430Y-187532742D02*
X100445858Y-187389885D01*
X100445858Y-187389885D02*
X100517287Y-187318457D01*
X100517287Y-187318457D02*
X100660144Y-187247028D01*
X100660144Y-187247028D02*
X100874430Y-187247028D01*
X100874430Y-187247028D02*
X101017287Y-187318457D01*
X101017287Y-187318457D02*
X101088716Y-187389885D01*
X101088716Y-187389885D02*
X101160144Y-187532742D01*
X101160144Y-187532742D02*
X101160144Y-187961314D01*
X101160144Y-187961314D02*
X101088716Y-188104171D01*
X101088716Y-188104171D02*
X101017287Y-188175600D01*
X101017287Y-188175600D02*
X100874430Y-188247028D01*
X100874430Y-188247028D02*
X100660144Y-188247028D01*
X102017287Y-188247028D02*
X101874430Y-188175600D01*
X101874430Y-188175600D02*
X101803001Y-188032742D01*
X101803001Y-188032742D02*
X101803001Y-186747028D01*
X102588715Y-188104171D02*
X102660144Y-188175600D01*
X102660144Y-188175600D02*
X102588715Y-188247028D01*
X102588715Y-188247028D02*
X102517287Y-188175600D01*
X102517287Y-188175600D02*
X102588715Y-188104171D01*
X102588715Y-188104171D02*
X102588715Y-188247028D01*
X102588715Y-187318457D02*
X102660144Y-187389885D01*
X102660144Y-187389885D02*
X102588715Y-187461314D01*
X102588715Y-187461314D02*
X102517287Y-187389885D01*
X102517287Y-187389885D02*
X102588715Y-187318457D01*
X102588715Y-187318457D02*
X102588715Y-187461314D01*
X81303001Y-192204028D02*
X81303001Y-190704028D01*
X81303001Y-190704028D02*
X81874430Y-190704028D01*
X81874430Y-190704028D02*
X82017287Y-190775457D01*
X82017287Y-190775457D02*
X82088716Y-190846885D01*
X82088716Y-190846885D02*
X82160144Y-190989742D01*
X82160144Y-190989742D02*
X82160144Y-191204028D01*
X82160144Y-191204028D02*
X82088716Y-191346885D01*
X82088716Y-191346885D02*
X82017287Y-191418314D01*
X82017287Y-191418314D02*
X81874430Y-191489742D01*
X81874430Y-191489742D02*
X81303001Y-191489742D01*
X83017287Y-192204028D02*
X82874430Y-192132600D01*
X82874430Y-192132600D02*
X82803001Y-191989742D01*
X82803001Y-191989742D02*
X82803001Y-190704028D01*
X84231573Y-192204028D02*
X84231573Y-191418314D01*
X84231573Y-191418314D02*
X84160144Y-191275457D01*
X84160144Y-191275457D02*
X84017287Y-191204028D01*
X84017287Y-191204028D02*
X83731573Y-191204028D01*
X83731573Y-191204028D02*
X83588715Y-191275457D01*
X84231573Y-192132600D02*
X84088715Y-192204028D01*
X84088715Y-192204028D02*
X83731573Y-192204028D01*
X83731573Y-192204028D02*
X83588715Y-192132600D01*
X83588715Y-192132600D02*
X83517287Y-191989742D01*
X83517287Y-191989742D02*
X83517287Y-191846885D01*
X83517287Y-191846885D02*
X83588715Y-191704028D01*
X83588715Y-191704028D02*
X83731573Y-191632600D01*
X83731573Y-191632600D02*
X84088715Y-191632600D01*
X84088715Y-191632600D02*
X84231573Y-191561171D01*
X84731573Y-191204028D02*
X85303001Y-191204028D01*
X84945858Y-190704028D02*
X84945858Y-191989742D01*
X84945858Y-191989742D02*
X85017287Y-192132600D01*
X85017287Y-192132600D02*
X85160144Y-192204028D01*
X85160144Y-192204028D02*
X85303001Y-192204028D01*
X86374430Y-192132600D02*
X86231573Y-192204028D01*
X86231573Y-192204028D02*
X85945859Y-192204028D01*
X85945859Y-192204028D02*
X85803001Y-192132600D01*
X85803001Y-192132600D02*
X85731573Y-191989742D01*
X85731573Y-191989742D02*
X85731573Y-191418314D01*
X85731573Y-191418314D02*
X85803001Y-191275457D01*
X85803001Y-191275457D02*
X85945859Y-191204028D01*
X85945859Y-191204028D02*
X86231573Y-191204028D01*
X86231573Y-191204028D02*
X86374430Y-191275457D01*
X86374430Y-191275457D02*
X86445859Y-191418314D01*
X86445859Y-191418314D02*
X86445859Y-191561171D01*
X86445859Y-191561171D02*
X85731573Y-191704028D01*
X87731573Y-192204028D02*
X87731573Y-190704028D01*
X87731573Y-192132600D02*
X87588715Y-192204028D01*
X87588715Y-192204028D02*
X87303001Y-192204028D01*
X87303001Y-192204028D02*
X87160144Y-192132600D01*
X87160144Y-192132600D02*
X87088715Y-192061171D01*
X87088715Y-192061171D02*
X87017287Y-191918314D01*
X87017287Y-191918314D02*
X87017287Y-191489742D01*
X87017287Y-191489742D02*
X87088715Y-191346885D01*
X87088715Y-191346885D02*
X87160144Y-191275457D01*
X87160144Y-191275457D02*
X87303001Y-191204028D01*
X87303001Y-191204028D02*
X87588715Y-191204028D01*
X87588715Y-191204028D02*
X87731573Y-191275457D01*
X90088715Y-191418314D02*
X90303001Y-191489742D01*
X90303001Y-191489742D02*
X90374430Y-191561171D01*
X90374430Y-191561171D02*
X90445858Y-191704028D01*
X90445858Y-191704028D02*
X90445858Y-191918314D01*
X90445858Y-191918314D02*
X90374430Y-192061171D01*
X90374430Y-192061171D02*
X90303001Y-192132600D01*
X90303001Y-192132600D02*
X90160144Y-192204028D01*
X90160144Y-192204028D02*
X89588715Y-192204028D01*
X89588715Y-192204028D02*
X89588715Y-190704028D01*
X89588715Y-190704028D02*
X90088715Y-190704028D01*
X90088715Y-190704028D02*
X90231573Y-190775457D01*
X90231573Y-190775457D02*
X90303001Y-190846885D01*
X90303001Y-190846885D02*
X90374430Y-190989742D01*
X90374430Y-190989742D02*
X90374430Y-191132600D01*
X90374430Y-191132600D02*
X90303001Y-191275457D01*
X90303001Y-191275457D02*
X90231573Y-191346885D01*
X90231573Y-191346885D02*
X90088715Y-191418314D01*
X90088715Y-191418314D02*
X89588715Y-191418314D01*
X91303001Y-192204028D02*
X91160144Y-192132600D01*
X91160144Y-192132600D02*
X91088715Y-192061171D01*
X91088715Y-192061171D02*
X91017287Y-191918314D01*
X91017287Y-191918314D02*
X91017287Y-191489742D01*
X91017287Y-191489742D02*
X91088715Y-191346885D01*
X91088715Y-191346885D02*
X91160144Y-191275457D01*
X91160144Y-191275457D02*
X91303001Y-191204028D01*
X91303001Y-191204028D02*
X91517287Y-191204028D01*
X91517287Y-191204028D02*
X91660144Y-191275457D01*
X91660144Y-191275457D02*
X91731573Y-191346885D01*
X91731573Y-191346885D02*
X91803001Y-191489742D01*
X91803001Y-191489742D02*
X91803001Y-191918314D01*
X91803001Y-191918314D02*
X91731573Y-192061171D01*
X91731573Y-192061171D02*
X91660144Y-192132600D01*
X91660144Y-192132600D02*
X91517287Y-192204028D01*
X91517287Y-192204028D02*
X91303001Y-192204028D01*
X93088716Y-192204028D02*
X93088716Y-191418314D01*
X93088716Y-191418314D02*
X93017287Y-191275457D01*
X93017287Y-191275457D02*
X92874430Y-191204028D01*
X92874430Y-191204028D02*
X92588716Y-191204028D01*
X92588716Y-191204028D02*
X92445858Y-191275457D01*
X93088716Y-192132600D02*
X92945858Y-192204028D01*
X92945858Y-192204028D02*
X92588716Y-192204028D01*
X92588716Y-192204028D02*
X92445858Y-192132600D01*
X92445858Y-192132600D02*
X92374430Y-191989742D01*
X92374430Y-191989742D02*
X92374430Y-191846885D01*
X92374430Y-191846885D02*
X92445858Y-191704028D01*
X92445858Y-191704028D02*
X92588716Y-191632600D01*
X92588716Y-191632600D02*
X92945858Y-191632600D01*
X92945858Y-191632600D02*
X93088716Y-191561171D01*
X93803001Y-192204028D02*
X93803001Y-191204028D01*
X93803001Y-191489742D02*
X93874430Y-191346885D01*
X93874430Y-191346885D02*
X93945859Y-191275457D01*
X93945859Y-191275457D02*
X94088716Y-191204028D01*
X94088716Y-191204028D02*
X94231573Y-191204028D01*
X95374430Y-192204028D02*
X95374430Y-190704028D01*
X95374430Y-192132600D02*
X95231572Y-192204028D01*
X95231572Y-192204028D02*
X94945858Y-192204028D01*
X94945858Y-192204028D02*
X94803001Y-192132600D01*
X94803001Y-192132600D02*
X94731572Y-192061171D01*
X94731572Y-192061171D02*
X94660144Y-191918314D01*
X94660144Y-191918314D02*
X94660144Y-191489742D01*
X94660144Y-191489742D02*
X94731572Y-191346885D01*
X94731572Y-191346885D02*
X94803001Y-191275457D01*
X94803001Y-191275457D02*
X94945858Y-191204028D01*
X94945858Y-191204028D02*
X95231572Y-191204028D01*
X95231572Y-191204028D02*
X95374430Y-191275457D01*
X97231572Y-191418314D02*
X97731572Y-191418314D01*
X97945858Y-192204028D02*
X97231572Y-192204028D01*
X97231572Y-192204028D02*
X97231572Y-190704028D01*
X97231572Y-190704028D02*
X97945858Y-190704028D01*
X99231573Y-192204028D02*
X99231573Y-190704028D01*
X99231573Y-192132600D02*
X99088715Y-192204028D01*
X99088715Y-192204028D02*
X98803001Y-192204028D01*
X98803001Y-192204028D02*
X98660144Y-192132600D01*
X98660144Y-192132600D02*
X98588715Y-192061171D01*
X98588715Y-192061171D02*
X98517287Y-191918314D01*
X98517287Y-191918314D02*
X98517287Y-191489742D01*
X98517287Y-191489742D02*
X98588715Y-191346885D01*
X98588715Y-191346885D02*
X98660144Y-191275457D01*
X98660144Y-191275457D02*
X98803001Y-191204028D01*
X98803001Y-191204028D02*
X99088715Y-191204028D01*
X99088715Y-191204028D02*
X99231573Y-191275457D01*
X100588716Y-191204028D02*
X100588716Y-192418314D01*
X100588716Y-192418314D02*
X100517287Y-192561171D01*
X100517287Y-192561171D02*
X100445858Y-192632600D01*
X100445858Y-192632600D02*
X100303001Y-192704028D01*
X100303001Y-192704028D02*
X100088716Y-192704028D01*
X100088716Y-192704028D02*
X99945858Y-192632600D01*
X100588716Y-192132600D02*
X100445858Y-192204028D01*
X100445858Y-192204028D02*
X100160144Y-192204028D01*
X100160144Y-192204028D02*
X100017287Y-192132600D01*
X100017287Y-192132600D02*
X99945858Y-192061171D01*
X99945858Y-192061171D02*
X99874430Y-191918314D01*
X99874430Y-191918314D02*
X99874430Y-191489742D01*
X99874430Y-191489742D02*
X99945858Y-191346885D01*
X99945858Y-191346885D02*
X100017287Y-191275457D01*
X100017287Y-191275457D02*
X100160144Y-191204028D01*
X100160144Y-191204028D02*
X100445858Y-191204028D01*
X100445858Y-191204028D02*
X100588716Y-191275457D01*
X101874430Y-192132600D02*
X101731573Y-192204028D01*
X101731573Y-192204028D02*
X101445859Y-192204028D01*
X101445859Y-192204028D02*
X101303001Y-192132600D01*
X101303001Y-192132600D02*
X101231573Y-191989742D01*
X101231573Y-191989742D02*
X101231573Y-191418314D01*
X101231573Y-191418314D02*
X101303001Y-191275457D01*
X101303001Y-191275457D02*
X101445859Y-191204028D01*
X101445859Y-191204028D02*
X101731573Y-191204028D01*
X101731573Y-191204028D02*
X101874430Y-191275457D01*
X101874430Y-191275457D02*
X101945859Y-191418314D01*
X101945859Y-191418314D02*
X101945859Y-191561171D01*
X101945859Y-191561171D02*
X101231573Y-191704028D01*
X102588715Y-192061171D02*
X102660144Y-192132600D01*
X102660144Y-192132600D02*
X102588715Y-192204028D01*
X102588715Y-192204028D02*
X102517287Y-192132600D01*
X102517287Y-192132600D02*
X102588715Y-192061171D01*
X102588715Y-192061171D02*
X102588715Y-192204028D01*
X102588715Y-191275457D02*
X102660144Y-191346885D01*
X102660144Y-191346885D02*
X102588715Y-191418314D01*
X102588715Y-191418314D02*
X102517287Y-191346885D01*
X102517287Y-191346885D02*
X102588715Y-191275457D01*
X102588715Y-191275457D02*
X102588715Y-191418314D01*
X47145863Y-187461314D02*
X47645863Y-187461314D01*
X47860149Y-188247028D02*
X47145863Y-188247028D01*
X47145863Y-188247028D02*
X47145863Y-186747028D01*
X47145863Y-186747028D02*
X47860149Y-186747028D01*
X48503006Y-188247028D02*
X48503006Y-186747028D01*
X48503006Y-186747028D02*
X49360149Y-188247028D01*
X49360149Y-188247028D02*
X49360149Y-186747028D01*
X50074435Y-188247028D02*
X50074435Y-186747028D01*
X51574436Y-186818457D02*
X51431579Y-186747028D01*
X51431579Y-186747028D02*
X51217293Y-186747028D01*
X51217293Y-186747028D02*
X51003007Y-186818457D01*
X51003007Y-186818457D02*
X50860150Y-186961314D01*
X50860150Y-186961314D02*
X50788721Y-187104171D01*
X50788721Y-187104171D02*
X50717293Y-187389885D01*
X50717293Y-187389885D02*
X50717293Y-187604171D01*
X50717293Y-187604171D02*
X50788721Y-187889885D01*
X50788721Y-187889885D02*
X50860150Y-188032742D01*
X50860150Y-188032742D02*
X51003007Y-188175600D01*
X51003007Y-188175600D02*
X51217293Y-188247028D01*
X51217293Y-188247028D02*
X51360150Y-188247028D01*
X51360150Y-188247028D02*
X51574436Y-188175600D01*
X51574436Y-188175600D02*
X51645864Y-188104171D01*
X51645864Y-188104171D02*
X51645864Y-187604171D01*
X51645864Y-187604171D02*
X51360150Y-187604171D01*
X15345863Y-176233171D02*
X15274435Y-176304600D01*
X15274435Y-176304600D02*
X15060149Y-176376028D01*
X15060149Y-176376028D02*
X14917292Y-176376028D01*
X14917292Y-176376028D02*
X14703006Y-176304600D01*
X14703006Y-176304600D02*
X14560149Y-176161742D01*
X14560149Y-176161742D02*
X14488720Y-176018885D01*
X14488720Y-176018885D02*
X14417292Y-175733171D01*
X14417292Y-175733171D02*
X14417292Y-175518885D01*
X14417292Y-175518885D02*
X14488720Y-175233171D01*
X14488720Y-175233171D02*
X14560149Y-175090314D01*
X14560149Y-175090314D02*
X14703006Y-174947457D01*
X14703006Y-174947457D02*
X14917292Y-174876028D01*
X14917292Y-174876028D02*
X15060149Y-174876028D01*
X15060149Y-174876028D02*
X15274435Y-174947457D01*
X15274435Y-174947457D02*
X15345863Y-175018885D01*
X16203006Y-176376028D02*
X16060149Y-176304600D01*
X16060149Y-176304600D02*
X15988720Y-176233171D01*
X15988720Y-176233171D02*
X15917292Y-176090314D01*
X15917292Y-176090314D02*
X15917292Y-175661742D01*
X15917292Y-175661742D02*
X15988720Y-175518885D01*
X15988720Y-175518885D02*
X16060149Y-175447457D01*
X16060149Y-175447457D02*
X16203006Y-175376028D01*
X16203006Y-175376028D02*
X16417292Y-175376028D01*
X16417292Y-175376028D02*
X16560149Y-175447457D01*
X16560149Y-175447457D02*
X16631578Y-175518885D01*
X16631578Y-175518885D02*
X16703006Y-175661742D01*
X16703006Y-175661742D02*
X16703006Y-176090314D01*
X16703006Y-176090314D02*
X16631578Y-176233171D01*
X16631578Y-176233171D02*
X16560149Y-176304600D01*
X16560149Y-176304600D02*
X16417292Y-176376028D01*
X16417292Y-176376028D02*
X16203006Y-176376028D01*
X17345863Y-175376028D02*
X17345863Y-176876028D01*
X17345863Y-175447457D02*
X17488721Y-175376028D01*
X17488721Y-175376028D02*
X17774435Y-175376028D01*
X17774435Y-175376028D02*
X17917292Y-175447457D01*
X17917292Y-175447457D02*
X17988721Y-175518885D01*
X17988721Y-175518885D02*
X18060149Y-175661742D01*
X18060149Y-175661742D02*
X18060149Y-176090314D01*
X18060149Y-176090314D02*
X17988721Y-176233171D01*
X17988721Y-176233171D02*
X17917292Y-176304600D01*
X17917292Y-176304600D02*
X17774435Y-176376028D01*
X17774435Y-176376028D02*
X17488721Y-176376028D01*
X17488721Y-176376028D02*
X17345863Y-176304600D01*
X18703006Y-175376028D02*
X18703006Y-176876028D01*
X18703006Y-175447457D02*
X18845864Y-175376028D01*
X18845864Y-175376028D02*
X19131578Y-175376028D01*
X19131578Y-175376028D02*
X19274435Y-175447457D01*
X19274435Y-175447457D02*
X19345864Y-175518885D01*
X19345864Y-175518885D02*
X19417292Y-175661742D01*
X19417292Y-175661742D02*
X19417292Y-176090314D01*
X19417292Y-176090314D02*
X19345864Y-176233171D01*
X19345864Y-176233171D02*
X19274435Y-176304600D01*
X19274435Y-176304600D02*
X19131578Y-176376028D01*
X19131578Y-176376028D02*
X18845864Y-176376028D01*
X18845864Y-176376028D02*
X18703006Y-176304600D01*
X20631578Y-176304600D02*
X20488721Y-176376028D01*
X20488721Y-176376028D02*
X20203007Y-176376028D01*
X20203007Y-176376028D02*
X20060149Y-176304600D01*
X20060149Y-176304600D02*
X19988721Y-176161742D01*
X19988721Y-176161742D02*
X19988721Y-175590314D01*
X19988721Y-175590314D02*
X20060149Y-175447457D01*
X20060149Y-175447457D02*
X20203007Y-175376028D01*
X20203007Y-175376028D02*
X20488721Y-175376028D01*
X20488721Y-175376028D02*
X20631578Y-175447457D01*
X20631578Y-175447457D02*
X20703007Y-175590314D01*
X20703007Y-175590314D02*
X20703007Y-175733171D01*
X20703007Y-175733171D02*
X19988721Y-175876028D01*
X21345863Y-176376028D02*
X21345863Y-175376028D01*
X21345863Y-175661742D02*
X21417292Y-175518885D01*
X21417292Y-175518885D02*
X21488721Y-175447457D01*
X21488721Y-175447457D02*
X21631578Y-175376028D01*
X21631578Y-175376028D02*
X21774435Y-175376028D01*
X24131577Y-176376028D02*
X23417291Y-176376028D01*
X23417291Y-176376028D02*
X23417291Y-174876028D01*
X25274435Y-176376028D02*
X25274435Y-175590314D01*
X25274435Y-175590314D02*
X25203006Y-175447457D01*
X25203006Y-175447457D02*
X25060149Y-175376028D01*
X25060149Y-175376028D02*
X24774435Y-175376028D01*
X24774435Y-175376028D02*
X24631577Y-175447457D01*
X25274435Y-176304600D02*
X25131577Y-176376028D01*
X25131577Y-176376028D02*
X24774435Y-176376028D01*
X24774435Y-176376028D02*
X24631577Y-176304600D01*
X24631577Y-176304600D02*
X24560149Y-176161742D01*
X24560149Y-176161742D02*
X24560149Y-176018885D01*
X24560149Y-176018885D02*
X24631577Y-175876028D01*
X24631577Y-175876028D02*
X24774435Y-175804600D01*
X24774435Y-175804600D02*
X25131577Y-175804600D01*
X25131577Y-175804600D02*
X25274435Y-175733171D01*
X25845863Y-175376028D02*
X26203006Y-176376028D01*
X26560149Y-175376028D02*
X26203006Y-176376028D01*
X26203006Y-176376028D02*
X26060149Y-176733171D01*
X26060149Y-176733171D02*
X25988720Y-176804600D01*
X25988720Y-176804600D02*
X25845863Y-176876028D01*
X27703006Y-176304600D02*
X27560149Y-176376028D01*
X27560149Y-176376028D02*
X27274435Y-176376028D01*
X27274435Y-176376028D02*
X27131577Y-176304600D01*
X27131577Y-176304600D02*
X27060149Y-176161742D01*
X27060149Y-176161742D02*
X27060149Y-175590314D01*
X27060149Y-175590314D02*
X27131577Y-175447457D01*
X27131577Y-175447457D02*
X27274435Y-175376028D01*
X27274435Y-175376028D02*
X27560149Y-175376028D01*
X27560149Y-175376028D02*
X27703006Y-175447457D01*
X27703006Y-175447457D02*
X27774435Y-175590314D01*
X27774435Y-175590314D02*
X27774435Y-175733171D01*
X27774435Y-175733171D02*
X27060149Y-175876028D01*
X28417291Y-176376028D02*
X28417291Y-175376028D01*
X28417291Y-175661742D02*
X28488720Y-175518885D01*
X28488720Y-175518885D02*
X28560149Y-175447457D01*
X28560149Y-175447457D02*
X28703006Y-175376028D01*
X28703006Y-175376028D02*
X28845863Y-175376028D01*
X31345862Y-176233171D02*
X31274434Y-176304600D01*
X31274434Y-176304600D02*
X31060148Y-176376028D01*
X31060148Y-176376028D02*
X30917291Y-176376028D01*
X30917291Y-176376028D02*
X30703005Y-176304600D01*
X30703005Y-176304600D02*
X30560148Y-176161742D01*
X30560148Y-176161742D02*
X30488719Y-176018885D01*
X30488719Y-176018885D02*
X30417291Y-175733171D01*
X30417291Y-175733171D02*
X30417291Y-175518885D01*
X30417291Y-175518885D02*
X30488719Y-175233171D01*
X30488719Y-175233171D02*
X30560148Y-175090314D01*
X30560148Y-175090314D02*
X30703005Y-174947457D01*
X30703005Y-174947457D02*
X30917291Y-174876028D01*
X30917291Y-174876028D02*
X31060148Y-174876028D01*
X31060148Y-174876028D02*
X31274434Y-174947457D01*
X31274434Y-174947457D02*
X31345862Y-175018885D01*
X32203005Y-176376028D02*
X32060148Y-176304600D01*
X32060148Y-176304600D02*
X31988719Y-176233171D01*
X31988719Y-176233171D02*
X31917291Y-176090314D01*
X31917291Y-176090314D02*
X31917291Y-175661742D01*
X31917291Y-175661742D02*
X31988719Y-175518885D01*
X31988719Y-175518885D02*
X32060148Y-175447457D01*
X32060148Y-175447457D02*
X32203005Y-175376028D01*
X32203005Y-175376028D02*
X32417291Y-175376028D01*
X32417291Y-175376028D02*
X32560148Y-175447457D01*
X32560148Y-175447457D02*
X32631577Y-175518885D01*
X32631577Y-175518885D02*
X32703005Y-175661742D01*
X32703005Y-175661742D02*
X32703005Y-176090314D01*
X32703005Y-176090314D02*
X32631577Y-176233171D01*
X32631577Y-176233171D02*
X32560148Y-176304600D01*
X32560148Y-176304600D02*
X32417291Y-176376028D01*
X32417291Y-176376028D02*
X32203005Y-176376028D01*
X33988720Y-175376028D02*
X33988720Y-176376028D01*
X33345862Y-175376028D02*
X33345862Y-176161742D01*
X33345862Y-176161742D02*
X33417291Y-176304600D01*
X33417291Y-176304600D02*
X33560148Y-176376028D01*
X33560148Y-176376028D02*
X33774434Y-176376028D01*
X33774434Y-176376028D02*
X33917291Y-176304600D01*
X33917291Y-176304600D02*
X33988720Y-176233171D01*
X34703005Y-175376028D02*
X34703005Y-176376028D01*
X34703005Y-175518885D02*
X34774434Y-175447457D01*
X34774434Y-175447457D02*
X34917291Y-175376028D01*
X34917291Y-175376028D02*
X35131577Y-175376028D01*
X35131577Y-175376028D02*
X35274434Y-175447457D01*
X35274434Y-175447457D02*
X35345863Y-175590314D01*
X35345863Y-175590314D02*
X35345863Y-176376028D01*
X35845863Y-175376028D02*
X36417291Y-175376028D01*
X36060148Y-174876028D02*
X36060148Y-176161742D01*
X36060148Y-176161742D02*
X36131577Y-176304600D01*
X36131577Y-176304600D02*
X36274434Y-176376028D01*
X36274434Y-176376028D02*
X36417291Y-176376028D01*
X36917291Y-176233171D02*
X36988720Y-176304600D01*
X36988720Y-176304600D02*
X36917291Y-176376028D01*
X36917291Y-176376028D02*
X36845863Y-176304600D01*
X36845863Y-176304600D02*
X36917291Y-176233171D01*
X36917291Y-176233171D02*
X36917291Y-176376028D01*
X36917291Y-175447457D02*
X36988720Y-175518885D01*
X36988720Y-175518885D02*
X36917291Y-175590314D01*
X36917291Y-175590314D02*
X36845863Y-175518885D01*
X36845863Y-175518885D02*
X36917291Y-175447457D01*
X36917291Y-175447457D02*
X36917291Y-175590314D01*
X14488720Y-195375314D02*
X14988720Y-195375314D01*
X15203006Y-196161028D02*
X14488720Y-196161028D01*
X14488720Y-196161028D02*
X14488720Y-194661028D01*
X14488720Y-194661028D02*
X15203006Y-194661028D01*
X16488721Y-196161028D02*
X16488721Y-194661028D01*
X16488721Y-196089600D02*
X16345863Y-196161028D01*
X16345863Y-196161028D02*
X16060149Y-196161028D01*
X16060149Y-196161028D02*
X15917292Y-196089600D01*
X15917292Y-196089600D02*
X15845863Y-196018171D01*
X15845863Y-196018171D02*
X15774435Y-195875314D01*
X15774435Y-195875314D02*
X15774435Y-195446742D01*
X15774435Y-195446742D02*
X15845863Y-195303885D01*
X15845863Y-195303885D02*
X15917292Y-195232457D01*
X15917292Y-195232457D02*
X16060149Y-195161028D01*
X16060149Y-195161028D02*
X16345863Y-195161028D01*
X16345863Y-195161028D02*
X16488721Y-195232457D01*
X17845864Y-195161028D02*
X17845864Y-196375314D01*
X17845864Y-196375314D02*
X17774435Y-196518171D01*
X17774435Y-196518171D02*
X17703006Y-196589600D01*
X17703006Y-196589600D02*
X17560149Y-196661028D01*
X17560149Y-196661028D02*
X17345864Y-196661028D01*
X17345864Y-196661028D02*
X17203006Y-196589600D01*
X17845864Y-196089600D02*
X17703006Y-196161028D01*
X17703006Y-196161028D02*
X17417292Y-196161028D01*
X17417292Y-196161028D02*
X17274435Y-196089600D01*
X17274435Y-196089600D02*
X17203006Y-196018171D01*
X17203006Y-196018171D02*
X17131578Y-195875314D01*
X17131578Y-195875314D02*
X17131578Y-195446742D01*
X17131578Y-195446742D02*
X17203006Y-195303885D01*
X17203006Y-195303885D02*
X17274435Y-195232457D01*
X17274435Y-195232457D02*
X17417292Y-195161028D01*
X17417292Y-195161028D02*
X17703006Y-195161028D01*
X17703006Y-195161028D02*
X17845864Y-195232457D01*
X19131578Y-196089600D02*
X18988721Y-196161028D01*
X18988721Y-196161028D02*
X18703007Y-196161028D01*
X18703007Y-196161028D02*
X18560149Y-196089600D01*
X18560149Y-196089600D02*
X18488721Y-195946742D01*
X18488721Y-195946742D02*
X18488721Y-195375314D01*
X18488721Y-195375314D02*
X18560149Y-195232457D01*
X18560149Y-195232457D02*
X18703007Y-195161028D01*
X18703007Y-195161028D02*
X18988721Y-195161028D01*
X18988721Y-195161028D02*
X19131578Y-195232457D01*
X19131578Y-195232457D02*
X19203007Y-195375314D01*
X19203007Y-195375314D02*
X19203007Y-195518171D01*
X19203007Y-195518171D02*
X18488721Y-195661028D01*
X21631578Y-196089600D02*
X21488720Y-196161028D01*
X21488720Y-196161028D02*
X21203006Y-196161028D01*
X21203006Y-196161028D02*
X21060149Y-196089600D01*
X21060149Y-196089600D02*
X20988720Y-196018171D01*
X20988720Y-196018171D02*
X20917292Y-195875314D01*
X20917292Y-195875314D02*
X20917292Y-195446742D01*
X20917292Y-195446742D02*
X20988720Y-195303885D01*
X20988720Y-195303885D02*
X21060149Y-195232457D01*
X21060149Y-195232457D02*
X21203006Y-195161028D01*
X21203006Y-195161028D02*
X21488720Y-195161028D01*
X21488720Y-195161028D02*
X21631578Y-195232457D01*
X22917292Y-196161028D02*
X22917292Y-195375314D01*
X22917292Y-195375314D02*
X22845863Y-195232457D01*
X22845863Y-195232457D02*
X22703006Y-195161028D01*
X22703006Y-195161028D02*
X22417292Y-195161028D01*
X22417292Y-195161028D02*
X22274434Y-195232457D01*
X22917292Y-196089600D02*
X22774434Y-196161028D01*
X22774434Y-196161028D02*
X22417292Y-196161028D01*
X22417292Y-196161028D02*
X22274434Y-196089600D01*
X22274434Y-196089600D02*
X22203006Y-195946742D01*
X22203006Y-195946742D02*
X22203006Y-195803885D01*
X22203006Y-195803885D02*
X22274434Y-195661028D01*
X22274434Y-195661028D02*
X22417292Y-195589600D01*
X22417292Y-195589600D02*
X22774434Y-195589600D01*
X22774434Y-195589600D02*
X22917292Y-195518171D01*
X23631577Y-196161028D02*
X23631577Y-195161028D01*
X23631577Y-195446742D02*
X23703006Y-195303885D01*
X23703006Y-195303885D02*
X23774435Y-195232457D01*
X23774435Y-195232457D02*
X23917292Y-195161028D01*
X23917292Y-195161028D02*
X24060149Y-195161028D01*
X25203006Y-196161028D02*
X25203006Y-194661028D01*
X25203006Y-196089600D02*
X25060148Y-196161028D01*
X25060148Y-196161028D02*
X24774434Y-196161028D01*
X24774434Y-196161028D02*
X24631577Y-196089600D01*
X24631577Y-196089600D02*
X24560148Y-196018171D01*
X24560148Y-196018171D02*
X24488720Y-195875314D01*
X24488720Y-195875314D02*
X24488720Y-195446742D01*
X24488720Y-195446742D02*
X24560148Y-195303885D01*
X24560148Y-195303885D02*
X24631577Y-195232457D01*
X24631577Y-195232457D02*
X24774434Y-195161028D01*
X24774434Y-195161028D02*
X25060148Y-195161028D01*
X25060148Y-195161028D02*
X25203006Y-195232457D01*
X27703006Y-196089600D02*
X27560148Y-196161028D01*
X27560148Y-196161028D02*
X27274434Y-196161028D01*
X27274434Y-196161028D02*
X27131577Y-196089600D01*
X27131577Y-196089600D02*
X27060148Y-196018171D01*
X27060148Y-196018171D02*
X26988720Y-195875314D01*
X26988720Y-195875314D02*
X26988720Y-195446742D01*
X26988720Y-195446742D02*
X27060148Y-195303885D01*
X27060148Y-195303885D02*
X27131577Y-195232457D01*
X27131577Y-195232457D02*
X27274434Y-195161028D01*
X27274434Y-195161028D02*
X27560148Y-195161028D01*
X27560148Y-195161028D02*
X27703006Y-195232457D01*
X28560148Y-196161028D02*
X28417291Y-196089600D01*
X28417291Y-196089600D02*
X28345862Y-196018171D01*
X28345862Y-196018171D02*
X28274434Y-195875314D01*
X28274434Y-195875314D02*
X28274434Y-195446742D01*
X28274434Y-195446742D02*
X28345862Y-195303885D01*
X28345862Y-195303885D02*
X28417291Y-195232457D01*
X28417291Y-195232457D02*
X28560148Y-195161028D01*
X28560148Y-195161028D02*
X28774434Y-195161028D01*
X28774434Y-195161028D02*
X28917291Y-195232457D01*
X28917291Y-195232457D02*
X28988720Y-195303885D01*
X28988720Y-195303885D02*
X29060148Y-195446742D01*
X29060148Y-195446742D02*
X29060148Y-195875314D01*
X29060148Y-195875314D02*
X28988720Y-196018171D01*
X28988720Y-196018171D02*
X28917291Y-196089600D01*
X28917291Y-196089600D02*
X28774434Y-196161028D01*
X28774434Y-196161028D02*
X28560148Y-196161028D01*
X29703005Y-195161028D02*
X29703005Y-196161028D01*
X29703005Y-195303885D02*
X29774434Y-195232457D01*
X29774434Y-195232457D02*
X29917291Y-195161028D01*
X29917291Y-195161028D02*
X30131577Y-195161028D01*
X30131577Y-195161028D02*
X30274434Y-195232457D01*
X30274434Y-195232457D02*
X30345863Y-195375314D01*
X30345863Y-195375314D02*
X30345863Y-196161028D01*
X31060148Y-195161028D02*
X31060148Y-196161028D01*
X31060148Y-195303885D02*
X31131577Y-195232457D01*
X31131577Y-195232457D02*
X31274434Y-195161028D01*
X31274434Y-195161028D02*
X31488720Y-195161028D01*
X31488720Y-195161028D02*
X31631577Y-195232457D01*
X31631577Y-195232457D02*
X31703006Y-195375314D01*
X31703006Y-195375314D02*
X31703006Y-196161028D01*
X32988720Y-196089600D02*
X32845863Y-196161028D01*
X32845863Y-196161028D02*
X32560149Y-196161028D01*
X32560149Y-196161028D02*
X32417291Y-196089600D01*
X32417291Y-196089600D02*
X32345863Y-195946742D01*
X32345863Y-195946742D02*
X32345863Y-195375314D01*
X32345863Y-195375314D02*
X32417291Y-195232457D01*
X32417291Y-195232457D02*
X32560149Y-195161028D01*
X32560149Y-195161028D02*
X32845863Y-195161028D01*
X32845863Y-195161028D02*
X32988720Y-195232457D01*
X32988720Y-195232457D02*
X33060149Y-195375314D01*
X33060149Y-195375314D02*
X33060149Y-195518171D01*
X33060149Y-195518171D02*
X32345863Y-195661028D01*
X34345863Y-196089600D02*
X34203005Y-196161028D01*
X34203005Y-196161028D02*
X33917291Y-196161028D01*
X33917291Y-196161028D02*
X33774434Y-196089600D01*
X33774434Y-196089600D02*
X33703005Y-196018171D01*
X33703005Y-196018171D02*
X33631577Y-195875314D01*
X33631577Y-195875314D02*
X33631577Y-195446742D01*
X33631577Y-195446742D02*
X33703005Y-195303885D01*
X33703005Y-195303885D02*
X33774434Y-195232457D01*
X33774434Y-195232457D02*
X33917291Y-195161028D01*
X33917291Y-195161028D02*
X34203005Y-195161028D01*
X34203005Y-195161028D02*
X34345863Y-195232457D01*
X34774434Y-195161028D02*
X35345862Y-195161028D01*
X34988719Y-194661028D02*
X34988719Y-195946742D01*
X34988719Y-195946742D02*
X35060148Y-196089600D01*
X35060148Y-196089600D02*
X35203005Y-196161028D01*
X35203005Y-196161028D02*
X35345862Y-196161028D01*
X36060148Y-196161028D02*
X35917291Y-196089600D01*
X35917291Y-196089600D02*
X35845862Y-196018171D01*
X35845862Y-196018171D02*
X35774434Y-195875314D01*
X35774434Y-195875314D02*
X35774434Y-195446742D01*
X35774434Y-195446742D02*
X35845862Y-195303885D01*
X35845862Y-195303885D02*
X35917291Y-195232457D01*
X35917291Y-195232457D02*
X36060148Y-195161028D01*
X36060148Y-195161028D02*
X36274434Y-195161028D01*
X36274434Y-195161028D02*
X36417291Y-195232457D01*
X36417291Y-195232457D02*
X36488720Y-195303885D01*
X36488720Y-195303885D02*
X36560148Y-195446742D01*
X36560148Y-195446742D02*
X36560148Y-195875314D01*
X36560148Y-195875314D02*
X36488720Y-196018171D01*
X36488720Y-196018171D02*
X36417291Y-196089600D01*
X36417291Y-196089600D02*
X36274434Y-196161028D01*
X36274434Y-196161028D02*
X36060148Y-196161028D01*
X37203005Y-196161028D02*
X37203005Y-195161028D01*
X37203005Y-195446742D02*
X37274434Y-195303885D01*
X37274434Y-195303885D02*
X37345863Y-195232457D01*
X37345863Y-195232457D02*
X37488720Y-195161028D01*
X37488720Y-195161028D02*
X37631577Y-195161028D01*
X38060148Y-196089600D02*
X38203005Y-196161028D01*
X38203005Y-196161028D02*
X38488719Y-196161028D01*
X38488719Y-196161028D02*
X38631576Y-196089600D01*
X38631576Y-196089600D02*
X38703005Y-195946742D01*
X38703005Y-195946742D02*
X38703005Y-195875314D01*
X38703005Y-195875314D02*
X38631576Y-195732457D01*
X38631576Y-195732457D02*
X38488719Y-195661028D01*
X38488719Y-195661028D02*
X38274434Y-195661028D01*
X38274434Y-195661028D02*
X38131576Y-195589600D01*
X38131576Y-195589600D02*
X38060148Y-195446742D01*
X38060148Y-195446742D02*
X38060148Y-195375314D01*
X38060148Y-195375314D02*
X38131576Y-195232457D01*
X38131576Y-195232457D02*
X38274434Y-195161028D01*
X38274434Y-195161028D02*
X38488719Y-195161028D01*
X38488719Y-195161028D02*
X38631576Y-195232457D01*
X39345862Y-196018171D02*
X39417291Y-196089600D01*
X39417291Y-196089600D02*
X39345862Y-196161028D01*
X39345862Y-196161028D02*
X39274434Y-196089600D01*
X39274434Y-196089600D02*
X39345862Y-196018171D01*
X39345862Y-196018171D02*
X39345862Y-196161028D01*
X39345862Y-195232457D02*
X39417291Y-195303885D01*
X39417291Y-195303885D02*
X39345862Y-195375314D01*
X39345862Y-195375314D02*
X39274434Y-195303885D01*
X39274434Y-195303885D02*
X39345862Y-195232457D01*
X39345862Y-195232457D02*
X39345862Y-195375314D01*
M02*
