M48
; DRILL file {KiCad (6.0.6)} date Sat Apr  1 18:19:27 2023
; FORMAT={-:-/ absolute / inch / decimal}
; #@! TF.CreationDate,2023-04-01T18:19:27-04:00
; #@! TF.GenerationSoftware,Kicad,Pcbnew,(6.0.6)
; #@! TF.FileFunction,Plated,1,4,PTH
FMAT,2
INCH
; #@! TA.AperFunction,Plated,PTH,ViaDrill
T1C0.0079
; #@! TA.AperFunction,Plated,PTH,ViaDrill
T2C0.0157
; #@! TA.AperFunction,Plated,PTH,ViaDrill
T3C0.0236
; #@! TA.AperFunction,Plated,PTH,ViaDrill
T4C0.0315
; #@! TA.AperFunction,Plated,PTH,ComponentDrill
T5C0.0394
%
G90
G05
T1
X1.235Y-4.245
X1.34Y-4.2
X1.575Y-3.635
X1.625Y-3.635
X1.675Y-3.635
X1.725Y-3.635
X1.775Y-3.635
X1.825Y-3.635
X1.875Y-3.635
X1.925Y-3.635
X1.975Y-3.635
X2.025Y-3.635
X2.075Y-3.635
X2.325Y-3.635
X2.375Y-3.635
X2.425Y-3.635
X2.475Y-3.635
X2.525Y-3.635
X2.575Y-3.635
X2.825Y-3.65
X2.875Y-3.65
X2.925Y-3.65
X2.975Y-3.65
X3.025Y-3.65
X3.075Y-3.65
X3.175Y-3.65
X3.225Y-3.65
X3.775Y-4.245
T2
X1.42Y-4.23
X1.52Y-4.075
X1.82Y-4.23
X1.89Y-4.14
X1.9485Y-4.24
X1.985Y-4.18
X2.14Y-4.2115
X2.25Y-3.5
X2.27Y-4.2389
X2.31Y-3.78
X2.385Y-4.2389
X2.42Y-3.93
X2.46Y-3.8963
X2.47Y-3.945
X2.4979Y-4.2271
X2.58Y-4.055
X2.615Y-4.23
X2.895Y-4.225
X3.0Y-4.21
X3.095Y-3.43
X3.12Y-4.215
X3.2Y-3.48
X3.22Y-4.23
X3.32Y-4.23
X3.42Y-4.23
X3.52Y-4.23
T3
X1.9962Y-4.235
T4
X1.16Y-3.215
X1.16Y-3.455
X1.16Y-3.695
X1.16Y-3.935
X1.16Y-4.175
X1.4578Y-3.215
X1.69Y-4.105
X1.7556Y-3.215
X2.0533Y-3.215
X2.3511Y-3.215
X2.6489Y-3.215
X2.73Y-4.21
X2.9467Y-3.215
X3.2444Y-3.215
X3.5422Y-3.215
X3.75Y-4.18
X3.84Y-3.215
X3.84Y-3.46
X3.84Y-3.7
X3.84Y-3.94
X3.84Y-4.18
T5
X1.3989Y-3.5674
X1.4489Y-3.3658
X1.4989Y-3.5674
X1.5489Y-3.3658
X1.5989Y-3.5674
X1.6489Y-3.3658
X1.6989Y-3.5674
X1.7489Y-3.3658
X1.7989Y-3.5674
X1.8489Y-3.3658
X1.8989Y-3.5674
X1.9489Y-3.3658
X1.9989Y-3.5674
X2.0489Y-3.3658
X2.0989Y-3.5674
X2.1489Y-3.3658
X2.1989Y-3.5674
X2.2489Y-3.3658
X2.2989Y-3.5674
X2.3489Y-3.3658
X2.3989Y-3.5674
X2.4489Y-3.3658
X2.4989Y-3.5674
X2.5489Y-3.3658
X2.5989Y-3.5674
X2.6489Y-3.3658
X2.6989Y-3.5674
X2.7489Y-3.3658
X2.7989Y-3.5674
X2.8489Y-3.3658
X2.8989Y-3.5674
X2.9489Y-3.3658
X2.9989Y-3.5674
X3.0489Y-3.3658
X3.0989Y-3.5674
X3.1489Y-3.3658
X3.1989Y-3.5674
X3.2489Y-3.3658
X3.2989Y-3.5674
X3.3489Y-3.3658
X3.3989Y-3.5674
X3.4489Y-3.3658
X3.4989Y-3.5674
X3.5489Y-3.3658
X3.5989Y-3.5674
T0
M30
