M48
; DRILL file {KiCad 8.0.2} date 2024-05-08T12:07:27-0400
; FORMAT={-:-/ absolute / metric / decimal}
; #@! TF.CreationDate,2024-05-08T12:07:27-04:00
; #@! TF.GenerationSoftware,Kicad,Pcbnew,8.0.2
; #@! TF.FileFunction,Plated,1,4,PTH
FMAT,2
METRIC
; #@! TA.AperFunction,Plated,PTH,ViaDrill
T1C0.200
; #@! TA.AperFunction,Plated,PTH,ViaDrill
T2C0.400
; #@! TA.AperFunction,Plated,PTH,ViaDrill
T3C0.800
; #@! TA.AperFunction,Plated,PTH,ComponentDrill
T4C1.000
%
G90
G05
T1
X104.37Y-87.73
X104.37Y-129.03
X118.539Y-129.543
X123.99Y-99.81
X124.26Y-105.29
X127.46Y-126.76
X127.8Y-99.81
X127.8Y-101.99
X127.8Y-104.92
X128.02Y-128.01
X130.33Y-104.93
X130.35Y-101.98
X132.87Y-104.93
X132.88Y-101.99
X134.09Y-123.34
X134.09Y-124.16
X134.09Y-124.99
X134.11Y-126.7
X134.17Y-129.67
X135.42Y-101.99
X135.42Y-104.93
X135.66Y-115.12
X135.93Y-120.46
X135.95Y-128.72
X136.66Y-128.72
X137.2Y-126.07
X137.2Y-127.35
X137.21Y-121.13
X137.37Y-113.26
X137.37Y-116.98
X137.96Y-104.93
X137.97Y-101.99
X137.97Y-123.95
X137.97Y-124.71
X138.03Y-127.35
X138.6Y-117.06
X139.08Y-115.12
X139.38Y-123.33
X139.38Y-124.87
X139.38Y-126.46
X139.42Y-121.9
X139.53Y-127.27
X139.53Y-127.98
X140.24Y-127.27
X140.24Y-127.98
X140.24Y-128.72
X140.5Y-104.93
X141.12Y-128.72
X141.79Y-123.33
X141.79Y-124.87
X141.79Y-126.45
X141.83Y-128.72
X143.01Y-124.87
X143.01Y-126.45
X143.57Y-128.72
X144.33Y-128.72
X144.48Y-124.87
X144.48Y-126.45
X145.44Y-110.23
X145.44Y-111.41
X145.57Y-104.93
X146.098Y-128.72
X146.7Y-120.65
X146.86Y-128.72
X146.98Y-126.45
X148.12Y-101.99
X148.12Y-104.93
X148.638Y-128.72
X149.4Y-128.72
X149.81Y-121.65
X150.66Y-104.93
X150.67Y-101.99
X150.82Y-124.87
X151.17Y-123.32
X151.178Y-128.72
X151.94Y-128.72
X152.77Y-124.87
X153.2Y-104.93
X153.21Y-100.12
X153.21Y-101.99
X153.719Y-128.72
X154.48Y-128.72
X155.74Y-104.93
X158.28Y-104.93
X158.29Y-100.12
X158.29Y-101.99
X159.66Y-128.72
X160.48Y-128.72
X160.81Y-104.93
X160.83Y-101.99
X161.99Y-116.07
X162.15Y-114.22
X162.33Y-113.2
X162.43Y-128.72
X162.46Y-117.85
X162.46Y-118.55
X162.81Y-116.98
X162.86Y-112.55
X162.87Y-125.34
X163.17Y-117.85
X163.17Y-118.55
X163.25Y-128.72
X163.35Y-104.93
X163.36Y-101.99
X164.13Y-118.6
X164.65Y-125.34
X165.41Y-128.72
X165.58Y-115.12
X165.83Y-118.6
X165.9Y-101.99
X166.26Y-128.72
X166.54Y-125.34
X167.83Y-118.6
X167.86Y-107.74
X168.43Y-104.93
X168.44Y-101.99
X168.958Y-128.72
X169.06Y-107.45
X169.06Y-111.91
X169.06Y-115.43
X169.69Y-118.6
X169.73Y-128.72
X170.33Y-108.49
X170.33Y-110.17
X170.33Y-111.91
X170.33Y-115.43
X170.97Y-104.93
X170.98Y-101.99
X171.498Y-128.72
X171.6Y-111.91
X171.61Y-115.43
X172.27Y-128.72
X173.52Y-101.99
X174.038Y-128.72
X174.8Y-128.72
X175.41Y-110.58
X176.578Y-128.72
X177.0Y-115.43
X177.33Y-99.81
X177.35Y-128.72
X178.6Y-101.99
X178.6Y-104.93
X179.54Y-107.59
X181.65Y-127.13
X181.65Y-127.83
X181.65Y-128.53
X181.65Y-129.23
X182.01Y-126.18
X182.09Y-115.43
X182.36Y-127.13
X182.36Y-127.83
X182.36Y-128.53
X182.36Y-129.23
X183.055Y-129.543
X183.66Y-110.59
X196.9Y-87.72
X196.9Y-129.04
T2
X132.14Y-129.04
X147.62Y-115.96
X147.63Y-119.61
X172.77Y-121.04
X179.67Y-129.11
T3
X116.62Y-97.274
X116.634Y-103.381
X116.634Y-109.477
X116.634Y-127.765
X124.184Y-97.274
X131.747Y-97.274
X157.07Y-129.17
X169.565Y-97.274
X177.128Y-97.274
X184.692Y-97.274
X184.692Y-103.497
X184.706Y-109.604
X184.706Y-127.892
T4
X122.72Y-106.29
X123.99Y-101.17
X125.26Y-106.29
X126.53Y-101.17
X127.8Y-106.29
X129.07Y-101.17
X130.34Y-106.29
X131.61Y-101.17
X132.88Y-106.29
X134.15Y-101.17
X135.42Y-106.29
X136.69Y-101.17
X137.96Y-106.29
X139.23Y-101.17
X140.5Y-106.29
X141.77Y-101.17
X143.04Y-106.29
X144.31Y-101.17
X145.58Y-106.29
X146.85Y-101.17
X148.12Y-106.29
X149.39Y-101.17
X150.66Y-106.29
X151.93Y-101.17
X153.2Y-106.29
X154.47Y-101.17
X155.74Y-106.29
X157.01Y-101.17
X158.28Y-106.29
X159.55Y-101.17
X160.82Y-106.29
X162.09Y-101.17
X163.36Y-106.29
X164.63Y-101.17
X165.9Y-106.29
X167.17Y-101.17
X168.44Y-106.29
X169.71Y-101.17
X170.98Y-106.29
X172.25Y-101.17
X173.52Y-106.29
X174.79Y-101.17
X176.06Y-106.29
X177.33Y-101.17
X178.6Y-106.29
M30
