%TF.GenerationSoftware,KiCad,Pcbnew,(6.0.6)*%
%TF.CreationDate,2022-12-16T03:55:13-05:00*%
%TF.ProjectId,SMS-to-GG,534d532d-746f-42d4-9747-2e6b69636164,rev?*%
%TF.SameCoordinates,Original*%
%TF.FileFunction,Copper,L4,Bot*%
%TF.FilePolarity,Positive*%
%FSLAX46Y46*%
G04 Gerber Fmt 4.6, Leading zero omitted, Abs format (unit mm)*
G04 Created by KiCad (PCBNEW (6.0.6)) date 2022-12-16 03:55:13*
%MOMM*%
%LPD*%
G01*
G04 APERTURE LIST*
G04 Aperture macros list*
%AMFreePoly0*
4,1,17,-0.910000,3.545000,-0.901941,3.630258,-0.857113,3.757908,-0.776734,3.866734,-0.667908,3.947113,-0.540258,3.991941,-0.455000,4.000000,0.455000,4.000000,0.540258,3.991941,0.667908,3.947113,0.776734,3.866734,0.857113,3.757908,0.901941,3.630258,0.910000,3.545000,0.910000,-4.000000,-0.910000,-4.000000,-0.910000,3.545000,-0.910000,3.545000,$1*%
%AMFreePoly1*
4,1,17,-0.910000,3.945000,-0.901941,4.030258,-0.857113,4.157908,-0.776734,4.266734,-0.667908,4.347113,-0.540258,4.391941,-0.455000,4.400000,0.455000,4.400000,0.540258,4.391941,0.667908,4.347113,0.776734,4.266734,0.857113,4.157908,0.901941,4.030258,0.910000,3.945000,0.910000,-4.400000,-0.910000,-4.400000,-0.910000,3.945000,-0.910000,3.945000,$1*%
G04 Aperture macros list end*
%TA.AperFunction,WasherPad*%
%ADD10C,3.500000*%
%TD*%
%TA.AperFunction,ComponentPad*%
%ADD11C,1.700000*%
%TD*%
%TA.AperFunction,ComponentPad*%
%ADD12O,1.700000X1.700000*%
%TD*%
%TA.AperFunction,ComponentPad*%
%ADD13R,1.700000X1.700000*%
%TD*%
%TA.AperFunction,ConnectorPad*%
%ADD14FreePoly0,0.000000*%
%TD*%
%TA.AperFunction,ConnectorPad*%
%ADD15FreePoly1,0.000000*%
%TD*%
%TA.AperFunction,ViaPad*%
%ADD16C,0.500000*%
%TD*%
%TA.AperFunction,ViaPad*%
%ADD17C,1.500000*%
%TD*%
%TA.AperFunction,ViaPad*%
%ADD18C,0.800000*%
%TD*%
%TA.AperFunction,ViaPad*%
%ADD19C,1.000000*%
%TD*%
%TA.AperFunction,ViaPad*%
%ADD20C,0.600000*%
%TD*%
%TA.AperFunction,Conductor*%
%ADD21C,0.250000*%
%TD*%
%TA.AperFunction,Conductor*%
%ADD22C,1.000000*%
%TD*%
G04 APERTURE END LIST*
D10*
%TO.P,J2,*%
%TO.N,*%
X16483000Y-86293000D03*
X22833000Y-86293000D03*
X103859000Y-86293000D03*
D11*
%TO.P,J2,1,+34V*%
%TO.N,unconnected-(J2-Pad1)*%
X35533000Y-90611000D03*
%TO.P,J2,2,+5V*%
%TO.N,+5V*%
X36803000Y-85491000D03*
D12*
%TO.P,J2,3,Write*%
%TO.N,Write*%
X38073000Y-90611000D03*
%TO.P,J2,4,A12*%
%TO.N,A12*%
X39343000Y-85491000D03*
%TO.P,J2,5,A7*%
%TO.N,A7*%
X40613000Y-90611000D03*
%TO.P,J2,6,A6*%
%TO.N,A6*%
X41883000Y-85491000D03*
%TO.P,J2,7,A5*%
%TO.N,A5*%
X43153000Y-90611000D03*
%TO.P,J2,8,A4*%
%TO.N,A4*%
X44423000Y-85491000D03*
%TO.P,J2,9,A3*%
%TO.N,A3*%
X45693000Y-90611000D03*
%TO.P,J2,10,A2*%
%TO.N,A2*%
X46963000Y-85491000D03*
%TO.P,J2,11,A1*%
%TO.N,A1*%
X48233000Y-90611000D03*
%TO.P,J2,12,A0*%
%TO.N,A0*%
X49503000Y-85491000D03*
%TO.P,J2,13,D0*%
%TO.N,D0*%
X50773000Y-90611000D03*
%TO.P,J2,14,D1*%
%TO.N,D1*%
X52043000Y-85491000D03*
%TO.P,J2,15,D2*%
%TO.N,D2*%
X53313000Y-90611000D03*
D13*
%TO.P,J2,16,GND*%
%TO.N,GND*%
X54583000Y-85491000D03*
%TO.P,J2,17,GND*%
X55853000Y-90611000D03*
%TO.P,J2,18,GND*%
X57123000Y-85491000D03*
D12*
%TO.P,J2,19,D3*%
%TO.N,D3*%
X58393000Y-90611000D03*
%TO.P,J2,20,D4*%
%TO.N,D4*%
X59663000Y-85491000D03*
%TO.P,J2,21,D5*%
%TO.N,D5*%
X60933000Y-90611000D03*
%TO.P,J2,22,D6*%
%TO.N,D6*%
X62203000Y-85491000D03*
%TO.P,J2,23,D7*%
%TO.N,D7*%
X63473000Y-90611000D03*
%TO.P,J2,24,Enable*%
%TO.N,Enable*%
X64743000Y-85491000D03*
%TO.P,J2,25,A10*%
%TO.N,A10*%
X66013000Y-90611000D03*
%TO.P,J2,26,Read*%
%TO.N,Read*%
X67283000Y-85491000D03*
%TO.P,J2,27,M0-7*%
%TO.N,M0-7*%
X68553000Y-90611000D03*
%TO.P,J2,28,A15*%
%TO.N,A15*%
X69823000Y-85491000D03*
%TO.P,J2,29,A11*%
%TO.N,A11*%
X71093000Y-90611000D03*
%TO.P,J2,30,A9*%
%TO.N,A9*%
X72363000Y-85491000D03*
%TO.P,J2,31,A8*%
%TO.N,A8*%
X73633000Y-90611000D03*
%TO.P,J2,32,A13*%
%TO.N,A13*%
X74903000Y-85491000D03*
%TO.P,J2,33,A14*%
%TO.N,A14*%
X76173000Y-90611000D03*
%TO.P,J2,34,M8-B*%
%TO.N,M8-B*%
X77443000Y-85491000D03*
%TO.P,J2,35,+5V*%
%TO.N,+5V*%
X78713000Y-90611000D03*
%TO.P,J2,36,M1*%
%TO.N,M1*%
X79983000Y-85491000D03*
%TO.P,J2,37,IO_Request*%
%TO.N,IO_Request*%
X81253000Y-90611000D03*
%TO.P,J2,38,Refresh*%
%TO.N,Refresh*%
X82523000Y-85491000D03*
%TO.P,J2,39,Reset*%
%TO.N,Reset*%
X83793000Y-90611000D03*
%TO.P,J2,40,Clock*%
%TO.N,Clock*%
X85063000Y-85491000D03*
D13*
%TO.P,J2,41,GND*%
%TO.N,GND*%
X86333000Y-90611000D03*
D12*
%TO.P,J2,42,GG*%
%TO.N,unconnected-(J2-Pad42)*%
X87603000Y-85491000D03*
%TO.P,J2,43,TV_Enable*%
%TO.N,+5V*%
X88873000Y-90611000D03*
%TO.P,J2,44,TV_Audio_R*%
%TO.N,unconnected-(J2-Pad44)*%
X90143000Y-85491000D03*
%TO.P,J2,45,TV_Audio_L*%
%TO.N,unconnected-(J2-Pad45)*%
X91413000Y-90611000D03*
%TD*%
D14*
%TO.P,J1,1,+5V*%
%TO.N,+5V*%
X94037000Y-112268000D03*
%TO.P,J1,3,MemRequest*%
%TO.N,unconnected-(J1-Pad3)*%
X91497000Y-112268000D03*
%TO.P,J1,5,M8-B*%
%TO.N,M8-B*%
X88957000Y-112268000D03*
%TO.P,J1,7,A13*%
%TO.N,A13*%
X86417000Y-112268000D03*
%TO.P,J1,9,A9*%
%TO.N,A9*%
X83877000Y-112268000D03*
%TO.P,J1,11,M0-7*%
%TO.N,M0-7*%
X81337000Y-112268000D03*
%TO.P,J1,13,Enable*%
%TO.N,Enable*%
X78797000Y-112268000D03*
%TO.P,J1,15,D6*%
%TO.N,D6*%
X76257000Y-112268000D03*
%TO.P,J1,17,D4*%
%TO.N,D4*%
X73717000Y-112268000D03*
D15*
%TO.P,J1,19,GND*%
%TO.N,GND*%
X71177000Y-112668000D03*
%TO.P,J1,21,GND*%
X68637000Y-112668000D03*
D14*
%TO.P,J1,23,D1*%
%TO.N,D1*%
X66097000Y-112268000D03*
%TO.P,J1,25,A0*%
%TO.N,A0*%
X63557000Y-112268000D03*
%TO.P,J1,27,A2*%
%TO.N,A2*%
X61017000Y-112268000D03*
%TO.P,J1,29,A4*%
%TO.N,A4*%
X58477000Y-112268000D03*
%TO.P,J1,31,A6*%
%TO.N,A6*%
X55937000Y-112268000D03*
%TO.P,J1,33,A12*%
%TO.N,A12*%
X53397000Y-112268000D03*
%TO.P,J1,35,+5V*%
%TO.N,+5V*%
X50857000Y-112268000D03*
%TO.P,J1,37,M1*%
%TO.N,M1*%
X48317000Y-112268000D03*
%TO.P,J1,39,Refresh*%
%TO.N,Refresh*%
X45777000Y-112268000D03*
%TO.P,J1,41,Wait*%
%TO.N,unconnected-(J1-Pad41)*%
X43237000Y-112268000D03*
%TO.P,J1,43,Joystick_Disable*%
%TO.N,unconnected-(J1-Pad43)*%
X40697000Y-112268000D03*
%TO.P,J1,45,Bus_Acknowledge*%
%TO.N,unconnected-(J1-Pad45)*%
X38157000Y-112268000D03*
%TO.P,J1,47,Clock*%
%TO.N,Clock*%
X35617000Y-112268000D03*
%TO.P,J1,49,MC-F*%
%TO.N,unconnected-(J1-Pad49)*%
X33077000Y-112268000D03*
%TD*%
D16*
%TO.N,GND*%
X81915000Y-92710000D03*
X80645000Y-92710000D03*
X95885000Y-107823000D03*
X31369000Y-107823000D03*
D17*
X42926000Y-104267000D03*
X89972440Y-81661000D03*
X82408885Y-81661000D03*
X74845330Y-81661000D03*
X67281775Y-81661000D03*
X59718220Y-81661000D03*
X52154665Y-81661000D03*
X44591110Y-81661000D03*
X37027555Y-81661000D03*
D18*
X65532000Y-102997000D03*
X58674000Y-96012000D03*
X62738000Y-100203000D03*
D16*
X40005000Y-92329000D03*
X41275000Y-92329000D03*
X42545000Y-92329000D03*
X43815000Y-92329000D03*
X45085000Y-92329000D03*
X46355000Y-92329000D03*
X47625000Y-92329000D03*
X48895000Y-92329000D03*
X50165000Y-92329000D03*
X51435000Y-92329000D03*
X52705000Y-92329000D03*
X62865000Y-92329000D03*
X61595000Y-92329000D03*
X60325000Y-92329000D03*
X59055000Y-92329000D03*
X78105000Y-92710000D03*
X76835000Y-92710000D03*
X75565000Y-92710000D03*
X74295000Y-92710000D03*
X73025000Y-92710000D03*
X71755000Y-92710000D03*
X65405000Y-92329000D03*
X64135000Y-92329000D03*
D18*
%TO.N,IO_Request*%
X48006000Y-105156000D03*
%TO.N,A15*%
X57150000Y-88900000D03*
X49492500Y-107696000D03*
%TO.N,Clock*%
X36068000Y-107442000D03*
%TO.N,Refresh*%
X62484000Y-98966547D03*
%TO.N,IO_Request*%
X61468000Y-99822000D03*
D17*
%TO.N,GND*%
X97536000Y-87884000D03*
X97536000Y-81661000D03*
X97536000Y-106172000D03*
X97536000Y-93980000D03*
X97536000Y-100076000D03*
D18*
%TO.N,Write*%
X81280000Y-88392000D03*
D17*
%TO.N,GND*%
X69342000Y-106934000D03*
D18*
%TO.N,Read*%
X78613000Y-87122000D03*
%TO.N,Refresh*%
X46228000Y-107442000D03*
%TO.N,M8-B*%
X89408000Y-107442000D03*
%TO.N,A13*%
X86868000Y-107442000D03*
%TO.N,A9*%
X84328000Y-107442000D03*
%TO.N,M0-7*%
X81788000Y-107442000D03*
%TO.N,Enable*%
X79248000Y-107061000D03*
%TO.N,D6*%
X76200000Y-106934000D03*
%TO.N,D4*%
X73533000Y-107315000D03*
D19*
%TO.N,+5V*%
X50703461Y-107568500D03*
D18*
%TO.N,D1*%
X66421000Y-107442000D03*
%TO.N,A0*%
X63445452Y-107369549D03*
%TO.N,A2*%
X60579000Y-107668500D03*
%TO.N,A4*%
X57658000Y-107668500D03*
%TO.N,A12*%
X50419000Y-106172000D03*
%TO.N,A6*%
X54356000Y-106971500D03*
%TO.N,Reset*%
X38608000Y-103505000D03*
D17*
%TO.N,+5V*%
X95250000Y-106172000D03*
%TO.N,GND*%
X29464000Y-81661000D03*
X29464000Y-87757000D03*
X29464000Y-106045000D03*
X29464000Y-93853000D03*
X29464000Y-99949000D03*
D20*
X34036000Y-106680000D03*
%TD*%
D21*
%TO.N,IO_Request*%
X81253000Y-94769000D02*
X81253000Y-90611000D01*
X62865000Y-95504000D02*
X80518000Y-95504000D01*
X61468000Y-96901000D02*
X62865000Y-95504000D01*
X61468000Y-99822000D02*
X61468000Y-96901000D01*
X80518000Y-95504000D02*
X81253000Y-94769000D01*
%TO.N,Refresh*%
X82523000Y-95277000D02*
X82523000Y-85491000D01*
X78867000Y-98933000D02*
X82523000Y-95277000D01*
X62517547Y-98933000D02*
X78867000Y-98933000D01*
X62484000Y-98966547D02*
X62517547Y-98933000D01*
%TO.N,M1*%
X79983000Y-94261000D02*
X79983000Y-85491000D01*
X79883000Y-94361000D02*
X79983000Y-94261000D01*
X53467000Y-94361000D02*
X79883000Y-94361000D01*
X48768000Y-111817000D02*
X48768000Y-99060000D01*
X48317000Y-112268000D02*
X48768000Y-111817000D01*
X48768000Y-99060000D02*
X53467000Y-94361000D01*
D22*
%TO.N,GND*%
X71177000Y-108007000D02*
X71177000Y-112668000D01*
X70104000Y-106934000D02*
X71177000Y-108007000D01*
X68637000Y-107893000D02*
X68637000Y-112668000D01*
X69342000Y-107188000D02*
X68637000Y-107893000D01*
X69342000Y-106934000D02*
X69342000Y-107188000D01*
X69342000Y-106934000D02*
X70104000Y-106934000D01*
%TO.N,+5V*%
X94037000Y-107385000D02*
X94037000Y-112268000D01*
X95250000Y-106172000D02*
X94037000Y-107385000D01*
D21*
%TO.N,A6*%
X56388000Y-108966000D02*
X56388000Y-111817000D01*
X56388000Y-111817000D02*
X55937000Y-112268000D01*
X54393500Y-106971500D02*
X56388000Y-108966000D01*
X54356000Y-106971500D02*
X54393500Y-106971500D01*
%TO.N,D1*%
X66421000Y-107442000D02*
X66548000Y-107569000D01*
X66548000Y-107569000D02*
X66548000Y-111817000D01*
X66548000Y-111817000D02*
X66097000Y-112268000D01*
%TO.N,A2*%
X61468000Y-111817000D02*
X61017000Y-112268000D01*
X60579000Y-107668500D02*
X61468000Y-108557500D01*
X61468000Y-108557500D02*
X61468000Y-111817000D01*
%TO.N,A4*%
X58928000Y-111817000D02*
X58477000Y-112268000D01*
X57658000Y-107668500D02*
X58928000Y-108938500D01*
X58928000Y-108938500D02*
X58928000Y-111817000D01*
%TO.N,A12*%
X53848000Y-111817000D02*
X53397000Y-112268000D01*
X53848000Y-109474000D02*
X53848000Y-111817000D01*
X50546000Y-106172000D02*
X53848000Y-109474000D01*
X50419000Y-106172000D02*
X50546000Y-106172000D01*
D22*
%TO.N,+5V*%
X50857000Y-107722039D02*
X50857000Y-112268000D01*
X50703461Y-107568500D02*
X50857000Y-107722039D01*
D21*
%TO.N,A0*%
X64008000Y-111817000D02*
X63557000Y-112268000D01*
X63445452Y-107369549D02*
X64008000Y-107932097D01*
X64008000Y-107932097D02*
X64008000Y-111817000D01*
%TO.N,Enable*%
X79248000Y-111817000D02*
X78797000Y-112268000D01*
X79248000Y-107061000D02*
X79248000Y-111817000D01*
%TO.N,D6*%
X76200000Y-106934000D02*
X76708000Y-107442000D01*
X76708000Y-107442000D02*
X76708000Y-111817000D01*
X76708000Y-111817000D02*
X76257000Y-112268000D01*
%TO.N,D4*%
X74168000Y-111817000D02*
X73717000Y-112268000D01*
X74168000Y-107950000D02*
X74168000Y-111817000D01*
X73533000Y-107315000D02*
X74168000Y-107950000D01*
%TO.N,A15*%
X69823000Y-87530000D02*
X69823000Y-85491000D01*
X68453000Y-88900000D02*
X69823000Y-87530000D01*
X57150000Y-88900000D02*
X68453000Y-88900000D01*
%TO.N,Clock*%
X36068000Y-110744000D02*
X35560000Y-111252000D01*
X36068000Y-107442000D02*
X36068000Y-110744000D01*
%TO.N,M8-B*%
X89408000Y-107442000D02*
X89408000Y-111817000D01*
X89408000Y-111817000D02*
X88957000Y-112268000D01*
%TO.N,A13*%
X86868000Y-111817000D02*
X86417000Y-112268000D01*
X86868000Y-107442000D02*
X86868000Y-111817000D01*
%TO.N,A9*%
X84328000Y-111817000D02*
X83877000Y-112268000D01*
X84328000Y-107442000D02*
X84328000Y-111817000D01*
%TO.N,M0-7*%
X81788000Y-111817000D02*
X81337000Y-112268000D01*
X81788000Y-107442000D02*
X81788000Y-111817000D01*
%TO.N,Refresh*%
X46228000Y-111817000D02*
X45777000Y-112268000D01*
X46228000Y-107442000D02*
X46228000Y-111817000D01*
%TD*%
%TA.AperFunction,Conductor*%
%TO.N,GND*%
G36*
X109923621Y-66949502D02*
G01*
X109970114Y-67003158D01*
X109981500Y-67055500D01*
X109981500Y-107442500D01*
X109961498Y-107510621D01*
X109907842Y-107557114D01*
X109855500Y-107568500D01*
X96557476Y-107568500D01*
X96532897Y-107566079D01*
X96520000Y-107563514D01*
X96507828Y-107565935D01*
X96494933Y-107568500D01*
X96420699Y-107583266D01*
X96336516Y-107639516D01*
X96329623Y-107649832D01*
X96288842Y-107710865D01*
X96280266Y-107723699D01*
X96260514Y-107823000D01*
X96262935Y-107835170D01*
X96263079Y-107835894D01*
X96265500Y-107860476D01*
X96265500Y-108078000D01*
X96245498Y-108146121D01*
X96191842Y-108192614D01*
X96139500Y-108204000D01*
X95028623Y-108204000D01*
X94960502Y-108183998D01*
X94939528Y-108167095D01*
X94933002Y-108160569D01*
X94902785Y-108142269D01*
X94852228Y-108111650D01*
X94804322Y-108059252D01*
X94791500Y-108003874D01*
X94791500Y-107749715D01*
X94811502Y-107681594D01*
X94828405Y-107660620D01*
X95281515Y-107207510D01*
X95343827Y-107173484D01*
X95360940Y-107170976D01*
X95425274Y-107166026D01*
X95615009Y-107113050D01*
X95657303Y-107091686D01*
X95785341Y-107027010D01*
X95785343Y-107027009D01*
X95790842Y-107024231D01*
X95946074Y-106902950D01*
X95950100Y-106898286D01*
X95950103Y-106898283D01*
X96070764Y-106758496D01*
X96070765Y-106758494D01*
X96074793Y-106753828D01*
X96172096Y-106582544D01*
X96234277Y-106395622D01*
X96258966Y-106200183D01*
X96259360Y-106172000D01*
X96240137Y-105975948D01*
X96183200Y-105787363D01*
X96176292Y-105774371D01*
X96093611Y-105618871D01*
X96093609Y-105618868D01*
X96090717Y-105613429D01*
X95966212Y-105460770D01*
X95900894Y-105406734D01*
X95819177Y-105339132D01*
X95819174Y-105339130D01*
X95814427Y-105335203D01*
X95641143Y-105241508D01*
X95452960Y-105183256D01*
X95446835Y-105182612D01*
X95446834Y-105182612D01*
X95263176Y-105163309D01*
X95263174Y-105163309D01*
X95257047Y-105162665D01*
X95175018Y-105170130D01*
X95067004Y-105179960D01*
X95067001Y-105179961D01*
X95060865Y-105180519D01*
X95054959Y-105182257D01*
X95054955Y-105182258D01*
X94914775Y-105223516D01*
X94871887Y-105236138D01*
X94866427Y-105238992D01*
X94866428Y-105238992D01*
X94702772Y-105324549D01*
X94702768Y-105324552D01*
X94697312Y-105327404D01*
X94543788Y-105450840D01*
X94417163Y-105601745D01*
X94410740Y-105613429D01*
X94346138Y-105730941D01*
X94322262Y-105774371D01*
X94320398Y-105780246D01*
X94320397Y-105780249D01*
X94290769Y-105873649D01*
X94262697Y-105962142D01*
X94262011Y-105968257D01*
X94262010Y-105968262D01*
X94251174Y-106064870D01*
X94223703Y-106130337D01*
X94215055Y-106139920D01*
X93550697Y-106804279D01*
X93536283Y-106816666D01*
X93518929Y-106829437D01*
X93514186Y-106835020D01*
X93484911Y-106869479D01*
X93477981Y-106876995D01*
X93472338Y-106882638D01*
X93454806Y-106904798D01*
X93452039Y-106908173D01*
X93405018Y-106963520D01*
X93401689Y-106970040D01*
X93398369Y-106975018D01*
X93395236Y-106980091D01*
X93390693Y-106985833D01*
X93387593Y-106992466D01*
X93359947Y-107051617D01*
X93358016Y-107055567D01*
X93353282Y-107064838D01*
X93325007Y-107120212D01*
X93323267Y-107127322D01*
X93321177Y-107132942D01*
X93319297Y-107138593D01*
X93316199Y-107145222D01*
X93314709Y-107152386D01*
X93314708Y-107152389D01*
X93306367Y-107192495D01*
X93302219Y-107212439D01*
X93301415Y-107216303D01*
X93300449Y-107220573D01*
X93283189Y-107291108D01*
X93282500Y-107302214D01*
X93282466Y-107302212D01*
X93282223Y-107306271D01*
X93281863Y-107310305D01*
X93280372Y-107317473D01*
X93280570Y-107324790D01*
X93282454Y-107394415D01*
X93282500Y-107397823D01*
X93282500Y-108003874D01*
X93262498Y-108071995D01*
X93221772Y-108111650D01*
X93171215Y-108142269D01*
X93140998Y-108160569D01*
X93134472Y-108167095D01*
X93133427Y-108167666D01*
X93129653Y-108170625D01*
X93129160Y-108169996D01*
X93072160Y-108201121D01*
X93045377Y-108204000D01*
X92488623Y-108204000D01*
X92420502Y-108183998D01*
X92399528Y-108167095D01*
X92393002Y-108160569D01*
X92291844Y-108099305D01*
X92252610Y-108075544D01*
X92252609Y-108075544D01*
X92246114Y-108071610D01*
X92238867Y-108069339D01*
X92238865Y-108069338D01*
X92171837Y-108048333D01*
X92082246Y-108020257D01*
X92008711Y-108013500D01*
X92005813Y-108013500D01*
X91495673Y-108013501D01*
X90985290Y-108013501D01*
X90982432Y-108013764D01*
X90982423Y-108013764D01*
X90947086Y-108017011D01*
X90911754Y-108020257D01*
X90905375Y-108022256D01*
X90755135Y-108069338D01*
X90755133Y-108069339D01*
X90747886Y-108071610D01*
X90741391Y-108075544D01*
X90741390Y-108075544D01*
X90702156Y-108099305D01*
X90600998Y-108160569D01*
X90594472Y-108167095D01*
X90593427Y-108167666D01*
X90589653Y-108170625D01*
X90589160Y-108169996D01*
X90532160Y-108201121D01*
X90505377Y-108204000D01*
X89948623Y-108204000D01*
X89880502Y-108183998D01*
X89859528Y-108167095D01*
X89853002Y-108160569D01*
X89846499Y-108156631D01*
X89840526Y-108151947D01*
X89841663Y-108150496D01*
X89800324Y-108105286D01*
X89787500Y-108049903D01*
X89787500Y-108036730D01*
X89807502Y-107968609D01*
X89831669Y-107940919D01*
X89887536Y-107893204D01*
X89893314Y-107888269D01*
X89985755Y-107759624D01*
X90044842Y-107612641D01*
X90051834Y-107563514D01*
X90066581Y-107459891D01*
X90066581Y-107459888D01*
X90067162Y-107455807D01*
X90067307Y-107442000D01*
X90048276Y-107284733D01*
X89992280Y-107136546D01*
X89961449Y-107091686D01*
X89906855Y-107012251D01*
X89906854Y-107012249D01*
X89902553Y-107005992D01*
X89892717Y-106997228D01*
X89837247Y-106947807D01*
X89784275Y-106900611D01*
X89776889Y-106896700D01*
X89680959Y-106845908D01*
X89644274Y-106826484D01*
X89490633Y-106787892D01*
X89483034Y-106787852D01*
X89483033Y-106787852D01*
X89417181Y-106787507D01*
X89332221Y-106787062D01*
X89324841Y-106788834D01*
X89324839Y-106788834D01*
X89185563Y-106822271D01*
X89185560Y-106822272D01*
X89178184Y-106824043D01*
X89037414Y-106896700D01*
X88918039Y-107000838D01*
X88826950Y-107130444D01*
X88809753Y-107174552D01*
X88775002Y-107263685D01*
X88769406Y-107278037D01*
X88768414Y-107285570D01*
X88768414Y-107285571D01*
X88749823Y-107426787D01*
X88748729Y-107435096D01*
X88766113Y-107592553D01*
X88768723Y-107599684D01*
X88768723Y-107599686D01*
X88814396Y-107724493D01*
X88820553Y-107741319D01*
X88824789Y-107747622D01*
X88824789Y-107747623D01*
X88871559Y-107817224D01*
X88892951Y-107884921D01*
X88874347Y-107953437D01*
X88821654Y-108001018D01*
X88766977Y-108013500D01*
X88451649Y-108013501D01*
X88445290Y-108013501D01*
X88442432Y-108013764D01*
X88442423Y-108013764D01*
X88407086Y-108017011D01*
X88371754Y-108020257D01*
X88365375Y-108022256D01*
X88215135Y-108069338D01*
X88215133Y-108069339D01*
X88207886Y-108071610D01*
X88201391Y-108075544D01*
X88201390Y-108075544D01*
X88162156Y-108099305D01*
X88060998Y-108160569D01*
X88054472Y-108167095D01*
X88053427Y-108167666D01*
X88049653Y-108170625D01*
X88049160Y-108169996D01*
X87992160Y-108201121D01*
X87965377Y-108204000D01*
X87408623Y-108204000D01*
X87340502Y-108183998D01*
X87319528Y-108167095D01*
X87313002Y-108160569D01*
X87306499Y-108156631D01*
X87300526Y-108151947D01*
X87301663Y-108150496D01*
X87260324Y-108105286D01*
X87247500Y-108049903D01*
X87247500Y-108036730D01*
X87267502Y-107968609D01*
X87291669Y-107940919D01*
X87347536Y-107893204D01*
X87353314Y-107888269D01*
X87445755Y-107759624D01*
X87504842Y-107612641D01*
X87511834Y-107563514D01*
X87526581Y-107459891D01*
X87526581Y-107459888D01*
X87527162Y-107455807D01*
X87527307Y-107442000D01*
X87508276Y-107284733D01*
X87452280Y-107136546D01*
X87421449Y-107091686D01*
X87366855Y-107012251D01*
X87366854Y-107012249D01*
X87362553Y-107005992D01*
X87352717Y-106997228D01*
X87297247Y-106947807D01*
X87244275Y-106900611D01*
X87236889Y-106896700D01*
X87140959Y-106845908D01*
X87104274Y-106826484D01*
X86950633Y-106787892D01*
X86943034Y-106787852D01*
X86943033Y-106787852D01*
X86877181Y-106787507D01*
X86792221Y-106787062D01*
X86784841Y-106788834D01*
X86784839Y-106788834D01*
X86645563Y-106822271D01*
X86645560Y-106822272D01*
X86638184Y-106824043D01*
X86497414Y-106896700D01*
X86378039Y-107000838D01*
X86286950Y-107130444D01*
X86269753Y-107174552D01*
X86235002Y-107263685D01*
X86229406Y-107278037D01*
X86228414Y-107285570D01*
X86228414Y-107285571D01*
X86209823Y-107426787D01*
X86208729Y-107435096D01*
X86226113Y-107592553D01*
X86228723Y-107599684D01*
X86228723Y-107599686D01*
X86274396Y-107724493D01*
X86280553Y-107741319D01*
X86284789Y-107747622D01*
X86284789Y-107747623D01*
X86331559Y-107817224D01*
X86352951Y-107884921D01*
X86334347Y-107953437D01*
X86281654Y-108001018D01*
X86226977Y-108013500D01*
X85911649Y-108013501D01*
X85905290Y-108013501D01*
X85902432Y-108013764D01*
X85902423Y-108013764D01*
X85867086Y-108017011D01*
X85831754Y-108020257D01*
X85825375Y-108022256D01*
X85675135Y-108069338D01*
X85675133Y-108069339D01*
X85667886Y-108071610D01*
X85661391Y-108075544D01*
X85661390Y-108075544D01*
X85622156Y-108099305D01*
X85520998Y-108160569D01*
X85514472Y-108167095D01*
X85513427Y-108167666D01*
X85509653Y-108170625D01*
X85509160Y-108169996D01*
X85452160Y-108201121D01*
X85425377Y-108204000D01*
X84868623Y-108204000D01*
X84800502Y-108183998D01*
X84779528Y-108167095D01*
X84773002Y-108160569D01*
X84766499Y-108156631D01*
X84760526Y-108151947D01*
X84761663Y-108150496D01*
X84720324Y-108105286D01*
X84707500Y-108049903D01*
X84707500Y-108036730D01*
X84727502Y-107968609D01*
X84751669Y-107940919D01*
X84807536Y-107893204D01*
X84813314Y-107888269D01*
X84905755Y-107759624D01*
X84964842Y-107612641D01*
X84971834Y-107563514D01*
X84986581Y-107459891D01*
X84986581Y-107459888D01*
X84987162Y-107455807D01*
X84987307Y-107442000D01*
X84968276Y-107284733D01*
X84912280Y-107136546D01*
X84881449Y-107091686D01*
X84826855Y-107012251D01*
X84826854Y-107012249D01*
X84822553Y-107005992D01*
X84812717Y-106997228D01*
X84757247Y-106947807D01*
X84704275Y-106900611D01*
X84696889Y-106896700D01*
X84600959Y-106845908D01*
X84564274Y-106826484D01*
X84410633Y-106787892D01*
X84403034Y-106787852D01*
X84403033Y-106787852D01*
X84337181Y-106787507D01*
X84252221Y-106787062D01*
X84244841Y-106788834D01*
X84244839Y-106788834D01*
X84105563Y-106822271D01*
X84105560Y-106822272D01*
X84098184Y-106824043D01*
X83957414Y-106896700D01*
X83838039Y-107000838D01*
X83746950Y-107130444D01*
X83729753Y-107174552D01*
X83695002Y-107263685D01*
X83689406Y-107278037D01*
X83688414Y-107285570D01*
X83688414Y-107285571D01*
X83669823Y-107426787D01*
X83668729Y-107435096D01*
X83686113Y-107592553D01*
X83688723Y-107599684D01*
X83688723Y-107599686D01*
X83734396Y-107724493D01*
X83740553Y-107741319D01*
X83744789Y-107747622D01*
X83744789Y-107747623D01*
X83791559Y-107817224D01*
X83812951Y-107884921D01*
X83794347Y-107953437D01*
X83741654Y-108001018D01*
X83686977Y-108013500D01*
X83371649Y-108013501D01*
X83365290Y-108013501D01*
X83362432Y-108013764D01*
X83362423Y-108013764D01*
X83327086Y-108017011D01*
X83291754Y-108020257D01*
X83285375Y-108022256D01*
X83135135Y-108069338D01*
X83135133Y-108069339D01*
X83127886Y-108071610D01*
X83121391Y-108075544D01*
X83121390Y-108075544D01*
X83082156Y-108099305D01*
X82980998Y-108160569D01*
X82974472Y-108167095D01*
X82973427Y-108167666D01*
X82969653Y-108170625D01*
X82969160Y-108169996D01*
X82912160Y-108201121D01*
X82885377Y-108204000D01*
X82328623Y-108204000D01*
X82260502Y-108183998D01*
X82239528Y-108167095D01*
X82233002Y-108160569D01*
X82226499Y-108156631D01*
X82220526Y-108151947D01*
X82221663Y-108150496D01*
X82180324Y-108105286D01*
X82167500Y-108049903D01*
X82167500Y-108036730D01*
X82187502Y-107968609D01*
X82211669Y-107940919D01*
X82267536Y-107893204D01*
X82273314Y-107888269D01*
X82365755Y-107759624D01*
X82424842Y-107612641D01*
X82431834Y-107563514D01*
X82446581Y-107459891D01*
X82446581Y-107459888D01*
X82447162Y-107455807D01*
X82447307Y-107442000D01*
X82428276Y-107284733D01*
X82372280Y-107136546D01*
X82341449Y-107091686D01*
X82286855Y-107012251D01*
X82286854Y-107012249D01*
X82282553Y-107005992D01*
X82272717Y-106997228D01*
X82217247Y-106947807D01*
X82164275Y-106900611D01*
X82156889Y-106896700D01*
X82060959Y-106845908D01*
X82024274Y-106826484D01*
X81870633Y-106787892D01*
X81863034Y-106787852D01*
X81863033Y-106787852D01*
X81797181Y-106787507D01*
X81712221Y-106787062D01*
X81704841Y-106788834D01*
X81704839Y-106788834D01*
X81565563Y-106822271D01*
X81565560Y-106822272D01*
X81558184Y-106824043D01*
X81417414Y-106896700D01*
X81298039Y-107000838D01*
X81206950Y-107130444D01*
X81189753Y-107174552D01*
X81155002Y-107263685D01*
X81149406Y-107278037D01*
X81148414Y-107285570D01*
X81148414Y-107285571D01*
X81129823Y-107426787D01*
X81128729Y-107435096D01*
X81146113Y-107592553D01*
X81148723Y-107599684D01*
X81148723Y-107599686D01*
X81194396Y-107724493D01*
X81200553Y-107741319D01*
X81204789Y-107747622D01*
X81204789Y-107747623D01*
X81251559Y-107817224D01*
X81272951Y-107884921D01*
X81254347Y-107953437D01*
X81201654Y-108001018D01*
X81146977Y-108013500D01*
X80831649Y-108013501D01*
X80825290Y-108013501D01*
X80822432Y-108013764D01*
X80822423Y-108013764D01*
X80787086Y-108017011D01*
X80751754Y-108020257D01*
X80745375Y-108022256D01*
X80595135Y-108069338D01*
X80595133Y-108069339D01*
X80587886Y-108071610D01*
X80581391Y-108075544D01*
X80581390Y-108075544D01*
X80542156Y-108099305D01*
X80440998Y-108160569D01*
X80434472Y-108167095D01*
X80433427Y-108167666D01*
X80429653Y-108170625D01*
X80429160Y-108169996D01*
X80372160Y-108201121D01*
X80345377Y-108204000D01*
X79788623Y-108204000D01*
X79720502Y-108183998D01*
X79699528Y-108167095D01*
X79693002Y-108160569D01*
X79686499Y-108156631D01*
X79680526Y-108151947D01*
X79681663Y-108150496D01*
X79640324Y-108105286D01*
X79627500Y-108049903D01*
X79627500Y-107655730D01*
X79647502Y-107587609D01*
X79671669Y-107559919D01*
X79727536Y-107512204D01*
X79733314Y-107507269D01*
X79825755Y-107378624D01*
X79884842Y-107231641D01*
X79898859Y-107133150D01*
X79906581Y-107078891D01*
X79906581Y-107078888D01*
X79907162Y-107074807D01*
X79907307Y-107061000D01*
X79888276Y-106903733D01*
X79832280Y-106755546D01*
X79770769Y-106666046D01*
X79746855Y-106631251D01*
X79746854Y-106631249D01*
X79742553Y-106624992D01*
X79732717Y-106616228D01*
X79688341Y-106576691D01*
X79624275Y-106519611D01*
X79616889Y-106515700D01*
X79490988Y-106449039D01*
X79490989Y-106449039D01*
X79484274Y-106445484D01*
X79330633Y-106406892D01*
X79323034Y-106406852D01*
X79323033Y-106406852D01*
X79257181Y-106406507D01*
X79172221Y-106406062D01*
X79164841Y-106407834D01*
X79164839Y-106407834D01*
X79025563Y-106441271D01*
X79025560Y-106441272D01*
X79018184Y-106443043D01*
X78877414Y-106515700D01*
X78758039Y-106619838D01*
X78666950Y-106749444D01*
X78647061Y-106800457D01*
X78613901Y-106885509D01*
X78609406Y-106897037D01*
X78608414Y-106904570D01*
X78608414Y-106904571D01*
X78590212Y-107042834D01*
X78588729Y-107054096D01*
X78592879Y-107091686D01*
X78604673Y-107198506D01*
X78606113Y-107211553D01*
X78608723Y-107218684D01*
X78608723Y-107218686D01*
X78646373Y-107321569D01*
X78660553Y-107360319D01*
X78664789Y-107366622D01*
X78664789Y-107366623D01*
X78742663Y-107482511D01*
X78748908Y-107491805D01*
X78754527Y-107496918D01*
X78754528Y-107496919D01*
X78827299Y-107563135D01*
X78864222Y-107623775D01*
X78868500Y-107656329D01*
X78868500Y-107887500D01*
X78848498Y-107955621D01*
X78794842Y-108002114D01*
X78742500Y-108013500D01*
X78298336Y-108013501D01*
X78285290Y-108013501D01*
X78282432Y-108013764D01*
X78282423Y-108013764D01*
X78247086Y-108017011D01*
X78211754Y-108020257D01*
X78205375Y-108022256D01*
X78055135Y-108069338D01*
X78055133Y-108069339D01*
X78047886Y-108071610D01*
X78041391Y-108075544D01*
X78041390Y-108075544D01*
X78002156Y-108099305D01*
X77900998Y-108160569D01*
X77894472Y-108167095D01*
X77893427Y-108167666D01*
X77889653Y-108170625D01*
X77889160Y-108169996D01*
X77832160Y-108201121D01*
X77805377Y-108204000D01*
X77248623Y-108204000D01*
X77180502Y-108183998D01*
X77159528Y-108167095D01*
X77153002Y-108160569D01*
X77146499Y-108156631D01*
X77140526Y-108151947D01*
X77141663Y-108150496D01*
X77100324Y-108105286D01*
X77087500Y-108049903D01*
X77087500Y-107495920D01*
X77090049Y-107471973D01*
X77090128Y-107470307D01*
X77092320Y-107460124D01*
X77091096Y-107449782D01*
X77091096Y-107449779D01*
X77088374Y-107426787D01*
X77088023Y-107420846D01*
X77087928Y-107420854D01*
X77087500Y-107415674D01*
X77087500Y-107410476D01*
X77085110Y-107396115D01*
X77084329Y-107391427D01*
X77083492Y-107385547D01*
X77078693Y-107344997D01*
X77078692Y-107344995D01*
X77077469Y-107334659D01*
X77073508Y-107326410D01*
X77072004Y-107317374D01*
X77066537Y-107307242D01*
X77047652Y-107272240D01*
X77044957Y-107266951D01*
X77026212Y-107227915D01*
X77022780Y-107220768D01*
X77019186Y-107216492D01*
X77017246Y-107214552D01*
X77015493Y-107212641D01*
X77015444Y-107212551D01*
X77015567Y-107212439D01*
X77015095Y-107211904D01*
X77012010Y-107206186D01*
X76972413Y-107169583D01*
X76968848Y-107166154D01*
X76890143Y-107087449D01*
X76856117Y-107025137D01*
X76854495Y-106980601D01*
X76858581Y-106951892D01*
X76858581Y-106951886D01*
X76859162Y-106947807D01*
X76859307Y-106934000D01*
X76856897Y-106914080D01*
X76852779Y-106880052D01*
X76840276Y-106776733D01*
X76784280Y-106628546D01*
X76774864Y-106614846D01*
X76698855Y-106504251D01*
X76698854Y-106504249D01*
X76694553Y-106497992D01*
X76576275Y-106392611D01*
X76568889Y-106388700D01*
X76442988Y-106322039D01*
X76442989Y-106322039D01*
X76436274Y-106318484D01*
X76282633Y-106279892D01*
X76275034Y-106279852D01*
X76275033Y-106279852D01*
X76209181Y-106279507D01*
X76124221Y-106279062D01*
X76116841Y-106280834D01*
X76116839Y-106280834D01*
X75977563Y-106314271D01*
X75977560Y-106314272D01*
X75970184Y-106316043D01*
X75829414Y-106388700D01*
X75710039Y-106492838D01*
X75618950Y-106622444D01*
X75603960Y-106660892D01*
X75565906Y-106758496D01*
X75561406Y-106770037D01*
X75560414Y-106777570D01*
X75560414Y-106777571D01*
X75542443Y-106914080D01*
X75540729Y-106927096D01*
X75545703Y-106972146D01*
X75556639Y-107071198D01*
X75558113Y-107084553D01*
X75560723Y-107091684D01*
X75560723Y-107091686D01*
X75609185Y-107224115D01*
X75612553Y-107233319D01*
X75616789Y-107239622D01*
X75616789Y-107239623D01*
X75695626Y-107356944D01*
X75700908Y-107364805D01*
X75706527Y-107369918D01*
X75706528Y-107369919D01*
X75811629Y-107465553D01*
X75818076Y-107471419D01*
X75957293Y-107547008D01*
X76110522Y-107587207D01*
X76179395Y-107588289D01*
X76204479Y-107588683D01*
X76272277Y-107609752D01*
X76317922Y-107664131D01*
X76328500Y-107714667D01*
X76328500Y-107887500D01*
X76308498Y-107955621D01*
X76254842Y-108002114D01*
X76202500Y-108013500D01*
X75758336Y-108013501D01*
X75745290Y-108013501D01*
X75742432Y-108013764D01*
X75742423Y-108013764D01*
X75707086Y-108017011D01*
X75671754Y-108020257D01*
X75665375Y-108022256D01*
X75515135Y-108069338D01*
X75515133Y-108069339D01*
X75507886Y-108071610D01*
X75501391Y-108075544D01*
X75501390Y-108075544D01*
X75462156Y-108099305D01*
X75360998Y-108160569D01*
X75354472Y-108167095D01*
X75353427Y-108167666D01*
X75349653Y-108170625D01*
X75349160Y-108169996D01*
X75292160Y-108201121D01*
X75265377Y-108204000D01*
X74708623Y-108204000D01*
X74640502Y-108183998D01*
X74619528Y-108167095D01*
X74613002Y-108160569D01*
X74606499Y-108156631D01*
X74600526Y-108151947D01*
X74601663Y-108150496D01*
X74560324Y-108105286D01*
X74547500Y-108049903D01*
X74547500Y-108003925D01*
X74550050Y-107979967D01*
X74550128Y-107978308D01*
X74552321Y-107968124D01*
X74551097Y-107957782D01*
X74551097Y-107957779D01*
X74548374Y-107934779D01*
X74548024Y-107928848D01*
X74547928Y-107928856D01*
X74547500Y-107923680D01*
X74547500Y-107918476D01*
X74544327Y-107899412D01*
X74543496Y-107893566D01*
X74538694Y-107853001D01*
X74537470Y-107842659D01*
X74533507Y-107834407D01*
X74532004Y-107825374D01*
X74521264Y-107805468D01*
X74507666Y-107780268D01*
X74504969Y-107774975D01*
X74486215Y-107735919D01*
X74486214Y-107735918D01*
X74482781Y-107728768D01*
X74479187Y-107724493D01*
X74477262Y-107722568D01*
X74475491Y-107720638D01*
X74475445Y-107720553D01*
X74475568Y-107720441D01*
X74475096Y-107719906D01*
X74472010Y-107714186D01*
X74432413Y-107677583D01*
X74428848Y-107674154D01*
X74223143Y-107468449D01*
X74189117Y-107406137D01*
X74187495Y-107361601D01*
X74191581Y-107332892D01*
X74191581Y-107332886D01*
X74192162Y-107328807D01*
X74192307Y-107315000D01*
X74191485Y-107308203D01*
X74185650Y-107259992D01*
X74173276Y-107157733D01*
X74117280Y-107009546D01*
X74090227Y-106970184D01*
X74031855Y-106885251D01*
X74031854Y-106885249D01*
X74027553Y-106878992D01*
X74021248Y-106873374D01*
X73990420Y-106845908D01*
X73909275Y-106773611D01*
X73901889Y-106769700D01*
X73802907Y-106717292D01*
X73769274Y-106699484D01*
X73615633Y-106660892D01*
X73608034Y-106660852D01*
X73608033Y-106660852D01*
X73542181Y-106660507D01*
X73457221Y-106660062D01*
X73449841Y-106661834D01*
X73449839Y-106661834D01*
X73310563Y-106695271D01*
X73310560Y-106695272D01*
X73303184Y-106697043D01*
X73162414Y-106769700D01*
X73043039Y-106873838D01*
X72951950Y-107003444D01*
X72933168Y-107051617D01*
X72900056Y-107136546D01*
X72894406Y-107151037D01*
X72893414Y-107158570D01*
X72893414Y-107158571D01*
X72876805Y-107284733D01*
X72873729Y-107308096D01*
X72891113Y-107465553D01*
X72893723Y-107472684D01*
X72893723Y-107472686D01*
X72942185Y-107605115D01*
X72945553Y-107614319D01*
X72949789Y-107620622D01*
X72949789Y-107620623D01*
X73027233Y-107735871D01*
X73033908Y-107745805D01*
X73116991Y-107821404D01*
X73120930Y-107824988D01*
X73157852Y-107885629D01*
X73156129Y-107956604D01*
X73116307Y-108015381D01*
X73073810Y-108038416D01*
X73037343Y-108049844D01*
X72975135Y-108069338D01*
X72975133Y-108069339D01*
X72967886Y-108071610D01*
X72961391Y-108075544D01*
X72961390Y-108075544D01*
X72922156Y-108099305D01*
X72820998Y-108160569D01*
X72814472Y-108167095D01*
X72813427Y-108167666D01*
X72809653Y-108170625D01*
X72809160Y-108169996D01*
X72752160Y-108201121D01*
X72725377Y-108204000D01*
X67088623Y-108204000D01*
X67020502Y-108183998D01*
X66999528Y-108167095D01*
X66993002Y-108160569D01*
X66986499Y-108156631D01*
X66980526Y-108151947D01*
X66981663Y-108150496D01*
X66940324Y-108105286D01*
X66927500Y-108049903D01*
X66927500Y-107899362D01*
X66951177Y-107825836D01*
X66964078Y-107807882D01*
X66998755Y-107759624D01*
X67002257Y-107750914D01*
X67024218Y-107696283D01*
X67057842Y-107612641D01*
X67064834Y-107563514D01*
X67079581Y-107459891D01*
X67079581Y-107459888D01*
X67080162Y-107455807D01*
X67080307Y-107442000D01*
X67061276Y-107284733D01*
X67005280Y-107136546D01*
X66974449Y-107091686D01*
X66919855Y-107012251D01*
X66919854Y-107012249D01*
X66915553Y-107005992D01*
X66905717Y-106997228D01*
X66850247Y-106947807D01*
X66797275Y-106900611D01*
X66789889Y-106896700D01*
X66693959Y-106845908D01*
X66657274Y-106826484D01*
X66503633Y-106787892D01*
X66496034Y-106787852D01*
X66496033Y-106787852D01*
X66430181Y-106787507D01*
X66345221Y-106787062D01*
X66337841Y-106788834D01*
X66337839Y-106788834D01*
X66198563Y-106822271D01*
X66198560Y-106822272D01*
X66191184Y-106824043D01*
X66050414Y-106896700D01*
X65931039Y-107000838D01*
X65839950Y-107130444D01*
X65822753Y-107174552D01*
X65788002Y-107263685D01*
X65782406Y-107278037D01*
X65781414Y-107285570D01*
X65781414Y-107285571D01*
X65762823Y-107426787D01*
X65761729Y-107435096D01*
X65779113Y-107592553D01*
X65781723Y-107599684D01*
X65781723Y-107599686D01*
X65827396Y-107724493D01*
X65833553Y-107741319D01*
X65837788Y-107747622D01*
X65837792Y-107747629D01*
X65884559Y-107817225D01*
X65905952Y-107884922D01*
X65887348Y-107953438D01*
X65834655Y-108001019D01*
X65779980Y-108013501D01*
X65585290Y-108013501D01*
X65582432Y-108013764D01*
X65582423Y-108013764D01*
X65547086Y-108017011D01*
X65511754Y-108020257D01*
X65505375Y-108022256D01*
X65355135Y-108069338D01*
X65355133Y-108069339D01*
X65347886Y-108071610D01*
X65341391Y-108075544D01*
X65341390Y-108075544D01*
X65302156Y-108099305D01*
X65200998Y-108160569D01*
X65194472Y-108167095D01*
X65193427Y-108167666D01*
X65189653Y-108170625D01*
X65189160Y-108169996D01*
X65132160Y-108201121D01*
X65105377Y-108204000D01*
X64548623Y-108204000D01*
X64480502Y-108183998D01*
X64459528Y-108167095D01*
X64453002Y-108160569D01*
X64446499Y-108156631D01*
X64440526Y-108151947D01*
X64441663Y-108150496D01*
X64400324Y-108105286D01*
X64387500Y-108049903D01*
X64387500Y-107986017D01*
X64390049Y-107962069D01*
X64390128Y-107960404D01*
X64392320Y-107950221D01*
X64388373Y-107916874D01*
X64388023Y-107910943D01*
X64387928Y-107910951D01*
X64387500Y-107905773D01*
X64387500Y-107900573D01*
X64386334Y-107893566D01*
X64384331Y-107881532D01*
X64383494Y-107875654D01*
X64378694Y-107835096D01*
X64378694Y-107835095D01*
X64377470Y-107824756D01*
X64373507Y-107816504D01*
X64372004Y-107807471D01*
X64347665Y-107762363D01*
X64344969Y-107757072D01*
X64326215Y-107718015D01*
X64326212Y-107718011D01*
X64322781Y-107710865D01*
X64319186Y-107706589D01*
X64317263Y-107704666D01*
X64315491Y-107702734D01*
X64315448Y-107702655D01*
X64315572Y-107702542D01*
X64315096Y-107702002D01*
X64312010Y-107696283D01*
X64296120Y-107681594D01*
X64272414Y-107659681D01*
X64268848Y-107656251D01*
X64135595Y-107522998D01*
X64101569Y-107460686D01*
X64099947Y-107416150D01*
X64104033Y-107387441D01*
X64104033Y-107387435D01*
X64104614Y-107383356D01*
X64104759Y-107369549D01*
X64104091Y-107364024D01*
X64100130Y-107331294D01*
X64085728Y-107212282D01*
X64029732Y-107064095D01*
X63972749Y-106981184D01*
X63944307Y-106939800D01*
X63944306Y-106939798D01*
X63940005Y-106933541D01*
X63821727Y-106828160D01*
X63814341Y-106824249D01*
X63688440Y-106757588D01*
X63688441Y-106757588D01*
X63681726Y-106754033D01*
X63528085Y-106715441D01*
X63520486Y-106715401D01*
X63520485Y-106715401D01*
X63454633Y-106715056D01*
X63369673Y-106714611D01*
X63362293Y-106716383D01*
X63362291Y-106716383D01*
X63223015Y-106749820D01*
X63223012Y-106749821D01*
X63215636Y-106751592D01*
X63074866Y-106824249D01*
X62955491Y-106928387D01*
X62864402Y-107057993D01*
X62838578Y-107124228D01*
X62818958Y-107174552D01*
X62806858Y-107205586D01*
X62805866Y-107213119D01*
X62805866Y-107213120D01*
X62787750Y-107350728D01*
X62786181Y-107362645D01*
X62794180Y-107435096D01*
X62802586Y-107511233D01*
X62803565Y-107520102D01*
X62806175Y-107527233D01*
X62806175Y-107527235D01*
X62855344Y-107661596D01*
X62858005Y-107668868D01*
X62862241Y-107675171D01*
X62862241Y-107675172D01*
X62930956Y-107777430D01*
X62946360Y-107800354D01*
X62951979Y-107805467D01*
X62951980Y-107805468D01*
X62970229Y-107822073D01*
X63007152Y-107882713D01*
X63005429Y-107953689D01*
X62965607Y-108012466D01*
X62923109Y-108035501D01*
X62815135Y-108069338D01*
X62815133Y-108069339D01*
X62807886Y-108071610D01*
X62801391Y-108075544D01*
X62801390Y-108075544D01*
X62762156Y-108099305D01*
X62660998Y-108160569D01*
X62654472Y-108167095D01*
X62653427Y-108167666D01*
X62649653Y-108170625D01*
X62649160Y-108169996D01*
X62592160Y-108201121D01*
X62565377Y-108204000D01*
X62008623Y-108204000D01*
X61940502Y-108183998D01*
X61919528Y-108167095D01*
X61913002Y-108160569D01*
X61811844Y-108099305D01*
X61772610Y-108075544D01*
X61772609Y-108075544D01*
X61766114Y-108071610D01*
X61758867Y-108069339D01*
X61758865Y-108069338D01*
X61691837Y-108048333D01*
X61602246Y-108020257D01*
X61528711Y-108013500D01*
X61512884Y-108013500D01*
X61444763Y-107993498D01*
X61423789Y-107976595D01*
X61269143Y-107821949D01*
X61235117Y-107759637D01*
X61233495Y-107715101D01*
X61237581Y-107686392D01*
X61237581Y-107686386D01*
X61238162Y-107682307D01*
X61238307Y-107668500D01*
X61237354Y-107660620D01*
X61232401Y-107619695D01*
X61219276Y-107511233D01*
X61163280Y-107363046D01*
X61138101Y-107326410D01*
X61077855Y-107238751D01*
X61077854Y-107238749D01*
X61073553Y-107232492D01*
X61059434Y-107219912D01*
X61002946Y-107169584D01*
X60955275Y-107127111D01*
X60947889Y-107123200D01*
X60849674Y-107071198D01*
X60815274Y-107052984D01*
X60661633Y-107014392D01*
X60654034Y-107014352D01*
X60654033Y-107014352D01*
X60588181Y-107014007D01*
X60503221Y-107013562D01*
X60495841Y-107015334D01*
X60495839Y-107015334D01*
X60356563Y-107048771D01*
X60356560Y-107048772D01*
X60349184Y-107050543D01*
X60208414Y-107123200D01*
X60089039Y-107227338D01*
X59997950Y-107356944D01*
X59978271Y-107407419D01*
X59943766Y-107495920D01*
X59940406Y-107504537D01*
X59939414Y-107512070D01*
X59939414Y-107512071D01*
X59921278Y-107649832D01*
X59919729Y-107661596D01*
X59926596Y-107723791D01*
X59935880Y-107807882D01*
X59937113Y-107819053D01*
X59939723Y-107826184D01*
X59939723Y-107826186D01*
X59977295Y-107928856D01*
X59991553Y-107967819D01*
X59995789Y-107974122D01*
X59995789Y-107974123D01*
X60018368Y-108007724D01*
X60039760Y-108075421D01*
X60021156Y-108143937D01*
X59968463Y-108191518D01*
X59913786Y-108204000D01*
X59468623Y-108204000D01*
X59400502Y-108183998D01*
X59379528Y-108167095D01*
X59373002Y-108160569D01*
X59271844Y-108099305D01*
X59232610Y-108075544D01*
X59232609Y-108075544D01*
X59226114Y-108071610D01*
X59218867Y-108069339D01*
X59218865Y-108069338D01*
X59151837Y-108048333D01*
X59062246Y-108020257D01*
X58988711Y-108013500D01*
X58591884Y-108013500D01*
X58523763Y-107993498D01*
X58502789Y-107976595D01*
X58348143Y-107821949D01*
X58314117Y-107759637D01*
X58312495Y-107715101D01*
X58316581Y-107686392D01*
X58316581Y-107686386D01*
X58317162Y-107682307D01*
X58317307Y-107668500D01*
X58316354Y-107660620D01*
X58311401Y-107619695D01*
X58298276Y-107511233D01*
X58242280Y-107363046D01*
X58217101Y-107326410D01*
X58156855Y-107238751D01*
X58156854Y-107238749D01*
X58152553Y-107232492D01*
X58138434Y-107219912D01*
X58081946Y-107169584D01*
X58034275Y-107127111D01*
X58026889Y-107123200D01*
X57928674Y-107071198D01*
X57894274Y-107052984D01*
X57740633Y-107014392D01*
X57733034Y-107014352D01*
X57733033Y-107014352D01*
X57667181Y-107014007D01*
X57582221Y-107013562D01*
X57574841Y-107015334D01*
X57574839Y-107015334D01*
X57435563Y-107048771D01*
X57435560Y-107048772D01*
X57428184Y-107050543D01*
X57287414Y-107123200D01*
X57168039Y-107227338D01*
X57076950Y-107356944D01*
X57057271Y-107407419D01*
X57022766Y-107495920D01*
X57019406Y-107504537D01*
X57018414Y-107512070D01*
X57018414Y-107512071D01*
X57000278Y-107649832D01*
X56998729Y-107661596D01*
X57005596Y-107723791D01*
X57014880Y-107807882D01*
X57016113Y-107819053D01*
X57018723Y-107826184D01*
X57018723Y-107826186D01*
X57056295Y-107928856D01*
X57070553Y-107967819D01*
X57074789Y-107974122D01*
X57074789Y-107974123D01*
X57097368Y-108007724D01*
X57118760Y-108075421D01*
X57100156Y-108143937D01*
X57047463Y-108191518D01*
X56992786Y-108204000D01*
X56928623Y-108204000D01*
X56860502Y-108183998D01*
X56839528Y-108167095D01*
X56833002Y-108160569D01*
X56731844Y-108099305D01*
X56692610Y-108075544D01*
X56692609Y-108075544D01*
X56686114Y-108071610D01*
X56678867Y-108069339D01*
X56678865Y-108069338D01*
X56611837Y-108048333D01*
X56522246Y-108020257D01*
X56448711Y-108013500D01*
X56024384Y-108013500D01*
X55956263Y-107993498D01*
X55935289Y-107976595D01*
X55050813Y-107092119D01*
X55016787Y-107029807D01*
X55014271Y-106993467D01*
X55014581Y-106989388D01*
X55015162Y-106985307D01*
X55015307Y-106971500D01*
X54996276Y-106814233D01*
X54940280Y-106666046D01*
X54912793Y-106626052D01*
X54854855Y-106541751D01*
X54854854Y-106541749D01*
X54850553Y-106535492D01*
X54832729Y-106519611D01*
X54753519Y-106449039D01*
X54732275Y-106430111D01*
X54724889Y-106426200D01*
X54678184Y-106401471D01*
X54592274Y-106355984D01*
X54438633Y-106317392D01*
X54431034Y-106317352D01*
X54431033Y-106317352D01*
X54365181Y-106317007D01*
X54280221Y-106316562D01*
X54272841Y-106318334D01*
X54272839Y-106318334D01*
X54133563Y-106351771D01*
X54133560Y-106351772D01*
X54126184Y-106353543D01*
X53985414Y-106426200D01*
X53866039Y-106530338D01*
X53774950Y-106659944D01*
X53759534Y-106699484D01*
X53724344Y-106789743D01*
X53717406Y-106807537D01*
X53716414Y-106815070D01*
X53716414Y-106815071D01*
X53699195Y-106945866D01*
X53696729Y-106964596D01*
X53702158Y-107013770D01*
X53710422Y-107088617D01*
X53714113Y-107122053D01*
X53716723Y-107129184D01*
X53716723Y-107129186D01*
X53752853Y-107227915D01*
X53768553Y-107270819D01*
X53772789Y-107277122D01*
X53772789Y-107277123D01*
X53836256Y-107371571D01*
X53856908Y-107402305D01*
X53862527Y-107407418D01*
X53862528Y-107407419D01*
X53945054Y-107482511D01*
X53974076Y-107508919D01*
X54113293Y-107584508D01*
X54266522Y-107624707D01*
X54350477Y-107626026D01*
X54417319Y-107627076D01*
X54417322Y-107627076D01*
X54424916Y-107627195D01*
X54432319Y-107625500D01*
X54439878Y-107624705D01*
X54440135Y-107627152D01*
X54499117Y-107630727D01*
X54545465Y-107660159D01*
X54874211Y-107988905D01*
X54908237Y-108051217D01*
X54903172Y-108122032D01*
X54860625Y-108178868D01*
X54794105Y-108203679D01*
X54785116Y-108204000D01*
X54388623Y-108204000D01*
X54320502Y-108183998D01*
X54299528Y-108167095D01*
X54293002Y-108160569D01*
X54191844Y-108099305D01*
X54152610Y-108075544D01*
X54152609Y-108075544D01*
X54146114Y-108071610D01*
X54138867Y-108069339D01*
X54138865Y-108069338D01*
X54071837Y-108048333D01*
X53982246Y-108020257D01*
X53908711Y-108013500D01*
X53856919Y-108013500D01*
X52976385Y-108013501D01*
X52908264Y-107993499D01*
X52887290Y-107976596D01*
X51108468Y-106197774D01*
X51074442Y-106135462D01*
X51072476Y-106123816D01*
X51060188Y-106022273D01*
X51059276Y-106014733D01*
X51003280Y-105866546D01*
X50965500Y-105811576D01*
X50917855Y-105742251D01*
X50917854Y-105742249D01*
X50913553Y-105735992D01*
X50795275Y-105630611D01*
X50787889Y-105626700D01*
X50661988Y-105560039D01*
X50661989Y-105560039D01*
X50655274Y-105556484D01*
X50501633Y-105517892D01*
X50494034Y-105517852D01*
X50494033Y-105517852D01*
X50428181Y-105517507D01*
X50343221Y-105517062D01*
X50335841Y-105518834D01*
X50335839Y-105518834D01*
X50196563Y-105552271D01*
X50196560Y-105552272D01*
X50189184Y-105554043D01*
X50048414Y-105626700D01*
X49929039Y-105730838D01*
X49837950Y-105860444D01*
X49835190Y-105867524D01*
X49795914Y-105968262D01*
X49780406Y-106008037D01*
X49779414Y-106015570D01*
X49779414Y-106015571D01*
X49765164Y-106123816D01*
X49759729Y-106165096D01*
X49763337Y-106197774D01*
X49776199Y-106314271D01*
X49777113Y-106322553D01*
X49779723Y-106329684D01*
X49779723Y-106329686D01*
X49823400Y-106449039D01*
X49831553Y-106471319D01*
X49835789Y-106477622D01*
X49835789Y-106477623D01*
X49874676Y-106535492D01*
X49919908Y-106602805D01*
X49925527Y-106607918D01*
X49925528Y-106607919D01*
X50027300Y-106700524D01*
X50037076Y-106709419D01*
X50176293Y-106785008D01*
X50176326Y-106785017D01*
X50229758Y-106826709D01*
X50253234Y-106893712D01*
X50236758Y-106962770D01*
X50215559Y-106990207D01*
X50199440Y-107005992D01*
X50191497Y-107013770D01*
X50186747Y-107018188D01*
X50180712Y-107023518D01*
X50138056Y-107061190D01*
X50133832Y-107067167D01*
X50133831Y-107067168D01*
X50133366Y-107067826D01*
X50124523Y-107078207D01*
X50124551Y-107078230D01*
X50120099Y-107083689D01*
X50115066Y-107088617D01*
X50111252Y-107094535D01*
X50111248Y-107094540D01*
X50084178Y-107136546D01*
X50079601Y-107143649D01*
X50079190Y-107144286D01*
X50076199Y-107148717D01*
X50074893Y-107150564D01*
X50019241Y-107194642D01*
X49948589Y-107201635D01*
X49888189Y-107171907D01*
X49874451Y-107159667D01*
X49874445Y-107159663D01*
X49868775Y-107154611D01*
X49848072Y-107143649D01*
X49755321Y-107094540D01*
X49728774Y-107080484D01*
X49575133Y-107041892D01*
X49567534Y-107041852D01*
X49567533Y-107041852D01*
X49501681Y-107041507D01*
X49416721Y-107041062D01*
X49409341Y-107042834D01*
X49409339Y-107042834D01*
X49374768Y-107051134D01*
X49302913Y-107068385D01*
X49232007Y-107064838D01*
X49174272Y-107023518D01*
X49148042Y-106957545D01*
X49147500Y-106945866D01*
X49147500Y-99269384D01*
X49167502Y-99201263D01*
X49184405Y-99180289D01*
X53587289Y-94777405D01*
X53649601Y-94743379D01*
X53676384Y-94740500D01*
X79829080Y-94740500D01*
X79853028Y-94743049D01*
X79854693Y-94743128D01*
X79864876Y-94745320D01*
X79875217Y-94744096D01*
X79898223Y-94741373D01*
X79904154Y-94741023D01*
X79904146Y-94740928D01*
X79909324Y-94740500D01*
X79914524Y-94740500D01*
X79919653Y-94739646D01*
X79919656Y-94739646D01*
X79933565Y-94737331D01*
X79939443Y-94736494D01*
X79980001Y-94731694D01*
X79980002Y-94731694D01*
X79990341Y-94730470D01*
X79998593Y-94726507D01*
X80007626Y-94725004D01*
X80016795Y-94720057D01*
X80016797Y-94720056D01*
X80052732Y-94700666D01*
X80058025Y-94697969D01*
X80097082Y-94679215D01*
X80097086Y-94679212D01*
X80104232Y-94675781D01*
X80108508Y-94672186D01*
X80110431Y-94670263D01*
X80112363Y-94668491D01*
X80112442Y-94668448D01*
X80112555Y-94668572D01*
X80113095Y-94668096D01*
X80118814Y-94665010D01*
X80155417Y-94625413D01*
X80158846Y-94621848D01*
X80213216Y-94567478D01*
X80231964Y-94552336D01*
X80233189Y-94551221D01*
X80241940Y-94545571D01*
X80248387Y-94537393D01*
X80248389Y-94537391D01*
X80262729Y-94519200D01*
X80266678Y-94514756D01*
X80266604Y-94514694D01*
X80269957Y-94510737D01*
X80273638Y-94507056D01*
X80284865Y-94491346D01*
X80288421Y-94486609D01*
X80313708Y-94454532D01*
X80320156Y-94446353D01*
X80323189Y-94437716D01*
X80328513Y-94430266D01*
X80343202Y-94381151D01*
X80345034Y-94375514D01*
X80359390Y-94334633D01*
X80359390Y-94334632D01*
X80362018Y-94327149D01*
X80362500Y-94321584D01*
X80362500Y-94318876D01*
X80362614Y-94316242D01*
X80362643Y-94316144D01*
X80362807Y-94316151D01*
X80362851Y-94315447D01*
X80364713Y-94309222D01*
X80362597Y-94255365D01*
X80362500Y-94250418D01*
X80362500Y-91580181D01*
X80382502Y-91512060D01*
X80436158Y-91465567D01*
X80506432Y-91455463D01*
X80558501Y-91475415D01*
X80723720Y-91585812D01*
X80729023Y-91588090D01*
X80729028Y-91588093D01*
X80797237Y-91617397D01*
X80851930Y-91662665D01*
X80873500Y-91733165D01*
X80873500Y-94559616D01*
X80853498Y-94627737D01*
X80836595Y-94648711D01*
X80397711Y-95087595D01*
X80335399Y-95121621D01*
X80308616Y-95124500D01*
X62918920Y-95124500D01*
X62894973Y-95121951D01*
X62893307Y-95121872D01*
X62883124Y-95119680D01*
X62872782Y-95120904D01*
X62872779Y-95120904D01*
X62849787Y-95123626D01*
X62843846Y-95123977D01*
X62843854Y-95124072D01*
X62838674Y-95124500D01*
X62833476Y-95124500D01*
X62828354Y-95125353D01*
X62828349Y-95125353D01*
X62814427Y-95127671D01*
X62808550Y-95128508D01*
X62802049Y-95129277D01*
X62767997Y-95133307D01*
X62767995Y-95133308D01*
X62757659Y-95134531D01*
X62749410Y-95138492D01*
X62740374Y-95139996D01*
X62731205Y-95144943D01*
X62731203Y-95144944D01*
X62695240Y-95164348D01*
X62689951Y-95167043D01*
X62650915Y-95185788D01*
X62643768Y-95189220D01*
X62639492Y-95192814D01*
X62637552Y-95194754D01*
X62635641Y-95196507D01*
X62635551Y-95196556D01*
X62635439Y-95196433D01*
X62634904Y-95196905D01*
X62629186Y-95199990D01*
X62622119Y-95207635D01*
X62592584Y-95239586D01*
X62589154Y-95243152D01*
X61237784Y-96594522D01*
X61219036Y-96609664D01*
X61217811Y-96610779D01*
X61209060Y-96616429D01*
X61202613Y-96624607D01*
X61202611Y-96624609D01*
X61188271Y-96642800D01*
X61184325Y-96647241D01*
X61184398Y-96647303D01*
X61181039Y-96651267D01*
X61177362Y-96654944D01*
X61166108Y-96670692D01*
X61162602Y-96675362D01*
X61130844Y-96715647D01*
X61127812Y-96724281D01*
X61122486Y-96731734D01*
X61119501Y-96741715D01*
X61107799Y-96780844D01*
X61105964Y-96786492D01*
X61088982Y-96834851D01*
X61088500Y-96840416D01*
X61088500Y-96843124D01*
X61088386Y-96845758D01*
X61088357Y-96845856D01*
X61088193Y-96845849D01*
X61088149Y-96846553D01*
X61086287Y-96852778D01*
X61086696Y-96863183D01*
X61088403Y-96906635D01*
X61088500Y-96911582D01*
X61088500Y-99227187D01*
X61068498Y-99295308D01*
X61045330Y-99322135D01*
X60978039Y-99380838D01*
X60886950Y-99510444D01*
X60860005Y-99579555D01*
X60845084Y-99617826D01*
X60829406Y-99658037D01*
X60808729Y-99815096D01*
X60826113Y-99972553D01*
X60880553Y-100121319D01*
X60968908Y-100252805D01*
X60974527Y-100257918D01*
X60974528Y-100257919D01*
X60985903Y-100268269D01*
X61086076Y-100359419D01*
X61225293Y-100435008D01*
X61378522Y-100475207D01*
X61462477Y-100476526D01*
X61529319Y-100477576D01*
X61529322Y-100477576D01*
X61536916Y-100477695D01*
X61691332Y-100442329D01*
X61761742Y-100406917D01*
X61826072Y-100374563D01*
X61826075Y-100374561D01*
X61832855Y-100371151D01*
X61838626Y-100366222D01*
X61838629Y-100366220D01*
X61947536Y-100273204D01*
X61947536Y-100273203D01*
X61953314Y-100268269D01*
X62045755Y-100139624D01*
X62104842Y-99992641D01*
X62127162Y-99835807D01*
X62127307Y-99822000D01*
X62115542Y-99724779D01*
X62127216Y-99654751D01*
X62174898Y-99602149D01*
X62243449Y-99583677D01*
X62272601Y-99587769D01*
X62394522Y-99619754D01*
X62478477Y-99621073D01*
X62545319Y-99622123D01*
X62545322Y-99622123D01*
X62552916Y-99622242D01*
X62707332Y-99586876D01*
X62777742Y-99551464D01*
X62842072Y-99519110D01*
X62842075Y-99519108D01*
X62848855Y-99515698D01*
X62854626Y-99510769D01*
X62854629Y-99510767D01*
X62963537Y-99417750D01*
X62969314Y-99412816D01*
X63003693Y-99364973D01*
X63059688Y-99321326D01*
X63106015Y-99312500D01*
X78813080Y-99312500D01*
X78837028Y-99315049D01*
X78838693Y-99315128D01*
X78848876Y-99317320D01*
X78859217Y-99316096D01*
X78882223Y-99313373D01*
X78888154Y-99313023D01*
X78888146Y-99312928D01*
X78893324Y-99312500D01*
X78898524Y-99312500D01*
X78903653Y-99311646D01*
X78903656Y-99311646D01*
X78917565Y-99309331D01*
X78923443Y-99308494D01*
X78964001Y-99303694D01*
X78964002Y-99303694D01*
X78974341Y-99302470D01*
X78982593Y-99298507D01*
X78991626Y-99297004D01*
X79000795Y-99292057D01*
X79000797Y-99292056D01*
X79036732Y-99272666D01*
X79042025Y-99269969D01*
X79081082Y-99251215D01*
X79081086Y-99251212D01*
X79088232Y-99247781D01*
X79092508Y-99244186D01*
X79094431Y-99242263D01*
X79096363Y-99240491D01*
X79096442Y-99240448D01*
X79096555Y-99240572D01*
X79097095Y-99240096D01*
X79102814Y-99237010D01*
X79139417Y-99197413D01*
X79142846Y-99193848D01*
X82753216Y-95583478D01*
X82771964Y-95568336D01*
X82773189Y-95567221D01*
X82781940Y-95561571D01*
X82788387Y-95553393D01*
X82788389Y-95553391D01*
X82802729Y-95535200D01*
X82806675Y-95530759D01*
X82806602Y-95530697D01*
X82809961Y-95526733D01*
X82813638Y-95523056D01*
X82824892Y-95507308D01*
X82828398Y-95502638D01*
X82860156Y-95462353D01*
X82863188Y-95453719D01*
X82868514Y-95446266D01*
X82883203Y-95397150D01*
X82885036Y-95391508D01*
X82899390Y-95350633D01*
X82899390Y-95350632D01*
X82902018Y-95343149D01*
X82902500Y-95337584D01*
X82902500Y-95334876D01*
X82902614Y-95332242D01*
X82902643Y-95332144D01*
X82902807Y-95332151D01*
X82902851Y-95331447D01*
X82904713Y-95325222D01*
X82902597Y-95271365D01*
X82902500Y-95266418D01*
X82902500Y-91580181D01*
X82922502Y-91512060D01*
X82976158Y-91465567D01*
X83046432Y-91455463D01*
X83098501Y-91475415D01*
X83263720Y-91585812D01*
X83269023Y-91588090D01*
X83269026Y-91588092D01*
X83444921Y-91663662D01*
X83450228Y-91665942D01*
X83523244Y-91682464D01*
X83642579Y-91709467D01*
X83642584Y-91709468D01*
X83648216Y-91710742D01*
X83653987Y-91710969D01*
X83653989Y-91710969D01*
X83713756Y-91713317D01*
X83851053Y-91718712D01*
X83951499Y-91704148D01*
X84046231Y-91690413D01*
X84046236Y-91690412D01*
X84051945Y-91689584D01*
X84057409Y-91687729D01*
X84057414Y-91687728D01*
X84238693Y-91626192D01*
X84238698Y-91626190D01*
X84244165Y-91624334D01*
X84421276Y-91525147D01*
X84425723Y-91521449D01*
X84572913Y-91399031D01*
X84577345Y-91395345D01*
X84634463Y-91326669D01*
X84703453Y-91243718D01*
X84703455Y-91243715D01*
X84707147Y-91239276D01*
X84709969Y-91234236D01*
X84709973Y-91234231D01*
X84739067Y-91182279D01*
X84789804Y-91132617D01*
X84859335Y-91118270D01*
X84925586Y-91143791D01*
X84967522Y-91201080D01*
X84975001Y-91243845D01*
X84975001Y-91505669D01*
X84975371Y-91512490D01*
X84980895Y-91563352D01*
X84984521Y-91578604D01*
X85029676Y-91699054D01*
X85038214Y-91714649D01*
X85114715Y-91816724D01*
X85127276Y-91829285D01*
X85229351Y-91905786D01*
X85244946Y-91914324D01*
X85365394Y-91959478D01*
X85380649Y-91963105D01*
X85431514Y-91968631D01*
X85438328Y-91969000D01*
X86060885Y-91969000D01*
X86076124Y-91964525D01*
X86077329Y-91963135D01*
X86079000Y-91955452D01*
X86079000Y-91950884D01*
X86587000Y-91950884D01*
X86591475Y-91966123D01*
X86592865Y-91967328D01*
X86600548Y-91968999D01*
X87227669Y-91968999D01*
X87234490Y-91968629D01*
X87285352Y-91963105D01*
X87300604Y-91959479D01*
X87421054Y-91914324D01*
X87436649Y-91905786D01*
X87538724Y-91829285D01*
X87551285Y-91816724D01*
X87627786Y-91714649D01*
X87636324Y-91699054D01*
X87681478Y-91578606D01*
X87685105Y-91563351D01*
X87690631Y-91512486D01*
X87691000Y-91505672D01*
X87691000Y-91248976D01*
X87711002Y-91180855D01*
X87764658Y-91134362D01*
X87834932Y-91124258D01*
X87899512Y-91153752D01*
X87919895Y-91176254D01*
X88029533Y-91331389D01*
X88174938Y-91473035D01*
X88179742Y-91476245D01*
X88229917Y-91509771D01*
X88343720Y-91585812D01*
X88349023Y-91588090D01*
X88349026Y-91588092D01*
X88524921Y-91663662D01*
X88530228Y-91665942D01*
X88603244Y-91682464D01*
X88722579Y-91709467D01*
X88722584Y-91709468D01*
X88728216Y-91710742D01*
X88733987Y-91710969D01*
X88733989Y-91710969D01*
X88793756Y-91713317D01*
X88931053Y-91718712D01*
X89031499Y-91704148D01*
X89126231Y-91690413D01*
X89126236Y-91690412D01*
X89131945Y-91689584D01*
X89137409Y-91687729D01*
X89137414Y-91687728D01*
X89318693Y-91626192D01*
X89318698Y-91626190D01*
X89324165Y-91624334D01*
X89501276Y-91525147D01*
X89505723Y-91521449D01*
X89652913Y-91399031D01*
X89657345Y-91395345D01*
X89714463Y-91326669D01*
X89783453Y-91243718D01*
X89783455Y-91243715D01*
X89787147Y-91239276D01*
X89886334Y-91062165D01*
X89888190Y-91056698D01*
X89888192Y-91056693D01*
X89949728Y-90875414D01*
X89949729Y-90875409D01*
X89951584Y-90869945D01*
X89952412Y-90864236D01*
X89952413Y-90864231D01*
X89980179Y-90672727D01*
X89980712Y-90669053D01*
X89982232Y-90611000D01*
X89979564Y-90581964D01*
X90304148Y-90581964D01*
X90317424Y-90784522D01*
X90318845Y-90790118D01*
X90318846Y-90790123D01*
X90339119Y-90869945D01*
X90367392Y-90981269D01*
X90369809Y-90986512D01*
X90407010Y-91067208D01*
X90452377Y-91165616D01*
X90569533Y-91331389D01*
X90714938Y-91473035D01*
X90719742Y-91476245D01*
X90769917Y-91509771D01*
X90883720Y-91585812D01*
X90889023Y-91588090D01*
X90889026Y-91588092D01*
X91064921Y-91663662D01*
X91070228Y-91665942D01*
X91143244Y-91682464D01*
X91262579Y-91709467D01*
X91262584Y-91709468D01*
X91268216Y-91710742D01*
X91273987Y-91710969D01*
X91273989Y-91710969D01*
X91333756Y-91713317D01*
X91471053Y-91718712D01*
X91571499Y-91704148D01*
X91666231Y-91690413D01*
X91666236Y-91690412D01*
X91671945Y-91689584D01*
X91677409Y-91687729D01*
X91677414Y-91687728D01*
X91858693Y-91626192D01*
X91858698Y-91626190D01*
X91864165Y-91624334D01*
X92041276Y-91525147D01*
X92045723Y-91521449D01*
X92192913Y-91399031D01*
X92197345Y-91395345D01*
X92254463Y-91326669D01*
X92323453Y-91243718D01*
X92323455Y-91243715D01*
X92327147Y-91239276D01*
X92426334Y-91062165D01*
X92428190Y-91056698D01*
X92428192Y-91056693D01*
X92489728Y-90875414D01*
X92489729Y-90875409D01*
X92491584Y-90869945D01*
X92492412Y-90864236D01*
X92492413Y-90864231D01*
X92520179Y-90672727D01*
X92520712Y-90669053D01*
X92522232Y-90611000D01*
X92503658Y-90408859D01*
X92502090Y-90403299D01*
X92450125Y-90219046D01*
X92450124Y-90219044D01*
X92448557Y-90213487D01*
X92437978Y-90192033D01*
X92361331Y-90036609D01*
X92358776Y-90031428D01*
X92237320Y-89868779D01*
X92088258Y-89730987D01*
X92083375Y-89727906D01*
X92083371Y-89727903D01*
X91921464Y-89625748D01*
X91916581Y-89622667D01*
X91728039Y-89547446D01*
X91722379Y-89546320D01*
X91722375Y-89546319D01*
X91534613Y-89508971D01*
X91534610Y-89508971D01*
X91528946Y-89507844D01*
X91523171Y-89507768D01*
X91523167Y-89507768D01*
X91421793Y-89506441D01*
X91325971Y-89505187D01*
X91320274Y-89506166D01*
X91320273Y-89506166D01*
X91183431Y-89529680D01*
X91125910Y-89539564D01*
X90935463Y-89609824D01*
X90761010Y-89713612D01*
X90756670Y-89717418D01*
X90756666Y-89717421D01*
X90708555Y-89759614D01*
X90608392Y-89847455D01*
X90482720Y-90006869D01*
X90480031Y-90011980D01*
X90480029Y-90011983D01*
X90468507Y-90033883D01*
X90388203Y-90186515D01*
X90328007Y-90380378D01*
X90304148Y-90581964D01*
X89979564Y-90581964D01*
X89963658Y-90408859D01*
X89962090Y-90403299D01*
X89910125Y-90219046D01*
X89910124Y-90219044D01*
X89908557Y-90213487D01*
X89897978Y-90192033D01*
X89821331Y-90036609D01*
X89818776Y-90031428D01*
X89697320Y-89868779D01*
X89548258Y-89730987D01*
X89543375Y-89727906D01*
X89543371Y-89727903D01*
X89381464Y-89625748D01*
X89376581Y-89622667D01*
X89188039Y-89547446D01*
X89182379Y-89546320D01*
X89182375Y-89546319D01*
X88994613Y-89508971D01*
X88994610Y-89508971D01*
X88988946Y-89507844D01*
X88983171Y-89507768D01*
X88983167Y-89507768D01*
X88881793Y-89506441D01*
X88785971Y-89505187D01*
X88780274Y-89506166D01*
X88780273Y-89506166D01*
X88643431Y-89529680D01*
X88585910Y-89539564D01*
X88395463Y-89609824D01*
X88221010Y-89713612D01*
X88216670Y-89717418D01*
X88216666Y-89717421D01*
X88168555Y-89759614D01*
X88068392Y-89847455D01*
X87942720Y-90006869D01*
X87940031Y-90011980D01*
X87940029Y-90011983D01*
X87928507Y-90033883D01*
X87879087Y-90084856D01*
X87809955Y-90101018D01*
X87743059Y-90077239D01*
X87699638Y-90021068D01*
X87690999Y-89975215D01*
X87690999Y-89716331D01*
X87690629Y-89709510D01*
X87685105Y-89658648D01*
X87681479Y-89643396D01*
X87636324Y-89522946D01*
X87627786Y-89507351D01*
X87551285Y-89405276D01*
X87538724Y-89392715D01*
X87436649Y-89316214D01*
X87421054Y-89307676D01*
X87300606Y-89262522D01*
X87285351Y-89258895D01*
X87234486Y-89253369D01*
X87227672Y-89253000D01*
X86605115Y-89253000D01*
X86589876Y-89257475D01*
X86588671Y-89258865D01*
X86587000Y-89266548D01*
X86587000Y-91950884D01*
X86079000Y-91950884D01*
X86079000Y-89271116D01*
X86074525Y-89255877D01*
X86073135Y-89254672D01*
X86065452Y-89253001D01*
X85438331Y-89253001D01*
X85431510Y-89253371D01*
X85380648Y-89258895D01*
X85365396Y-89262521D01*
X85244946Y-89307676D01*
X85229351Y-89316214D01*
X85127276Y-89392715D01*
X85114715Y-89405276D01*
X85038214Y-89507351D01*
X85029676Y-89522946D01*
X84984522Y-89643394D01*
X84980895Y-89658649D01*
X84975369Y-89709514D01*
X84975000Y-89716328D01*
X84975000Y-89971160D01*
X84954998Y-90039281D01*
X84901342Y-90085774D01*
X84831068Y-90095878D01*
X84766488Y-90066384D01*
X84741567Y-90036994D01*
X84741331Y-90036608D01*
X84738776Y-90031428D01*
X84617320Y-89868779D01*
X84468258Y-89730987D01*
X84463375Y-89727906D01*
X84463371Y-89727903D01*
X84301464Y-89625748D01*
X84296581Y-89622667D01*
X84108039Y-89547446D01*
X84102379Y-89546320D01*
X84102375Y-89546319D01*
X83914613Y-89508971D01*
X83914610Y-89508971D01*
X83908946Y-89507844D01*
X83903171Y-89507768D01*
X83903167Y-89507768D01*
X83801793Y-89506441D01*
X83705971Y-89505187D01*
X83700274Y-89506166D01*
X83700273Y-89506166D01*
X83563431Y-89529680D01*
X83505910Y-89539564D01*
X83315463Y-89609824D01*
X83141010Y-89713612D01*
X83136667Y-89717421D01*
X83136660Y-89717426D01*
X83111577Y-89739423D01*
X83047173Y-89769300D01*
X82976840Y-89759614D01*
X82922909Y-89713441D01*
X82902500Y-89644691D01*
X82902500Y-86617488D01*
X82922502Y-86549367D01*
X82974427Y-86504802D01*
X82974165Y-86504334D01*
X82976491Y-86503032D01*
X82976493Y-86503030D01*
X83151276Y-86405147D01*
X83166495Y-86392490D01*
X83302913Y-86279031D01*
X83307345Y-86275345D01*
X83437147Y-86119276D01*
X83536334Y-85942165D01*
X83538190Y-85936698D01*
X83538192Y-85936693D01*
X83599728Y-85755414D01*
X83599729Y-85755409D01*
X83601584Y-85749945D01*
X83602412Y-85744236D01*
X83602413Y-85744231D01*
X83630179Y-85552727D01*
X83630712Y-85549053D01*
X83632232Y-85491000D01*
X83629564Y-85461964D01*
X83954148Y-85461964D01*
X83967424Y-85664522D01*
X83968845Y-85670118D01*
X83968846Y-85670123D01*
X84015971Y-85855674D01*
X84017392Y-85861269D01*
X84019809Y-85866512D01*
X84055145Y-85943161D01*
X84102377Y-86045616D01*
X84219533Y-86211389D01*
X84364938Y-86353035D01*
X84369742Y-86356245D01*
X84423980Y-86392486D01*
X84533720Y-86465812D01*
X84539023Y-86468090D01*
X84539026Y-86468092D01*
X84714921Y-86543662D01*
X84720228Y-86545942D01*
X84783690Y-86560302D01*
X84912579Y-86589467D01*
X84912584Y-86589468D01*
X84918216Y-86590742D01*
X84923987Y-86590969D01*
X84923989Y-86590969D01*
X84983756Y-86593317D01*
X85121053Y-86598712D01*
X85221499Y-86584148D01*
X85316231Y-86570413D01*
X85316236Y-86570412D01*
X85321945Y-86569584D01*
X85327409Y-86567729D01*
X85327414Y-86567728D01*
X85508693Y-86506192D01*
X85508698Y-86506190D01*
X85514165Y-86504334D01*
X85691276Y-86405147D01*
X85706495Y-86392490D01*
X85842913Y-86279031D01*
X85847345Y-86275345D01*
X85977147Y-86119276D01*
X86076334Y-85942165D01*
X86078190Y-85936698D01*
X86078192Y-85936693D01*
X86139728Y-85755414D01*
X86139729Y-85755409D01*
X86141584Y-85749945D01*
X86142412Y-85744236D01*
X86142413Y-85744231D01*
X86170179Y-85552727D01*
X86170712Y-85549053D01*
X86172232Y-85491000D01*
X86169564Y-85461964D01*
X86494148Y-85461964D01*
X86507424Y-85664522D01*
X86508845Y-85670118D01*
X86508846Y-85670123D01*
X86555971Y-85855674D01*
X86557392Y-85861269D01*
X86559809Y-85866512D01*
X86595145Y-85943161D01*
X86642377Y-86045616D01*
X86759533Y-86211389D01*
X86904938Y-86353035D01*
X86909742Y-86356245D01*
X86963980Y-86392486D01*
X87073720Y-86465812D01*
X87079023Y-86468090D01*
X87079026Y-86468092D01*
X87254921Y-86543662D01*
X87260228Y-86545942D01*
X87323690Y-86560302D01*
X87452579Y-86589467D01*
X87452584Y-86589468D01*
X87458216Y-86590742D01*
X87463987Y-86590969D01*
X87463989Y-86590969D01*
X87523756Y-86593317D01*
X87661053Y-86598712D01*
X87761499Y-86584148D01*
X87856231Y-86570413D01*
X87856236Y-86570412D01*
X87861945Y-86569584D01*
X87867409Y-86567729D01*
X87867414Y-86567728D01*
X88048693Y-86506192D01*
X88048698Y-86506190D01*
X88054165Y-86504334D01*
X88231276Y-86405147D01*
X88246495Y-86392490D01*
X88382913Y-86279031D01*
X88387345Y-86275345D01*
X88517147Y-86119276D01*
X88616334Y-85942165D01*
X88618190Y-85936698D01*
X88618192Y-85936693D01*
X88679728Y-85755414D01*
X88679729Y-85755409D01*
X88681584Y-85749945D01*
X88682412Y-85744236D01*
X88682413Y-85744231D01*
X88710179Y-85552727D01*
X88710712Y-85549053D01*
X88712232Y-85491000D01*
X88709564Y-85461964D01*
X89034148Y-85461964D01*
X89047424Y-85664522D01*
X89048845Y-85670118D01*
X89048846Y-85670123D01*
X89095971Y-85855674D01*
X89097392Y-85861269D01*
X89099809Y-85866512D01*
X89135145Y-85943161D01*
X89182377Y-86045616D01*
X89299533Y-86211389D01*
X89444938Y-86353035D01*
X89449742Y-86356245D01*
X89503980Y-86392486D01*
X89613720Y-86465812D01*
X89619023Y-86468090D01*
X89619026Y-86468092D01*
X89794921Y-86543662D01*
X89800228Y-86545942D01*
X89863690Y-86560302D01*
X89992579Y-86589467D01*
X89992584Y-86589468D01*
X89998216Y-86590742D01*
X90003987Y-86590969D01*
X90003989Y-86590969D01*
X90063756Y-86593317D01*
X90201053Y-86598712D01*
X90301499Y-86584148D01*
X90396231Y-86570413D01*
X90396236Y-86570412D01*
X90401945Y-86569584D01*
X90407409Y-86567729D01*
X90407414Y-86567728D01*
X90588693Y-86506192D01*
X90588698Y-86506190D01*
X90594165Y-86504334D01*
X90771276Y-86405147D01*
X90786495Y-86392490D01*
X90922913Y-86279031D01*
X90927345Y-86275345D01*
X90965161Y-86229876D01*
X101850372Y-86229876D01*
X101852852Y-86293000D01*
X101861167Y-86504634D01*
X101861516Y-86513524D01*
X101912516Y-86792772D01*
X102002353Y-87062048D01*
X102041249Y-87139891D01*
X102113814Y-87285115D01*
X102129236Y-87315980D01*
X102290631Y-87549500D01*
X102378442Y-87644494D01*
X102466490Y-87739743D01*
X102483320Y-87757950D01*
X102486774Y-87760762D01*
X102700001Y-87934356D01*
X102700005Y-87934359D01*
X102703458Y-87937170D01*
X102946652Y-88083585D01*
X102950747Y-88085319D01*
X102950749Y-88085320D01*
X103133820Y-88162840D01*
X103208049Y-88194272D01*
X103212342Y-88195410D01*
X103212347Y-88195412D01*
X103345785Y-88230792D01*
X103482435Y-88267024D01*
X103764334Y-88300389D01*
X104048122Y-88293701D01*
X104052517Y-88292969D01*
X104052522Y-88292969D01*
X104323734Y-88247827D01*
X104323738Y-88247826D01*
X104328136Y-88247094D01*
X104539946Y-88180107D01*
X104594544Y-88162840D01*
X104594546Y-88162839D01*
X104598790Y-88161497D01*
X104602801Y-88159571D01*
X104602806Y-88159569D01*
X104850665Y-88040549D01*
X104850666Y-88040548D01*
X104854684Y-88038619D01*
X105010724Y-87934356D01*
X105087002Y-87883389D01*
X105087006Y-87883386D01*
X105090710Y-87880911D01*
X105094027Y-87877940D01*
X105094031Y-87877937D01*
X105298845Y-87694490D01*
X105302161Y-87691520D01*
X105484817Y-87474225D01*
X105522261Y-87414185D01*
X105632669Y-87237152D01*
X105632671Y-87237149D01*
X105635033Y-87233361D01*
X105749813Y-86973734D01*
X105826866Y-86700525D01*
X105840541Y-86598712D01*
X105864227Y-86422367D01*
X105864228Y-86422359D01*
X105864654Y-86419185D01*
X105864964Y-86409336D01*
X105868519Y-86296222D01*
X105868519Y-86296217D01*
X105868620Y-86293000D01*
X105848571Y-86009842D01*
X105832823Y-85936693D01*
X105789761Y-85736681D01*
X105789761Y-85736679D01*
X105788825Y-85732334D01*
X105690574Y-85466013D01*
X105555778Y-85216192D01*
X105387127Y-84987856D01*
X105365390Y-84965774D01*
X105256553Y-84855215D01*
X105187986Y-84785562D01*
X105106859Y-84723648D01*
X104965872Y-84616050D01*
X104965868Y-84616047D01*
X104962327Y-84613345D01*
X104714655Y-84474641D01*
X104710506Y-84473036D01*
X104710502Y-84473034D01*
X104485960Y-84386166D01*
X104449909Y-84372219D01*
X104445588Y-84371217D01*
X104445580Y-84371215D01*
X104263110Y-84328922D01*
X104173374Y-84308122D01*
X103890566Y-84283628D01*
X103886131Y-84283872D01*
X103886127Y-84283872D01*
X103779718Y-84289728D01*
X103607128Y-84299226D01*
X103602768Y-84300093D01*
X103602762Y-84300094D01*
X103466296Y-84327239D01*
X103328715Y-84354606D01*
X103324505Y-84356084D01*
X103324503Y-84356085D01*
X103273996Y-84373822D01*
X103060884Y-84448662D01*
X103056933Y-84450715D01*
X103056927Y-84450717D01*
X102812926Y-84577465D01*
X102808976Y-84579517D01*
X102805361Y-84582100D01*
X102805355Y-84582104D01*
X102757853Y-84616050D01*
X102578020Y-84744561D01*
X102372623Y-84940501D01*
X102369867Y-84943997D01*
X102369866Y-84943998D01*
X102335291Y-84987856D01*
X102196882Y-85163426D01*
X102154147Y-85237000D01*
X102056540Y-85405042D01*
X102056537Y-85405048D01*
X102054306Y-85408889D01*
X102052636Y-85413012D01*
X101949411Y-85667861D01*
X101949408Y-85667869D01*
X101947738Y-85671993D01*
X101879305Y-85947488D01*
X101850372Y-86229876D01*
X90965161Y-86229876D01*
X91057147Y-86119276D01*
X91156334Y-85942165D01*
X91158190Y-85936698D01*
X91158192Y-85936693D01*
X91219728Y-85755414D01*
X91219729Y-85755409D01*
X91221584Y-85749945D01*
X91222412Y-85744236D01*
X91222413Y-85744231D01*
X91250179Y-85552727D01*
X91250712Y-85549053D01*
X91252232Y-85491000D01*
X91233658Y-85288859D01*
X91232090Y-85283299D01*
X91180125Y-85099046D01*
X91180124Y-85099044D01*
X91178557Y-85093487D01*
X91167978Y-85072033D01*
X91091331Y-84916609D01*
X91088776Y-84911428D01*
X90967320Y-84748779D01*
X90818258Y-84610987D01*
X90813375Y-84607906D01*
X90813371Y-84607903D01*
X90651464Y-84505748D01*
X90646581Y-84502667D01*
X90458039Y-84427446D01*
X90452379Y-84426320D01*
X90452375Y-84426319D01*
X90264613Y-84388971D01*
X90264610Y-84388971D01*
X90258946Y-84387844D01*
X90253171Y-84387768D01*
X90253167Y-84387768D01*
X90151793Y-84386441D01*
X90055971Y-84385187D01*
X90050274Y-84386166D01*
X90050273Y-84386166D01*
X89952620Y-84402946D01*
X89855910Y-84419564D01*
X89665463Y-84489824D01*
X89491010Y-84593612D01*
X89486670Y-84597418D01*
X89486666Y-84597421D01*
X89466723Y-84614911D01*
X89338392Y-84727455D01*
X89212720Y-84886869D01*
X89210031Y-84891980D01*
X89210029Y-84891983D01*
X89182663Y-84943998D01*
X89118203Y-85066515D01*
X89058007Y-85260378D01*
X89034148Y-85461964D01*
X88709564Y-85461964D01*
X88693658Y-85288859D01*
X88692090Y-85283299D01*
X88640125Y-85099046D01*
X88640124Y-85099044D01*
X88638557Y-85093487D01*
X88627978Y-85072033D01*
X88551331Y-84916609D01*
X88548776Y-84911428D01*
X88427320Y-84748779D01*
X88278258Y-84610987D01*
X88273375Y-84607906D01*
X88273371Y-84607903D01*
X88111464Y-84505748D01*
X88106581Y-84502667D01*
X87918039Y-84427446D01*
X87912379Y-84426320D01*
X87912375Y-84426319D01*
X87724613Y-84388971D01*
X87724610Y-84388971D01*
X87718946Y-84387844D01*
X87713171Y-84387768D01*
X87713167Y-84387768D01*
X87611793Y-84386441D01*
X87515971Y-84385187D01*
X87510274Y-84386166D01*
X87510273Y-84386166D01*
X87412620Y-84402946D01*
X87315910Y-84419564D01*
X87125463Y-84489824D01*
X86951010Y-84593612D01*
X86946670Y-84597418D01*
X86946666Y-84597421D01*
X86926723Y-84614911D01*
X86798392Y-84727455D01*
X86672720Y-84886869D01*
X86670031Y-84891980D01*
X86670029Y-84891983D01*
X86642663Y-84943998D01*
X86578203Y-85066515D01*
X86518007Y-85260378D01*
X86494148Y-85461964D01*
X86169564Y-85461964D01*
X86153658Y-85288859D01*
X86152090Y-85283299D01*
X86100125Y-85099046D01*
X86100124Y-85099044D01*
X86098557Y-85093487D01*
X86087978Y-85072033D01*
X86011331Y-84916609D01*
X86008776Y-84911428D01*
X85887320Y-84748779D01*
X85738258Y-84610987D01*
X85733375Y-84607906D01*
X85733371Y-84607903D01*
X85571464Y-84505748D01*
X85566581Y-84502667D01*
X85378039Y-84427446D01*
X85372379Y-84426320D01*
X85372375Y-84426319D01*
X85184613Y-84388971D01*
X85184610Y-84388971D01*
X85178946Y-84387844D01*
X85173171Y-84387768D01*
X85173167Y-84387768D01*
X85071793Y-84386441D01*
X84975971Y-84385187D01*
X84970274Y-84386166D01*
X84970273Y-84386166D01*
X84872620Y-84402946D01*
X84775910Y-84419564D01*
X84585463Y-84489824D01*
X84411010Y-84593612D01*
X84406670Y-84597418D01*
X84406666Y-84597421D01*
X84386723Y-84614911D01*
X84258392Y-84727455D01*
X84132720Y-84886869D01*
X84130031Y-84891980D01*
X84130029Y-84891983D01*
X84102663Y-84943998D01*
X84038203Y-85066515D01*
X83978007Y-85260378D01*
X83954148Y-85461964D01*
X83629564Y-85461964D01*
X83613658Y-85288859D01*
X83612090Y-85283299D01*
X83560125Y-85099046D01*
X83560124Y-85099044D01*
X83558557Y-85093487D01*
X83547978Y-85072033D01*
X83471331Y-84916609D01*
X83468776Y-84911428D01*
X83347320Y-84748779D01*
X83198258Y-84610987D01*
X83193375Y-84607906D01*
X83193371Y-84607903D01*
X83031464Y-84505748D01*
X83026581Y-84502667D01*
X82838039Y-84427446D01*
X82832379Y-84426320D01*
X82832375Y-84426319D01*
X82644613Y-84388971D01*
X82644610Y-84388971D01*
X82638946Y-84387844D01*
X82633171Y-84387768D01*
X82633167Y-84387768D01*
X82531793Y-84386441D01*
X82435971Y-84385187D01*
X82430274Y-84386166D01*
X82430273Y-84386166D01*
X82332620Y-84402946D01*
X82235910Y-84419564D01*
X82045463Y-84489824D01*
X81871010Y-84593612D01*
X81866670Y-84597418D01*
X81866666Y-84597421D01*
X81846723Y-84614911D01*
X81718392Y-84727455D01*
X81592720Y-84886869D01*
X81590031Y-84891980D01*
X81590029Y-84891983D01*
X81562663Y-84943998D01*
X81498203Y-85066515D01*
X81438007Y-85260378D01*
X81414148Y-85461964D01*
X81427424Y-85664522D01*
X81428845Y-85670118D01*
X81428846Y-85670123D01*
X81475971Y-85855674D01*
X81477392Y-85861269D01*
X81479809Y-85866512D01*
X81515145Y-85943161D01*
X81562377Y-86045616D01*
X81679533Y-86211389D01*
X81824938Y-86353035D01*
X81829742Y-86356245D01*
X81883980Y-86392486D01*
X81993720Y-86465812D01*
X81999023Y-86468090D01*
X81999028Y-86468093D01*
X82067237Y-86497397D01*
X82121930Y-86542665D01*
X82143500Y-86613165D01*
X82143500Y-88135568D01*
X82123498Y-88203689D01*
X82069842Y-88250182D01*
X81999568Y-88260286D01*
X81934988Y-88230792D01*
X81899634Y-88180107D01*
X81864280Y-88086546D01*
X81774553Y-87955992D01*
X81753428Y-87937170D01*
X81729940Y-87916244D01*
X81656275Y-87850611D01*
X81648889Y-87846700D01*
X81600984Y-87821336D01*
X81516274Y-87776484D01*
X81362633Y-87737892D01*
X81355034Y-87737852D01*
X81355033Y-87737852D01*
X81289181Y-87737507D01*
X81204221Y-87737062D01*
X81196841Y-87738834D01*
X81196839Y-87738834D01*
X81057563Y-87772271D01*
X81057560Y-87772272D01*
X81050184Y-87774043D01*
X80909414Y-87846700D01*
X80790039Y-87950838D01*
X80698950Y-88080444D01*
X80677458Y-88135568D01*
X80668101Y-88159569D01*
X80641406Y-88228037D01*
X80640414Y-88235570D01*
X80640414Y-88235571D01*
X80623551Y-88363664D01*
X80620729Y-88385096D01*
X80638113Y-88542553D01*
X80640723Y-88549684D01*
X80640723Y-88549686D01*
X80656385Y-88592483D01*
X80692553Y-88691319D01*
X80780908Y-88822805D01*
X80786527Y-88827918D01*
X80786528Y-88827919D01*
X80797903Y-88838269D01*
X80898076Y-88929419D01*
X81037293Y-89005008D01*
X81190522Y-89045207D01*
X81274477Y-89046526D01*
X81341319Y-89047576D01*
X81341322Y-89047576D01*
X81348916Y-89047695D01*
X81503332Y-89012329D01*
X81573742Y-88976917D01*
X81638072Y-88944563D01*
X81638075Y-88944561D01*
X81644855Y-88941151D01*
X81650626Y-88936222D01*
X81650629Y-88936220D01*
X81759536Y-88843204D01*
X81759536Y-88843203D01*
X81765314Y-88838269D01*
X81857755Y-88709624D01*
X81900593Y-88603062D01*
X81944560Y-88547318D01*
X82011685Y-88524193D01*
X82080656Y-88541030D01*
X82129576Y-88592483D01*
X82143500Y-88650059D01*
X82143500Y-89641895D01*
X82123498Y-89710016D01*
X82069842Y-89756509D01*
X81999568Y-89766613D01*
X81937963Y-89737275D01*
X81937081Y-89738424D01*
X81932502Y-89734910D01*
X81928258Y-89730987D01*
X81923375Y-89727906D01*
X81923371Y-89727903D01*
X81761464Y-89625748D01*
X81756581Y-89622667D01*
X81568039Y-89547446D01*
X81562379Y-89546320D01*
X81562375Y-89546319D01*
X81374613Y-89508971D01*
X81374610Y-89508971D01*
X81368946Y-89507844D01*
X81363171Y-89507768D01*
X81363167Y-89507768D01*
X81261793Y-89506441D01*
X81165971Y-89505187D01*
X81160274Y-89506166D01*
X81160273Y-89506166D01*
X81023431Y-89529680D01*
X80965910Y-89539564D01*
X80775463Y-89609824D01*
X80601010Y-89713612D01*
X80596667Y-89717421D01*
X80596660Y-89717426D01*
X80571577Y-89739423D01*
X80507173Y-89769300D01*
X80436840Y-89759614D01*
X80382909Y-89713441D01*
X80362500Y-89644691D01*
X80362500Y-86617488D01*
X80382502Y-86549367D01*
X80434427Y-86504802D01*
X80434165Y-86504334D01*
X80436491Y-86503032D01*
X80436493Y-86503030D01*
X80611276Y-86405147D01*
X80626495Y-86392490D01*
X80762913Y-86279031D01*
X80767345Y-86275345D01*
X80897147Y-86119276D01*
X80996334Y-85942165D01*
X80998190Y-85936698D01*
X80998192Y-85936693D01*
X81059728Y-85755414D01*
X81059729Y-85755409D01*
X81061584Y-85749945D01*
X81062412Y-85744236D01*
X81062413Y-85744231D01*
X81090179Y-85552727D01*
X81090712Y-85549053D01*
X81092232Y-85491000D01*
X81073658Y-85288859D01*
X81072090Y-85283299D01*
X81020125Y-85099046D01*
X81020124Y-85099044D01*
X81018557Y-85093487D01*
X81007978Y-85072033D01*
X80931331Y-84916609D01*
X80928776Y-84911428D01*
X80807320Y-84748779D01*
X80658258Y-84610987D01*
X80653375Y-84607906D01*
X80653371Y-84607903D01*
X80491464Y-84505748D01*
X80486581Y-84502667D01*
X80298039Y-84427446D01*
X80292379Y-84426320D01*
X80292375Y-84426319D01*
X80104613Y-84388971D01*
X80104610Y-84388971D01*
X80098946Y-84387844D01*
X80093171Y-84387768D01*
X80093167Y-84387768D01*
X79991793Y-84386441D01*
X79895971Y-84385187D01*
X79890274Y-84386166D01*
X79890273Y-84386166D01*
X79792620Y-84402946D01*
X79695910Y-84419564D01*
X79505463Y-84489824D01*
X79331010Y-84593612D01*
X79326670Y-84597418D01*
X79326666Y-84597421D01*
X79306723Y-84614911D01*
X79178392Y-84727455D01*
X79052720Y-84886869D01*
X79050031Y-84891980D01*
X79050029Y-84891983D01*
X79022663Y-84943998D01*
X78958203Y-85066515D01*
X78898007Y-85260378D01*
X78874148Y-85461964D01*
X78887424Y-85664522D01*
X78888845Y-85670118D01*
X78888846Y-85670123D01*
X78935971Y-85855674D01*
X78937392Y-85861269D01*
X78939809Y-85866512D01*
X78975145Y-85943161D01*
X79022377Y-86045616D01*
X79139533Y-86211389D01*
X79284938Y-86353035D01*
X79289742Y-86356245D01*
X79343980Y-86392486D01*
X79453720Y-86465812D01*
X79459023Y-86468090D01*
X79459028Y-86468093D01*
X79527237Y-86497397D01*
X79581930Y-86542665D01*
X79603500Y-86613165D01*
X79603500Y-89641895D01*
X79583498Y-89710016D01*
X79529842Y-89756509D01*
X79459568Y-89766613D01*
X79397963Y-89737275D01*
X79397081Y-89738424D01*
X79392502Y-89734910D01*
X79388258Y-89730987D01*
X79383375Y-89727906D01*
X79383371Y-89727903D01*
X79221464Y-89625748D01*
X79216581Y-89622667D01*
X79028039Y-89547446D01*
X79022379Y-89546320D01*
X79022375Y-89546319D01*
X78834613Y-89508971D01*
X78834610Y-89508971D01*
X78828946Y-89507844D01*
X78823171Y-89507768D01*
X78823167Y-89507768D01*
X78721793Y-89506441D01*
X78625971Y-89505187D01*
X78620274Y-89506166D01*
X78620273Y-89506166D01*
X78483431Y-89529680D01*
X78425910Y-89539564D01*
X78235463Y-89609824D01*
X78061010Y-89713612D01*
X78056670Y-89717418D01*
X78056666Y-89717421D01*
X78008555Y-89759614D01*
X77908392Y-89847455D01*
X77782720Y-90006869D01*
X77780031Y-90011980D01*
X77780029Y-90011983D01*
X77768507Y-90033883D01*
X77688203Y-90186515D01*
X77628007Y-90380378D01*
X77604148Y-90581964D01*
X77617424Y-90784522D01*
X77618845Y-90790118D01*
X77618846Y-90790123D01*
X77639119Y-90869945D01*
X77667392Y-90981269D01*
X77669809Y-90986512D01*
X77707010Y-91067208D01*
X77752377Y-91165616D01*
X77869533Y-91331389D01*
X78014938Y-91473035D01*
X78019742Y-91476245D01*
X78069917Y-91509771D01*
X78183720Y-91585812D01*
X78189023Y-91588090D01*
X78189026Y-91588092D01*
X78364921Y-91663662D01*
X78370228Y-91665942D01*
X78443244Y-91682464D01*
X78562579Y-91709467D01*
X78562584Y-91709468D01*
X78568216Y-91710742D01*
X78573987Y-91710969D01*
X78573989Y-91710969D01*
X78633756Y-91713317D01*
X78771053Y-91718712D01*
X78871499Y-91704148D01*
X78966231Y-91690413D01*
X78966236Y-91690412D01*
X78971945Y-91689584D01*
X78977409Y-91687729D01*
X78977414Y-91687728D01*
X79158693Y-91626192D01*
X79158698Y-91626190D01*
X79164165Y-91624334D01*
X79341276Y-91525147D01*
X79345718Y-91521453D01*
X79345724Y-91521449D01*
X79396931Y-91478860D01*
X79462095Y-91450679D01*
X79532150Y-91462203D01*
X79584854Y-91509771D01*
X79603500Y-91575734D01*
X79603500Y-93855500D01*
X79583498Y-93923621D01*
X79529842Y-93970114D01*
X79477500Y-93981500D01*
X53520925Y-93981500D01*
X53496967Y-93978950D01*
X53495308Y-93978872D01*
X53485124Y-93976679D01*
X53474782Y-93977903D01*
X53474779Y-93977903D01*
X53451779Y-93980626D01*
X53445848Y-93980976D01*
X53445856Y-93981072D01*
X53440680Y-93981500D01*
X53435476Y-93981500D01*
X53416412Y-93984673D01*
X53410566Y-93985504D01*
X53399117Y-93986859D01*
X53359659Y-93991530D01*
X53351407Y-93995493D01*
X53342374Y-93996996D01*
X53333205Y-94001943D01*
X53333203Y-94001944D01*
X53297255Y-94021341D01*
X53292002Y-94024018D01*
X53245769Y-94046219D01*
X53241493Y-94049813D01*
X53239553Y-94051753D01*
X53237641Y-94053507D01*
X53237552Y-94053555D01*
X53237440Y-94053432D01*
X53236904Y-94053905D01*
X53231186Y-94056990D01*
X53224119Y-94064635D01*
X53194584Y-94096586D01*
X53191154Y-94100152D01*
X48537784Y-98753522D01*
X48519036Y-98768664D01*
X48517811Y-98769779D01*
X48509060Y-98775429D01*
X48502613Y-98783607D01*
X48502611Y-98783609D01*
X48488271Y-98801800D01*
X48484325Y-98806241D01*
X48484398Y-98806303D01*
X48481039Y-98810267D01*
X48477362Y-98813944D01*
X48466108Y-98829692D01*
X48462602Y-98834362D01*
X48430844Y-98874647D01*
X48427812Y-98883281D01*
X48422486Y-98890734D01*
X48419501Y-98900715D01*
X48407799Y-98939844D01*
X48405964Y-98945492D01*
X48388982Y-98993851D01*
X48388500Y-98999416D01*
X48388500Y-99002124D01*
X48388386Y-99004758D01*
X48388357Y-99004856D01*
X48388193Y-99004849D01*
X48388149Y-99005553D01*
X48386287Y-99011778D01*
X48386696Y-99022183D01*
X48388403Y-99065635D01*
X48388500Y-99070582D01*
X48388500Y-104415650D01*
X48368498Y-104483771D01*
X48314842Y-104530264D01*
X48244568Y-104540368D01*
X48231805Y-104537854D01*
X48096004Y-104503743D01*
X48096000Y-104503743D01*
X48088633Y-104501892D01*
X48081034Y-104501852D01*
X48081033Y-104501852D01*
X48015181Y-104501507D01*
X47930221Y-104501062D01*
X47922841Y-104502834D01*
X47922839Y-104502834D01*
X47783563Y-104536271D01*
X47783560Y-104536272D01*
X47776184Y-104538043D01*
X47635414Y-104610700D01*
X47516039Y-104714838D01*
X47424950Y-104844444D01*
X47367406Y-104992037D01*
X47346729Y-105149096D01*
X47350702Y-105185078D01*
X47356731Y-105239686D01*
X47364113Y-105306553D01*
X47366723Y-105313684D01*
X47366723Y-105313686D01*
X47415500Y-105446975D01*
X47418553Y-105455319D01*
X47422789Y-105461622D01*
X47422789Y-105461623D01*
X47460043Y-105517062D01*
X47506908Y-105586805D01*
X47512527Y-105591918D01*
X47512528Y-105591919D01*
X47618460Y-105688309D01*
X47624076Y-105693419D01*
X47763293Y-105769008D01*
X47916522Y-105809207D01*
X48000477Y-105810526D01*
X48067319Y-105811576D01*
X48067322Y-105811576D01*
X48074916Y-105811695D01*
X48229332Y-105776329D01*
X48229758Y-105778188D01*
X48290683Y-105774527D01*
X48352604Y-105809260D01*
X48385918Y-105871955D01*
X48388500Y-105897335D01*
X48388500Y-107887500D01*
X48368498Y-107955621D01*
X48314842Y-108002114D01*
X48262500Y-108013500D01*
X47818336Y-108013501D01*
X47805290Y-108013501D01*
X47802432Y-108013764D01*
X47802423Y-108013764D01*
X47767086Y-108017011D01*
X47731754Y-108020257D01*
X47725375Y-108022256D01*
X47575135Y-108069338D01*
X47575133Y-108069339D01*
X47567886Y-108071610D01*
X47561391Y-108075544D01*
X47561390Y-108075544D01*
X47522156Y-108099305D01*
X47420998Y-108160569D01*
X47414472Y-108167095D01*
X47413427Y-108167666D01*
X47409653Y-108170625D01*
X47409160Y-108169996D01*
X47352160Y-108201121D01*
X47325377Y-108204000D01*
X46768623Y-108204000D01*
X46700502Y-108183998D01*
X46679528Y-108167095D01*
X46673002Y-108160569D01*
X46666499Y-108156631D01*
X46660526Y-108151947D01*
X46661663Y-108150496D01*
X46620324Y-108105286D01*
X46607500Y-108049903D01*
X46607500Y-108036730D01*
X46627502Y-107968609D01*
X46651669Y-107940919D01*
X46707536Y-107893204D01*
X46713314Y-107888269D01*
X46805755Y-107759624D01*
X46864842Y-107612641D01*
X46871834Y-107563514D01*
X46886581Y-107459891D01*
X46886581Y-107459888D01*
X46887162Y-107455807D01*
X46887307Y-107442000D01*
X46868276Y-107284733D01*
X46812280Y-107136546D01*
X46781449Y-107091686D01*
X46726855Y-107012251D01*
X46726854Y-107012249D01*
X46722553Y-107005992D01*
X46712717Y-106997228D01*
X46657247Y-106947807D01*
X46604275Y-106900611D01*
X46596889Y-106896700D01*
X46500959Y-106845908D01*
X46464274Y-106826484D01*
X46310633Y-106787892D01*
X46303034Y-106787852D01*
X46303033Y-106787852D01*
X46237181Y-106787507D01*
X46152221Y-106787062D01*
X46144841Y-106788834D01*
X46144839Y-106788834D01*
X46005563Y-106822271D01*
X46005560Y-106822272D01*
X45998184Y-106824043D01*
X45857414Y-106896700D01*
X45738039Y-107000838D01*
X45646950Y-107130444D01*
X45629753Y-107174552D01*
X45595002Y-107263685D01*
X45589406Y-107278037D01*
X45588414Y-107285570D01*
X45588414Y-107285571D01*
X45569823Y-107426787D01*
X45568729Y-107435096D01*
X45586113Y-107592553D01*
X45588723Y-107599684D01*
X45588723Y-107599686D01*
X45634396Y-107724493D01*
X45640553Y-107741319D01*
X45644789Y-107747622D01*
X45644789Y-107747623D01*
X45691559Y-107817224D01*
X45712951Y-107884921D01*
X45694347Y-107953437D01*
X45641654Y-108001018D01*
X45586977Y-108013500D01*
X45271649Y-108013501D01*
X45265290Y-108013501D01*
X45262432Y-108013764D01*
X45262423Y-108013764D01*
X45227086Y-108017011D01*
X45191754Y-108020257D01*
X45185375Y-108022256D01*
X45035135Y-108069338D01*
X45035133Y-108069339D01*
X45027886Y-108071610D01*
X45021391Y-108075544D01*
X45021390Y-108075544D01*
X44982156Y-108099305D01*
X44880998Y-108160569D01*
X44874472Y-108167095D01*
X44873427Y-108167666D01*
X44869653Y-108170625D01*
X44869160Y-108169996D01*
X44812160Y-108201121D01*
X44785377Y-108204000D01*
X44228623Y-108204000D01*
X44160502Y-108183998D01*
X44139528Y-108167095D01*
X44133002Y-108160569D01*
X44031844Y-108099305D01*
X43992610Y-108075544D01*
X43992609Y-108075544D01*
X43986114Y-108071610D01*
X43978867Y-108069339D01*
X43978865Y-108069338D01*
X43911837Y-108048333D01*
X43822246Y-108020257D01*
X43748711Y-108013500D01*
X43745813Y-108013500D01*
X43235673Y-108013501D01*
X42725290Y-108013501D01*
X42722432Y-108013764D01*
X42722423Y-108013764D01*
X42687086Y-108017011D01*
X42651754Y-108020257D01*
X42645375Y-108022256D01*
X42495135Y-108069338D01*
X42495133Y-108069339D01*
X42487886Y-108071610D01*
X42481391Y-108075544D01*
X42481390Y-108075544D01*
X42442156Y-108099305D01*
X42340998Y-108160569D01*
X42334472Y-108167095D01*
X42333427Y-108167666D01*
X42329653Y-108170625D01*
X42329160Y-108169996D01*
X42272160Y-108201121D01*
X42245377Y-108204000D01*
X41688623Y-108204000D01*
X41620502Y-108183998D01*
X41599528Y-108167095D01*
X41593002Y-108160569D01*
X41491844Y-108099305D01*
X41452610Y-108075544D01*
X41452609Y-108075544D01*
X41446114Y-108071610D01*
X41438867Y-108069339D01*
X41438865Y-108069338D01*
X41371837Y-108048333D01*
X41282246Y-108020257D01*
X41208711Y-108013500D01*
X41205813Y-108013500D01*
X40695673Y-108013501D01*
X40185290Y-108013501D01*
X40182432Y-108013764D01*
X40182423Y-108013764D01*
X40147086Y-108017011D01*
X40111754Y-108020257D01*
X40105375Y-108022256D01*
X39955135Y-108069338D01*
X39955133Y-108069339D01*
X39947886Y-108071610D01*
X39941391Y-108075544D01*
X39941390Y-108075544D01*
X39902156Y-108099305D01*
X39800998Y-108160569D01*
X39794472Y-108167095D01*
X39793427Y-108167666D01*
X39789653Y-108170625D01*
X39789160Y-108169996D01*
X39732160Y-108201121D01*
X39705377Y-108204000D01*
X39148623Y-108204000D01*
X39080502Y-108183998D01*
X39059528Y-108167095D01*
X39053002Y-108160569D01*
X38951844Y-108099305D01*
X38912610Y-108075544D01*
X38912609Y-108075544D01*
X38906114Y-108071610D01*
X38898867Y-108069339D01*
X38898865Y-108069338D01*
X38831837Y-108048333D01*
X38742246Y-108020257D01*
X38668711Y-108013500D01*
X38665813Y-108013500D01*
X38155673Y-108013501D01*
X37645290Y-108013501D01*
X37642432Y-108013764D01*
X37642423Y-108013764D01*
X37607086Y-108017011D01*
X37571754Y-108020257D01*
X37565375Y-108022256D01*
X37415135Y-108069338D01*
X37415133Y-108069339D01*
X37407886Y-108071610D01*
X37401391Y-108075544D01*
X37401390Y-108075544D01*
X37362156Y-108099305D01*
X37260998Y-108160569D01*
X37254472Y-108167095D01*
X37253427Y-108167666D01*
X37249653Y-108170625D01*
X37249160Y-108169996D01*
X37192160Y-108201121D01*
X37165377Y-108204000D01*
X36608623Y-108204000D01*
X36540502Y-108183998D01*
X36519528Y-108167095D01*
X36513002Y-108160569D01*
X36506499Y-108156631D01*
X36500526Y-108151947D01*
X36501663Y-108150496D01*
X36460324Y-108105286D01*
X36447500Y-108049903D01*
X36447500Y-108036730D01*
X36467502Y-107968609D01*
X36491669Y-107940919D01*
X36547536Y-107893204D01*
X36553314Y-107888269D01*
X36645755Y-107759624D01*
X36704842Y-107612641D01*
X36711834Y-107563514D01*
X36726581Y-107459891D01*
X36726581Y-107459888D01*
X36727162Y-107455807D01*
X36727307Y-107442000D01*
X36708276Y-107284733D01*
X36652280Y-107136546D01*
X36621449Y-107091686D01*
X36566855Y-107012251D01*
X36566854Y-107012249D01*
X36562553Y-107005992D01*
X36552717Y-106997228D01*
X36497247Y-106947807D01*
X36444275Y-106900611D01*
X36436889Y-106896700D01*
X36340959Y-106845908D01*
X36304274Y-106826484D01*
X36150633Y-106787892D01*
X36143034Y-106787852D01*
X36143033Y-106787852D01*
X36077181Y-106787507D01*
X35992221Y-106787062D01*
X35984841Y-106788834D01*
X35984839Y-106788834D01*
X35845563Y-106822271D01*
X35845560Y-106822272D01*
X35838184Y-106824043D01*
X35697414Y-106896700D01*
X35578039Y-107000838D01*
X35486950Y-107130444D01*
X35469753Y-107174552D01*
X35435002Y-107263685D01*
X35429406Y-107278037D01*
X35428414Y-107285570D01*
X35428414Y-107285571D01*
X35409823Y-107426787D01*
X35408729Y-107435096D01*
X35426113Y-107592553D01*
X35428723Y-107599684D01*
X35428723Y-107599686D01*
X35474396Y-107724493D01*
X35480553Y-107741319D01*
X35484789Y-107747622D01*
X35484789Y-107747623D01*
X35531559Y-107817224D01*
X35552951Y-107884921D01*
X35534347Y-107953437D01*
X35481654Y-108001018D01*
X35426977Y-108013500D01*
X35111649Y-108013501D01*
X35105290Y-108013501D01*
X35102432Y-108013764D01*
X35102423Y-108013764D01*
X35067086Y-108017011D01*
X35031754Y-108020257D01*
X35025375Y-108022256D01*
X34875135Y-108069338D01*
X34875133Y-108069339D01*
X34867886Y-108071610D01*
X34861391Y-108075544D01*
X34861390Y-108075544D01*
X34822156Y-108099305D01*
X34720998Y-108160569D01*
X34714472Y-108167095D01*
X34713427Y-108167666D01*
X34709653Y-108170625D01*
X34709160Y-108169996D01*
X34652160Y-108201121D01*
X34625377Y-108204000D01*
X34068623Y-108204000D01*
X34000502Y-108183998D01*
X33979528Y-108167095D01*
X33973002Y-108160569D01*
X33871844Y-108099305D01*
X33832610Y-108075544D01*
X33832609Y-108075544D01*
X33826114Y-108071610D01*
X33818867Y-108069339D01*
X33818865Y-108069338D01*
X33751837Y-108048333D01*
X33662246Y-108020257D01*
X33588711Y-108013500D01*
X33585813Y-108013500D01*
X33075673Y-108013501D01*
X32565290Y-108013501D01*
X32562432Y-108013764D01*
X32562423Y-108013764D01*
X32527086Y-108017011D01*
X32491754Y-108020257D01*
X32485375Y-108022256D01*
X32335135Y-108069338D01*
X32335133Y-108069339D01*
X32327886Y-108071610D01*
X32321391Y-108075544D01*
X32321390Y-108075544D01*
X32282156Y-108099305D01*
X32180998Y-108160569D01*
X32174472Y-108167095D01*
X32173427Y-108167666D01*
X32169653Y-108170625D01*
X32169160Y-108169996D01*
X32112160Y-108201121D01*
X32085377Y-108204000D01*
X31114500Y-108204000D01*
X31046379Y-108183998D01*
X30999886Y-108130342D01*
X30988500Y-108078000D01*
X30988500Y-107860476D01*
X30990921Y-107835894D01*
X30991065Y-107835170D01*
X30993486Y-107823000D01*
X30973734Y-107723699D01*
X30965159Y-107710865D01*
X30924377Y-107649832D01*
X30917484Y-107639516D01*
X30833301Y-107583266D01*
X30759067Y-107568500D01*
X30746172Y-107565935D01*
X30734000Y-107563514D01*
X30721103Y-107566079D01*
X30696524Y-107568500D01*
X20065500Y-107568500D01*
X19997379Y-107548498D01*
X19950886Y-107494842D01*
X19939500Y-107442500D01*
X19939500Y-103498096D01*
X37948729Y-103498096D01*
X37966113Y-103655553D01*
X38020553Y-103804319D01*
X38108908Y-103935805D01*
X38114527Y-103940918D01*
X38114528Y-103940919D01*
X38125903Y-103951269D01*
X38226076Y-104042419D01*
X38365293Y-104118008D01*
X38518522Y-104158207D01*
X38602477Y-104159526D01*
X38669319Y-104160576D01*
X38669322Y-104160576D01*
X38676916Y-104160695D01*
X38831332Y-104125329D01*
X38901742Y-104089917D01*
X38966072Y-104057563D01*
X38966075Y-104057561D01*
X38972855Y-104054151D01*
X38978626Y-104049222D01*
X38978629Y-104049220D01*
X39087536Y-103956204D01*
X39087536Y-103956203D01*
X39093314Y-103951269D01*
X39185755Y-103822624D01*
X39244842Y-103675641D01*
X39267162Y-103518807D01*
X39267307Y-103505000D01*
X39248276Y-103347733D01*
X39192280Y-103199546D01*
X39102553Y-103068992D01*
X38984275Y-102963611D01*
X38976889Y-102959700D01*
X38850988Y-102893039D01*
X38850989Y-102893039D01*
X38844274Y-102889484D01*
X38690633Y-102850892D01*
X38683034Y-102850852D01*
X38683033Y-102850852D01*
X38617181Y-102850507D01*
X38532221Y-102850062D01*
X38524841Y-102851834D01*
X38524839Y-102851834D01*
X38385563Y-102885271D01*
X38385560Y-102885272D01*
X38378184Y-102887043D01*
X38237414Y-102959700D01*
X38118039Y-103063838D01*
X38026950Y-103193444D01*
X37969406Y-103341037D01*
X37948729Y-103498096D01*
X19939500Y-103498096D01*
X19939500Y-90581964D01*
X34424148Y-90581964D01*
X34437424Y-90784522D01*
X34438845Y-90790118D01*
X34438846Y-90790123D01*
X34459119Y-90869945D01*
X34487392Y-90981269D01*
X34489809Y-90986512D01*
X34527010Y-91067208D01*
X34572377Y-91165616D01*
X34689533Y-91331389D01*
X34834938Y-91473035D01*
X34839742Y-91476245D01*
X34889917Y-91509771D01*
X35003720Y-91585812D01*
X35009023Y-91588090D01*
X35009026Y-91588092D01*
X35184921Y-91663662D01*
X35190228Y-91665942D01*
X35263244Y-91682464D01*
X35382579Y-91709467D01*
X35382584Y-91709468D01*
X35388216Y-91710742D01*
X35393987Y-91710969D01*
X35393989Y-91710969D01*
X35453756Y-91713317D01*
X35591053Y-91718712D01*
X35691499Y-91704148D01*
X35786231Y-91690413D01*
X35786236Y-91690412D01*
X35791945Y-91689584D01*
X35797409Y-91687729D01*
X35797414Y-91687728D01*
X35978693Y-91626192D01*
X35978698Y-91626190D01*
X35984165Y-91624334D01*
X36161276Y-91525147D01*
X36165723Y-91521449D01*
X36312913Y-91399031D01*
X36317345Y-91395345D01*
X36374463Y-91326669D01*
X36443453Y-91243718D01*
X36443455Y-91243715D01*
X36447147Y-91239276D01*
X36546334Y-91062165D01*
X36548190Y-91056698D01*
X36548192Y-91056693D01*
X36609728Y-90875414D01*
X36609729Y-90875409D01*
X36611584Y-90869945D01*
X36612412Y-90864236D01*
X36612413Y-90864231D01*
X36640179Y-90672727D01*
X36640712Y-90669053D01*
X36642232Y-90611000D01*
X36639564Y-90581964D01*
X36964148Y-90581964D01*
X36977424Y-90784522D01*
X36978845Y-90790118D01*
X36978846Y-90790123D01*
X36999119Y-90869945D01*
X37027392Y-90981269D01*
X37029809Y-90986512D01*
X37067010Y-91067208D01*
X37112377Y-91165616D01*
X37229533Y-91331389D01*
X37374938Y-91473035D01*
X37379742Y-91476245D01*
X37429917Y-91509771D01*
X37543720Y-91585812D01*
X37549023Y-91588090D01*
X37549026Y-91588092D01*
X37724921Y-91663662D01*
X37730228Y-91665942D01*
X37803244Y-91682464D01*
X37922579Y-91709467D01*
X37922584Y-91709468D01*
X37928216Y-91710742D01*
X37933987Y-91710969D01*
X37933989Y-91710969D01*
X37993756Y-91713317D01*
X38131053Y-91718712D01*
X38231499Y-91704148D01*
X38326231Y-91690413D01*
X38326236Y-91690412D01*
X38331945Y-91689584D01*
X38337409Y-91687729D01*
X38337414Y-91687728D01*
X38518693Y-91626192D01*
X38518698Y-91626190D01*
X38524165Y-91624334D01*
X38701276Y-91525147D01*
X38705723Y-91521449D01*
X38852913Y-91399031D01*
X38857345Y-91395345D01*
X38914463Y-91326669D01*
X38983453Y-91243718D01*
X38983455Y-91243715D01*
X38987147Y-91239276D01*
X39086334Y-91062165D01*
X39088190Y-91056698D01*
X39088192Y-91056693D01*
X39149728Y-90875414D01*
X39149729Y-90875409D01*
X39151584Y-90869945D01*
X39152412Y-90864236D01*
X39152413Y-90864231D01*
X39180179Y-90672727D01*
X39180712Y-90669053D01*
X39182232Y-90611000D01*
X39179564Y-90581964D01*
X39504148Y-90581964D01*
X39517424Y-90784522D01*
X39518845Y-90790118D01*
X39518846Y-90790123D01*
X39539119Y-90869945D01*
X39567392Y-90981269D01*
X39569809Y-90986512D01*
X39607010Y-91067208D01*
X39652377Y-91165616D01*
X39769533Y-91331389D01*
X39914938Y-91473035D01*
X39919742Y-91476245D01*
X39969917Y-91509771D01*
X40083720Y-91585812D01*
X40089023Y-91588090D01*
X40089026Y-91588092D01*
X40264921Y-91663662D01*
X40270228Y-91665942D01*
X40343244Y-91682464D01*
X40462579Y-91709467D01*
X40462584Y-91709468D01*
X40468216Y-91710742D01*
X40473987Y-91710969D01*
X40473989Y-91710969D01*
X40533756Y-91713317D01*
X40671053Y-91718712D01*
X40771499Y-91704148D01*
X40866231Y-91690413D01*
X40866236Y-91690412D01*
X40871945Y-91689584D01*
X40877409Y-91687729D01*
X40877414Y-91687728D01*
X41058693Y-91626192D01*
X41058698Y-91626190D01*
X41064165Y-91624334D01*
X41241276Y-91525147D01*
X41245723Y-91521449D01*
X41392913Y-91399031D01*
X41397345Y-91395345D01*
X41454463Y-91326669D01*
X41523453Y-91243718D01*
X41523455Y-91243715D01*
X41527147Y-91239276D01*
X41626334Y-91062165D01*
X41628190Y-91056698D01*
X41628192Y-91056693D01*
X41689728Y-90875414D01*
X41689729Y-90875409D01*
X41691584Y-90869945D01*
X41692412Y-90864236D01*
X41692413Y-90864231D01*
X41720179Y-90672727D01*
X41720712Y-90669053D01*
X41722232Y-90611000D01*
X41719564Y-90581964D01*
X42044148Y-90581964D01*
X42057424Y-90784522D01*
X42058845Y-90790118D01*
X42058846Y-90790123D01*
X42079119Y-90869945D01*
X42107392Y-90981269D01*
X42109809Y-90986512D01*
X42147010Y-91067208D01*
X42192377Y-91165616D01*
X42309533Y-91331389D01*
X42454938Y-91473035D01*
X42459742Y-91476245D01*
X42509917Y-91509771D01*
X42623720Y-91585812D01*
X42629023Y-91588090D01*
X42629026Y-91588092D01*
X42804921Y-91663662D01*
X42810228Y-91665942D01*
X42883244Y-91682464D01*
X43002579Y-91709467D01*
X43002584Y-91709468D01*
X43008216Y-91710742D01*
X43013987Y-91710969D01*
X43013989Y-91710969D01*
X43073756Y-91713317D01*
X43211053Y-91718712D01*
X43311499Y-91704148D01*
X43406231Y-91690413D01*
X43406236Y-91690412D01*
X43411945Y-91689584D01*
X43417409Y-91687729D01*
X43417414Y-91687728D01*
X43598693Y-91626192D01*
X43598698Y-91626190D01*
X43604165Y-91624334D01*
X43781276Y-91525147D01*
X43785723Y-91521449D01*
X43932913Y-91399031D01*
X43937345Y-91395345D01*
X43994463Y-91326669D01*
X44063453Y-91243718D01*
X44063455Y-91243715D01*
X44067147Y-91239276D01*
X44166334Y-91062165D01*
X44168190Y-91056698D01*
X44168192Y-91056693D01*
X44229728Y-90875414D01*
X44229729Y-90875409D01*
X44231584Y-90869945D01*
X44232412Y-90864236D01*
X44232413Y-90864231D01*
X44260179Y-90672727D01*
X44260712Y-90669053D01*
X44262232Y-90611000D01*
X44259564Y-90581964D01*
X44584148Y-90581964D01*
X44597424Y-90784522D01*
X44598845Y-90790118D01*
X44598846Y-90790123D01*
X44619119Y-90869945D01*
X44647392Y-90981269D01*
X44649809Y-90986512D01*
X44687010Y-91067208D01*
X44732377Y-91165616D01*
X44849533Y-91331389D01*
X44994938Y-91473035D01*
X44999742Y-91476245D01*
X45049917Y-91509771D01*
X45163720Y-91585812D01*
X45169023Y-91588090D01*
X45169026Y-91588092D01*
X45344921Y-91663662D01*
X45350228Y-91665942D01*
X45423244Y-91682464D01*
X45542579Y-91709467D01*
X45542584Y-91709468D01*
X45548216Y-91710742D01*
X45553987Y-91710969D01*
X45553989Y-91710969D01*
X45613756Y-91713317D01*
X45751053Y-91718712D01*
X45851499Y-91704148D01*
X45946231Y-91690413D01*
X45946236Y-91690412D01*
X45951945Y-91689584D01*
X45957409Y-91687729D01*
X45957414Y-91687728D01*
X46138693Y-91626192D01*
X46138698Y-91626190D01*
X46144165Y-91624334D01*
X46321276Y-91525147D01*
X46325723Y-91521449D01*
X46472913Y-91399031D01*
X46477345Y-91395345D01*
X46534463Y-91326669D01*
X46603453Y-91243718D01*
X46603455Y-91243715D01*
X46607147Y-91239276D01*
X46706334Y-91062165D01*
X46708190Y-91056698D01*
X46708192Y-91056693D01*
X46769728Y-90875414D01*
X46769729Y-90875409D01*
X46771584Y-90869945D01*
X46772412Y-90864236D01*
X46772413Y-90864231D01*
X46800179Y-90672727D01*
X46800712Y-90669053D01*
X46802232Y-90611000D01*
X46799564Y-90581964D01*
X47124148Y-90581964D01*
X47137424Y-90784522D01*
X47138845Y-90790118D01*
X47138846Y-90790123D01*
X47159119Y-90869945D01*
X47187392Y-90981269D01*
X47189809Y-90986512D01*
X47227010Y-91067208D01*
X47272377Y-91165616D01*
X47389533Y-91331389D01*
X47534938Y-91473035D01*
X47539742Y-91476245D01*
X47589917Y-91509771D01*
X47703720Y-91585812D01*
X47709023Y-91588090D01*
X47709026Y-91588092D01*
X47884921Y-91663662D01*
X47890228Y-91665942D01*
X47963244Y-91682464D01*
X48082579Y-91709467D01*
X48082584Y-91709468D01*
X48088216Y-91710742D01*
X48093987Y-91710969D01*
X48093989Y-91710969D01*
X48153756Y-91713317D01*
X48291053Y-91718712D01*
X48391499Y-91704148D01*
X48486231Y-91690413D01*
X48486236Y-91690412D01*
X48491945Y-91689584D01*
X48497409Y-91687729D01*
X48497414Y-91687728D01*
X48678693Y-91626192D01*
X48678698Y-91626190D01*
X48684165Y-91624334D01*
X48861276Y-91525147D01*
X48865723Y-91521449D01*
X49012913Y-91399031D01*
X49017345Y-91395345D01*
X49074463Y-91326669D01*
X49143453Y-91243718D01*
X49143455Y-91243715D01*
X49147147Y-91239276D01*
X49246334Y-91062165D01*
X49248190Y-91056698D01*
X49248192Y-91056693D01*
X49309728Y-90875414D01*
X49309729Y-90875409D01*
X49311584Y-90869945D01*
X49312412Y-90864236D01*
X49312413Y-90864231D01*
X49340179Y-90672727D01*
X49340712Y-90669053D01*
X49342232Y-90611000D01*
X49339564Y-90581964D01*
X49664148Y-90581964D01*
X49677424Y-90784522D01*
X49678845Y-90790118D01*
X49678846Y-90790123D01*
X49699119Y-90869945D01*
X49727392Y-90981269D01*
X49729809Y-90986512D01*
X49767010Y-91067208D01*
X49812377Y-91165616D01*
X49929533Y-91331389D01*
X50074938Y-91473035D01*
X50079742Y-91476245D01*
X50129917Y-91509771D01*
X50243720Y-91585812D01*
X50249023Y-91588090D01*
X50249026Y-91588092D01*
X50424921Y-91663662D01*
X50430228Y-91665942D01*
X50503244Y-91682464D01*
X50622579Y-91709467D01*
X50622584Y-91709468D01*
X50628216Y-91710742D01*
X50633987Y-91710969D01*
X50633989Y-91710969D01*
X50693756Y-91713317D01*
X50831053Y-91718712D01*
X50931499Y-91704148D01*
X51026231Y-91690413D01*
X51026236Y-91690412D01*
X51031945Y-91689584D01*
X51037409Y-91687729D01*
X51037414Y-91687728D01*
X51218693Y-91626192D01*
X51218698Y-91626190D01*
X51224165Y-91624334D01*
X51401276Y-91525147D01*
X51405723Y-91521449D01*
X51552913Y-91399031D01*
X51557345Y-91395345D01*
X51614463Y-91326669D01*
X51683453Y-91243718D01*
X51683455Y-91243715D01*
X51687147Y-91239276D01*
X51786334Y-91062165D01*
X51788190Y-91056698D01*
X51788192Y-91056693D01*
X51849728Y-90875414D01*
X51849729Y-90875409D01*
X51851584Y-90869945D01*
X51852412Y-90864236D01*
X51852413Y-90864231D01*
X51880179Y-90672727D01*
X51880712Y-90669053D01*
X51882232Y-90611000D01*
X51879564Y-90581964D01*
X52204148Y-90581964D01*
X52217424Y-90784522D01*
X52218845Y-90790118D01*
X52218846Y-90790123D01*
X52239119Y-90869945D01*
X52267392Y-90981269D01*
X52269809Y-90986512D01*
X52307010Y-91067208D01*
X52352377Y-91165616D01*
X52469533Y-91331389D01*
X52614938Y-91473035D01*
X52619742Y-91476245D01*
X52669917Y-91509771D01*
X52783720Y-91585812D01*
X52789023Y-91588090D01*
X52789026Y-91588092D01*
X52964921Y-91663662D01*
X52970228Y-91665942D01*
X53043244Y-91682464D01*
X53162579Y-91709467D01*
X53162584Y-91709468D01*
X53168216Y-91710742D01*
X53173987Y-91710969D01*
X53173989Y-91710969D01*
X53233756Y-91713317D01*
X53371053Y-91718712D01*
X53471499Y-91704148D01*
X53566231Y-91690413D01*
X53566236Y-91690412D01*
X53571945Y-91689584D01*
X53577409Y-91687729D01*
X53577414Y-91687728D01*
X53758693Y-91626192D01*
X53758698Y-91626190D01*
X53764165Y-91624334D01*
X53941276Y-91525147D01*
X53945723Y-91521449D01*
X54092913Y-91399031D01*
X54097345Y-91395345D01*
X54154463Y-91326669D01*
X54223453Y-91243718D01*
X54223455Y-91243715D01*
X54227147Y-91239276D01*
X54229969Y-91234236D01*
X54229973Y-91234231D01*
X54259067Y-91182279D01*
X54309804Y-91132617D01*
X54379335Y-91118270D01*
X54445586Y-91143791D01*
X54487522Y-91201080D01*
X54495001Y-91243845D01*
X54495001Y-91505669D01*
X54495371Y-91512490D01*
X54500895Y-91563352D01*
X54504521Y-91578604D01*
X54549676Y-91699054D01*
X54558214Y-91714649D01*
X54634715Y-91816724D01*
X54647276Y-91829285D01*
X54749351Y-91905786D01*
X54764946Y-91914324D01*
X54885394Y-91959478D01*
X54900649Y-91963105D01*
X54951514Y-91968631D01*
X54958328Y-91969000D01*
X55580885Y-91969000D01*
X55596124Y-91964525D01*
X55597329Y-91963135D01*
X55599000Y-91955452D01*
X55599000Y-91950884D01*
X56107000Y-91950884D01*
X56111475Y-91966123D01*
X56112865Y-91967328D01*
X56120548Y-91968999D01*
X56747669Y-91968999D01*
X56754490Y-91968629D01*
X56805352Y-91963105D01*
X56820604Y-91959479D01*
X56941054Y-91914324D01*
X56956649Y-91905786D01*
X57058724Y-91829285D01*
X57071285Y-91816724D01*
X57147786Y-91714649D01*
X57156324Y-91699054D01*
X57201478Y-91578606D01*
X57205105Y-91563351D01*
X57210631Y-91512486D01*
X57211000Y-91505672D01*
X57211000Y-91248976D01*
X57231002Y-91180855D01*
X57284658Y-91134362D01*
X57354932Y-91124258D01*
X57419512Y-91153752D01*
X57439895Y-91176254D01*
X57549533Y-91331389D01*
X57694938Y-91473035D01*
X57699742Y-91476245D01*
X57749917Y-91509771D01*
X57863720Y-91585812D01*
X57869023Y-91588090D01*
X57869026Y-91588092D01*
X58044921Y-91663662D01*
X58050228Y-91665942D01*
X58123244Y-91682464D01*
X58242579Y-91709467D01*
X58242584Y-91709468D01*
X58248216Y-91710742D01*
X58253987Y-91710969D01*
X58253989Y-91710969D01*
X58313756Y-91713317D01*
X58451053Y-91718712D01*
X58551499Y-91704148D01*
X58646231Y-91690413D01*
X58646236Y-91690412D01*
X58651945Y-91689584D01*
X58657409Y-91687729D01*
X58657414Y-91687728D01*
X58838693Y-91626192D01*
X58838698Y-91626190D01*
X58844165Y-91624334D01*
X59021276Y-91525147D01*
X59025723Y-91521449D01*
X59172913Y-91399031D01*
X59177345Y-91395345D01*
X59234463Y-91326669D01*
X59303453Y-91243718D01*
X59303455Y-91243715D01*
X59307147Y-91239276D01*
X59406334Y-91062165D01*
X59408190Y-91056698D01*
X59408192Y-91056693D01*
X59469728Y-90875414D01*
X59469729Y-90875409D01*
X59471584Y-90869945D01*
X59472412Y-90864236D01*
X59472413Y-90864231D01*
X59500179Y-90672727D01*
X59500712Y-90669053D01*
X59502232Y-90611000D01*
X59483658Y-90408859D01*
X59482090Y-90403299D01*
X59430125Y-90219046D01*
X59430124Y-90219044D01*
X59428557Y-90213487D01*
X59417978Y-90192033D01*
X59341331Y-90036609D01*
X59338776Y-90031428D01*
X59217320Y-89868779D01*
X59068258Y-89730987D01*
X59063375Y-89727906D01*
X59063371Y-89727903D01*
X58901464Y-89625748D01*
X58896581Y-89622667D01*
X58708039Y-89547446D01*
X58702379Y-89546320D01*
X58702375Y-89546319D01*
X58615702Y-89529079D01*
X58552792Y-89496172D01*
X58517660Y-89434477D01*
X58521460Y-89363582D01*
X58562986Y-89305996D01*
X58629052Y-89280001D01*
X58640283Y-89279500D01*
X60682093Y-89279500D01*
X60750214Y-89299502D01*
X60796707Y-89353158D01*
X60806811Y-89423432D01*
X60777317Y-89488012D01*
X60717591Y-89526396D01*
X60703431Y-89529680D01*
X60645910Y-89539564D01*
X60455463Y-89609824D01*
X60281010Y-89713612D01*
X60276670Y-89717418D01*
X60276666Y-89717421D01*
X60228555Y-89759614D01*
X60128392Y-89847455D01*
X60002720Y-90006869D01*
X60000031Y-90011980D01*
X60000029Y-90011983D01*
X59988507Y-90033883D01*
X59908203Y-90186515D01*
X59848007Y-90380378D01*
X59824148Y-90581964D01*
X59837424Y-90784522D01*
X59838845Y-90790118D01*
X59838846Y-90790123D01*
X59859119Y-90869945D01*
X59887392Y-90981269D01*
X59889809Y-90986512D01*
X59927010Y-91067208D01*
X59972377Y-91165616D01*
X60089533Y-91331389D01*
X60234938Y-91473035D01*
X60239742Y-91476245D01*
X60289917Y-91509771D01*
X60403720Y-91585812D01*
X60409023Y-91588090D01*
X60409026Y-91588092D01*
X60584921Y-91663662D01*
X60590228Y-91665942D01*
X60663244Y-91682464D01*
X60782579Y-91709467D01*
X60782584Y-91709468D01*
X60788216Y-91710742D01*
X60793987Y-91710969D01*
X60793989Y-91710969D01*
X60853756Y-91713317D01*
X60991053Y-91718712D01*
X61091499Y-91704148D01*
X61186231Y-91690413D01*
X61186236Y-91690412D01*
X61191945Y-91689584D01*
X61197409Y-91687729D01*
X61197414Y-91687728D01*
X61378693Y-91626192D01*
X61378698Y-91626190D01*
X61384165Y-91624334D01*
X61561276Y-91525147D01*
X61565723Y-91521449D01*
X61712913Y-91399031D01*
X61717345Y-91395345D01*
X61774463Y-91326669D01*
X61843453Y-91243718D01*
X61843455Y-91243715D01*
X61847147Y-91239276D01*
X61946334Y-91062165D01*
X61948190Y-91056698D01*
X61948192Y-91056693D01*
X62009728Y-90875414D01*
X62009729Y-90875409D01*
X62011584Y-90869945D01*
X62012412Y-90864236D01*
X62012413Y-90864231D01*
X62040179Y-90672727D01*
X62040712Y-90669053D01*
X62042232Y-90611000D01*
X62023658Y-90408859D01*
X62022090Y-90403299D01*
X61970125Y-90219046D01*
X61970124Y-90219044D01*
X61968557Y-90213487D01*
X61957978Y-90192033D01*
X61881331Y-90036609D01*
X61878776Y-90031428D01*
X61757320Y-89868779D01*
X61608258Y-89730987D01*
X61603375Y-89727906D01*
X61603371Y-89727903D01*
X61441464Y-89625748D01*
X61436581Y-89622667D01*
X61248039Y-89547446D01*
X61242379Y-89546320D01*
X61242375Y-89546319D01*
X61155702Y-89529079D01*
X61092792Y-89496172D01*
X61057660Y-89434477D01*
X61061460Y-89363582D01*
X61102986Y-89305996D01*
X61169052Y-89280001D01*
X61180283Y-89279500D01*
X63222093Y-89279500D01*
X63290214Y-89299502D01*
X63336707Y-89353158D01*
X63346811Y-89423432D01*
X63317317Y-89488012D01*
X63257591Y-89526396D01*
X63243431Y-89529680D01*
X63185910Y-89539564D01*
X62995463Y-89609824D01*
X62821010Y-89713612D01*
X62816670Y-89717418D01*
X62816666Y-89717421D01*
X62768555Y-89759614D01*
X62668392Y-89847455D01*
X62542720Y-90006869D01*
X62540031Y-90011980D01*
X62540029Y-90011983D01*
X62528507Y-90033883D01*
X62448203Y-90186515D01*
X62388007Y-90380378D01*
X62364148Y-90581964D01*
X62377424Y-90784522D01*
X62378845Y-90790118D01*
X62378846Y-90790123D01*
X62399119Y-90869945D01*
X62427392Y-90981269D01*
X62429809Y-90986512D01*
X62467010Y-91067208D01*
X62512377Y-91165616D01*
X62629533Y-91331389D01*
X62774938Y-91473035D01*
X62779742Y-91476245D01*
X62829917Y-91509771D01*
X62943720Y-91585812D01*
X62949023Y-91588090D01*
X62949026Y-91588092D01*
X63124921Y-91663662D01*
X63130228Y-91665942D01*
X63203244Y-91682464D01*
X63322579Y-91709467D01*
X63322584Y-91709468D01*
X63328216Y-91710742D01*
X63333987Y-91710969D01*
X63333989Y-91710969D01*
X63393756Y-91713317D01*
X63531053Y-91718712D01*
X63631499Y-91704148D01*
X63726231Y-91690413D01*
X63726236Y-91690412D01*
X63731945Y-91689584D01*
X63737409Y-91687729D01*
X63737414Y-91687728D01*
X63918693Y-91626192D01*
X63918698Y-91626190D01*
X63924165Y-91624334D01*
X64101276Y-91525147D01*
X64105723Y-91521449D01*
X64252913Y-91399031D01*
X64257345Y-91395345D01*
X64314463Y-91326669D01*
X64383453Y-91243718D01*
X64383455Y-91243715D01*
X64387147Y-91239276D01*
X64486334Y-91062165D01*
X64488190Y-91056698D01*
X64488192Y-91056693D01*
X64549728Y-90875414D01*
X64549729Y-90875409D01*
X64551584Y-90869945D01*
X64552412Y-90864236D01*
X64552413Y-90864231D01*
X64580179Y-90672727D01*
X64580712Y-90669053D01*
X64582232Y-90611000D01*
X64563658Y-90408859D01*
X64562090Y-90403299D01*
X64510125Y-90219046D01*
X64510124Y-90219044D01*
X64508557Y-90213487D01*
X64497978Y-90192033D01*
X64421331Y-90036609D01*
X64418776Y-90031428D01*
X64297320Y-89868779D01*
X64148258Y-89730987D01*
X64143375Y-89727906D01*
X64143371Y-89727903D01*
X63981464Y-89625748D01*
X63976581Y-89622667D01*
X63788039Y-89547446D01*
X63782379Y-89546320D01*
X63782375Y-89546319D01*
X63695702Y-89529079D01*
X63632792Y-89496172D01*
X63597660Y-89434477D01*
X63601460Y-89363582D01*
X63642986Y-89305996D01*
X63709052Y-89280001D01*
X63720283Y-89279500D01*
X65762093Y-89279500D01*
X65830214Y-89299502D01*
X65876707Y-89353158D01*
X65886811Y-89423432D01*
X65857317Y-89488012D01*
X65797591Y-89526396D01*
X65783431Y-89529680D01*
X65725910Y-89539564D01*
X65535463Y-89609824D01*
X65361010Y-89713612D01*
X65356670Y-89717418D01*
X65356666Y-89717421D01*
X65308555Y-89759614D01*
X65208392Y-89847455D01*
X65082720Y-90006869D01*
X65080031Y-90011980D01*
X65080029Y-90011983D01*
X65068507Y-90033883D01*
X64988203Y-90186515D01*
X64928007Y-90380378D01*
X64904148Y-90581964D01*
X64917424Y-90784522D01*
X64918845Y-90790118D01*
X64918846Y-90790123D01*
X64939119Y-90869945D01*
X64967392Y-90981269D01*
X64969809Y-90986512D01*
X65007010Y-91067208D01*
X65052377Y-91165616D01*
X65169533Y-91331389D01*
X65314938Y-91473035D01*
X65319742Y-91476245D01*
X65369917Y-91509771D01*
X65483720Y-91585812D01*
X65489023Y-91588090D01*
X65489026Y-91588092D01*
X65664921Y-91663662D01*
X65670228Y-91665942D01*
X65743244Y-91682464D01*
X65862579Y-91709467D01*
X65862584Y-91709468D01*
X65868216Y-91710742D01*
X65873987Y-91710969D01*
X65873989Y-91710969D01*
X65933756Y-91713317D01*
X66071053Y-91718712D01*
X66171499Y-91704148D01*
X66266231Y-91690413D01*
X66266236Y-91690412D01*
X66271945Y-91689584D01*
X66277409Y-91687729D01*
X66277414Y-91687728D01*
X66458693Y-91626192D01*
X66458698Y-91626190D01*
X66464165Y-91624334D01*
X66641276Y-91525147D01*
X66645723Y-91521449D01*
X66792913Y-91399031D01*
X66797345Y-91395345D01*
X66854463Y-91326669D01*
X66923453Y-91243718D01*
X66923455Y-91243715D01*
X66927147Y-91239276D01*
X67026334Y-91062165D01*
X67028190Y-91056698D01*
X67028192Y-91056693D01*
X67089728Y-90875414D01*
X67089729Y-90875409D01*
X67091584Y-90869945D01*
X67092412Y-90864236D01*
X67092413Y-90864231D01*
X67120179Y-90672727D01*
X67120712Y-90669053D01*
X67122232Y-90611000D01*
X67103658Y-90408859D01*
X67102090Y-90403299D01*
X67050125Y-90219046D01*
X67050124Y-90219044D01*
X67048557Y-90213487D01*
X67037978Y-90192033D01*
X66961331Y-90036609D01*
X66958776Y-90031428D01*
X66837320Y-89868779D01*
X66688258Y-89730987D01*
X66683375Y-89727906D01*
X66683371Y-89727903D01*
X66521464Y-89625748D01*
X66516581Y-89622667D01*
X66328039Y-89547446D01*
X66322379Y-89546320D01*
X66322375Y-89546319D01*
X66235702Y-89529079D01*
X66172792Y-89496172D01*
X66137660Y-89434477D01*
X66141460Y-89363582D01*
X66182986Y-89305996D01*
X66249052Y-89280001D01*
X66260283Y-89279500D01*
X68302093Y-89279500D01*
X68370214Y-89299502D01*
X68416707Y-89353158D01*
X68426811Y-89423432D01*
X68397317Y-89488012D01*
X68337591Y-89526396D01*
X68323431Y-89529680D01*
X68265910Y-89539564D01*
X68075463Y-89609824D01*
X67901010Y-89713612D01*
X67896670Y-89717418D01*
X67896666Y-89717421D01*
X67848555Y-89759614D01*
X67748392Y-89847455D01*
X67622720Y-90006869D01*
X67620031Y-90011980D01*
X67620029Y-90011983D01*
X67608507Y-90033883D01*
X67528203Y-90186515D01*
X67468007Y-90380378D01*
X67444148Y-90581964D01*
X67457424Y-90784522D01*
X67458845Y-90790118D01*
X67458846Y-90790123D01*
X67479119Y-90869945D01*
X67507392Y-90981269D01*
X67509809Y-90986512D01*
X67547010Y-91067208D01*
X67592377Y-91165616D01*
X67709533Y-91331389D01*
X67854938Y-91473035D01*
X67859742Y-91476245D01*
X67909917Y-91509771D01*
X68023720Y-91585812D01*
X68029023Y-91588090D01*
X68029026Y-91588092D01*
X68204921Y-91663662D01*
X68210228Y-91665942D01*
X68283244Y-91682464D01*
X68402579Y-91709467D01*
X68402584Y-91709468D01*
X68408216Y-91710742D01*
X68413987Y-91710969D01*
X68413989Y-91710969D01*
X68473756Y-91713317D01*
X68611053Y-91718712D01*
X68711499Y-91704148D01*
X68806231Y-91690413D01*
X68806236Y-91690412D01*
X68811945Y-91689584D01*
X68817409Y-91687729D01*
X68817414Y-91687728D01*
X68998693Y-91626192D01*
X68998698Y-91626190D01*
X69004165Y-91624334D01*
X69181276Y-91525147D01*
X69185723Y-91521449D01*
X69332913Y-91399031D01*
X69337345Y-91395345D01*
X69394463Y-91326669D01*
X69463453Y-91243718D01*
X69463455Y-91243715D01*
X69467147Y-91239276D01*
X69566334Y-91062165D01*
X69568190Y-91056698D01*
X69568192Y-91056693D01*
X69629728Y-90875414D01*
X69629729Y-90875409D01*
X69631584Y-90869945D01*
X69632412Y-90864236D01*
X69632413Y-90864231D01*
X69660179Y-90672727D01*
X69660712Y-90669053D01*
X69662232Y-90611000D01*
X69659564Y-90581964D01*
X69984148Y-90581964D01*
X69997424Y-90784522D01*
X69998845Y-90790118D01*
X69998846Y-90790123D01*
X70019119Y-90869945D01*
X70047392Y-90981269D01*
X70049809Y-90986512D01*
X70087010Y-91067208D01*
X70132377Y-91165616D01*
X70249533Y-91331389D01*
X70394938Y-91473035D01*
X70399742Y-91476245D01*
X70449917Y-91509771D01*
X70563720Y-91585812D01*
X70569023Y-91588090D01*
X70569026Y-91588092D01*
X70744921Y-91663662D01*
X70750228Y-91665942D01*
X70823244Y-91682464D01*
X70942579Y-91709467D01*
X70942584Y-91709468D01*
X70948216Y-91710742D01*
X70953987Y-91710969D01*
X70953989Y-91710969D01*
X71013756Y-91713317D01*
X71151053Y-91718712D01*
X71251499Y-91704148D01*
X71346231Y-91690413D01*
X71346236Y-91690412D01*
X71351945Y-91689584D01*
X71357409Y-91687729D01*
X71357414Y-91687728D01*
X71538693Y-91626192D01*
X71538698Y-91626190D01*
X71544165Y-91624334D01*
X71721276Y-91525147D01*
X71725723Y-91521449D01*
X71872913Y-91399031D01*
X71877345Y-91395345D01*
X71934463Y-91326669D01*
X72003453Y-91243718D01*
X72003455Y-91243715D01*
X72007147Y-91239276D01*
X72106334Y-91062165D01*
X72108190Y-91056698D01*
X72108192Y-91056693D01*
X72169728Y-90875414D01*
X72169729Y-90875409D01*
X72171584Y-90869945D01*
X72172412Y-90864236D01*
X72172413Y-90864231D01*
X72200179Y-90672727D01*
X72200712Y-90669053D01*
X72202232Y-90611000D01*
X72199564Y-90581964D01*
X72524148Y-90581964D01*
X72537424Y-90784522D01*
X72538845Y-90790118D01*
X72538846Y-90790123D01*
X72559119Y-90869945D01*
X72587392Y-90981269D01*
X72589809Y-90986512D01*
X72627010Y-91067208D01*
X72672377Y-91165616D01*
X72789533Y-91331389D01*
X72934938Y-91473035D01*
X72939742Y-91476245D01*
X72989917Y-91509771D01*
X73103720Y-91585812D01*
X73109023Y-91588090D01*
X73109026Y-91588092D01*
X73284921Y-91663662D01*
X73290228Y-91665942D01*
X73363244Y-91682464D01*
X73482579Y-91709467D01*
X73482584Y-91709468D01*
X73488216Y-91710742D01*
X73493987Y-91710969D01*
X73493989Y-91710969D01*
X73553756Y-91713317D01*
X73691053Y-91718712D01*
X73791499Y-91704148D01*
X73886231Y-91690413D01*
X73886236Y-91690412D01*
X73891945Y-91689584D01*
X73897409Y-91687729D01*
X73897414Y-91687728D01*
X74078693Y-91626192D01*
X74078698Y-91626190D01*
X74084165Y-91624334D01*
X74261276Y-91525147D01*
X74265723Y-91521449D01*
X74412913Y-91399031D01*
X74417345Y-91395345D01*
X74474463Y-91326669D01*
X74543453Y-91243718D01*
X74543455Y-91243715D01*
X74547147Y-91239276D01*
X74646334Y-91062165D01*
X74648190Y-91056698D01*
X74648192Y-91056693D01*
X74709728Y-90875414D01*
X74709729Y-90875409D01*
X74711584Y-90869945D01*
X74712412Y-90864236D01*
X74712413Y-90864231D01*
X74740179Y-90672727D01*
X74740712Y-90669053D01*
X74742232Y-90611000D01*
X74739564Y-90581964D01*
X75064148Y-90581964D01*
X75077424Y-90784522D01*
X75078845Y-90790118D01*
X75078846Y-90790123D01*
X75099119Y-90869945D01*
X75127392Y-90981269D01*
X75129809Y-90986512D01*
X75167010Y-91067208D01*
X75212377Y-91165616D01*
X75329533Y-91331389D01*
X75474938Y-91473035D01*
X75479742Y-91476245D01*
X75529917Y-91509771D01*
X75643720Y-91585812D01*
X75649023Y-91588090D01*
X75649026Y-91588092D01*
X75824921Y-91663662D01*
X75830228Y-91665942D01*
X75903244Y-91682464D01*
X76022579Y-91709467D01*
X76022584Y-91709468D01*
X76028216Y-91710742D01*
X76033987Y-91710969D01*
X76033989Y-91710969D01*
X76093756Y-91713317D01*
X76231053Y-91718712D01*
X76331499Y-91704148D01*
X76426231Y-91690413D01*
X76426236Y-91690412D01*
X76431945Y-91689584D01*
X76437409Y-91687729D01*
X76437414Y-91687728D01*
X76618693Y-91626192D01*
X76618698Y-91626190D01*
X76624165Y-91624334D01*
X76801276Y-91525147D01*
X76805723Y-91521449D01*
X76952913Y-91399031D01*
X76957345Y-91395345D01*
X77014463Y-91326669D01*
X77083453Y-91243718D01*
X77083455Y-91243715D01*
X77087147Y-91239276D01*
X77186334Y-91062165D01*
X77188190Y-91056698D01*
X77188192Y-91056693D01*
X77249728Y-90875414D01*
X77249729Y-90875409D01*
X77251584Y-90869945D01*
X77252412Y-90864236D01*
X77252413Y-90864231D01*
X77280179Y-90672727D01*
X77280712Y-90669053D01*
X77282232Y-90611000D01*
X77263658Y-90408859D01*
X77262090Y-90403299D01*
X77210125Y-90219046D01*
X77210124Y-90219044D01*
X77208557Y-90213487D01*
X77197978Y-90192033D01*
X77121331Y-90036609D01*
X77118776Y-90031428D01*
X76997320Y-89868779D01*
X76848258Y-89730987D01*
X76843375Y-89727906D01*
X76843371Y-89727903D01*
X76681464Y-89625748D01*
X76676581Y-89622667D01*
X76488039Y-89547446D01*
X76482379Y-89546320D01*
X76482375Y-89546319D01*
X76294613Y-89508971D01*
X76294610Y-89508971D01*
X76288946Y-89507844D01*
X76283171Y-89507768D01*
X76283167Y-89507768D01*
X76181793Y-89506441D01*
X76085971Y-89505187D01*
X76080274Y-89506166D01*
X76080273Y-89506166D01*
X75943431Y-89529680D01*
X75885910Y-89539564D01*
X75695463Y-89609824D01*
X75521010Y-89713612D01*
X75516670Y-89717418D01*
X75516666Y-89717421D01*
X75468555Y-89759614D01*
X75368392Y-89847455D01*
X75242720Y-90006869D01*
X75240031Y-90011980D01*
X75240029Y-90011983D01*
X75228507Y-90033883D01*
X75148203Y-90186515D01*
X75088007Y-90380378D01*
X75064148Y-90581964D01*
X74739564Y-90581964D01*
X74723658Y-90408859D01*
X74722090Y-90403299D01*
X74670125Y-90219046D01*
X74670124Y-90219044D01*
X74668557Y-90213487D01*
X74657978Y-90192033D01*
X74581331Y-90036609D01*
X74578776Y-90031428D01*
X74457320Y-89868779D01*
X74308258Y-89730987D01*
X74303375Y-89727906D01*
X74303371Y-89727903D01*
X74141464Y-89625748D01*
X74136581Y-89622667D01*
X73948039Y-89547446D01*
X73942379Y-89546320D01*
X73942375Y-89546319D01*
X73754613Y-89508971D01*
X73754610Y-89508971D01*
X73748946Y-89507844D01*
X73743171Y-89507768D01*
X73743167Y-89507768D01*
X73641793Y-89506441D01*
X73545971Y-89505187D01*
X73540274Y-89506166D01*
X73540273Y-89506166D01*
X73403431Y-89529680D01*
X73345910Y-89539564D01*
X73155463Y-89609824D01*
X72981010Y-89713612D01*
X72976670Y-89717418D01*
X72976666Y-89717421D01*
X72928555Y-89759614D01*
X72828392Y-89847455D01*
X72702720Y-90006869D01*
X72700031Y-90011980D01*
X72700029Y-90011983D01*
X72688507Y-90033883D01*
X72608203Y-90186515D01*
X72548007Y-90380378D01*
X72524148Y-90581964D01*
X72199564Y-90581964D01*
X72183658Y-90408859D01*
X72182090Y-90403299D01*
X72130125Y-90219046D01*
X72130124Y-90219044D01*
X72128557Y-90213487D01*
X72117978Y-90192033D01*
X72041331Y-90036609D01*
X72038776Y-90031428D01*
X71917320Y-89868779D01*
X71768258Y-89730987D01*
X71763375Y-89727906D01*
X71763371Y-89727903D01*
X71601464Y-89625748D01*
X71596581Y-89622667D01*
X71408039Y-89547446D01*
X71402379Y-89546320D01*
X71402375Y-89546319D01*
X71214613Y-89508971D01*
X71214610Y-89508971D01*
X71208946Y-89507844D01*
X71203171Y-89507768D01*
X71203167Y-89507768D01*
X71101793Y-89506441D01*
X71005971Y-89505187D01*
X71000274Y-89506166D01*
X71000273Y-89506166D01*
X70863431Y-89529680D01*
X70805910Y-89539564D01*
X70615463Y-89609824D01*
X70441010Y-89713612D01*
X70436670Y-89717418D01*
X70436666Y-89717421D01*
X70388555Y-89759614D01*
X70288392Y-89847455D01*
X70162720Y-90006869D01*
X70160031Y-90011980D01*
X70160029Y-90011983D01*
X70148507Y-90033883D01*
X70068203Y-90186515D01*
X70008007Y-90380378D01*
X69984148Y-90581964D01*
X69659564Y-90581964D01*
X69643658Y-90408859D01*
X69642090Y-90403299D01*
X69590125Y-90219046D01*
X69590124Y-90219044D01*
X69588557Y-90213487D01*
X69577978Y-90192033D01*
X69501331Y-90036609D01*
X69498776Y-90031428D01*
X69377320Y-89868779D01*
X69228258Y-89730987D01*
X69223375Y-89727906D01*
X69223371Y-89727903D01*
X69061464Y-89625748D01*
X69056581Y-89622667D01*
X68868039Y-89547446D01*
X68862379Y-89546320D01*
X68862375Y-89546319D01*
X68674613Y-89508971D01*
X68674610Y-89508971D01*
X68668946Y-89507844D01*
X68663171Y-89507768D01*
X68663167Y-89507768D01*
X68636054Y-89507413D01*
X68617438Y-89507170D01*
X68549586Y-89486279D01*
X68503799Y-89432019D01*
X68494616Y-89361619D01*
X68524951Y-89297430D01*
X68574420Y-89264537D01*
X68577626Y-89264004D01*
X68586792Y-89259059D01*
X68586796Y-89259057D01*
X68622732Y-89239666D01*
X68628025Y-89236969D01*
X68667082Y-89218215D01*
X68667086Y-89218212D01*
X68674232Y-89214781D01*
X68678508Y-89211186D01*
X68680431Y-89209263D01*
X68682363Y-89207491D01*
X68682442Y-89207448D01*
X68682555Y-89207572D01*
X68683095Y-89207096D01*
X68688814Y-89204010D01*
X68725417Y-89164413D01*
X68728846Y-89160848D01*
X70053216Y-87836478D01*
X70071964Y-87821336D01*
X70073189Y-87820221D01*
X70081940Y-87814571D01*
X70088387Y-87806393D01*
X70088389Y-87806391D01*
X70102729Y-87788200D01*
X70106675Y-87783759D01*
X70106602Y-87783697D01*
X70109961Y-87779733D01*
X70113638Y-87776056D01*
X70124892Y-87760308D01*
X70128398Y-87755638D01*
X70160156Y-87715353D01*
X70163188Y-87706719D01*
X70168514Y-87699266D01*
X70183205Y-87650142D01*
X70185040Y-87644494D01*
X70199392Y-87603627D01*
X70199392Y-87603626D01*
X70202018Y-87596149D01*
X70202500Y-87590584D01*
X70202500Y-87587877D01*
X70202614Y-87585245D01*
X70202644Y-87585144D01*
X70202807Y-87585151D01*
X70202851Y-87584451D01*
X70204714Y-87578222D01*
X70202597Y-87524350D01*
X70202500Y-87519402D01*
X70202500Y-87115096D01*
X77953729Y-87115096D01*
X77962421Y-87193824D01*
X77967205Y-87237152D01*
X77971113Y-87272553D01*
X77973723Y-87279684D01*
X77973723Y-87279686D01*
X78013630Y-87388737D01*
X78025553Y-87421319D01*
X78029789Y-87427622D01*
X78029789Y-87427623D01*
X78093129Y-87521882D01*
X78113908Y-87552805D01*
X78119527Y-87557918D01*
X78119528Y-87557919D01*
X78225460Y-87654309D01*
X78231076Y-87659419D01*
X78370293Y-87735008D01*
X78523522Y-87775207D01*
X78607477Y-87776526D01*
X78674319Y-87777576D01*
X78674322Y-87777576D01*
X78681916Y-87777695D01*
X78836332Y-87742329D01*
X78923688Y-87698394D01*
X78971072Y-87674563D01*
X78971075Y-87674561D01*
X78977855Y-87671151D01*
X78983626Y-87666222D01*
X78983629Y-87666220D01*
X79092536Y-87573204D01*
X79092536Y-87573203D01*
X79098314Y-87568269D01*
X79190755Y-87439624D01*
X79249842Y-87292641D01*
X79257739Y-87237152D01*
X79271581Y-87139891D01*
X79271581Y-87139888D01*
X79272162Y-87135807D01*
X79272307Y-87122000D01*
X79253276Y-86964733D01*
X79197280Y-86816546D01*
X79120486Y-86704810D01*
X79111855Y-86692251D01*
X79111854Y-86692249D01*
X79107553Y-86685992D01*
X78989275Y-86580611D01*
X78981889Y-86576700D01*
X78891159Y-86528661D01*
X78849274Y-86506484D01*
X78695633Y-86467892D01*
X78688034Y-86467852D01*
X78688033Y-86467852D01*
X78622181Y-86467507D01*
X78537221Y-86467062D01*
X78529841Y-86468834D01*
X78529839Y-86468834D01*
X78390563Y-86502271D01*
X78390560Y-86502272D01*
X78383184Y-86504043D01*
X78274184Y-86560302D01*
X78217411Y-86571272D01*
X78190865Y-86621150D01*
X78183650Y-86627963D01*
X78128765Y-86675842D01*
X78128761Y-86675846D01*
X78123039Y-86680838D01*
X78031950Y-86810444D01*
X77974406Y-86958037D01*
X77973414Y-86965570D01*
X77973414Y-86965571D01*
X77960188Y-87066036D01*
X77953729Y-87115096D01*
X70202500Y-87115096D01*
X70202500Y-86617488D01*
X70222502Y-86549367D01*
X70274427Y-86504802D01*
X70274165Y-86504334D01*
X70276491Y-86503032D01*
X70276493Y-86503030D01*
X70451276Y-86405147D01*
X70466495Y-86392490D01*
X70602913Y-86279031D01*
X70607345Y-86275345D01*
X70737147Y-86119276D01*
X70836334Y-85942165D01*
X70838190Y-85936698D01*
X70838192Y-85936693D01*
X70899728Y-85755414D01*
X70899729Y-85755409D01*
X70901584Y-85749945D01*
X70902412Y-85744236D01*
X70902413Y-85744231D01*
X70930179Y-85552727D01*
X70930712Y-85549053D01*
X70932232Y-85491000D01*
X70929564Y-85461964D01*
X71254148Y-85461964D01*
X71267424Y-85664522D01*
X71268845Y-85670118D01*
X71268846Y-85670123D01*
X71315971Y-85855674D01*
X71317392Y-85861269D01*
X71319809Y-85866512D01*
X71355145Y-85943161D01*
X71402377Y-86045616D01*
X71519533Y-86211389D01*
X71664938Y-86353035D01*
X71669742Y-86356245D01*
X71723980Y-86392486D01*
X71833720Y-86465812D01*
X71839023Y-86468090D01*
X71839026Y-86468092D01*
X72014921Y-86543662D01*
X72020228Y-86545942D01*
X72083690Y-86560302D01*
X72212579Y-86589467D01*
X72212584Y-86589468D01*
X72218216Y-86590742D01*
X72223987Y-86590969D01*
X72223989Y-86590969D01*
X72283756Y-86593317D01*
X72421053Y-86598712D01*
X72521499Y-86584148D01*
X72616231Y-86570413D01*
X72616236Y-86570412D01*
X72621945Y-86569584D01*
X72627409Y-86567729D01*
X72627414Y-86567728D01*
X72808693Y-86506192D01*
X72808698Y-86506190D01*
X72814165Y-86504334D01*
X72991276Y-86405147D01*
X73006495Y-86392490D01*
X73142913Y-86279031D01*
X73147345Y-86275345D01*
X73277147Y-86119276D01*
X73376334Y-85942165D01*
X73378190Y-85936698D01*
X73378192Y-85936693D01*
X73439728Y-85755414D01*
X73439729Y-85755409D01*
X73441584Y-85749945D01*
X73442412Y-85744236D01*
X73442413Y-85744231D01*
X73470179Y-85552727D01*
X73470712Y-85549053D01*
X73472232Y-85491000D01*
X73469564Y-85461964D01*
X73794148Y-85461964D01*
X73807424Y-85664522D01*
X73808845Y-85670118D01*
X73808846Y-85670123D01*
X73855971Y-85855674D01*
X73857392Y-85861269D01*
X73859809Y-85866512D01*
X73895145Y-85943161D01*
X73942377Y-86045616D01*
X74059533Y-86211389D01*
X74204938Y-86353035D01*
X74209742Y-86356245D01*
X74263980Y-86392486D01*
X74373720Y-86465812D01*
X74379023Y-86468090D01*
X74379026Y-86468092D01*
X74554921Y-86543662D01*
X74560228Y-86545942D01*
X74623690Y-86560302D01*
X74752579Y-86589467D01*
X74752584Y-86589468D01*
X74758216Y-86590742D01*
X74763987Y-86590969D01*
X74763989Y-86590969D01*
X74823756Y-86593317D01*
X74961053Y-86598712D01*
X75061499Y-86584148D01*
X75156231Y-86570413D01*
X75156236Y-86570412D01*
X75161945Y-86569584D01*
X75167409Y-86567729D01*
X75167414Y-86567728D01*
X75348693Y-86506192D01*
X75348698Y-86506190D01*
X75354165Y-86504334D01*
X75531276Y-86405147D01*
X75546495Y-86392490D01*
X75682913Y-86279031D01*
X75687345Y-86275345D01*
X75817147Y-86119276D01*
X75916334Y-85942165D01*
X75918190Y-85936698D01*
X75918192Y-85936693D01*
X75979728Y-85755414D01*
X75979729Y-85755409D01*
X75981584Y-85749945D01*
X75982412Y-85744236D01*
X75982413Y-85744231D01*
X76010179Y-85552727D01*
X76010712Y-85549053D01*
X76012232Y-85491000D01*
X76009564Y-85461964D01*
X76334148Y-85461964D01*
X76347424Y-85664522D01*
X76348845Y-85670118D01*
X76348846Y-85670123D01*
X76395971Y-85855674D01*
X76397392Y-85861269D01*
X76399809Y-85866512D01*
X76435145Y-85943161D01*
X76482377Y-86045616D01*
X76599533Y-86211389D01*
X76744938Y-86353035D01*
X76749742Y-86356245D01*
X76803980Y-86392486D01*
X76913720Y-86465812D01*
X76919023Y-86468090D01*
X76919026Y-86468092D01*
X77094921Y-86543662D01*
X77100228Y-86545942D01*
X77163690Y-86560302D01*
X77292579Y-86589467D01*
X77292584Y-86589468D01*
X77298216Y-86590742D01*
X77303987Y-86590969D01*
X77303989Y-86590969D01*
X77363756Y-86593317D01*
X77501053Y-86598712D01*
X77601499Y-86584148D01*
X77696231Y-86570413D01*
X77696236Y-86570412D01*
X77701945Y-86569584D01*
X77707409Y-86567729D01*
X77707414Y-86567728D01*
X77888693Y-86506192D01*
X77888698Y-86506190D01*
X77894165Y-86504334D01*
X78039257Y-86423079D01*
X78099327Y-86409336D01*
X78129401Y-86357187D01*
X78135825Y-86351462D01*
X78222912Y-86279032D01*
X78222913Y-86279031D01*
X78227345Y-86275345D01*
X78357147Y-86119276D01*
X78456334Y-85942165D01*
X78458190Y-85936698D01*
X78458192Y-85936693D01*
X78519728Y-85755414D01*
X78519729Y-85755409D01*
X78521584Y-85749945D01*
X78522412Y-85744236D01*
X78522413Y-85744231D01*
X78550179Y-85552727D01*
X78550712Y-85549053D01*
X78552232Y-85491000D01*
X78533658Y-85288859D01*
X78532090Y-85283299D01*
X78480125Y-85099046D01*
X78480124Y-85099044D01*
X78478557Y-85093487D01*
X78467978Y-85072033D01*
X78391331Y-84916609D01*
X78388776Y-84911428D01*
X78267320Y-84748779D01*
X78118258Y-84610987D01*
X78113375Y-84607906D01*
X78113371Y-84607903D01*
X77951464Y-84505748D01*
X77946581Y-84502667D01*
X77758039Y-84427446D01*
X77752379Y-84426320D01*
X77752375Y-84426319D01*
X77564613Y-84388971D01*
X77564610Y-84388971D01*
X77558946Y-84387844D01*
X77553171Y-84387768D01*
X77553167Y-84387768D01*
X77451793Y-84386441D01*
X77355971Y-84385187D01*
X77350274Y-84386166D01*
X77350273Y-84386166D01*
X77252620Y-84402946D01*
X77155910Y-84419564D01*
X76965463Y-84489824D01*
X76791010Y-84593612D01*
X76786670Y-84597418D01*
X76786666Y-84597421D01*
X76766723Y-84614911D01*
X76638392Y-84727455D01*
X76512720Y-84886869D01*
X76510031Y-84891980D01*
X76510029Y-84891983D01*
X76482663Y-84943998D01*
X76418203Y-85066515D01*
X76358007Y-85260378D01*
X76334148Y-85461964D01*
X76009564Y-85461964D01*
X75993658Y-85288859D01*
X75992090Y-85283299D01*
X75940125Y-85099046D01*
X75940124Y-85099044D01*
X75938557Y-85093487D01*
X75927978Y-85072033D01*
X75851331Y-84916609D01*
X75848776Y-84911428D01*
X75727320Y-84748779D01*
X75578258Y-84610987D01*
X75573375Y-84607906D01*
X75573371Y-84607903D01*
X75411464Y-84505748D01*
X75406581Y-84502667D01*
X75218039Y-84427446D01*
X75212379Y-84426320D01*
X75212375Y-84426319D01*
X75024613Y-84388971D01*
X75024610Y-84388971D01*
X75018946Y-84387844D01*
X75013171Y-84387768D01*
X75013167Y-84387768D01*
X74911793Y-84386441D01*
X74815971Y-84385187D01*
X74810274Y-84386166D01*
X74810273Y-84386166D01*
X74712620Y-84402946D01*
X74615910Y-84419564D01*
X74425463Y-84489824D01*
X74251010Y-84593612D01*
X74246670Y-84597418D01*
X74246666Y-84597421D01*
X74226723Y-84614911D01*
X74098392Y-84727455D01*
X73972720Y-84886869D01*
X73970031Y-84891980D01*
X73970029Y-84891983D01*
X73942663Y-84943998D01*
X73878203Y-85066515D01*
X73818007Y-85260378D01*
X73794148Y-85461964D01*
X73469564Y-85461964D01*
X73453658Y-85288859D01*
X73452090Y-85283299D01*
X73400125Y-85099046D01*
X73400124Y-85099044D01*
X73398557Y-85093487D01*
X73387978Y-85072033D01*
X73311331Y-84916609D01*
X73308776Y-84911428D01*
X73187320Y-84748779D01*
X73038258Y-84610987D01*
X73033375Y-84607906D01*
X73033371Y-84607903D01*
X72871464Y-84505748D01*
X72866581Y-84502667D01*
X72678039Y-84427446D01*
X72672379Y-84426320D01*
X72672375Y-84426319D01*
X72484613Y-84388971D01*
X72484610Y-84388971D01*
X72478946Y-84387844D01*
X72473171Y-84387768D01*
X72473167Y-84387768D01*
X72371793Y-84386441D01*
X72275971Y-84385187D01*
X72270274Y-84386166D01*
X72270273Y-84386166D01*
X72172620Y-84402946D01*
X72075910Y-84419564D01*
X71885463Y-84489824D01*
X71711010Y-84593612D01*
X71706670Y-84597418D01*
X71706666Y-84597421D01*
X71686723Y-84614911D01*
X71558392Y-84727455D01*
X71432720Y-84886869D01*
X71430031Y-84891980D01*
X71430029Y-84891983D01*
X71402663Y-84943998D01*
X71338203Y-85066515D01*
X71278007Y-85260378D01*
X71254148Y-85461964D01*
X70929564Y-85461964D01*
X70913658Y-85288859D01*
X70912090Y-85283299D01*
X70860125Y-85099046D01*
X70860124Y-85099044D01*
X70858557Y-85093487D01*
X70847978Y-85072033D01*
X70771331Y-84916609D01*
X70768776Y-84911428D01*
X70647320Y-84748779D01*
X70498258Y-84610987D01*
X70493375Y-84607906D01*
X70493371Y-84607903D01*
X70331464Y-84505748D01*
X70326581Y-84502667D01*
X70138039Y-84427446D01*
X70132379Y-84426320D01*
X70132375Y-84426319D01*
X69944613Y-84388971D01*
X69944610Y-84388971D01*
X69938946Y-84387844D01*
X69933171Y-84387768D01*
X69933167Y-84387768D01*
X69831793Y-84386441D01*
X69735971Y-84385187D01*
X69730274Y-84386166D01*
X69730273Y-84386166D01*
X69632620Y-84402946D01*
X69535910Y-84419564D01*
X69345463Y-84489824D01*
X69171010Y-84593612D01*
X69166670Y-84597418D01*
X69166666Y-84597421D01*
X69146723Y-84614911D01*
X69018392Y-84727455D01*
X68892720Y-84886869D01*
X68890031Y-84891980D01*
X68890029Y-84891983D01*
X68862663Y-84943998D01*
X68798203Y-85066515D01*
X68738007Y-85260378D01*
X68714148Y-85461964D01*
X68727424Y-85664522D01*
X68728845Y-85670118D01*
X68728846Y-85670123D01*
X68775971Y-85855674D01*
X68777392Y-85861269D01*
X68779809Y-85866512D01*
X68815145Y-85943161D01*
X68862377Y-86045616D01*
X68979533Y-86211389D01*
X69124938Y-86353035D01*
X69129742Y-86356245D01*
X69183980Y-86392486D01*
X69293720Y-86465812D01*
X69299023Y-86468090D01*
X69299028Y-86468093D01*
X69367237Y-86497397D01*
X69421930Y-86542665D01*
X69443500Y-86613165D01*
X69443500Y-87320616D01*
X69423498Y-87388737D01*
X69406595Y-87409711D01*
X68332711Y-88483595D01*
X68270399Y-88517621D01*
X68243616Y-88520500D01*
X57749682Y-88520500D01*
X57681561Y-88500498D01*
X57655114Y-88474860D01*
X57653878Y-88475949D01*
X57648855Y-88470251D01*
X57644553Y-88463992D01*
X57526275Y-88358611D01*
X57518889Y-88354700D01*
X57392988Y-88288039D01*
X57392989Y-88288039D01*
X57386274Y-88284484D01*
X57232633Y-88245892D01*
X57225034Y-88245852D01*
X57225033Y-88245852D01*
X57159181Y-88245507D01*
X57074221Y-88245062D01*
X57066841Y-88246834D01*
X57066839Y-88246834D01*
X56927563Y-88280271D01*
X56927560Y-88280272D01*
X56920184Y-88282043D01*
X56779414Y-88354700D01*
X56660039Y-88458838D01*
X56568950Y-88588444D01*
X56511406Y-88736037D01*
X56510414Y-88743570D01*
X56510414Y-88743571D01*
X56499310Y-88827919D01*
X56490729Y-88893096D01*
X56491563Y-88900646D01*
X56503085Y-89005008D01*
X56508113Y-89050553D01*
X56520243Y-89083701D01*
X56524870Y-89154544D01*
X56490460Y-89216644D01*
X56427939Y-89250284D01*
X56401917Y-89253000D01*
X56125115Y-89253000D01*
X56109876Y-89257475D01*
X56108671Y-89258865D01*
X56107000Y-89266548D01*
X56107000Y-91950884D01*
X55599000Y-91950884D01*
X55599000Y-89271116D01*
X55594525Y-89255877D01*
X55593135Y-89254672D01*
X55585452Y-89253001D01*
X54958331Y-89253001D01*
X54951510Y-89253371D01*
X54900648Y-89258895D01*
X54885396Y-89262521D01*
X54764946Y-89307676D01*
X54749351Y-89316214D01*
X54647276Y-89392715D01*
X54634715Y-89405276D01*
X54558214Y-89507351D01*
X54549676Y-89522946D01*
X54504522Y-89643394D01*
X54500895Y-89658649D01*
X54495369Y-89709514D01*
X54495000Y-89716328D01*
X54495000Y-89971160D01*
X54474998Y-90039281D01*
X54421342Y-90085774D01*
X54351068Y-90095878D01*
X54286488Y-90066384D01*
X54261567Y-90036994D01*
X54261331Y-90036608D01*
X54258776Y-90031428D01*
X54137320Y-89868779D01*
X53988258Y-89730987D01*
X53983375Y-89727906D01*
X53983371Y-89727903D01*
X53821464Y-89625748D01*
X53816581Y-89622667D01*
X53628039Y-89547446D01*
X53622379Y-89546320D01*
X53622375Y-89546319D01*
X53434613Y-89508971D01*
X53434610Y-89508971D01*
X53428946Y-89507844D01*
X53423171Y-89507768D01*
X53423167Y-89507768D01*
X53321793Y-89506441D01*
X53225971Y-89505187D01*
X53220274Y-89506166D01*
X53220273Y-89506166D01*
X53083431Y-89529680D01*
X53025910Y-89539564D01*
X52835463Y-89609824D01*
X52661010Y-89713612D01*
X52656670Y-89717418D01*
X52656666Y-89717421D01*
X52608555Y-89759614D01*
X52508392Y-89847455D01*
X52382720Y-90006869D01*
X52380031Y-90011980D01*
X52380029Y-90011983D01*
X52368507Y-90033883D01*
X52288203Y-90186515D01*
X52228007Y-90380378D01*
X52204148Y-90581964D01*
X51879564Y-90581964D01*
X51863658Y-90408859D01*
X51862090Y-90403299D01*
X51810125Y-90219046D01*
X51810124Y-90219044D01*
X51808557Y-90213487D01*
X51797978Y-90192033D01*
X51721331Y-90036609D01*
X51718776Y-90031428D01*
X51597320Y-89868779D01*
X51448258Y-89730987D01*
X51443375Y-89727906D01*
X51443371Y-89727903D01*
X51281464Y-89625748D01*
X51276581Y-89622667D01*
X51088039Y-89547446D01*
X51082379Y-89546320D01*
X51082375Y-89546319D01*
X50894613Y-89508971D01*
X50894610Y-89508971D01*
X50888946Y-89507844D01*
X50883171Y-89507768D01*
X50883167Y-89507768D01*
X50781793Y-89506441D01*
X50685971Y-89505187D01*
X50680274Y-89506166D01*
X50680273Y-89506166D01*
X50543431Y-89529680D01*
X50485910Y-89539564D01*
X50295463Y-89609824D01*
X50121010Y-89713612D01*
X50116670Y-89717418D01*
X50116666Y-89717421D01*
X50068555Y-89759614D01*
X49968392Y-89847455D01*
X49842720Y-90006869D01*
X49840031Y-90011980D01*
X49840029Y-90011983D01*
X49828507Y-90033883D01*
X49748203Y-90186515D01*
X49688007Y-90380378D01*
X49664148Y-90581964D01*
X49339564Y-90581964D01*
X49323658Y-90408859D01*
X49322090Y-90403299D01*
X49270125Y-90219046D01*
X49270124Y-90219044D01*
X49268557Y-90213487D01*
X49257978Y-90192033D01*
X49181331Y-90036609D01*
X49178776Y-90031428D01*
X49057320Y-89868779D01*
X48908258Y-89730987D01*
X48903375Y-89727906D01*
X48903371Y-89727903D01*
X48741464Y-89625748D01*
X48736581Y-89622667D01*
X48548039Y-89547446D01*
X48542379Y-89546320D01*
X48542375Y-89546319D01*
X48354613Y-89508971D01*
X48354610Y-89508971D01*
X48348946Y-89507844D01*
X48343171Y-89507768D01*
X48343167Y-89507768D01*
X48241793Y-89506441D01*
X48145971Y-89505187D01*
X48140274Y-89506166D01*
X48140273Y-89506166D01*
X48003431Y-89529680D01*
X47945910Y-89539564D01*
X47755463Y-89609824D01*
X47581010Y-89713612D01*
X47576670Y-89717418D01*
X47576666Y-89717421D01*
X47528555Y-89759614D01*
X47428392Y-89847455D01*
X47302720Y-90006869D01*
X47300031Y-90011980D01*
X47300029Y-90011983D01*
X47288507Y-90033883D01*
X47208203Y-90186515D01*
X47148007Y-90380378D01*
X47124148Y-90581964D01*
X46799564Y-90581964D01*
X46783658Y-90408859D01*
X46782090Y-90403299D01*
X46730125Y-90219046D01*
X46730124Y-90219044D01*
X46728557Y-90213487D01*
X46717978Y-90192033D01*
X46641331Y-90036609D01*
X46638776Y-90031428D01*
X46517320Y-89868779D01*
X46368258Y-89730987D01*
X46363375Y-89727906D01*
X46363371Y-89727903D01*
X46201464Y-89625748D01*
X46196581Y-89622667D01*
X46008039Y-89547446D01*
X46002379Y-89546320D01*
X46002375Y-89546319D01*
X45814613Y-89508971D01*
X45814610Y-89508971D01*
X45808946Y-89507844D01*
X45803171Y-89507768D01*
X45803167Y-89507768D01*
X45701793Y-89506441D01*
X45605971Y-89505187D01*
X45600274Y-89506166D01*
X45600273Y-89506166D01*
X45463431Y-89529680D01*
X45405910Y-89539564D01*
X45215463Y-89609824D01*
X45041010Y-89713612D01*
X45036670Y-89717418D01*
X45036666Y-89717421D01*
X44988555Y-89759614D01*
X44888392Y-89847455D01*
X44762720Y-90006869D01*
X44760031Y-90011980D01*
X44760029Y-90011983D01*
X44748507Y-90033883D01*
X44668203Y-90186515D01*
X44608007Y-90380378D01*
X44584148Y-90581964D01*
X44259564Y-90581964D01*
X44243658Y-90408859D01*
X44242090Y-90403299D01*
X44190125Y-90219046D01*
X44190124Y-90219044D01*
X44188557Y-90213487D01*
X44177978Y-90192033D01*
X44101331Y-90036609D01*
X44098776Y-90031428D01*
X43977320Y-89868779D01*
X43828258Y-89730987D01*
X43823375Y-89727906D01*
X43823371Y-89727903D01*
X43661464Y-89625748D01*
X43656581Y-89622667D01*
X43468039Y-89547446D01*
X43462379Y-89546320D01*
X43462375Y-89546319D01*
X43274613Y-89508971D01*
X43274610Y-89508971D01*
X43268946Y-89507844D01*
X43263171Y-89507768D01*
X43263167Y-89507768D01*
X43161793Y-89506441D01*
X43065971Y-89505187D01*
X43060274Y-89506166D01*
X43060273Y-89506166D01*
X42923431Y-89529680D01*
X42865910Y-89539564D01*
X42675463Y-89609824D01*
X42501010Y-89713612D01*
X42496670Y-89717418D01*
X42496666Y-89717421D01*
X42448555Y-89759614D01*
X42348392Y-89847455D01*
X42222720Y-90006869D01*
X42220031Y-90011980D01*
X42220029Y-90011983D01*
X42208507Y-90033883D01*
X42128203Y-90186515D01*
X42068007Y-90380378D01*
X42044148Y-90581964D01*
X41719564Y-90581964D01*
X41703658Y-90408859D01*
X41702090Y-90403299D01*
X41650125Y-90219046D01*
X41650124Y-90219044D01*
X41648557Y-90213487D01*
X41637978Y-90192033D01*
X41561331Y-90036609D01*
X41558776Y-90031428D01*
X41437320Y-89868779D01*
X41288258Y-89730987D01*
X41283375Y-89727906D01*
X41283371Y-89727903D01*
X41121464Y-89625748D01*
X41116581Y-89622667D01*
X40928039Y-89547446D01*
X40922379Y-89546320D01*
X40922375Y-89546319D01*
X40734613Y-89508971D01*
X40734610Y-89508971D01*
X40728946Y-89507844D01*
X40723171Y-89507768D01*
X40723167Y-89507768D01*
X40621793Y-89506441D01*
X40525971Y-89505187D01*
X40520274Y-89506166D01*
X40520273Y-89506166D01*
X40383431Y-89529680D01*
X40325910Y-89539564D01*
X40135463Y-89609824D01*
X39961010Y-89713612D01*
X39956670Y-89717418D01*
X39956666Y-89717421D01*
X39908555Y-89759614D01*
X39808392Y-89847455D01*
X39682720Y-90006869D01*
X39680031Y-90011980D01*
X39680029Y-90011983D01*
X39668507Y-90033883D01*
X39588203Y-90186515D01*
X39528007Y-90380378D01*
X39504148Y-90581964D01*
X39179564Y-90581964D01*
X39163658Y-90408859D01*
X39162090Y-90403299D01*
X39110125Y-90219046D01*
X39110124Y-90219044D01*
X39108557Y-90213487D01*
X39097978Y-90192033D01*
X39021331Y-90036609D01*
X39018776Y-90031428D01*
X38897320Y-89868779D01*
X38748258Y-89730987D01*
X38743375Y-89727906D01*
X38743371Y-89727903D01*
X38581464Y-89625748D01*
X38576581Y-89622667D01*
X38388039Y-89547446D01*
X38382379Y-89546320D01*
X38382375Y-89546319D01*
X38194613Y-89508971D01*
X38194610Y-89508971D01*
X38188946Y-89507844D01*
X38183171Y-89507768D01*
X38183167Y-89507768D01*
X38081793Y-89506441D01*
X37985971Y-89505187D01*
X37980274Y-89506166D01*
X37980273Y-89506166D01*
X37843431Y-89529680D01*
X37785910Y-89539564D01*
X37595463Y-89609824D01*
X37421010Y-89713612D01*
X37416670Y-89717418D01*
X37416666Y-89717421D01*
X37368555Y-89759614D01*
X37268392Y-89847455D01*
X37142720Y-90006869D01*
X37140031Y-90011980D01*
X37140029Y-90011983D01*
X37128507Y-90033883D01*
X37048203Y-90186515D01*
X36988007Y-90380378D01*
X36964148Y-90581964D01*
X36639564Y-90581964D01*
X36623658Y-90408859D01*
X36622090Y-90403299D01*
X36570125Y-90219046D01*
X36570124Y-90219044D01*
X36568557Y-90213487D01*
X36557978Y-90192033D01*
X36481331Y-90036609D01*
X36478776Y-90031428D01*
X36357320Y-89868779D01*
X36208258Y-89730987D01*
X36203375Y-89727906D01*
X36203371Y-89727903D01*
X36041464Y-89625748D01*
X36036581Y-89622667D01*
X35848039Y-89547446D01*
X35842379Y-89546320D01*
X35842375Y-89546319D01*
X35654613Y-89508971D01*
X35654610Y-89508971D01*
X35648946Y-89507844D01*
X35643171Y-89507768D01*
X35643167Y-89507768D01*
X35541793Y-89506441D01*
X35445971Y-89505187D01*
X35440274Y-89506166D01*
X35440273Y-89506166D01*
X35303431Y-89529680D01*
X35245910Y-89539564D01*
X35055463Y-89609824D01*
X34881010Y-89713612D01*
X34876670Y-89717418D01*
X34876666Y-89717421D01*
X34828555Y-89759614D01*
X34728392Y-89847455D01*
X34602720Y-90006869D01*
X34600031Y-90011980D01*
X34600029Y-90011983D01*
X34588507Y-90033883D01*
X34508203Y-90186515D01*
X34448007Y-90380378D01*
X34424148Y-90581964D01*
X19939500Y-90581964D01*
X19939500Y-86229876D01*
X20824372Y-86229876D01*
X20826852Y-86293000D01*
X20835167Y-86504634D01*
X20835516Y-86513524D01*
X20886516Y-86792772D01*
X20976353Y-87062048D01*
X21015249Y-87139891D01*
X21087814Y-87285115D01*
X21103236Y-87315980D01*
X21264631Y-87549500D01*
X21352442Y-87644494D01*
X21440490Y-87739743D01*
X21457320Y-87757950D01*
X21460774Y-87760762D01*
X21674001Y-87934356D01*
X21674005Y-87934359D01*
X21677458Y-87937170D01*
X21920652Y-88083585D01*
X21924747Y-88085319D01*
X21924749Y-88085320D01*
X22107820Y-88162840D01*
X22182049Y-88194272D01*
X22186342Y-88195410D01*
X22186347Y-88195412D01*
X22319785Y-88230792D01*
X22456435Y-88267024D01*
X22738334Y-88300389D01*
X23022122Y-88293701D01*
X23026517Y-88292969D01*
X23026522Y-88292969D01*
X23297734Y-88247827D01*
X23297738Y-88247826D01*
X23302136Y-88247094D01*
X23513946Y-88180107D01*
X23568544Y-88162840D01*
X23568546Y-88162839D01*
X23572790Y-88161497D01*
X23576801Y-88159571D01*
X23576806Y-88159569D01*
X23824665Y-88040549D01*
X23824666Y-88040548D01*
X23828684Y-88038619D01*
X23984724Y-87934356D01*
X24061002Y-87883389D01*
X24061006Y-87883386D01*
X24064710Y-87880911D01*
X24068027Y-87877940D01*
X24068031Y-87877937D01*
X24272845Y-87694490D01*
X24276161Y-87691520D01*
X24458817Y-87474225D01*
X24496261Y-87414185D01*
X24606669Y-87237152D01*
X24606671Y-87237149D01*
X24609033Y-87233361D01*
X24723813Y-86973734D01*
X24800866Y-86700525D01*
X24814541Y-86598712D01*
X24838227Y-86422367D01*
X24838228Y-86422359D01*
X24838654Y-86419185D01*
X24838964Y-86409336D01*
X24842519Y-86296222D01*
X24842519Y-86296217D01*
X24842620Y-86293000D01*
X24822571Y-86009842D01*
X24806823Y-85936693D01*
X24763761Y-85736681D01*
X24763761Y-85736679D01*
X24762825Y-85732334D01*
X24664574Y-85466013D01*
X24662389Y-85461964D01*
X35694148Y-85461964D01*
X35707424Y-85664522D01*
X35708845Y-85670118D01*
X35708846Y-85670123D01*
X35755971Y-85855674D01*
X35757392Y-85861269D01*
X35759809Y-85866512D01*
X35795145Y-85943161D01*
X35842377Y-86045616D01*
X35959533Y-86211389D01*
X36104938Y-86353035D01*
X36109742Y-86356245D01*
X36163980Y-86392486D01*
X36273720Y-86465812D01*
X36279023Y-86468090D01*
X36279026Y-86468092D01*
X36454921Y-86543662D01*
X36460228Y-86545942D01*
X36523690Y-86560302D01*
X36652579Y-86589467D01*
X36652584Y-86589468D01*
X36658216Y-86590742D01*
X36663987Y-86590969D01*
X36663989Y-86590969D01*
X36723756Y-86593317D01*
X36861053Y-86598712D01*
X36961499Y-86584148D01*
X37056231Y-86570413D01*
X37056236Y-86570412D01*
X37061945Y-86569584D01*
X37067409Y-86567729D01*
X37067414Y-86567728D01*
X37248693Y-86506192D01*
X37248698Y-86506190D01*
X37254165Y-86504334D01*
X37431276Y-86405147D01*
X37446495Y-86392490D01*
X37582913Y-86279031D01*
X37587345Y-86275345D01*
X37717147Y-86119276D01*
X37816334Y-85942165D01*
X37818190Y-85936698D01*
X37818192Y-85936693D01*
X37879728Y-85755414D01*
X37879729Y-85755409D01*
X37881584Y-85749945D01*
X37882412Y-85744236D01*
X37882413Y-85744231D01*
X37910179Y-85552727D01*
X37910712Y-85549053D01*
X37912232Y-85491000D01*
X37909564Y-85461964D01*
X38234148Y-85461964D01*
X38247424Y-85664522D01*
X38248845Y-85670118D01*
X38248846Y-85670123D01*
X38295971Y-85855674D01*
X38297392Y-85861269D01*
X38299809Y-85866512D01*
X38335145Y-85943161D01*
X38382377Y-86045616D01*
X38499533Y-86211389D01*
X38644938Y-86353035D01*
X38649742Y-86356245D01*
X38703980Y-86392486D01*
X38813720Y-86465812D01*
X38819023Y-86468090D01*
X38819026Y-86468092D01*
X38994921Y-86543662D01*
X39000228Y-86545942D01*
X39063690Y-86560302D01*
X39192579Y-86589467D01*
X39192584Y-86589468D01*
X39198216Y-86590742D01*
X39203987Y-86590969D01*
X39203989Y-86590969D01*
X39263756Y-86593317D01*
X39401053Y-86598712D01*
X39501499Y-86584148D01*
X39596231Y-86570413D01*
X39596236Y-86570412D01*
X39601945Y-86569584D01*
X39607409Y-86567729D01*
X39607414Y-86567728D01*
X39788693Y-86506192D01*
X39788698Y-86506190D01*
X39794165Y-86504334D01*
X39971276Y-86405147D01*
X39986495Y-86392490D01*
X40122913Y-86279031D01*
X40127345Y-86275345D01*
X40257147Y-86119276D01*
X40356334Y-85942165D01*
X40358190Y-85936698D01*
X40358192Y-85936693D01*
X40419728Y-85755414D01*
X40419729Y-85755409D01*
X40421584Y-85749945D01*
X40422412Y-85744236D01*
X40422413Y-85744231D01*
X40450179Y-85552727D01*
X40450712Y-85549053D01*
X40452232Y-85491000D01*
X40449564Y-85461964D01*
X40774148Y-85461964D01*
X40787424Y-85664522D01*
X40788845Y-85670118D01*
X40788846Y-85670123D01*
X40835971Y-85855674D01*
X40837392Y-85861269D01*
X40839809Y-85866512D01*
X40875145Y-85943161D01*
X40922377Y-86045616D01*
X41039533Y-86211389D01*
X41184938Y-86353035D01*
X41189742Y-86356245D01*
X41243980Y-86392486D01*
X41353720Y-86465812D01*
X41359023Y-86468090D01*
X41359026Y-86468092D01*
X41534921Y-86543662D01*
X41540228Y-86545942D01*
X41603690Y-86560302D01*
X41732579Y-86589467D01*
X41732584Y-86589468D01*
X41738216Y-86590742D01*
X41743987Y-86590969D01*
X41743989Y-86590969D01*
X41803756Y-86593317D01*
X41941053Y-86598712D01*
X42041499Y-86584148D01*
X42136231Y-86570413D01*
X42136236Y-86570412D01*
X42141945Y-86569584D01*
X42147409Y-86567729D01*
X42147414Y-86567728D01*
X42328693Y-86506192D01*
X42328698Y-86506190D01*
X42334165Y-86504334D01*
X42511276Y-86405147D01*
X42526495Y-86392490D01*
X42662913Y-86279031D01*
X42667345Y-86275345D01*
X42797147Y-86119276D01*
X42896334Y-85942165D01*
X42898190Y-85936698D01*
X42898192Y-85936693D01*
X42959728Y-85755414D01*
X42959729Y-85755409D01*
X42961584Y-85749945D01*
X42962412Y-85744236D01*
X42962413Y-85744231D01*
X42990179Y-85552727D01*
X42990712Y-85549053D01*
X42992232Y-85491000D01*
X42989564Y-85461964D01*
X43314148Y-85461964D01*
X43327424Y-85664522D01*
X43328845Y-85670118D01*
X43328846Y-85670123D01*
X43375971Y-85855674D01*
X43377392Y-85861269D01*
X43379809Y-85866512D01*
X43415145Y-85943161D01*
X43462377Y-86045616D01*
X43579533Y-86211389D01*
X43724938Y-86353035D01*
X43729742Y-86356245D01*
X43783980Y-86392486D01*
X43893720Y-86465812D01*
X43899023Y-86468090D01*
X43899026Y-86468092D01*
X44074921Y-86543662D01*
X44080228Y-86545942D01*
X44143690Y-86560302D01*
X44272579Y-86589467D01*
X44272584Y-86589468D01*
X44278216Y-86590742D01*
X44283987Y-86590969D01*
X44283989Y-86590969D01*
X44343756Y-86593317D01*
X44481053Y-86598712D01*
X44581499Y-86584148D01*
X44676231Y-86570413D01*
X44676236Y-86570412D01*
X44681945Y-86569584D01*
X44687409Y-86567729D01*
X44687414Y-86567728D01*
X44868693Y-86506192D01*
X44868698Y-86506190D01*
X44874165Y-86504334D01*
X45051276Y-86405147D01*
X45066495Y-86392490D01*
X45202913Y-86279031D01*
X45207345Y-86275345D01*
X45337147Y-86119276D01*
X45436334Y-85942165D01*
X45438190Y-85936698D01*
X45438192Y-85936693D01*
X45499728Y-85755414D01*
X45499729Y-85755409D01*
X45501584Y-85749945D01*
X45502412Y-85744236D01*
X45502413Y-85744231D01*
X45530179Y-85552727D01*
X45530712Y-85549053D01*
X45532232Y-85491000D01*
X45529564Y-85461964D01*
X45854148Y-85461964D01*
X45867424Y-85664522D01*
X45868845Y-85670118D01*
X45868846Y-85670123D01*
X45915971Y-85855674D01*
X45917392Y-85861269D01*
X45919809Y-85866512D01*
X45955145Y-85943161D01*
X46002377Y-86045616D01*
X46119533Y-86211389D01*
X46264938Y-86353035D01*
X46269742Y-86356245D01*
X46323980Y-86392486D01*
X46433720Y-86465812D01*
X46439023Y-86468090D01*
X46439026Y-86468092D01*
X46614921Y-86543662D01*
X46620228Y-86545942D01*
X46683690Y-86560302D01*
X46812579Y-86589467D01*
X46812584Y-86589468D01*
X46818216Y-86590742D01*
X46823987Y-86590969D01*
X46823989Y-86590969D01*
X46883756Y-86593317D01*
X47021053Y-86598712D01*
X47121499Y-86584148D01*
X47216231Y-86570413D01*
X47216236Y-86570412D01*
X47221945Y-86569584D01*
X47227409Y-86567729D01*
X47227414Y-86567728D01*
X47408693Y-86506192D01*
X47408698Y-86506190D01*
X47414165Y-86504334D01*
X47591276Y-86405147D01*
X47606495Y-86392490D01*
X47742913Y-86279031D01*
X47747345Y-86275345D01*
X47877147Y-86119276D01*
X47976334Y-85942165D01*
X47978190Y-85936698D01*
X47978192Y-85936693D01*
X48039728Y-85755414D01*
X48039729Y-85755409D01*
X48041584Y-85749945D01*
X48042412Y-85744236D01*
X48042413Y-85744231D01*
X48070179Y-85552727D01*
X48070712Y-85549053D01*
X48072232Y-85491000D01*
X48069564Y-85461964D01*
X48394148Y-85461964D01*
X48407424Y-85664522D01*
X48408845Y-85670118D01*
X48408846Y-85670123D01*
X48455971Y-85855674D01*
X48457392Y-85861269D01*
X48459809Y-85866512D01*
X48495145Y-85943161D01*
X48542377Y-86045616D01*
X48659533Y-86211389D01*
X48804938Y-86353035D01*
X48809742Y-86356245D01*
X48863980Y-86392486D01*
X48973720Y-86465812D01*
X48979023Y-86468090D01*
X48979026Y-86468092D01*
X49154921Y-86543662D01*
X49160228Y-86545942D01*
X49223690Y-86560302D01*
X49352579Y-86589467D01*
X49352584Y-86589468D01*
X49358216Y-86590742D01*
X49363987Y-86590969D01*
X49363989Y-86590969D01*
X49423756Y-86593317D01*
X49561053Y-86598712D01*
X49661499Y-86584148D01*
X49756231Y-86570413D01*
X49756236Y-86570412D01*
X49761945Y-86569584D01*
X49767409Y-86567729D01*
X49767414Y-86567728D01*
X49948693Y-86506192D01*
X49948698Y-86506190D01*
X49954165Y-86504334D01*
X50131276Y-86405147D01*
X50146495Y-86392490D01*
X50282913Y-86279031D01*
X50287345Y-86275345D01*
X50417147Y-86119276D01*
X50516334Y-85942165D01*
X50518190Y-85936698D01*
X50518192Y-85936693D01*
X50579728Y-85755414D01*
X50579729Y-85755409D01*
X50581584Y-85749945D01*
X50582412Y-85744236D01*
X50582413Y-85744231D01*
X50610179Y-85552727D01*
X50610712Y-85549053D01*
X50612232Y-85491000D01*
X50609564Y-85461964D01*
X50934148Y-85461964D01*
X50947424Y-85664522D01*
X50948845Y-85670118D01*
X50948846Y-85670123D01*
X50995971Y-85855674D01*
X50997392Y-85861269D01*
X50999809Y-85866512D01*
X51035145Y-85943161D01*
X51082377Y-86045616D01*
X51199533Y-86211389D01*
X51344938Y-86353035D01*
X51349742Y-86356245D01*
X51403980Y-86392486D01*
X51513720Y-86465812D01*
X51519023Y-86468090D01*
X51519026Y-86468092D01*
X51694921Y-86543662D01*
X51700228Y-86545942D01*
X51763690Y-86560302D01*
X51892579Y-86589467D01*
X51892584Y-86589468D01*
X51898216Y-86590742D01*
X51903987Y-86590969D01*
X51903989Y-86590969D01*
X51963756Y-86593317D01*
X52101053Y-86598712D01*
X52201499Y-86584148D01*
X52296231Y-86570413D01*
X52296236Y-86570412D01*
X52301945Y-86569584D01*
X52307409Y-86567729D01*
X52307414Y-86567728D01*
X52488693Y-86506192D01*
X52488698Y-86506190D01*
X52494165Y-86504334D01*
X52671276Y-86405147D01*
X52686495Y-86392490D01*
X52822913Y-86279031D01*
X52827345Y-86275345D01*
X52957147Y-86119276D01*
X52959969Y-86114236D01*
X52959973Y-86114231D01*
X52989067Y-86062279D01*
X53039804Y-86012617D01*
X53109335Y-85998270D01*
X53175586Y-86023791D01*
X53217522Y-86081080D01*
X53225001Y-86123845D01*
X53225001Y-86385669D01*
X53225371Y-86392490D01*
X53230895Y-86443352D01*
X53234521Y-86458604D01*
X53279676Y-86579054D01*
X53288214Y-86594649D01*
X53364715Y-86696724D01*
X53377276Y-86709285D01*
X53479351Y-86785786D01*
X53494946Y-86794324D01*
X53615394Y-86839478D01*
X53630649Y-86843105D01*
X53681514Y-86848631D01*
X53688328Y-86849000D01*
X54310885Y-86849000D01*
X54326124Y-86844525D01*
X54327329Y-86843135D01*
X54329000Y-86835452D01*
X54329000Y-86830884D01*
X54837000Y-86830884D01*
X54841475Y-86846123D01*
X54842865Y-86847328D01*
X54850548Y-86848999D01*
X55477669Y-86848999D01*
X55484490Y-86848629D01*
X55535352Y-86843105D01*
X55550604Y-86839479D01*
X55671054Y-86794324D01*
X55686644Y-86785789D01*
X55777435Y-86717745D01*
X55843942Y-86692898D01*
X55913324Y-86707951D01*
X55928565Y-86717745D01*
X56019356Y-86785789D01*
X56034946Y-86794324D01*
X56155394Y-86839478D01*
X56170649Y-86843105D01*
X56221514Y-86848631D01*
X56228328Y-86849000D01*
X56850885Y-86849000D01*
X56866124Y-86844525D01*
X56867329Y-86843135D01*
X56869000Y-86835452D01*
X56869000Y-86830884D01*
X57377000Y-86830884D01*
X57381475Y-86846123D01*
X57382865Y-86847328D01*
X57390548Y-86848999D01*
X58017669Y-86848999D01*
X58024490Y-86848629D01*
X58075352Y-86843105D01*
X58090604Y-86839479D01*
X58211054Y-86794324D01*
X58226649Y-86785786D01*
X58328724Y-86709285D01*
X58341285Y-86696724D01*
X58417786Y-86594649D01*
X58426324Y-86579054D01*
X58471478Y-86458606D01*
X58475105Y-86443351D01*
X58480631Y-86392486D01*
X58481000Y-86385672D01*
X58481000Y-86128976D01*
X58501002Y-86060855D01*
X58554658Y-86014362D01*
X58624932Y-86004258D01*
X58689512Y-86033752D01*
X58709895Y-86056254D01*
X58819533Y-86211389D01*
X58964938Y-86353035D01*
X58969742Y-86356245D01*
X59023980Y-86392486D01*
X59133720Y-86465812D01*
X59139023Y-86468090D01*
X59139026Y-86468092D01*
X59314921Y-86543662D01*
X59320228Y-86545942D01*
X59383690Y-86560302D01*
X59512579Y-86589467D01*
X59512584Y-86589468D01*
X59518216Y-86590742D01*
X59523987Y-86590969D01*
X59523989Y-86590969D01*
X59583756Y-86593317D01*
X59721053Y-86598712D01*
X59821499Y-86584148D01*
X59916231Y-86570413D01*
X59916236Y-86570412D01*
X59921945Y-86569584D01*
X59927409Y-86567729D01*
X59927414Y-86567728D01*
X60108693Y-86506192D01*
X60108698Y-86506190D01*
X60114165Y-86504334D01*
X60291276Y-86405147D01*
X60306495Y-86392490D01*
X60442913Y-86279031D01*
X60447345Y-86275345D01*
X60577147Y-86119276D01*
X60676334Y-85942165D01*
X60678190Y-85936698D01*
X60678192Y-85936693D01*
X60739728Y-85755414D01*
X60739729Y-85755409D01*
X60741584Y-85749945D01*
X60742412Y-85744236D01*
X60742413Y-85744231D01*
X60770179Y-85552727D01*
X60770712Y-85549053D01*
X60772232Y-85491000D01*
X60769564Y-85461964D01*
X61094148Y-85461964D01*
X61107424Y-85664522D01*
X61108845Y-85670118D01*
X61108846Y-85670123D01*
X61155971Y-85855674D01*
X61157392Y-85861269D01*
X61159809Y-85866512D01*
X61195145Y-85943161D01*
X61242377Y-86045616D01*
X61359533Y-86211389D01*
X61504938Y-86353035D01*
X61509742Y-86356245D01*
X61563980Y-86392486D01*
X61673720Y-86465812D01*
X61679023Y-86468090D01*
X61679026Y-86468092D01*
X61854921Y-86543662D01*
X61860228Y-86545942D01*
X61923690Y-86560302D01*
X62052579Y-86589467D01*
X62052584Y-86589468D01*
X62058216Y-86590742D01*
X62063987Y-86590969D01*
X62063989Y-86590969D01*
X62123756Y-86593317D01*
X62261053Y-86598712D01*
X62361499Y-86584148D01*
X62456231Y-86570413D01*
X62456236Y-86570412D01*
X62461945Y-86569584D01*
X62467409Y-86567729D01*
X62467414Y-86567728D01*
X62648693Y-86506192D01*
X62648698Y-86506190D01*
X62654165Y-86504334D01*
X62831276Y-86405147D01*
X62846495Y-86392490D01*
X62982913Y-86279031D01*
X62987345Y-86275345D01*
X63117147Y-86119276D01*
X63216334Y-85942165D01*
X63218190Y-85936698D01*
X63218192Y-85936693D01*
X63279728Y-85755414D01*
X63279729Y-85755409D01*
X63281584Y-85749945D01*
X63282412Y-85744236D01*
X63282413Y-85744231D01*
X63310179Y-85552727D01*
X63310712Y-85549053D01*
X63312232Y-85491000D01*
X63309564Y-85461964D01*
X63634148Y-85461964D01*
X63647424Y-85664522D01*
X63648845Y-85670118D01*
X63648846Y-85670123D01*
X63695971Y-85855674D01*
X63697392Y-85861269D01*
X63699809Y-85866512D01*
X63735145Y-85943161D01*
X63782377Y-86045616D01*
X63899533Y-86211389D01*
X64044938Y-86353035D01*
X64049742Y-86356245D01*
X64103980Y-86392486D01*
X64213720Y-86465812D01*
X64219023Y-86468090D01*
X64219026Y-86468092D01*
X64394921Y-86543662D01*
X64400228Y-86545942D01*
X64463690Y-86560302D01*
X64592579Y-86589467D01*
X64592584Y-86589468D01*
X64598216Y-86590742D01*
X64603987Y-86590969D01*
X64603989Y-86590969D01*
X64663756Y-86593317D01*
X64801053Y-86598712D01*
X64901499Y-86584148D01*
X64996231Y-86570413D01*
X64996236Y-86570412D01*
X65001945Y-86569584D01*
X65007409Y-86567729D01*
X65007414Y-86567728D01*
X65188693Y-86506192D01*
X65188698Y-86506190D01*
X65194165Y-86504334D01*
X65371276Y-86405147D01*
X65386495Y-86392490D01*
X65522913Y-86279031D01*
X65527345Y-86275345D01*
X65657147Y-86119276D01*
X65756334Y-85942165D01*
X65758190Y-85936698D01*
X65758192Y-85936693D01*
X65819728Y-85755414D01*
X65819729Y-85755409D01*
X65821584Y-85749945D01*
X65822412Y-85744236D01*
X65822413Y-85744231D01*
X65850179Y-85552727D01*
X65850712Y-85549053D01*
X65852232Y-85491000D01*
X65849564Y-85461964D01*
X66174148Y-85461964D01*
X66187424Y-85664522D01*
X66188845Y-85670118D01*
X66188846Y-85670123D01*
X66235971Y-85855674D01*
X66237392Y-85861269D01*
X66239809Y-85866512D01*
X66275145Y-85943161D01*
X66322377Y-86045616D01*
X66439533Y-86211389D01*
X66584938Y-86353035D01*
X66589742Y-86356245D01*
X66643980Y-86392486D01*
X66753720Y-86465812D01*
X66759023Y-86468090D01*
X66759026Y-86468092D01*
X66934921Y-86543662D01*
X66940228Y-86545942D01*
X67003690Y-86560302D01*
X67132579Y-86589467D01*
X67132584Y-86589468D01*
X67138216Y-86590742D01*
X67143987Y-86590969D01*
X67143989Y-86590969D01*
X67203756Y-86593317D01*
X67341053Y-86598712D01*
X67441499Y-86584148D01*
X67536231Y-86570413D01*
X67536236Y-86570412D01*
X67541945Y-86569584D01*
X67547409Y-86567729D01*
X67547414Y-86567728D01*
X67728693Y-86506192D01*
X67728698Y-86506190D01*
X67734165Y-86504334D01*
X67911276Y-86405147D01*
X67926495Y-86392490D01*
X68062913Y-86279031D01*
X68067345Y-86275345D01*
X68197147Y-86119276D01*
X68296334Y-85942165D01*
X68298190Y-85936698D01*
X68298192Y-85936693D01*
X68359728Y-85755414D01*
X68359729Y-85755409D01*
X68361584Y-85749945D01*
X68362412Y-85744236D01*
X68362413Y-85744231D01*
X68390179Y-85552727D01*
X68390712Y-85549053D01*
X68392232Y-85491000D01*
X68373658Y-85288859D01*
X68372090Y-85283299D01*
X68320125Y-85099046D01*
X68320124Y-85099044D01*
X68318557Y-85093487D01*
X68307978Y-85072033D01*
X68231331Y-84916609D01*
X68228776Y-84911428D01*
X68107320Y-84748779D01*
X67958258Y-84610987D01*
X67953375Y-84607906D01*
X67953371Y-84607903D01*
X67791464Y-84505748D01*
X67786581Y-84502667D01*
X67598039Y-84427446D01*
X67592379Y-84426320D01*
X67592375Y-84426319D01*
X67404613Y-84388971D01*
X67404610Y-84388971D01*
X67398946Y-84387844D01*
X67393171Y-84387768D01*
X67393167Y-84387768D01*
X67291793Y-84386441D01*
X67195971Y-84385187D01*
X67190274Y-84386166D01*
X67190273Y-84386166D01*
X67092620Y-84402946D01*
X66995910Y-84419564D01*
X66805463Y-84489824D01*
X66631010Y-84593612D01*
X66626670Y-84597418D01*
X66626666Y-84597421D01*
X66606723Y-84614911D01*
X66478392Y-84727455D01*
X66352720Y-84886869D01*
X66350031Y-84891980D01*
X66350029Y-84891983D01*
X66322663Y-84943998D01*
X66258203Y-85066515D01*
X66198007Y-85260378D01*
X66174148Y-85461964D01*
X65849564Y-85461964D01*
X65833658Y-85288859D01*
X65832090Y-85283299D01*
X65780125Y-85099046D01*
X65780124Y-85099044D01*
X65778557Y-85093487D01*
X65767978Y-85072033D01*
X65691331Y-84916609D01*
X65688776Y-84911428D01*
X65567320Y-84748779D01*
X65418258Y-84610987D01*
X65413375Y-84607906D01*
X65413371Y-84607903D01*
X65251464Y-84505748D01*
X65246581Y-84502667D01*
X65058039Y-84427446D01*
X65052379Y-84426320D01*
X65052375Y-84426319D01*
X64864613Y-84388971D01*
X64864610Y-84388971D01*
X64858946Y-84387844D01*
X64853171Y-84387768D01*
X64853167Y-84387768D01*
X64751793Y-84386441D01*
X64655971Y-84385187D01*
X64650274Y-84386166D01*
X64650273Y-84386166D01*
X64552620Y-84402946D01*
X64455910Y-84419564D01*
X64265463Y-84489824D01*
X64091010Y-84593612D01*
X64086670Y-84597418D01*
X64086666Y-84597421D01*
X64066723Y-84614911D01*
X63938392Y-84727455D01*
X63812720Y-84886869D01*
X63810031Y-84891980D01*
X63810029Y-84891983D01*
X63782663Y-84943998D01*
X63718203Y-85066515D01*
X63658007Y-85260378D01*
X63634148Y-85461964D01*
X63309564Y-85461964D01*
X63293658Y-85288859D01*
X63292090Y-85283299D01*
X63240125Y-85099046D01*
X63240124Y-85099044D01*
X63238557Y-85093487D01*
X63227978Y-85072033D01*
X63151331Y-84916609D01*
X63148776Y-84911428D01*
X63027320Y-84748779D01*
X62878258Y-84610987D01*
X62873375Y-84607906D01*
X62873371Y-84607903D01*
X62711464Y-84505748D01*
X62706581Y-84502667D01*
X62518039Y-84427446D01*
X62512379Y-84426320D01*
X62512375Y-84426319D01*
X62324613Y-84388971D01*
X62324610Y-84388971D01*
X62318946Y-84387844D01*
X62313171Y-84387768D01*
X62313167Y-84387768D01*
X62211793Y-84386441D01*
X62115971Y-84385187D01*
X62110274Y-84386166D01*
X62110273Y-84386166D01*
X62012620Y-84402946D01*
X61915910Y-84419564D01*
X61725463Y-84489824D01*
X61551010Y-84593612D01*
X61546670Y-84597418D01*
X61546666Y-84597421D01*
X61526723Y-84614911D01*
X61398392Y-84727455D01*
X61272720Y-84886869D01*
X61270031Y-84891980D01*
X61270029Y-84891983D01*
X61242663Y-84943998D01*
X61178203Y-85066515D01*
X61118007Y-85260378D01*
X61094148Y-85461964D01*
X60769564Y-85461964D01*
X60753658Y-85288859D01*
X60752090Y-85283299D01*
X60700125Y-85099046D01*
X60700124Y-85099044D01*
X60698557Y-85093487D01*
X60687978Y-85072033D01*
X60611331Y-84916609D01*
X60608776Y-84911428D01*
X60487320Y-84748779D01*
X60338258Y-84610987D01*
X60333375Y-84607906D01*
X60333371Y-84607903D01*
X60171464Y-84505748D01*
X60166581Y-84502667D01*
X59978039Y-84427446D01*
X59972379Y-84426320D01*
X59972375Y-84426319D01*
X59784613Y-84388971D01*
X59784610Y-84388971D01*
X59778946Y-84387844D01*
X59773171Y-84387768D01*
X59773167Y-84387768D01*
X59671793Y-84386441D01*
X59575971Y-84385187D01*
X59570274Y-84386166D01*
X59570273Y-84386166D01*
X59472620Y-84402946D01*
X59375910Y-84419564D01*
X59185463Y-84489824D01*
X59011010Y-84593612D01*
X59006670Y-84597418D01*
X59006666Y-84597421D01*
X58986723Y-84614911D01*
X58858392Y-84727455D01*
X58732720Y-84886869D01*
X58730031Y-84891980D01*
X58730029Y-84891983D01*
X58718507Y-84913883D01*
X58669087Y-84964856D01*
X58599955Y-84981018D01*
X58533059Y-84957239D01*
X58489638Y-84901068D01*
X58480999Y-84855215D01*
X58480999Y-84596331D01*
X58480629Y-84589510D01*
X58475105Y-84538648D01*
X58471479Y-84523396D01*
X58426324Y-84402946D01*
X58417786Y-84387351D01*
X58341285Y-84285276D01*
X58328724Y-84272715D01*
X58226649Y-84196214D01*
X58211054Y-84187676D01*
X58090606Y-84142522D01*
X58075351Y-84138895D01*
X58024486Y-84133369D01*
X58017672Y-84133000D01*
X57395115Y-84133000D01*
X57379876Y-84137475D01*
X57378671Y-84138865D01*
X57377000Y-84146548D01*
X57377000Y-86830884D01*
X56869000Y-86830884D01*
X56869000Y-85763115D01*
X56864525Y-85747876D01*
X56863135Y-85746671D01*
X56855452Y-85745000D01*
X54855115Y-85745000D01*
X54839876Y-85749475D01*
X54838671Y-85750865D01*
X54837000Y-85758548D01*
X54837000Y-86830884D01*
X54329000Y-86830884D01*
X54329000Y-85218885D01*
X54837000Y-85218885D01*
X54841475Y-85234124D01*
X54842865Y-85235329D01*
X54850548Y-85237000D01*
X56850885Y-85237000D01*
X56866124Y-85232525D01*
X56867329Y-85231135D01*
X56869000Y-85223452D01*
X56869000Y-84151116D01*
X56864525Y-84135877D01*
X56863135Y-84134672D01*
X56855452Y-84133001D01*
X56228331Y-84133001D01*
X56221510Y-84133371D01*
X56170648Y-84138895D01*
X56155396Y-84142521D01*
X56034946Y-84187676D01*
X56019356Y-84196211D01*
X55928565Y-84264255D01*
X55862058Y-84289102D01*
X55792676Y-84274049D01*
X55777435Y-84264255D01*
X55686644Y-84196211D01*
X55671054Y-84187676D01*
X55550606Y-84142522D01*
X55535351Y-84138895D01*
X55484486Y-84133369D01*
X55477672Y-84133000D01*
X54855115Y-84133000D01*
X54839876Y-84137475D01*
X54838671Y-84138865D01*
X54837000Y-84146548D01*
X54837000Y-85218885D01*
X54329000Y-85218885D01*
X54329000Y-84151116D01*
X54324525Y-84135877D01*
X54323135Y-84134672D01*
X54315452Y-84133001D01*
X53688331Y-84133001D01*
X53681510Y-84133371D01*
X53630648Y-84138895D01*
X53615396Y-84142521D01*
X53494946Y-84187676D01*
X53479351Y-84196214D01*
X53377276Y-84272715D01*
X53364715Y-84285276D01*
X53288214Y-84387351D01*
X53279676Y-84402946D01*
X53234522Y-84523394D01*
X53230895Y-84538649D01*
X53225369Y-84589514D01*
X53225000Y-84596328D01*
X53225000Y-84851160D01*
X53204998Y-84919281D01*
X53151342Y-84965774D01*
X53081068Y-84975878D01*
X53016488Y-84946384D01*
X52991567Y-84916994D01*
X52991331Y-84916608D01*
X52988776Y-84911428D01*
X52867320Y-84748779D01*
X52718258Y-84610987D01*
X52713375Y-84607906D01*
X52713371Y-84607903D01*
X52551464Y-84505748D01*
X52546581Y-84502667D01*
X52358039Y-84427446D01*
X52352379Y-84426320D01*
X52352375Y-84426319D01*
X52164613Y-84388971D01*
X52164610Y-84388971D01*
X52158946Y-84387844D01*
X52153171Y-84387768D01*
X52153167Y-84387768D01*
X52051793Y-84386441D01*
X51955971Y-84385187D01*
X51950274Y-84386166D01*
X51950273Y-84386166D01*
X51852620Y-84402946D01*
X51755910Y-84419564D01*
X51565463Y-84489824D01*
X51391010Y-84593612D01*
X51386670Y-84597418D01*
X51386666Y-84597421D01*
X51366723Y-84614911D01*
X51238392Y-84727455D01*
X51112720Y-84886869D01*
X51110031Y-84891980D01*
X51110029Y-84891983D01*
X51082663Y-84943998D01*
X51018203Y-85066515D01*
X50958007Y-85260378D01*
X50934148Y-85461964D01*
X50609564Y-85461964D01*
X50593658Y-85288859D01*
X50592090Y-85283299D01*
X50540125Y-85099046D01*
X50540124Y-85099044D01*
X50538557Y-85093487D01*
X50527978Y-85072033D01*
X50451331Y-84916609D01*
X50448776Y-84911428D01*
X50327320Y-84748779D01*
X50178258Y-84610987D01*
X50173375Y-84607906D01*
X50173371Y-84607903D01*
X50011464Y-84505748D01*
X50006581Y-84502667D01*
X49818039Y-84427446D01*
X49812379Y-84426320D01*
X49812375Y-84426319D01*
X49624613Y-84388971D01*
X49624610Y-84388971D01*
X49618946Y-84387844D01*
X49613171Y-84387768D01*
X49613167Y-84387768D01*
X49511793Y-84386441D01*
X49415971Y-84385187D01*
X49410274Y-84386166D01*
X49410273Y-84386166D01*
X49312620Y-84402946D01*
X49215910Y-84419564D01*
X49025463Y-84489824D01*
X48851010Y-84593612D01*
X48846670Y-84597418D01*
X48846666Y-84597421D01*
X48826723Y-84614911D01*
X48698392Y-84727455D01*
X48572720Y-84886869D01*
X48570031Y-84891980D01*
X48570029Y-84891983D01*
X48542663Y-84943998D01*
X48478203Y-85066515D01*
X48418007Y-85260378D01*
X48394148Y-85461964D01*
X48069564Y-85461964D01*
X48053658Y-85288859D01*
X48052090Y-85283299D01*
X48000125Y-85099046D01*
X48000124Y-85099044D01*
X47998557Y-85093487D01*
X47987978Y-85072033D01*
X47911331Y-84916609D01*
X47908776Y-84911428D01*
X47787320Y-84748779D01*
X47638258Y-84610987D01*
X47633375Y-84607906D01*
X47633371Y-84607903D01*
X47471464Y-84505748D01*
X47466581Y-84502667D01*
X47278039Y-84427446D01*
X47272379Y-84426320D01*
X47272375Y-84426319D01*
X47084613Y-84388971D01*
X47084610Y-84388971D01*
X47078946Y-84387844D01*
X47073171Y-84387768D01*
X47073167Y-84387768D01*
X46971793Y-84386441D01*
X46875971Y-84385187D01*
X46870274Y-84386166D01*
X46870273Y-84386166D01*
X46772620Y-84402946D01*
X46675910Y-84419564D01*
X46485463Y-84489824D01*
X46311010Y-84593612D01*
X46306670Y-84597418D01*
X46306666Y-84597421D01*
X46286723Y-84614911D01*
X46158392Y-84727455D01*
X46032720Y-84886869D01*
X46030031Y-84891980D01*
X46030029Y-84891983D01*
X46002663Y-84943998D01*
X45938203Y-85066515D01*
X45878007Y-85260378D01*
X45854148Y-85461964D01*
X45529564Y-85461964D01*
X45513658Y-85288859D01*
X45512090Y-85283299D01*
X45460125Y-85099046D01*
X45460124Y-85099044D01*
X45458557Y-85093487D01*
X45447978Y-85072033D01*
X45371331Y-84916609D01*
X45368776Y-84911428D01*
X45247320Y-84748779D01*
X45098258Y-84610987D01*
X45093375Y-84607906D01*
X45093371Y-84607903D01*
X44931464Y-84505748D01*
X44926581Y-84502667D01*
X44738039Y-84427446D01*
X44732379Y-84426320D01*
X44732375Y-84426319D01*
X44544613Y-84388971D01*
X44544610Y-84388971D01*
X44538946Y-84387844D01*
X44533171Y-84387768D01*
X44533167Y-84387768D01*
X44431793Y-84386441D01*
X44335971Y-84385187D01*
X44330274Y-84386166D01*
X44330273Y-84386166D01*
X44232620Y-84402946D01*
X44135910Y-84419564D01*
X43945463Y-84489824D01*
X43771010Y-84593612D01*
X43766670Y-84597418D01*
X43766666Y-84597421D01*
X43746723Y-84614911D01*
X43618392Y-84727455D01*
X43492720Y-84886869D01*
X43490031Y-84891980D01*
X43490029Y-84891983D01*
X43462663Y-84943998D01*
X43398203Y-85066515D01*
X43338007Y-85260378D01*
X43314148Y-85461964D01*
X42989564Y-85461964D01*
X42973658Y-85288859D01*
X42972090Y-85283299D01*
X42920125Y-85099046D01*
X42920124Y-85099044D01*
X42918557Y-85093487D01*
X42907978Y-85072033D01*
X42831331Y-84916609D01*
X42828776Y-84911428D01*
X42707320Y-84748779D01*
X42558258Y-84610987D01*
X42553375Y-84607906D01*
X42553371Y-84607903D01*
X42391464Y-84505748D01*
X42386581Y-84502667D01*
X42198039Y-84427446D01*
X42192379Y-84426320D01*
X42192375Y-84426319D01*
X42004613Y-84388971D01*
X42004610Y-84388971D01*
X41998946Y-84387844D01*
X41993171Y-84387768D01*
X41993167Y-84387768D01*
X41891793Y-84386441D01*
X41795971Y-84385187D01*
X41790274Y-84386166D01*
X41790273Y-84386166D01*
X41692620Y-84402946D01*
X41595910Y-84419564D01*
X41405463Y-84489824D01*
X41231010Y-84593612D01*
X41226670Y-84597418D01*
X41226666Y-84597421D01*
X41206723Y-84614911D01*
X41078392Y-84727455D01*
X40952720Y-84886869D01*
X40950031Y-84891980D01*
X40950029Y-84891983D01*
X40922663Y-84943998D01*
X40858203Y-85066515D01*
X40798007Y-85260378D01*
X40774148Y-85461964D01*
X40449564Y-85461964D01*
X40433658Y-85288859D01*
X40432090Y-85283299D01*
X40380125Y-85099046D01*
X40380124Y-85099044D01*
X40378557Y-85093487D01*
X40367978Y-85072033D01*
X40291331Y-84916609D01*
X40288776Y-84911428D01*
X40167320Y-84748779D01*
X40018258Y-84610987D01*
X40013375Y-84607906D01*
X40013371Y-84607903D01*
X39851464Y-84505748D01*
X39846581Y-84502667D01*
X39658039Y-84427446D01*
X39652379Y-84426320D01*
X39652375Y-84426319D01*
X39464613Y-84388971D01*
X39464610Y-84388971D01*
X39458946Y-84387844D01*
X39453171Y-84387768D01*
X39453167Y-84387768D01*
X39351793Y-84386441D01*
X39255971Y-84385187D01*
X39250274Y-84386166D01*
X39250273Y-84386166D01*
X39152620Y-84402946D01*
X39055910Y-84419564D01*
X38865463Y-84489824D01*
X38691010Y-84593612D01*
X38686670Y-84597418D01*
X38686666Y-84597421D01*
X38666723Y-84614911D01*
X38538392Y-84727455D01*
X38412720Y-84886869D01*
X38410031Y-84891980D01*
X38410029Y-84891983D01*
X38382663Y-84943998D01*
X38318203Y-85066515D01*
X38258007Y-85260378D01*
X38234148Y-85461964D01*
X37909564Y-85461964D01*
X37893658Y-85288859D01*
X37892090Y-85283299D01*
X37840125Y-85099046D01*
X37840124Y-85099044D01*
X37838557Y-85093487D01*
X37827978Y-85072033D01*
X37751331Y-84916609D01*
X37748776Y-84911428D01*
X37627320Y-84748779D01*
X37478258Y-84610987D01*
X37473375Y-84607906D01*
X37473371Y-84607903D01*
X37311464Y-84505748D01*
X37306581Y-84502667D01*
X37118039Y-84427446D01*
X37112379Y-84426320D01*
X37112375Y-84426319D01*
X36924613Y-84388971D01*
X36924610Y-84388971D01*
X36918946Y-84387844D01*
X36913171Y-84387768D01*
X36913167Y-84387768D01*
X36811793Y-84386441D01*
X36715971Y-84385187D01*
X36710274Y-84386166D01*
X36710273Y-84386166D01*
X36612620Y-84402946D01*
X36515910Y-84419564D01*
X36325463Y-84489824D01*
X36151010Y-84593612D01*
X36146670Y-84597418D01*
X36146666Y-84597421D01*
X36126723Y-84614911D01*
X35998392Y-84727455D01*
X35872720Y-84886869D01*
X35870031Y-84891980D01*
X35870029Y-84891983D01*
X35842663Y-84943998D01*
X35778203Y-85066515D01*
X35718007Y-85260378D01*
X35694148Y-85461964D01*
X24662389Y-85461964D01*
X24529778Y-85216192D01*
X24361127Y-84987856D01*
X24339390Y-84965774D01*
X24230553Y-84855215D01*
X24161986Y-84785562D01*
X24080859Y-84723648D01*
X23939872Y-84616050D01*
X23939868Y-84616047D01*
X23936327Y-84613345D01*
X23688655Y-84474641D01*
X23684506Y-84473036D01*
X23684502Y-84473034D01*
X23459960Y-84386166D01*
X23423909Y-84372219D01*
X23419588Y-84371217D01*
X23419580Y-84371215D01*
X23237110Y-84328922D01*
X23147374Y-84308122D01*
X22864566Y-84283628D01*
X22860131Y-84283872D01*
X22860127Y-84283872D01*
X22753718Y-84289728D01*
X22581128Y-84299226D01*
X22576768Y-84300093D01*
X22576762Y-84300094D01*
X22440296Y-84327239D01*
X22302715Y-84354606D01*
X22298505Y-84356084D01*
X22298503Y-84356085D01*
X22247996Y-84373822D01*
X22034884Y-84448662D01*
X22030933Y-84450715D01*
X22030927Y-84450717D01*
X21786926Y-84577465D01*
X21782976Y-84579517D01*
X21779361Y-84582100D01*
X21779355Y-84582104D01*
X21731853Y-84616050D01*
X21552020Y-84744561D01*
X21346623Y-84940501D01*
X21343867Y-84943997D01*
X21343866Y-84943998D01*
X21309291Y-84987856D01*
X21170882Y-85163426D01*
X21128147Y-85237000D01*
X21030540Y-85405042D01*
X21030537Y-85405048D01*
X21028306Y-85408889D01*
X21026636Y-85413012D01*
X20923411Y-85667861D01*
X20923408Y-85667869D01*
X20921738Y-85671993D01*
X20853305Y-85947488D01*
X20824372Y-86229876D01*
X19939500Y-86229876D01*
X19939500Y-67055500D01*
X19959502Y-66987379D01*
X20013158Y-66940886D01*
X20065500Y-66929500D01*
X109855500Y-66929500D01*
X109923621Y-66949502D01*
G37*
%TD.AperFunction*%
%TA.AperFunction,Conductor*%
G36*
X82072150Y-91462203D02*
G01*
X82124854Y-91509771D01*
X82143500Y-91575734D01*
X82143500Y-95067615D01*
X82123498Y-95135736D01*
X82106595Y-95156710D01*
X78746711Y-98516595D01*
X78684399Y-98550621D01*
X78657616Y-98553500D01*
X63052313Y-98553500D01*
X62984192Y-98533498D01*
X62968494Y-98521577D01*
X62962902Y-98516595D01*
X62860275Y-98425158D01*
X62852889Y-98421247D01*
X62726988Y-98354586D01*
X62726989Y-98354586D01*
X62720274Y-98351031D01*
X62566633Y-98312439D01*
X62559034Y-98312399D01*
X62559033Y-98312399D01*
X62493181Y-98312054D01*
X62408221Y-98311609D01*
X62400841Y-98313381D01*
X62400839Y-98313381D01*
X62261563Y-98346818D01*
X62261560Y-98346819D01*
X62254184Y-98348590D01*
X62113414Y-98421247D01*
X62086679Y-98444570D01*
X62056330Y-98471045D01*
X61991848Y-98500753D01*
X61921540Y-98490884D01*
X61867730Y-98444570D01*
X61847500Y-98376096D01*
X61847500Y-97110384D01*
X61867502Y-97042263D01*
X61884405Y-97021289D01*
X62985289Y-95920405D01*
X63047601Y-95886379D01*
X63074384Y-95883500D01*
X80464080Y-95883500D01*
X80488028Y-95886049D01*
X80489693Y-95886128D01*
X80499876Y-95888320D01*
X80510217Y-95887096D01*
X80533223Y-95884373D01*
X80539154Y-95884023D01*
X80539146Y-95883928D01*
X80544324Y-95883500D01*
X80549524Y-95883500D01*
X80554653Y-95882646D01*
X80554656Y-95882646D01*
X80568565Y-95880331D01*
X80574443Y-95879494D01*
X80615001Y-95874694D01*
X80615002Y-95874694D01*
X80625341Y-95873470D01*
X80633593Y-95869507D01*
X80642626Y-95868004D01*
X80651795Y-95863057D01*
X80651797Y-95863056D01*
X80687732Y-95843666D01*
X80693025Y-95840969D01*
X80732082Y-95822215D01*
X80732086Y-95822212D01*
X80739232Y-95818781D01*
X80743508Y-95815186D01*
X80745431Y-95813263D01*
X80747363Y-95811491D01*
X80747442Y-95811448D01*
X80747555Y-95811572D01*
X80748095Y-95811096D01*
X80753814Y-95808010D01*
X80790417Y-95768413D01*
X80793846Y-95764848D01*
X81483216Y-95075478D01*
X81501964Y-95060336D01*
X81503189Y-95059221D01*
X81511940Y-95053571D01*
X81518387Y-95045393D01*
X81518389Y-95045391D01*
X81532729Y-95027200D01*
X81536675Y-95022759D01*
X81536602Y-95022697D01*
X81539961Y-95018733D01*
X81543638Y-95015056D01*
X81554892Y-94999308D01*
X81558398Y-94994638D01*
X81590156Y-94954353D01*
X81593188Y-94945719D01*
X81598514Y-94938266D01*
X81613203Y-94889150D01*
X81615036Y-94883508D01*
X81629390Y-94842633D01*
X81629390Y-94842632D01*
X81632018Y-94835149D01*
X81632500Y-94829584D01*
X81632500Y-94826876D01*
X81632614Y-94824242D01*
X81632643Y-94824144D01*
X81632807Y-94824151D01*
X81632851Y-94823447D01*
X81634713Y-94817222D01*
X81632597Y-94763365D01*
X81632500Y-94758418D01*
X81632500Y-91737488D01*
X81652502Y-91669367D01*
X81704427Y-91624802D01*
X81704165Y-91624334D01*
X81706491Y-91623032D01*
X81706493Y-91623030D01*
X81881276Y-91525147D01*
X81885718Y-91521453D01*
X81885724Y-91521449D01*
X81936931Y-91478860D01*
X82002095Y-91450679D01*
X82072150Y-91462203D01*
G37*
%TD.AperFunction*%
%TD*%
M02*
