M48
; DRILL file {KiCad (6.0.6)} date Wed Dec 14 21:04:34 2022
; FORMAT={-:-/ absolute / metric / decimal}
; #@! TF.CreationDate,2022-12-14T21:04:34-05:00
; #@! TF.GenerationSoftware,Kicad,Pcbnew,(6.0.6)
; #@! TF.FileFunction,MixedPlating,1,2
FMAT,2
METRIC
; #@! TA.AperFunction,Plated,PTH,ViaDrill
T1C0.400
; #@! TA.AperFunction,Plated,PTH,ViaDrill
T2C2.100
%
G90
G05
T1
X122.5Y-47.5
X122.5Y-70.6
X122.5Y-96.3
X128.1Y-51.9
X128.1Y-60.5
X128.4Y-66.6
X130.5Y-70.6
X130.5Y-84.0
X130.5Y-96.3
X131.5Y-66.5
X137.9Y-56.0
X140.7Y-79.0
X140.7Y-96.4
X143.6Y-96.4
X144.0Y-82.2
X147.6Y-60.5
X148.5Y-61.5
X148.5Y-71.2
X150.0Y-54.5
X151.5Y-61.5
X151.5Y-74.8
X152.4Y-60.5
X160.5Y-62.6
X162.2Y-56.1
X166.2Y-95.0
X166.5Y-70.5
X166.6Y-91.5
X171.6Y-66.6
X171.9Y-51.9
X171.9Y-60.5
X171.9Y-96.4
X173.0Y-92.1
X173.7Y-96.4
X177.4Y-47.5
X177.5Y-70.5
X177.5Y-96.4
T2
X123.5Y-80.0
X176.5Y-80.0
T0
M30
