%FSLAX45Y45*%
G04 Gerber Fmt 4.5, Leading zero omitted, Abs format (unit mm)*
G04 Created by KiCad (PCBNEW (6.0.6)) date 2022-12-14 21:04:38*
%MOMM*%
%LPD*%
G01*
G04 APERTURE LIST*
%TA.AperFunction,Profile*%
%ADD10C,0.100000*%
%TD*%
%TA.AperFunction,Profile*%
%ADD11C,0.200000*%
%TD*%
%ADD12C,0.200000*%
%ADD13C,0.040000*%
%ADD14C,0.210000*%
G04 APERTURE END LIST*
D10*
X17073863Y-6541328D02*
X17246137Y-6541328D01*
X17246137Y-6541328D02*
X17246137Y-6150000D01*
X17246137Y-6150000D02*
X17073863Y-6150000D01*
X17073863Y-6150000D02*
X17073863Y-6541328D01*
X12753863Y-6541328D02*
X12926137Y-6541328D01*
X12926137Y-6541328D02*
X12926137Y-6150000D01*
X12926137Y-6150000D02*
X12753863Y-6150000D01*
X12753863Y-6150000D02*
X12753863Y-6541328D01*
D11*
X15510000Y-8800000D02*
G75*
G03*
X15510000Y-8800000I-510000J0D01*
G01*
X11996000Y-10800000D02*
X18004000Y-10800000D01*
X18004000Y-10800000D02*
X18004000Y-4494000D01*
X18004000Y-4494000D02*
X11996000Y-4494000D01*
X11996000Y-4494000D02*
X11996000Y-10800000D01*
D12*
D13*
X12230000Y-4730000D02*
X12270000Y-4770000D01*
X12270000Y-4730000D02*
X12230000Y-4770000D01*
X12230000Y-7040000D02*
X12270000Y-7080000D01*
X12270000Y-7040000D02*
X12230000Y-7080000D01*
X12230000Y-9610000D02*
X12270000Y-9650000D01*
X12270000Y-9610000D02*
X12230000Y-9650000D01*
X12790000Y-5170000D02*
X12830000Y-5210000D01*
X12830000Y-5170000D02*
X12790000Y-5210000D01*
X12790000Y-6030000D02*
X12830000Y-6070000D01*
X12830000Y-6030000D02*
X12790000Y-6070000D01*
X12820000Y-6640000D02*
X12860000Y-6680000D01*
X12860000Y-6640000D02*
X12820000Y-6680000D01*
X13030000Y-7040000D02*
X13070000Y-7080000D01*
X13070000Y-7040000D02*
X13030000Y-7080000D01*
X13030000Y-8380000D02*
X13070000Y-8420000D01*
X13070000Y-8380000D02*
X13030000Y-8420000D01*
X13030000Y-9610000D02*
X13070000Y-9650000D01*
X13070000Y-9610000D02*
X13030000Y-9650000D01*
X13130000Y-6630000D02*
X13170000Y-6670000D01*
X13170000Y-6630000D02*
X13130000Y-6670000D01*
X13770000Y-5580000D02*
X13810000Y-5620000D01*
X13810000Y-5580000D02*
X13770000Y-5620000D01*
X14050000Y-7880000D02*
X14090000Y-7920000D01*
X14090000Y-7880000D02*
X14050000Y-7920000D01*
X14050000Y-9620000D02*
X14090000Y-9660000D01*
X14090000Y-9620000D02*
X14050000Y-9660000D01*
X14340000Y-9620000D02*
X14380000Y-9660000D01*
X14380000Y-9620000D02*
X14340000Y-9660000D01*
X14380000Y-8200000D02*
X14420000Y-8240000D01*
X14420000Y-8200000D02*
X14380000Y-8240000D01*
X14740000Y-6030000D02*
X14780000Y-6070000D01*
X14780000Y-6030000D02*
X14740000Y-6070000D01*
X14830000Y-6130000D02*
X14870000Y-6170000D01*
X14870000Y-6130000D02*
X14830000Y-6170000D01*
X14830000Y-7100000D02*
X14870000Y-7140000D01*
X14870000Y-7100000D02*
X14830000Y-7140000D01*
X14980000Y-5430000D02*
X15020000Y-5470000D01*
X15020000Y-5430000D02*
X14980000Y-5470000D01*
X15130000Y-6130000D02*
X15170000Y-6170000D01*
X15170000Y-6130000D02*
X15130000Y-6170000D01*
X15130000Y-7460000D02*
X15170000Y-7500000D01*
X15170000Y-7460000D02*
X15130000Y-7500000D01*
X15220000Y-6030000D02*
X15260000Y-6070000D01*
X15260000Y-6030000D02*
X15220000Y-6070000D01*
X16030000Y-6240000D02*
X16070000Y-6280000D01*
X16070000Y-6240000D02*
X16030000Y-6280000D01*
X16200000Y-5590000D02*
X16240000Y-5630000D01*
X16240000Y-5590000D02*
X16200000Y-5630000D01*
X16600000Y-9480000D02*
X16640000Y-9520000D01*
X16640000Y-9480000D02*
X16600000Y-9520000D01*
X16630000Y-7030000D02*
X16670000Y-7070000D01*
X16670000Y-7030000D02*
X16630000Y-7070000D01*
X16640000Y-9130000D02*
X16680000Y-9170000D01*
X16680000Y-9130000D02*
X16640000Y-9170000D01*
X17140000Y-6640000D02*
X17180000Y-6680000D01*
X17180000Y-6640000D02*
X17140000Y-6680000D01*
X17170000Y-5170000D02*
X17210000Y-5210000D01*
X17210000Y-5170000D02*
X17170000Y-5210000D01*
X17170000Y-6030000D02*
X17210000Y-6070000D01*
X17210000Y-6030000D02*
X17170000Y-6070000D01*
X17170000Y-9620000D02*
X17210000Y-9660000D01*
X17210000Y-9620000D02*
X17170000Y-9660000D01*
X17280000Y-9190000D02*
X17320000Y-9230000D01*
X17320000Y-9190000D02*
X17280000Y-9230000D01*
X17350000Y-9620000D02*
X17390000Y-9660000D01*
X17390000Y-9620000D02*
X17350000Y-9660000D01*
X17720000Y-4730000D02*
X17760000Y-4770000D01*
X17760000Y-4730000D02*
X17720000Y-4770000D01*
X17730000Y-7030000D02*
X17770000Y-7070000D01*
X17770000Y-7030000D02*
X17730000Y-7070000D01*
X17730000Y-9620000D02*
X17770000Y-9660000D01*
X17770000Y-9620000D02*
X17730000Y-9660000D01*
D14*
X12455000Y-8000000D02*
G75*
G03*
X12455000Y-8000000I-105000J0D01*
G01*
X17755000Y-8000000D02*
G75*
G03*
X17755000Y-8000000I-105000J0D01*
G01*
D12*
X12243619Y-11120476D02*
X12243619Y-10920476D01*
X12291238Y-10920476D01*
X12319809Y-10930000D01*
X12338857Y-10949048D01*
X12348381Y-10968095D01*
X12357905Y-11006190D01*
X12357905Y-11034762D01*
X12348381Y-11072857D01*
X12338857Y-11091905D01*
X12319809Y-11110952D01*
X12291238Y-11120476D01*
X12243619Y-11120476D01*
X12443619Y-11120476D02*
X12443619Y-10987143D01*
X12443619Y-11025238D02*
X12453143Y-11006190D01*
X12462667Y-10996667D01*
X12481714Y-10987143D01*
X12500762Y-10987143D01*
X12567428Y-11120476D02*
X12567428Y-10987143D01*
X12567428Y-10920476D02*
X12557905Y-10930000D01*
X12567428Y-10939524D01*
X12576952Y-10930000D01*
X12567428Y-10920476D01*
X12567428Y-10939524D01*
X12691238Y-11120476D02*
X12672190Y-11110952D01*
X12662667Y-11091905D01*
X12662667Y-10920476D01*
X12796000Y-11120476D02*
X12776952Y-11110952D01*
X12767428Y-11091905D01*
X12767428Y-10920476D01*
X13024571Y-11120476D02*
X13024571Y-10920476D01*
X13091238Y-11063333D01*
X13157905Y-10920476D01*
X13157905Y-11120476D01*
X13338857Y-11120476D02*
X13338857Y-11015714D01*
X13329333Y-10996667D01*
X13310286Y-10987143D01*
X13272190Y-10987143D01*
X13253143Y-10996667D01*
X13338857Y-11110952D02*
X13319809Y-11120476D01*
X13272190Y-11120476D01*
X13253143Y-11110952D01*
X13243619Y-11091905D01*
X13243619Y-11072857D01*
X13253143Y-11053810D01*
X13272190Y-11044286D01*
X13319809Y-11044286D01*
X13338857Y-11034762D01*
X13434095Y-10987143D02*
X13434095Y-11187143D01*
X13434095Y-10996667D02*
X13453143Y-10987143D01*
X13491238Y-10987143D01*
X13510286Y-10996667D01*
X13519809Y-11006190D01*
X13529333Y-11025238D01*
X13529333Y-11082381D01*
X13519809Y-11101429D01*
X13510286Y-11110952D01*
X13491238Y-11120476D01*
X13453143Y-11120476D01*
X13434095Y-11110952D01*
X13615048Y-11101429D02*
X13624571Y-11110952D01*
X13615048Y-11120476D01*
X13605524Y-11110952D01*
X13615048Y-11101429D01*
X13615048Y-11120476D01*
X13615048Y-10996667D02*
X13624571Y-11006190D01*
X13615048Y-11015714D01*
X13605524Y-11006190D01*
X13615048Y-10996667D01*
X13615048Y-11015714D01*
D13*
X11946000Y-11430000D02*
X11986000Y-11470000D01*
X11986000Y-11430000D02*
X11946000Y-11470000D01*
D12*
X12281714Y-11340476D02*
X12300762Y-11340476D01*
X12319809Y-11350000D01*
X12329333Y-11359524D01*
X12338857Y-11378571D01*
X12348381Y-11416667D01*
X12348381Y-11464286D01*
X12338857Y-11502381D01*
X12329333Y-11521428D01*
X12319809Y-11530952D01*
X12300762Y-11540476D01*
X12281714Y-11540476D01*
X12262667Y-11530952D01*
X12253143Y-11521428D01*
X12243619Y-11502381D01*
X12234095Y-11464286D01*
X12234095Y-11416667D01*
X12243619Y-11378571D01*
X12253143Y-11359524D01*
X12262667Y-11350000D01*
X12281714Y-11340476D01*
X12434095Y-11521428D02*
X12443619Y-11530952D01*
X12434095Y-11540476D01*
X12424571Y-11530952D01*
X12434095Y-11521428D01*
X12434095Y-11540476D01*
X12615048Y-11407143D02*
X12615048Y-11540476D01*
X12567428Y-11330952D02*
X12519809Y-11473809D01*
X12643619Y-11473809D01*
X12757905Y-11340476D02*
X12776952Y-11340476D01*
X12796000Y-11350000D01*
X12805524Y-11359524D01*
X12815048Y-11378571D01*
X12824571Y-11416667D01*
X12824571Y-11464286D01*
X12815048Y-11502381D01*
X12805524Y-11521428D01*
X12796000Y-11530952D01*
X12776952Y-11540476D01*
X12757905Y-11540476D01*
X12738857Y-11530952D01*
X12729333Y-11521428D01*
X12719809Y-11502381D01*
X12710286Y-11464286D01*
X12710286Y-11416667D01*
X12719809Y-11378571D01*
X12729333Y-11359524D01*
X12738857Y-11350000D01*
X12757905Y-11340476D01*
X12948381Y-11340476D02*
X12967428Y-11340476D01*
X12986476Y-11350000D01*
X12996000Y-11359524D01*
X13005524Y-11378571D01*
X13015048Y-11416667D01*
X13015048Y-11464286D01*
X13005524Y-11502381D01*
X12996000Y-11521428D01*
X12986476Y-11530952D01*
X12967428Y-11540476D01*
X12948381Y-11540476D01*
X12929333Y-11530952D01*
X12919809Y-11521428D01*
X12910286Y-11502381D01*
X12900762Y-11464286D01*
X12900762Y-11416667D01*
X12910286Y-11378571D01*
X12919809Y-11359524D01*
X12929333Y-11350000D01*
X12948381Y-11340476D01*
X13100762Y-11540476D02*
X13100762Y-11407143D01*
X13100762Y-11426190D02*
X13110286Y-11416667D01*
X13129333Y-11407143D01*
X13157905Y-11407143D01*
X13176952Y-11416667D01*
X13186476Y-11435714D01*
X13186476Y-11540476D01*
X13186476Y-11435714D02*
X13196000Y-11416667D01*
X13215048Y-11407143D01*
X13243619Y-11407143D01*
X13262667Y-11416667D01*
X13272190Y-11435714D01*
X13272190Y-11540476D01*
X13367428Y-11540476D02*
X13367428Y-11407143D01*
X13367428Y-11426190D02*
X13376952Y-11416667D01*
X13396000Y-11407143D01*
X13424571Y-11407143D01*
X13443619Y-11416667D01*
X13453143Y-11435714D01*
X13453143Y-11540476D01*
X13453143Y-11435714D02*
X13462667Y-11416667D01*
X13481714Y-11407143D01*
X13510286Y-11407143D01*
X13529333Y-11416667D01*
X13538857Y-11435714D01*
X13538857Y-11540476D01*
X13929333Y-11330952D02*
X13757905Y-11588095D01*
X14186476Y-11340476D02*
X14205524Y-11340476D01*
X14224571Y-11350000D01*
X14234095Y-11359524D01*
X14243619Y-11378571D01*
X14253143Y-11416667D01*
X14253143Y-11464286D01*
X14243619Y-11502381D01*
X14234095Y-11521428D01*
X14224571Y-11530952D01*
X14205524Y-11540476D01*
X14186476Y-11540476D01*
X14167428Y-11530952D01*
X14157905Y-11521428D01*
X14148381Y-11502381D01*
X14138857Y-11464286D01*
X14138857Y-11416667D01*
X14148381Y-11378571D01*
X14157905Y-11359524D01*
X14167428Y-11350000D01*
X14186476Y-11340476D01*
X14338857Y-11521428D02*
X14348381Y-11530952D01*
X14338857Y-11540476D01*
X14329333Y-11530952D01*
X14338857Y-11521428D01*
X14338857Y-11540476D01*
X14472190Y-11340476D02*
X14491238Y-11340476D01*
X14510286Y-11350000D01*
X14519809Y-11359524D01*
X14529333Y-11378571D01*
X14538857Y-11416667D01*
X14538857Y-11464286D01*
X14529333Y-11502381D01*
X14519809Y-11521428D01*
X14510286Y-11530952D01*
X14491238Y-11540476D01*
X14472190Y-11540476D01*
X14453143Y-11530952D01*
X14443619Y-11521428D01*
X14434095Y-11502381D01*
X14424571Y-11464286D01*
X14424571Y-11416667D01*
X14434095Y-11378571D01*
X14443619Y-11359524D01*
X14453143Y-11350000D01*
X14472190Y-11340476D01*
X14729333Y-11540476D02*
X14615048Y-11540476D01*
X14672190Y-11540476D02*
X14672190Y-11340476D01*
X14653143Y-11369048D01*
X14634095Y-11388095D01*
X14615048Y-11397619D01*
X14910286Y-11340476D02*
X14815048Y-11340476D01*
X14805524Y-11435714D01*
X14815048Y-11426190D01*
X14834095Y-11416667D01*
X14881714Y-11416667D01*
X14900762Y-11426190D01*
X14910286Y-11435714D01*
X14919809Y-11454762D01*
X14919809Y-11502381D01*
X14910286Y-11521428D01*
X14900762Y-11530952D01*
X14881714Y-11540476D01*
X14834095Y-11540476D01*
X14815048Y-11530952D01*
X14805524Y-11521428D01*
X14986476Y-11340476D02*
X15119809Y-11340476D01*
X15034095Y-11540476D01*
X15186476Y-11340476D02*
X15186476Y-11378571D01*
X15262667Y-11340476D02*
X15262667Y-11378571D01*
X15557905Y-11616667D02*
X15548381Y-11607143D01*
X15529333Y-11578571D01*
X15519809Y-11559524D01*
X15510286Y-11530952D01*
X15500762Y-11483333D01*
X15500762Y-11445238D01*
X15510286Y-11397619D01*
X15519809Y-11369048D01*
X15529333Y-11350000D01*
X15548381Y-11321428D01*
X15557905Y-11311905D01*
X15615048Y-11340476D02*
X15738857Y-11340476D01*
X15672190Y-11416667D01*
X15700762Y-11416667D01*
X15719809Y-11426190D01*
X15729333Y-11435714D01*
X15738857Y-11454762D01*
X15738857Y-11502381D01*
X15729333Y-11521428D01*
X15719809Y-11530952D01*
X15700762Y-11540476D01*
X15643619Y-11540476D01*
X15624571Y-11530952D01*
X15615048Y-11521428D01*
X15910286Y-11340476D02*
X15872190Y-11340476D01*
X15853143Y-11350000D01*
X15843619Y-11359524D01*
X15824571Y-11388095D01*
X15815048Y-11426190D01*
X15815048Y-11502381D01*
X15824571Y-11521428D01*
X15834095Y-11530952D01*
X15853143Y-11540476D01*
X15891238Y-11540476D01*
X15910286Y-11530952D01*
X15919809Y-11521428D01*
X15929333Y-11502381D01*
X15929333Y-11454762D01*
X15919809Y-11435714D01*
X15910286Y-11426190D01*
X15891238Y-11416667D01*
X15853143Y-11416667D01*
X15834095Y-11426190D01*
X15824571Y-11435714D01*
X15815048Y-11454762D01*
X16167428Y-11540476D02*
X16167428Y-11340476D01*
X16253143Y-11540476D02*
X16253143Y-11435714D01*
X16243619Y-11416667D01*
X16224571Y-11407143D01*
X16196000Y-11407143D01*
X16176952Y-11416667D01*
X16167428Y-11426190D01*
X16376952Y-11540476D02*
X16357905Y-11530952D01*
X16348381Y-11521428D01*
X16338857Y-11502381D01*
X16338857Y-11445238D01*
X16348381Y-11426190D01*
X16357905Y-11416667D01*
X16376952Y-11407143D01*
X16405524Y-11407143D01*
X16424571Y-11416667D01*
X16434095Y-11426190D01*
X16443619Y-11445238D01*
X16443619Y-11502381D01*
X16434095Y-11521428D01*
X16424571Y-11530952D01*
X16405524Y-11540476D01*
X16376952Y-11540476D01*
X16557905Y-11540476D02*
X16538857Y-11530952D01*
X16529333Y-11511905D01*
X16529333Y-11340476D01*
X16710286Y-11530952D02*
X16691238Y-11540476D01*
X16653143Y-11540476D01*
X16634095Y-11530952D01*
X16624571Y-11511905D01*
X16624571Y-11435714D01*
X16634095Y-11416667D01*
X16653143Y-11407143D01*
X16691238Y-11407143D01*
X16710286Y-11416667D01*
X16719809Y-11435714D01*
X16719809Y-11454762D01*
X16624571Y-11473809D01*
X16796000Y-11530952D02*
X16815048Y-11540476D01*
X16853143Y-11540476D01*
X16872190Y-11530952D01*
X16881714Y-11511905D01*
X16881714Y-11502381D01*
X16872190Y-11483333D01*
X16853143Y-11473809D01*
X16824571Y-11473809D01*
X16805524Y-11464286D01*
X16796000Y-11445238D01*
X16796000Y-11435714D01*
X16805524Y-11416667D01*
X16824571Y-11407143D01*
X16853143Y-11407143D01*
X16872190Y-11416667D01*
X16948381Y-11616667D02*
X16957905Y-11607143D01*
X16976952Y-11578571D01*
X16986476Y-11559524D01*
X16996000Y-11530952D01*
X17005524Y-11483333D01*
X17005524Y-11445238D01*
X16996000Y-11397619D01*
X16986476Y-11369048D01*
X16976952Y-11350000D01*
X16957905Y-11321428D01*
X16948381Y-11311905D01*
X11986000Y-11714000D02*
G75*
G03*
X11986000Y-11714000I-100000J0D01*
G01*
X12234095Y-11623524D02*
X12243619Y-11614000D01*
X12262667Y-11604476D01*
X12310286Y-11604476D01*
X12329333Y-11614000D01*
X12338857Y-11623524D01*
X12348381Y-11642571D01*
X12348381Y-11661619D01*
X12338857Y-11690190D01*
X12224571Y-11804476D01*
X12348381Y-11804476D01*
X12434095Y-11785428D02*
X12443619Y-11794952D01*
X12434095Y-11804476D01*
X12424571Y-11794952D01*
X12434095Y-11785428D01*
X12434095Y-11804476D01*
X12634095Y-11804476D02*
X12519809Y-11804476D01*
X12576952Y-11804476D02*
X12576952Y-11604476D01*
X12557905Y-11633048D01*
X12538857Y-11652095D01*
X12519809Y-11661619D01*
X12757905Y-11604476D02*
X12776952Y-11604476D01*
X12796000Y-11614000D01*
X12805524Y-11623524D01*
X12815048Y-11642571D01*
X12824571Y-11680667D01*
X12824571Y-11728286D01*
X12815048Y-11766381D01*
X12805524Y-11785428D01*
X12796000Y-11794952D01*
X12776952Y-11804476D01*
X12757905Y-11804476D01*
X12738857Y-11794952D01*
X12729333Y-11785428D01*
X12719809Y-11766381D01*
X12710286Y-11728286D01*
X12710286Y-11680667D01*
X12719809Y-11642571D01*
X12729333Y-11623524D01*
X12738857Y-11614000D01*
X12757905Y-11604476D01*
X12948381Y-11604476D02*
X12967428Y-11604476D01*
X12986476Y-11614000D01*
X12996000Y-11623524D01*
X13005524Y-11642571D01*
X13015048Y-11680667D01*
X13015048Y-11728286D01*
X13005524Y-11766381D01*
X12996000Y-11785428D01*
X12986476Y-11794952D01*
X12967428Y-11804476D01*
X12948381Y-11804476D01*
X12929333Y-11794952D01*
X12919809Y-11785428D01*
X12910286Y-11766381D01*
X12900762Y-11728286D01*
X12900762Y-11680667D01*
X12910286Y-11642571D01*
X12919809Y-11623524D01*
X12929333Y-11614000D01*
X12948381Y-11604476D01*
X13100762Y-11804476D02*
X13100762Y-11671143D01*
X13100762Y-11690190D02*
X13110286Y-11680667D01*
X13129333Y-11671143D01*
X13157905Y-11671143D01*
X13176952Y-11680667D01*
X13186476Y-11699714D01*
X13186476Y-11804476D01*
X13186476Y-11699714D02*
X13196000Y-11680667D01*
X13215048Y-11671143D01*
X13243619Y-11671143D01*
X13262667Y-11680667D01*
X13272190Y-11699714D01*
X13272190Y-11804476D01*
X13367428Y-11804476D02*
X13367428Y-11671143D01*
X13367428Y-11690190D02*
X13376952Y-11680667D01*
X13396000Y-11671143D01*
X13424571Y-11671143D01*
X13443619Y-11680667D01*
X13453143Y-11699714D01*
X13453143Y-11804476D01*
X13453143Y-11699714D02*
X13462667Y-11680667D01*
X13481714Y-11671143D01*
X13510286Y-11671143D01*
X13529333Y-11680667D01*
X13538857Y-11699714D01*
X13538857Y-11804476D01*
X13929333Y-11594952D02*
X13757905Y-11852095D01*
X14186476Y-11604476D02*
X14205524Y-11604476D01*
X14224571Y-11614000D01*
X14234095Y-11623524D01*
X14243619Y-11642571D01*
X14253143Y-11680667D01*
X14253143Y-11728286D01*
X14243619Y-11766381D01*
X14234095Y-11785428D01*
X14224571Y-11794952D01*
X14205524Y-11804476D01*
X14186476Y-11804476D01*
X14167428Y-11794952D01*
X14157905Y-11785428D01*
X14148381Y-11766381D01*
X14138857Y-11728286D01*
X14138857Y-11680667D01*
X14148381Y-11642571D01*
X14157905Y-11623524D01*
X14167428Y-11614000D01*
X14186476Y-11604476D01*
X14338857Y-11785428D02*
X14348381Y-11794952D01*
X14338857Y-11804476D01*
X14329333Y-11794952D01*
X14338857Y-11785428D01*
X14338857Y-11804476D01*
X14472190Y-11604476D02*
X14491238Y-11604476D01*
X14510286Y-11614000D01*
X14519809Y-11623524D01*
X14529333Y-11642571D01*
X14538857Y-11680667D01*
X14538857Y-11728286D01*
X14529333Y-11766381D01*
X14519809Y-11785428D01*
X14510286Y-11794952D01*
X14491238Y-11804476D01*
X14472190Y-11804476D01*
X14453143Y-11794952D01*
X14443619Y-11785428D01*
X14434095Y-11766381D01*
X14424571Y-11728286D01*
X14424571Y-11680667D01*
X14434095Y-11642571D01*
X14443619Y-11623524D01*
X14453143Y-11614000D01*
X14472190Y-11604476D01*
X14653143Y-11690190D02*
X14634095Y-11680667D01*
X14624571Y-11671143D01*
X14615048Y-11652095D01*
X14615048Y-11642571D01*
X14624571Y-11623524D01*
X14634095Y-11614000D01*
X14653143Y-11604476D01*
X14691238Y-11604476D01*
X14710286Y-11614000D01*
X14719809Y-11623524D01*
X14729333Y-11642571D01*
X14729333Y-11652095D01*
X14719809Y-11671143D01*
X14710286Y-11680667D01*
X14691238Y-11690190D01*
X14653143Y-11690190D01*
X14634095Y-11699714D01*
X14624571Y-11709238D01*
X14615048Y-11728286D01*
X14615048Y-11766381D01*
X14624571Y-11785428D01*
X14634095Y-11794952D01*
X14653143Y-11804476D01*
X14691238Y-11804476D01*
X14710286Y-11794952D01*
X14719809Y-11785428D01*
X14729333Y-11766381D01*
X14729333Y-11728286D01*
X14719809Y-11709238D01*
X14710286Y-11699714D01*
X14691238Y-11690190D01*
X14805524Y-11623524D02*
X14815048Y-11614000D01*
X14834095Y-11604476D01*
X14881714Y-11604476D01*
X14900762Y-11614000D01*
X14910286Y-11623524D01*
X14919809Y-11642571D01*
X14919809Y-11661619D01*
X14910286Y-11690190D01*
X14796000Y-11804476D01*
X14919809Y-11804476D01*
X14986476Y-11604476D02*
X15119809Y-11604476D01*
X15034095Y-11804476D01*
X15186476Y-11604476D02*
X15186476Y-11642571D01*
X15262667Y-11604476D02*
X15262667Y-11642571D01*
X15557905Y-11880667D02*
X15548381Y-11871143D01*
X15529333Y-11842571D01*
X15519809Y-11823524D01*
X15510286Y-11794952D01*
X15500762Y-11747333D01*
X15500762Y-11709238D01*
X15510286Y-11661619D01*
X15519809Y-11633048D01*
X15529333Y-11614000D01*
X15548381Y-11585428D01*
X15557905Y-11575905D01*
X15624571Y-11623524D02*
X15634095Y-11614000D01*
X15653143Y-11604476D01*
X15700762Y-11604476D01*
X15719809Y-11614000D01*
X15729333Y-11623524D01*
X15738857Y-11642571D01*
X15738857Y-11661619D01*
X15729333Y-11690190D01*
X15615048Y-11804476D01*
X15738857Y-11804476D01*
X15976952Y-11804476D02*
X15976952Y-11604476D01*
X16062667Y-11804476D02*
X16062667Y-11699714D01*
X16053143Y-11680667D01*
X16034095Y-11671143D01*
X16005524Y-11671143D01*
X15986476Y-11680667D01*
X15976952Y-11690190D01*
X16186476Y-11804476D02*
X16167428Y-11794952D01*
X16157905Y-11785428D01*
X16148381Y-11766381D01*
X16148381Y-11709238D01*
X16157905Y-11690190D01*
X16167428Y-11680667D01*
X16186476Y-11671143D01*
X16215048Y-11671143D01*
X16234095Y-11680667D01*
X16243619Y-11690190D01*
X16253143Y-11709238D01*
X16253143Y-11766381D01*
X16243619Y-11785428D01*
X16234095Y-11794952D01*
X16215048Y-11804476D01*
X16186476Y-11804476D01*
X16367428Y-11804476D02*
X16348381Y-11794952D01*
X16338857Y-11775905D01*
X16338857Y-11604476D01*
X16519809Y-11794952D02*
X16500762Y-11804476D01*
X16462667Y-11804476D01*
X16443619Y-11794952D01*
X16434095Y-11775905D01*
X16434095Y-11699714D01*
X16443619Y-11680667D01*
X16462667Y-11671143D01*
X16500762Y-11671143D01*
X16519809Y-11680667D01*
X16529333Y-11699714D01*
X16529333Y-11718762D01*
X16434095Y-11737809D01*
X16605524Y-11794952D02*
X16624571Y-11804476D01*
X16662667Y-11804476D01*
X16681714Y-11794952D01*
X16691238Y-11775905D01*
X16691238Y-11766381D01*
X16681714Y-11747333D01*
X16662667Y-11737809D01*
X16634095Y-11737809D01*
X16615048Y-11728286D01*
X16605524Y-11709238D01*
X16605524Y-11699714D01*
X16615048Y-11680667D01*
X16634095Y-11671143D01*
X16662667Y-11671143D01*
X16681714Y-11680667D01*
X16757905Y-11880667D02*
X16767428Y-11871143D01*
X16786476Y-11842571D01*
X16796000Y-11823524D01*
X16805524Y-11794952D01*
X16815048Y-11747333D01*
X16815048Y-11709238D01*
X16805524Y-11661619D01*
X16796000Y-11633048D01*
X16786476Y-11614000D01*
X16767428Y-11585428D01*
X16757905Y-11575905D01*
M02*
