%TF.GenerationSoftware,KiCad,Pcbnew,(6.0.6)*%
%TF.CreationDate,2022-12-14T21:04:27-05:00*%
%TF.ProjectId,Cartridge,43617274-7269-4646-9765-2e6b69636164,rev?*%
%TF.SameCoordinates,Original*%
%TF.FileFunction,Soldermask,Top*%
%TF.FilePolarity,Negative*%
%FSLAX46Y46*%
G04 Gerber Fmt 4.6, Leading zero omitted, Abs format (unit mm)*
G04 Created by KiCad (PCBNEW (6.0.6)) date 2022-12-14 21:04:27*
%MOMM*%
%LPD*%
G01*
G04 APERTURE LIST*
G04 Aperture macros list*
%AMFreePoly0*
4,1,17,-0.910000,1.545000,-0.901941,1.630258,-0.857113,1.757908,-0.776734,1.866734,-0.667908,1.947113,-0.540258,1.991941,-0.455000,2.000000,0.455000,2.000000,0.540258,1.991941,0.667908,1.947113,0.776734,1.866734,0.857113,1.757908,0.901941,1.630258,0.910000,1.545000,0.910000,-2.000000,-0.910000,-2.000000,-0.910000,1.545000,-0.910000,1.545000,$1*%
%AMFreePoly1*
4,1,17,-0.910000,1.610000,-0.901941,1.695258,-0.857113,1.822908,-0.776734,1.931734,-0.667908,2.012113,-0.540258,2.056941,-0.455000,2.065000,0.455000,2.065000,0.540258,2.056941,0.667908,2.012113,0.776734,1.931734,0.857113,1.822908,0.901941,1.695258,0.910000,1.610000,0.910000,-2.065000,-0.910000,-2.065000,-0.910000,1.610000,-0.910000,1.610000,$1*%
G04 Aperture macros list end*
%ADD10FreePoly0,0.000000*%
%ADD11FreePoly1,0.000000*%
G04 APERTURE END LIST*
D10*
%TO.C,J1*%
X122030000Y-105820000D03*
X123300000Y-100820000D03*
X124570000Y-105820000D03*
X125840000Y-100820000D03*
X127110000Y-105820000D03*
X128380000Y-100820000D03*
X129650000Y-105820000D03*
X130920000Y-100820000D03*
X132150400Y-105787201D03*
X133420400Y-100787201D03*
X134699200Y-105787201D03*
X135969200Y-100787201D03*
X137270000Y-105820000D03*
X138540000Y-100820000D03*
X139810000Y-105820000D03*
X141080000Y-100820000D03*
D11*
X142370000Y-105885000D03*
D10*
X143620000Y-100820000D03*
X144890000Y-105820000D03*
X146160000Y-100820000D03*
X147430000Y-105820000D03*
X148700000Y-100820000D03*
X149970000Y-105820000D03*
X151240000Y-100820000D03*
X152510000Y-105820000D03*
X153780000Y-100820000D03*
X155050000Y-105820000D03*
X156320000Y-100820000D03*
X157590000Y-105820000D03*
X158860000Y-100820000D03*
X160130000Y-105820000D03*
X161400000Y-100820000D03*
X162630400Y-105787201D03*
X163900400Y-100787201D03*
X165179200Y-105787201D03*
X166449200Y-100787201D03*
X167750000Y-105820000D03*
X169020000Y-100820000D03*
X170290000Y-105820000D03*
X171560000Y-100820000D03*
D11*
X172850000Y-105885000D03*
D10*
X174100000Y-100820000D03*
X175370000Y-105820000D03*
X176640000Y-100820000D03*
X177910000Y-105820000D03*
%TD*%
M02*
