%TF.GenerationSoftware,KiCad,Pcbnew,(6.0.6)*%
%TF.CreationDate,2022-12-14T21:04:27-05:00*%
%TF.ProjectId,Cartridge,43617274-7269-4646-9765-2e6b69636164,rev?*%
%TF.SameCoordinates,Original*%
%TF.FileFunction,Copper,L1,Top*%
%TF.FilePolarity,Positive*%
%FSLAX46Y46*%
G04 Gerber Fmt 4.6, Leading zero omitted, Abs format (unit mm)*
G04 Created by KiCad (PCBNEW (6.0.6)) date 2022-12-14 21:04:27*
%MOMM*%
%LPD*%
G01*
G04 APERTURE LIST*
G04 Aperture macros list*
%AMFreePoly0*
4,1,17,-0.910000,1.545000,-0.901941,1.630258,-0.857113,1.757908,-0.776734,1.866734,-0.667908,1.947113,-0.540258,1.991941,-0.455000,2.000000,0.455000,2.000000,0.540258,1.991941,0.667908,1.947113,0.776734,1.866734,0.857113,1.757908,0.901941,1.630258,0.910000,1.545000,0.910000,-2.000000,-0.910000,-2.000000,-0.910000,1.545000,-0.910000,1.545000,$1*%
%AMFreePoly1*
4,1,17,-0.910000,1.610000,-0.901941,1.695258,-0.857113,1.822908,-0.776734,1.931734,-0.667908,2.012113,-0.540258,2.056941,-0.455000,2.065000,0.455000,2.065000,0.540258,2.056941,0.667908,2.012113,0.776734,1.931734,0.857113,1.822908,0.901941,1.695258,0.910000,1.610000,0.910000,-2.065000,-0.910000,-2.065000,-0.910000,1.610000,-0.910000,1.610000,$1*%
G04 Aperture macros list end*
%TA.AperFunction,ConnectorPad*%
%ADD10FreePoly0,0.000000*%
%TD*%
%TA.AperFunction,ConnectorPad*%
%ADD11FreePoly1,0.000000*%
%TD*%
%TA.AperFunction,ViaPad*%
%ADD12C,0.800000*%
%TD*%
%TA.AperFunction,ViaPad*%
%ADD13C,2.300000*%
%TD*%
%TA.AperFunction,Conductor*%
%ADD14C,0.250000*%
%TD*%
%TA.AperFunction,Conductor*%
%ADD15C,1.300000*%
%TD*%
%TA.AperFunction,Conductor*%
%ADD16C,1.800000*%
%TD*%
%TA.AperFunction,Conductor*%
%ADD17C,1.000000*%
%TD*%
%TA.AperFunction,Conductor*%
%ADD18C,1.650000*%
%TD*%
G04 APERTURE END LIST*
D10*
%TO.P,J1,1,+34V*%
%TO.N,unconnected-(J1-Pad1)*%
X122030000Y-105820000D03*
%TO.P,J1,2,+5V*%
%TO.N,+5V*%
X123300000Y-100820000D03*
%TO.P,J1,3,Write*%
%TO.N,unconnected-(J1-Pad3)*%
X124570000Y-105820000D03*
%TO.P,J1,4,A12*%
%TO.N,unconnected-(J1-Pad4)*%
X125840000Y-100820000D03*
%TO.P,J1,5,A7*%
%TO.N,unconnected-(J1-Pad5)*%
X127110000Y-105820000D03*
%TO.P,J1,6,A6*%
%TO.N,unconnected-(J1-Pad6)*%
X128380000Y-100820000D03*
%TO.P,J1,7,A5*%
%TO.N,unconnected-(J1-Pad7)*%
X129650000Y-105820000D03*
%TO.P,J1,8,A4*%
%TO.N,unconnected-(J1-Pad8)*%
X130920000Y-100820000D03*
%TO.P,J1,9,A3*%
%TO.N,unconnected-(J1-Pad9)*%
X132150400Y-105787201D03*
%TO.P,J1,10,A2*%
%TO.N,unconnected-(J1-Pad10)*%
X133420400Y-100787201D03*
%TO.P,J1,11,A1*%
%TO.N,unconnected-(J1-Pad11)*%
X134699200Y-105787201D03*
%TO.P,J1,12,A0*%
%TO.N,unconnected-(J1-Pad12)*%
X135969200Y-100787201D03*
%TO.P,J1,13,D0*%
%TO.N,unconnected-(J1-Pad13)*%
X137270000Y-105820000D03*
%TO.P,J1,14,D1*%
%TO.N,unconnected-(J1-Pad14)*%
X138540000Y-100820000D03*
%TO.P,J1,15,D2*%
%TO.N,unconnected-(J1-Pad15)*%
X139810000Y-105820000D03*
%TO.P,J1,16,GND*%
%TO.N,GND*%
X141080000Y-100820000D03*
D11*
%TO.P,J1,17,GND*%
X142370000Y-105885000D03*
D10*
%TO.P,J1,18,GND*%
X143620000Y-100820000D03*
%TO.P,J1,19,D3*%
%TO.N,unconnected-(J1-Pad19)*%
X144890000Y-105820000D03*
%TO.P,J1,20,D4*%
%TO.N,unconnected-(J1-Pad20)*%
X146160000Y-100820000D03*
%TO.P,J1,21,D5*%
%TO.N,unconnected-(J1-Pad21)*%
X147430000Y-105820000D03*
%TO.P,J1,22,D6*%
%TO.N,unconnected-(J1-Pad22)*%
X148700000Y-100820000D03*
%TO.P,J1,23,D7*%
%TO.N,unconnected-(J1-Pad23)*%
X149970000Y-105820000D03*
%TO.P,J1,24,Enable*%
%TO.N,unconnected-(J1-Pad24)*%
X151240000Y-100820000D03*
%TO.P,J1,25,A10*%
%TO.N,unconnected-(J1-Pad25)*%
X152510000Y-105820000D03*
%TO.P,J1,26,Read*%
%TO.N,unconnected-(J1-Pad26)*%
X153780000Y-100820000D03*
%TO.P,J1,27,M0-7*%
%TO.N,unconnected-(J1-Pad27)*%
X155050000Y-105820000D03*
%TO.P,J1,28,A15*%
%TO.N,unconnected-(J1-Pad28)*%
X156320000Y-100820000D03*
%TO.P,J1,29,A11*%
%TO.N,unconnected-(J1-Pad29)*%
X157590000Y-105820000D03*
%TO.P,J1,30,A9*%
%TO.N,unconnected-(J1-Pad30)*%
X158860000Y-100820000D03*
%TO.P,J1,31,A8*%
%TO.N,unconnected-(J1-Pad31)*%
X160130000Y-105820000D03*
%TO.P,J1,32,A13*%
%TO.N,unconnected-(J1-Pad32)*%
X161400000Y-100820000D03*
%TO.P,J1,33,A14*%
%TO.N,unconnected-(J1-Pad33)*%
X162630400Y-105787201D03*
%TO.P,J1,34,M8-B*%
%TO.N,unconnected-(J1-Pad34)*%
X163900400Y-100787201D03*
%TO.P,J1,35,+5V*%
%TO.N,+5V*%
X165179200Y-105787201D03*
%TO.P,J1,36,M1*%
%TO.N,unconnected-(J1-Pad36)*%
X166449200Y-100787201D03*
%TO.P,J1,37,IO_Request*%
%TO.N,unconnected-(J1-Pad37)*%
X167750000Y-105820000D03*
%TO.P,J1,38,Refresh*%
%TO.N,unconnected-(J1-Pad38)*%
X169020000Y-100820000D03*
%TO.P,J1,39,Reset*%
%TO.N,unconnected-(J1-Pad39)*%
X170290000Y-105820000D03*
%TO.P,J1,40,Clock*%
%TO.N,unconnected-(J1-Pad40)*%
X171560000Y-100820000D03*
D11*
%TO.P,J1,41,GND*%
%TO.N,GND*%
X172850000Y-105885000D03*
D10*
%TO.P,J1,42,GG*%
X174100000Y-100820000D03*
%TO.P,J1,43,TV_Enable*%
%TO.N,+5V*%
X175370000Y-105820000D03*
%TO.P,J1,44,TV_Audio_R*%
%TO.N,unconnected-(J1-Pad44)*%
X176640000Y-100820000D03*
%TO.P,J1,45,TV_Audio_L*%
%TO.N,unconnected-(J1-Pad45)*%
X177910000Y-105820000D03*
%TD*%
D12*
%TO.N,GND*%
X162200000Y-56100000D03*
X137900000Y-56000000D03*
%TO.N,+5V*%
X177500000Y-70500000D03*
X122500000Y-70600000D03*
%TO.N,GND*%
X152400000Y-60500000D03*
X147600000Y-60500000D03*
X148500000Y-61500000D03*
X151500000Y-61500000D03*
X144000000Y-82200000D03*
X148500000Y-71200000D03*
X151500000Y-74800000D03*
X140700000Y-79000000D03*
%TO.N,+5V*%
X130500000Y-84000000D03*
X166600000Y-91500000D03*
X173000000Y-92100000D03*
X130500000Y-70600000D03*
X166500000Y-70500000D03*
X160500000Y-62600000D03*
X171600000Y-66600000D03*
X128400000Y-66600000D03*
X131500000Y-66500000D03*
X130500000Y-96300000D03*
X122500000Y-96300000D03*
X166200000Y-95000000D03*
X173700000Y-96400000D03*
X177500000Y-96400000D03*
X122500000Y-47500000D03*
X177400000Y-47500000D03*
%TO.N,GND*%
X171900000Y-60500000D03*
X171900000Y-51900000D03*
X128100000Y-60500000D03*
X128100000Y-51900000D03*
X140700000Y-96400000D03*
X143600000Y-96400000D03*
X171900000Y-96400000D03*
X150000000Y-54500000D03*
D13*
%TO.N,+5V*%
X176500000Y-80000000D03*
X123500000Y-80000000D03*
%TD*%
D14*
%TO.N,GND*%
X171900000Y-96400000D02*
X174100000Y-98600000D01*
X172850000Y-103650000D02*
X172850000Y-105885000D01*
X174100000Y-102400000D02*
X172850000Y-103650000D01*
X174100000Y-98600000D02*
X174100000Y-102400000D01*
X174100000Y-98600000D02*
X174100000Y-100820000D01*
%TO.N,+5V*%
X175370000Y-83630000D02*
X176500000Y-82500000D01*
X175370000Y-105820000D02*
X175370000Y-83630000D01*
D15*
%TO.N,GND*%
X143620000Y-78220000D02*
X143600000Y-78200000D01*
D16*
X143620000Y-100820000D02*
X143620000Y-78220000D01*
X141080000Y-80720000D02*
X143600000Y-78200000D01*
X143600000Y-78200000D02*
X150000000Y-71800000D01*
D15*
%TO.N,+5V*%
X176500000Y-82500000D02*
X176500000Y-80000000D01*
X165700000Y-93300000D02*
X176500000Y-82500000D01*
D14*
X165135400Y-93864600D02*
X165700000Y-93300000D01*
X165135400Y-105743401D02*
X165135400Y-93864600D01*
X165179200Y-105787201D02*
X165135400Y-105743401D01*
D16*
%TO.N,GND*%
X150000000Y-71800000D02*
X150000000Y-54500000D01*
X141080000Y-100820000D02*
X141080000Y-80720000D01*
D15*
%TO.N,+5V*%
X123300000Y-80200000D02*
X123500000Y-80000000D01*
X123300000Y-100820000D02*
X123300000Y-80200000D01*
%TO.N,GND*%
X143620000Y-102989446D02*
X142379221Y-104230225D01*
X143620000Y-100820000D02*
X143620000Y-102989446D01*
D17*
X142370000Y-104140000D02*
X142370000Y-105885000D01*
D18*
X142370000Y-104300000D02*
X142370000Y-105885000D01*
D15*
X141080000Y-103010000D02*
X142370000Y-104300000D01*
X141080000Y-100820000D02*
X141080000Y-103010000D01*
%TD*%
%TA.AperFunction,Conductor*%
%TO.N,GND*%
G36*
X172342121Y-51420002D02*
G01*
X172388614Y-51473658D01*
X172400000Y-51526000D01*
X172400000Y-60865500D01*
X172379998Y-60933621D01*
X172326342Y-60980114D01*
X172274000Y-60991500D01*
X170747255Y-60991500D01*
X170746485Y-60991498D01*
X170745669Y-60991493D01*
X170668911Y-60991024D01*
X170655990Y-60994717D01*
X170654478Y-60995149D01*
X170619853Y-61000000D01*
X129382780Y-61000000D01*
X129346678Y-60994717D01*
X129345903Y-60994485D01*
X129345897Y-60994484D01*
X129337303Y-60991914D01*
X129328332Y-60991859D01*
X129328331Y-60991859D01*
X129318272Y-60991798D01*
X129302863Y-60991704D01*
X129302080Y-60991671D01*
X129300983Y-60991500D01*
X129269992Y-60991500D01*
X129269222Y-60991498D01*
X129195584Y-60991048D01*
X129195583Y-60991048D01*
X129191648Y-60991024D01*
X129190304Y-60991408D01*
X129188959Y-60991500D01*
X127726000Y-60991500D01*
X127657879Y-60971498D01*
X127611386Y-60917842D01*
X127600000Y-60865500D01*
X127600000Y-51526000D01*
X127620002Y-51457879D01*
X127673658Y-51411386D01*
X127726000Y-51400000D01*
X172274000Y-51400000D01*
X172342121Y-51420002D01*
G37*
%TD.AperFunction*%
%TD*%
%TA.AperFunction,Conductor*%
%TO.N,+5V*%
G36*
X177942121Y-47020002D02*
G01*
X177988614Y-47073658D01*
X178000000Y-47126000D01*
X178000000Y-96774000D01*
X177979998Y-96842121D01*
X177926342Y-96888614D01*
X177874000Y-96900000D01*
X173348095Y-96900000D01*
X173279974Y-96879998D01*
X173259000Y-96863095D01*
X173236905Y-96841000D01*
X173202879Y-96778688D01*
X173200000Y-96751905D01*
X173200000Y-93000000D01*
X172956870Y-92797392D01*
X172013916Y-92011596D01*
X172013914Y-92011595D01*
X172000000Y-92000000D01*
X168000000Y-92000000D01*
X167000000Y-93000000D01*
X167000000Y-94851288D01*
X166979998Y-94919409D01*
X166967233Y-94936044D01*
X166114546Y-95874000D01*
X166037494Y-95958757D01*
X165976871Y-95995707D01*
X165944262Y-96000000D01*
X165126000Y-96000000D01*
X165057879Y-95979998D01*
X165011386Y-95926342D01*
X165000000Y-95874000D01*
X165000000Y-93052190D01*
X165020002Y-92984069D01*
X165036905Y-92963095D01*
X166000000Y-92000000D01*
X166000000Y-70000000D01*
X158215095Y-62215095D01*
X158181069Y-62152783D01*
X158186134Y-62081968D01*
X158228681Y-62025132D01*
X158295201Y-62000321D01*
X158304190Y-62000000D01*
X161947810Y-62000000D01*
X162015931Y-62020002D01*
X162036905Y-62036905D01*
X167000000Y-67000000D01*
X170800000Y-67000000D01*
X170800000Y-66047785D01*
X170820002Y-65979664D01*
X170873658Y-65933171D01*
X170926000Y-65921785D01*
X172274000Y-65921785D01*
X172342121Y-65941787D01*
X172388614Y-65995443D01*
X172400000Y-66047785D01*
X172400000Y-67000000D01*
X173100000Y-67000000D01*
X173100000Y-50800000D01*
X126900000Y-50800000D01*
X126900000Y-67000000D01*
X127600000Y-67000000D01*
X127600000Y-66047785D01*
X127620002Y-65979664D01*
X127673658Y-65933171D01*
X127726000Y-65921785D01*
X129074000Y-65921785D01*
X129142121Y-65941787D01*
X129188614Y-65995443D01*
X129200000Y-66047785D01*
X129200000Y-67000000D01*
X130000000Y-67000000D01*
X130000000Y-66126000D01*
X130020002Y-66057879D01*
X130073658Y-66011386D01*
X130126000Y-66000000D01*
X131874000Y-66000000D01*
X131942121Y-66020002D01*
X131988614Y-66073658D01*
X132000000Y-66126000D01*
X132000000Y-68951288D01*
X131979998Y-69019409D01*
X131967232Y-69036045D01*
X131074441Y-70018115D01*
X131000000Y-70100000D01*
X131000000Y-96674000D01*
X130979998Y-96742121D01*
X130926342Y-96788614D01*
X130874000Y-96800000D01*
X122126000Y-96800000D01*
X122057879Y-96779998D01*
X122011386Y-96726342D01*
X122000000Y-96674000D01*
X122000000Y-47126000D01*
X122020002Y-47057879D01*
X122073658Y-47011386D01*
X122126000Y-47000000D01*
X177874000Y-47000000D01*
X177942121Y-47020002D01*
G37*
%TD.AperFunction*%
%TD*%
%TA.AperFunction,Conductor*%
%TO.N,GND*%
G36*
X152000000Y-74947810D02*
G01*
X151979998Y-75015931D01*
X151963095Y-75036905D01*
X144500000Y-82500000D01*
X144500000Y-86876165D01*
X144498236Y-86897178D01*
X144430707Y-87296435D01*
X144391366Y-87764929D01*
X144391366Y-88235071D01*
X144430707Y-88703565D01*
X144431145Y-88706154D01*
X144498236Y-89102822D01*
X144500000Y-89123835D01*
X144500000Y-96674000D01*
X144479998Y-96742121D01*
X144426342Y-96788614D01*
X144374000Y-96800000D01*
X140326000Y-96800000D01*
X140257879Y-96779998D01*
X140211386Y-96726342D01*
X140200000Y-96674000D01*
X140200000Y-78852190D01*
X140220002Y-78784069D01*
X140236905Y-78763095D01*
X148000000Y-71000000D01*
X148000000Y-60900000D01*
X152000000Y-60900000D01*
X152000000Y-74947810D01*
G37*
%TD.AperFunction*%
%TD*%
M02*
